<svg xmlns="http://www.w3.org/2000/svg" width="73" height="77" viewBox="0 0 73 77">
  <g id="Grupo_1102219" data-name="Grupo 1102219" transform="translate(-202 -414)">
    <rect id="Rectángulo_382263" data-name="Rectángulo 382263" width="73" height="77" rx="8" transform="translate(202 414)" fill="#0b47db"/>
    <g id="lista-de-quehaceres_2_" data-name="lista-de-quehaceres (2)" transform="translate(193.978 424.561)">
      <g id="Grupo_1073654" data-name="Grupo 1073654" transform="translate(25.532 4.382)">
        <path id="Trazado_823651" data-name="Trazado 823651" d="M117.653,86.649H84.287a2.292,2.292,0,0,1-2.292-2.292V42.447a2.292,2.292,0,0,1,2.292-2.292h33.366a2.292,2.292,0,0,1,2.292,2.292V84.357A2.292,2.292,0,0,1,117.653,86.649Z" transform="translate(-81.995 -40.155)" fill="#c6865c"/>
      </g>
      <g id="Grupo_1073655" data-name="Grupo 1073655" transform="translate(25.532 4.382)">
        <path id="Trazado_823652" data-name="Trazado 823652" d="M117.676,40.155h-1.055v40.9a2.268,2.268,0,0,1-2.268,2.268H82v1.055a2.268,2.268,0,0,0,2.268,2.268h33.413a2.268,2.268,0,0,0,2.268-2.268V42.423A2.268,2.268,0,0,0,117.676,40.155Z" transform="translate(-81.995 -40.155)" fill="#b16e3d"/>
      </g>
      <g id="Grupo_1073656" data-name="Grupo 1073656" transform="translate(30.208 4.373)">
        <path id="Trazado_823653" data-name="Trazado 823653" d="M152.889,79.155H125.383a.546.546,0,0,1-.546-.546V40.619a.546.546,0,0,1,.546-.546h27.507a.546.546,0,0,1,.546.546V78.61A.546.546,0,0,1,152.889,79.155Z" transform="translate(-124.837 -40.073)" fill="#f9f6f9"/>
      </g>
      <g id="Grupo_1073657" data-name="Grupo 1073657" transform="translate(30.208 4.373)">
        <path id="Trazado_823654" data-name="Trazado 823654" d="M152.9,40.073h-2.26V75.815a.54.54,0,0,1-.54.54H124.837v2.26a.54.54,0,0,0,.54.54H152.9a.54.54,0,0,0,.54-.54v-38A.54.54,0,0,0,152.9,40.073Z" transform="translate(-124.837 -40.073)" fill="#dddaec"/>
      </g>
      <g id="Grupo_1073658" data-name="Grupo 1073658" transform="translate(28.244 27.03)">
        <circle id="Elipse_9839" data-name="Elipse 9839" cx="6.629" cy="6.629" r="6.629" fill="#b3e59f"/>
      </g>
      <g id="Grupo_1073659" data-name="Grupo 1073659" transform="translate(19.425 12.286)">
        <circle id="Elipse_9840" data-name="Elipse 9840" cx="6.629" cy="6.629" r="6.629" fill="#b3e59f"/>
      </g>
      <g id="Grupo_1073660" data-name="Grupo 1073660" transform="translate(44.317 28.494)">
        <path id="Trazado_823655" data-name="Trazado 823655" d="M268.6,271.185H255.963a1.846,1.846,0,0,1-1.846-1.846v-6.41a1.846,1.846,0,0,1,1.846-1.846H268.6a1.846,1.846,0,0,1,1.846,1.846v6.41A1.846,1.846,0,0,1,268.6,271.185Z" transform="translate(-254.117 -261.083)" fill="#dddaec"/>
      </g>
      <g id="Grupo_1073661" data-name="Grupo 1073661" transform="translate(37.214 41.811)">
        <circle id="Elipse_9841" data-name="Elipse 9841" cx="6.629" cy="6.629" r="6.629" fill="#b3e59f"/>
      </g>
      <g id="Grupo_1073662" data-name="Grupo 1073662" transform="translate(28.974 27.76)">
        <path id="Trazado_823656" data-name="Trazado 823656" d="M122.457,254.359a6.628,6.628,0,0,1-8.922,8.922,6.629,6.629,0,1,0,8.922-8.922Z" transform="translate(-113.535 -254.359)" fill="#95d6a4"/>
      </g>
      <g id="Grupo_1073663" data-name="Grupo 1073663" transform="translate(20.155 13.016)">
        <path id="Trazado_823657" data-name="Trazado 823657" d="M41.65,119.262a6.628,6.628,0,0,1-8.922,8.922,6.629,6.629,0,1,0,8.922-8.922Z" transform="translate(-32.728 -119.262)" fill="#95d6a4"/>
      </g>
      <g id="Grupo_1073664" data-name="Grupo 1073664" transform="translate(37.945 42.541)">
        <path id="Trazado_823658" data-name="Trazado 823658" d="M204.648,389.789a6.628,6.628,0,0,1-8.922,8.922,6.629,6.629,0,1,0,8.922-8.922Z" transform="translate(-195.726 -389.789)" fill="#95d6a4"/>
      </g>
      <g id="Grupo_1073665" data-name="Grupo 1073665" transform="translate(53.287 43.059)">
        <path id="Trazado_823659" data-name="Trazado 823659" d="M350.794,404.637H338.153a1.846,1.846,0,0,1-1.846-1.846v-6.41a1.846,1.846,0,0,1,1.846-1.846h12.641a1.846,1.846,0,0,1,1.846,1.846v6.41A1.846,1.846,0,0,1,350.794,404.637Z" transform="translate(-336.307 -394.535)" fill="#dddaec"/>
      </g>
      <g id="Grupo_1073666" data-name="Grupo 1073666" transform="translate(35.498 13.864)">
        <path id="Trazado_823660" data-name="Trazado 823660" d="M187.8,137.132H175.156a1.846,1.846,0,0,1-1.846-1.846v-6.41a1.846,1.846,0,0,1,1.846-1.846H187.8a1.846,1.846,0,0,1,1.846,1.846v6.41A1.846,1.846,0,0,1,187.8,137.132Z" transform="translate(-173.31 -127.03)" fill="#dddaec"/>
      </g>
      <g id="Grupo_1073667" data-name="Grupo 1073667" transform="translate(44.317 28.494)">
        <path id="Trazado_823661" data-name="Trazado 823661" d="M268.623,261.083h0v7.38a.891.891,0,0,1-.891.891H254.117v0a1.827,1.827,0,0,0,1.827,1.827h12.679a1.827,1.827,0,0,0,1.827-1.827V262.91A1.827,1.827,0,0,0,268.623,261.083Z" transform="translate(-254.117 -261.083)" fill="#d0cee7"/>
      </g>
      <g id="Grupo_1073668" data-name="Grupo 1073668" transform="translate(53.287 43.059)">
        <path id="Trazado_823662" data-name="Trazado 823662" d="M350.813,394.534h0v7.38a.891.891,0,0,1-.891.891H336.307v0a1.827,1.827,0,0,0,1.827,1.827h12.679a1.827,1.827,0,0,0,1.827-1.827v-6.448A1.827,1.827,0,0,0,350.813,394.534Z" transform="translate(-336.307 -394.534)" fill="#d0cee7"/>
      </g>
      <g id="Grupo_1073669" data-name="Grupo 1073669" transform="translate(35.498 13.864)">
        <path id="Trazado_823663" data-name="Trazado 823663" d="M187.815,127.029h0v7.38a.891.891,0,0,1-.891.891H173.309v0a1.827,1.827,0,0,0,1.827,1.827h12.679a1.827,1.827,0,0,0,1.827-1.827v-6.448A1.827,1.827,0,0,0,187.815,127.029Z" transform="translate(-173.309 -127.029)" fill="#d0cee7"/>
      </g>
      <g id="Grupo_1073670" data-name="Grupo 1073670" transform="translate(35.637 3.384)">
        <path id="Trazado_823664" data-name="Trazado 823664" d="M191.446,31H175.452a.873.873,0,0,0-.873.873V34a.873.873,0,0,0,.873.873h15.994a.873.873,0,0,0,.873-.873V31.878A.873.873,0,0,0,191.446,31Z" transform="translate(-174.579 -31.005)" fill="#e28086"/>
      </g>
      <g id="Grupo_1073671" data-name="Grupo 1073671" transform="translate(35.637 3.384)">
        <path id="Trazado_823665" data-name="Trazado 823665" d="M191.455,31h-.725V32.42a.864.864,0,0,1-.864.864H174.579v.725a.864.864,0,0,0,.864.864h16.012a.864.864,0,0,0,.864-.864v-2.14A.864.864,0,0,0,191.455,31Z" transform="translate(-174.579 -31.005)" fill="#dd636e"/>
      </g>
      <g id="Grupo_1073672" data-name="Grupo 1073672" transform="translate(18.615 0)">
        <path id="Trazado_823666" data-name="Trazado 823666" d="M293.873,283.7h-7.947a.81.81,0,0,0,0,1.62h7.947a.81.81,0,0,0,0-1.62Z" transform="translate(-256.031 -252.738)"/>
        <path id="Trazado_823667" data-name="Trazado 823667" d="M288.6,316.29h-2.673a.81.81,0,0,0,0,1.62H288.6a.81.81,0,1,0,0-1.62Z" transform="translate(-256.031 -281.771)"/>
        <path id="Trazado_823668" data-name="Trazado 823668" d="M67.793,42.249h-3.5V20.23a.81.81,0,1,0-1.62,0V42.249H59.616V39.284a2.642,2.642,0,0,0,1.844-2.515V30.321a2.642,2.642,0,0,0-1.844-2.515V5.192h1.6a1.46,1.46,0,0,1,1.458,1.458v9.783a.81.81,0,1,0,1.62,0V6.651a3.082,3.082,0,0,0-3.078-3.078h-7.17a1.676,1.676,0,0,0-1.531-1h-4.6a3.535,3.535,0,0,0-6.8,0H36.5a1.676,1.676,0,0,0-1.531,1H27.8a3.082,3.082,0,0,0-3.078,3.078V11.6a7.437,7.437,0,0,0,0,14.635V48.609A3.082,3.082,0,0,0,27.8,51.687h9.354a7.438,7.438,0,0,0,1.585,2.165.81.81,0,1,0,1.112-1.178,5.766,5.766,0,0,1-1.827-4.233,5.812,5.812,0,1,1,4.763,5.724.81.81,0,0,0-.292,1.594,7.446,7.446,0,0,0,8.039-4.07H52.5a2.641,2.641,0,0,0,2.613,2.284H67.793a2.64,2.64,0,0,0,2.637-2.637V44.886A2.64,2.64,0,0,0,67.793,42.249Zm-7.953-5.48a1.018,1.018,0,0,1-1.017,1.017H46.144a1.018,1.018,0,0,1-1.017-1.017V30.321A1.018,1.018,0,0,1,46.144,29.3H58.823a1.018,1.018,0,0,1,1.017,1.017v6.448ZM44.507,1.62a1.921,1.921,0,0,1,1.654.954h-3.31a1.914,1.914,0,0,1,1.656-.954Zm-8.06,2.628a.054.054,0,0,1,.054-.054H52.513a.054.054,0,0,1,.054.054v2.14a.054.054,0,0,1-.054.054H36.5a.054.054,0,0,1-.054-.054Zm2.448,3.814H50.119v.183a1.625,1.625,0,0,1-1.581,1.648,1.545,1.545,0,0,1-.735-.174,2.755,2.755,0,0,0-2.551-.011,1.594,1.594,0,0,1-1.492,0,2.755,2.755,0,0,0-2.551.011,1.58,1.58,0,0,1-.735.174,1.624,1.624,0,0,1-1.581-1.648ZM20.235,18.915a5.819,5.819,0,1,1,5.819,5.819A5.826,5.826,0,0,1,20.235,18.915Zm8.819,14.744a5.819,5.819,0,1,1,5.819,5.819A5.826,5.826,0,0,1,29.054,33.659ZM27.8,50.067a1.46,1.46,0,0,1-1.458-1.458V26.347a7.385,7.385,0,0,0,3.056-.79V28.63a7.423,7.423,0,0,0,0,10.059v4.227a1.352,1.352,0,0,0,1.35,1.35h6.941a7.387,7.387,0,0,0-1.1,5.8H27.8Zm11.385-7.421H31.018V40.019a7.439,7.439,0,1,0,0-12.72V24.45a7.434,7.434,0,0,0-4.676-12.967V6.651A1.46,1.46,0,0,1,27.8,5.193h1.6V9.385a.81.81,0,0,0,1.62,0V5.193h3.809v1.2A1.676,1.676,0,0,0,36.5,8.062h.773v.183a3.248,3.248,0,0,0,3.191,3.268,3.209,3.209,0,0,0,1.485-.353A1.135,1.135,0,0,1,43,11.138a3.213,3.213,0,0,0,3.015,0,1.136,1.136,0,0,1,1.049.023,3.212,3.212,0,0,0,1.485.353A3.248,3.248,0,0,0,51.74,8.245V8.062h.773a1.676,1.676,0,0,0,1.674-1.674v-1.2H58V27.684H46.144a2.64,2.64,0,0,0-2.637,2.637v6.448a2.64,2.64,0,0,0,2.637,2.637H58v2.842H55.115a2.622,2.622,0,0,0-1.389.4H48.5a7.418,7.418,0,0,0-9.316,0ZM50,44.266h2.554a2.634,2.634,0,0,0-.074.62v5.181H51.1a7.414,7.414,0,0,0-1.1-5.8ZM68.81,51.334a1.018,1.018,0,0,1-1.017,1.017H55.115A1.018,1.018,0,0,1,54.1,51.334V44.886a1.018,1.018,0,0,1,1.017-1.017H67.794a1.018,1.018,0,0,1,1.017,1.017v6.448Z" transform="translate(-18.615 0)"/>
        <path id="Trazado_823669" data-name="Trazado 823669" d="M376.064,417.153h-7.947a.81.81,0,0,0,0,1.62h7.947a.81.81,0,1,0,0-1.62Z" transform="translate(-329.251 -371.626)"/>
        <path id="Trazado_823670" data-name="Trazado 823670" d="M374.234,449.741h-6.117a.81.81,0,0,0,0,1.62h6.117a.81.81,0,0,0,0-1.62Z" transform="translate(-329.251 -400.657)"/>
        <path id="Trazado_823671" data-name="Trazado 823671" d="M183.84,128.692v-6.448a2.64,2.64,0,0,0-2.637-2.637H168.524a2.64,2.64,0,0,0-2.637,2.637v6.448a2.64,2.64,0,0,0,2.637,2.637H181.2A2.64,2.64,0,0,0,183.84,128.692Zm-16.333,0v-6.448a1.018,1.018,0,0,1,1.017-1.017H181.2a1.018,1.018,0,0,1,1.017,1.017v6.448a1.018,1.018,0,0,1-1.017,1.017H168.524A1.018,1.018,0,0,1,167.507,128.692Z" transform="translate(-149.814 -106.553)"/>
        <path id="Trazado_823672" data-name="Trazado 823672" d="M213.066,149.648h-7.947a.81.81,0,1,0,0,1.62h7.947a.81.81,0,0,0,0-1.62Z" transform="translate(-184.043 -133.316)"/>
        <path id="Trazado_823673" data-name="Trazado 823673" d="M213.066,182.236h-7.947a.81.81,0,1,0,0,1.62h7.947a.81.81,0,0,0,0-1.62Z" transform="translate(-184.043 -162.347)"/>
        <path id="Trazado_823674" data-name="Trazado 823674" d="M148.631,278.159a.81.81,0,0,0-.82-.8c-.592.007-1.218.013-1.757.014.35-.471.821-1.118,1.44-2a4.977,4.977,0,0,0,.811-1.682.769.769,0,0,0,.014-.08l.032-.25a.806.806,0,0,0,.007-.1,2.461,2.461,0,0,0-4.876-.476.81.81,0,0,0,1.59.312.841.841,0,0,1,1.665.121l-.019.145a3.567,3.567,0,0,1-.552,1.083c-1.021,1.459-1.63,2.256-1.957,2.685-.408.535-.613.8-.476,1.247a.839.839,0,0,0,.545.553,5.3,5.3,0,0,0,1.469.068c.494,0,1.165,0,2.085-.016A.81.81,0,0,0,148.631,278.159Z" transform="translate(-129.84 -241.242)"/>
        <path id="Trazado_823675" data-name="Trazado 823675" d="M69.479,146.562v-6.451a.81.81,0,0,0-.81-.81H67.29a.81.81,0,1,0,0,1.62h.569v5.641a.81.81,0,0,0,1.62,0Z" transform="translate(-61.256 -124.098)"/>
        <path id="Trazado_823676" data-name="Trazado 823676" d="M229.231,415.324a4.33,4.33,0,1,0-2.415-6.238.81.81,0,1,0,1.59.312.841.841,0,1,1,.825,1,.81.81,0,1,0,0,1.62.841.841,0,1,1-.833.959.856.856,0,0,1-.008-.118.81.81,0,0,0-1.62,0,2.459,2.459,0,0,0,2.461,2.461Z" transform="translate(-204.052 -362.671)"/>
      </g>
    </g>
  </g>
</svg>
