<svg xmlns="http://www.w3.org/2000/svg" xmlns:xlink="http://www.w3.org/1999/xlink" width="505" height="419" viewBox="0 0 505 419">
  <defs>
    <clipPath id="clip-path">
      <rect id="Rectángulo_382740" data-name="Rectángulo 382740" width="505" height="419" transform="translate(180 3012)" fill="#12263f" stroke="#707070" stroke-width="1" opacity="0.51"/>
    </clipPath>
    <clipPath id="clip-path-2">
      <rect id="Rectángulo_382677" data-name="Rectángulo 382677" width="79.316" height="46.369" fill="none"/>
    </clipPath>
    <clipPath id="clip-path-3">
      <rect id="Rectángulo_382670" data-name="Rectángulo 382670" width="79.316" height="46.37" fill="none"/>
    </clipPath>
    <clipPath id="clip-path-4">
      <rect id="Rectángulo_382669" data-name="Rectángulo 382669" width="77.849" height="44.902" fill="none"/>
    </clipPath>
    <clipPath id="clip-path-6">
      <rect id="Rectángulo_382680" data-name="Rectángulo 382680" width="55.521" height="57.577" fill="none"/>
    </clipPath>
    <clipPath id="clip-path-7">
      <path id="Trazado_824349" data-name="Trazado 824349" d="M223.067,383.86c6.77,11.03,41.12,16.21,59.87,15.72s72.7-26.03,76.36-31.44c3.39-5.01,11.72-21.57-1.12-31.58a24.883,24.883,0,0,0-3.46-2.24c-8.79-4.76-67.25,10.25-67.25,10.25s-3.62-2.29-4.95-2.12c-4.08.52-6.97,3.82-15.24,6.17-5.77,1.65-21.52-4.69-31.58.76a13.877,13.877,0,0,0-3.06,2.22c-9.4,8.98-16.33,21.23-9.57,32.26Z" transform="translate(-220.362 -333.387)" fill="#92e3a9" stroke="#263238" stroke-linecap="round" stroke-linejoin="round" stroke-width="1"/>
    </clipPath>
    <clipPath id="clip-path-8">
      <path id="Trazado_824354" data-name="Trazado 824354" d="M351.782,393.42l-17.52,13.75a201.829,201.829,0,0,1-25.12-3.75h0c-8.3-1.93-15.55-4.69-15.95-8.46-.61-5.74,5.53-7.31,12.82-7.09,1.36.03,2.76.14,4.17.28,11.67,1.25,26.51-5.2,26.51-5.2l15.08,10.47Z" transform="translate(-293.15 -382.95)" fill="#263238" stroke="#263238" stroke-linecap="round" stroke-linejoin="round" stroke-width="1"/>
    </clipPath>
    <clipPath id="clip-path-9">
      <path id="Trazado_824358" data-name="Trazado 824358" d="M314.369,398.83c3.16.52-.31,6.97-4.59,5.01S311.209,398.31,314.369,398.83Z" transform="translate(-308.246 -398.779)" fill="#fff" stroke="#263238" stroke-linecap="round" stroke-linejoin="round" stroke-width="1"/>
    </clipPath>
    <clipPath id="clip-path-10">
      <path id="Trazado_824362" data-name="Trazado 824362" d="M350.415,403.4c-8.3-1.92-15.55-4.68-15.95-8.45-.61-5.74,5.53-7.31,12.82-7.09.32.31,7.39,7.14,3.12,15.54Z" transform="translate(-334.423 -387.84)" fill="#fff" stroke="#263238" stroke-linecap="round" stroke-linejoin="round" stroke-width="1"/>
    </clipPath>
    <clipPath id="clip-path-11">
      <path id="Trazado_824372" data-name="Trazado 824372" d="M223.99,393.95l18.86,11.83a201.277,201.277,0,0,0,24.58-6.37h0c8.05-2.79,14.97-6.29,14.97-10.09,0-5.77-6.27-6.69-13.5-5.7-1.35.17-2.73.42-4.12.72-11.48,2.47-26.91-2.38-26.91-2.38l-13.9,12Z" transform="translate(-223.97 -381.96)" fill="#263238" stroke="#263238" stroke-linecap="round" stroke-linejoin="round" stroke-width="1"/>
    </clipPath>
  </defs>
  <g id="Enmascarar_grupo_174" data-name="Enmascarar grupo 174" transform="translate(-180 -3012)" clip-path="url(#clip-path)">
    <g id="_4542734" data-name="4542734" transform="translate(226.819 3012.01)">
      <g id="Background_Simple" data-name="Background Simple" transform="translate(1.415 0)">
        <path id="Trazado_824312" data-name="Trazado 824312" d="M387.754,137.97s27.88,71.99-11.3,144.5-316.13,160.35-348,106.71,11.85-91.93,11.9-168.42S28.9,124.02,70.315,59.4s143.06-78.92,219.9-30.99S387.754,137.97,387.754,137.97Z" transform="translate(3.211 -0.002)" fill="#fff" opacity="0.7"/>
        <g id="Grupo_1073767" data-name="Grupo 1073767" transform="translate(0 31.526)">
          <path id="Trazado_824313" data-name="Trazado 824313" d="M408.433,402.55H197.223c-.86-1.36-1.72-2.72-2.59-4.05-22.72-34.59-59.1-59.24-98.83-70.81-17.8-5.18-37.08-8.27-51.38-20.06-14.72-12.14-21.48-31.5-24.4-50.34-3.54-22.82-1.63-48.4,13.86-65.54,18.19-20.12,48.67-22.37,72.37-35.56,40.79-22.7,56.6-74.39,93.71-102.71,23.43-17.88,55.09-24.81,83.4-20.89,40.19,5.56,78.01,32.5,89.36,71.96a99.81,99.81,0,0,1,3.44,35.41c-1.82,23.55-6.88,47.4-2.1,70.53,5.27,25.49,21.85,47.02,31.76,71.09,12.34,29.97,14.04,63.6,8.76,95.58a163.522,163.522,0,0,1-6.15,25.38Z" transform="translate(-18.508 -31.528)" fill="#fff"/>
        </g>
      </g>
      <g id="Floor" transform="translate(0 402.548)">
        <line id="Línea_269" data-name="Línea 269" x1="418.32" fill="none" stroke="#263238" stroke-linecap="round" stroke-linejoin="round" stroke-width="1"/>
      </g>
      <g id="Graphics" transform="translate(12.62 33.308)">
        <g id="Grupo_1073772" data-name="Grupo 1073772">
          <path id="Trazado_824315" data-name="Trazado 824315" d="M151.25,84.27V68.57l11.76-1.01a32.313,32.313,0,0,1,2.91-7.05l-7.59-9.02,11.1-11.1,9.02,7.59a32.111,32.111,0,0,1,7.05-2.91l1.01-11.76h15.7l1.01,11.76a32.313,32.313,0,0,1,7.05,2.91l9.02-7.59,11.1,11.1-7.59,9.02a32.6,32.6,0,0,1,2.91,7.05l11.76,1.01v15.7l-11.76,1.01a32.313,32.313,0,0,1-2.91,7.05l7.59,9.02-11.1,11.1-9.02-7.59a32.6,32.6,0,0,1-7.05,2.91l-1.01,11.76h-15.7l-1.01-11.76a32.313,32.313,0,0,1-7.05-2.91l-9.02,7.59-11.1-11.1,7.59-9.02a32.6,32.6,0,0,1-2.91-7.05Zm43.11,10.4a18.24,18.24,0,1,0-18.24-18.24A18.245,18.245,0,0,0,194.36,94.67Z" transform="translate(17.48 -33.31)" fill="none" stroke="#263238" stroke-linecap="round" stroke-linejoin="round" stroke-width="1"/>
          <path id="Trazado_824316" data-name="Trazado 824316" d="M364.85,237.73V230.2l5.64-.49a15.914,15.914,0,0,1,1.39-3.38L368.24,222l5.32-5.32,4.33,3.64a15.412,15.412,0,0,1,3.38-1.39l.49-5.64h7.53l.49,5.64a15.916,15.916,0,0,1,3.38,1.39l4.33-3.64,5.32,5.32-3.64,4.33a15.412,15.412,0,0,1,1.39,3.38l5.64.49v7.53l-5.64.49a15.914,15.914,0,0,1-1.39,3.38l3.64,4.33-5.32,5.32-4.33-3.64a15.412,15.412,0,0,1-3.38,1.39l-.49,5.64h-7.53l-.49-5.64a15.916,15.916,0,0,1-3.38-1.39l-4.33,3.64-5.32-5.32,3.64-4.33a15.412,15.412,0,0,1-1.39-3.38Zm20.68,4.98a8.75,8.75,0,1,0-8.75-8.75A8.753,8.753,0,0,0,385.53,242.71Z" transform="translate(-364.85 -33.31)" fill="none" stroke="#263238" stroke-linecap="round" stroke-linejoin="round" stroke-width="1"/>
          <g id="Grupo_1073769" data-name="Grupo 1073769" transform="translate(2.35 32.9)">
            <path id="Trazado_824317" data-name="Trazado 824317" d="M313.93,100.68a20.533,20.533,0,0,1,25.36-24.44,19.7,19.7,0,0,1,36.82,8.43,16.274,16.274,0,0,1,2.98-.29,16.093,16.093,0,0,1,15.99,14.28,8.966,8.966,0,0,1-.2,17.93H319.59a8.97,8.97,0,0,1-5.67-15.92Z" transform="translate(-310.62 -66.21)" fill="none" stroke="#263238" stroke-linecap="round" stroke-linejoin="round" stroke-width="1"/>
            <g id="Grupo_1073768" data-name="Grupo 1073768" transform="translate(40.79 23.31)">
              <line id="Línea_270" data-name="Línea 270" y2="20.75" transform="translate(3.92 20.2)" fill="none" stroke="#263238" stroke-linecap="round" stroke-linejoin="round" stroke-width="1"/>
              <line id="Línea_271" data-name="Línea 271" y2="8.3" transform="translate(3.92 7.75)" fill="none" stroke="#263238" stroke-linecap="round" stroke-linejoin="round" stroke-width="1"/>
              <line id="Línea_272" data-name="Línea 272" y2="4.43" transform="translate(3.92)" fill="none" stroke="#263238" stroke-linecap="round" stroke-linejoin="round" stroke-width="1"/>
              <path id="Trazado_824318" data-name="Trazado 824318" d="M363.06,128.04l-3.92,4.85-3.92-4.85" transform="translate(-355.22 -89.52)" fill="none" stroke="#263238" stroke-linecap="round" stroke-linejoin="round" stroke-width="1"/>
            </g>
          </g>
          <g id="Grupo_1073771" data-name="Grupo 1073771" transform="translate(231.75 276.26)">
            <path id="Trazado_824319" data-name="Trazado 824319" d="M84.53,344.04a20.533,20.533,0,0,1,25.36-24.44,19.7,19.7,0,0,1,36.82,8.43,16.274,16.274,0,0,1,2.98-.29,16.093,16.093,0,0,1,15.99,14.28,8.966,8.966,0,0,1-.2,17.93H90.19a8.97,8.97,0,0,1-5.67-15.92Z" transform="translate(-81.22 -309.57)" fill="none" stroke="#263238" stroke-linecap="round" stroke-linejoin="round" stroke-width="1"/>
            <g id="Grupo_1073770" data-name="Grupo 1073770" transform="translate(40.79 23.3)">
              <line id="Línea_273" data-name="Línea 273" y1="20.75" transform="translate(3.91 2.42)" fill="none" stroke="#263238" stroke-linecap="round" stroke-linejoin="round" stroke-width="1"/>
              <line id="Línea_274" data-name="Línea 274" y1="8.3" transform="translate(3.91 27.32)" fill="none" stroke="#263238" stroke-linecap="round" stroke-linejoin="round" stroke-width="1"/>
              <line id="Línea_275" data-name="Línea 275" y1="4.44" transform="translate(3.91 38.93)" fill="none" stroke="#263238" stroke-linecap="round" stroke-linejoin="round" stroke-width="1"/>
              <path id="Trazado_824320" data-name="Trazado 824320" d="M125.83,337.72l3.91-4.85,3.92,4.85" transform="translate(-125.83 -332.87)" fill="none" stroke="#263238" stroke-linecap="round" stroke-linejoin="round" stroke-width="1"/>
            </g>
          </g>
        </g>
      </g>
      <g id="Interface" transform="translate(111.64 28.898)">
        <g id="Grupo_1073791" data-name="Grupo 1073791">
          <path id="Trazado_824321" data-name="Trazado 824321" d="M266.175,80.78H12.035A4.265,4.265,0,0,0,7.75,85.02V96.87H270.46V85.02A4.265,4.265,0,0,0,266.175,80.78Z" transform="translate(17.6 -25.92)" fill="#a854f3" stroke="#263238" stroke-linecap="round" stroke-linejoin="round" stroke-width="1"/>
          <rect id="Rectángulo_382636" data-name="Rectángulo 382636" width="262.71" height="184.87" transform="translate(25.35 70.95)" fill="#fff" stroke="#263238" stroke-linecap="round" stroke-linejoin="round" stroke-width="1"/>
          <path id="Trazado_824322" data-name="Trazado 824322" d="M277.82,88.83a4.02,4.02,0,1,0,4.02-4.02A4.02,4.02,0,0,0,277.82,88.83Z" transform="translate(-245.6 -25.925)" fill="#fff" stroke="#263238" stroke-linecap="round" stroke-linejoin="round" stroke-width="1"/>
          <path id="Trazado_824323" data-name="Trazado 824323" d="M263.66,88.83a4.02,4.02,0,1,0,4.02-4.02A4.02,4.02,0,0,0,263.66,88.83Z" transform="translate(-217.28 -25.925)" fill="#fff" stroke="#263238" stroke-linecap="round" stroke-linejoin="round" stroke-width="1"/>
          <path id="Trazado_824324" data-name="Trazado 824324" d="M249.5,88.83a4.02,4.02,0,1,0,4.02-4.02A4.02,4.02,0,0,0,249.5,88.83Z" transform="translate(-188.96 -25.925)" fill="#fff" stroke="#263238" stroke-linecap="round" stroke-linejoin="round" stroke-width="1"/>
          <g id="Grupo_1073773" data-name="Grupo 1073773" transform="translate(33.3 78.88)">
            <line id="Línea_276" data-name="Línea 276" x2="10.41" transform="translate(0)" fill="none" stroke="#263238" stroke-linecap="round" stroke-linejoin="round" stroke-width="2"/>
            <line id="Línea_277" data-name="Línea 277" x2="10.41" transform="translate(0 4.22)" fill="none" stroke="#263238" stroke-linecap="round" stroke-linejoin="round" stroke-width="2"/>
            <line id="Línea_278" data-name="Línea 278" x2="10.41" transform="translate(0 8.44)" fill="none" stroke="#263238" stroke-linecap="round" stroke-linejoin="round" stroke-width="2"/>
          </g>
          <g id="Grupo_1073774" data-name="Grupo 1073774" transform="translate(191.13 187.96)">
            <line id="Línea_279" data-name="Línea 279" x1="78.73" transform="translate(0)" fill="none" stroke="#263238" stroke-linecap="round" stroke-linejoin="round" stroke-width="2"/>
            <line id="Línea_280" data-name="Línea 280" x1="78.73" transform="translate(0 6.21)" fill="none" stroke="#263238" stroke-linecap="round" stroke-linejoin="round" stroke-width="2"/>
            <line id="Línea_281" data-name="Línea 281" x1="62.07" transform="translate(16.66 12.54)" fill="none" stroke="#263238" stroke-linecap="round" stroke-linejoin="round" stroke-width="2"/>
          </g>
          <g id="Grupo_1073777" data-name="Grupo 1073777" transform="translate(29.37 73.04)">
            <g id="Grupo_1073775" data-name="Grupo 1073775" transform="translate(73.54)">
              <line id="Línea_282" data-name="Línea 282" y2="0.5" transform="translate(0)" fill="none" stroke="#263238" stroke-linecap="round" stroke-linejoin="round" stroke-width="1"/>
              <line id="Línea_283" data-name="Línea 283" y2="174.23" transform="translate(0 3.49)" fill="none" stroke="#263238" stroke-linecap="round" stroke-linejoin="round" stroke-width="1" stroke-dasharray="0 0 1 3"/>
              <line id="Línea_284" data-name="Línea 284" y2="0.5" transform="translate(0 179.22)" fill="none" stroke="#263238" stroke-linecap="round" stroke-linejoin="round" stroke-width="1"/>
            </g>
            <g id="Grupo_1073776" data-name="Grupo 1073776" transform="translate(0 141.32)">
              <line id="Línea_285" data-name="Línea 285" x1="0.5" transform="translate(255.02)" fill="none" stroke="#263238" stroke-linecap="round" stroke-linejoin="round" stroke-width="1"/>
              <line id="Línea_286" data-name="Línea 286" x1="250.04" transform="translate(1.99)" fill="none" stroke="#263238" stroke-linecap="round" stroke-linejoin="round" stroke-width="1" stroke-dasharray="0 0 1 2.99"/>
              <line id="Línea_287" data-name="Línea 287" x1="0.5" transform="translate(0)" fill="none" stroke="#263238" stroke-linecap="round" stroke-linejoin="round" stroke-width="1"/>
            </g>
            <rect id="Rectángulo_382637" data-name="Rectángulo 382637" width="3.45" height="3.45" transform="translate(71.82 139.6)" fill="#fff" stroke="#263238" stroke-linecap="round" stroke-linejoin="round" stroke-width="1"/>
          </g>
          <g id="Grupo_1073779" data-name="Grupo 1073779" transform="translate(179.5)">
            <path id="Trazado_824325" data-name="Trazado 824325" d="M76.2,28.9h49.3a2.179,2.179,0,0,1,2.18,2.18V54.03a2.179,2.179,0,0,1-2.18,2.18H103.37l-2.53,9.04-2.53-9.04H76.18A2.179,2.179,0,0,1,74,54.03V31.08a2.179,2.179,0,0,1,2.18-2.18Z" transform="translate(-74 -28.9)" fill="#a854f3" stroke="#263238" stroke-linecap="round" stroke-linejoin="round" stroke-width="1"/>
            <g id="Grupo_1073778" data-name="Grupo 1073778" transform="translate(8.23 6.57)">
              <line id="Línea_288" data-name="Línea 288" x1="37.25" fill="none" stroke="#263238" stroke-linecap="round" stroke-linejoin="round" stroke-width="2"/>
              <line id="Línea_289" data-name="Línea 289" x1="37.25" transform="translate(0 4.72)" fill="none" stroke="#263238" stroke-linecap="round" stroke-linejoin="round" stroke-width="2"/>
              <line id="Línea_290" data-name="Línea 290" x1="37.25" transform="translate(0 9.44)" fill="none" stroke="#263238" stroke-linecap="round" stroke-linejoin="round" stroke-width="2"/>
              <line id="Línea_291" data-name="Línea 291" x1="28.08" transform="translate(9.17 14.16)" fill="none" stroke="#263238" stroke-linecap="round" stroke-linejoin="round" stroke-width="2"/>
            </g>
          </g>
          <g id="Grupo_1073781" data-name="Grupo 1073781" transform="translate(196.581 232.39)">
            <path id="Trazado_824479" data-name="Trazado 824479" d="M0,0H62.578V39.219H0Z" transform="translate(0)" fill="#fff" stroke="#263238" stroke-linecap="round" stroke-width="1"/>
            <path id="Trazado_883813" data-name="Trazado 883813" d="M0,0H62.578V5.959H0Z" transform="translate(0)" fill="#a854f3" stroke="#263238" stroke-linecap="round" stroke-width="1"/>
            <g id="Grupo_1073780" data-name="Grupo 1073780" transform="translate(20.513 10.986)">
              <line id="Línea_292" data-name="Línea 292" x1="15.988" transform="translate(19.685)" fill="none" stroke="#2b2828" stroke-linecap="round" stroke-linejoin="round" stroke-width="1"/>
              <line id="Línea_293" data-name="Línea 293" x1="27.685" transform="translate(0 4.467)" fill="none" stroke="#2b2828" stroke-linecap="round" stroke-linejoin="round" stroke-width="1"/>
              <line id="Línea_294" data-name="Línea 294" x1="8.152" transform="translate(23.067 8.618)" fill="none" stroke="#2b2828" stroke-linecap="round" stroke-linejoin="round" stroke-width="1"/>
              <line id="Línea_295" data-name="Línea 295" x1="18.647" transform="translate(9.038 13.539)" fill="none" stroke="#2b2828" stroke-linecap="round" stroke-linejoin="round" stroke-width="1"/>
              <line id="Línea_296" data-name="Línea 296" x1="15.988" transform="translate(19.685 17.994)" fill="none" stroke="#2b2828" stroke-linecap="round" stroke-linejoin="round" stroke-width="1"/>
            </g>
          </g>
          <path id="Trazado_824328" data-name="Trazado 824328" d="M27.11,145.75v-7.07l5.3-.46a14.5,14.5,0,0,1,1.31-3.17l-3.42-4.06,5-5,4.06,3.42a14.7,14.7,0,0,1,3.17-1.31l.46-5.3h7.07l.46,5.3a14.5,14.5,0,0,1,3.17,1.31l4.06-3.42,5,5-3.42,4.06a14.7,14.7,0,0,1,1.31,3.17l5.3.46v7.07l-5.3.46a14.5,14.5,0,0,1-1.31,3.17l3.42,4.06-5,5-4.06-3.42a14.7,14.7,0,0,1-3.17,1.31l-.46,5.3H42.99l-.46-5.3a14.5,14.5,0,0,1-3.17-1.31l-4.06,3.42-5-5,3.42-4.06a14.7,14.7,0,0,1-1.31-3.17Zm19.42,4.68a8.22,8.22,0,1,0-8.22-8.22A8.22,8.22,0,0,0,46.53,150.43Z" transform="translate(214.13 -28.9)" fill="#a854f3" stroke="#263238" stroke-linecap="round" stroke-linejoin="round" stroke-width="1"/>
          <path id="Trazado_824329" data-name="Trazado 824329" d="M63.4,161.61v-4.84l3.63-.31a10.126,10.126,0,0,1,.9-2.17l-2.34-2.78,3.42-3.42,2.78,2.34a10.343,10.343,0,0,1,2.17-.9l.31-3.63h4.84l.31,3.63a10.343,10.343,0,0,1,2.17.9l2.78-2.34,3.42,3.42-2.34,2.78a10.343,10.343,0,0,1,.9,2.17l3.63.31v4.84l-3.63.31a10.126,10.126,0,0,1-.9,2.17l2.34,2.78-3.42,3.42-2.78-2.34a10.343,10.343,0,0,1-2.17.9l-.31,3.63H74.27l-.31-3.63a10.127,10.127,0,0,1-2.17-.9l-2.78,2.34-3.42-3.42,2.34-2.78a10.343,10.343,0,0,1-.9-2.17l-3.63-.31Zm13.3,3.21a5.63,5.63,0,1,0-5.63-5.63A5.629,5.629,0,0,0,76.7,164.82Z" transform="translate(153.8 -28.9)" fill="#a854f3" stroke="#263238" stroke-linecap="round" stroke-linejoin="round" stroke-width="1"/>
          <g id="Grupo_1073784" data-name="Grupo 1073784" transform="translate(54.3 226.12)">
            <line id="Línea_298" data-name="Línea 298" x1="38.73" transform="translate(0)" fill="none" stroke="#263238" stroke-linecap="round" stroke-linejoin="round" stroke-width="2"/>
            <line id="Línea_299" data-name="Línea 299" x1="38.73" transform="translate(0 6.21)" fill="none" stroke="#263238" stroke-linecap="round" stroke-linejoin="round" stroke-width="2"/>
            <line id="Línea_300" data-name="Línea 300" x1="22.08" transform="translate(16.65 12.54)" fill="none" stroke="#263238" stroke-linecap="round" stroke-linejoin="round" stroke-width="2"/>
          </g>
          <path id="Trazado_824330" data-name="Trazado 824330" d="M142.73,270.13h20.39a5.023,5.023,0,0,0,5.02-5.02h0a5.023,5.023,0,0,0-5.02-5.02H142.73a5.023,5.023,0,0,0-5.02,5.02h0A5.023,5.023,0,0,0,142.73,270.13Z" transform="translate(1.33 -28.9)" fill="#a854f3" stroke="#263238" stroke-linecap="round" stroke-linejoin="round" stroke-width="1"/>
          <path id="Trazado_824331" data-name="Trazado 824331" d="M180.72,270.13h20.39a5.023,5.023,0,0,0,5.02-5.02h0a5.023,5.023,0,0,0-5.02-5.02H180.72a5.023,5.023,0,0,0-5.02,5.02h0A5.023,5.023,0,0,0,180.72,270.13Z" transform="translate(-74.65 -28.9)" fill="#a854f3" stroke="#263238" stroke-linecap="round" stroke-linejoin="round" stroke-width="1"/>
          <g id="Grupo_1073785" data-name="Grupo 1073785" transform="translate(46.96 133.95)">
            <rect id="Rectángulo_382643" data-name="Rectángulo 382643" width="43.24" height="43.24" transform="translate(0)" fill="#fff" stroke="#263238" stroke-linecap="round" stroke-linejoin="round" stroke-width="1"/>
            <line id="Línea_301" data-name="Línea 301" x1="43.24" y2="43.24" transform="translate(0)" fill="#fff" stroke="#263238" stroke-linecap="round" stroke-linejoin="round" stroke-width="1"/>
            <line id="Línea_302" data-name="Línea 302" x2="43.24" y2="43.24" transform="translate(0)" fill="#fff" stroke="#263238" stroke-linecap="round" stroke-linejoin="round" stroke-width="1"/>
          </g>
          <g id="Grupo_1073788" data-name="Grupo 1073788" transform="translate(73.24 84.87)">
            <path id="Trazado_824332" data-name="Trazado 824332" d="M219.4,113.77v10.09l4.45,4.45h10.09V113.77Z" transform="translate(-219.4 -113.77)" fill="#fff" stroke="#263238" stroke-linecap="round" stroke-linejoin="round" stroke-width="1"/>
            <path id="Trazado_824333" data-name="Trazado 824333" d="M229.49,123.86l4.45,4.45v-4.45Z" transform="translate(-229.49 -113.77)" fill="#fff" stroke="#263238" stroke-linecap="round" stroke-linejoin="round" stroke-width="1"/>
          </g>
          <g id="Grupo_1073789" data-name="Grupo 1073789" transform="translate(227.87 162.9)">
            <path id="Trazado_824334" data-name="Trazado 824334" d="M64.77,191.8v10.09l4.45,4.45H79.31V191.8Z" transform="translate(-64.77 -191.8)" fill="#fff" stroke="#263238" stroke-linecap="round" stroke-linejoin="round" stroke-width="1"/>
            <path id="Trazado_824335" data-name="Trazado 824335" d="M74.86,201.89l4.45,4.45v-4.45Z" transform="translate(-74.86 -191.8)" fill="#fff" stroke="#263238" stroke-linecap="round" stroke-linejoin="round" stroke-width="1"/>
          </g>
          <g id="Grupo_1073790" data-name="Grupo 1073790" transform="translate(282.82 225.06)">
            <path id="Trazado_824336" data-name="Trazado 824336" d="M9.82,253.96v10.09l4.45,4.45H24.36V253.96Z" transform="translate(-9.82 -253.96)" fill="#fff" stroke="#263238" stroke-linecap="round" stroke-linejoin="round" stroke-width="1"/>
            <path id="Trazado_824337" data-name="Trazado 824337" d="M19.91,264.05l4.45,4.45v-4.45Z" transform="translate(-19.91 -253.96)" fill="#fff" stroke="#263238" stroke-linecap="round" stroke-linejoin="round" stroke-width="1"/>
          </g>
          <g id="Grupo_1073838" data-name="Grupo 1073838" transform="translate(121.134 80.44)">
            <g id="Grupo_1073845" data-name="Grupo 1073845" clip-path="url(#clip-path-2)">
              <g id="Grupo_1073842" data-name="Grupo 1073842" transform="translate(0 0)">
                <g id="Grupo_1073841" data-name="Grupo 1073841" clip-path="url(#clip-path-3)">
                  <g id="Grupo_1073840" data-name="Grupo 1073840" transform="translate(1.467 1.467)" opacity="0.3">
                    <g id="Grupo_1073839" data-name="Grupo 1073839">
                      <g id="Grupo_1073838-2" data-name="Grupo 1073838" clip-path="url(#clip-path-4)">
                        <rect id="Rectángulo_382668" data-name="Rectángulo 382668" width="77.849" height="44.902" transform="translate(0 0)"/>
                      </g>
                    </g>
                  </g>
                </g>
              </g>
              <path id="Trazado_824477" data-name="Trazado 824477" d="M0,0H77.849V44.9H0Z" transform="translate(0.268 0.268)" fill="#3c464c"/>
              <g id="Grupo_1073844" data-name="Grupo 1073844" transform="translate(0 0)">
                <g id="Grupo_1073843" data-name="Grupo 1073843" clip-path="url(#clip-path-3)">
                  <rect id="Rectángulo_382672" data-name="Rectángulo 382672" width="77.849" height="44.902" transform="translate(0.268 0.269)" fill="none" stroke="#263238" stroke-miterlimit="10" stroke-width="0.966"/>
                  <path id="Trazado_824453" data-name="Trazado 824453" d="M62.454,43.12a3.963,3.963,0,1,1-3.963-3.963A3.962,3.962,0,0,1,62.454,43.12Z" transform="translate(-24.228 -17.398)" fill="none" stroke="#fff" stroke-miterlimit="10" stroke-width="0.966"/>
                  <path id="Trazado_824455" data-name="Trazado 824455" d="M79.011,51.605a2.6,2.6,0,1,1-2.6-2.6A2.6,2.6,0,0,1,79.011,51.605Z" transform="translate(-32.799 -21.775)" fill="none" stroke="#fff" stroke-miterlimit="10" stroke-width="0.966"/>
                  <g id="Grupo_1073846" data-name="Grupo 1073846">
                    <path id="Trazado_824452" data-name="Trazado 824452" d="M62.666,41.408l-.817-.057a5.067,5.067,0,0,0-.078-.822l.79-.212a.233.233,0,0,0,.164-.286l-.1-.368a.233.233,0,0,0-.286-.164l-.789.211a5.052,5.052,0,0,0-.344-.751l.678-.457a.233.233,0,0,0,.063-.323l-.213-.316a.233.233,0,0,0-.323-.063l-.678.457a5.174,5.174,0,0,0-.568-.6L60.659,37a.233.233,0,0,0-.046-.326l-.3-.229a.233.233,0,0,0-.326.046l-.492.653a4.954,4.954,0,0,0-.732-.383l.252-.776a.233.233,0,0,0-.149-.294l-.362-.118a.234.234,0,0,0-.294.149l-.253.778a4.983,4.983,0,0,0-.729-.114V35.57a.233.233,0,0,0-.233-.233h-.381a.233.233,0,0,0-.233.233v.819a4.982,4.982,0,0,0-.815.134l-.266-.772a.233.233,0,0,0-.3-.144l-.361.124a.233.233,0,0,0-.144.3l.266.772a5.054,5.054,0,0,0-.726.4l-.5-.645a.233.233,0,0,0-.327-.041l-.3.235a.233.233,0,0,0-.041.327l.5.645a5.082,5.082,0,0,0-.558.609l-.686-.446a.233.233,0,0,0-.322.068l-.208.32a.234.234,0,0,0,.068.323l.685.445a5.111,5.111,0,0,0-.329.758l-.793-.2a.233.233,0,0,0-.282.17l-.092.37a.233.233,0,0,0,.169.282l.793.2a5.084,5.084,0,0,0-.064.807v.017l-.815.071a.234.234,0,0,0-.212.253l.033.38a.233.233,0,0,0,.252.212l.815-.071a4.984,4.984,0,0,0,.206.8l-.747.332a.233.233,0,0,0-.118.308l.156.348a.233.233,0,0,0,.307.118l.746-.332a5.115,5.115,0,0,0,.457.688l-.6.558a.233.233,0,0,0-.012.329l.26.279a.233.233,0,0,0,.33.012l.6-.557a5.11,5.11,0,0,0,.656.5l-.384.722a.233.233,0,0,0,.1.315l.337.179a.233.233,0,0,0,.315-.1l.383-.721a5.065,5.065,0,0,0,.784.262l-.127.807a.232.232,0,0,0,.193.267l.377.059a.232.232,0,0,0,.266-.193l.128-.809c.122.009.245.014.369.014.154,0,.306-.008.457-.021l.142.806a.233.233,0,0,0,.27.189l.375-.066a.233.233,0,0,0,.189-.27l-.142-.8a4.957,4.957,0,0,0,.779-.276l.4.715a.233.233,0,0,0,.317.091l.333-.185a.233.233,0,0,0,.091-.317l-.4-.715a5.028,5.028,0,0,0,.646-.515l.608.547a.233.233,0,0,0,.329-.017l.255-.283a.233.233,0,0,0-.017-.329l-.607-.547a5.063,5.063,0,0,0,.444-.7l.752.32a.233.233,0,0,0,.306-.123l.149-.351a.233.233,0,0,0-.123-.306L61.6,43a5.005,5.005,0,0,0,.193-.8l.815.057a.233.233,0,0,0,.249-.216l.027-.38a.233.233,0,0,0-.216-.249M56.8,44.258a2.836,2.836,0,1,1,2.836-2.836A2.836,2.836,0,0,1,56.8,44.258" transform="translate(-22.536 -15.701)" fill="#fff"/>
                    <path id="Trazado_824454" data-name="Trazado 824454" d="M79.149,50.484l-.535-.038a3.3,3.3,0,0,0-.052-.538l.518-.139a.153.153,0,0,0,.108-.187l-.065-.241a.152.152,0,0,0-.187-.108l-.517.138a3.287,3.287,0,0,0-.225-.492l.445-.3a.153.153,0,0,0,.041-.212l-.14-.207a.152.152,0,0,0-.212-.041l-.445.3a3.365,3.365,0,0,0-.373-.392l.323-.428a.153.153,0,0,0-.03-.214l-.2-.15a.153.153,0,0,0-.214.03l-.323.428a3.277,3.277,0,0,0-.48-.251l.165-.508a.153.153,0,0,0-.1-.193l-.238-.077a.153.153,0,0,0-.192.1l-.166.51a3.3,3.3,0,0,0-.477-.075v-.536a.153.153,0,0,0-.153-.153h-.25a.152.152,0,0,0-.152.153v.536a3.252,3.252,0,0,0-.535.088l-.174-.506a.151.151,0,0,0-.193-.094l-.237.081a.152.152,0,0,0-.094.194l.174.507a3.292,3.292,0,0,0-.475.258l-.331-.422a.152.152,0,0,0-.214-.026l-.2.154a.152.152,0,0,0-.027.214l.33.423a3.311,3.311,0,0,0-.365.4l-.45-.292a.154.154,0,0,0-.212.045l-.136.209a.154.154,0,0,0,.045.212l.449.291a3.321,3.321,0,0,0-.216.5l-.52-.129a.153.153,0,0,0-.185.111l-.061.243a.153.153,0,0,0,.112.185l.519.129a3.386,3.386,0,0,0-.042.529V50.5l-.533.047a.152.152,0,0,0-.139.165l.022.249a.153.153,0,0,0,.166.139l.533-.047a3.3,3.3,0,0,0,.135.524l-.49.218a.152.152,0,0,0-.077.2l.1.228a.153.153,0,0,0,.2.077l.49-.217a3.3,3.3,0,0,0,.3.451l-.392.366a.152.152,0,0,0-.007.216l.17.183a.153.153,0,0,0,.216.007l.391-.365a3.382,3.382,0,0,0,.43.329l-.252.473a.153.153,0,0,0,.064.207l.22.117a.153.153,0,0,0,.207-.063L74,53.537a3.3,3.3,0,0,0,.513.172l-.084.529a.153.153,0,0,0,.127.174l.247.039a.152.152,0,0,0,.174-.127l.084-.53c.081.006.161.01.242.01.1,0,.2-.006.3-.014l.093.528a.154.154,0,0,0,.177.124l.246-.043a.153.153,0,0,0,.124-.177l-.093-.527a3.219,3.219,0,0,0,.511-.181l.26.469a.154.154,0,0,0,.208.059l.218-.121a.153.153,0,0,0,.059-.208l-.26-.468a3.221,3.221,0,0,0,.423-.338l.4.359a.153.153,0,0,0,.216-.011l.167-.186a.153.153,0,0,0-.011-.216l-.4-.359a3.359,3.359,0,0,0,.291-.456l.493.209a.152.152,0,0,0,.2-.081l.1-.23a.152.152,0,0,0-.081-.2l-.493-.209A3.372,3.372,0,0,0,78.578,51l.533.038a.153.153,0,0,0,.163-.142l.017-.25a.152.152,0,0,0-.142-.163M75.3,52.351a1.858,1.858,0,1,1,1.858-1.858A1.859,1.859,0,0,1,75.3,52.351" transform="translate(-31.689 -20.663)" fill="#fff"/>
                    <path id="Trazado_824456" data-name="Trazado 824456" d="M9.223,19.026a1.822,1.822,0,0,1,1.958-2.064,1.822,1.822,0,0,1,1.958,2.064v4.269a1.821,1.821,0,0,1-1.958,2.063,1.821,1.821,0,0,1-1.958-2.063Zm1.29,4.35c0,.586.258.809.668.809s.668-.223.668-.809V18.944c0-.586-.258-.809-.668-.809s-.668.223-.668.809Z" transform="translate(-4.098 -7.536)" fill="#fff"/>
                    <path id="Trazado_824457" data-name="Trazado 824457" d="M21.593,19.16v1.067c0,1.314-.633,2.028-1.923,2.028h-.61v3.085H17.77V17.131h1.9c1.29,0,1.923.715,1.923,2.029M19.06,18.3v2.779h.61c.411,0,.633-.187.633-.774V19.078c0-.586-.223-.774-.633-.774Z" transform="translate(-7.896 -7.611)" fill="#fff"/>
                    <path id="Trazado_824458" data-name="Trazado 824458" d="M27.123,20.59h1.771v1.172H27.123v2.4h2.228v1.172H25.833V17.131h3.518V18.3H27.123Z" transform="translate(-11.478 -7.611)" fill="#fff"/>
                    <path id="Trazado_824459" data-name="Trazado 824459" d="M36.3,25.339a2.534,2.534,0,0,1-.117-1.009v-1.29c0-.762-.258-1.044-.844-1.044h-.446v3.342H33.6V17.131h1.946c1.337,0,1.912.621,1.912,1.888v.645a1.637,1.637,0,0,1-.844,1.665c.645.27.856.891.856,1.747v1.266a2.41,2.41,0,0,0,.141,1ZM34.891,18.3v2.521h.5c.481,0,.774-.211.774-.867v-.809c0-.587-.2-.845-.657-.845Z" transform="translate(-14.93 -7.611)" fill="#fff"/>
                    <path id="Trazado_824460" data-name="Trazado 824460" d="M45.988,25.339h-1.3l-.223-1.489H42.88l-.222,1.489H41.473l1.314-8.208h1.888Zm-2.943-2.6h1.243l-.622-4.151Z" transform="translate(-18.428 -7.611)" fill="#fff"/>
                    <path id="Trazado_824461" data-name="Trazado 824461" d="M50,17.131h3.987V18.3H52.638v7.036h-1.29V18.3H50Z" transform="translate(-22.216 -7.611)" fill="#fff"/>
                    <rect id="Rectángulo_382673" data-name="Rectángulo 382673" width="1.29" height="8.208" transform="translate(32.334 9.52)" fill="#fff"/>
                    <path id="Trazado_824462" data-name="Trazado 824462" d="M63.339,19.394v5.945H62.179V17.131H63.8l1.325,4.913V17.131h1.149v8.208H64.946Z" transform="translate(-27.627 -7.611)" fill="#fff"/>
                    <path id="Trazado_824463" data-name="Trazado 824463" d="M73.062,20.692h1.806v2.6c0,1.313-.657,2.063-1.923,2.063s-1.923-.75-1.923-2.063V19.027c0-1.314.657-2.064,1.923-2.064s1.923.75,1.923,2.064v.8H73.649v-.879c0-.587-.258-.809-.669-.809s-.668.222-.668.809v4.432c0,.587.258.8.668.8s.669-.211.669-.8V21.864h-.587Z" transform="translate(-31.557 -7.537)" fill="#fff"/>
                    <path id="Trazado_824464" data-name="Trazado 824464" d="M84.291,16.962c1.255,0,1.9.75,1.9,2.064v.258h-1.22v-.34c0-.586-.234-.809-.645-.809s-.645.223-.645.809c0,1.689,2.521,2.005,2.521,4.35,0,1.313-.657,2.064-1.923,2.064s-1.923-.751-1.923-2.064v-.5h1.22v.586c0,.586.258.8.668.8s.668-.211.668-.8c0-1.689-2.521-2.005-2.521-4.35,0-1.314.645-2.064,1.9-2.064" transform="translate(-36.593 -7.536)" fill="#fff"/>
                    <path id="Trazado_824465" data-name="Trazado 824465" d="M91.331,22.619,89.7,17.131h1.348l.985,3.74.985-3.74h1.231l-1.629,5.488v2.721h-1.29Z" transform="translate(-39.856 -7.611)" fill="#fff"/>
                    <path id="Trazado_824466" data-name="Trazado 824466" d="M100.248,16.962c1.255,0,1.9.75,1.9,2.064v.258h-1.22v-.34c0-.586-.234-.809-.645-.809s-.645.223-.645.809c0,1.689,2.521,2.005,2.521,4.35,0,1.313-.657,2.064-1.923,2.064s-1.923-.751-1.923-2.064v-.5h1.22v.586c0,.586.258.8.668.8s.668-.211.668-.8c0-1.689-2.521-2.005-2.521-4.35,0-1.314.645-2.064,1.9-2.064" transform="translate(-43.683 -7.536)" fill="#fff"/>
                    <path id="Trazado_824467" data-name="Trazado 824467" d="M105.891,17.131h3.987V18.3h-1.349v7.036h-1.29V18.3h-1.349Z" transform="translate(-47.05 -7.611)" fill="#fff"/>
                    <path id="Trazado_824468" data-name="Trazado 824468" d="M115.369,20.59h1.77v1.172h-1.77v2.4H117.6v1.172h-3.518V17.131H117.6V18.3h-2.228Z" transform="translate(-50.688 -7.611)" fill="#fff"/>
                    <path id="Trazado_824469" data-name="Trazado 824469" d="M124.569,22.959l.879-5.828h1.795v8.208h-1.22V19.452l-.891,5.887h-1.219l-.961-5.8v5.8h-1.126V17.131h1.794Z" transform="translate(-54.13 -7.611)" fill="#fff"/>
                  </g>
                  <path id="Trazado_824478" data-name="Trazado 824478" d="M0,0H77.849V3.258H0Z" transform="translate(0.268 0.268)" fill="#a854f3"/>
                  <rect id="Rectángulo_382675" data-name="Rectángulo 382675" width="77.849" height="3.258" transform="translate(0.268 0.268)" fill="none" stroke="#263238" stroke-miterlimit="10" stroke-width="0.966"/>
                  <path id="Trazado_824470" data-name="Trazado 824470" d="M5.855,2.374a.749.749,0,1,1-.749-.749.749.749,0,0,1,.749.749" transform="translate(-1.936 -0.722)" fill="#263238"/>
                  <path id="Trazado_824471" data-name="Trazado 824471" d="M11.921,2.374a.749.749,0,1,1-.749-.749.749.749,0,0,1,.749.749" transform="translate(-4.631 -0.722)" fill="#263238"/>
                  <path id="Trazado_824472" data-name="Trazado 824472" d="M17.987,2.374a.749.749,0,1,1-.749-.749.749.749,0,0,1,.749.749" transform="translate(-7.326 -0.722)" fill="#263238"/>
                  <path id="Trazado_824473" data-name="Trazado 824473" d="M76.834,66.01H12.409a.829.829,0,1,1,0-1.658H76.834a.829.829,0,0,1,0,1.658" transform="translate(-5.145 -28.593)" fill="#fff"/>
                  <path id="Trazado_824474" data-name="Trazado 824474" d="M76.834,66.01H12.409a.829.829,0,1,1,0-1.658H76.834a.829.829,0,0,1,0,1.658Z" transform="translate(-5.145 -28.593)" fill="none" stroke="#263238" stroke-miterlimit="10" stroke-width="0.966"/>
                  <path id="Trazado_824475" data-name="Trazado 824475" d="M57.767,64.353H12.409a.829.829,0,1,0,0,1.658H57.767Z" transform="translate(-5.145 -28.593)" fill="#a854f3"/>
                  <path id="Trazado_824476" data-name="Trazado 824476" d="M57.767,64.353H12.409a.829.829,0,1,0,0,1.658H57.767Z" transform="translate(-5.145 -28.593)" fill="none" stroke="#263238" stroke-miterlimit="10" stroke-width="0.966"/>
                </g>
              </g>
            </g>
          </g>
          <g id="Grupo_1073847" data-name="Grupo 1073847" transform="translate(125.938 147.622)">
            <rect id="Rectángulo_382678" data-name="Rectángulo 382678" width="55.521" height="57.577" transform="translate(0 0)" fill="#263238"/>
            <rect id="Rectángulo_382679" data-name="Rectángulo 382679" width="55.521" height="4.607" transform="translate(0 -0.001)" fill="#fff"/>
            <g id="Grupo_1073848" data-name="Grupo 1073848" transform="translate(0 0)">
              <g id="Grupo_1073847-2" data-name="Grupo 1073847" clip-path="url(#clip-path-6)">
                <path id="Trazado_824480" data-name="Trazado 824480" d="M7.43,14.222H5.809a.4.4,0,1,1,0-.8H7.43a.4.4,0,1,1,0,.8m.4,1.453a.4.4,0,0,0-.4-.4H5.809a.4.4,0,1,0,0,.8H7.43a.4.4,0,0,0,.4-.4m0,1.853a.4.4,0,0,0-.4-.4H5.809a.4.4,0,1,0,0,.8H7.43a.4.4,0,0,0,.4-.4m0,1.853a.4.4,0,0,0-.4-.4H5.809a.4.4,0,1,0,0,.8H7.43a.4.4,0,0,0,.4-.4m0,1.853a.4.4,0,0,0-.4-.4H5.809a.4.4,0,1,0,0,.8H7.43a.4.4,0,0,0,.4-.4m0,1.853a.4.4,0,0,0-.4-.4H5.809a.4.4,0,1,0,0,.8H7.43a.4.4,0,0,0,.4-.4m0,1.853a.4.4,0,0,0-.4-.4H5.809a.4.4,0,1,0,0,.8H7.43a.4.4,0,0,0,.4-.4m0,1.853a.4.4,0,0,0-.4-.4H5.809a.4.4,0,1,0,0,.8H7.43a.4.4,0,0,0,.4-.4M13.9,13.822a.4.4,0,0,0-.4-.4H9.24a.4.4,0,1,0,0,.8H13.5a.4.4,0,0,0,.4-.4m0,1.853a.4.4,0,0,0-.4-.4H9.24a.4.4,0,0,0,0,.8H13.5a.4.4,0,0,0,.4-.4m0,1.853a.4.4,0,0,0-.4-.4H9.24a.4.4,0,0,0,0,.8H13.5a.4.4,0,0,0,.4-.4m0,1.853a.4.4,0,0,0-.4-.4H9.24a.4.4,0,0,0,0,.8H13.5a.4.4,0,0,0,.4-.4m0,1.853a.4.4,0,0,0-.4-.4H9.24a.4.4,0,0,0,0,.8H13.5a.4.4,0,0,0,.4-.4m5.1,1.853a.4.4,0,0,0-.4-.4H14.336a.4.4,0,0,0,0,.8h4.256a.4.4,0,0,0,.4-.4m0,1.853a.4.4,0,0,0-.4-.4H14.336a.4.4,0,0,0,0,.8h4.256a.4.4,0,0,0,.4-.4m0,1.853a.4.4,0,0,0-.4-.4H14.336a.4.4,0,0,0,0,.8h4.256a.4.4,0,0,0,.4-.4M15.769,13.822a.463.463,0,1,0-.463.463.463.463,0,0,0,.463-.463m1.39,0a.463.463,0,1,0-.463.463.463.463,0,0,0,.463-.463m1.39,0a.463.463,0,1,0-.463.463.463.463,0,0,0,.463-.463m1.39,0a.463.463,0,1,0-.463.463.463.463,0,0,0,.463-.463m1.39,0a.463.463,0,1,0-.463.463.463.463,0,0,0,.463-.463m1.39,0a.463.463,0,1,0-.463.463.463.463,0,0,0,.463-.463m-6.949,3.706a.463.463,0,1,0-.463.463.463.463,0,0,0,.463-.463m1.39,0a.463.463,0,1,0-.463.463.463.463,0,0,0,.463-.463m1.39,0a.463.463,0,1,0-.463.463.463.463,0,0,0,.463-.463m1.39,0a.463.463,0,1,0-.463.463.463.463,0,0,0,.463-.463m1.39,0a.463.463,0,1,0-.463.463.463.463,0,0,0,.463-.463m1.39,0a.463.463,0,1,0-.463.463.463.463,0,0,0,.463-.463m-2.2,5.327a.463.463,0,1,0-.463.463.463.463,0,0,0,.463-.463m1.39,0a.463.463,0,1,0-.463.463.463.463,0,0,0,.463-.463m1.39,0a.463.463,0,1,0-.463.463.463.463,0,0,0,.463-.463m1.39,0a.463.463,0,1,0-.463.463.463.463,0,0,0,.463-.463m1.39,0a.463.463,0,1,0-.463.463.463.463,0,0,0,.463-.463m1.39,0a.463.463,0,1,0-.463.463.463.463,0,0,0,.463-.463m-6.949,3.822a.463.463,0,1,0-.463.463.463.463,0,0,0,.463-.463m1.39,0a.463.463,0,1,0-.463.463.463.463,0,0,0,.463-.463m1.39,0a.463.463,0,1,0-.463.463.463.463,0,0,0,.463-.463m1.39,0a.463.463,0,1,0-.463.463.463.463,0,0,0,.463-.463m1.39,0a.463.463,0,1,0-.463.463.463.463,0,0,0,.463-.463m1.39,0A.463.463,0,1,0,27,27.14a.463.463,0,0,0,.463-.463" transform="translate(-2.321 -5.731)" fill="#00ffdf"/>
                <path id="Trazado_824481" data-name="Trazado 824481" d="M7.43,40.19H5.809a.4.4,0,1,1,0-.8H7.43a.4.4,0,1,1,0,.8m.4,1.453a.4.4,0,0,0-.4-.4H5.809a.4.4,0,1,0,0,.8H7.43a.4.4,0,0,0,.4-.4m0,1.853a.4.4,0,0,0-.4-.4H5.809a.4.4,0,1,0,0,.8H7.43a.4.4,0,0,0,.4-.4m0,1.853a.4.4,0,0,0-.4-.4H5.809a.4.4,0,1,0,0,.8H7.43a.4.4,0,0,0,.4-.4m0,1.853a.4.4,0,0,0-.4-.4H5.809a.4.4,0,1,0,0,.8H7.43a.4.4,0,0,0,.4-.4m0,1.853a.4.4,0,0,0-.4-.4H5.809a.4.4,0,1,0,0,.8H7.43a.4.4,0,0,0,.4-.4m0,1.853a.4.4,0,0,0-.4-.4H5.809a.4.4,0,1,0,0,.8H7.43a.4.4,0,0,0,.4-.4m0,1.853a.4.4,0,0,0-.4-.4H5.809a.4.4,0,1,0,0,.8H7.43a.4.4,0,0,0,.4-.4M13.9,39.791a.4.4,0,0,0-.4-.4H9.24a.4.4,0,1,0,0,.8H13.5a.4.4,0,0,0,.4-.4m0,1.853a.4.4,0,0,0-.4-.4H9.24a.4.4,0,0,0,0,.8H13.5a.4.4,0,0,0,.4-.4m0,1.853a.4.4,0,0,0-.4-.4H9.24a.4.4,0,0,0,0,.8H13.5a.4.4,0,0,0,.4-.4m0,1.853a.4.4,0,0,0-.4-.4H9.24a.4.4,0,0,0,0,.8H13.5a.4.4,0,0,0,.4-.4m0,1.853a.4.4,0,0,0-.4-.4H9.24a.4.4,0,0,0,0,.8H13.5a.4.4,0,0,0,.4-.4m5.1,1.853a.4.4,0,0,0-.4-.4H14.336a.4.4,0,0,0,0,.8h4.256a.4.4,0,0,0,.4-.4m0,1.853a.4.4,0,0,0-.4-.4H14.336a.4.4,0,0,0,0,.8h4.256a.4.4,0,0,0,.4-.4m0,1.853a.4.4,0,0,0-.4-.4H14.336a.4.4,0,1,0,0,.8h4.256a.4.4,0,0,0,.4-.4M15.769,39.791a.463.463,0,1,0-.463.463.463.463,0,0,0,.463-.463m1.39,0a.463.463,0,1,0-.463.463.463.463,0,0,0,.463-.463m1.39,0a.463.463,0,1,0-.463.463.463.463,0,0,0,.463-.463m1.39,0a.463.463,0,1,0-.463.463.463.463,0,0,0,.463-.463m1.39,0a.463.463,0,1,0-.463.463.463.463,0,0,0,.463-.463m1.39,0a.463.463,0,1,0-.463.463.463.463,0,0,0,.463-.463M15.769,43.5a.463.463,0,1,0-.463.464.463.463,0,0,0,.463-.464m1.39,0a.463.463,0,1,0-.463.464.463.463,0,0,0,.463-.464m1.39,0a.463.463,0,1,0-.463.464.463.463,0,0,0,.463-.464m1.39,0a.463.463,0,1,0-.463.464.463.463,0,0,0,.463-.464m1.39,0a.463.463,0,1,0-.463.464.463.463,0,0,0,.463-.464m1.39,0a.463.463,0,1,0-.463.464.463.463,0,0,0,.463-.464m-2.2,5.328a.463.463,0,1,0-.463.463.463.463,0,0,0,.463-.463m1.39,0a.463.463,0,1,0-.463.463.463.463,0,0,0,.463-.463m1.39,0a.463.463,0,1,0-.463.463.463.463,0,0,0,.463-.463m1.39,0a.463.463,0,1,0-.463.463.463.463,0,0,0,.463-.463m1.39,0a.463.463,0,1,0-.463.463.463.463,0,0,0,.463-.463m1.39,0a.463.463,0,1,0-.463.463.463.463,0,0,0,.463-.463m-6.949,3.822a.463.463,0,1,0-.463.463.463.463,0,0,0,.463-.463m1.39,0a.463.463,0,1,0-.463.463.463.463,0,0,0,.463-.463m1.39,0a.463.463,0,1,0-.463.463.463.463,0,0,0,.463-.463m1.39,0a.463.463,0,1,0-.463.463.463.463,0,0,0,.463-.463m1.39,0a.463.463,0,1,0-.463.463.463.463,0,0,0,.463-.463m1.39,0a.463.463,0,1,0-.463.463.463.463,0,0,0,.463-.463" transform="translate(-2.321 -16.872)" fill="#00ffdf"/>
                <path id="Trazado_824482" data-name="Trazado 824482" d="M7.43,66.786H5.809a.4.4,0,1,1,0-.8H7.43a.4.4,0,1,1,0,.8m.4,1.453a.4.4,0,0,0-.4-.4H5.809a.4.4,0,1,0,0,.8H7.43a.4.4,0,0,0,.4-.4m0,1.853a.4.4,0,0,0-.4-.4H5.809a.4.4,0,1,0,0,.8H7.43a.4.4,0,0,0,.4-.4m0,1.853a.4.4,0,0,0-.4-.4H5.809a.4.4,0,1,0,0,.8H7.43a.4.4,0,0,0,.4-.4m0,1.853a.4.4,0,0,0-.4-.4H5.809a.4.4,0,1,0,0,.8H7.43a.4.4,0,0,0,.4-.4m0,1.853a.4.4,0,0,0-.4-.4H5.809a.4.4,0,1,0,0,.8H7.43a.4.4,0,0,0,.4-.4m0,1.853a.4.4,0,0,0-.4-.4H5.809a.4.4,0,1,0,0,.8H7.43a.4.4,0,0,0,.4-.4m0,1.853a.4.4,0,0,0-.4-.4H5.809a.4.4,0,1,0,0,.8H7.43a.4.4,0,0,0,.4-.4M13.9,66.387a.4.4,0,0,0-.4-.4H9.24a.4.4,0,0,0,0,.8H13.5a.4.4,0,0,0,.4-.4m0,1.853a.4.4,0,0,0-.4-.4H9.24a.4.4,0,1,0,0,.8H13.5a.4.4,0,0,0,.4-.4m0,1.853a.4.4,0,0,0-.4-.4H9.24a.4.4,0,0,0,0,.8H13.5a.4.4,0,0,0,.4-.4m0,1.853a.4.4,0,0,0-.4-.4H9.24a.4.4,0,0,0,0,.8H13.5a.4.4,0,0,0,.4-.4m0,1.853a.4.4,0,0,0-.4-.4H9.24a.4.4,0,0,0,0,.8H13.5a.4.4,0,0,0,.4-.4m5.1,1.853a.4.4,0,0,0-.4-.4H14.336a.4.4,0,0,0,0,.8h4.256a.4.4,0,0,0,.4-.4m0,1.853a.4.4,0,0,0-.4-.4H14.336a.4.4,0,0,0,0,.8h4.256a.4.4,0,0,0,.4-.4m0,1.853a.4.4,0,0,0-.4-.4H14.336a.4.4,0,0,0,0,.8h4.256a.4.4,0,0,0,.4-.4M15.769,66.387a.463.463,0,1,0-.463.463.463.463,0,0,0,.463-.463m1.39,0a.463.463,0,1,0-.463.463.463.463,0,0,0,.463-.463m1.39,0a.463.463,0,1,0-.463.463.463.463,0,0,0,.463-.463m1.39,0a.463.463,0,1,0-.463.463.463.463,0,0,0,.463-.463m1.39,0a.463.463,0,1,0-.463.463.463.463,0,0,0,.463-.463m1.39,0a.463.463,0,1,0-.463.463.463.463,0,0,0,.463-.463m-6.949,3.706a.463.463,0,1,0-.463.464.463.463,0,0,0,.463-.464m1.39,0a.463.463,0,1,0-.463.464.463.463,0,0,0,.463-.464m1.39,0a.463.463,0,1,0-.463.464.463.463,0,0,0,.463-.464m1.39,0a.463.463,0,1,0-.463.464.463.463,0,0,0,.463-.464m1.39,0a.463.463,0,1,0-.463.464.463.463,0,0,0,.463-.464m1.39,0a.463.463,0,1,0-.463.464.463.463,0,0,0,.463-.464m-2.2,5.328a.463.463,0,1,0-.463.463.463.463,0,0,0,.463-.463m1.39,0a.463.463,0,1,0-.463.463.463.463,0,0,0,.463-.463m1.39,0a.463.463,0,1,0-.463.463.463.463,0,0,0,.463-.463m1.39,0a.463.463,0,1,0-.463.463.463.463,0,0,0,.463-.463m1.39,0a.463.463,0,1,0-.463.463.463.463,0,0,0,.463-.463m1.39,0a.463.463,0,1,0-.463.463.463.463,0,0,0,.463-.463m-6.949,3.822a.463.463,0,1,0-.463.463.463.463,0,0,0,.463-.463m1.39,0a.463.463,0,1,0-.463.463.463.463,0,0,0,.463-.463m1.39,0a.463.463,0,1,0-.463.463.463.463,0,0,0,.463-.463m1.39,0a.463.463,0,1,0-.463.463.463.463,0,0,0,.463-.463m1.39,0a.463.463,0,1,0-.463.463.463.463,0,0,0,.463-.463m1.39,0A.463.463,0,1,0,27,79.7a.463.463,0,0,0,.463-.463" transform="translate(-2.321 -28.283)" fill="#00ffdf"/>
                <path id="Trazado_824483" data-name="Trazado 824483" d="M51.027,14.222H49.406a.4.4,0,1,1,0-.8h1.621a.4.4,0,1,1,0,.8m.4,1.453a.4.4,0,0,0-.4-.4H49.406a.4.4,0,1,0,0,.8h1.621a.4.4,0,0,0,.4-.4m0,1.853a.4.4,0,0,0-.4-.4H49.406a.4.4,0,1,0,0,.8h1.621a.4.4,0,0,0,.4-.4m0,1.853a.4.4,0,0,0-.4-.4H49.406a.4.4,0,1,0,0,.8h1.621a.4.4,0,0,0,.4-.4m0,1.853a.4.4,0,0,0-.4-.4H49.406a.4.4,0,1,0,0,.8h1.621a.4.4,0,0,0,.4-.4m0,1.853a.4.4,0,0,0-.4-.4H49.406a.4.4,0,1,0,0,.8h1.621a.4.4,0,0,0,.4-.4m0,1.853a.4.4,0,0,0-.4-.4H49.406a.4.4,0,1,0,0,.8h1.621a.4.4,0,0,0,.4-.4m0,1.853a.4.4,0,0,0-.4-.4H49.406a.4.4,0,1,0,0,.8h1.621a.4.4,0,0,0,.4-.4m6.065-12.971a.4.4,0,0,0-.4-.4H52.837a.4.4,0,1,0,0,.8h4.256a.4.4,0,0,0,.4-.4m0,1.853a.4.4,0,0,0-.4-.4H52.837a.4.4,0,1,0,0,.8h4.256a.4.4,0,0,0,.4-.4m0,1.853a.4.4,0,0,0-.4-.4H52.837a.4.4,0,1,0,0,.8h4.256a.4.4,0,0,0,.4-.4m0,1.853a.4.4,0,0,0-.4-.4H52.837a.4.4,0,1,0,0,.8h4.256a.4.4,0,0,0,.4-.4m0,1.853a.4.4,0,0,0-.4-.4H52.837a.4.4,0,1,0,0,.8h4.256a.4.4,0,0,0,.4-.4m5.1,1.853a.4.4,0,0,0-.4-.4H57.933a.4.4,0,0,0,0,.8h4.256a.4.4,0,0,0,.4-.4m0,1.853a.4.4,0,0,0-.4-.4H57.933a.4.4,0,0,0,0,.8h4.256a.4.4,0,0,0,.4-.4m0,1.853a.4.4,0,0,0-.4-.4H57.933a.4.4,0,1,0,0,.8h4.256a.4.4,0,0,0,.4-.4M59.366,13.822a.463.463,0,1,0-.463.463.463.463,0,0,0,.463-.463m1.39,0a.463.463,0,1,0-.463.463.463.463,0,0,0,.463-.463m1.39,0a.463.463,0,1,0-.463.463.463.463,0,0,0,.463-.463m1.39,0a.463.463,0,1,0-.463.463.463.463,0,0,0,.463-.463m1.39,0a.463.463,0,1,0-.463.463.463.463,0,0,0,.463-.463m1.39,0a.463.463,0,1,0-.463.463.463.463,0,0,0,.463-.463m-6.949,3.706a.463.463,0,1,0-.463.463.463.463,0,0,0,.463-.463m1.39,0a.463.463,0,1,0-.463.463.463.463,0,0,0,.463-.463m1.39,0a.463.463,0,1,0-.463.463.463.463,0,0,0,.463-.463m1.39,0a.463.463,0,1,0-.463.463.463.463,0,0,0,.463-.463m1.39,0a.463.463,0,1,0-.463.463.463.463,0,0,0,.463-.463m1.39,0a.463.463,0,1,0-.463.463.463.463,0,0,0,.463-.463m-2.2,5.327a.463.463,0,1,0-.463.463.463.463,0,0,0,.463-.463m1.39,0a.463.463,0,1,0-.463.463.463.463,0,0,0,.463-.463m1.39,0a.463.463,0,1,0-.463.463.463.463,0,0,0,.463-.463m1.39,0a.463.463,0,1,0-.463.463.463.463,0,0,0,.463-.463m1.39,0a.463.463,0,1,0-.463.463.463.463,0,0,0,.463-.463m1.39,0a.463.463,0,1,0-.463.463.463.463,0,0,0,.463-.463m-6.949,3.822a.463.463,0,1,0-.463.463.463.463,0,0,0,.463-.463m1.39,0a.463.463,0,1,0-.463.463.463.463,0,0,0,.463-.463m1.39,0a.463.463,0,1,0-.463.463.463.463,0,0,0,.463-.463m1.39,0a.463.463,0,1,0-.463.463.463.463,0,0,0,.463-.463m1.39,0a.463.463,0,1,0-.463.463.463.463,0,0,0,.463-.463m1.39,0a.463.463,0,1,0-.463.463.463.463,0,0,0,.463-.463" transform="translate(-21.025 -5.731)" fill="#00ffdf"/>
                <path id="Trazado_824484" data-name="Trazado 824484" d="M51.027,40.817H49.406a.4.4,0,1,1,0-.8h1.621a.4.4,0,1,1,0,.8m.4,1.453a.4.4,0,0,0-.4-.4H49.406a.4.4,0,1,0,0,.8h1.621a.4.4,0,0,0,.4-.4m0,1.853a.4.4,0,0,0-.4-.4H49.406a.4.4,0,1,0,0,.8h1.621a.4.4,0,0,0,.4-.4m0,1.853a.4.4,0,0,0-.4-.4H49.406a.4.4,0,1,0,0,.8h1.621a.4.4,0,0,0,.4-.4m0,1.853a.4.4,0,0,0-.4-.4H49.406a.4.4,0,1,0,0,.8h1.621a.4.4,0,0,0,.4-.4m0,1.853a.4.4,0,0,0-.4-.4H49.406a.4.4,0,1,0,0,.8h1.621a.4.4,0,0,0,.4-.4m0,1.853a.4.4,0,0,0-.4-.4H49.406a.4.4,0,1,0,0,.8h1.621a.4.4,0,0,0,.4-.4m0,1.853a.4.4,0,0,0-.4-.4H49.406a.4.4,0,1,0,0,.8h1.621a.4.4,0,0,0,.4-.4m6.065-12.971a.4.4,0,0,0-.4-.4H52.837a.4.4,0,1,0,0,.8h4.256a.4.4,0,0,0,.4-.4m0,1.853a.4.4,0,0,0-.4-.4H52.837a.4.4,0,1,0,0,.8h4.256a.4.4,0,0,0,.4-.4m0,1.853a.4.4,0,0,0-.4-.4H52.837a.4.4,0,1,0,0,.8h4.256a.4.4,0,0,0,.4-.4m0,1.853a.4.4,0,0,0-.4-.4H52.837a.4.4,0,1,0,0,.8h4.256a.4.4,0,0,0,.4-.4m0,1.853a.4.4,0,0,0-.4-.4H52.837a.4.4,0,1,0,0,.8h4.256a.4.4,0,0,0,.4-.4m5.1,1.853a.4.4,0,0,0-.4-.4H57.933a.4.4,0,0,0,0,.8h4.256a.4.4,0,0,0,.4-.4m0,1.853a.4.4,0,0,0-.4-.4H57.933a.4.4,0,0,0,0,.8h4.256a.4.4,0,0,0,.4-.4m0,1.853a.4.4,0,0,0-.4-.4H57.933a.4.4,0,0,0,0,.8h4.256a.4.4,0,0,0,.4-.4M59.366,40.418a.463.463,0,1,0-.463.463.463.463,0,0,0,.463-.463m1.39,0a.463.463,0,1,0-.463.463.463.463,0,0,0,.463-.463m1.39,0a.463.463,0,1,0-.463.463.463.463,0,0,0,.463-.463m1.39,0a.463.463,0,1,0-.463.463.463.463,0,0,0,.463-.463m1.39,0a.463.463,0,1,0-.463.463.463.463,0,0,0,.463-.463m1.39,0a.463.463,0,1,0-.463.463.463.463,0,0,0,.463-.463m-6.949,3.706a.463.463,0,1,0-.463.464.463.463,0,0,0,.463-.464m1.39,0a.463.463,0,1,0-.463.464.463.463,0,0,0,.463-.464m1.39,0a.463.463,0,1,0-.463.464.463.463,0,0,0,.463-.464m1.39,0a.463.463,0,1,0-.463.464.463.463,0,0,0,.463-.464m1.39,0a.463.463,0,1,0-.463.464.463.463,0,0,0,.463-.464m1.39,0a.463.463,0,1,0-.463.464.463.463,0,0,0,.463-.464m-2.2,5.327a.463.463,0,1,0-.463.464.463.463,0,0,0,.463-.464m1.39,0a.463.463,0,1,0-.463.464.463.463,0,0,0,.463-.464m1.39,0a.463.463,0,1,0-.463.464.463.463,0,0,0,.463-.464m1.39,0a.463.463,0,1,0-.463.464.463.463,0,0,0,.463-.464m1.39,0a.463.463,0,1,0-.463.464.463.463,0,0,0,.463-.464m1.39,0a.463.463,0,1,0-.463.464.463.463,0,0,0,.463-.464m-6.949,3.822a.463.463,0,1,0-.463.463.463.463,0,0,0,.463-.463m1.39,0a.463.463,0,1,0-.463.463.463.463,0,0,0,.463-.463m1.39,0a.463.463,0,1,0-.463.463.463.463,0,0,0,.463-.463m1.39,0a.463.463,0,1,0-.463.463.463.463,0,0,0,.463-.463m1.39,0a.463.463,0,1,0-.463.463.463.463,0,0,0,.463-.463m1.39,0a.463.463,0,1,0-.463.463.463.463,0,0,0,.463-.463" transform="translate(-21.025 -17.141)" fill="#00ffdf"/>
                <path id="Trazado_824485" data-name="Trazado 824485" d="M6.878,3.857a.77.77,0,1,1-.77-.77.77.77,0,0,1,.77.77" transform="translate(-2.291 -1.324)" fill="#263238"/>
                <path id="Trazado_824486" data-name="Trazado 824486" d="M12.944,3.857a.77.77,0,1,1-.77-.77.77.77,0,0,1,.77.77" transform="translate(-4.893 -1.324)" fill="#263238"/>
                <path id="Trazado_824487" data-name="Trazado 824487" d="M19.01,3.857a.77.77,0,1,1-.77-.77.77.77,0,0,1,.77.77" transform="translate(-7.496 -1.324)" fill="#263238"/>
              </g>
            </g>
          </g>
        </g>
      </g>
      <g id="Character" transform="translate(44.019 101.168)">
        <g id="Grupo_1073810" data-name="Grupo 1073810">
          <path id="Trazado_824338" data-name="Trazado 824338" d="M277.253,183.07c5.29.45,12.01-5.87,12.01-5.87a1.187,1.187,0,0,0,1.89-.24c.86-1.24,4.59-4.1,4.8-6.58s-4.19-6.5-4.19-6.5c3.4.93,3.76-1.06,3.76-1.06s-5.71-4.72-7.71-4.84c-.78-.05-4.19,1.91-7.48,4.55-3.44,2.77-9.9,12.52-9.9,12.52s-21.85,15.87-27.38,19.93c-7.29,5.36-15.93,14.87-15.93,14.87s-29.02,13.08-36.98,20.27l10.81,25.62s26.37-17.67,29.01-22.15,5.27-1.79,7.91-4.72,5.17-6.28,5.17-6.28a44.836,44.836,0,0,0,12.55-9.12c6.17-6.33,11.6-16.01,15.01-21.81a36.229,36.229,0,0,1,6.64-8.57Z" transform="translate(-111.302 -101.17)" fill="#fff" stroke="#263238" stroke-linecap="round" stroke-linejoin="round" stroke-width="1"/>
          <path id="Trazado_824339" data-name="Trazado 824339" d="M194.528,179.33s7.87-1.91,8.55-7.1a9.553,9.553,0,0,1,1.69-3.63s7.35-.36,6.88-3.35l-9.79-.87a17.044,17.044,0,0,0-8.54,7.18" transform="translate(-30.187 -101.17)" fill="#fff" stroke="#263238" stroke-linecap="round" stroke-linejoin="round" stroke-width="1"/>
          <path id="Trazado_824340" data-name="Trazado 824340" d="M200.921,177.2a3.216,3.216,0,0,1-.33-2.12s-2.16-.39-1.92-2.31c0,0-3.2-.39-1.14-4.17" transform="translate(-22.96 -101.17)" fill="none" stroke="#263238" stroke-linecap="round" stroke-linejoin="round" stroke-width="1"/>
          <path id="Trazado_824341" data-name="Trazado 824341" d="M194.3,172.78s4.3-3.2,4.79-4.65" transform="translate(-18.589 -101.17)" fill="none" stroke="#263238" stroke-linecap="round" stroke-linejoin="round" stroke-width="1"/>
          <path id="Trazado_824342" data-name="Trazado 824342" d="M192.5,175.08s4.59-2.79,4.67-4.43" transform="translate(-14.869 -101.17)" fill="none" stroke="#263238" stroke-linecap="round" stroke-linejoin="round" stroke-width="1"/>
          <path id="Trazado_824343" data-name="Trazado 824343" d="M194.35,160.7s1.46,2.62,3.87,3.17" transform="translate(-17.769 -101.17)" fill="none" stroke="#263238" stroke-linecap="round" stroke-linejoin="round" stroke-width="1"/>
          <path id="Trazado_824344" data-name="Trazado 824344" d="M199.66,161.73a12.547,12.547,0,0,0-2.16,1.43" transform="translate(-22.359 -101.17)" fill="none" stroke="#263238" stroke-linecap="round" stroke-linejoin="round" stroke-width="1"/>
          <path id="Trazado_824345" data-name="Trazado 824345" d="M277.667,250.3a235.827,235.827,0,0,1,34.9-11.66c17.57-4.12,45.96-7.78,45.96-7.78s-7.82,79.8-5.76,84.6,14.42,20.92,14.42,20.92-66.89,26.08-78.55,28.3-5.58-38.25-5.58-38.25-12.25-51.44-5.39-76.13Z" transform="translate(-267.966 -101.17)" fill="#263238"/>
          <path id="Trazado_824346" data-name="Trazado 824346" d="M315.15,241.73s-1.59,3.03,2.59,4.57c10.83,4,22.37.47,21.14-3.77-.47-1.62-3.15,0-2.98-6.05a7.368,7.368,0,0,1,.73-2.66,27.469,27.469,0,0,1,2.75-4.61,57.263,57.263,0,0,1,3.71-4.63s-17.19-10.97-29.94,0c0,0,4.74,2.4,2,17.15Z" transform="translate(-281.439 -101.17)" fill="#fff" stroke="#263238" stroke-linecap="round" stroke-linejoin="round" stroke-width="1"/>
          <g id="Grupo_1073793" data-name="Grupo 1073793" transform="translate(9.706 232.218)">
            <path id="Trazado_824347" data-name="Trazado 824347" d="M223.067,383.86c6.77,11.03,41.12,16.21,59.87,15.72s72.7-26.03,76.36-31.44c3.39-5.01,11.72-21.57-1.12-31.58a24.883,24.883,0,0,0-3.46-2.24c-8.79-4.76-67.25,10.25-67.25,10.25s-3.62-2.29-4.95-2.12c-4.08.52-6.97,3.82-15.24,6.17-5.77,1.65-21.52-4.69-31.58.76a13.877,13.877,0,0,0-3.06,2.22c-9.4,8.98-16.33,21.23-9.57,32.26Z" transform="translate(-220.362 -333.387)" fill="#a854f3"/>
            <g id="Grupo_1073792" data-name="Grupo 1073792" transform="translate(0)" clip-path="url(#clip-path-7)">
              <path id="Trazado_824348" data-name="Trazado 824348" d="M227.28,349.38c10.31-.69,19.5,1.47,25.92,5.26,7.61,4.5,43.55,21.81,43.55,21.81-.08-1.86-2.08-5.61-2.08-5.61,3.38-3.01,12.22-5.35,12.22-5.35,6.85-5.85,34.03-23.3,42.87-28.93a24.881,24.881,0,0,0-3.46-2.24c-8.79-4.76-67.25,10.25-67.25,10.25s-3.62-2.29-4.95-2.12c-4.08.52-6.97,3.82-15.24,6.17-5.77,1.65-21.52-4.69-31.58.76Z" transform="translate(-211.945 -333.387)" opacity="0.3"/>
            </g>
            <path id="Trazado_824350" data-name="Trazado 824350" d="M223.067,383.86c6.77,11.03,41.12,16.21,59.87,15.72s72.7-26.03,76.36-31.44c3.39-5.01,11.72-21.57-1.12-31.58a24.883,24.883,0,0,0-3.46-2.24c-8.79-4.76-67.25,10.25-67.25,10.25s-3.62-2.29-4.95-2.12c-4.08.52-6.97,3.82-15.24,6.17-5.77,1.65-21.52-4.69-31.58.76a13.877,13.877,0,0,0-3.06,2.22c-9.4,8.98-16.33,21.23-9.57,32.26Z" transform="translate(-220.362 -333.387)" fill="none" stroke="#263238" stroke-linecap="round" stroke-linejoin="round" stroke-width="1"/>
          </g>
          <g id="Grupo_1073800" data-name="Grupo 1073800" transform="translate(22.091 281.78)">
            <path id="Trazado_824351" data-name="Trazado 824351" d="M311.52,393.81l-.86,3.77s2.3,6.53,12.41,7.59,16.1,3.31,20.96,3.6a41.928,41.928,0,0,0,7.69-.12l.99-1.48-41.19-13.35Z" transform="translate(-310.66 -382.95)" fill="#fff" stroke="#263238" stroke-linecap="round" stroke-linejoin="round" stroke-width="1"/>
            <g id="Grupo_1073795" data-name="Grupo 1073795" transform="translate(0.928)">
              <path id="Trazado_824352" data-name="Trazado 824352" d="M351.782,393.42l-17.52,13.75a201.829,201.829,0,0,1-25.12-3.75h0c-8.3-1.93-15.55-4.69-15.95-8.46-.61-5.74,5.53-7.31,12.82-7.09,1.36.03,2.76.14,4.17.28,11.67,1.25,26.51-5.2,26.51-5.2l15.08,10.47Z" transform="translate(-293.15 -382.95)" fill="#263238"/>
              <g id="Grupo_1073794" data-name="Grupo 1073794" transform="translate(0)" clip-path="url(#clip-path-8)">
                <path id="Trazado_824353" data-name="Trazado 824353" d="M293.169,394.82a53.425,53.425,0,0,1,9.74,4.79s16.27,8.37,41.27-.25l7.58-5.95-15.08-10.47s-14.83,6.45-26.51,5.19c-1.41-.15-2.81-.25-4.17-.28-7.24-.23-13.33,1.32-12.83,6.96Z" transform="translate(-293.117 -382.95)" opacity="0.3"/>
              </g>
              <path id="Trazado_824355" data-name="Trazado 824355" d="M351.782,393.42l-17.52,13.75a201.829,201.829,0,0,1-25.12-3.75h0c-8.3-1.93-15.55-4.69-15.95-8.46-.61-5.74,5.53-7.31,12.82-7.09,1.36.03,2.76.14,4.17.28,11.67,1.25,26.51-5.2,26.51-5.2l15.08,10.47Z" transform="translate(-293.15 -382.95)" fill="none" stroke="#263238" stroke-linecap="round" stroke-linejoin="round" stroke-width="1"/>
            </g>
            <g id="Grupo_1073797" data-name="Grupo 1073797" transform="translate(37.117 15.829)">
              <path id="Trazado_824356" data-name="Trazado 824356" d="M314.369,398.83c3.16.52-.31,6.97-4.59,5.01S311.209,398.31,314.369,398.83Z" transform="translate(-308.246 -398.779)" fill="#fff"/>
              <g id="Grupo_1073796" data-name="Grupo 1073796" transform="translate(0)" clip-path="url(#clip-path-9)">
                <path id="Trazado_824357" data-name="Trazado 824357" d="M308.459,402.8a66.291,66.291,0,0,0,6.8-1.19c.61-1.27.47-2.57-.88-2.78-2.65-.43-7.11,2.01-5.93,3.97Z" transform="translate(-308.266 -398.779)" opacity="0.2"/>
              </g>
              <path id="Trazado_824359" data-name="Trazado 824359" d="M314.369,398.83c3.16.52-.31,6.97-4.59,5.01S311.209,398.31,314.369,398.83Z" transform="translate(-308.246 -398.779)" fill="none" stroke="#263238" stroke-linecap="round" stroke-linejoin="round" stroke-width="1"/>
            </g>
            <g id="Grupo_1073799" data-name="Grupo 1073799" transform="translate(0.938 4.89)">
              <path id="Trazado_824360" data-name="Trazado 824360" d="M350.415,403.4c-8.3-1.92-15.55-4.68-15.95-8.45-.61-5.74,5.53-7.31,12.82-7.09.32.31,7.39,7.14,3.12,15.54Z" transform="translate(-334.423 -387.84)" fill="#fff"/>
              <g id="Grupo_1073798" data-name="Grupo 1073798" transform="translate(0)" clip-path="url(#clip-path-10)">
                <path id="Trazado_824361" data-name="Trazado 824361" d="M334.45,394.82a53.425,53.425,0,0,1,9.74,4.79,32.781,32.781,0,0,0,6.85,2.29c2.8-7.7-3.46-13.76-3.76-14.04C340.04,387.63,333.95,389.18,334.45,394.82Z" transform="translate(-334.408 -387.84)" opacity="0.3"/>
              </g>
              <path id="Trazado_824363" data-name="Trazado 824363" d="M350.415,403.4c-8.3-1.92-15.55-4.68-15.95-8.45-.61-5.74,5.53-7.31,12.82-7.09.32.31,7.39,7.14,3.12,15.54Z" transform="translate(-334.423 -387.84)" fill="none" stroke="#263238" stroke-linecap="round" stroke-linejoin="round" stroke-width="1"/>
            </g>
            <path id="Trazado_824364" data-name="Trazado 824364" d="M333.279,396.27h-.05a.87.87,0,0,1-.91-.82,11.665,11.665,0,0,0-2.99-6.59.87.87,0,0,1,1.25-1.21,13.362,13.362,0,0,1,3.47,7.71.86.86,0,0,1-.77.9Z" transform="translate(-310.429 -382.95)" fill="#fff" stroke="#263238" stroke-linecap="round" stroke-linejoin="round" stroke-width="1"/>
            <path id="Trazado_824365" data-name="Trazado 824365" d="M329.4,396.48h-.07a.862.862,0,0,1-.88-.85,12.862,12.862,0,0,0-2.65-6.85.867.867,0,1,1,1.34-1.1,14.443,14.443,0,0,1,3.05,7.92.878.878,0,0,1-.77.88Z" transform="translate(-303.075 -382.95)" fill="#fff" stroke="#263238" stroke-linecap="round" stroke-linejoin="round" stroke-width="1"/>
            <path id="Trazado_824366" data-name="Trazado 824366" d="M325.465,396.04h-.02a.866.866,0,0,1-.94-.79c-.27-3.04-2.85-6.92-2.88-6.96a.865.865,0,1,1,1.44-.96c.12.17,2.86,4.29,3.16,7.78a.869.869,0,0,1-.77.94Z" transform="translate(-294.995 -382.95)" fill="#fff" stroke="#263238" stroke-linecap="round" stroke-linejoin="round" stroke-width="1"/>
            <path id="Trazado_824367" data-name="Trazado 824367" d="M321.514,395.63h-.23a.87.87,0,0,1-.71-1c.62-3.68-2.8-6.84-2.84-6.87a.864.864,0,0,1,1.16-1.28c.17.15,4.16,3.81,3.39,8.44a.88.88,0,0,1-.76.72Z" transform="translate(-287.124 -382.95)" fill="#fff" stroke="#263238" stroke-linecap="round" stroke-linejoin="round" stroke-width="1"/>
            <path id="Trazado_824368" data-name="Trazado 824368" d="M316.811,394.6a1.465,1.465,0,0,1-.29-.02.862.862,0,0,1-.65-1.04c.75-3.28-2.48-6.99-2.51-7.03a.859.859,0,0,1,.08-1.22.867.867,0,0,1,1.22.07c.16.18,3.86,4.41,2.91,8.57a.882.882,0,0,1-.75.67Z" transform="translate(-278.161 -382.95)" fill="#fff" stroke="#263238" stroke-linecap="round" stroke-linejoin="round" stroke-width="1"/>
          </g>
          <g id="Grupo_1073803" data-name="Grupo 1073803" transform="translate(92.401 280.79)">
            <path id="Trazado_824369" data-name="Trazado 824369" d="M262.24,388.18l1.26,3.66s-1.6,6.73-11.55,8.85-15.66,4.98-20.46,5.78a41.9,41.9,0,0,1-7.66.69l-1.14-1.37,39.56-17.6Z" transform="translate(-203.79 -381.96)" fill="#fff" stroke="#263238" stroke-linecap="round" stroke-linejoin="round" stroke-width="1"/>
            <g id="Grupo_1073802" data-name="Grupo 1073802" transform="translate(0)">
              <path id="Trazado_824370" data-name="Trazado 824370" d="M223.99,393.95l18.86,11.83a201.277,201.277,0,0,0,24.58-6.37h0c8.05-2.79,14.97-6.29,14.97-10.09,0-5.77-6.27-6.69-13.5-5.7-1.35.17-2.73.42-4.12.72-11.48,2.47-26.91-2.38-26.91-2.38l-13.9,12Z" transform="translate(-223.97 -381.96)" fill="#263238"/>
              <g id="Grupo_1073801" data-name="Grupo 1073801" transform="translate(0)" clip-path="url(#clip-path-11)">
                <path id="Trazado_824371" data-name="Trazado 824371" d="M248.75,393.95l11.1,6.96a44.664,44.664,0,0,0,22.53-15.87,74.623,74.623,0,0,1-19.73-3.09Z" transform="translate(-248.73 -381.96)" opacity="0.3"/>
              </g>
              <path id="Trazado_824373" data-name="Trazado 824373" d="M223.99,393.95l18.86,11.83a201.277,201.277,0,0,0,24.58-6.37h0c8.05-2.79,14.97-6.29,14.97-10.09,0-5.77-6.27-6.69-13.5-5.7-1.35.17-2.73.42-4.12.72-11.48,2.47-26.91-2.38-26.91-2.38l-13.9,12Z" transform="translate(-223.97 -381.96)" fill="none" stroke="#263238" stroke-linecap="round" stroke-linejoin="round" stroke-width="1"/>
            </g>
            <path id="Trazado_824374" data-name="Trazado 824374" d="M225.963,399.4c8.05-2.78,14.97-6.28,14.97-10.08,0-5.77-6.27-6.69-13.5-5.7-.29.34-6.6,7.88-1.47,15.79Z" transform="translate(-182.493 -381.96)" fill="#fff" stroke="#263238" stroke-linecap="round" stroke-linejoin="round" stroke-width="1"/>
            <path id="Trazado_824375" data-name="Trazado 824375" d="M243.1,392.93h.05a.876.876,0,0,0,.82-.91,11.679,11.679,0,0,1,2.28-6.87.882.882,0,0,0-.15-1.22.869.869,0,0,0-1.21.15,13.309,13.309,0,0,0-2.64,8.03.873.873,0,0,0,.86.82Z" transform="translate(-206.255 -381.96)" fill="#fff" stroke="#263238" stroke-linecap="round" stroke-linejoin="round" stroke-width="1"/>
            <path id="Trazado_824376" data-name="Trazado 824376" d="M246.975,393.5h.07a.866.866,0,0,0,.79-.94,12.917,12.917,0,0,1,1.92-7.1.867.867,0,1,0-1.45-.95,14.451,14.451,0,0,0-2.2,8.19.868.868,0,0,0,.86.79Z" transform="translate(-213.565 -381.96)" fill="#fff" stroke="#263238" stroke-linecap="round" stroke-linejoin="round" stroke-width="1"/>
            <path id="Trazado_824377" data-name="Trazado 824377" d="M250.932,393.5h.02a.856.856,0,0,0,.85-.88c-.05-3.05,2.11-7.18,2.13-7.22a.871.871,0,0,0-.36-1.17.862.862,0,0,0-1.17.36c-.1.19-2.39,4.57-2.33,8.07a.867.867,0,0,0,.87.85Z" transform="translate(-221.702 -381.96)" fill="#fff" stroke="#263238" stroke-linecap="round" stroke-linejoin="round" stroke-width="1"/>
            <path id="Trazado_824378" data-name="Trazado 824378" d="M255.066,393.5a.909.909,0,0,0,.23-.03.869.869,0,0,0,.6-1.07c-1-3.6,2.07-7.09,2.1-7.13a.864.864,0,1,0-1.29-1.15c-.15.17-3.74,4.23-2.48,8.75a.873.873,0,0,0,.83.63Z" transform="translate(-229.776 -381.96)" fill="#fff" stroke="#263238" stroke-linecap="round" stroke-linejoin="round" stroke-width="1"/>
            <path id="Trazado_824379" data-name="Trazado 824379" d="M259.873,392.93a.918.918,0,0,0,.28-.05.876.876,0,0,0,.54-1.1c-1.09-3.18,1.73-7.21,1.76-7.25a.867.867,0,1,0-1.41-1.01c-.14.19-3.38,4.79-1.99,8.83a.868.868,0,0,0,.82.59Z" transform="translate(-238.923 -381.96)" fill="#fff" stroke="#263238" stroke-linecap="round" stroke-linejoin="round" stroke-width="1"/>
            <path id="Trazado_824380" data-name="Trazado 824380" d="M260.208,397.62c-3.09.84,1.04,6.9,5.09,4.5S263.288,396.77,260.208,397.62Z" transform="translate(-243.378 -381.96)" fill="#fff" stroke="#263238" stroke-linecap="round" stroke-linejoin="round" stroke-width="1"/>
          </g>
          <path id="Trazado_824381" data-name="Trazado 824381" d="M358.73,365.48c-4.64,6.49-18.36,13.66-32.04,19.58a64.232,64.232,0,0,1-8.58,11.21c-8.42,8.66-11.85,3.81-11.85,3.81s-5.32-.6-13.17-1.67a3.717,3.717,0,0,1-3.97,2.23c-1.02-.16-2.99-1.62-5.21-3.55-19.83-2.98-46.74-7.96-54.01-13.82" transform="translate(-213.829 -101.17)" fill="#a854f3" stroke="#263238" stroke-linecap="round" stroke-linejoin="round" stroke-width="1"/>
          <g id="Grupo_1073804" data-name="Grupo 1073804" transform="translate(15.091 248.331)">
            <path id="Trazado_824382" data-name="Trazado 824382" d="M261.281,353.14c3.43-3.77,6.86-3.94,14.06-3.43,0,0,18.79,5.96,31.89,13.89s32.24,16.26,32.24,16.26,5.83-1.69,9.89,0c0,0,2.85.22.94,5.2" transform="translate(-252.531 -349.501)" fill="none" stroke="#263238" stroke-linecap="round" stroke-linejoin="round" stroke-width="1"/>
            <path id="Trazado_824383" data-name="Trazado 824383" d="M351.57,375.66s-.1,5.81,8.14,9.83" transform="translate(-351.57 -349.5)" fill="none" stroke="#263238" stroke-linecap="round" stroke-linejoin="round" stroke-width="1"/>
            <path id="Trazado_824384" data-name="Trazado 824384" d="M291.82,351.42s-13.01,9.4-15.6,15.6a54.034,54.034,0,0,0-7.39,3.81" transform="translate(-200.94 -349.501)" fill="none" stroke="#263238" stroke-linecap="round" stroke-linejoin="round" stroke-width="1"/>
            <path id="Trazado_824385" data-name="Trazado 824385" d="M286.239,359.24a14.976,14.976,0,0,0-.46,8.41" transform="translate(-211.899 -349.501)" fill="none" stroke="#263238" stroke-linecap="round" stroke-linejoin="round" stroke-width="1"/>
            <path id="Trazado_824386" data-name="Trazado 824386" d="M284.24,353.14a22.74,22.74,0,0,0-1.86,3.25" transform="translate(-206.91 -349.501)" fill="none" stroke="#263238" stroke-linecap="round" stroke-linejoin="round" stroke-width="1"/>
            <path id="Trazado_824387" data-name="Trazado 824387" d="M306.32,352.28s-4.35,5.81-5.43,10.54" transform="translate(-247.5 -349.501)" fill="none" stroke="#263238" stroke-linecap="round" stroke-linejoin="round" stroke-width="1"/>
            <path id="Trazado_824388" data-name="Trazado 824388" d="M329.94,387.44a37.1,37.1,0,0,1-4.82-.59" transform="translate(-295.35 -349.501)" fill="none" stroke="#263238" stroke-linecap="round" stroke-linejoin="round" stroke-width="1"/>
            <path id="Trazado_824389" data-name="Trazado 824389" d="M321.71,383.27a231.8,231.8,0,0,1-37.4,4.29" transform="translate(-246.31 -349.5)" fill="none" stroke="#263238" stroke-linecap="round" stroke-linejoin="round" stroke-width="1"/>
          </g>
          <path id="Trazado_824390" data-name="Trazado 824390" d="M303.01,295.09s2.35,40.95,5.12,43.35,7.14,3.09,15.41,3.77,44.85,2.93,44.85,2.93l3.91-11.75s-19.45-1.97-28.08-5.15a144.731,144.731,0,0,0-19.87-5.26s1.63-10.31,1.63-14.75V287.35" transform="translate(-300.509 -101.17)" fill="#fff" stroke="#263238" stroke-linecap="round" stroke-linejoin="round" stroke-width="1"/>
          <path id="Trazado_824391" data-name="Trazado 824391" d="M355.012,250.3c-8.92,5.49-11.55,18.18-8.46,45.27,0,0-2.63,3.2,1.26,4.8,0,0,14.56-5.45,21.34-1.69s5.02-5.19,5.02-5.19,2.79-24.92-3.38-29.42" transform="translate(-345.311 -101.17)" fill="#263238"/>
          <path id="Trazado_824392" data-name="Trazado 824392" d="M344.4,260.24s8.57,8.92,1.03,31.44a36.741,36.741,0,0,1,1.04,5.6c0,1.5-2.07,2.29-2.07,2.29" transform="translate(-318.126 -101.17)" fill="none" stroke="#fff" stroke-linecap="round" stroke-linejoin="round" stroke-width="1"/>
          <path id="Trazado_824393" data-name="Trazado 824393" d="M345.94,275.33s-.62,10.97-7.44,15.78" transform="translate(-309.639 -101.17)" fill="none" stroke="#fff" stroke-linecap="round" stroke-linejoin="round" stroke-width="1"/>
          <path id="Trazado_824394" data-name="Trazado 824394" d="M312.624,249.79s13.29,5.09,23.86-.55c6.27-3.34,3.69-8.71,3.69-8.71" transform="translate(-278.523 -101.17)" fill="none" stroke="#fff" stroke-linecap="round" stroke-linejoin="round" stroke-width="1"/>
          <g id="Grupo_1073805" data-name="Grupo 1073805" transform="translate(37.521 191.4)">
            <path id="Trazado_824395" data-name="Trazado 824395" d="M333.38,353.16H261.04a19.293,19.293,0,0,1-4.84-.62l-14.27-3.74a.919.919,0,0,1-.69-.89h0a.918.918,0,0,1,.92-.92h94.2a.918.918,0,0,1,.92.92v1.35a3.909,3.909,0,0,1-3.91,3.91Z" transform="translate(-241.24 -292.57)" fill="#757575" stroke="#263238" stroke-linecap="round" stroke-linejoin="round" stroke-width="1"/>
            <path id="Trazado_824396" data-name="Trazado 824396" d="M295.84,349.56H223.3a1.73,1.73,0,0,1-1.69-2.33l13.46-52.33a3.18,3.18,0,0,1,2.89-2.33H310.5a1.73,1.73,0,0,1,1.69,2.33l-13.46,52.33a3.18,3.18,0,0,1-2.89,2.33Z" transform="translate(-196.52 -292.57)" fill="#999" stroke="#263238" stroke-linecap="round" stroke-linejoin="round" stroke-width="1"/>
            <line id="Línea_308" data-name="Línea 308" x2="1.38" transform="translate(111.41 1.87)" fill="none" stroke="#263238" stroke-linecap="round" stroke-linejoin="round" stroke-width="1"/>
            <line id="Línea_309" data-name="Línea 309" x2="7.09" transform="translate(100.78 1.87)" fill="none" stroke="#263238" stroke-linecap="round" stroke-linejoin="round" stroke-width="1"/>
            <path id="Trazado_824397" data-name="Trazado 824397" d="M238.1,342.95l11.88-46.18a3.19,3.19,0,0,1,2.89-2.33h55.89" transform="translate(-209.58 -292.57)" fill="none" stroke="#263238" stroke-linecap="round" stroke-linejoin="round" stroke-width="1"/>
            <line id="Línea_310" data-name="Línea 310" y1="1.15" x2="0.3" transform="translate(27.48 53.25)" fill="none" stroke="#263238" stroke-linecap="round" stroke-linejoin="round" stroke-width="1"/>
            <path id="Trazado_824398" data-name="Trazado 824398" d="M270.157,322.39a8.134,8.134,0,0,1-.25,1.25c-.93,3.15-3.88,5.06-6.59,4.27s-4.16-4-3.24-7.15c.94-3.16,3.89-5.06,6.6-4.27a4.984,4.984,0,0,1,.92.39,5.584,5.584,0,0,0,2.56,5.51Z" transform="translate(-192.677 -292.57)" fill="#fff" stroke="#263238" stroke-linecap="round" stroke-linejoin="round" stroke-width="1"/>
          </g>
          <path id="Trazado_824399" data-name="Trazado 824399" d="M286.318,224.32c6.28-.69,9.71-6.65,13.48-7.58a41.649,41.649,0,0,0,6.18-1.99s1.3-4.55,3.25-2.96,4.51,35.49,2,34.43-2.51,2.94-2.51,2.94l-23.31,20.55-19.54-34.6s14.18-10.09,20.46-10.78Z" transform="translate(-203.337 -101.17)" fill="#263238"/>
          <g id="Grupo_1073807" data-name="Grupo 1073807" transform="translate(181.201)">
            <g id="Grupo_1073806" data-name="Grupo 1073806" transform="translate(1.73 1.72)">
              <path id="Trazado_824400" data-name="Trazado 824400" d="M102.37,103.39v-.5h-.5" transform="translate(-12.37 -102.89)" fill="none" stroke="#263238" stroke-linecap="round" stroke-linejoin="round" stroke-width="1"/>
              <line id="Línea_311" data-name="Línea 311" x1="84.6" transform="translate(1.97)" fill="none" stroke="#263238" stroke-linecap="round" stroke-linejoin="round" stroke-width="1" stroke-dasharray="0 0 0.98 2.93"/>
              <path id="Trazado_824401" data-name="Trazado 824401" d="M191.87,102.89h-.5v.5" transform="translate(-191.37 -102.89)" fill="none" stroke="#263238" stroke-linecap="round" stroke-linejoin="round" stroke-width="1"/>
              <line id="Línea_312" data-name="Línea 312" y2="54.5" transform="translate(0 3.5)" fill="none" stroke="#263238" stroke-linecap="round" stroke-linejoin="round" stroke-width="1" stroke-dasharray="0 0 1 3"/>
              <path id="Trazado_824402" data-name="Trazado 824402" d="M191.37,162.39v.5h.5" transform="translate(-191.37 -102.89)" fill="none" stroke="#263238" stroke-linecap="round" stroke-linejoin="round" stroke-width="1"/>
              <line id="Línea_313" data-name="Línea 313" x2="84.6" transform="translate(3.43 60)" fill="none" stroke="#263238" stroke-linecap="round" stroke-linejoin="round" stroke-width="1" stroke-dasharray="0 0 0.98 2.93"/>
              <path id="Trazado_824403" data-name="Trazado 824403" d="M101.87,162.89h.5v-.5" transform="translate(-12.37 -102.89)" fill="none" stroke="#263238" stroke-linecap="round" stroke-linejoin="round" stroke-width="1"/>
              <line id="Línea_314" data-name="Línea 314" y1="54.5" transform="translate(90 2)" fill="none" stroke="#263238" stroke-linecap="round" stroke-linejoin="round" stroke-width="1" stroke-dasharray="0 0 1 3"/>
            </g>
            <ellipse id="Elipse_9851" data-name="Elipse 9851" cx="1.48" cy="1.48" rx="1.48" ry="1.48" transform="translate(45.25 0.24)" fill="#a854f3" stroke="#263238" stroke-linecap="round" stroke-linejoin="round" stroke-width="1"/>
            <ellipse id="Elipse_9852" data-name="Elipse 9852" cx="1.48" cy="1.48" rx="1.48" ry="1.48" transform="translate(90.25 30.24)" fill="#a854f3" stroke="#263238" stroke-linecap="round" stroke-linejoin="round" stroke-width="1"/>
            <ellipse id="Elipse_9853" data-name="Elipse 9853" cx="1.48" cy="1.48" rx="1.48" ry="1.48" transform="translate(45.25 60.24)" fill="#a854f3" stroke="#263238" stroke-linecap="round" stroke-linejoin="round" stroke-width="1"/>
            <ellipse id="Elipse_9854" data-name="Elipse 9854" cx="1.48" cy="1.48" rx="1.48" ry="1.48" transform="translate(0.25 30.24)" fill="#a854f3" stroke="#263238" stroke-linecap="round" stroke-linejoin="round" stroke-width="1"/>
            <rect id="Rectángulo_382646" data-name="Rectángulo 382646" width="3.45" height="3.45" transform="translate(0 60)" fill="#a854f3" stroke="#263238" stroke-linecap="round" stroke-linejoin="round" stroke-width="1"/>
            <rect id="Rectángulo_382647" data-name="Rectángulo 382647" width="3.45" height="3.45" transform="translate(0)" fill="#a854f3" stroke="#263238" stroke-linecap="round" stroke-linejoin="round" stroke-width="1"/>
            <rect id="Rectángulo_382648" data-name="Rectángulo 382648" width="3.45" height="3.45" transform="translate(90 60)" fill="#a854f3" stroke="#263238" stroke-linecap="round" stroke-linejoin="round" stroke-width="1"/>
            <rect id="Rectángulo_382649" data-name="Rectángulo 382649" width="3.45" height="3.45" transform="translate(90)" fill="#a854f3" stroke="#263238" stroke-linecap="round" stroke-linejoin="round" stroke-width="1"/>
          </g>
          <g id="Grupo_1073808" data-name="Grupo 1073808" transform="translate(65.355 31.725)">
            <rect id="Rectángulo_382650" data-name="Rectángulo 382650" width="55.162" height="35.049" transform="translate(0)" fill="#fff" stroke="#263238" stroke-linecap="round" stroke-linejoin="round" stroke-width="1"/>
          </g>
          <path id="Trazado_824405" data-name="Trazado 824405" d="M289.25,233.49s5.95,11.17,6.7,28.26" transform="translate(-210.399 -101.17)" fill="none" stroke="#fff" stroke-linecap="round" stroke-linejoin="round" stroke-width="1"/>
          <path id="Trazado_824406" data-name="Trazado 824406" d="M285.38,241.23s-1.79,9.5-7.03,16.38" transform="translate(-188.929 -101.17)" fill="none" stroke="#fff" stroke-linecap="round" stroke-linejoin="round" stroke-width="1"/>
          <path id="Trazado_824407" data-name="Trazado 824407" d="M331.57,280.43s-8.98,29.56-28.56,38.27" transform="translate(-259.779 -101.17)" fill="none" stroke="#fff" stroke-linecap="round" stroke-linejoin="round" stroke-width="1"/>
          <path id="Trazado_824408" data-name="Trazado 824408" d="M316.86,226.92s.85,6.45,7.05,6.9a27.469,27.469,0,0,1,2.75-4.61A86.58,86.58,0,0,0,316.86,226.92Z" transform="translate(-268.719 -101.17)" fill="#263238"/>
          <g id="Grupo_1073809" data-name="Grupo 1073809" transform="translate(13.328 76.011)">
            <path id="Trazado_824409" data-name="Trazado 824409" d="M322.309,227.37s-10.37,1.27-14.71-12.65-.93-24.41,16.24-29.46c9.52-2.8,19.03-.55,22.46,6.65,2.94,6.17,1.55,11.31,2.23,13.38.76,2.32,7.77,4.29,7.77,5.88,0,1.32-3.89,3.55-3.89,3.55l1.14,3.46-1.08.57s1.99,7.79,1.08,10.54c-.67,2.01-18.23,2.84-19.6-2.13" transform="translate(-300.715 -177.181)" fill="#fff" stroke="#263238" stroke-linecap="round" stroke-linejoin="round" stroke-width="1"/>
            <path id="Trazado_824410" data-name="Trazado 824410" d="M320.34,196.97s-3.43.86-4.37,2.66" transform="translate(-274.837 -177.181)" fill="none" stroke="#263238" stroke-linecap="round" stroke-linejoin="round" stroke-width="1"/>
            <path id="Trazado_824411" data-name="Trazado 824411" d="M318.15,204.87c.15,1.01-.08,1.88-.52,1.94s-.9-.7-1.05-1.71.08-1.88.52-1.94S318,203.86,318.15,204.87Z" transform="translate(-273.257 -177.181)" fill="#263238"/>
            <path id="Trazado_824412" data-name="Trazado 824412" d="M317.37,218.75s-5.58,2.14-7.66.85" transform="translate(-265.607 -177.181)" fill="none" stroke="#263238" stroke-linecap="round" stroke-linejoin="round" stroke-width="1"/>
            <path id="Trazado_824413" data-name="Trazado 824413" d="M315.414,204.08c.41,2.23-.09,4.2-1.12,4.39s-2.2-1.46-2.62-3.7.09-4.2,1.12-4.39S314.994,201.84,315.414,204.08Z" transform="translate(-265.611 -177.181)" fill="none" stroke="#263238" stroke-linecap="round" stroke-linejoin="round" stroke-width="1"/>
            <path id="Trazado_824414" data-name="Trazado 824414" d="M319.235,192.68a16.5,16.5,0,0,1,6.52-10.06,30.466,30.466,0,0,1,12.57-5.14s-3.32,1.45-4.57,3.35c0,0,8.57-6.44,18.75-2.21s8.92,15.22,8.92,15.22l-1.49-2.88s.17,3.43-1.63,4.69a22.516,22.516,0,0,0-2.19-4.8s-2.7,8.12-10.13,10.86a5.867,5.867,0,0,0,.11-4s-4.11,8.92-2.91,13.26l-1.32,2.29s-4.73-4.79-8.57-.8c-2.21,2.29,4.23,10.97,5.14,10.97l-3.89,5.72s-9.72,1.38-15.32-9.14-4.23-15.02-4.23-15.02a13.952,13.952,0,0,0-2.06,4.04s-1.6-11.32,6.29-16.35Z" transform="translate(-312.801 -177.181)" fill="#263238"/>
            <path id="Trazado_824415" data-name="Trazado 824415" d="M344.828,214.29s-2.98-10.09-9.38-6.53-1.82,8.93.46,10.99,4,5.83,5.49,5.83,1.83-1.83,1.83-1.83" transform="translate(-315.535 -177.181)" fill="#fff" stroke="#263238" stroke-linecap="round" stroke-linejoin="round" stroke-width="1"/>
            <line id="Línea_315" data-name="Línea 315" x1="17.8" y2="3.7" transform="translate(28.263 27.589)" fill="none" stroke="#263238" stroke-linecap="round" stroke-linejoin="round" stroke-width="1"/>
          </g>
        </g>
      </g>
    </g>
  </g>
</svg>
