<svg id="Grupo_1074245" data-name="Grupo 1074245" xmlns="http://www.w3.org/2000/svg" width="190" height="139" viewBox="0 0 190 139">
  <rect id="Rectángulo_382765" data-name="Rectángulo 382765" width="190" height="139" rx="13" fill="#0b47db"/>
  <g id="recruiter" transform="translate(46.282 15.782)">
    <g id="Grupo_1074125" data-name="Grupo 1074125" transform="translate(1.797 1.797)">
      <g id="Grupo_1074109" data-name="Grupo 1074109" transform="translate(35.947 64.705)">
        <path id="Trazado_824972" data-name="Trazado 824972" d="M30.987,38l5.392,23.366-7.189,8.987L22,61.366,27.392,38Z" transform="translate(-22 -38)" fill="#ff826e"/>
      </g>
      <g id="Grupo_1074110" data-name="Grupo 1074110" transform="translate(38.428 57.516)">
        <path id="Trazado_824973" data-name="Trazado 824973" d="M23.38,36.822,28.089,34,32.8,36.822l-2.912,4.368H26.292Z" transform="translate(-23.38 -34)" fill="#fc6e51"/>
      </g>
      <g id="Grupo_1074114" data-name="Grupo 1074114" transform="translate(17.776 39.542)">
        <g id="Grupo_1074111" data-name="Grupo 1074111" transform="translate(18.171 48.529)">
          <path id="Trazado_824974" data-name="Trazado 824974" d="M22,59.987h7.189L22,51Z" transform="translate(-22 -51)" fill="#fcd770"/>
        </g>
        <g id="Grupo_1074112" data-name="Grupo 1074112" transform="translate(25.361)">
          <path id="Trazado_824975" data-name="Trazado 824975" d="M65.542,24v9.077A10.7,10.7,0,0,1,51.181,43.124l-13.175-4.8-3.02,9.041L30.709,44.8,27.8,49.163l5.392,23.366L26,81.516H43.974V54.555l5.482,2.193A19.593,19.593,0,0,0,76.326,38.559V24Z" transform="translate(-26 -24)" fill="#fcd770"/>
        </g>
        <g id="Grupo_1074113" data-name="Grupo 1074113" transform="translate(0 14.127)">
          <path id="Trazado_824976" data-name="Trazado 824976" d="M32.542,38.528,28.264,41.1,25.19,31.86a29.045,29.045,0,0,0-5.5,3,29.381,29.381,0,0,0-7.8,8.034h2a5.334,5.334,0,0,1,5.069,3.595h7.513a3.605,3.605,0,0,1,3.595,3.595V66.262L35.453,42.9Z" transform="translate(-11.89 -31.86)" fill="#fcd770"/>
        </g>
      </g>
      <g id="Grupo_1074115" data-name="Grupo 1074115" transform="translate(43.137 52.124)">
        <path id="Trazado_824977" data-name="Trazado 824977" d="M26,36.392,33.189,31l4.817,1.743-3.02,9.041-4.278-2.57Z" transform="translate(-26 -31)" fill="#ffc729"/>
      </g>
      <g id="Grupo_1074116" data-name="Grupo 1074116" transform="translate(31.076 52.124)">
        <path id="Trazado_824978" data-name="Trazado 824978" d="M24.161,31l7.189,5.392-4.709,2.822-4.278,2.57L19.29,32.546A26.939,26.939,0,0,1,24.161,31Z" transform="translate(-19.29 -31)" fill="#ffc729"/>
      </g>
      <g id="Grupo_1074117" data-name="Grupo 1074117" transform="translate(0 68.3)">
        <path id="Trazado_824979" data-name="Trazado 824979" d="M34.353,40H5.595A3.605,3.605,0,0,0,2,43.595V75.947a3.605,3.605,0,0,0,3.595,3.595H34.353a3.605,3.605,0,0,0,3.595-3.595V43.595A3.605,3.605,0,0,0,34.353,40Z" transform="translate(-2 -40)" fill="#b4dd7f"/>
      </g>
      <g id="Grupo_1074118" data-name="Grupo 1074118" transform="translate(7.189 75.489)">
        <path id="Trazado_824980" data-name="Trazado 824980" d="M6,69.163V44H27.568V69.163Z" transform="translate(-6 -44)" fill="#e6e9ed"/>
      </g>
      <g id="Grupo_1074119" data-name="Grupo 1074119" transform="translate(61.11 10.784)">
        <path id="Trazado_824981" data-name="Trazado 824981" d="M42.56,9.492A9.016,9.016,0,0,1,36,15.01v4.08a12.285,12.285,0,0,0,3.595,8.681l-.162.162,36.109,1.636V8Z" transform="translate(-36 -8)" fill="#aab2bd"/>
      </g>
      <g id="Grupo_1074120" data-name="Grupo 1074120" transform="translate(100.652 7.189)">
        <path id="Trazado_824982" data-name="Trazado 824982" d="M65.189,7.8V32.96a1.8,1.8,0,0,1-1.8,1.8H59.8a1.8,1.8,0,0,1-1.8-1.8V7.8A1.8,1.8,0,0,1,59.8,6h3.595A1.8,1.8,0,0,1,65.189,7.8Z" transform="translate(-58 -6)" fill="#ccd1d9"/>
      </g>
      <g id="Grupo_1074121" data-name="Grupo 1074121" transform="translate(21.568)">
        <path id="Trazado_824983" data-name="Trazado 824983" d="M35.568,16.379a7.187,7.187,0,0,0-7.189,7.189h-1.8a5.392,5.392,0,0,0,0,10.784h1.8V46.934L21.6,41A22.253,22.253,0,0,1,36.251,2H51.745a8.96,8.96,0,0,1,8.987,8.987,8.78,8.78,0,0,1-.629,3.289,9.016,9.016,0,0,1-6.56,5.518,8.47,8.47,0,0,1-1.8.18H39.163a3.621,3.621,0,0,1-3.595-3.595Z" transform="translate(-14 -2)" fill="#b27946"/>
      </g>
      <g id="Grupo_1074122" data-name="Grupo 1074122" transform="translate(79.084 28.758)">
        <path id="Trazado_824984" data-name="Trazado 824984" d="M60.379,21.595v7.189H49.595L47.06,26.25A3.606,3.606,0,0,1,46,23.7v-2.1a3.424,3.424,0,0,1,.144-.971A3.591,3.591,0,0,1,49.595,18h7.189a3.6,3.6,0,0,1,3.577,3.271A1.954,1.954,0,0,1,60.379,21.595Z" transform="translate(-46 -18)" fill="#f0d0b4"/>
      </g>
      <g id="Grupo_1074123" data-name="Grupo 1074123" transform="translate(28.758 14.379)">
        <path id="Trazado_824985" data-name="Trazado 824985" d="M50.353,35.163V36.17a6.183,6.183,0,0,1-6.183,6.183,6.052,6.052,0,0,1-1.959-.324l-2.642-.881v6.6l-7.189,5.392-7.189-5.392V27.974h-1.8a5.392,5.392,0,1,1,0-10.784h1.8A7.187,7.187,0,0,1,32.379,10a3.621,3.621,0,0,0,3.595,3.595H48.555a8.47,8.47,0,0,0,1.8-.18V17.5a12.285,12.285,0,0,0,3.595,8.681l-.162.162-3.433,3.433Z" transform="translate(-18 -10)" fill="#f0d0b4"/>
      </g>
      <g id="Grupo_1074124" data-name="Grupo 1074124" transform="translate(10.784 64.705)">
        <path id="Trazado_824986" data-name="Trazado 824986" d="M22.379,43.392v1.8a3.605,3.605,0,0,1-3.595,3.595H11.595A3.605,3.605,0,0,1,8,45.189v-1.8a4.982,4.982,0,0,1,.324-1.8A5.334,5.334,0,0,1,13.392,38h3.595a5.334,5.334,0,0,1,5.069,3.595A4.982,4.982,0,0,1,22.379,43.392Z" transform="translate(-8 -38)" fill="#f0d0b4"/>
      </g>
    </g>
    <g id="Grupo_1074126" data-name="Grupo 1074126">
      <path id="Trazado_824987" data-name="Trazado 824987" d="M21.619,50.834l-2.541-2.541-5.919,5.919-2.324-2.324L8.293,54.429l4.865,4.865Z" transform="translate(4.815 36.71)"/>
      <path id="Trazado_824988" data-name="Trazado 824988" d="M31.834,24.024,36.7,19.158l-4.865-4.865-2.541,2.541,2.324,2.324-2.324,2.324Z" transform="translate(21.56 9.599)"/>
      <path id="Trazado_824989" data-name="Trazado 824989" d="M108.842,8.189h-3.595a3.6,3.6,0,0,0-3.595,3.595v.079L72.794,13.175A10.709,10.709,0,0,0,62.11,1H46.621A24.052,24.052,0,0,0,30.782,43.154l6.165,5.394v4.966A30.838,30.838,0,0,0,19.66,65.705h-.687a7.166,7.166,0,0,0-6.19,3.595H6.392A5.4,5.4,0,0,0,1,74.692v32.353a5.4,5.4,0,0,0,5.392,5.392H35.15a5.4,5.4,0,0,0,5.392-5.392v-5.392H65.705v-26.1l3.02,1.208A21.39,21.39,0,0,0,98.058,56.9V36.7l3.595.164v.081a3.6,3.6,0,0,0,3.595,3.595h3.595a3.6,3.6,0,0,0,3.595-3.595V11.784a3.6,3.6,0,0,0-3.595-3.595ZM71.636,16.828l4.853-.221V32.125l-8.005-.365a10.536,10.536,0,0,1-2.779-7.085V21.939a10.832,10.832,0,0,0,5.931-5.112ZM81.664,41.069l2.015,2.015v8.331a8.9,8.9,0,0,1-11.94,8.363L54.921,53.663v-2.84l.275.092a7.98,7.98,0,0,0,10.509-7.57V37.691l2.351-2.351,12.028.546v1.37A5.36,5.36,0,0,0,81.664,41.069Zm2.541-2.541a1.806,1.806,0,0,1-.527-1.271V35.15a1.8,1.8,0,0,1,1.8-1.8h7.189a1.8,1.8,0,0,1,1.8,1.8v5.392H86.22ZM36.947,33.353a3.595,3.595,0,0,1,0-7.189h3.595v-1.8a5.382,5.382,0,0,1,3.99-5.184,5.4,5.4,0,0,0,5,3.386H62.11v2.107a14.181,14.181,0,0,0,2.933,8.595L62.11,36.2v4.339H58.516a3.6,3.6,0,0,1-3.595-3.595H51.326a7.2,7.2,0,0,0,7.189,7.189h3.514a4.382,4.382,0,0,1-5.7,3.37L46.5,44.23l-1.138,3.408,5.962,1.988v4.4l-5.392,4.044-5.392-4.044V33.353ZM45.567,69.3H46.3l4.876,21.124-5.245,6.551-5.243-6.553Zm1.2-3.595H45.1l-1.33-2,2.166-1.3,2.166,1.3Zm2.38-5.559,4.272-3.2,2.252.82-1.751,5.25Zm-16-19.7A20.456,20.456,0,0,1,46.621,4.595H62.11a7.189,7.189,0,1,1,0,14.379H49.529a1.8,1.8,0,0,1,0-3.595h1.8V11.784h-1.8a5.383,5.383,0,0,0-5.1,3.728,9,9,0,0,0-7.3,7.056h-.182a7.189,7.189,0,1,0,0,14.379V43.77Zm5.22,16.439,4.348,3.262-4.774,2.865L36.12,57.545C36.857,57.292,37.609,57.078,38.369,56.885ZM32.8,58.951,35.952,68.4l4.732-2.84,1.53,2.293-1.672,7.233v-.394A5.4,5.4,0,0,0,35.15,69.3H28.758a7.192,7.192,0,0,0-4.707-3.438A27.191,27.191,0,0,1,32.8,58.951ZM29.758,80.084v21.568H11.784V80.084ZM15.379,72.895A3.6,3.6,0,0,1,18.974,69.3h3.595a3.6,3.6,0,0,1,3.595,3.595v1.8a1.8,1.8,0,0,1-1.8,1.8H17.176a1.8,1.8,0,0,1-1.8-1.8Zm21.568,34.15a1.8,1.8,0,0,1-1.8,1.8H6.392a1.8,1.8,0,0,1-1.8-1.8V74.692a1.8,1.8,0,0,1,1.8-1.8h5.392v1.8a5.331,5.331,0,0,0,.331,1.8H8.189v28.758H33.353V76.489H29.427a5.332,5.332,0,0,0,.331-1.8v-1.8H35.15a1.8,1.8,0,0,1,1.8,1.8Zm3.595-11.05,1.652,2.063H40.542Zm36.127-21.3a17.732,17.732,0,0,1-6.611-1.273l-4.353-1.742V65.705H62.11V98.058H49.674l5.4-6.745L49.658,67.853l1.53-2.293L55.92,68.4l3.136-9.411,11.456,4.166a12.489,12.489,0,0,0,16.76-11.74V44.137h7.189V56.9A17.814,17.814,0,0,1,76.669,74.692ZM97.644,33.087a5.4,5.4,0,0,0-4.979-3.329H85.476A5.376,5.376,0,0,0,80.9,32.326l-.82-.038V16.443l21.568-.98V33.27Zm7.6,3.861V11.784h3.595l0,25.163Z" transform="translate(-1 -1)"/>
    </g>
  </g>
</svg>
