<svg xmlns="http://www.w3.org/2000/svg" xmlns:xlink="http://www.w3.org/1999/xlink" width="86" height="86" viewBox="0 0 86 86">
  <defs>
    <clipPath id="clip-path">
      <circle id="Elipse_1286" data-name="Elipse 1286" cx="30" cy="30" r="30" fill="#cbe2ff"/>
    </clipPath>
  </defs>
  <g id="Grupo_1074130" data-name="Grupo 1074130" transform="translate(-333 -4044)">
    <path id="Trazado_883684" data-name="Trazado 883684" d="M43,0A43,43,0,1,1,0,43,43,43,0,0,1,43,0Z" transform="translate(333 4044)" fill="#f0c518"/>
    <g id="Grupo_23075" data-name="Grupo 23075" transform="translate(346 4057)">
      <path id="Trazado_883685" data-name="Trazado 883685" d="M30,0A30,30,0,1,1,0,30,30,30,0,0,1,30,0Z" fill="#dde4f5"/>
      <g id="Enmascarar_grupo_6" data-name="Enmascarar grupo 6" transform="translate(0)" clip-path="url(#clip-path)">
        <g id="cooperation_1_" data-name="cooperation (1)" transform="translate(0.056 0)">
          <g id="Grupo_23074" data-name="Grupo 23074" transform="translate(0)">
            <g id="Grupo_23052" data-name="Grupo 23052" transform="translate(7.707 31.257)">
              <g id="Grupo_23051" data-name="Grupo 23051">
                <g id="Grupo_23050" data-name="Grupo 23050">
                  <g id="Grupo_23049" data-name="Grupo 23049">
                    <g id="Grupo_23048" data-name="Grupo 23048">
                      <g id="Grupo_23047" data-name="Grupo 23047">
                        <g id="Grupo_23044" data-name="Grupo 23044">
                          <path id="Trazado_6145" data-name="Trazado 6145" d="M44.254,46.442,32.327,39.4a1.527,1.527,0,0,1-.538-2.1l.727-1.224-2.876-1.7c-1.9-1.085-2.784-1.286-4.5-.626l-1.865.719a3.982,3.982,0,0,1-3.456-.287L14.83,31.257,7.739,43.189l6.393,3.762a3.967,3.967,0,0,1,1.121.989l2.154,2.785a24.774,24.774,0,0,0,5.221,4.117l4.925,2.909a2.239,2.239,0,0,0,2.521-.167Z" transform="translate(-7.739 -31.257)" fill="#f9eae2"/>
                          <path id="Trazado_6146" data-name="Trazado 6146" d="M46.485,47.792l-5.2-3.072a.138.138,0,0,0-.188.19,2.332,2.332,0,0,1-.071,2.509,2.283,2.283,0,0,1-3.048.64L37.2,47.6a.339.339,0,0,0-.465.12.335.335,0,0,0-.019.3,2.779,2.779,0,0,1-.088,2.092,1.815,1.815,0,0,1-2.665.869l-.338-.2a.641.641,0,0,0-.732.056.274.274,0,0,0-.276.376,2.333,2.333,0,0,1-.256,1.876,2.4,2.4,0,0,1-3.257.761l-.917-.542a.406.406,0,0,0-.527.1.4.4,0,0,0-.073.345,2.343,2.343,0,0,1-1.941,2.9l5.1,3.015a2.324,2.324,0,0,0,3.133-.7,2.273,2.273,0,0,0-.757-3.19l2.522,1.489a2.325,2.325,0,0,0,3.133-.7,2.273,2.273,0,0,0-.757-3.19l1.713,1.011a2.279,2.279,0,1,0,2.328-3.918l2.049,1.21a2.324,2.324,0,0,0,3.133-.7,2.273,2.273,0,0,0-.757-3.19Z" transform="translate(-7.682 -31.257)" fill="#f5dbcc"/>
                        </g>
                        <g id="Grupo_23045" data-name="Grupo 23045" transform="translate(20.337 0.713)">
                          <path id="Trazado_6147" data-name="Trazado 6147" d="M45.247,31.969l-3.835,2.222a3.982,3.982,0,0,1-3.456.287l-2.1-.824a3.391,3.391,0,0,0-2.066-.13l-3.223.813A3.372,3.372,0,0,0,28.011,37.6v4.289a1.1,1.1,0,0,0,1.1,1.1,3.315,3.315,0,0,0,3.322-3.309V39.5l13.8,8.145a3.966,3.966,0,0,1,.871-.7L52.338,43.9Z" transform="translate(-28.011 -31.969)" fill="#ecb784"/>
                        </g>
                        <g id="Grupo_23046" data-name="Grupo 23046" transform="translate(3.763 14.617)">
                          <path id="Trazado_6148" data-name="Trazado 6148" d="M16.922,49.477l-1.293,1.8a2.281,2.281,0,0,1-3.71-2.655l1.293-1.8a2.281,2.281,0,0,1,3.71,2.655Z" transform="translate(-11.49 -45.873)" fill="#ecb784"/>
                          <path id="Trazado_6149" data-name="Trazado 6149" d="M22.048,50.15l-2.721,3.778a2.281,2.281,0,0,1-3.71-2.655L18.338,47.5a2.281,2.281,0,0,1,3.71,2.655Z" transform="translate(-11.478 -45.873)" fill="#ecb784"/>
                          <path id="Trazado_6150" data-name="Trazado 6150" d="M25.746,52.805l-2.721,3.778a2.281,2.281,0,0,1-3.71-2.655l2.721-3.778a2.281,2.281,0,0,1,3.71,2.655Z" transform="translate(-11.466 -45.873)" fill="#ecb784"/>
                          <path id="Trazado_6151" data-name="Trazado 6151" d="M28.233,57.139l-.9,1.256a2.281,2.281,0,0,1-3.71-2.655l.9-1.256a2.281,2.281,0,0,1,3.71,2.655Z" transform="translate(-11.453 -45.873)" fill="#ecb784"/>
                        </g>
                      </g>
                    </g>
                  </g>
                </g>
              </g>
            </g>
            <g id="Grupo_23055" data-name="Grupo 23055" transform="translate(0 21.132)">
              <g id="Grupo_23053" data-name="Grupo 23053" transform="translate(41.319 3.802)">
                <path id="Trazado_6152" data-name="Trazado 6152" d="M48.591,44.363a8.922,8.922,0,0,0,4.37-7.669V25.981L52.3,24.934,42.187,30.941a1.921,1.921,0,0,0-.673,2.634L48.1,44.653Z" transform="translate(-41.244 -24.934)" fill="#407093"/>
                <path id="Trazado_6153" data-name="Trazado 6153" d="M50.193,46.992a1.935,1.935,0,0,0,.794,0C50.741,47,50.473,47,50.193,46.992Z" transform="translate(-41.216 -24.934)" fill="#407093"/>
              </g>
              <path id="Trazado_6154" data-name="Trazado 6154" d="M52.275,24.934V36.694a8.923,8.923,0,0,1-4.37,7.669l1.025,1.724a1.934,1.934,0,0,0,2.65.672l7.1-4.219a2.661,2.661,0,0,0,1.3-2.287v-18.1a1.028,1.028,0,0,0-1.555-.88Z" transform="translate(0.096 -21.132)" fill="#365e7d"/>
              <g id="Grupo_23054" data-name="Grupo 23054" transform="translate(0 0)">
                <path id="Trazado_6155" data-name="Trazado 6155" d="M1.61,21.278l16.262,9.663a1.921,1.921,0,0,1,.673,2.634L11.109,46.087a1.934,1.934,0,0,1-2.65.672l-7.1-4.219a2.66,2.66,0,0,1-1.3-2.287v-18.1a1.028,1.028,0,0,1,1.555-.88Z" transform="translate(-0.056 -21.132)" fill="#407093"/>
              </g>
            </g>
            <g id="Grupo_23073" data-name="Grupo 23073" transform="translate(17.14)">
              <g id="Grupo_23069" data-name="Grupo 23069">
                <g id="Grupo_23068" data-name="Grupo 23068">
                  <g id="Grupo_23067" data-name="Grupo 23067">
                    <g id="Grupo_23066" data-name="Grupo 23066">
                      <g id="Grupo_23065" data-name="Grupo 23065">
                        <g id="Grupo_23064" data-name="Grupo 23064">
                          <g id="Grupo_23063" data-name="Grupo 23063">
                            <g id="Grupo_23062" data-name="Grupo 23062">
                              <g id="Grupo_23061" data-name="Grupo 23061">
                                <g id="Grupo_23060" data-name="Grupo 23060">
                                  <g id="Grupo_23057" data-name="Grupo 23057" transform="translate(7.51)">
                                    <g id="Grupo_23056" data-name="Grupo 23056">
                                      <path id="Trazado_6156" data-name="Trazado 6156" d="M34.5,6.973a.905.905,0,0,1-.907-.9V2.985a1.18,1.18,0,0,0-1.181-1.177h-4.79a1.18,1.18,0,0,0-1.181,1.177V6.07a.907.907,0,0,1-1.813,0V2.985A2.993,2.993,0,0,1,27.622,0h4.79a2.993,2.993,0,0,1,2.994,2.985V6.07a.9.9,0,0,1-.906.9Z" transform="translate(-24.628 0)" fill="#365e7d"/>
                                    </g>
                                  </g>
                                  <g id="Grupo_23059" data-name="Grupo 23059" transform="translate(0 5.321)">
                                    <path id="Trazado_6157" data-name="Trazado 6157" d="M21.683,12.517A4.534,4.534,0,0,1,17.142,7.99V20.147a2.5,2.5,0,0,0,2.506,2.5H33.481a2.5,2.5,0,0,0,2.506-2.5v-7.63Z" transform="translate(-17.142 -5.321)" fill="#ddb7a0"/>
                                    <g id="Grupo_23058" data-name="Grupo 23058" transform="translate(0)">
                                      <path id="Trazado_6158" data-name="Trazado 6158" d="M38.349,12.517H35.242v7.63a2.5,2.5,0,0,1-2.506,2.5h7.648a2.5,2.5,0,0,0,2.506-2.5V7.99A4.534,4.534,0,0,1,38.349,12.517Z" transform="translate(-17.093 -5.321)" fill="#d6a889"/>
                                      <path id="Trazado_6159" data-name="Trazado 6159" d="M33.488,5.321H19.648a2.5,2.5,0,0,0-2.506,2.5V8.888a4.534,4.534,0,0,0,4.542,4.527H35.994v-5.6A2.5,2.5,0,0,0,33.488,5.321Z" transform="translate(-17.142 -5.321)" fill="#cc9675"/>
                                      <path id="Trazado_6160" data-name="Trazado 6160" d="M35.242,7.819v5.6h3.106A4.534,4.534,0,0,0,42.89,8.888V7.819a2.5,2.5,0,0,0-2.506-2.5H32.736a2.5,2.5,0,0,1,2.506,2.5Z" transform="translate(-17.093 -5.321)" fill="#c4845c"/>
                                    </g>
                                  </g>
                                </g>
                              </g>
                            </g>
                          </g>
                        </g>
                      </g>
                    </g>
                  </g>
                </g>
              </g>
              <g id="Grupo_23072" data-name="Grupo 23072" transform="translate(5.251 10.614)">
                <g id="Grupo_23070" data-name="Grupo 23070">
                  <path id="Trazado_6161" data-name="Trazado 6161" d="M23.283,16.217a.905.905,0,0,1-.907-.9v-3.8a.907.907,0,0,1,1.813,0v3.8a.905.905,0,0,1-.907.9Z" transform="translate(-22.376 -10.614)" fill="#f4fbff"/>
                </g>
                <g id="Grupo_23071" data-name="Grupo 23071" transform="translate(13.482)">
                  <path id="Trazado_6162" data-name="Trazado 6162" d="M36.723,16.217a.905.905,0,0,1-.907-.9v-3.8a.907.907,0,0,1,1.813,0v3.8a.905.905,0,0,1-.907.9Z" transform="translate(-35.816 -10.614)" fill="#f4fbff"/>
                </g>
              </g>
            </g>
          </g>
        </g>
      </g>
    </g>
  </g>
</svg>
