<svg xmlns="http://www.w3.org/2000/svg" width="73" height="77" viewBox="0 0 73 77">
  <g id="Grupo_1073828" data-name="Grupo 1073828" transform="translate(-200 -6469)">
    <rect id="Rectángulo_382523" data-name="Rectángulo 382523" width="73" height="77" rx="8" transform="translate(200 6469)" fill="#0b47db"/>
    <g id="Layer_x0020_1" transform="translate(208.101 6484.2)">
      <path id="Trazado_824416" data-name="Trazado 824416" d="M53.7,39.03H35.3v5.5h2.194a3.7,3.7,0,0,1,3.7,3.7V50.6h5.234a.666.666,0,0,1,0,1.331H10.372a.666.666,0,0,1,0-1.331h5.235V48.228a3.7,3.7,0,0,1,3.7-3.7H21.5v-5.5H3.1a3.1,3.1,0,0,1-3.1-3.1V3.171A3.1,3.1,0,0,1,3.1.074H53.7a3.1,3.1,0,0,1,3.1,3.1V35.932a3.1,3.1,0,0,1-3.1,3.1Zm-11-4.438h3.609v3.136H42.705ZM41.374,37.7V34.592H6.812a2.378,2.378,0,0,1-2.375-2.375V6.886A2.378,2.378,0,0,1,6.812,4.511H49.986a2.378,2.378,0,0,1,2.375,2.375V32.217a2.378,2.378,0,0,1-2.375,2.375h-2.34V37.7H53.7a1.768,1.768,0,0,0,1.766-1.766V3.171A1.768,1.768,0,0,0,53.7,1.406H3.1A1.768,1.768,0,0,0,1.332,3.171V35.932A1.768,1.768,0,0,0,3.1,37.7H41.374ZM21.938,32.227H13.845a.666.666,0,0,1,0-1.331h8.094A.666.666,0,0,1,21.938,32.227Zm-10.665,0c-.895,0-2.025.207-2.025-.666s1.13-.666,2.025-.666A.666.666,0,0,1,11.273,32.227Zm10.664-2.212c-.9,0-2.025.206-2.025-.666s1.13-.666,2.025-.666A.666.666,0,0,1,21.938,30.014Zm-3.931,0H9.914a.666.666,0,0,1,0-1.331h8.093A.666.666,0,0,1,18.007,30.014ZM21.938,27.8H13.845a.666.666,0,0,1,0-1.331h8.094A.666.666,0,0,1,21.938,27.8Zm-10.665,0c-.895,0-2.025.206-2.025-.666s1.13-.666,2.025-.666A.666.666,0,0,1,11.273,27.8Zm35.61-10.467c-.9,0-2.025.207-2.025-.666S45.989,16,46.884,16a.666.666,0,0,1,0,1.331Zm-3.931,0H34.859a.666.666,0,0,1,0-1.331h8.093A.666.666,0,0,1,42.952,17.335Zm3.932-2.6H38.791a.666.666,0,0,1,0-1.331h8.093A.666.666,0,0,1,46.884,14.733Zm-10.665,0c-.9,0-2.025.207-2.025-.666s1.13-.666,2.025-.666a.666.666,0,0,1,0,1.331Zm10.665-2.6c-.9,0-2.025.207-2.025-.666s1.13-.666,2.025-.666a.666.666,0,0,1,0,1.331Zm-3.931,0H34.859a.666.666,0,0,1,0-1.331h8.094A.666.666,0,0,1,42.952,12.13Zm3.932-2.6H38.791a.666.666,0,0,1,0-1.331h8.093A.666.666,0,0,1,46.884,9.528Zm-10.665,0c-.9,0-2.025.207-2.025-.666s1.13-.666,2.025-.666a.666.666,0,0,1,0,1.331Zm8.882,19.2H39.408a.666.666,0,0,1,0-1.331H45.1A.666.666,0,0,1,45.1,28.732Zm-7.5,0c-.64,0-1.622.161-1.622-.666s.982-.666,1.622-.666a.666.666,0,0,1,0,1.331Zm7.418-2.318h-8.29a.666.666,0,0,1-.666-.666V22.564a.666.666,0,0,1,.666-.666h8.29a.666.666,0,0,1,.666.666v3.184A.665.665,0,0,1,45.017,26.414Zm-7.624-1.332h6.959V23.229H37.393Zm9.67,6.248H34.681a1.2,1.2,0,0,1-1.2-1.2V26.567H29.065V33.26H49.986a1.045,1.045,0,0,0,1.044-1.043V6.886a1.045,1.045,0,0,0-1.044-1.044H6.812A1.045,1.045,0,0,0,5.769,6.886V32.217A1.044,1.044,0,0,0,6.812,33.26H27.733V20.674H23.314V24.24a1.2,1.2,0,0,1-1.2,1.2H9.735a1.2,1.2,0,0,1-1.2-1.2V14.993a1.2,1.2,0,0,1,1.2-1.2H22.117a1.2,1.2,0,0,1,1.2,1.2v4.349h4.419V14.807a8.941,8.941,0,0,1-1.687.723.667.667,0,0,1-.659-.753l.3-2.27L24.111,10.85a.667.667,0,0,1,.362-1.114l2.251-.414,1.089-2.013a.666.666,0,0,1,1.171,0l1.088,2.013,2.252.414a.667.667,0,0,1,.362,1.114l-1.578,1.658.3,2.27a.668.668,0,0,1-.948.688l-1.4-.67V25.236h4.419v-4.35a1.2,1.2,0,0,1,1.2-1.2H47.063a1.2,1.2,0,0,1,1.2,1.2v9.247a1.2,1.2,0,0,1-1.2,1.2ZM34.815,30H46.928V21.02H34.815ZM20.154,22.839c-.641,0-1.621.161-1.621-.666s.98-.666,1.621-.666a.666.666,0,0,1,0,1.331Zm-2.764,0H11.7a.666.666,0,0,1,0-1.331H17.39A.666.666,0,0,1,17.39,22.839Zm2.681-2.318h-8.29a.666.666,0,0,1-.666-.666V16.671a.666.666,0,0,1,.666-.666h8.29a.666.666,0,0,1,.666.666v3.184A.666.666,0,0,1,20.071,20.521Zm-7.625-1.331h6.959V17.336H12.446ZM9.869,24.106H21.984V15.127H9.869ZM25.923,10.823c1.38,1.45,1.21.926.945,2.911.641-.307.985-.505,1.243-.594a.743.743,0,0,1,.577,0c.258.089.6.287,1.24.592-.264-1.984-.434-1.461.946-2.911-1.968-.362-1.524-.038-2.475-1.8-.952,1.76-.508,1.437-2.476,1.8Zm8.723,35.038H19.306a2.37,2.37,0,0,0-2.368,2.367V50.6H39.859V48.228a2.37,2.37,0,0,0-2.368-2.368H34.647ZM22.831,44.529H33.966v-5.5H22.831v5.5Z" transform="translate(0)" fill="#000002" fill-rule="evenodd"/>
      <path id="Trazado_824417" data-name="Trazado 824417" d="M.374,2.446H7.333V.593H.374Z" transform="translate(12.072 16.743)" fill="#95e29f" fill-rule="evenodd"/>
      <path id="Trazado_824418" data-name="Trazado 824418" d="M7.817,6.907a.666.666,0,0,1,0,1.331H2.125a.666.666,0,0,1,0-1.331ZM10.5,5.92H2.208a.666.666,0,0,1-.666-.666V2.07A.666.666,0,0,1,2.208,1.4H10.5a.666.666,0,0,1,.666.666V5.255A.666.666,0,0,1,10.5,5.92ZM.3,9.505H12.411V.527H.3ZM10.582,8.239c-.641,0-1.621.161-1.621-.666s.98-.666,1.621-.666a.666.666,0,0,1,0,1.331Z" transform="translate(9.572 14.6)" fill="#4bcd5c" fill-rule="evenodd"/>
      <path id="Trazado_824419" data-name="Trazado 824419" d="M1.724,5.053c.641-.307.985-.505,1.243-.594a.743.743,0,0,1,.577,0c.258.089.6.287,1.24.592C4.52,3.068,4.35,3.592,5.73,2.142,3.762,1.78,4.206,2.1,3.255.343,2.3,2.1,2.747,1.78.779,2.142c1.38,1.45,1.21.926.945,2.911Z" transform="translate(25.144 8.68)" fill="#79a8d5" fill-rule="evenodd"/>
      <path id="Trazado_824420" data-name="Trazado 824420" d="M8.082.77H1.124V2.623H8.082Z" transform="translate(36.269 22.459)" fill="#ffdf9b" fill-rule="evenodd"/>
      <path id="Trazado_824421" data-name="Trazado 824421" d="M11.248,1.582a.666.666,0,0,1,.666.666V5.432a.665.665,0,0,1-.666.666H2.957a.666.666,0,0,1-.666-.666V2.248a.666.666,0,0,1,.666-.666Zm-10.2,8.1H13.159V.7H1.046Zm4.593-2.6h5.692a.666.666,0,0,1,0,1.331H5.639A.666.666,0,0,1,5.639,7.084Zm-1.809,0a.666.666,0,0,1,0,1.331c-.64,0-1.622.161-1.622-.666s.982-.666,1.622-.666Z" transform="translate(33.769 20.316)" fill="#ffc143" fill-rule="evenodd"/>
      <path id="Trazado_824422" data-name="Trazado 824422" d="M41.468,14.094a1.2,1.2,0,0,1,1.2,1.2v9.247a1.2,1.2,0,0,1-1.2,1.2H29.085a1.2,1.2,0,0,1-1.2-1.2V20.973H23.469v6.693H44.39a1.045,1.045,0,0,0,1.044-1.043V1.291A1.045,1.045,0,0,0,44.39.248H1.217A1.045,1.045,0,0,0,.173,1.291V26.622a1.044,1.044,0,0,0,1.044,1.043H22.138V15.079H17.719v3.565a1.2,1.2,0,0,1-1.2,1.2H4.14a1.2,1.2,0,0,1-1.2-1.2V9.4a1.2,1.2,0,0,1,1.2-1.2H16.522a1.2,1.2,0,0,1,1.2,1.2v4.349h4.419V9.212a8.941,8.941,0,0,1-1.687.723.667.667,0,0,1-.659-.753l.3-2.27L18.515,5.255a.667.667,0,0,1,.362-1.114l2.251-.414,1.089-2.013a.666.666,0,0,1,1.171,0l1.088,2.013,2.252.414a.667.667,0,0,1,.362,1.114L25.513,6.913l.3,2.27a.668.668,0,0,1-.948.688l-1.4-.67V19.641h4.419v-4.35a1.2,1.2,0,0,1,1.2-1.2H41.467ZM8.249,25.3h8.094a.666.666,0,0,1,0,1.331H8.249a.666.666,0,0,1,0-1.331Zm8.094-4.424a.666.666,0,0,1,0,1.331H8.249a.666.666,0,0,1,0-1.331Zm-3.931,2.212a.666.666,0,0,1,0,1.331H4.319a.666.666,0,0,1,0-1.331ZM5.678,25.3a.666.666,0,0,1,0,1.331c-.895,0-2.025.207-2.025-.666S4.783,25.3,5.678,25.3Zm10.664-2.212a.666.666,0,0,1,0,1.331c-.9,0-2.025.206-2.025-.666S15.447,23.088,16.343,23.088ZM5.678,20.876a.666.666,0,0,1,0,1.331c-.895,0-2.025.206-2.025-.666s1.13-.666,2.025-.666Zm35.61-10.467a.666.666,0,0,1,0,1.331c-.9,0-2.025.207-2.025-.666s1.13-.666,2.025-.666Zm-3.931,0a.666.666,0,0,1,0,1.331H29.264a.666.666,0,0,1,0-1.331Zm3.932-1.271H33.2a.666.666,0,0,1,0-1.331h8.093A.666.666,0,0,1,41.289,9.138Zm-10.665,0c-.9,0-2.025.207-2.025-.666s1.13-.666,2.025-.666a.666.666,0,0,1,0,1.331Zm10.665-2.6c-.9,0-2.025.207-2.025-.666s1.13-.666,2.025-.666a.666.666,0,0,1,0,1.331Zm-3.931,0H29.264a.666.666,0,0,1,0-1.331h8.094A.666.666,0,0,1,37.357,6.536Zm3.932-2.6H33.2a.666.666,0,0,1,0-1.331h8.093A.666.666,0,0,1,41.289,3.933Zm-10.665,0c-.9,0-2.025.207-2.025-.666s1.13-.666,2.025-.666a.666.666,0,0,1,0,1.331Z" transform="translate(5.595 5.595)" fill="#e6faff" fill-rule="evenodd"/>
      <path id="Trazado_824423" data-name="Trazado 824423" d="M5.521,3.22H48.694A2.378,2.378,0,0,1,51.07,5.595V30.926A2.378,2.378,0,0,1,48.694,33.3h-2.34v3.106h6.055a1.768,1.768,0,0,0,1.766-1.766V1.88A1.768,1.768,0,0,0,52.409.114H1.806A1.768,1.768,0,0,0,.04,1.88V34.641a1.768,1.768,0,0,0,1.766,1.766H40.083V33.3H5.521a2.378,2.378,0,0,1-2.375-2.375V5.595A2.378,2.378,0,0,1,5.521,3.22Z" transform="translate(1.291 1.291)" fill="#555e6b" fill-rule="evenodd"/>
      <path id="Trazado_824424" data-name="Trazado 824424" d="M4.892,1.111H1.283V4.248H4.892Z" transform="translate(41.422 33.48)" fill="#79a8d5" fill-rule="evenodd"/>
      <path id="Trazado_824425" data-name="Trazado 824425" d="M11.821,6.744v-5.5H.686v5.5Z" transform="translate(22.145 37.785)" fill="#363c44" fill-rule="evenodd"/>
      <path id="Trazado_824426" data-name="Trazado 824426" d="M18.2,1.45H2.877A2.37,2.37,0,0,0,.509,3.818V6.185H23.43V3.818A2.37,2.37,0,0,0,21.063,1.45H18.2Z" transform="translate(16.429 44.411)" fill="#555e6b" fill-rule="evenodd"/>
    </g>
  </g>
</svg>
