<svg xmlns="http://www.w3.org/2000/svg" width="964" height="301" viewBox="0 0 964 301">
  <g id="Grupo_1102278" data-name="Grupo 1102278" transform="translate(-318 -3233.389)">
    <path id="Trazado_883831" data-name="Trazado 883831" d="M3,0H228a3,3,0,0,1,3,3V49a3,3,0,0,1-3,3H3a3,3,0,0,1-3-3V3A3,3,0,0,1,3,0Z" transform="translate(805 3233.389)" fill="#f0c518"/>
    <path id="Trazado_883832" data-name="Trazado 883832" d="M-29.861-3.34a1.5,1.5,0,0,0-.514-1.187,5.166,5.166,0,0,0-1.806-.844,10.264,10.264,0,0,1-3.362-1.573,2.977,2.977,0,0,1-1.147-2.47A3.106,3.106,0,0,1-35.4-11.984a5.236,5.236,0,0,1,3.3-1,5.2,5.2,0,0,1,3.423,1.072A3.354,3.354,0,0,1-27.426-9.1l-.018.053h-2.487a1.864,1.864,0,0,0-.58-1.472,2.369,2.369,0,0,0-1.626-.514,2.148,2.148,0,0,0-1.468.457A1.488,1.488,0,0,0-34.124-9.4a1.277,1.277,0,0,0,.563,1.068,7.525,7.525,0,0,0,1.942.883A8.357,8.357,0,0,1-28.4-5.893a3.2,3.2,0,0,1,1.107,2.536A3.052,3.052,0,0,1-28.578-.765,5.571,5.571,0,0,1-31.97.185,6.062,6.062,0,0,1-35.517-.844a3.392,3.392,0,0,1-1.437-3.067l.018-.053h2.487a2.013,2.013,0,0,0,.668,1.67,2.812,2.812,0,0,0,1.811.536A2.471,2.471,0,0,0-30.4-2.188,1.4,1.4,0,0,0-29.861-3.34ZM-22.9,0h-2.566V-9.51H-22.9Zm0-11.786h-2.566v-1.925H-22.9Zm7.251,9.149a.885.885,0,0,0-.409-.725,4.151,4.151,0,0,0-1.516-.532A6.047,6.047,0,0,1-20.109-4.9a2.208,2.208,0,0,1-.866-1.837,2.62,2.62,0,0,1,1.037-2.083,4.182,4.182,0,0,1,2.76-.861,4.513,4.513,0,0,1,2.887.861A2.517,2.517,0,0,1-13.25-6.68l-.018.053h-2.479a1.245,1.245,0,0,0-.369-.932,1.461,1.461,0,0,0-1.063-.36,1.453,1.453,0,0,0-.976.308.957.957,0,0,0-.36.756.854.854,0,0,0,.374.716,4.158,4.158,0,0,0,1.516.5A6.17,6.17,0,0,1-14.019-4.61a2.265,2.265,0,0,1,.857,1.876,2.51,2.51,0,0,1-1.1,2.1,4.742,4.742,0,0,1-2.9.817,4.408,4.408,0,0,1-3-.962,2.691,2.691,0,0,1-1.05-2.193l.018-.053h2.347a1.334,1.334,0,0,0,.5,1.107,2.068,2.068,0,0,0,1.239.343,1.762,1.762,0,0,0,1.085-.286A.927.927,0,0,0-15.649-2.637Zm7.216-9.2V-9.51h1.608v1.8H-8.433v4.843a1.105,1.105,0,0,0,.233.791.818.818,0,0,0,.611.237,2.45,2.45,0,0,0,.352-.022A2.961,2.961,0,0,0-6.9-1.934l.211,1.854a5.2,5.2,0,0,1-.751.2,4.48,4.48,0,0,1-.8.066,2.735,2.735,0,0,1-2.043-.729,3.2,3.2,0,0,1-.716-2.312V-7.708h-1.389v-1.8h1.389v-2.329ZM-1.121.185A4.279,4.279,0,0,1-4.443-1.121a4.784,4.784,0,0,1-1.2-3.362v-.352a5.207,5.207,0,0,1,1.16-3.5,3.944,3.944,0,0,1,3.19-1.354,3.692,3.692,0,0,1,2.94,1.173,4.637,4.637,0,0,1,1.024,3.16v1.327H-2.993l-.026.053a2.569,2.569,0,0,0,.593,1.582,1.987,1.987,0,0,0,1.578.606A5.279,5.279,0,0,0,.615-1.96,5.971,5.971,0,0,0,1.859-2.5L2.553-.914a4.764,4.764,0,0,1-1.547.782A6.86,6.86,0,0,1-1.121.185Zm-.167-7.893a1.425,1.425,0,0,0-1.191.532,2.667,2.667,0,0,0-.505,1.411l.018.044H.163v-.193A2.221,2.221,0,0,0-.18-7.229,1.268,1.268,0,0,0-1.288-7.708Zm7.84-1.8.105,1.257A3.2,3.2,0,0,1,7.8-9.312a3.3,3.3,0,0,1,1.6-.374,2.905,2.905,0,0,1,1.564.4,2.494,2.494,0,0,1,.984,1.222,3.3,3.3,0,0,1,1.143-1.2,3.1,3.1,0,0,1,1.652-.431,2.71,2.71,0,0,1,2.219,1,4.762,4.762,0,0,1,.813,3.045V0H15.209V-5.651a2.665,2.665,0,0,0-.352-1.591,1.248,1.248,0,0,0-1.046-.448,1.792,1.792,0,0,0-.945.242,1.761,1.761,0,0,0-.637.672q0,.167.009.286t.009.242V0H9.69V-5.651a2.673,2.673,0,0,0-.352-1.578A1.242,1.242,0,0,0,8.284-7.69a1.991,1.991,0,0,0-.91.2,1.745,1.745,0,0,0-.646.558V0H4.17V-9.51ZM25.352,0a5.4,5.4,0,0,1-.242-.686,4.769,4.769,0,0,1-.145-.738A3.518,3.518,0,0,1,23.919-.272a2.621,2.621,0,0,1-1.547.457,3.211,3.211,0,0,1-2.3-.769,2.755,2.755,0,0,1-.809-2.1,2.508,2.508,0,0,1,1.077-2.167,5.377,5.377,0,0,1,3.142-.769h1.441v-.756a1.48,1.48,0,0,0-.36-1.063,1.414,1.414,0,0,0-1.072-.378,1.394,1.394,0,0,0-.962.3,1.059,1.059,0,0,0-.338.831h-2.47L19.7-6.732a2.412,2.412,0,0,1,1.05-2.079,4.562,4.562,0,0,1,2.9-.875,4.257,4.257,0,0,1,2.773.861,3,3,0,0,1,1.059,2.47v3.929a7.431,7.431,0,0,0,.1,1.257A6.307,6.307,0,0,0,27.91,0ZM23.005-1.714a2.187,2.187,0,0,0,1.2-.334,1.8,1.8,0,0,0,.721-.773V-4.166H23.48a1.708,1.708,0,0,0-1.235.4,1.329,1.329,0,0,0-.417.993A.992.992,0,0,0,22.14-2,1.234,1.234,0,0,0,23.005-1.714Zm11.549-.923a.885.885,0,0,0-.409-.725,4.151,4.151,0,0,0-1.516-.532A6.047,6.047,0,0,1,30.094-4.9a2.208,2.208,0,0,1-.866-1.837,2.62,2.62,0,0,1,1.037-2.083,4.182,4.182,0,0,1,2.76-.861,4.513,4.513,0,0,1,2.887.861A2.517,2.517,0,0,1,36.954-6.68l-.018.053H34.458a1.245,1.245,0,0,0-.369-.932,1.461,1.461,0,0,0-1.063-.36,1.453,1.453,0,0,0-.976.308.957.957,0,0,0-.36.756.854.854,0,0,0,.374.716,4.158,4.158,0,0,0,1.516.5A6.17,6.17,0,0,1,36.185-4.61a2.265,2.265,0,0,1,.857,1.876,2.51,2.51,0,0,1-1.1,2.1,4.742,4.742,0,0,1-2.9.817,4.408,4.408,0,0,1-3-.962,2.691,2.691,0,0,1-1.05-2.193l.018-.053h2.347a1.334,1.334,0,0,0,.5,1.107,2.068,2.068,0,0,0,1.239.343,1.762,1.762,0,0,0,1.085-.286A.927.927,0,0,0,34.554-2.637Z" transform="translate(920 3266.389)" fill="#12263f"/>
    <path id="Trazado_883833" data-name="Trazado 883833" d="M3,0H186a3,3,0,0,1,3,3V49a3,3,0,0,1-3,3H3a3,3,0,0,1-3-3V3A3,3,0,0,1,3,0Z" transform="translate(561 3350.389)" fill="#3a1d71"/>
    <path id="Trazado_883834" data-name="Trazado 883834" d="M-31.539-5.312h-4.482v3.453h5.329V0h-7.753V-12.086h7.736v1.868h-5.312V-7.18h4.482Zm7.222,2.822a.836.836,0,0,0-.386-.685,3.921,3.921,0,0,0-1.432-.5,5.711,5.711,0,0,1-2.395-.955,2.085,2.085,0,0,1-.818-1.735,2.475,2.475,0,0,1,.979-1.967,3.949,3.949,0,0,1,2.606-.813,4.262,4.262,0,0,1,2.727.813,2.377,2.377,0,0,1,.984,2.025l-.017.05h-2.341a1.175,1.175,0,0,0-.349-.88,1.38,1.38,0,0,0-1-.34,1.372,1.372,0,0,0-.921.291.9.9,0,0,0-.34.714.806.806,0,0,0,.353.677,3.927,3.927,0,0,0,1.432.469,5.827,5.827,0,0,1,2.461.975,2.139,2.139,0,0,1,.809,1.772A2.371,2.371,0,0,1-23.006-.6a4.479,4.479,0,0,1-2.739.772A4.163,4.163,0,0,1-28.58-.735a2.541,2.541,0,0,1-.992-2.071l.017-.05h2.216a1.26,1.26,0,0,0,.473,1.046,1.953,1.953,0,0,0,1.17.324,1.665,1.665,0,0,0,1.025-.27A.875.875,0,0,0-24.317-2.49Zm6.815-8.691v2.2h1.519v1.7H-17.5v4.574a1.044,1.044,0,0,0,.22.747.772.772,0,0,0,.577.224,2.314,2.314,0,0,0,.332-.021,2.8,2.8,0,0,0,.324-.071l.2,1.751a4.907,4.907,0,0,1-.71.187,4.231,4.231,0,0,1-.751.062,2.583,2.583,0,0,1-1.93-.689A3.021,3.021,0,0,1-19.918-2.7V-7.28h-1.312v-1.7h1.312v-2.2ZM-9.766-6.9l-.888-.025a1.614,1.614,0,0,0-.888.224,1.42,1.42,0,0,0-.531.631V0h-2.416V-8.981h2.25l.108,1.328a2.833,2.833,0,0,1,.818-1.1,1.823,1.823,0,0,1,1.158-.394,1.812,1.812,0,0,1,.336.029q.154.029.311.071ZM-3-1.328A3.049,3.049,0,0,1-4.055-.216a2.8,2.8,0,0,1-1.486.39,2.731,2.731,0,0,1-2.22-.963,4.619,4.619,0,0,1-.8-2.988v-5.2h2.416V-3.76a2.9,2.9,0,0,0,.32,1.615,1.148,1.148,0,0,0,.992.436,2.415,2.415,0,0,0,1-.187,1.679,1.679,0,0,0,.681-.552V-8.981H-.735V0H-2.743Zm7.844-.357a1.349,1.349,0,0,0,1-.378,1.372,1.372,0,0,0,.374-1.009H8.429l.017.05A2.811,2.811,0,0,1,7.433-.743a3.787,3.787,0,0,1-2.59.917A3.827,3.827,0,0,1,1.764-1.1,4.843,4.843,0,0,1,.677-4.358v-.249A4.875,4.875,0,0,1,1.76-7.865,3.793,3.793,0,0,1,4.827-9.147,3.7,3.7,0,0,1,7.475-8.2a3.162,3.162,0,0,1,.971,2.49l-.017.05H6.221a1.792,1.792,0,0,0-.369-1.158A1.241,1.241,0,0,0,4.827-7.28a1.383,1.383,0,0,0-1.332.751A4.12,4.12,0,0,0,3.1-4.607v.249a4.1,4.1,0,0,0,.394,1.934A1.4,1.4,0,0,0,4.844-1.685Zm7.919-9.5v2.2h1.519v1.7H12.762v4.574a1.044,1.044,0,0,0,.22.747.772.772,0,0,0,.577.224,2.314,2.314,0,0,0,.332-.021,2.8,2.8,0,0,0,.324-.071l.2,1.751a4.907,4.907,0,0,1-.71.187,4.231,4.231,0,0,1-.751.062,2.583,2.583,0,0,1-1.93-.689A3.021,3.021,0,0,1,10.347-2.7V-7.28H9.035v-1.7h1.312v-2.2Zm8.517,9.853A3.049,3.049,0,0,1,20.225-.216a2.8,2.8,0,0,1-1.486.39,2.731,2.731,0,0,1-2.22-.963,4.619,4.619,0,0,1-.8-2.988v-5.2h2.416V-3.76a2.9,2.9,0,0,0,.32,1.615,1.148,1.148,0,0,0,.992.436,2.415,2.415,0,0,0,1-.187,1.679,1.679,0,0,0,.681-.552V-8.981h2.424V0H21.536ZM30.094-6.9l-.888-.025a1.614,1.614,0,0,0-.888.224,1.42,1.42,0,0,0-.531.631V0H25.371V-8.981h2.25l.108,1.328a2.833,2.833,0,0,1,.818-1.1A1.823,1.823,0,0,1,29.7-9.147a1.812,1.812,0,0,1,.336.029q.154.029.311.071ZM36.652,0a5.1,5.1,0,0,1-.228-.647,4.5,4.5,0,0,1-.137-.7A3.322,3.322,0,0,1,35.3-.257a2.476,2.476,0,0,1-1.461.432,3.033,3.033,0,0,1-2.175-.726,2.6,2.6,0,0,1-.764-1.98,2.368,2.368,0,0,1,1.017-2.046A5.078,5.078,0,0,1,34.884-5.3h1.361v-.714a1.4,1.4,0,0,0-.34-1,1.336,1.336,0,0,0-1.013-.357,1.317,1.317,0,0,0-.909.286,1,1,0,0,0-.32.784H31.331l-.017-.05a2.278,2.278,0,0,1,.992-1.963,4.309,4.309,0,0,1,2.743-.826,4.021,4.021,0,0,1,2.619.813,2.833,2.833,0,0,1,1,2.333v3.71a7.018,7.018,0,0,0,.1,1.187,5.956,5.956,0,0,0,.3,1.1ZM34.436-1.619a2.065,2.065,0,0,0,1.129-.315,1.7,1.7,0,0,0,.681-.73v-1.27H34.884a1.614,1.614,0,0,0-1.166.382,1.255,1.255,0,0,0-.394.938.936.936,0,0,0,.295.726A1.166,1.166,0,0,0,34.436-1.619Z" transform="translate(656 3383.389)" fill="#fff"/>
    <path id="Trazado_883835" data-name="Trazado 883835" d="M3,0H164a3,3,0,0,1,3,3V49a3,3,0,0,1-3,3H3a3,3,0,0,1-3-3V3A3,3,0,0,1,3,0Z" transform="translate(1102 3350.389)" fill="#3a1d71"/>
    <path id="Trazado_883836" data-name="Trazado 883836" d="M-45.571-5.022h-4.64V0h-2.424V-12.086h7.911v1.868h-5.487V-6.89h4.64Zm7.529,3.694A3.049,3.049,0,0,1-39.1-.216a2.8,2.8,0,0,1-1.486.39A2.731,2.731,0,0,1-42.8-.789a4.619,4.619,0,0,1-.8-2.988v-5.2h2.416V-3.76a2.9,2.9,0,0,0,.32,1.615,1.148,1.148,0,0,0,.992.436,2.415,2.415,0,0,0,1-.187,1.679,1.679,0,0,0,.681-.552V-8.981h2.424V0h-2.009Zm6.309-7.653.108,1.287a3.285,3.285,0,0,1,1.1-1.071,2.866,2.866,0,0,1,1.469-.382,2.671,2.671,0,0,1,2.125.876A4.152,4.152,0,0,1-26.164-5.5V0H-28.6V-5.5a2.15,2.15,0,0,0-.336-1.365,1.239,1.239,0,0,0-1.009-.4,2.116,2.116,0,0,0-.95.2,1.855,1.855,0,0,0-.677.56V0h-2.424V-8.981Zm11.131,7.3a1.349,1.349,0,0,0,1-.378,1.372,1.372,0,0,0,.374-1.009h2.208l.017.05A2.811,2.811,0,0,1-18.013-.743,3.787,3.787,0,0,1-20.6.174,3.827,3.827,0,0,1-23.682-1.1,4.843,4.843,0,0,1-24.77-4.358v-.249a4.875,4.875,0,0,1,1.083-3.258,3.793,3.793,0,0,1,3.067-1.282,3.7,3.7,0,0,1,2.648.946A3.162,3.162,0,0,1-17-5.711l-.017.05h-2.208a1.792,1.792,0,0,0-.369-1.158,1.241,1.241,0,0,0-1.025-.461,1.383,1.383,0,0,0-1.332.751,4.12,4.12,0,0,0-.394,1.922v.249a4.1,4.1,0,0,0,.394,1.934A1.4,1.4,0,0,0-20.6-1.685ZM-13.041,0h-2.424V-8.981h2.424Zm0-11.131h-2.424v-1.818h2.424Zm1.619,6.558A4.82,4.82,0,0,1-10.3-7.865,3.906,3.906,0,0,1-7.2-9.147,3.948,3.948,0,0,1-4.076-7.869a4.794,4.794,0,0,1,1.129,3.3V-4.4A4.8,4.8,0,0,1-4.072-1.1,3.931,3.931,0,0,1-7.18.174,3.941,3.941,0,0,1-10.3-1.1a4.8,4.8,0,0,1-1.125-3.3Zm2.416.174a3.907,3.907,0,0,0,.432,1.971,1.49,1.49,0,0,0,1.395.743,1.475,1.475,0,0,0,1.374-.747A3.881,3.881,0,0,0-5.371-4.4v-.174a3.842,3.842,0,0,0-.44-1.951A1.488,1.488,0,0,0-7.2-7.28a1.47,1.47,0,0,0-1.374.76,3.876,3.876,0,0,0-.436,1.947ZM.764-8.981.872-7.695a3.285,3.285,0,0,1,1.1-1.071,2.866,2.866,0,0,1,1.469-.382,2.671,2.671,0,0,1,2.125.876A4.152,4.152,0,0,1,6.333-5.5V0H3.9V-5.5a2.15,2.15,0,0,0-.336-1.365,1.239,1.239,0,0,0-1.009-.4,2.116,2.116,0,0,0-.95.2A1.855,1.855,0,0,0,.93-6.5V0H-1.494V-8.981ZM13.439,0a5.1,5.1,0,0,1-.228-.647,4.5,4.5,0,0,1-.137-.7,3.322,3.322,0,0,1-.988,1.087,2.476,2.476,0,0,1-1.461.432A3.033,3.033,0,0,1,8.45-.552a2.6,2.6,0,0,1-.764-1.98A2.368,2.368,0,0,1,8.7-4.578,5.078,5.078,0,0,1,11.671-5.3h1.361v-.714a1.4,1.4,0,0,0-.34-1,1.336,1.336,0,0,0-1.013-.357,1.317,1.317,0,0,0-.909.286,1,1,0,0,0-.32.784H8.118L8.1-6.358a2.278,2.278,0,0,1,.992-1.963,4.309,4.309,0,0,1,2.743-.826,4.021,4.021,0,0,1,2.619.813,2.833,2.833,0,0,1,1,2.333v3.71a7.018,7.018,0,0,0,.1,1.187,5.956,5.956,0,0,0,.3,1.1ZM11.223-1.619a2.065,2.065,0,0,0,1.129-.315,1.7,1.7,0,0,0,.681-.73v-1.27H11.671a1.614,1.614,0,0,0-1.166.382,1.255,1.255,0,0,0-.394.938.936.936,0,0,0,.295.726A1.166,1.166,0,0,0,11.223-1.619ZM19.822,0H17.4V-12.949h2.424Zm4.541,0H21.939V-8.981h2.424Zm0-11.131H21.939v-1.818h2.424Zm1.619,6.715A5.836,5.836,0,0,1,26.9-7.844a2.978,2.978,0,0,1,2.586-1.3,2.515,2.515,0,0,1,1.212.291,2.916,2.916,0,0,1,.946.83v-4.922h2.432V0H32.008L31.8-1.1a3,3,0,0,1-1,.95,2.655,2.655,0,0,1-1.328.328A3.037,3.037,0,0,1,26.9-1.038a5.175,5.175,0,0,1-.917-3.2Zm2.416.174a3.658,3.658,0,0,0,.4,1.855,1.387,1.387,0,0,0,1.295.677A1.886,1.886,0,0,0,31-1.922a1.689,1.689,0,0,0,.639-.618V-6.367a1.865,1.865,0,0,0-.635-.66,1.689,1.689,0,0,0-.9-.237,1.368,1.368,0,0,0-1.3.789A4.456,4.456,0,0,0,28.4-4.416ZM41.247,0a5.1,5.1,0,0,1-.228-.647,4.5,4.5,0,0,1-.137-.7,3.322,3.322,0,0,1-.988,1.087,2.476,2.476,0,0,1-1.461.432,3.033,3.033,0,0,1-2.175-.726,2.6,2.6,0,0,1-.764-1.98,2.368,2.368,0,0,1,1.017-2.046A5.078,5.078,0,0,1,39.479-5.3H40.84v-.714a1.4,1.4,0,0,0-.34-1,1.336,1.336,0,0,0-1.013-.357,1.317,1.317,0,0,0-.909.286,1,1,0,0,0-.32.784H35.926l-.017-.05A2.278,2.278,0,0,1,36.9-8.322a4.309,4.309,0,0,1,2.743-.826,4.021,4.021,0,0,1,2.619.813,2.833,2.833,0,0,1,1,2.333v3.71a7.018,7.018,0,0,0,.1,1.187,5.956,5.956,0,0,0,.3,1.1ZM39.03-1.619a2.065,2.065,0,0,0,1.129-.315,1.7,1.7,0,0,0,.681-.73v-1.27H39.479a1.614,1.614,0,0,0-1.166.382,1.255,1.255,0,0,0-.394.938.936.936,0,0,0,.295.726A1.166,1.166,0,0,0,39.03-1.619Zm5.678-2.8a5.836,5.836,0,0,1,.917-3.428,2.978,2.978,0,0,1,2.586-1.3,2.515,2.515,0,0,1,1.212.291,2.916,2.916,0,0,1,.946.83v-4.922H52.8V0H50.734l-.208-1.1a3,3,0,0,1-1,.95,2.655,2.655,0,0,1-1.328.328,3.037,3.037,0,0,1-2.569-1.212,5.175,5.175,0,0,1-.917-3.2Zm2.416.174a3.658,3.658,0,0,0,.4,1.855,1.387,1.387,0,0,0,1.295.677,1.886,1.886,0,0,0,.913-.212,1.689,1.689,0,0,0,.639-.618V-6.367a1.865,1.865,0,0,0-.635-.66,1.689,1.689,0,0,0-.9-.237,1.368,1.368,0,0,0-1.3.789,4.456,4.456,0,0,0-.411,2.059Z" transform="translate(1186 3383.389)" fill="#fff"/>
    <path id="Trazado_883837" data-name="Trazado 883837" d="M3,0H190a3,3,0,0,1,3,3V49a3,3,0,0,1-3,3H3a3,3,0,0,1-3-3V3A3,3,0,0,1,3,0Z" transform="translate(318 3482.389)" fill="#aec4fa"/>
    <path id="Trazado_883838" data-name="Trazado 883838" d="M-60.527-3.641l.016.047a3.417,3.417,0,0,1-1.125,2.68A4.3,4.3,0,0,1-64.691.164,4.012,4.012,0,0,1-67.836-1.2a5.028,5.028,0,0,1-1.215-3.469V-6.7a5.043,5.043,0,0,1,1.215-3.473,4.006,4.006,0,0,1,3.145-1.371,4.416,4.416,0,0,1,3.07,1.027,3.4,3.4,0,0,1,1.109,2.723l-.016.047H-62a2.539,2.539,0,0,0-.7-1.891,2.7,2.7,0,0,0-1.984-.7,2.424,2.424,0,0,0-2.055,1.039,4.227,4.227,0,0,0-.766,2.578v2.039a4.254,4.254,0,0,0,.766,2.594,2.424,2.424,0,0,0,2.055,1.039,2.71,2.71,0,0,0,1.984-.691,2.557,2.557,0,0,0,.7-1.91Zm5.3,3.8A3.576,3.576,0,0,1-58.062-1a4.48,4.48,0,0,1-1.02-3.062v-.344a4.386,4.386,0,0,1,1.051-3.012,3.3,3.3,0,0,1,2.566-1.191,3.067,3.067,0,0,1,2.543,1.055,4.345,4.345,0,0,1,.848,2.8v.813H-57.48L-57.5-3.9a3.494,3.494,0,0,0,.563,2.066,1.965,1.965,0,0,0,1.719.793,3.872,3.872,0,0,0,1.371-.223,3.061,3.061,0,0,0,1.012-.613l.6,1a3.7,3.7,0,0,1-1.2.738A4.762,4.762,0,0,1-55.223.164ZM-55.465-7.4a1.673,1.673,0,0,0-1.332.621,2.938,2.938,0,0,0-.645,1.59l.016.039h3.813v-.125A2.462,2.462,0,0,0-54.066-6.8,1.638,1.638,0,0,0-55.465-7.4Zm9.117.3-.789-.047a1.762,1.762,0,0,0-1.027.289,1.855,1.855,0,0,0-.645.813V0h-1.539V-8.453h1.375l.148,1.234a2.934,2.934,0,0,1,.887-1.023,2.073,2.073,0,0,1,1.215-.367,1.9,1.9,0,0,1,.328.027,2.175,2.175,0,0,1,.258.059Zm5.6,0-.789-.047a1.762,1.762,0,0,0-1.027.289,1.855,1.855,0,0,0-.645.813V0h-1.539V-8.453h1.375l.148,1.234a2.934,2.934,0,0,1,.887-1.023,2.073,2.073,0,0,1,1.215-.367,1.9,1.9,0,0,1,.328.027,2.175,2.175,0,0,1,.258.059ZM-33.949,0q-.078-.383-.121-.676a4.96,4.96,0,0,1-.051-.59,3.589,3.589,0,0,1-1.121,1.02,2.867,2.867,0,0,1-1.488.41,2.763,2.763,0,0,1-2.012-.676,2.486,2.486,0,0,1-.691-1.863,2.183,2.183,0,0,1,.98-1.895,4.579,4.579,0,0,1,2.66-.684h1.672v-.836a1.551,1.551,0,0,0-.453-1.176A1.779,1.779,0,0,0-35.855-7.4a1.859,1.859,0,0,0-1.211.375,1.125,1.125,0,0,0-.461.9l-1.461.016L-39-6.156a2.023,2.023,0,0,1,.863-1.687,3.578,3.578,0,0,1,2.371-.766,3.49,3.49,0,0,1,2.313.73,2.588,2.588,0,0,1,.875,2.105V-1.7a7.923,7.923,0,0,0,.047.875A4.5,4.5,0,0,0-32.363,0ZM-36.5-1.125A2.739,2.739,0,0,0-35-1.555a2.042,2.042,0,0,0,.875-.984V-3.914h-1.727a2.24,2.24,0,0,0-1.488.469,1.4,1.4,0,0,0-.559,1.1,1.159,1.159,0,0,0,.352.891A1.472,1.472,0,0,0-36.5-1.125Zm5.8-2.945a5.641,5.641,0,0,1,.871-3.289,2.807,2.807,0,0,1,2.441-1.25,3.027,3.027,0,0,1,1.316.273,2.7,2.7,0,0,1,.98.8v-4.648h1.539V0h-1.18l-.234-1.07a2.743,2.743,0,0,1-1.023.922A3.058,3.058,0,0,1-27.4.164,2.9,2.9,0,0,1-29.824-.957,4.659,4.659,0,0,1-30.7-3.906Zm1.539.164a3.588,3.588,0,0,0,.523,2.051,1.828,1.828,0,0,0,1.625.77A2.039,2.039,0,0,0-25.855-1.4a2.334,2.334,0,0,0,.766-.875V-6.219a2.37,2.37,0,0,0-.77-.832A2.033,2.033,0,0,0-27-7.359a1.759,1.759,0,0,0-1.637.914A4.718,4.718,0,0,0-29.16-4.07Zm7.547-.4A4.654,4.654,0,0,1-20.6-7.395,3.406,3.406,0,0,1-17.84-8.609,3.439,3.439,0,0,1-15.062-7.4,4.639,4.639,0,0,1-14.043-4.3v.172a4.631,4.631,0,0,1-1.016,3.094,3.429,3.429,0,0,1-2.766,1.2,3.436,3.436,0,0,1-2.77-1.207,4.623,4.623,0,0,1-1.02-3.09Zm1.539.172a4.009,4.009,0,0,0,.566,2.219,1.875,1.875,0,0,0,1.684.875,1.87,1.87,0,0,0,1.672-.875,3.988,3.988,0,0,0,.57-2.219V-4.3a3.976,3.976,0,0,0-.574-2.211A1.882,1.882,0,0,0-17.84-7.4a1.856,1.856,0,0,0-1.668.883A4.018,4.018,0,0,0-20.074-4.3ZM-7.246-2.273A1.026,1.026,0,0,0-7.633-3.1,3.732,3.732,0,0,0-9.1-3.664a6.146,6.146,0,0,1-2.293-.9,1.814,1.814,0,0,1-.8-1.547,2.229,2.229,0,0,1,.879-1.766,3.433,3.433,0,0,1,2.277-.734,3.4,3.4,0,0,1,2.328.781,2.239,2.239,0,0,1,.852,1.82l-.016.047H-7.34a1.331,1.331,0,0,0-.48-.992A1.717,1.717,0,0,0-9.035-7.4a1.751,1.751,0,0,0-1.215.367,1.146,1.146,0,0,0-.4.875.927.927,0,0,0,.348.773,3.848,3.848,0,0,0,1.434.5,6.058,6.058,0,0,1,2.359.93,1.872,1.872,0,0,1,.8,1.57,2.226,2.226,0,0,1-.91,1.836A3.754,3.754,0,0,1-9,.164a3.715,3.715,0,0,1-2.547-.82,2.341,2.341,0,0,1-.883-1.914l.016-.047h1.469a1.424,1.424,0,0,0,.609,1.2A2.358,2.358,0,0,0-9-1.039a2.1,2.1,0,0,0,1.285-.348A1.063,1.063,0,0,0-7.246-2.273ZM2.77-3.133,3.043-2.07H3.09L5.168-8.453H6.879L3.324,1.3a4.383,4.383,0,0,1-.918,1.484,2.113,2.113,0,0,1-1.613.633,3.363,3.363,0,0,1-.477-.043q-.289-.043-.445-.082L.027,2.078A2.062,2.062,0,0,1,.3,2.094q.324.023.41.023a.95.95,0,0,0,.8-.437A4.543,4.543,0,0,0,2.043.711L2.41-.172-.73-8.453H.988ZM17.4,0q-.078-.383-.121-.676a4.96,4.96,0,0,1-.051-.59,3.589,3.589,0,0,1-1.121,1.02,2.867,2.867,0,0,1-1.488.41,2.763,2.763,0,0,1-2.012-.676,2.486,2.486,0,0,1-.691-1.863A2.183,2.183,0,0,1,12.9-4.27a4.579,4.579,0,0,1,2.66-.684H17.23v-.836a1.551,1.551,0,0,0-.453-1.176A1.779,1.779,0,0,0,15.5-7.4a1.859,1.859,0,0,0-1.211.375,1.125,1.125,0,0,0-.461.9l-1.461.016-.016-.047a2.023,2.023,0,0,1,.863-1.687,3.578,3.578,0,0,1,2.371-.766,3.49,3.49,0,0,1,2.313.73,2.588,2.588,0,0,1,.875,2.105V-1.7a7.923,7.923,0,0,0,.047.875A4.5,4.5,0,0,0,18.988,0ZM14.848-1.125a2.739,2.739,0,0,0,1.508-.43,2.042,2.042,0,0,0,.875-.984V-3.914H15.5a2.24,2.24,0,0,0-1.488.469,1.4,1.4,0,0,0-.559,1.1,1.159,1.159,0,0,0,.352.891A1.472,1.472,0,0,0,14.848-1.125ZM28.223-3.906a4.645,4.645,0,0,1-.879,2.949A2.9,2.9,0,0,1,24.926.164a3.064,3.064,0,0,1-1.465-.332,2.719,2.719,0,0,1-1.027-.98L22.184,0H21V-12.187h1.539v4.734a2.671,2.671,0,0,1,.988-.859,3.03,3.03,0,0,1,1.379-.3,2.809,2.809,0,0,1,2.438,1.25,5.622,5.622,0,0,1,.875,3.289ZM26.684-4.07a4.666,4.666,0,0,0-.535-2.371,1.762,1.762,0,0,0-1.629-.918,2.014,2.014,0,0,0-1.2.348,2.452,2.452,0,0,0-.777.934v3.664a2.517,2.517,0,0,0,.777.977,2,2,0,0,0,1.215.352,1.829,1.829,0,0,0,1.617-.773,3.552,3.552,0,0,0,.531-2.047ZM31.762,0H30.223V-8.453h1.539Zm0-10.617H30.223v-1.57h1.539ZM37.629.164A3.576,3.576,0,0,1,34.789-1a4.48,4.48,0,0,1-1.02-3.062v-.344A4.386,4.386,0,0,1,34.82-7.418a3.3,3.3,0,0,1,2.566-1.191A3.067,3.067,0,0,1,39.93-7.555a4.345,4.345,0,0,1,.848,2.8v.813H35.371l-.023.039a3.494,3.494,0,0,0,.563,2.066,1.965,1.965,0,0,0,1.719.793A3.872,3.872,0,0,0,39-1.262a3.061,3.061,0,0,0,1.012-.613l.6,1a3.7,3.7,0,0,1-1.2.738A4.762,4.762,0,0,1,37.629.164ZM37.387-7.4a1.673,1.673,0,0,0-1.332.621,2.938,2.938,0,0,0-.645,1.59l.016.039h3.813v-.125A2.462,2.462,0,0,0,38.785-6.8,1.638,1.638,0,0,0,37.387-7.4Zm9.117.3-.789-.047a1.762,1.762,0,0,0-1.027.289,1.855,1.855,0,0,0-.645.813V0H42.5V-8.453h1.375l.148,1.234a2.934,2.934,0,0,1,.887-1.023,2.073,2.073,0,0,1,1.215-.367,1.9,1.9,0,0,1,.328.027,2.175,2.175,0,0,1,.258.059Zm3.875-3.4v2.039h1.6v1.141h-1.6V-2.18a1.149,1.149,0,0,0,.246.836.89.89,0,0,0,.652.242,1.429,1.429,0,0,0,.3-.035,2.2,2.2,0,0,0,.273-.074l.211,1.055a1.36,1.36,0,0,1-.508.23,2.562,2.562,0,0,1-.664.09A1.993,1.993,0,0,1,49.395-.4,2.46,2.46,0,0,1,48.84-2.18V-7.312H47.5V-8.453H48.84v-2.039ZM53.27-4.3a4.654,4.654,0,0,1,1.016-3.09,3.406,3.406,0,0,1,2.758-1.215A3.439,3.439,0,0,1,59.82-7.4,4.639,4.639,0,0,1,60.84-4.3v.172a4.631,4.631,0,0,1-1.016,3.094,3.429,3.429,0,0,1-2.766,1.2,3.436,3.436,0,0,1-2.77-1.207,4.623,4.623,0,0,1-1.02-3.09Zm1.539.172a4.009,4.009,0,0,0,.566,2.219,1.875,1.875,0,0,0,1.684.875,1.87,1.87,0,0,0,1.672-.875,3.988,3.988,0,0,0,.57-2.219V-4.3a3.976,3.976,0,0,0-.574-2.211A1.882,1.882,0,0,0,57.043-7.4a1.856,1.856,0,0,0-1.668.883A4.018,4.018,0,0,0,54.809-4.3ZM67.637-2.273A1.026,1.026,0,0,0,67.25-3.1a3.732,3.732,0,0,0-1.465-.562,6.146,6.146,0,0,1-2.293-.9,1.814,1.814,0,0,1-.8-1.547,2.229,2.229,0,0,1,.879-1.766,3.433,3.433,0,0,1,2.277-.734,3.4,3.4,0,0,1,2.328.781,2.239,2.239,0,0,1,.852,1.82l-.016.047H67.543a1.331,1.331,0,0,0-.48-.992A1.717,1.717,0,0,0,65.848-7.4a1.751,1.751,0,0,0-1.215.367,1.146,1.146,0,0,0-.4.875.927.927,0,0,0,.348.773,3.848,3.848,0,0,0,1.434.5,6.058,6.058,0,0,1,2.359.93,1.872,1.872,0,0,1,.8,1.57,2.226,2.226,0,0,1-.91,1.836,3.754,3.754,0,0,1-2.379.711,3.715,3.715,0,0,1-2.547-.82,2.341,2.341,0,0,1-.883-1.914l.016-.047h1.469a1.424,1.424,0,0,0,.609,1.2,2.358,2.358,0,0,0,1.336.379,2.1,2.1,0,0,0,1.285-.348A1.063,1.063,0,0,0,67.637-2.273Z" transform="translate(414 3515.389)" fill="#12263f"/>
    <path id="Trazado_883839" data-name="Trazado 883839" d="M3,0H190a3,3,0,0,1,3,3V49a3,3,0,0,1-3,3H3a3,3,0,0,1-3-3V3A3,3,0,0,1,3,0Z" transform="translate(561 3482.389)" fill="#aec4fa"/>
    <path id="Trazado_883840" data-name="Trazado 883840" d="M-67.832-4.93V0h-1.539V-11.367h3.891a4.32,4.32,0,0,1,2.852.828,2.968,2.968,0,0,1,.984,2.406A2.576,2.576,0,0,1-62.1-6.609a3.1,3.1,0,0,1-1.332,1.031,2.331,2.331,0,0,1,1.348.988,3.236,3.236,0,0,1,.41,1.691v1.07a3.564,3.564,0,0,0,.117.953,1.429,1.429,0,0,0,.406.688V0h-1.586a1.273,1.273,0,0,1-.391-.781,6.453,6.453,0,0,1-.086-1.062V-2.883a2.056,2.056,0,0,0-.539-1.484A1.908,1.908,0,0,0-65.2-4.93Zm0-1.211h2.2a2.858,2.858,0,0,0,1.879-.5,1.89,1.89,0,0,0,.574-1.512,1.948,1.948,0,0,0-.559-1.488,2.461,2.461,0,0,0-1.738-.527h-2.352ZM-55.9.164A3.576,3.576,0,0,1-58.742-1a4.48,4.48,0,0,1-1.02-3.062v-.344a4.386,4.386,0,0,1,1.051-3.012,3.3,3.3,0,0,1,2.566-1.191A3.067,3.067,0,0,1-53.6-7.555a4.345,4.345,0,0,1,.848,2.8v.813H-58.16l-.023.039a3.494,3.494,0,0,0,.563,2.066,1.965,1.965,0,0,0,1.719.793,3.872,3.872,0,0,0,1.371-.223,3.061,3.061,0,0,0,1.012-.613l.6,1a3.7,3.7,0,0,1-1.2.738A4.762,4.762,0,0,1-55.9.164ZM-56.145-7.4a1.673,1.673,0,0,0-1.332.621,2.938,2.938,0,0,0-.645,1.59l.016.039h3.813v-.125A2.462,2.462,0,0,0-54.746-6.8,1.638,1.638,0,0,0-56.145-7.4ZM-45.832,0q-.078-.383-.121-.676A4.96,4.96,0,0,1-46-1.266a3.589,3.589,0,0,1-1.121,1.02,2.867,2.867,0,0,1-1.488.41,2.763,2.763,0,0,1-2.012-.676,2.486,2.486,0,0,1-.691-1.863,2.183,2.183,0,0,1,.98-1.895,4.579,4.579,0,0,1,2.66-.684H-46v-.836a1.551,1.551,0,0,0-.453-1.176A1.779,1.779,0,0,0-47.738-7.4a1.859,1.859,0,0,0-1.211.375,1.125,1.125,0,0,0-.461.9l-1.461.016-.016-.047a2.023,2.023,0,0,1,.863-1.687,3.578,3.578,0,0,1,2.371-.766,3.49,3.49,0,0,1,2.313.73,2.588,2.588,0,0,1,.875,2.105V-1.7a7.923,7.923,0,0,0,.047.875A4.5,4.5,0,0,0-44.246,0Zm-2.555-1.125a2.739,2.739,0,0,0,1.508-.43A2.042,2.042,0,0,0-46-2.539V-3.914H-47.73a2.24,2.24,0,0,0-1.488.469,1.4,1.4,0,0,0-.559,1.1,1.159,1.159,0,0,0,.352.891A1.472,1.472,0,0,0-48.387-1.125ZM-40.566,0h-1.539V-12.187h1.539ZM-34.7.164A3.576,3.576,0,0,1-37.539-1a4.48,4.48,0,0,1-1.02-3.062v-.344a4.386,4.386,0,0,1,1.051-3.012,3.3,3.3,0,0,1,2.566-1.191A3.067,3.067,0,0,1-32.4-7.555a4.345,4.345,0,0,1,.848,2.8v.813h-5.406l-.023.039a3.494,3.494,0,0,0,.563,2.066,1.965,1.965,0,0,0,1.719.793,3.872,3.872,0,0,0,1.371-.223,3.061,3.061,0,0,0,1.012-.613l.6,1a3.7,3.7,0,0,1-1.2.738A4.762,4.762,0,0,1-34.7.164ZM-34.941-7.4a1.673,1.673,0,0,0-1.332.621,2.938,2.938,0,0,0-.645,1.59l.016.039h3.813v-.125A2.462,2.462,0,0,0-33.543-6.8,1.638,1.638,0,0,0-34.941-7.4ZM-24.91-2.273A1.026,1.026,0,0,0-25.3-3.1a3.732,3.732,0,0,0-1.465-.562,6.146,6.146,0,0,1-2.293-.9,1.814,1.814,0,0,1-.8-1.547,2.229,2.229,0,0,1,.879-1.766A3.433,3.433,0,0,1-26.7-8.609a3.4,3.4,0,0,1,2.328.781,2.239,2.239,0,0,1,.852,1.82l-.016.047H-25a1.331,1.331,0,0,0-.48-.992A1.717,1.717,0,0,0-26.7-7.4a1.751,1.751,0,0,0-1.215.367,1.146,1.146,0,0,0-.4.875.927.927,0,0,0,.348.773,3.848,3.848,0,0,0,1.434.5,6.058,6.058,0,0,1,2.359.93,1.872,1.872,0,0,1,.8,1.57,2.226,2.226,0,0,1-.91,1.836A3.754,3.754,0,0,1-26.66.164a3.715,3.715,0,0,1-2.547-.82A2.341,2.341,0,0,1-30.09-2.57l.016-.047h1.469A1.424,1.424,0,0,0-28-1.418a2.358,2.358,0,0,0,1.336.379,2.1,2.1,0,0,0,1.285-.348A1.063,1.063,0,0,0-24.91-2.273Zm10.016-.859.273,1.063h.047L-12.5-8.453h1.711L-14.34,1.3a4.383,4.383,0,0,1-.918,1.484,2.113,2.113,0,0,1-1.613.633,3.363,3.363,0,0,1-.477-.043q-.289-.043-.445-.082l.156-1.211a2.062,2.062,0,0,1,.277.016q.324.023.41.023a.95.95,0,0,0,.8-.437,4.543,4.543,0,0,0,.523-.969l.367-.883-3.141-8.281h1.719ZM-.262,0Q-.34-.383-.383-.676a4.96,4.96,0,0,1-.051-.59A3.589,3.589,0,0,1-1.555-.246a2.867,2.867,0,0,1-1.488.41A2.763,2.763,0,0,1-5.055-.512a2.486,2.486,0,0,1-.691-1.863,2.183,2.183,0,0,1,.98-1.895,4.579,4.579,0,0,1,2.66-.684H-.434v-.836A1.551,1.551,0,0,0-.887-6.965,1.779,1.779,0,0,0-2.168-7.4a1.859,1.859,0,0,0-1.211.375,1.125,1.125,0,0,0-.461.9L-5.3-6.109l-.016-.047a2.023,2.023,0,0,1,.863-1.687,3.578,3.578,0,0,1,2.371-.766,3.49,3.49,0,0,1,2.313.73,2.588,2.588,0,0,1,.875,2.105V-1.7a7.923,7.923,0,0,0,.047.875A4.5,4.5,0,0,0,1.324,0ZM-2.816-1.125a2.739,2.739,0,0,0,1.508-.43,2.042,2.042,0,0,0,.875-.984V-3.914H-2.16a2.24,2.24,0,0,0-1.488.469,1.4,1.4,0,0,0-.559,1.1,1.159,1.159,0,0,0,.352.891A1.472,1.472,0,0,0-2.816-1.125ZM10.559-3.906A4.645,4.645,0,0,1,9.68-.957,2.9,2.9,0,0,1,7.262.164,3.064,3.064,0,0,1,5.8-.168a2.719,2.719,0,0,1-1.027-.98L4.52,0H3.34V-12.187H4.879v4.734a2.671,2.671,0,0,1,.988-.859,3.03,3.03,0,0,1,1.379-.3,2.809,2.809,0,0,1,2.438,1.25,5.622,5.622,0,0,1,.875,3.289ZM9.02-4.07a4.666,4.666,0,0,0-.535-2.371,1.762,1.762,0,0,0-1.629-.918,2.014,2.014,0,0,0-1.2.348,2.452,2.452,0,0,0-.777.934v3.664a2.517,2.517,0,0,0,.777.977,2,2,0,0,0,1.215.352,1.829,1.829,0,0,0,1.617-.773A3.552,3.552,0,0,0,9.02-3.906Zm8.328,1.8a1.026,1.026,0,0,0-.387-.828A3.732,3.732,0,0,0,15.5-3.664a6.146,6.146,0,0,1-2.293-.9,1.814,1.814,0,0,1-.8-1.547,2.229,2.229,0,0,1,.879-1.766,3.433,3.433,0,0,1,2.277-.734,3.4,3.4,0,0,1,2.328.781,2.239,2.239,0,0,1,.852,1.82l-.016.047H17.254a1.331,1.331,0,0,0-.48-.992A1.717,1.717,0,0,0,15.559-7.4a1.751,1.751,0,0,0-1.215.367,1.146,1.146,0,0,0-.4.875.927.927,0,0,0,.348.773,3.848,3.848,0,0,0,1.434.5,6.058,6.058,0,0,1,2.359.93,1.872,1.872,0,0,1,.8,1.57,2.226,2.226,0,0,1-.91,1.836A3.754,3.754,0,0,1,15.6.164a3.715,3.715,0,0,1-2.547-.82,2.341,2.341,0,0,1-.883-1.914l.016-.047h1.469a1.424,1.424,0,0,0,.609,1.2,2.358,2.358,0,0,0,1.336.379,2.1,2.1,0,0,0,1.285-.348A1.063,1.063,0,0,0,17.348-2.273Zm5.594-8.219v2.039h1.6v1.141h-1.6V-2.18a1.149,1.149,0,0,0,.246.836.89.89,0,0,0,.652.242,1.429,1.429,0,0,0,.3-.035,2.2,2.2,0,0,0,.273-.074l.211,1.055a1.36,1.36,0,0,1-.508.23,2.562,2.562,0,0,1-.664.09A1.993,1.993,0,0,1,21.957-.4,2.46,2.46,0,0,1,21.4-2.18V-7.312H20.059V-8.453H21.4v-2.039Zm7.25,3.4L29.4-7.141a1.762,1.762,0,0,0-1.027.289,1.854,1.854,0,0,0-.645.813V0H26.191V-8.453h1.375l.148,1.234A2.934,2.934,0,0,1,28.6-8.242a2.073,2.073,0,0,1,1.215-.367,1.9,1.9,0,0,1,.328.027,2.175,2.175,0,0,1,.258.059ZM36.988,0q-.078-.383-.121-.676a4.96,4.96,0,0,1-.051-.59A3.589,3.589,0,0,1,35.7-.246a2.867,2.867,0,0,1-1.488.41A2.763,2.763,0,0,1,32.2-.512,2.486,2.486,0,0,1,31.5-2.375a2.183,2.183,0,0,1,.98-1.895,4.579,4.579,0,0,1,2.66-.684h1.672v-.836a1.551,1.551,0,0,0-.453-1.176A1.779,1.779,0,0,0,35.082-7.4a1.859,1.859,0,0,0-1.211.375,1.125,1.125,0,0,0-.461.9l-1.461.016-.016-.047A2.023,2.023,0,0,1,32.8-7.844a3.578,3.578,0,0,1,2.371-.766,3.49,3.49,0,0,1,2.313.73,2.588,2.588,0,0,1,.875,2.105V-1.7a7.923,7.923,0,0,0,.047.875A4.5,4.5,0,0,0,38.574,0ZM34.434-1.125a2.739,2.739,0,0,0,1.508-.43,2.042,2.042,0,0,0,.875-.984V-3.914H35.09a2.24,2.24,0,0,0-1.488.469,1.4,1.4,0,0,0-.559,1.1,1.159,1.159,0,0,0,.352.891A1.472,1.472,0,0,0,34.434-1.125Zm9.516.086a1.81,1.81,0,0,0,1.242-.473,1.494,1.494,0,0,0,.531-1.16h1.391l.023.047A2.428,2.428,0,0,1,46.2-.684a3.312,3.312,0,0,1-2.25.848A3.319,3.319,0,0,1,41.2-1.047a4.674,4.674,0,0,1-.969-3.016v-.328a4.654,4.654,0,0,1,.973-3,3.317,3.317,0,0,1,2.746-1.215,3.189,3.189,0,0,1,2.316.875,2.775,2.775,0,0,1,.871,2.148l-.016.047h-1.4a1.865,1.865,0,0,0-.5-1.316,1.658,1.658,0,0,0-1.27-.543A1.777,1.777,0,0,0,42.3-6.52a4.114,4.114,0,0,0-.52,2.129v.328a4.192,4.192,0,0,0,.512,2.148A1.776,1.776,0,0,0,43.949-1.039Zm7.156-9.453v2.039h1.6v1.141h-1.6V-2.18a1.149,1.149,0,0,0,.246.836A.89.89,0,0,0,52-1.1a1.429,1.429,0,0,0,.3-.035,2.2,2.2,0,0,0,.273-.074l.211,1.055a1.36,1.36,0,0,1-.508.23,2.562,2.562,0,0,1-.664.09A1.993,1.993,0,0,1,50.121-.4a2.46,2.46,0,0,1-.555-1.777V-7.312H48.223V-8.453h1.344v-2.039ZM54-4.3a4.654,4.654,0,0,1,1.016-3.09A3.406,3.406,0,0,1,57.77-8.609,3.439,3.439,0,0,1,60.547-7.4,4.639,4.639,0,0,1,61.566-4.3v.172a4.631,4.631,0,0,1-1.016,3.094,3.429,3.429,0,0,1-2.766,1.2,3.436,3.436,0,0,1-2.77-1.207A4.623,4.623,0,0,1,54-4.133Zm1.539.172A4.009,4.009,0,0,0,56.1-1.914a1.875,1.875,0,0,0,1.684.875,1.87,1.87,0,0,0,1.672-.875,3.988,3.988,0,0,0,.57-2.219V-4.3a3.976,3.976,0,0,0-.574-2.211A1.882,1.882,0,0,0,57.77-7.4a1.856,1.856,0,0,0-1.668.883A4.018,4.018,0,0,0,55.535-4.3ZM68.363-2.273a1.026,1.026,0,0,0-.387-.828,3.732,3.732,0,0,0-1.465-.562,6.146,6.146,0,0,1-2.293-.9,1.814,1.814,0,0,1-.8-1.547A2.229,2.229,0,0,1,64.3-7.875a3.433,3.433,0,0,1,2.277-.734,3.4,3.4,0,0,1,2.328.781,2.239,2.239,0,0,1,.852,1.82l-.016.047H68.27a1.331,1.331,0,0,0-.48-.992A1.717,1.717,0,0,0,66.574-7.4a1.751,1.751,0,0,0-1.215.367,1.146,1.146,0,0,0-.4.875.927.927,0,0,0,.348.773,3.848,3.848,0,0,0,1.434.5,6.058,6.058,0,0,1,2.359.93,1.872,1.872,0,0,1,.8,1.57,2.226,2.226,0,0,1-.91,1.836,3.754,3.754,0,0,1-2.379.711,3.715,3.715,0,0,1-2.547-.82,2.341,2.341,0,0,1-.883-1.914l.016-.047h1.469a1.424,1.424,0,0,0,.609,1.2,2.358,2.358,0,0,0,1.336.379A2.1,2.1,0,0,0,67.9-1.387,1.063,1.063,0,0,0,68.363-2.273Z" transform="translate(657 3515.389)" fill="#12263f"/>
    <path id="Trazado_883841" data-name="Trazado 883841" d="M3,0H190a3,3,0,0,1,3,3V49a3,3,0,0,1-3,3H3a3,3,0,0,1-3-3V3A3,3,0,0,1,3,0Z" transform="translate(1089 3482.389)" fill="#aec4fa"/>
    <path id="Trazado_883842" data-name="Trazado 883842" d="M-35.25-2.867a1.711,1.711,0,0,0-.555-1.3,4.62,4.62,0,0,0-1.953-.891A6.5,6.5,0,0,1-40.465-6.32a2.655,2.655,0,0,1-.973-2.1,2.8,2.8,0,0,1,1.047-2.227,4.05,4.05,0,0,1,2.719-.891,3.971,3.971,0,0,1,2.863,1.02,3.088,3.088,0,0,1,1.035,2.379l-.023.047h-1.469a2.1,2.1,0,0,0-.676-1.6,2.431,2.431,0,0,0-1.73-.633,2.37,2.37,0,0,0-1.652.523A1.754,1.754,0,0,0-39.9-8.445a1.518,1.518,0,0,0,.629,1.238,5.8,5.8,0,0,0,2.043.871,5.8,5.8,0,0,1,2.617,1.313,2.857,2.857,0,0,1,.9,2.141A2.657,2.657,0,0,1-34.793-.672a4.491,4.491,0,0,1-2.824.836,4.8,4.8,0,0,1-2.91-.922A2.81,2.81,0,0,1-41.75-3.227l.016-.047h1.469a1.912,1.912,0,0,0,.813,1.652,3.076,3.076,0,0,0,1.836.582,2.761,2.761,0,0,0,1.73-.492A1.6,1.6,0,0,0-35.25-2.867Zm8.875,1.617A2.863,2.863,0,0,1-27.4-.2a2.8,2.8,0,0,1-1.445.367A2.716,2.716,0,0,1-31-.719a4.1,4.1,0,0,1-.773-2.75V-8.453h1.539v5a3.147,3.147,0,0,0,.4,1.859,1.481,1.481,0,0,0,1.242.508,2.531,2.531,0,0,0,1.355-.332,2.077,2.077,0,0,0,.809-.941V-8.453h1.539V0h-1.383ZM-15.43-3.906a4.645,4.645,0,0,1-.879,2.949A2.9,2.9,0,0,1-18.727.164a3.064,3.064,0,0,1-1.465-.332,2.719,2.719,0,0,1-1.027-.98L-21.469,0h-1.18V-12.187h1.539v4.734a2.671,2.671,0,0,1,.988-.859,3.03,3.03,0,0,1,1.379-.3A2.809,2.809,0,0,1-16.3-7.359,5.622,5.622,0,0,1-15.43-4.07Zm-1.539-.164A4.666,4.666,0,0,0-17.5-6.441a1.762,1.762,0,0,0-1.629-.918,2.014,2.014,0,0,0-1.2.348,2.452,2.452,0,0,0-.777.934v3.664a2.517,2.517,0,0,0,.777.977,2,2,0,0,0,1.215.352A1.829,1.829,0,0,0-17.5-1.859a3.552,3.552,0,0,0,.531-2.047Zm8.328,1.8A1.026,1.026,0,0,0-9.027-3.1a3.732,3.732,0,0,0-1.465-.562,6.146,6.146,0,0,1-2.293-.9,1.814,1.814,0,0,1-.8-1.547,2.229,2.229,0,0,1,.879-1.766,3.433,3.433,0,0,1,2.277-.734A3.4,3.4,0,0,1-8.1-7.828a2.239,2.239,0,0,1,.852,1.82l-.016.047H-8.734a1.331,1.331,0,0,0-.48-.992A1.717,1.717,0,0,0-10.43-7.4a1.751,1.751,0,0,0-1.215.367,1.146,1.146,0,0,0-.4.875.927.927,0,0,0,.348.773,3.848,3.848,0,0,0,1.434.5,6.058,6.058,0,0,1,2.359.93,1.872,1.872,0,0,1,.8,1.57,2.226,2.226,0,0,1-.91,1.836,3.754,3.754,0,0,1-2.379.711,3.715,3.715,0,0,1-2.547-.82A2.341,2.341,0,0,1-13.82-2.57l.016-.047h1.469a1.424,1.424,0,0,0,.609,1.2,2.358,2.358,0,0,0,1.336.379,2.1,2.1,0,0,0,1.285-.348A1.063,1.063,0,0,0-8.641-2.273ZM-3.523,0H-5.062V-8.453h1.539Zm0-10.617H-5.062v-1.57h1.539ZM3.758-2.273A1.026,1.026,0,0,0,3.371-3.1a3.732,3.732,0,0,0-1.465-.562,6.146,6.146,0,0,1-2.293-.9,1.814,1.814,0,0,1-.8-1.547A2.229,2.229,0,0,1-.309-7.875a3.433,3.433,0,0,1,2.277-.734A3.4,3.4,0,0,1,4.3-7.828a2.239,2.239,0,0,1,.852,1.82l-.016.047H3.664a1.331,1.331,0,0,0-.48-.992A1.717,1.717,0,0,0,1.969-7.4a1.751,1.751,0,0,0-1.215.367,1.146,1.146,0,0,0-.4.875A.927.927,0,0,0,.7-5.383a3.848,3.848,0,0,0,1.434.5,6.058,6.058,0,0,1,2.359.93,1.872,1.872,0,0,1,.8,1.57,2.226,2.226,0,0,1-.91,1.836A3.754,3.754,0,0,1,2.008.164,3.715,3.715,0,0,1-.539-.656,2.341,2.341,0,0,1-1.422-2.57l.016-.047H.063a1.424,1.424,0,0,0,.609,1.2,2.358,2.358,0,0,0,1.336.379,2.1,2.1,0,0,0,1.285-.348A1.063,1.063,0,0,0,3.758-2.273Zm5.594-8.219v2.039h1.6v1.141h-1.6V-2.18a1.149,1.149,0,0,0,.246.836.89.89,0,0,0,.652.242,1.429,1.429,0,0,0,.3-.035,2.2,2.2,0,0,0,.273-.074l.211,1.055a1.36,1.36,0,0,1-.508.23,2.562,2.562,0,0,1-.664.09A1.993,1.993,0,0,1,8.367-.4,2.46,2.46,0,0,1,7.813-2.18V-7.312H6.469V-8.453H7.813v-2.039ZM16.1.164A3.576,3.576,0,0,1,13.262-1a4.48,4.48,0,0,1-1.02-3.062v-.344a4.386,4.386,0,0,1,1.051-3.012,3.3,3.3,0,0,1,2.566-1.191A3.067,3.067,0,0,1,18.4-7.555a4.345,4.345,0,0,1,.848,2.8v.813H13.844L13.82-3.9a3.494,3.494,0,0,0,.563,2.066,1.965,1.965,0,0,0,1.719.793,3.872,3.872,0,0,0,1.371-.223,3.061,3.061,0,0,0,1.012-.613l.6,1a3.7,3.7,0,0,1-1.2.738A4.762,4.762,0,0,1,16.1.164ZM15.859-7.4a1.673,1.673,0,0,0-1.332.621,2.938,2.938,0,0,0-.645,1.59l.016.039h3.813v-.125A2.462,2.462,0,0,0,17.258-6.8,1.638,1.638,0,0,0,15.859-7.4Zm6.492-1.055.109,1.109a2.871,2.871,0,0,1,1.051-.934,3.158,3.158,0,0,1,1.48-.332,2.615,2.615,0,0,1,1.449.391,2.363,2.363,0,0,1,.91,1.172A3.162,3.162,0,0,1,28.41-8.191a2.769,2.769,0,0,1,1.527-.418,2.531,2.531,0,0,1,2.039.887,4.051,4.051,0,0,1,.75,2.668V0H31.188V-5.07a2.81,2.81,0,0,0-.43-1.77,1.567,1.567,0,0,0-1.281-.52,1.631,1.631,0,0,0-1.277.547,2.381,2.381,0,0,0-.574,1.383V0H26.078V-5.07a2.772,2.772,0,0,0-.441-1.738,1.532,1.532,0,0,0-1.27-.551,2.115,2.115,0,0,0-1.156.289,1.867,1.867,0,0,0-.7.813V0H20.977V-8.453ZM40.156,0q-.078-.383-.121-.676a4.96,4.96,0,0,1-.051-.59,3.589,3.589,0,0,1-1.121,1.02,2.867,2.867,0,0,1-1.488.41,2.763,2.763,0,0,1-2.012-.676,2.486,2.486,0,0,1-.691-1.863,2.183,2.183,0,0,1,.98-1.895,4.579,4.579,0,0,1,2.66-.684h1.672v-.836a1.551,1.551,0,0,0-.453-1.176A1.779,1.779,0,0,0,38.25-7.4a1.859,1.859,0,0,0-1.211.375,1.125,1.125,0,0,0-.461.9l-1.461.016L35.1-6.156a2.023,2.023,0,0,1,.863-1.687,3.578,3.578,0,0,1,2.371-.766,3.49,3.49,0,0,1,2.313.73,2.588,2.588,0,0,1,.875,2.105V-1.7a7.923,7.923,0,0,0,.047.875A4.5,4.5,0,0,0,41.742,0ZM37.6-1.125a2.739,2.739,0,0,0,1.508-.43,2.042,2.042,0,0,0,.875-.984V-3.914H38.258a2.24,2.24,0,0,0-1.488.469,1.4,1.4,0,0,0-.559,1.1,1.159,1.159,0,0,0,.352.891A1.472,1.472,0,0,0,37.6-1.125Z" transform="translate(1186 3515.389)" fill="#12263f"/>
    <path id="Trazado_883843" data-name="Trazado 883843" d="M-22.539,0h-1.9V-8.453h1.9Zm0-10.523h-1.9v-1.664h1.9Zm3.844,2.07.109,1.219a3.023,3.023,0,0,1,1.043-1.012,2.783,2.783,0,0,1,1.418-.363,2.64,2.64,0,0,1,2.059.813,3.692,3.692,0,0,1,.738,2.539V0h-1.9V-5.242a2.042,2.042,0,0,0-.383-1.4,1.5,1.5,0,0,0-1.156-.414,2.267,2.267,0,0,0-1.055.23,1.847,1.847,0,0,0-.711.637V0h-1.9V-8.453Zm10.789,7.1a1.577,1.577,0,0,0,1.1-.406,1.33,1.33,0,0,0,.449-1.031h1.719l.016.047A2.549,2.549,0,0,1-5.566-.7a3.413,3.413,0,0,1-2.34.859,3.444,3.444,0,0,1-2.82-1.207,4.633,4.633,0,0,1-.992-3.043v-.273A4.637,4.637,0,0,1-10.727-7.4,3.43,3.43,0,0,1-7.914-8.609a3.316,3.316,0,0,1,2.4.887,2.894,2.894,0,0,1,.891,2.254l-.016.047H-6.359a1.715,1.715,0,0,0-.43-1.18,1.432,1.432,0,0,0-1.125-.484A1.549,1.549,0,0,0-9.375-6.3,3.885,3.885,0,0,0-9.82-4.359v.273a3.921,3.921,0,0,0,.441,1.957A1.558,1.558,0,0,0-7.906-1.352ZM-1.008,0h-1.9V-12.187h1.9Zm7.4-1.25a2.836,2.836,0,0,1-1,1.047A2.707,2.707,0,0,1,3.969.164,2.647,2.647,0,0,1,1.844-.73a4.206,4.206,0,0,1-.766-2.777V-8.453H2.969v4.961a2.825,2.825,0,0,0,.352,1.66,1.3,1.3,0,0,0,1.094.449,2.442,2.442,0,0,0,1.152-.246,1.787,1.787,0,0,0,.73-.715V-8.453H8.2V0H6.563Zm6.594-2.141.188.844h.047L15.07-8.453h2.078l-3.5,9.734A4.34,4.34,0,0,1,12.7,2.789a2.3,2.3,0,0,1-1.727.625,2.95,2.95,0,0,1-.5-.047q-.27-.047-.52-.109l.211-1.469.289.023q.188.016.281.016a1.042,1.042,0,0,0,.824-.352,2.988,2.988,0,0,0,.5-.812L12.375-.1,9.3-8.453h2.07ZM21.773.164A3.681,3.681,0,0,1,18.879-1a4.374,4.374,0,0,1-1.043-3.027v-.312A4.522,4.522,0,0,1,18.879-7.41a3.37,3.37,0,0,1,2.691-1.2,3.163,3.163,0,0,1,2.578,1.051,4.249,4.249,0,0,1,.875,2.809v1.023H19.8l-.016.039A2.77,2.77,0,0,0,20.328-2a1.866,1.866,0,0,0,1.555.648,4.277,4.277,0,0,0,1.34-.187,3.825,3.825,0,0,0,1.051-.539l.617,1.242a4.023,4.023,0,0,1-1.281.711A5.37,5.37,0,0,1,21.773.164Zm-.2-7.25a1.467,1.467,0,0,0-1.187.535,2.652,2.652,0,0,0-.555,1.395l.016.039h3.3v-.148a2.134,2.134,0,0,0-.379-1.316A1.4,1.4,0,0,0,21.57-7.086Z" transform="translate(1186 3335.389)" fill="#12263f"/>
    <path id="Trazado_883844" data-name="Trazado 883844" d="M-22.539,0h-1.9V-8.453h1.9Zm0-10.523h-1.9v-1.664h1.9Zm3.844,2.07.109,1.219a3.023,3.023,0,0,1,1.043-1.012,2.783,2.783,0,0,1,1.418-.363,2.64,2.64,0,0,1,2.059.813,3.692,3.692,0,0,1,.738,2.539V0h-1.9V-5.242a2.042,2.042,0,0,0-.383-1.4,1.5,1.5,0,0,0-1.156-.414,2.267,2.267,0,0,0-1.055.23,1.847,1.847,0,0,0-.711.637V0h-1.9V-8.453Zm10.789,7.1a1.577,1.577,0,0,0,1.1-.406,1.33,1.33,0,0,0,.449-1.031h1.719l.016.047A2.549,2.549,0,0,1-5.566-.7a3.413,3.413,0,0,1-2.34.859,3.444,3.444,0,0,1-2.82-1.207,4.633,4.633,0,0,1-.992-3.043v-.273A4.637,4.637,0,0,1-10.727-7.4,3.43,3.43,0,0,1-7.914-8.609a3.316,3.316,0,0,1,2.4.887,2.894,2.894,0,0,1,.891,2.254l-.016.047H-6.359a1.715,1.715,0,0,0-.43-1.18,1.432,1.432,0,0,0-1.125-.484A1.549,1.549,0,0,0-9.375-6.3,3.885,3.885,0,0,0-9.82-4.359v.273a3.921,3.921,0,0,0,.441,1.957A1.558,1.558,0,0,0-7.906-1.352ZM-1.008,0h-1.9V-12.187h1.9Zm7.4-1.25a2.836,2.836,0,0,1-1,1.047A2.707,2.707,0,0,1,3.969.164,2.647,2.647,0,0,1,1.844-.73a4.206,4.206,0,0,1-.766-2.777V-8.453H2.969v4.961a2.825,2.825,0,0,0,.352,1.66,1.3,1.3,0,0,0,1.094.449,2.442,2.442,0,0,0,1.152-.246,1.787,1.787,0,0,0,.73-.715V-8.453H8.2V0H6.563Zm6.594-2.141.188.844h.047L15.07-8.453h2.078l-3.5,9.734A4.34,4.34,0,0,1,12.7,2.789a2.3,2.3,0,0,1-1.727.625,2.95,2.95,0,0,1-.5-.047q-.27-.047-.52-.109l.211-1.469.289.023q.188.016.281.016a1.042,1.042,0,0,0,.824-.352,2.988,2.988,0,0,0,.5-.812L12.375-.1,9.3-8.453h2.07ZM21.773.164A3.681,3.681,0,0,1,18.879-1a4.374,4.374,0,0,1-1.043-3.027v-.312A4.522,4.522,0,0,1,18.879-7.41a3.37,3.37,0,0,1,2.691-1.2,3.163,3.163,0,0,1,2.578,1.051,4.249,4.249,0,0,1,.875,2.809v1.023H19.8l-.016.039A2.77,2.77,0,0,0,20.328-2a1.866,1.866,0,0,0,1.555.648,4.277,4.277,0,0,0,1.34-.187,3.825,3.825,0,0,0,1.051-.539l.617,1.242a4.023,4.023,0,0,1-1.281.711A5.37,5.37,0,0,1,21.773.164Zm-.2-7.25a1.467,1.467,0,0,0-1.187.535,2.652,2.652,0,0,0-.555,1.395l.016.039h3.3v-.148a2.134,2.134,0,0,0-.379-1.316A1.4,1.4,0,0,0,21.57-7.086Z" transform="translate(656 3335.389)" fill="#12263f"/>
    <path id="Trazado_883845" data-name="Trazado 883845" d="M-26.711-3.945a4.766,4.766,0,0,1-.867,2.977A2.868,2.868,0,0,1-29.992.164a2.99,2.99,0,0,1-1.273-.258,2.62,2.62,0,0,1-.953-.758v4.1h-1.9v-11.7h1.6l.188,1.063a2.819,2.819,0,0,1,.98-.906,2.743,2.743,0,0,1,1.332-.312,2.807,2.807,0,0,1,2.434,1.238,5.556,5.556,0,0,1,.871,3.262ZM-28.6-4.109A4.118,4.118,0,0,0-29.09-6.23a1.588,1.588,0,0,0-1.457-.824,1.893,1.893,0,0,0-1.008.254,1.869,1.869,0,0,0-.664.707v3.82a1.766,1.766,0,0,0,.664.684,2.024,2.024,0,0,0,1.023.238,1.629,1.629,0,0,0,1.449-.715,3.312,3.312,0,0,0,.48-1.879Zm8.82,2.859a2.836,2.836,0,0,1-1,1.047A2.707,2.707,0,0,1-22.2.164,2.647,2.647,0,0,1-24.328-.73a4.206,4.206,0,0,1-.766-2.777V-8.453H-23.2v4.961a2.825,2.825,0,0,0,.352,1.66,1.3,1.3,0,0,0,1.094.449,2.442,2.442,0,0,0,1.152-.246,1.787,1.787,0,0,0,.73-.715V-8.453h1.9V0h-1.633ZM-12.406.164A3.681,3.681,0,0,1-15.3-1a4.374,4.374,0,0,1-1.043-3.027v-.312A4.522,4.522,0,0,1-15.3-7.41a3.37,3.37,0,0,1,2.691-1.2,3.163,3.163,0,0,1,2.578,1.051A4.249,4.249,0,0,1-9.156-4.75v1.023h-5.227l-.016.039A2.77,2.77,0,0,0-13.852-2a1.866,1.866,0,0,0,1.555.648,4.277,4.277,0,0,0,1.34-.187,3.825,3.825,0,0,0,1.051-.539l.617,1.242a4.023,4.023,0,0,1-1.281.711A5.37,5.37,0,0,1-12.406.164Zm-.2-7.25a1.467,1.467,0,0,0-1.187.535,2.652,2.652,0,0,0-.555,1.395l.016.039h3.3v-.148a2.134,2.134,0,0,0-.379-1.316A1.4,1.4,0,0,0-12.609-7.086Zm4.641,2.977A5.574,5.574,0,0,1-7.1-7.371,2.8,2.8,0,0,1-4.664-8.609a2.666,2.666,0,0,1,1.23.277,2.785,2.785,0,0,1,.941.793v-4.648h1.9V0H-2.133l-.227-1.07a2.82,2.82,0,0,1-.984.918A2.738,2.738,0,0,1-4.68.164,2.876,2.876,0,0,1-7.1-.969a4.766,4.766,0,0,1-.867-2.977Zm1.9.164a3.4,3.4,0,0,0,.449,1.867,1.573,1.573,0,0,0,1.426.7,1.906,1.906,0,0,0,1.02-.258,1.963,1.963,0,0,0,.684-.734V-6.062a2,2,0,0,0-.687-.73,1.859,1.859,0,0,0-1-.262,1.531,1.531,0,0,0-1.43.816A4.308,4.308,0,0,0-6.07-4.109ZM5.031.164A3.681,3.681,0,0,1,2.137-1,4.374,4.374,0,0,1,1.094-4.031v-.312A4.522,4.522,0,0,1,2.137-7.41a3.37,3.37,0,0,1,2.691-1.2A3.163,3.163,0,0,1,7.406-7.559,4.249,4.249,0,0,1,8.281-4.75v1.023H3.055l-.016.039A2.77,2.77,0,0,0,3.586-2a1.866,1.866,0,0,0,1.555.648,4.277,4.277,0,0,0,1.34-.187,3.825,3.825,0,0,0,1.051-.539L8.148-.836a4.023,4.023,0,0,1-1.281.711A5.37,5.37,0,0,1,5.031.164Zm-.2-7.25a1.467,1.467,0,0,0-1.187.535,2.652,2.652,0,0,0-.555,1.395l.016.039h3.3v-.148a2.134,2.134,0,0,0-.379-1.316A1.4,1.4,0,0,0,4.828-7.086ZM18.555-2.312a.875.875,0,0,0-.371-.723,3.838,3.838,0,0,0-1.4-.512,5.7,5.7,0,0,1-2.281-.9,1.893,1.893,0,0,1-.789-1.594,2.3,2.3,0,0,1,.9-1.816,3.56,3.56,0,0,1,2.367-.754,3.671,3.671,0,0,1,2.441.777A2.252,2.252,0,0,1,20.3-5.961l-.016.047h-1.82a1.185,1.185,0,0,0-.406-.895,1.528,1.528,0,0,0-1.086-.379,1.552,1.552,0,0,0-1.047.313.977.977,0,0,0-.359.766.823.823,0,0,0,.336.688,3.682,3.682,0,0,0,1.383.461,5.727,5.727,0,0,1,2.344.918,1.939,1.939,0,0,1,.789,1.621A2.246,2.246,0,0,1,19.48-.559,3.965,3.965,0,0,1,17,.164,3.786,3.786,0,0,1,14.4-.68a2.383,2.383,0,0,1-.906-1.937l.016-.047h1.766a1.266,1.266,0,0,0,.531,1.07,2.135,2.135,0,0,0,1.219.336,1.909,1.909,0,0,0,1.129-.289A.9.9,0,0,0,18.555-2.312ZM25.711.164A3.681,3.681,0,0,1,22.816-1a4.374,4.374,0,0,1-1.043-3.027v-.312A4.522,4.522,0,0,1,22.816-7.41a3.37,3.37,0,0,1,2.691-1.2,3.163,3.163,0,0,1,2.578,1.051,4.249,4.249,0,0,1,.875,2.809v1.023H23.734l-.016.039A2.77,2.77,0,0,0,24.266-2a1.866,1.866,0,0,0,1.555.648,4.277,4.277,0,0,0,1.34-.187,3.825,3.825,0,0,0,1.051-.539l.617,1.242a4.023,4.023,0,0,1-1.281.711A5.37,5.37,0,0,1,25.711.164Zm-.2-7.25a1.467,1.467,0,0,0-1.187.535,2.652,2.652,0,0,0-.555,1.395l.016.039h3.3v-.148a2.134,2.134,0,0,0-.379-1.316A1.4,1.4,0,0,0,25.508-7.086Zm9.2.344L33.9-6.773a1.7,1.7,0,0,0-.926.234,1.544,1.544,0,0,0-.574.664V0H30.5V-8.453h1.734l.125,1.227a2.711,2.711,0,0,1,.824-1.016,1.919,1.919,0,0,1,1.16-.367,1.769,1.769,0,0,1,.32.027,2.339,2.339,0,0,1,.273.066Z" transform="translate(657 3460.389)" fill="#12263f"/>
    <path id="Trazado_883846" data-name="Trazado 883846" d="M-26.711-3.945a4.766,4.766,0,0,1-.867,2.977A2.868,2.868,0,0,1-29.992.164a2.99,2.99,0,0,1-1.273-.258,2.62,2.62,0,0,1-.953-.758v4.1h-1.9v-11.7h1.6l.188,1.063a2.819,2.819,0,0,1,.98-.906,2.743,2.743,0,0,1,1.332-.312,2.807,2.807,0,0,1,2.434,1.238,5.556,5.556,0,0,1,.871,3.262ZM-28.6-4.109A4.118,4.118,0,0,0-29.09-6.23a1.588,1.588,0,0,0-1.457-.824,1.893,1.893,0,0,0-1.008.254,1.869,1.869,0,0,0-.664.707v3.82a1.766,1.766,0,0,0,.664.684,2.024,2.024,0,0,0,1.023.238,1.629,1.629,0,0,0,1.449-.715,3.312,3.312,0,0,0,.48-1.879Zm8.82,2.859a2.836,2.836,0,0,1-1,1.047A2.707,2.707,0,0,1-22.2.164,2.647,2.647,0,0,1-24.328-.73a4.206,4.206,0,0,1-.766-2.777V-8.453H-23.2v4.961a2.825,2.825,0,0,0,.352,1.66,1.3,1.3,0,0,0,1.094.449,2.442,2.442,0,0,0,1.152-.246,1.787,1.787,0,0,0,.73-.715V-8.453h1.9V0h-1.633ZM-12.406.164A3.681,3.681,0,0,1-15.3-1a4.374,4.374,0,0,1-1.043-3.027v-.312A4.522,4.522,0,0,1-15.3-7.41a3.37,3.37,0,0,1,2.691-1.2,3.163,3.163,0,0,1,2.578,1.051A4.249,4.249,0,0,1-9.156-4.75v1.023h-5.227l-.016.039A2.77,2.77,0,0,0-13.852-2a1.866,1.866,0,0,0,1.555.648,4.277,4.277,0,0,0,1.34-.187,3.825,3.825,0,0,0,1.051-.539l.617,1.242a4.023,4.023,0,0,1-1.281.711A5.37,5.37,0,0,1-12.406.164Zm-.2-7.25a1.467,1.467,0,0,0-1.187.535,2.652,2.652,0,0,0-.555,1.395l.016.039h3.3v-.148a2.134,2.134,0,0,0-.379-1.316A1.4,1.4,0,0,0-12.609-7.086Zm4.641,2.977A5.574,5.574,0,0,1-7.1-7.371,2.8,2.8,0,0,1-4.664-8.609a2.666,2.666,0,0,1,1.23.277,2.785,2.785,0,0,1,.941.793v-4.648h1.9V0H-2.133l-.227-1.07a2.82,2.82,0,0,1-.984.918A2.738,2.738,0,0,1-4.68.164,2.876,2.876,0,0,1-7.1-.969a4.766,4.766,0,0,1-.867-2.977Zm1.9.164a3.4,3.4,0,0,0,.449,1.867,1.573,1.573,0,0,0,1.426.7,1.906,1.906,0,0,0,1.02-.258,1.963,1.963,0,0,0,.684-.734V-6.062a2,2,0,0,0-.687-.73,1.859,1.859,0,0,0-1-.262,1.531,1.531,0,0,0-1.43.816A4.308,4.308,0,0,0-6.07-4.109ZM5.031.164A3.681,3.681,0,0,1,2.137-1,4.374,4.374,0,0,1,1.094-4.031v-.312A4.522,4.522,0,0,1,2.137-7.41a3.37,3.37,0,0,1,2.691-1.2A3.163,3.163,0,0,1,7.406-7.559,4.249,4.249,0,0,1,8.281-4.75v1.023H3.055l-.016.039A2.77,2.77,0,0,0,3.586-2a1.866,1.866,0,0,0,1.555.648,4.277,4.277,0,0,0,1.34-.187,3.825,3.825,0,0,0,1.051-.539L8.148-.836a4.023,4.023,0,0,1-1.281.711A5.37,5.37,0,0,1,5.031.164Zm-.2-7.25a1.467,1.467,0,0,0-1.187.535,2.652,2.652,0,0,0-.555,1.395l.016.039h3.3v-.148a2.134,2.134,0,0,0-.379-1.316A1.4,1.4,0,0,0,4.828-7.086ZM18.555-2.312a.875.875,0,0,0-.371-.723,3.838,3.838,0,0,0-1.4-.512,5.7,5.7,0,0,1-2.281-.9,1.893,1.893,0,0,1-.789-1.594,2.3,2.3,0,0,1,.9-1.816,3.56,3.56,0,0,1,2.367-.754,3.671,3.671,0,0,1,2.441.777A2.252,2.252,0,0,1,20.3-5.961l-.016.047h-1.82a1.185,1.185,0,0,0-.406-.895,1.528,1.528,0,0,0-1.086-.379,1.552,1.552,0,0,0-1.047.313.977.977,0,0,0-.359.766.823.823,0,0,0,.336.688,3.682,3.682,0,0,0,1.383.461,5.727,5.727,0,0,1,2.344.918,1.939,1.939,0,0,1,.789,1.621A2.246,2.246,0,0,1,19.48-.559,3.965,3.965,0,0,1,17,.164,3.786,3.786,0,0,1,14.4-.68a2.383,2.383,0,0,1-.906-1.937l.016-.047h1.766a1.266,1.266,0,0,0,.531,1.07,2.135,2.135,0,0,0,1.219.336,1.909,1.909,0,0,0,1.129-.289A.9.9,0,0,0,18.555-2.312ZM25.711.164A3.681,3.681,0,0,1,22.816-1a4.374,4.374,0,0,1-1.043-3.027v-.312A4.522,4.522,0,0,1,22.816-7.41a3.37,3.37,0,0,1,2.691-1.2,3.163,3.163,0,0,1,2.578,1.051,4.249,4.249,0,0,1,.875,2.809v1.023H23.734l-.016.039A2.77,2.77,0,0,0,24.266-2a1.866,1.866,0,0,0,1.555.648,4.277,4.277,0,0,0,1.34-.187,3.825,3.825,0,0,0,1.051-.539l.617,1.242a4.023,4.023,0,0,1-1.281.711A5.37,5.37,0,0,1,25.711.164Zm-.2-7.25a1.467,1.467,0,0,0-1.187.535,2.652,2.652,0,0,0-.555,1.395l.016.039h3.3v-.148a2.134,2.134,0,0,0-.379-1.316A1.4,1.4,0,0,0,25.508-7.086Zm9.2.344L33.9-6.773a1.7,1.7,0,0,0-.926.234,1.544,1.544,0,0,0-.574.664V0H30.5V-8.453h1.734l.125,1.227a2.711,2.711,0,0,1,.824-1.016,1.919,1.919,0,0,1,1.16-.367,1.769,1.769,0,0,1,.32.027,2.339,2.339,0,0,1,.273.066Z" transform="translate(414 3460.389)" fill="#12263f"/>
    <path id="Trazado_883847" data-name="Trazado 883847" d="M-26.711-3.945a4.766,4.766,0,0,1-.867,2.977A2.868,2.868,0,0,1-29.992.164a2.99,2.99,0,0,1-1.273-.258,2.62,2.62,0,0,1-.953-.758v4.1h-1.9v-11.7h1.6l.188,1.063a2.819,2.819,0,0,1,.98-.906,2.743,2.743,0,0,1,1.332-.312,2.807,2.807,0,0,1,2.434,1.238,5.556,5.556,0,0,1,.871,3.262ZM-28.6-4.109A4.118,4.118,0,0,0-29.09-6.23a1.588,1.588,0,0,0-1.457-.824,1.893,1.893,0,0,0-1.008.254,1.869,1.869,0,0,0-.664.707v3.82a1.766,1.766,0,0,0,.664.684,2.024,2.024,0,0,0,1.023.238,1.629,1.629,0,0,0,1.449-.715,3.312,3.312,0,0,0,.48-1.879Zm8.82,2.859a2.836,2.836,0,0,1-1,1.047A2.707,2.707,0,0,1-22.2.164,2.647,2.647,0,0,1-24.328-.73a4.206,4.206,0,0,1-.766-2.777V-8.453H-23.2v4.961a2.825,2.825,0,0,0,.352,1.66,1.3,1.3,0,0,0,1.094.449,2.442,2.442,0,0,0,1.152-.246,1.787,1.787,0,0,0,.73-.715V-8.453h1.9V0h-1.633ZM-12.406.164A3.681,3.681,0,0,1-15.3-1a4.374,4.374,0,0,1-1.043-3.027v-.312A4.522,4.522,0,0,1-15.3-7.41a3.37,3.37,0,0,1,2.691-1.2,3.163,3.163,0,0,1,2.578,1.051A4.249,4.249,0,0,1-9.156-4.75v1.023h-5.227l-.016.039A2.77,2.77,0,0,0-13.852-2a1.866,1.866,0,0,0,1.555.648,4.277,4.277,0,0,0,1.34-.187,3.825,3.825,0,0,0,1.051-.539l.617,1.242a4.023,4.023,0,0,1-1.281.711A5.37,5.37,0,0,1-12.406.164Zm-.2-7.25a1.467,1.467,0,0,0-1.187.535,2.652,2.652,0,0,0-.555,1.395l.016.039h3.3v-.148a2.134,2.134,0,0,0-.379-1.316A1.4,1.4,0,0,0-12.609-7.086Zm4.641,2.977A5.574,5.574,0,0,1-7.1-7.371,2.8,2.8,0,0,1-4.664-8.609a2.666,2.666,0,0,1,1.23.277,2.785,2.785,0,0,1,.941.793v-4.648h1.9V0H-2.133l-.227-1.07a2.82,2.82,0,0,1-.984.918A2.738,2.738,0,0,1-4.68.164,2.876,2.876,0,0,1-7.1-.969a4.766,4.766,0,0,1-.867-2.977Zm1.9.164a3.4,3.4,0,0,0,.449,1.867,1.573,1.573,0,0,0,1.426.7,1.906,1.906,0,0,0,1.02-.258,1.963,1.963,0,0,0,.684-.734V-6.062a2,2,0,0,0-.687-.73,1.859,1.859,0,0,0-1-.262,1.531,1.531,0,0,0-1.43.816A4.308,4.308,0,0,0-6.07-4.109ZM5.031.164A3.681,3.681,0,0,1,2.137-1,4.374,4.374,0,0,1,1.094-4.031v-.312A4.522,4.522,0,0,1,2.137-7.41a3.37,3.37,0,0,1,2.691-1.2A3.163,3.163,0,0,1,7.406-7.559,4.249,4.249,0,0,1,8.281-4.75v1.023H3.055l-.016.039A2.77,2.77,0,0,0,3.586-2a1.866,1.866,0,0,0,1.555.648,4.277,4.277,0,0,0,1.34-.187,3.825,3.825,0,0,0,1.051-.539L8.148-.836a4.023,4.023,0,0,1-1.281.711A5.37,5.37,0,0,1,5.031.164Zm-.2-7.25a1.467,1.467,0,0,0-1.187.535,2.652,2.652,0,0,0-.555,1.395l.016.039h3.3v-.148a2.134,2.134,0,0,0-.379-1.316A1.4,1.4,0,0,0,4.828-7.086ZM18.555-2.312a.875.875,0,0,0-.371-.723,3.838,3.838,0,0,0-1.4-.512,5.7,5.7,0,0,1-2.281-.9,1.893,1.893,0,0,1-.789-1.594,2.3,2.3,0,0,1,.9-1.816,3.56,3.56,0,0,1,2.367-.754,3.671,3.671,0,0,1,2.441.777A2.252,2.252,0,0,1,20.3-5.961l-.016.047h-1.82a1.185,1.185,0,0,0-.406-.895,1.528,1.528,0,0,0-1.086-.379,1.552,1.552,0,0,0-1.047.313.977.977,0,0,0-.359.766.823.823,0,0,0,.336.688,3.682,3.682,0,0,0,1.383.461,5.727,5.727,0,0,1,2.344.918,1.939,1.939,0,0,1,.789,1.621A2.246,2.246,0,0,1,19.48-.559,3.965,3.965,0,0,1,17,.164,3.786,3.786,0,0,1,14.4-.68a2.383,2.383,0,0,1-.906-1.937l.016-.047h1.766a1.266,1.266,0,0,0,.531,1.07,2.135,2.135,0,0,0,1.219.336,1.909,1.909,0,0,0,1.129-.289A.9.9,0,0,0,18.555-2.312ZM25.711.164A3.681,3.681,0,0,1,22.816-1a4.374,4.374,0,0,1-1.043-3.027v-.312A4.522,4.522,0,0,1,22.816-7.41a3.37,3.37,0,0,1,2.691-1.2,3.163,3.163,0,0,1,2.578,1.051,4.249,4.249,0,0,1,.875,2.809v1.023H23.734l-.016.039A2.77,2.77,0,0,0,24.266-2a1.866,1.866,0,0,0,1.555.648,4.277,4.277,0,0,0,1.34-.187,3.825,3.825,0,0,0,1.051-.539l.617,1.242a4.023,4.023,0,0,1-1.281.711A5.37,5.37,0,0,1,25.711.164Zm-.2-7.25a1.467,1.467,0,0,0-1.187.535,2.652,2.652,0,0,0-.555,1.395l.016.039h3.3v-.148a2.134,2.134,0,0,0-.379-1.316A1.4,1.4,0,0,0,25.508-7.086Zm9.2.344L33.9-6.773a1.7,1.7,0,0,0-.926.234,1.544,1.544,0,0,0-.574.664V0H30.5V-8.453h1.734l.125,1.227a2.711,2.711,0,0,1,.824-1.016,1.919,1.919,0,0,1,1.16-.367,1.769,1.769,0,0,1,.32.027,2.339,2.339,0,0,1,.273.066Z" transform="translate(1186 3460.389)" fill="#12263f"/>
    <path id="Trazado_878072" data-name="Trazado 878072" d="M-7524.427-8660h-149.5v50.688" transform="translate(8329.427 11919.389)" fill="none" stroke="#3a1d71" stroke-width="1.5"/>
    <path id="Trazado_878074" data-name="Trazado 878074" d="M-7524.427-8660h-149.5v48.517" transform="translate(8087.927 12036.389)" fill="none" stroke="#3a1d71" stroke-width="1.5"/>
    <path id="Trazado_878073" data-name="Trazado 878073" d="M-7673.927-8660h149.5v51.517" transform="translate(8709.928 11919.389)" fill="none" stroke="#3a1d71" stroke-width="1.5"/>
    <path id="Trazado_878080" data-name="Trazado 878080" d="M-7524.427-8635v26.517" transform="translate(8709.928 12036.389)" fill="none" stroke="#3a1d71" stroke-width="1.5"/>
    <path id="Trazado_878776" data-name="Trazado 878776" d="M-7524.427-8635v26.517" transform="translate(8181.928 12036.389)" fill="none" stroke="#3a1d71" stroke-width="1.5"/>
    <path id="Trazado_876766" data-name="Trazado 876766" d="M6.184,7.8,0,9.567,6.17,0l.015.019L6.2,0l6.169,9.567Z" transform="translate(420.185 3429.673) rotate(180)" fill="#3a1d71"/>
    <path id="Trazado_883848" data-name="Trazado 883848" d="M3,0H190a3,3,0,0,1,3,3V49a3,3,0,0,1-3,3H3a3,3,0,0,1-3-3V3A3,3,0,0,1,3,0Z" transform="translate(803 3482.389)" fill="#aec4fa"/>
    <path id="Trazado_883849" data-name="Trazado 883849" d="M-63.332-2.93h-4.281L-68.629,0H-70.2l4.1-11.375h1.32L-60.762,0h-1.57Zm-3.836-1.289h3.4L-65.426-9.1h-.047ZM-55.3-7.094l-.789-.047a1.762,1.762,0,0,0-1.027.289,1.855,1.855,0,0,0-.645.813V0H-59.3V-8.453h1.375l.148,1.234a2.934,2.934,0,0,1,.887-1.023,2.073,2.073,0,0,1,1.215-.367,1.9,1.9,0,0,1,.328.027,2.175,2.175,0,0,1,.258.059Zm3.875-3.4v2.039h1.6v1.141h-1.6V-2.18a1.149,1.149,0,0,0,.246.836.89.89,0,0,0,.652.242,1.429,1.429,0,0,0,.3-.035,2.2,2.2,0,0,0,.273-.074l.211,1.055a1.36,1.36,0,0,1-.508.23,2.562,2.562,0,0,1-.664.09A1.993,1.993,0,0,1-52.41-.4a2.46,2.46,0,0,1-.555-1.777V-7.312h-1.344V-8.453h1.344v-2.039ZM-46.512,0h-1.539V-8.453h1.539Zm0-10.617h-1.539v-1.57h1.539ZM-43.715,0V-7.312h-1.328V-8.453h1.328v-.914a2.875,2.875,0,0,1,.832-2.2,3.24,3.24,0,0,1,2.309-.781,4.431,4.431,0,0,1,1.031.121q.508.121,1.2.355l-.266,1.25a7.011,7.011,0,0,0-.883-.281,3.947,3.947,0,0,0-.961-.117,1.8,1.8,0,0,0-1.316.406,1.713,1.713,0,0,0-.4,1.25v.914h1.68v1.141h-1.68V0ZM-37.6,0h-1.547V-8.453H-37.6Zm5.719-1.039a1.81,1.81,0,0,0,1.242-.473,1.494,1.494,0,0,0,.531-1.16h1.391l.023.047a2.428,2.428,0,0,1-.937,1.941,3.313,3.313,0,0,1-2.25.848,3.319,3.319,0,0,1-2.75-1.211A4.674,4.674,0,0,1-35.6-4.062v-.328a4.654,4.654,0,0,1,.973-3,3.317,3.317,0,0,1,2.746-1.215,3.189,3.189,0,0,1,2.316.875,2.775,2.775,0,0,1,.871,2.148l-.016.047h-1.4a1.865,1.865,0,0,0-.5-1.316,1.658,1.658,0,0,0-1.27-.543,1.777,1.777,0,0,0-1.652.879,4.114,4.114,0,0,0-.52,2.129v.328a4.192,4.192,0,0,0,.512,2.148A1.776,1.776,0,0,0-31.879-1.039ZM-25.2,0h-1.539V-8.453H-25.2Zm0-10.617h-1.539v-1.57H-25.2ZM-17.637,0q-.078-.383-.121-.676a4.96,4.96,0,0,1-.051-.59A3.589,3.589,0,0,1-18.93-.246a2.867,2.867,0,0,1-1.488.41A2.763,2.763,0,0,1-22.43-.512a2.486,2.486,0,0,1-.691-1.863,2.183,2.183,0,0,1,.98-1.895,4.579,4.579,0,0,1,2.66-.684h1.672v-.836a1.551,1.551,0,0,0-.453-1.176A1.779,1.779,0,0,0-19.543-7.4a1.859,1.859,0,0,0-1.211.375,1.125,1.125,0,0,0-.461.9l-1.461.016-.016-.047a2.023,2.023,0,0,1,.863-1.687,3.578,3.578,0,0,1,2.371-.766,3.49,3.49,0,0,1,2.313.73,2.588,2.588,0,0,1,.875,2.105V-1.7a7.923,7.923,0,0,0,.047.875A4.5,4.5,0,0,0-16.051,0Zm-2.555-1.125a2.739,2.739,0,0,0,1.508-.43,2.042,2.042,0,0,0,.875-.984V-3.914h-1.727a2.24,2.24,0,0,0-1.488.469,1.4,1.4,0,0,0-.559,1.1,1.159,1.159,0,0,0,.352.891A1.472,1.472,0,0,0-20.191-1.125ZM-12.371,0H-13.91V-12.187h1.539ZM-6.5.164A3.576,3.576,0,0,1-9.344-1a4.48,4.48,0,0,1-1.02-3.062v-.344A4.386,4.386,0,0,1-9.312-7.418,3.3,3.3,0,0,1-6.746-8.609,3.067,3.067,0,0,1-4.2-7.555a4.345,4.345,0,0,1,.848,2.8v.813H-8.762l-.023.039a3.494,3.494,0,0,0,.563,2.066A1.965,1.965,0,0,0-6.5-1.039a3.872,3.872,0,0,0,1.371-.223,3.061,3.061,0,0,0,1.012-.613l.6,1a3.7,3.7,0,0,1-1.2.738A4.762,4.762,0,0,1-6.5.164ZM-6.746-7.4a1.673,1.673,0,0,0-1.332.621,2.938,2.938,0,0,0-.645,1.59l.016.039h3.813v-.125A2.462,2.462,0,0,0-5.348-6.8,1.638,1.638,0,0,0-6.746-7.4ZM3.285-2.273A1.026,1.026,0,0,0,2.9-3.1a3.732,3.732,0,0,0-1.465-.562,6.146,6.146,0,0,1-2.293-.9,1.814,1.814,0,0,1-.8-1.547A2.229,2.229,0,0,1-.781-7.875,3.433,3.433,0,0,1,1.5-8.609a3.4,3.4,0,0,1,2.328.781,2.239,2.239,0,0,1,.852,1.82l-.016.047H3.191a1.331,1.331,0,0,0-.48-.992A1.717,1.717,0,0,0,1.5-7.4a1.751,1.751,0,0,0-1.215.367,1.146,1.146,0,0,0-.4.875.927.927,0,0,0,.348.773,3.848,3.848,0,0,0,1.434.5,6.058,6.058,0,0,1,2.359.93,1.872,1.872,0,0,1,.8,1.57,2.226,2.226,0,0,1-.91,1.836A3.754,3.754,0,0,1,1.535.164a3.715,3.715,0,0,1-2.547-.82A2.341,2.341,0,0,1-1.895-2.57l.016-.047H-.41A1.424,1.424,0,0,0,.2-1.418a2.358,2.358,0,0,0,1.336.379A2.1,2.1,0,0,0,2.82-1.387,1.063,1.063,0,0,0,3.285-2.273ZM13.3-3.133l.273,1.063h.047L15.7-8.453H17.41L13.855,1.3a4.383,4.383,0,0,1-.918,1.484,2.113,2.113,0,0,1-1.613.633,3.363,3.363,0,0,1-.477-.043q-.289-.043-.445-.082l.156-1.211a2.062,2.062,0,0,1,.277.016q.324.023.41.023a.95.95,0,0,0,.8-.437,4.543,4.543,0,0,0,.523-.969l.367-.883L9.8-8.453H11.52Zm10.813-5.32.109,1.109a2.871,2.871,0,0,1,1.051-.934,3.158,3.158,0,0,1,1.48-.332,2.615,2.615,0,0,1,1.449.391,2.363,2.363,0,0,1,.91,1.172,3.162,3.162,0,0,1,1.059-1.145A2.769,2.769,0,0,1,31.7-8.609a2.531,2.531,0,0,1,2.039.887,4.051,4.051,0,0,1,.75,2.668V0H32.949V-5.07a2.81,2.81,0,0,0-.43-1.77,1.567,1.567,0,0,0-1.281-.52,1.631,1.631,0,0,0-1.277.547,2.381,2.381,0,0,0-.574,1.383V0H27.84V-5.07A2.772,2.772,0,0,0,27.4-6.809a1.532,1.532,0,0,0-1.27-.551,2.115,2.115,0,0,0-1.156.289,1.867,1.867,0,0,0-.7.813V0H22.738V-8.453ZM38.387,0H36.848V-8.453h1.539Zm0-10.617H36.848v-1.57h1.539Zm5.234,5.281,1.8-3.117h1.8l-2.742,4.18L47.293,0H45.527L43.652-3.2,41.777,0H40l2.82-4.273-2.742-4.18h1.773Zm7.32-5.156v2.039h1.6v1.141h-1.6V-2.18a1.149,1.149,0,0,0,.246.836.89.89,0,0,0,.652.242,1.429,1.429,0,0,0,.3-.035,2.2,2.2,0,0,0,.273-.074l.211,1.055a1.36,1.36,0,0,1-.508.23,2.562,2.562,0,0,1-.664.09A1.993,1.993,0,0,1,49.957-.4,2.46,2.46,0,0,1,49.4-2.18V-7.312H48.059V-8.453H49.4v-2.039ZM53.832-4.3a4.654,4.654,0,0,1,1.016-3.09,3.406,3.406,0,0,1,2.758-1.215A3.439,3.439,0,0,1,60.383-7.4,4.639,4.639,0,0,1,61.4-4.3v.172a4.631,4.631,0,0,1-1.016,3.094,3.429,3.429,0,0,1-2.766,1.2,3.436,3.436,0,0,1-2.77-1.207,4.623,4.623,0,0,1-1.02-3.09Zm1.539.172a4.009,4.009,0,0,0,.566,2.219,1.875,1.875,0,0,0,1.684.875,1.87,1.87,0,0,0,1.672-.875,3.988,3.988,0,0,0,.57-2.219V-4.3a3.976,3.976,0,0,0-.574-2.211A1.882,1.882,0,0,0,57.605-7.4a1.856,1.856,0,0,0-1.668.883A4.018,4.018,0,0,0,55.371-4.3ZM68.2-2.273a1.026,1.026,0,0,0-.387-.828,3.732,3.732,0,0,0-1.465-.562,6.146,6.146,0,0,1-2.293-.9,1.814,1.814,0,0,1-.8-1.547,2.229,2.229,0,0,1,.879-1.766,3.433,3.433,0,0,1,2.277-.734,3.4,3.4,0,0,1,2.328.781,2.239,2.239,0,0,1,.852,1.82l-.016.047H68.105a1.331,1.331,0,0,0-.48-.992A1.717,1.717,0,0,0,66.41-7.4a1.751,1.751,0,0,0-1.215.367,1.146,1.146,0,0,0-.4.875.927.927,0,0,0,.348.773,3.848,3.848,0,0,0,1.434.5,6.058,6.058,0,0,1,2.359.93,1.872,1.872,0,0,1,.8,1.57,2.226,2.226,0,0,1-.91,1.836,3.754,3.754,0,0,1-2.379.711A3.715,3.715,0,0,1,63.9-.656,2.341,2.341,0,0,1,63.02-2.57l.016-.047H64.5a1.424,1.424,0,0,0,.609,1.2,2.358,2.358,0,0,0,1.336.379,2.1,2.1,0,0,0,1.285-.348A1.063,1.063,0,0,0,68.2-2.273Z" transform="translate(899 3515.389)" fill="#12263f"/>
    <path id="Trazado_883850" data-name="Trazado 883850" d="M-26.711-3.945a4.766,4.766,0,0,1-.867,2.977A2.868,2.868,0,0,1-29.992.164a2.99,2.99,0,0,1-1.273-.258,2.62,2.62,0,0,1-.953-.758v4.1h-1.9v-11.7h1.6l.188,1.063a2.819,2.819,0,0,1,.98-.906,2.743,2.743,0,0,1,1.332-.312,2.807,2.807,0,0,1,2.434,1.238,5.556,5.556,0,0,1,.871,3.262ZM-28.6-4.109A4.118,4.118,0,0,0-29.09-6.23a1.588,1.588,0,0,0-1.457-.824,1.893,1.893,0,0,0-1.008.254,1.869,1.869,0,0,0-.664.707v3.82a1.766,1.766,0,0,0,.664.684,2.024,2.024,0,0,0,1.023.238,1.629,1.629,0,0,0,1.449-.715,3.312,3.312,0,0,0,.48-1.879Zm8.82,2.859a2.836,2.836,0,0,1-1,1.047A2.707,2.707,0,0,1-22.2.164,2.647,2.647,0,0,1-24.328-.73a4.206,4.206,0,0,1-.766-2.777V-8.453H-23.2v4.961a2.825,2.825,0,0,0,.352,1.66,1.3,1.3,0,0,0,1.094.449,2.442,2.442,0,0,0,1.152-.246,1.787,1.787,0,0,0,.73-.715V-8.453h1.9V0h-1.633ZM-12.406.164A3.681,3.681,0,0,1-15.3-1a4.374,4.374,0,0,1-1.043-3.027v-.312A4.522,4.522,0,0,1-15.3-7.41a3.37,3.37,0,0,1,2.691-1.2,3.163,3.163,0,0,1,2.578,1.051A4.249,4.249,0,0,1-9.156-4.75v1.023h-5.227l-.016.039A2.77,2.77,0,0,0-13.852-2a1.866,1.866,0,0,0,1.555.648,4.277,4.277,0,0,0,1.34-.187,3.825,3.825,0,0,0,1.051-.539l.617,1.242a4.023,4.023,0,0,1-1.281.711A5.37,5.37,0,0,1-12.406.164Zm-.2-7.25a1.467,1.467,0,0,0-1.187.535,2.652,2.652,0,0,0-.555,1.395l.016.039h3.3v-.148a2.134,2.134,0,0,0-.379-1.316A1.4,1.4,0,0,0-12.609-7.086Zm4.641,2.977A5.574,5.574,0,0,1-7.1-7.371,2.8,2.8,0,0,1-4.664-8.609a2.666,2.666,0,0,1,1.23.277,2.785,2.785,0,0,1,.941.793v-4.648h1.9V0H-2.133l-.227-1.07a2.82,2.82,0,0,1-.984.918A2.738,2.738,0,0,1-4.68.164,2.876,2.876,0,0,1-7.1-.969a4.766,4.766,0,0,1-.867-2.977Zm1.9.164a3.4,3.4,0,0,0,.449,1.867,1.573,1.573,0,0,0,1.426.7,1.906,1.906,0,0,0,1.02-.258,1.963,1.963,0,0,0,.684-.734V-6.062a2,2,0,0,0-.687-.73,1.859,1.859,0,0,0-1-.262,1.531,1.531,0,0,0-1.43.816A4.308,4.308,0,0,0-6.07-4.109ZM5.031.164A3.681,3.681,0,0,1,2.137-1,4.374,4.374,0,0,1,1.094-4.031v-.312A4.522,4.522,0,0,1,2.137-7.41a3.37,3.37,0,0,1,2.691-1.2A3.163,3.163,0,0,1,7.406-7.559,4.249,4.249,0,0,1,8.281-4.75v1.023H3.055l-.016.039A2.77,2.77,0,0,0,3.586-2a1.866,1.866,0,0,0,1.555.648,4.277,4.277,0,0,0,1.34-.187,3.825,3.825,0,0,0,1.051-.539L8.148-.836a4.023,4.023,0,0,1-1.281.711A5.37,5.37,0,0,1,5.031.164Zm-.2-7.25a1.467,1.467,0,0,0-1.187.535,2.652,2.652,0,0,0-.555,1.395l.016.039h3.3v-.148a2.134,2.134,0,0,0-.379-1.316A1.4,1.4,0,0,0,4.828-7.086ZM18.555-2.312a.875.875,0,0,0-.371-.723,3.838,3.838,0,0,0-1.4-.512,5.7,5.7,0,0,1-2.281-.9,1.893,1.893,0,0,1-.789-1.594,2.3,2.3,0,0,1,.9-1.816,3.56,3.56,0,0,1,2.367-.754,3.671,3.671,0,0,1,2.441.777A2.252,2.252,0,0,1,20.3-5.961l-.016.047h-1.82a1.185,1.185,0,0,0-.406-.895,1.528,1.528,0,0,0-1.086-.379,1.552,1.552,0,0,0-1.047.313.977.977,0,0,0-.359.766.823.823,0,0,0,.336.688,3.682,3.682,0,0,0,1.383.461,5.727,5.727,0,0,1,2.344.918,1.939,1.939,0,0,1,.789,1.621A2.246,2.246,0,0,1,19.48-.559,3.965,3.965,0,0,1,17,.164,3.786,3.786,0,0,1,14.4-.68a2.383,2.383,0,0,1-.906-1.937l.016-.047h1.766a1.266,1.266,0,0,0,.531,1.07,2.135,2.135,0,0,0,1.219.336,1.909,1.909,0,0,0,1.129-.289A.9.9,0,0,0,18.555-2.312ZM25.711.164A3.681,3.681,0,0,1,22.816-1a4.374,4.374,0,0,1-1.043-3.027v-.312A4.522,4.522,0,0,1,22.816-7.41a3.37,3.37,0,0,1,2.691-1.2,3.163,3.163,0,0,1,2.578,1.051,4.249,4.249,0,0,1,.875,2.809v1.023H23.734l-.016.039A2.77,2.77,0,0,0,24.266-2a1.866,1.866,0,0,0,1.555.648,4.277,4.277,0,0,0,1.34-.187,3.825,3.825,0,0,0,1.051-.539l.617,1.242a4.023,4.023,0,0,1-1.281.711A5.37,5.37,0,0,1,25.711.164Zm-.2-7.25a1.467,1.467,0,0,0-1.187.535,2.652,2.652,0,0,0-.555,1.395l.016.039h3.3v-.148a2.134,2.134,0,0,0-.379-1.316A1.4,1.4,0,0,0,25.508-7.086Zm9.2.344L33.9-6.773a1.7,1.7,0,0,0-.926.234,1.544,1.544,0,0,0-.574.664V0H30.5V-8.453h1.734l.125,1.227a2.711,2.711,0,0,1,.824-1.016,1.919,1.919,0,0,1,1.16-.367,1.769,1.769,0,0,1,.32.027,2.339,2.339,0,0,1,.273.066Z" transform="translate(899 3460.389)" fill="#12263f"/>
    <path id="Trazado_878075" data-name="Trazado 878075" d="M-7673.928-8660h149.5v48.517" transform="translate(8423.928 12036.389)" fill="none" stroke="#3a1d71" stroke-width="1.5"/>
    <path id="Trazado_878076" data-name="Trazado 878076" d="M6.184,1.764,0,0,6.17,9.567l.015-.019.015.019L12.369,0Z" transform="translate(893.316 3420.105)" fill="#3a1d71"/>
    <path id="Trazado_878077" data-name="Trazado 878077" d="M6.184,1.764,0,0,6.17,9.567l.015-.019.015.019L12.369,0Z" transform="translate(649.315 3304.105)" fill="#3a1d71"/>
    <path id="Trazado_878078" data-name="Trazado 878078" d="M6.184,1.764,0,0,6.17,9.567l.015-.019.015.019L12.369,0Z" transform="translate(1179.315 3304.105)" fill="#3a1d71"/>
    <path id="Trazado_878079" data-name="Trazado 878079" d="M6.184,1.764,0,0,6.17,9.567l.015-.019.015.019L12.369,0Z" transform="translate(1179.315 3424.905)" fill="#3a1d71"/>
    <path id="Trazado_878775" data-name="Trazado 878775" d="M6.184,1.764,0,0,6.17,9.567l.015-.019.015.019L12.369,0Z" transform="translate(651.316 3424.905)" fill="#3a1d71"/>
  </g>
</svg>
