<svg xmlns="http://www.w3.org/2000/svg" width="657.815" height="323.185" viewBox="0 0 657.815 323.185">
  <g id="Grupo_1102292" data-name="Grupo 1102292" transform="translate(-472.185 -8238)">
    <path id="Trazado_884190" data-name="Trazado 884190" d="M0,0H3V309H0Z" transform="translate(641 8238)" fill="#3a1d71"/>
    <path id="Trazado_884191" data-name="Trazado 884191" d="M0,0H3V531H0Z" transform="translate(1130 8490) rotate(90)" fill="#3a1d71"/>
    <path id="Trazado_884192" data-name="Trazado 884192" d="M0,0H216V100H0Z" transform="translate(661 8271)" fill="#f0c518"/>
    <path id="Trazado_884193" data-name="Trazado 884193" d="M0,0H216V100H0Z" transform="translate(877 8271)" fill="#3a1d71"/>
    <path id="Trazado_884194" data-name="Trazado 884194" d="M0,0H216V100H0Z" transform="translate(661 8371)" fill="#3a1d71"/>
    <path id="Trazado_884195" data-name="Trazado 884195" d="M0,0H216V100H0Z" transform="translate(877 8371)" fill="#f0c518"/>
    <path id="Trazado_884196" data-name="Trazado 884196" d="M-59.016-9.759a2.127,2.127,0,0,0,1.572-.55,2.064,2.064,0,0,0,.55-1.527,1.722,1.722,0,0,0-.562-1.3,2.111,2.111,0,0,0-1.516-.533,1.827,1.827,0,0,0-1.219.421,1.376,1.376,0,0,0-.5,1.106h-3.684l-.022-.067a3.621,3.621,0,0,1,1.533-3.167,6.255,6.255,0,0,1,3.891-1.213,6.859,6.859,0,0,1,4.262,1.219,4.085,4.085,0,0,1,1.6,3.453,3.413,3.413,0,0,1-.674,2.044A4.6,4.6,0,0,1-55.613-8.4a4.284,4.284,0,0,1,2.044,1.454,3.864,3.864,0,0,1,.719,2.364A4.165,4.165,0,0,1-54.574-1.05a7.156,7.156,0,0,1-4.4,1.286A6.783,6.783,0,0,1-62.992-.971a3.891,3.891,0,0,1-1.651-3.5l.022-.067h3.695a1.759,1.759,0,0,0,.55,1.325,1.945,1.945,0,0,0,1.4.528,2.478,2.478,0,0,0,1.679-.567,1.788,1.788,0,0,0,.657-1.409A2.19,2.19,0,0,0-57.259-6.4a2.586,2.586,0,0,0-1.758-.545h-1.8V-9.759ZM-46.876,0h-3.785V-3.189h3.785Zm17.1-4.335a1.63,1.63,0,0,0-.573-1.342,7.429,7.429,0,0,0-2.078-.994,15.77,15.77,0,0,1-4.52-2.106,3.791,3.791,0,0,1-1.477-3.218A3.945,3.945,0,0,1-36.7-15.318a7.159,7.159,0,0,1,4.369-1.269,7.207,7.207,0,0,1,4.5,1.308,4.242,4.242,0,0,1,1.651,3.689l-.022.067h-3.684a2.063,2.063,0,0,0-.629-1.679,2.922,2.922,0,0,0-1.9-.522,2.436,2.436,0,0,0-1.628.505,1.573,1.573,0,0,0-.6,1.247,1.343,1.343,0,0,0,.612,1.151,11.949,11.949,0,0,0,2.285,1.084,12.179,12.179,0,0,1,4.3,2.055,4.09,4.09,0,0,1,1.46,3.324A3.934,3.934,0,0,1-27.661-.983,7.463,7.463,0,0,1-32.13.236a8.167,8.167,0,0,1-4.7-1.308A4.5,4.5,0,0,1-38.7-5.188l.022-.067h3.695a2.545,2.545,0,0,0,.7,2.027,3.248,3.248,0,0,0,2.151.6A2.79,2.79,0,0,0-30.356-3.1,1.512,1.512,0,0,0-29.772-4.335ZM-17.115-.011a4.584,4.584,0,0,1-.365-.865,6.63,6.63,0,0,1-.23-1.011A4.643,4.643,0,0,1-18.929-.343a2.941,2.941,0,0,1-1.892.578,4.207,4.207,0,0,1-2.97-.983,3.471,3.471,0,0,1-1.061-2.678,3.239,3.239,0,0,1,1.359-2.791A7.045,7.045,0,0,1-19.373-7.2h1.561v-.865a1.731,1.731,0,0,0-.371-1.19,1.443,1.443,0,0,0-1.134-.416,1.369,1.369,0,0,0-.983.309,1.281,1.281,0,0,0-.32.96L-24.3-8.412l-.022-.067a3.17,3.17,0,0,1,1.387-2.78,6.215,6.215,0,0,1,3.869-1.117,5.659,5.659,0,0,1,3.656,1.123,3.881,3.881,0,0,1,1.4,3.212v4.582a9.348,9.348,0,0,0,.163,1.8A9.623,9.623,0,0,0-13.364,0Zm-2.673-2.459a2.312,2.312,0,0,0,1.23-.326,1.864,1.864,0,0,0,.747-.775V-5.177h-1.527a1.716,1.716,0,0,0-1.314.438,1.575,1.575,0,0,0-.4,1.112,1.075,1.075,0,0,0,.354.837A1.312,1.312,0,0,0-19.788-2.471Zm12.208-12.7v3.021h1.92v2.628h-1.92v5.57a1.363,1.363,0,0,0,.264.938.922.922,0,0,0,.713.286,3.815,3.815,0,0,0,.466-.022,4.035,4.035,0,0,0,.444-.09l.258,2.808A9.163,9.163,0,0,1-6.469.174,8.321,8.321,0,0,1-7.558.236a3.794,3.794,0,0,1-2.847-1,4.412,4.412,0,0,1-.971-3.167V-9.523h-1.7v-2.628h1.7v-3.021ZM.157,0H-3.65V-12.151H.157Zm0-14.97H-3.65V-17.52H.157ZM8.816-3.414a.991.991,0,0,0-.511-.8,5.511,5.511,0,0,0-1.859-.635,7.337,7.337,0,0,1-3.2-1.286,2.913,2.913,0,0,1-1.078-2.4,3.417,3.417,0,0,1,1.348-2.723,5.543,5.543,0,0,1,3.65-1.117,6.268,6.268,0,0,1,3.863,1.084,3.186,3.186,0,0,1,1.37,2.8l-.022.067H8.692a1.5,1.5,0,0,0-.359-1.089,1.59,1.59,0,0,0-1.179-.371,1.542,1.542,0,0,0-1,.326,1.021,1.021,0,0,0-.4.831.989.989,0,0,0,.466.82A5.272,5.272,0,0,0,8.1-7.3a7.557,7.557,0,0,1,3.3,1.308,3,3,0,0,1,1.067,2.465,3.218,3.218,0,0,1-1.454,2.7A6.379,6.379,0,0,1,7.165.236,5.768,5.768,0,0,1,3.24-1.022,3.465,3.465,0,0,1,1.864-3.83L1.887-3.9H5.323A1.523,1.523,0,0,0,5.845-2.65a2.3,2.3,0,0,0,1.421.382,1.9,1.9,0,0,0,1.157-.3A1,1,0,0,0,8.816-3.414ZM15.071,0V-9.523H13.319v-2.628h1.752v-1.258a4.1,4.1,0,0,1,1.258-3.218,5.15,5.15,0,0,1,3.56-1.129,6.386,6.386,0,0,1,.882.062q.444.062.994.174l-.281,2.8q-.314-.056-.55-.084a4.95,4.95,0,0,0-.573-.028,1.517,1.517,0,0,0-1.1.371,1.4,1.4,0,0,0-.382,1.056v1.258h2.4v2.628h-2.4V0ZM29.514-.011a4.584,4.584,0,0,1-.365-.865,6.63,6.63,0,0,1-.23-1.011A4.643,4.643,0,0,1,27.7-.343a2.941,2.941,0,0,1-1.892.578,4.207,4.207,0,0,1-2.97-.983,3.471,3.471,0,0,1-1.061-2.678,3.239,3.239,0,0,1,1.359-2.791A7.045,7.045,0,0,1,27.256-7.2h1.561v-.865a1.731,1.731,0,0,0-.371-1.19,1.443,1.443,0,0,0-1.134-.416,1.369,1.369,0,0,0-.983.309,1.281,1.281,0,0,0-.32.96l-3.684-.011L22.3-8.479a3.17,3.17,0,0,1,1.387-2.78,6.215,6.215,0,0,1,3.869-1.117,5.659,5.659,0,0,1,3.656,1.123,3.881,3.881,0,0,1,1.4,3.212v4.582a9.347,9.347,0,0,0,.163,1.8A9.623,9.623,0,0,0,33.265,0ZM26.841-2.471a2.312,2.312,0,0,0,1.23-.326,1.864,1.864,0,0,0,.747-.775V-5.177H27.29a1.716,1.716,0,0,0-1.314.438,1.575,1.575,0,0,0-.4,1.112,1.075,1.075,0,0,0,.354.837A1.312,1.312,0,0,0,26.841-2.471Zm13.05-.213a1.484,1.484,0,0,0,1.157-.421,1.755,1.755,0,0,0,.382-1.219h3.459l.022.067a3.989,3.989,0,0,1-1.376,3.24A5.308,5.308,0,0,1,39.891.236a5.376,5.376,0,0,1-4.273-1.713,6.531,6.531,0,0,1-1.5-4.464V-6.2a6.551,6.551,0,0,1,1.494-4.458,5.336,5.336,0,0,1,4.256-1.718,5.227,5.227,0,0,1,3.7,1.286,4.435,4.435,0,0,1,1.342,3.521l-.022.067H41.429a2.352,2.352,0,0,0-.393-1.409,1.347,1.347,0,0,0-1.168-.545,1.56,1.56,0,0,0-1.533.882A5.452,5.452,0,0,0,37.9-6.2v.258a5.431,5.431,0,0,0,.432,2.392A1.584,1.584,0,0,0,39.891-2.684ZM51.851.236a5.641,5.641,0,0,1-4.329-1.673,5.951,5.951,0,0,1-1.567-4.234V-6.1a6.8,6.8,0,0,1,1.477-4.537,5.246,5.246,0,0,1,4.273-1.741A4.921,4.921,0,0,1,55.518-10.9a5.727,5.727,0,0,1,1.353,4.032v1.988H49.908l-.022.067a2.36,2.36,0,0,0,.708,1.544,2.471,2.471,0,0,0,1.774.59,7.69,7.69,0,0,0,1.814-.18,11.433,11.433,0,0,0,1.656-.573l.91,2.313a6.946,6.946,0,0,1-2.111.966A9.744,9.744,0,0,1,51.851.236Zm-.146-9.692a1.566,1.566,0,0,0-1.342.578,2.9,2.9,0,0,0-.5,1.567l.022.056h3.279v-.292a2.525,2.525,0,0,0-.331-1.426A1.27,1.27,0,0,0,51.705-9.456Zm13.488.539-1.235-.011a2.1,2.1,0,0,0-1.067.241,1.49,1.49,0,0,0-.618.679V0h-3.8V-12.151h3.571l.135,1.786a3.664,3.664,0,0,1,1.011-1.482,2.218,2.218,0,0,1,1.471-.528,2.822,2.822,0,0,1,.46.034,3.483,3.483,0,0,1,.427.1Z" transform="translate(765 8334)" fill="#00104e"/>
    <path id="Trazado_884197" data-name="Trazado 884197" d="M-23.854,0h-2.962V-12.8h2.962Zm4.781-9.51.114,1.336a3.443,3.443,0,0,1,1.151-1.112,2.979,2.979,0,0,1,1.529-.4,2.681,2.681,0,0,1,2.184.949,4.7,4.7,0,0,1,.787,3.015V0h-2.971V-5.73a2.179,2.179,0,0,0-.29-1.288.994.994,0,0,0-.844-.382,2.088,2.088,0,0,0-.853.167,1.7,1.7,0,0,0-.633.475V0h-2.962V-9.51Zm10.793-2.364V-9.51h1.5v2.057h-1.5v4.359a1.066,1.066,0,0,0,.207.734.722.722,0,0,0,.558.224,2.986,2.986,0,0,0,.365-.018,3.158,3.158,0,0,0,.347-.07l.2,2.2a7.171,7.171,0,0,1-.809.163,6.512,6.512,0,0,1-.853.048A2.969,2.969,0,0,1-10.49-.6a3.453,3.453,0,0,1-.76-2.479V-7.453h-1.327V-9.51h1.327v-2.364ZM-1.116.185A4.415,4.415,0,0,1-4.5-1.125,4.657,4.657,0,0,1-5.73-4.438v-.334A5.321,5.321,0,0,1-4.575-8.323,4.106,4.106,0,0,1-1.23-9.686,3.851,3.851,0,0,1,1.753-8.534,4.482,4.482,0,0,1,2.813-5.379v1.556H-2.637l-.018.053A1.847,1.847,0,0,0-2.1-2.562,1.934,1.934,0,0,0-.712-2.1,6.019,6.019,0,0,0,.708-2.241,8.948,8.948,0,0,0,2-2.689L2.716-.879a5.436,5.436,0,0,1-1.652.756A7.626,7.626,0,0,1-1.116.185ZM-1.23-7.4a1.226,1.226,0,0,0-1.05.453,2.271,2.271,0,0,0-.391,1.226l.018.044H-.088v-.229A1.976,1.976,0,0,0-.347-7.022.994.994,0,0,0-1.23-7.4Zm10.556.422-.967-.009a1.646,1.646,0,0,0-.835.189,1.166,1.166,0,0,0-.483.532V0H4.069V-9.51H6.864l.105,1.4a2.867,2.867,0,0,1,.791-1.16,1.736,1.736,0,0,1,1.151-.413,2.209,2.209,0,0,1,.36.026,2.726,2.726,0,0,1,.334.079ZM14.467.185a4.415,4.415,0,0,1-3.388-1.31A4.657,4.657,0,0,1,9.853-4.438v-.334a5.321,5.321,0,0,1,1.156-3.551,4.106,4.106,0,0,1,3.344-1.362,3.851,3.851,0,0,1,2.984,1.151A4.482,4.482,0,0,1,18.4-5.379v1.556H12.946l-.018.053a1.847,1.847,0,0,0,.554,1.208,1.934,1.934,0,0,0,1.389.461,6.019,6.019,0,0,0,1.419-.141,8.948,8.948,0,0,0,1.3-.448L18.3-.879a5.436,5.436,0,0,1-1.652.756A7.626,7.626,0,0,1,14.467.185ZM14.353-7.4a1.226,1.226,0,0,0-1.05.453,2.271,2.271,0,0,0-.391,1.226l.018.044H15.5v-.229a1.976,1.976,0,0,0-.259-1.116A.994.994,0,0,0,14.353-7.4Zm.141-6.187h3.261l.018.053L15.3-11.25H12.683ZM24.609-2.672a.775.775,0,0,0-.4-.628,4.313,4.313,0,0,0-1.455-.5A5.742,5.742,0,0,1,20.25-4.8a2.28,2.28,0,0,1-.844-1.876,2.674,2.674,0,0,1,1.055-2.131,4.338,4.338,0,0,1,2.856-.875,4.905,4.905,0,0,1,3.023.848,2.494,2.494,0,0,1,1.072,2.193l-.018.053H24.513a1.178,1.178,0,0,0-.281-.853,1.244,1.244,0,0,0-.923-.29,1.207,1.207,0,0,0-.782.255.8.8,0,0,0-.316.65.774.774,0,0,0,.365.642,4.126,4.126,0,0,0,1.472.475,5.914,5.914,0,0,1,2.584,1.024,2.348,2.348,0,0,1,.835,1.929A2.519,2.519,0,0,1,26.328-.646a4.992,4.992,0,0,1-3.01.831A4.514,4.514,0,0,1,20.246-.8,2.712,2.712,0,0,1,19.169-3l.018-.053h2.689a1.192,1.192,0,0,0,.409.976,1.8,1.8,0,0,0,1.112.3,1.484,1.484,0,0,0,.905-.233A.783.783,0,0,0,24.609-2.672Z" transform="translate(499 8383)" fill="#00104e"/>
    <path id="Trazado_884198" data-name="Trazado 884198" d="M-35.93,0h-2.962V-12.8h2.962Zm4.781-9.51.114,1.336a3.443,3.443,0,0,1,1.151-1.112,2.979,2.979,0,0,1,1.529-.4,2.681,2.681,0,0,1,2.184.949,4.7,4.7,0,0,1,.787,3.015V0h-2.971V-5.73a2.179,2.179,0,0,0-.29-1.288.994.994,0,0,0-.844-.382,2.088,2.088,0,0,0-.853.167,1.7,1.7,0,0,0-.633.475V0h-2.962V-9.51ZM-23.124,0V-7.453H-24.5V-9.51h1.371v-.984a3.208,3.208,0,0,1,.984-2.518,4.03,4.03,0,0,1,2.786-.883,5,5,0,0,1,.69.048q.347.048.778.136l-.22,2.188q-.246-.044-.431-.066a3.874,3.874,0,0,0-.448-.022,1.187,1.187,0,0,0-.861.29,1.1,1.1,0,0,0-.3.826v.984h1.881v2.057h-1.881V0ZM-14.2,0h-2.979V-13.711H-14.2Zm7.55-1.424A3.126,3.126,0,0,1-7.748-.233,2.88,2.88,0,0,1-9.3.185,2.816,2.816,0,0,1-11.615-.853a5.056,5.056,0,0,1-.839-3.208V-9.51h2.962v5.467a2.884,2.884,0,0,0,.286,1.529,1,1,0,0,0,.883.413,2.425,2.425,0,0,0,.835-.132,1.614,1.614,0,0,0,.615-.4V-9.51H-3.9V0H-6.293ZM1.951.185a4.415,4.415,0,0,1-3.388-1.31A4.657,4.657,0,0,1-2.663-4.438v-.334A5.321,5.321,0,0,1-1.507-8.323,4.106,4.106,0,0,1,1.837-9.686,3.851,3.851,0,0,1,4.821-8.534,4.482,4.482,0,0,1,5.88-5.379v1.556H.431l-.018.053A1.847,1.847,0,0,0,.967-2.562,1.934,1.934,0,0,0,2.355-2.1a6.019,6.019,0,0,0,1.419-.141,8.948,8.948,0,0,0,1.3-.448L5.783-.879a5.436,5.436,0,0,1-1.652.756A7.626,7.626,0,0,1,1.951.185ZM1.837-7.4a1.226,1.226,0,0,0-1.05.453A2.271,2.271,0,0,0,.4-5.722l.018.044H2.979v-.229A1.976,1.976,0,0,0,2.72-7.022.994.994,0,0,0,1.837-7.4ZM9.87-9.51l.114,1.336a3.443,3.443,0,0,1,1.151-1.112,2.979,2.979,0,0,1,1.529-.4,2.681,2.681,0,0,1,2.184.949,4.7,4.7,0,0,1,.787,3.015V0H12.665V-5.73a2.179,2.179,0,0,0-.29-1.288.994.994,0,0,0-.844-.382,2.088,2.088,0,0,0-.853.167,1.7,1.7,0,0,0-.633.475V0H7.084V-9.51ZM21.322-2.1a1.162,1.162,0,0,0,.905-.33,1.373,1.373,0,0,0,.3-.954h2.707l.018.053A3.122,3.122,0,0,1,24.174-.8a4.154,4.154,0,0,1-2.852.98,4.207,4.207,0,0,1-3.344-1.34A5.111,5.111,0,0,1,16.8-4.649v-.2a5.127,5.127,0,0,1,1.169-3.489A4.176,4.176,0,0,1,21.3-9.686a4.09,4.09,0,0,1,2.9,1.006,3.471,3.471,0,0,1,1.05,2.755l-.018.053H22.526a1.84,1.84,0,0,0-.308-1.1A1.054,1.054,0,0,0,21.3-7.4a1.221,1.221,0,0,0-1.2.69,4.266,4.266,0,0,0-.338,1.859v.2A4.251,4.251,0,0,0,20.1-2.777,1.24,1.24,0,0,0,21.322-2.1ZM29.575,0H26.6V-9.51h2.979Zm0-11.716H26.6v-2h2.979ZM36.888-.009A3.588,3.588,0,0,1,36.6-.686a5.189,5.189,0,0,1-.18-.791,3.634,3.634,0,0,1-.954,1.208,2.3,2.3,0,0,1-1.481.453,3.293,3.293,0,0,1-2.325-.769,2.717,2.717,0,0,1-.831-2.1A2.535,2.535,0,0,1,31.9-4.865a5.513,5.513,0,0,1,3.226-.769h1.222v-.677a1.355,1.355,0,0,0-.29-.932,1.13,1.13,0,0,0-.888-.325,1.071,1.071,0,0,0-.769.242,1,1,0,0,0-.25.751l-2.883-.009-.018-.053a2.481,2.481,0,0,1,1.085-2.175,4.864,4.864,0,0,1,3.028-.875,4.429,4.429,0,0,1,2.861.879,3.037,3.037,0,0,1,1.094,2.514v3.586A7.315,7.315,0,0,0,39.441-1.3,7.531,7.531,0,0,0,39.823,0ZM34.8-1.934a1.81,1.81,0,0,0,.962-.255,1.459,1.459,0,0,0,.584-.606V-4.052h-1.2a1.343,1.343,0,0,0-1.028.343,1.233,1.233,0,0,0-.316.87.841.841,0,0,0,.277.655A1.027,1.027,0,0,0,34.8-1.934Z" transform="translate(875 8561)" fill="#00104e"/>
    <path id="Trazado_884199" data-name="Trazado 884199" d="M-42.586-2.133h.047l3.633-9.242h1.914V0h-1.539V-8.523l-.047-.008L-42.023,0h-1.07l-3.547-8.812-.047.008V0h-1.539V-11.375H-46.2Zm13.414.883A2.863,2.863,0,0,1-30.2-.2a2.8,2.8,0,0,1-1.445.367A2.716,2.716,0,0,1-33.8-.719a4.1,4.1,0,0,1-.773-2.75V-8.453h1.539v5a3.147,3.147,0,0,0,.4,1.859,1.481,1.481,0,0,0,1.242.508,2.531,2.531,0,0,0,1.355-.332,2.077,2.077,0,0,0,.809-.941V-8.453h1.539V0H-29.07Zm7.086.211a1.81,1.81,0,0,0,1.242-.473,1.494,1.494,0,0,0,.531-1.16h1.391l.023.047a2.428,2.428,0,0,1-.937,1.941,3.313,3.313,0,0,1-2.25.848,3.319,3.319,0,0,1-2.75-1.211A4.674,4.674,0,0,1-25.8-4.062v-.328a4.654,4.654,0,0,1,.973-3,3.317,3.317,0,0,1,2.746-1.215,3.189,3.189,0,0,1,2.316.875A2.775,2.775,0,0,1-18.9-5.586l-.016.047h-1.4a1.865,1.865,0,0,0-.5-1.316,1.658,1.658,0,0,0-1.27-.543,1.777,1.777,0,0,0-1.652.879,4.114,4.114,0,0,0-.52,2.129v.328a4.192,4.192,0,0,0,.512,2.148A1.776,1.776,0,0,0-22.086-1.039Zm6.555-6.281a3.119,3.119,0,0,1,1.074-.949,2.947,2.947,0,0,1,1.41-.34,2.73,2.73,0,0,1,2.105.813,3.574,3.574,0,0,1,.754,2.5V0h-1.539V-5.312a2.263,2.263,0,0,0-.449-1.547,1.709,1.709,0,0,0-1.34-.5,2.514,2.514,0,0,0-1.2.27,2.174,2.174,0,0,0-.82.754V0H-17.07V-12.187h1.539Zm7.2,3.016A4.654,4.654,0,0,1-7.32-7.395,3.406,3.406,0,0,1-4.562-8.609,3.439,3.439,0,0,1-1.785-7.4,4.639,4.639,0,0,1-.766-4.3v.172A4.631,4.631,0,0,1-1.781-1.039,3.429,3.429,0,0,1-4.547.164a3.436,3.436,0,0,1-2.77-1.207,4.623,4.623,0,0,1-1.02-3.09Zm1.539.172A4.009,4.009,0,0,0-6.23-1.914a1.875,1.875,0,0,0,1.684.875,1.87,1.87,0,0,0,1.672-.875A3.988,3.988,0,0,0-2.3-4.133V-4.3a3.976,3.976,0,0,0-.574-2.211A1.882,1.882,0,0,0-4.562-7.4a1.856,1.856,0,0,0-1.668.883A4.018,4.018,0,0,0-6.8-4.3Z" transform="translate(620 8334)" fill="#00104e"/>
    <path id="Trazado_884200" data-name="Trazado 884200" d="M-42.289-2.133h.047l3.633-9.242H-36.7V0h-1.539V-8.523l-.047-.008L-41.727,0H-42.8l-3.547-8.812-.047.008V0H-47.93V-11.375h2.023Zm13.414.883A2.863,2.863,0,0,1-29.9-.2a2.8,2.8,0,0,1-1.445.367A2.716,2.716,0,0,1-33.5-.719a4.1,4.1,0,0,1-.773-2.75V-8.453h1.539v5a3.147,3.147,0,0,0,.4,1.859,1.481,1.481,0,0,0,1.242.508,2.531,2.531,0,0,0,1.355-.332,2.077,2.077,0,0,0,.809-.941V-8.453h1.539V0h-1.383Zm7.086.211a1.81,1.81,0,0,0,1.242-.473,1.494,1.494,0,0,0,.531-1.16h1.391l.023.047a2.428,2.428,0,0,1-.937,1.941,3.313,3.313,0,0,1-2.25.848,3.319,3.319,0,0,1-2.75-1.211,4.674,4.674,0,0,1-.969-3.016v-.328a4.654,4.654,0,0,1,.973-3,3.317,3.317,0,0,1,2.746-1.215,3.189,3.189,0,0,1,2.316.875A2.775,2.775,0,0,1-18.6-5.586l-.016.047h-1.4a1.865,1.865,0,0,0-.5-1.316,1.658,1.658,0,0,0-1.27-.543,1.777,1.777,0,0,0-1.652.879,4.114,4.114,0,0,0-.52,2.129v.328a4.192,4.192,0,0,0,.512,2.148A1.776,1.776,0,0,0-21.789-1.039Zm6.555-6.281A3.119,3.119,0,0,1-14.16-8.27a2.947,2.947,0,0,1,1.41-.34,2.73,2.73,0,0,1,2.105.813,3.574,3.574,0,0,1,.754,2.5V0H-11.43V-5.312a2.263,2.263,0,0,0-.449-1.547,1.709,1.709,0,0,0-1.34-.5,2.514,2.514,0,0,0-1.2.27,2.174,2.174,0,0,0-.82.754V0h-1.539V-12.187h1.539ZM-2.484,0q-.078-.383-.121-.676a4.96,4.96,0,0,1-.051-.59A3.589,3.589,0,0,1-3.777-.246a2.867,2.867,0,0,1-1.488.41A2.763,2.763,0,0,1-7.277-.512a2.486,2.486,0,0,1-.691-1.863,2.183,2.183,0,0,1,.98-1.895,4.579,4.579,0,0,1,2.66-.684h1.672v-.836a1.551,1.551,0,0,0-.453-1.176A1.779,1.779,0,0,0-4.391-7.4,1.859,1.859,0,0,0-5.6-7.023a1.125,1.125,0,0,0-.461.9l-1.461.016-.016-.047a2.023,2.023,0,0,1,.863-1.687A3.578,3.578,0,0,1-4.3-8.609a3.49,3.49,0,0,1,2.313.73,2.588,2.588,0,0,1,.875,2.105V-1.7a7.923,7.923,0,0,0,.047.875A4.5,4.5,0,0,0-.9,0ZM-5.039-1.125a2.739,2.739,0,0,0,1.508-.43,2.042,2.042,0,0,0,.875-.984V-3.914H-4.383a2.24,2.24,0,0,0-1.488.469,1.4,1.4,0,0,0-.559,1.1,1.159,1.159,0,0,0,.352.891A1.472,1.472,0,0,0-5.039-1.125Z" transform="translate(1009 8520)" fill="#00104e"/>
    <path id="Trazado_884201" data-name="Trazado 884201" d="M-33.469-4.562V0h-1.539V-11.375h4.352a4.009,4.009,0,0,1,2.832.938,3.207,3.207,0,0,1,1.012,2.469,3.2,3.2,0,0,1-1.012,2.477,4.031,4.031,0,0,1-2.832.93Zm0-1.2h2.813a2.231,2.231,0,0,0,1.727-.621,2.227,2.227,0,0,0,.57-1.566,2.26,2.26,0,0,0-.574-1.578,2.21,2.21,0,0,0-1.723-.633h-2.812ZM-25.508-4.3a4.654,4.654,0,0,1,1.016-3.09,3.406,3.406,0,0,1,2.758-1.215A3.439,3.439,0,0,1-18.957-7.4,4.639,4.639,0,0,1-17.937-4.3v.172a4.631,4.631,0,0,1-1.016,3.094,3.429,3.429,0,0,1-2.766,1.2,3.436,3.436,0,0,1-2.77-1.207,4.623,4.623,0,0,1-1.02-3.09Zm1.539.172A4.009,4.009,0,0,0-23.4-1.914a1.875,1.875,0,0,0,1.684.875,1.87,1.87,0,0,0,1.672-.875,3.988,3.988,0,0,0,.57-2.219V-4.3a3.976,3.976,0,0,0-.574-2.211A1.882,1.882,0,0,0-21.734-7.4a1.856,1.856,0,0,0-1.668.883A4.018,4.018,0,0,0-23.969-4.3ZM-12.7-1.039a1.81,1.81,0,0,0,1.242-.473,1.494,1.494,0,0,0,.531-1.16h1.391l.023.047a2.428,2.428,0,0,1-.937,1.941A3.313,3.313,0,0,1-12.7.164a3.319,3.319,0,0,1-2.75-1.211,4.674,4.674,0,0,1-.969-3.016v-.328a4.654,4.654,0,0,1,.973-3A3.317,3.317,0,0,1-12.7-8.609a3.189,3.189,0,0,1,2.316.875,2.775,2.775,0,0,1,.871,2.148l-.016.047h-1.4a1.865,1.865,0,0,0-.5-1.316A1.658,1.658,0,0,0-12.7-7.4a1.777,1.777,0,0,0-1.652.879,4.114,4.114,0,0,0-.52,2.129v.328a4.192,4.192,0,0,0,.512,2.148A1.776,1.776,0,0,0-12.7-1.039ZM-2.484,0q-.078-.383-.121-.676a4.96,4.96,0,0,1-.051-.59A3.589,3.589,0,0,1-3.777-.246a2.867,2.867,0,0,1-1.488.41A2.763,2.763,0,0,1-7.277-.512a2.486,2.486,0,0,1-.691-1.863,2.183,2.183,0,0,1,.98-1.895,4.579,4.579,0,0,1,2.66-.684h1.672v-.836a1.551,1.551,0,0,0-.453-1.176A1.779,1.779,0,0,0-4.391-7.4,1.859,1.859,0,0,0-5.6-7.023a1.125,1.125,0,0,0-.461.9l-1.461.016-.016-.047a2.023,2.023,0,0,1,.863-1.687A3.578,3.578,0,0,1-4.3-8.609a3.49,3.49,0,0,1,2.313.73,2.588,2.588,0,0,1,.875,2.105V-1.7a7.923,7.923,0,0,0,.047.875A4.5,4.5,0,0,0-.9,0ZM-5.039-1.125a2.739,2.739,0,0,0,1.508-.43,2.042,2.042,0,0,0,.875-.984V-3.914H-4.383a2.24,2.24,0,0,0-1.488.469,1.4,1.4,0,0,0-.559,1.1,1.159,1.159,0,0,0,.352.891A1.472,1.472,0,0,0-5.039-1.125Z" transform="translate(793 8520)" fill="#00104e"/>
    <path id="Trazado_884202" data-name="Trazado 884202" d="M-33.766-4.562V0H-35.3V-11.375h4.352a4.009,4.009,0,0,1,2.832.938,3.207,3.207,0,0,1,1.012,2.469,3.2,3.2,0,0,1-1.012,2.477,4.031,4.031,0,0,1-2.832.93Zm0-1.2h2.813a2.231,2.231,0,0,0,1.727-.621,2.227,2.227,0,0,0,.57-1.566,2.26,2.26,0,0,0-.574-1.578,2.21,2.21,0,0,0-1.723-.633h-2.812ZM-25.8-4.3a4.654,4.654,0,0,1,1.016-3.09,3.406,3.406,0,0,1,2.758-1.215A3.439,3.439,0,0,1-19.254-7.4,4.639,4.639,0,0,1-18.234-4.3v.172A4.631,4.631,0,0,1-19.25-1.039a3.429,3.429,0,0,1-2.766,1.2,3.436,3.436,0,0,1-2.77-1.207,4.623,4.623,0,0,1-1.02-3.09Zm1.539.172A4.009,4.009,0,0,0-23.7-1.914a1.875,1.875,0,0,0,1.684.875,1.87,1.87,0,0,0,1.672-.875,3.988,3.988,0,0,0,.57-2.219V-4.3a3.976,3.976,0,0,0-.574-2.211A1.882,1.882,0,0,0-22.031-7.4a1.856,1.856,0,0,0-1.668.883A4.018,4.018,0,0,0-24.266-4.3Zm11.273,3.094a1.81,1.81,0,0,0,1.242-.473,1.494,1.494,0,0,0,.531-1.16h1.391l.023.047a2.428,2.428,0,0,1-.937,1.941,3.313,3.313,0,0,1-2.25.848,3.319,3.319,0,0,1-2.75-1.211,4.674,4.674,0,0,1-.969-3.016v-.328a4.654,4.654,0,0,1,.973-3,3.317,3.317,0,0,1,2.746-1.215,3.189,3.189,0,0,1,2.316.875A2.775,2.775,0,0,1-9.8-5.586l-.016.047h-1.4a1.865,1.865,0,0,0-.5-1.316,1.658,1.658,0,0,0-1.27-.543,1.777,1.777,0,0,0-1.652.879,4.114,4.114,0,0,0-.52,2.129v.328a4.192,4.192,0,0,0,.512,2.148A1.776,1.776,0,0,0-12.992-1.039ZM-8.336-4.3A4.654,4.654,0,0,1-7.32-7.395,3.406,3.406,0,0,1-4.562-8.609,3.439,3.439,0,0,1-1.785-7.4,4.639,4.639,0,0,1-.766-4.3v.172A4.631,4.631,0,0,1-1.781-1.039,3.429,3.429,0,0,1-4.547.164a3.436,3.436,0,0,1-2.77-1.207,4.623,4.623,0,0,1-1.02-3.09Zm1.539.172A4.009,4.009,0,0,0-6.23-1.914a1.875,1.875,0,0,0,1.684.875,1.87,1.87,0,0,0,1.672-.875A3.988,3.988,0,0,0-2.3-4.133V-4.3a3.976,3.976,0,0,0-.574-2.211A1.882,1.882,0,0,0-4.562-7.4a1.856,1.856,0,0,0-1.668.883A4.018,4.018,0,0,0-6.8-4.3Z" transform="translate(621 8427)" fill="#00104e"/>
    <path id="Trazado_884203" data-name="Trazado 884203" d="M-48.381-6.39h1.651v2.942h-1.651V0h-3.8V-3.448h-6.5L-58.9-5.784l6.727-10.534v-.034h3.8Zm-7.266,0h3.47v-5.087l-.067-.011-.416.842ZM-40.812,0H-44.6V-3.189h3.785Zm22.259-6.7a6.833,6.833,0,0,1-1.915,4.981,6.683,6.683,0,0,1-5,1.96,6.767,6.767,0,0,1-5.042-1.96A6.8,6.8,0,0,1-32.445-6.7V-9.647a6.816,6.816,0,0,1,1.926-4.975,6.724,6.724,0,0,1,5.026-1.965,6.714,6.714,0,0,1,5.009,1.965,6.805,6.805,0,0,1,1.932,4.975Zm-3.785-2.965a4.73,4.73,0,0,0-.825-2.875,2.723,2.723,0,0,0-2.33-1.123,2.732,2.732,0,0,0-2.353,1.117,4.771,4.771,0,0,0-.814,2.881V-6.7a4.77,4.77,0,0,0,.825,2.9,2.757,2.757,0,0,0,2.364,1.123,2.7,2.7,0,0,0,2.313-1.123,4.793,4.793,0,0,0,.82-2.9ZM-5.211-5.817A7.362,7.362,0,0,1-6.4-1.4,4.078,4.078,0,0,1-9.928.236a3.405,3.405,0,0,1-1.729-.427,3.761,3.761,0,0,1-1.269-1.235L-13.151,0h-3.313V-17.52h3.8v6.547a3.661,3.661,0,0,1,1.174-1.039,3.17,3.17,0,0,1,1.544-.365,4.037,4.037,0,0,1,3.543,1.718,7.922,7.922,0,0,1,1.2,4.6ZM-9-6.053a6.247,6.247,0,0,0-.4-2.51,1.5,1.5,0,0,0-1.5-.893,2.277,2.277,0,0,0-1.061.23,1.722,1.722,0,0,0-.7.668v5.11a1.654,1.654,0,0,0,.713.573,2.707,2.707,0,0,0,1.073.191,1.51,1.51,0,0,0,1.5-.781A5.576,5.576,0,0,0-9-5.817ZM2.8-3.414a.991.991,0,0,0-.511-.8A5.511,5.511,0,0,0,.427-4.852a7.337,7.337,0,0,1-3.2-1.286,2.913,2.913,0,0,1-1.078-2.4A3.417,3.417,0,0,1-2.5-11.259a5.543,5.543,0,0,1,3.65-1.117,6.268,6.268,0,0,1,3.863,1.084,3.186,3.186,0,0,1,1.37,2.8l-.022.067H2.673a1.5,1.5,0,0,0-.359-1.089,1.59,1.59,0,0,0-1.179-.371,1.542,1.542,0,0,0-1,.326,1.021,1.021,0,0,0-.4.831.989.989,0,0,0,.466.82A5.272,5.272,0,0,0,2.078-7.3a7.557,7.557,0,0,1,3.3,1.308A3,3,0,0,1,6.446-3.526a3.218,3.218,0,0,1-1.454,2.7A6.379,6.379,0,0,1,1.146.236,5.768,5.768,0,0,1-2.78-1.022,3.465,3.465,0,0,1-4.155-3.83l.022-.067H-.7A1.523,1.523,0,0,0-.174-2.65a2.3,2.3,0,0,0,1.421.382,1.9,1.9,0,0,0,1.157-.3A1,1,0,0,0,2.8-3.414ZM13.623.236A5.641,5.641,0,0,1,9.293-1.437,5.951,5.951,0,0,1,7.727-5.671V-6.1A6.8,6.8,0,0,1,9.2-10.635a5.246,5.246,0,0,1,4.273-1.741A4.921,4.921,0,0,1,17.289-10.9a5.727,5.727,0,0,1,1.353,4.032v1.988H11.68l-.022.067a2.36,2.36,0,0,0,.708,1.544,2.471,2.471,0,0,0,1.774.59,7.69,7.69,0,0,0,1.814-.18,11.433,11.433,0,0,0,1.656-.573l.91,2.313a6.946,6.946,0,0,1-2.111.966A9.744,9.744,0,0,1,13.623.236Zm-.146-9.692a1.566,1.566,0,0,0-1.342.578,2.9,2.9,0,0,0-.5,1.567l.022.056h3.279v-.292a2.525,2.525,0,0,0-.331-1.426A1.27,1.27,0,0,0,13.477-9.456Zm13.488.539-1.235-.011a2.1,2.1,0,0,0-1.067.241,1.49,1.49,0,0,0-.618.679V0h-3.8V-12.151H23.82l.135,1.786a3.664,3.664,0,0,1,1.011-1.482,2.218,2.218,0,0,1,1.471-.528,2.822,2.822,0,0,1,.46.034,3.483,3.483,0,0,1,.427.1Zm6.143,3.908.225,1.292.067.011.247-1.3,1.606-7.143h3.987L35.286,0H31.434L27.481-12.151h4Zm14.128,5a4.584,4.584,0,0,1-.365-.865,6.63,6.63,0,0,1-.23-1.011A4.643,4.643,0,0,1,45.422-.343a2.941,2.941,0,0,1-1.892.578,4.207,4.207,0,0,1-2.97-.983A3.471,3.471,0,0,1,39.5-3.425a3.239,3.239,0,0,1,1.359-2.791A7.045,7.045,0,0,1,44.978-7.2h1.561v-.865a1.731,1.731,0,0,0-.371-1.19,1.443,1.443,0,0,0-1.134-.416,1.369,1.369,0,0,0-.983.309,1.281,1.281,0,0,0-.32.96l-3.684-.011-.022-.067a3.17,3.17,0,0,1,1.387-2.78,6.215,6.215,0,0,1,3.869-1.117,5.659,5.659,0,0,1,3.656,1.123,3.881,3.881,0,0,1,1.4,3.212v4.582a9.347,9.347,0,0,0,.163,1.8A9.623,9.623,0,0,0,50.986,0ZM44.563-2.471a2.312,2.312,0,0,0,1.23-.326,1.864,1.864,0,0,0,.747-.775V-5.177H45.012a1.716,1.716,0,0,0-1.314.438,1.575,1.575,0,0,0-.4,1.112,1.075,1.075,0,0,0,.354.837A1.312,1.312,0,0,0,44.563-2.471ZM59.128-8.917l-1.235-.011a2.1,2.1,0,0,0-1.067.241,1.49,1.49,0,0,0-.618.679V0h-3.8V-12.151h3.571l.135,1.786a3.664,3.664,0,0,1,1.011-1.482,2.218,2.218,0,0,1,1.471-.528,2.822,2.822,0,0,1,.46.034,3.483,3.483,0,0,1,.427.1Z" transform="translate(765 8429)" fill="#fff"/>
    <path id="Trazado_884204" data-name="Trazado 884204" d="M-53.76,0h-3.8V-13.106h-3.291V-16l7.086-.584Zm9.209,0h-3.785V-3.189h3.785Zm21.226-5.514.022.067a5.256,5.256,0,0,1-1.578,4.24A6.693,6.693,0,0,1-29.48.236a6.548,6.548,0,0,1-4.868-1.853,6.594,6.594,0,0,1-1.836-4.852V-9.883a6.74,6.74,0,0,1,1.769-4.846,6.158,6.158,0,0,1,4.677-1.859,7.208,7.208,0,0,1,4.812,1.449,5.107,5.107,0,0,1,1.656,4.211l-.034.067H-27a3.005,3.005,0,0,0-.64-2.156,2.856,2.856,0,0,0-2.1-.651A2.221,2.221,0,0,0-31.7-12.64a4.858,4.858,0,0,0-.685,2.735v3.437a4.573,4.573,0,0,0,.752,2.751A2.506,2.506,0,0,0-29.48-2.684,2.4,2.4,0,0,0-27.6-3.335a3.266,3.266,0,0,0,.578-2.179Zm1.393-.674a6.423,6.423,0,0,1,1.55-4.464,5.516,5.516,0,0,1,4.324-1.724,5.53,5.53,0,0,1,4.335,1.724,6.423,6.423,0,0,1,1.55,4.464v.236a6.418,6.418,0,0,1-1.55,4.47A5.511,5.511,0,0,1-16.037.236a5.553,5.553,0,0,1-4.346-1.718,6.418,6.418,0,0,1-1.55-4.47Zm3.8.236a5.024,5.024,0,0,0,.477,2.4,1.7,1.7,0,0,0,1.623.87,1.678,1.678,0,0,0,1.595-.876,4.98,4.98,0,0,0,.483-2.392v-.236a5,5,0,0,0-.483-2.375,1.691,1.691,0,0,0-1.617-.893,1.668,1.668,0,0,0-1.6.9,5.055,5.055,0,0,0-.477,2.37ZM-4.526,0H-8.333V-17.52h3.807ZM4.818-.011a4.584,4.584,0,0,1-.365-.865,6.63,6.63,0,0,1-.23-1.011A4.643,4.643,0,0,1,3-.343,2.941,2.941,0,0,1,1.112.236a4.207,4.207,0,0,1-2.97-.983A3.471,3.471,0,0,1-2.92-3.425,3.239,3.239,0,0,1-1.561-6.216,7.045,7.045,0,0,1,2.561-7.2H4.122v-.865a1.731,1.731,0,0,0-.371-1.19,1.443,1.443,0,0,0-1.134-.416,1.369,1.369,0,0,0-.983.309,1.281,1.281,0,0,0-.32.96L-2.37-8.412l-.022-.067a3.17,3.17,0,0,1,1.387-2.78,6.215,6.215,0,0,1,3.869-1.117,5.659,5.659,0,0,1,3.656,1.123,3.881,3.881,0,0,1,1.4,3.212v4.582a9.348,9.348,0,0,0,.163,1.8A9.623,9.623,0,0,0,8.569,0ZM2.145-2.471A2.312,2.312,0,0,0,3.375-2.8a1.864,1.864,0,0,0,.747-.775V-5.177H2.594a1.716,1.716,0,0,0-1.314.438,1.575,1.575,0,0,0-.4,1.112,1.075,1.075,0,0,0,.354.837A1.312,1.312,0,0,0,2.145-2.471Zm19.1-3.347A7.362,7.362,0,0,1,20.058-1.4,4.078,4.078,0,0,1,16.531.236,3.405,3.405,0,0,1,14.8-.191a3.761,3.761,0,0,1-1.269-1.235L13.308,0H10V-17.52h3.8v6.547a3.661,3.661,0,0,1,1.174-1.039,3.17,3.17,0,0,1,1.544-.365,4.037,4.037,0,0,1,3.543,1.718,7.922,7.922,0,0,1,1.2,4.6Zm-3.785-.236a6.247,6.247,0,0,0-.4-2.51,1.5,1.5,0,0,0-1.5-.893,2.277,2.277,0,0,0-1.061.23,1.722,1.722,0,0,0-.7.668v5.11a1.654,1.654,0,0,0,.713.573,2.707,2.707,0,0,0,1.073.191,1.51,1.51,0,0,0,1.5-.781,5.576,5.576,0,0,0,.382-2.353Zm4.953-.135a6.423,6.423,0,0,1,1.55-4.464,5.516,5.516,0,0,1,4.324-1.724,5.53,5.53,0,0,1,4.335,1.724,6.423,6.423,0,0,1,1.55,4.464v.236a6.418,6.418,0,0,1-1.55,4.47A5.511,5.511,0,0,1,28.312.236a5.553,5.553,0,0,1-4.346-1.718,6.418,6.418,0,0,1-1.55-4.47Zm3.8.236a5.024,5.024,0,0,0,.477,2.4,1.7,1.7,0,0,0,1.623.87,1.678,1.678,0,0,0,1.595-.876,4.98,4.98,0,0,0,.483-2.392v-.236a5,5,0,0,0-.483-2.375,1.691,1.691,0,0,0-1.617-.893,1.668,1.668,0,0,0-1.6.9,5.055,5.055,0,0,0-.477,2.37ZM42.563-8.917l-1.235-.011a2.1,2.1,0,0,0-1.067.241,1.49,1.49,0,0,0-.618.679V0h-3.8V-12.151h3.571l.135,1.786a3.664,3.664,0,0,1,1.011-1.482,2.218,2.218,0,0,1,1.471-.528,2.822,2.822,0,0,1,.46.034,3.483,3.483,0,0,1,.427.1ZM50.975-.011a4.584,4.584,0,0,1-.365-.865,6.63,6.63,0,0,1-.23-1.011A4.643,4.643,0,0,1,49.161-.343a2.941,2.941,0,0,1-1.892.578A4.207,4.207,0,0,1,44.3-.747a3.471,3.471,0,0,1-1.061-2.678A3.239,3.239,0,0,1,44.6-6.216,7.045,7.045,0,0,1,48.718-7.2h1.561v-.865a1.731,1.731,0,0,0-.371-1.19,1.443,1.443,0,0,0-1.134-.416,1.369,1.369,0,0,0-.983.309,1.281,1.281,0,0,0-.32.96l-3.684-.011-.022-.067a3.17,3.17,0,0,1,1.387-2.78,6.215,6.215,0,0,1,3.869-1.117,5.659,5.659,0,0,1,3.656,1.123,3.881,3.881,0,0,1,1.4,3.212v4.582a9.347,9.347,0,0,0,.163,1.8A9.623,9.623,0,0,0,54.726,0ZM48.3-2.471a2.312,2.312,0,0,0,1.23-.326,1.864,1.864,0,0,0,.747-.775V-5.177H48.751a1.716,1.716,0,0,0-1.314.438,1.575,1.575,0,0,0-.4,1.112,1.075,1.075,0,0,0,.354.837A1.312,1.312,0,0,0,48.3-2.471ZM62.868-8.917l-1.235-.011a2.1,2.1,0,0,0-1.067.241,1.49,1.49,0,0,0-.618.679V0h-3.8V-12.151h3.571l.135,1.786a3.664,3.664,0,0,1,1.011-1.482,2.218,2.218,0,0,1,1.471-.528,2.822,2.822,0,0,1,.46.034,3.483,3.483,0,0,1,.427.1Z" transform="translate(981 8334)" fill="#fff"/>
    <path id="Trazado_884205" data-name="Trazado 884205" d="M-56.321,0H-67.686V-2.471L-62.655-8a10.865,10.865,0,0,0,1.482-2.044A3.475,3.475,0,0,0-60.7-11.6a2.422,2.422,0,0,0-.427-1.51,1.618,1.618,0,0,0-1.37-.556,1.565,1.565,0,0,0-1.376.724,3.237,3.237,0,0,0-.489,1.847h-3.717l-.022-.067a5.091,5.091,0,0,1,1.494-3.846,5.5,5.5,0,0,1,4.11-1.578,5.968,5.968,0,0,1,4.144,1.32,4.649,4.649,0,0,1,1.46,3.633A4.787,4.787,0,0,1-57.7-8.889a34.3,34.3,0,0,1-2.965,3.532l-1.988,2.381.022.056h6.312Zm6.132,0h-3.785V-3.189h3.785Zm21.226-5.514.022.067a5.256,5.256,0,0,1-1.578,4.24,6.693,6.693,0,0,1-4.6,1.443,6.548,6.548,0,0,1-4.868-1.853,6.594,6.594,0,0,1-1.836-4.852V-9.883a6.74,6.74,0,0,1,1.769-4.846,6.158,6.158,0,0,1,4.677-1.859,7.208,7.208,0,0,1,4.812,1.449,5.107,5.107,0,0,1,1.656,4.211l-.034.067h-3.695a3.005,3.005,0,0,0-.64-2.156,2.856,2.856,0,0,0-2.1-.651,2.221,2.221,0,0,0-1.965,1.028,4.858,4.858,0,0,0-.685,2.735v3.437a4.573,4.573,0,0,0,.752,2.751,2.506,2.506,0,0,0,2.156,1.033,2.4,2.4,0,0,0,1.881-.651,3.266,3.266,0,0,0,.578-2.179Zm1.393-.674a6.423,6.423,0,0,1,1.55-4.464A5.516,5.516,0,0,1-21.7-12.376a5.53,5.53,0,0,1,4.335,1.724,6.423,6.423,0,0,1,1.55,4.464v.236a6.418,6.418,0,0,1-1.55,4.47A5.511,5.511,0,0,1-21.675.236a5.553,5.553,0,0,1-4.346-1.718,6.418,6.418,0,0,1-1.55-4.47Zm3.8.236a5.024,5.024,0,0,0,.477,2.4,1.7,1.7,0,0,0,1.623.87A1.678,1.678,0,0,0-20.08-3.56,4.98,4.98,0,0,0-19.6-5.952v-.236a5,5,0,0,0-.483-2.375A1.691,1.691,0,0,0-21.7-9.456a1.668,1.668,0,0,0-1.6.9,5.055,5.055,0,0,0-.477,2.37Zm13.207-6.2.135,1.606A4.019,4.019,0,0,1-8.99-11.9,4.078,4.078,0,0,1-7-12.376a3.715,3.715,0,0,1,1.954.494,3.037,3.037,0,0,1,1.235,1.5,4.079,4.079,0,0,1,1.443-1.477A3.968,3.968,0,0,1-.3-12.376,3.375,3.375,0,0,1,2.488-11.1,6.249,6.249,0,0,1,3.5-7.176V0H-.3V-7.176A3.156,3.156,0,0,0-.668-8.968a1.279,1.279,0,0,0-1.095-.489,2.274,2.274,0,0,0-.971.2,2.049,2.049,0,0,0-.713.545q0,.191.011.331t.011.275V0h-3.8V-7.176a3.193,3.193,0,0,0-.359-1.8,1.3,1.3,0,0,0-1.112-.483,2.191,2.191,0,0,0-.938.2,2.049,2.049,0,0,0-.713.545V0h-3.8V-12.151ZM12.994-1.819A3.994,3.994,0,0,1,11.6-.3,3.68,3.68,0,0,1,9.613.236,3.6,3.6,0,0,1,6.654-1.089a6.46,6.46,0,0,1-1.073-4.1v-6.963H9.366v6.985a3.685,3.685,0,0,0,.365,1.954,1.277,1.277,0,0,0,1.129.528,3.1,3.1,0,0,0,1.067-.168,2.062,2.062,0,0,0,.786-.505v-8.793h3.8V0H13.454Zm9.1-10.332.146,1.707a4.4,4.4,0,0,1,1.471-1.421,3.807,3.807,0,0,1,1.954-.511,3.426,3.426,0,0,1,2.791,1.213,6,6,0,0,1,1.005,3.852V0h-3.8V-7.322a2.785,2.785,0,0,0-.371-1.645,1.27,1.27,0,0,0-1.078-.489,2.668,2.668,0,0,0-1.089.213,2.175,2.175,0,0,0-.809.606V0H18.53V-12.151ZM35.5,0H31.692V-12.151H35.5Zm0-14.97H31.692V-17.52H35.5ZM43.024-2.684a1.484,1.484,0,0,0,1.157-.421,1.755,1.755,0,0,0,.382-1.219h3.459l.022.067a3.989,3.989,0,0,1-1.376,3.24A5.308,5.308,0,0,1,43.024.236a5.376,5.376,0,0,1-4.273-1.713,6.531,6.531,0,0,1-1.5-4.464V-6.2a6.551,6.551,0,0,1,1.494-4.458A5.336,5.336,0,0,1,43-12.376a5.227,5.227,0,0,1,3.7,1.286,4.435,4.435,0,0,1,1.342,3.521l-.022.067H44.563a2.352,2.352,0,0,0-.393-1.409A1.347,1.347,0,0,0,43-9.456a1.56,1.56,0,0,0-1.533.882A5.452,5.452,0,0,0,41.036-6.2v.258a5.431,5.431,0,0,0,.432,2.392A1.584,1.584,0,0,0,43.024-2.684ZM56.613-.011a4.584,4.584,0,0,1-.365-.865,6.63,6.63,0,0,1-.23-1.011A4.643,4.643,0,0,1,54.8-.343a2.941,2.941,0,0,1-1.892.578,4.207,4.207,0,0,1-2.97-.983,3.471,3.471,0,0,1-1.061-2.678,3.239,3.239,0,0,1,1.359-2.791A7.045,7.045,0,0,1,54.355-7.2h1.561v-.865a1.731,1.731,0,0,0-.371-1.19,1.443,1.443,0,0,0-1.134-.416,1.369,1.369,0,0,0-.983.309,1.281,1.281,0,0,0-.32.96l-3.684-.011L49.4-8.479a3.17,3.17,0,0,1,1.387-2.78,6.215,6.215,0,0,1,3.869-1.117,5.659,5.659,0,0,1,3.656,1.123,3.881,3.881,0,0,1,1.4,3.212v4.582a9.347,9.347,0,0,0,.163,1.8A9.623,9.623,0,0,0,60.364,0ZM53.94-2.471A2.312,2.312,0,0,0,55.17-2.8a1.864,1.864,0,0,0,.747-.775V-5.177H54.389a1.716,1.716,0,0,0-1.314.438,1.575,1.575,0,0,0-.4,1.112,1.075,1.075,0,0,0,.354.837A1.312,1.312,0,0,0,53.94-2.471ZM68.506-8.917l-1.235-.011a2.1,2.1,0,0,0-1.067.241,1.49,1.49,0,0,0-.618.679V0h-3.8V-12.151h3.571l.135,1.786a3.664,3.664,0,0,1,1.011-1.482,2.218,2.218,0,0,1,1.471-.528,2.822,2.822,0,0,1,.46.034,3.483,3.483,0,0,1,.427.1Z" transform="translate(981 8429)" fill="#00104e"/>
    <path id="Trazado_5502" data-name="Trazado 5502" d="M4689.6,6191.5h-14.267V6286H4689.6" transform="translate(-4130.446 2137)" fill="none" stroke="#3a1d71" stroke-width="2"/>
    <path id="Trazado_5503" data-name="Trazado 5503" d="M4892,6391v9.5h212.938V6391" transform="translate(-4115.27 2137)" fill="none" stroke="#3a1d71" stroke-width="2"/>
  </g>
</svg>
