<svg xmlns="http://www.w3.org/2000/svg" width="290.797" height="655.276" viewBox="0 0 290.797 655.276">
  <g id="Grupo_1102294" data-name="Grupo 1102294" transform="translate(-245.653 -1368.5)">
    <path id="Trazado_884208" data-name="Trazado 884208" d="M84.741,0A84.741,84.741,0,1,1,0,84.741,84.741,84.741,0,0,1,84.741,0Z" transform="translate(326.653 1371.791)" fill="#fff6db"/>
    <path id="Elipse_1258_-_Contorno" data-name="Elipse 1258 - Contorno" d="M84.032-4A88.032,88.032,0,1,1-4,84.032,88.132,88.132,0,0,1,84.032-4Zm0,169.483a81.45,81.45,0,1,0-81.45-81.45A81.543,81.543,0,0,0,84.032,165.483Z" transform="translate(327.362 1372.5)" fill="#f0c518"/>
    <path id="Trazado_884209" data-name="Trazado 884209" d="M10,0H261.6a10,10,0,0,1,10,10V129.728a10,10,0,0,1-10,10H10a10,10,0,0,1-10-10V10A10,10,0,0,1,10,0Z" transform="translate(264.853 1664.684)" fill="#3a1d71"/>
    <path id="Trazado_884210" data-name="Trazado 884210" d="M10,0H261.6a10,10,0,0,1,10,10V72.273a10,10,0,0,1-10,10H10a10,10,0,0,1-10-10V10A10,10,0,0,1,10,0Z" transform="translate(264.853 1941.503)" fill="#3a1d71"/>
    <g id="Grupo_22607" data-name="Grupo 22607" transform="translate(366.751 1393.02)">
      <circle id="Elipse_1266" data-name="Elipse 1266" cx="21.006" cy="21.006" r="21.006" transform="translate(49.636 20.352)" fill="#65b4bb"/>
      <path id="Trazado_5573" data-name="Trazado 5573" d="M70.259,116.709v28.226l-32.577-11.3-4.924-1.709s12.81-21.5,13.181-22.1a13.121,13.121,0,0,1,11.187-6.254c.375,0,.748.016,1.114.047A13.136,13.136,0,0,1,70.259,116.709Z" transform="translate(-32.757 -103.575)" fill="#65b4bb"/>
    </g>
    <g id="Grupo_22608" data-name="Grupo 22608" transform="translate(366.751 1389.93)">
      <path id="Trazado_5574" data-name="Trazado 5574" d="M58.239,103.621l-8.987,20.306-11.571,9.707-4.924-1.709s12.81-21.5,13.181-22.1a13.121,13.121,0,0,1,11.187-6.254C57.5,103.575,57.873,103.59,58.239,103.621Z" transform="translate(-32.757 -100.485)" fill="#57a3a7"/>
      <path id="Trazado_5575" data-name="Trazado 5575" d="M173.637,91.107c.336-.564.557-.934.585-.98a5.153,5.153,0,0,1,9.542,2.7V103.9" transform="translate(-146.261 -87.673)" fill="#57a3a7"/>
    </g>
    <path id="Trazado_884211" data-name="Trazado 884211" d="M21.006,0A21.006,21.006,0,1,1,0,21.006,21.006,21.006,0,0,1,21.006,0Z" transform="translate(362.24 1413.372)" fill="#65b4bb"/>
    <path id="Trazado_5576" data-name="Trazado 5576" d="M288.193,103.9V92.827a5.153,5.153,0,0,1,9.542-2.7c.027.046.249.416.585.98" transform="translate(128.194 1302.257)" fill="#57a3a7"/>
    <g id="Grupo_22609" data-name="Grupo 22609" transform="translate(404.252 1393.02)">
      <path id="Trazado_5577" data-name="Trazado 5577" d="M325.7,131.925l-37.5,13.01V116.709a13.134,13.134,0,0,1,24.321-6.88C312.889,110.428,325.7,131.925,325.7,131.925Z" transform="translate(-276.062 -103.575)" fill="#65b4bb"/>
      <rect id="Rect치ngulo_5584" data-name="Rect치ngulo 5584" width="12.134" height="6.393" transform="translate(0 28.877)" fill="#65b4bb"/>
    </g>
    <g id="Grupo_22610" data-name="Grupo 22610" transform="translate(404.252 1395.393)">
      <rect id="Rect치ngulo_5585" data-name="Rect치ngulo 5585" width="12.134" height="13.236" transform="translate(0 13.27)" fill="#57a3a7"/>
      <path id="Trazado_5578" data-name="Trazado 5578" d="M296.891,137.754,288.2,152.022V126.549a13.119,13.119,0,0,1,5.6-10.761Z" transform="translate(-276.062 -115.788)" fill="#57a3a7"/>
    </g>
    <g id="Grupo_22611" data-name="Grupo 22611" transform="translate(369.404 1420.536)">
      <circle id="Elipse_1268" data-name="Elipse 1268" cx="13.842" cy="13.842" r="13.842" transform="translate(54.148)" fill="#a0dbfd"/>
      <circle id="Elipse_1269" data-name="Elipse 1269" cx="13.842" cy="13.842" r="13.842" fill="#a0dbfd"/>
    </g>
    <path id="Trazado_5579" data-name="Trazado 5579" d="M107.52,245.182a13.912,13.912,0,0,0-2.442.219,13.841,13.841,0,0,1,0,27.248,13.842,13.842,0,1,0,2.442-27.467Z" transform="translate(275.726 1175.355)" fill="#c1e9fd"/>
    <g id="Grupo_22612" data-name="Grupo 22612" transform="translate(369.403 1420.537)">
      <path id="Trazado_5580" data-name="Trazado 5580" d="M60.25,272.867a13.912,13.912,0,0,0,2.442-.219,13.841,13.841,0,0,1,0-27.248,13.842,13.842,0,1,0-2.442,27.467Z" transform="translate(-46.407 -245.181)" fill="#87cee9"/>
      <path id="Trazado_5581" data-name="Trazado 5581" d="M338.9,272.867a13.916,13.916,0,0,0,2.442-.219,13.841,13.841,0,0,1,0-27.248,13.842,13.842,0,1,0-2.442,27.467Z" transform="translate(-270.912 -245.181)" fill="#87cee9"/>
    </g>
    <path id="Trazado_5582" data-name="Trazado 5582" d="M386.173,245.182a13.908,13.908,0,0,0-2.442.219,13.841,13.841,0,0,1,0,27.248,13.842,13.842,0,1,0,2.442-27.467Z" transform="translate(51.221 1175.355)" fill="#c1e9fd"/>
    <path id="Trazado_5583" data-name="Trazado 5583" d="M81.553,89.14a14.793,14.793,0,0,0-14.778-6.885l0-.005a6.817,6.817,0,0,0-12.624,3.573V97.738h-8.8V85.824a6.817,6.817,0,0,0-12.627-3.568A14.794,14.794,0,0,0,17.938,89.14c-.038.061-.152.246-2.892,4.84a1.665,1.665,0,1,0,2.86,1.706c2.255-3.78,2.8-4.7,2.868-4.8a11.469,11.469,0,0,1,21.24,6.007h0V113.3a22.654,22.654,0,0,0-29.6-8.4l2.468-4.14a1.665,1.665,0,1,0-2.86-1.705C8.478,105,2.91,113.9,2.207,115.368a22.671,22.671,0,1,0,43.137,9.752V120.7h8.8v4.424a22.672,22.672,0,1,0,43.018-10C96.485,113.745,81.922,89.74,81.553,89.14Zm-2.835,1.747c.2.324,4.361,7.3,8.365,14.02a22.654,22.654,0,0,0-29.605,8.4V96.9h0a11.469,11.469,0,0,1,21.24-6.007Zm-21.24-5.064a3.489,3.489,0,0,1,5.812-2.6,14.875,14.875,0,0,0-5.812,4.333Zm-3.33,15.244v9.9h-8.8v-9.9ZM36.2,83.222a3.486,3.486,0,0,1,5.81,2.6v1.73A14.872,14.872,0,0,0,36.2,83.222ZM22.672,144.461A19.342,19.342,0,1,1,42.014,125.12,19.364,19.364,0,0,1,22.672,144.461Zm22.672-27.1V114.3h8.8v3.063Zm31.475,27.1A19.342,19.342,0,1,1,96.161,125.12,19.364,19.364,0,0,1,76.819,144.461Z" transform="translate(360.386 1309.241)"/>
    <path id="Trazado_5584" data-name="Trazado 5584" d="M345.624,246.774a1.665,1.665,0,1,0-3.134,1.127,12.193,12.193,0,1,1-2.547-4.174,1.665,1.665,0,0,0,2.438-2.269,15.46,15.46,0,1,0,3.242,5.316Z" transform="translate(106.179 1182.34)"/>
    <path id="Trazado_5585" data-name="Trazado 5585" d="M52.374,236.514a15.508,15.508,0,1,0,15.508,15.508A15.526,15.526,0,0,0,52.374,236.514Zm0,27.686a12.178,12.178,0,1,1,12.178-12.178A12.192,12.192,0,0,1,52.374,264.2Z" transform="translate(330.683 1182.339)"/>
    <path id="Trazado_884212" data-name="Trazado 884212" d="M-50.887-2.031H-46V0h-7.523V-11.375h2.641ZM-39.863-.008a3.189,3.189,0,0,1-.254-.6,4.612,4.612,0,0,1-.16-.7,3.23,3.23,0,0,1-.848,1.074,2.046,2.046,0,0,1-1.316.4A2.927,2.927,0,0,1-44.508-.52a2.415,2.415,0,0,1-.738-1.863A2.254,2.254,0,0,1-44.3-4.324a4.9,4.9,0,0,1,2.867-.684h1.086v-.6a1.2,1.2,0,0,0-.258-.828,1,1,0,0,0-.789-.289.952.952,0,0,0-.684.215.891.891,0,0,0-.223.668l-2.562-.008-.016-.047a2.2,2.2,0,0,1,.965-1.934,4.324,4.324,0,0,1,2.691-.777,3.937,3.937,0,0,1,2.543.781,2.7,2.7,0,0,1,.973,2.234v3.188a6.5,6.5,0,0,0,.113,1.25A6.694,6.694,0,0,0-37.254,0Zm-1.859-1.711a1.609,1.609,0,0,0,.855-.227,1.3,1.3,0,0,0,.52-.539V-3.6H-41.41a1.194,1.194,0,0,0-.914.3,1.1,1.1,0,0,0-.281.773.748.748,0,0,0,.246.582A.913.913,0,0,0-41.723-1.719ZM-32.629-4.3A4.468,4.468,0,0,1-31.551-7.41a3.837,3.837,0,0,1,3.008-1.2,3.847,3.847,0,0,1,3.016,1.2A4.468,4.468,0,0,1-24.449-4.3v.164a4.465,4.465,0,0,1-1.078,3.109,3.834,3.834,0,0,1-3,1.2,3.863,3.863,0,0,1-3.023-1.2,4.465,4.465,0,0,1-1.078-3.109Zm2.641.164a3.5,3.5,0,0,0,.332,1.668,1.181,1.181,0,0,0,1.129.605,1.168,1.168,0,0,0,1.109-.609,3.465,3.465,0,0,0,.336-1.664V-4.3a3.478,3.478,0,0,0-.336-1.652,1.177,1.177,0,0,0-1.125-.621,1.16,1.16,0,0,0-1.113.625A3.517,3.517,0,0,0-29.988-4.3Zm14.531.094a5.121,5.121,0,0,1-.828,3.07A2.837,2.837,0,0,1-18.738.164a2.369,2.369,0,0,1-1.2-.3,2.617,2.617,0,0,1-.883-.859L-20.98,0h-2.3V-12.187h2.641v4.555a2.547,2.547,0,0,1,.816-.723,2.205,2.205,0,0,1,1.074-.254,2.808,2.808,0,0,1,2.465,1.2,5.511,5.511,0,0,1,.832,3.2Zm-2.633-.164a4.346,4.346,0,0,0-.281-1.746,1.045,1.045,0,0,0-1.047-.621,1.584,1.584,0,0,0-.738.16,1.2,1.2,0,0,0-.488.465V-2.4a1.151,1.151,0,0,0,.5.4,1.883,1.883,0,0,0,.746.133,1.05,1.05,0,0,0,1.047-.543,3.879,3.879,0,0,0,.266-1.637Zm8.2,1.836a.689.689,0,0,0-.355-.559,3.834,3.834,0,0,0-1.293-.441,5.1,5.1,0,0,1-2.227-.895,2.026,2.026,0,0,1-.75-1.668,2.377,2.377,0,0,1,.938-1.895,3.856,3.856,0,0,1,2.539-.777,4.36,4.36,0,0,1,2.688.754,2.217,2.217,0,0,1,.953,1.949l-.016.047H-9.973a1.047,1.047,0,0,0-.25-.758,1.106,1.106,0,0,0-.82-.258,1.073,1.073,0,0,0-.7.227.71.71,0,0,0-.281.578.688.688,0,0,0,.324.57,3.668,3.668,0,0,0,1.309.422,5.257,5.257,0,0,1,2.3.91,2.088,2.088,0,0,1,.742,1.715A2.239,2.239,0,0,1-8.359-.574a4.438,4.438,0,0,1-2.676.738,4.013,4.013,0,0,1-2.73-.875,2.41,2.41,0,0,1-.957-1.953l.016-.047h2.391a1.06,1.06,0,0,0,.363.867,1.6,1.6,0,0,0,.988.266,1.319,1.319,0,0,0,.8-.207A.7.7,0,0,0-9.887-2.375ZM-2.355.164A3.924,3.924,0,0,1-5.367-1a4.14,4.14,0,0,1-1.09-2.945v-.3A4.73,4.73,0,0,1-5.43-7.4,3.649,3.649,0,0,1-2.457-8.609,3.423,3.423,0,0,1,.2-7.586a3.984,3.984,0,0,1,.941,2.8V-3.4H-3.707l-.016.047A1.641,1.641,0,0,0-3.23-2.277,1.719,1.719,0,0,0-2-1.867,5.35,5.35,0,0,0-.734-1.992a7.953,7.953,0,0,0,1.152-.4L1.051-.781A4.832,4.832,0,0,1-.418-.109,6.778,6.778,0,0,1-2.355.164Zm-.1-6.742a1.09,1.09,0,0,0-.934.4,2.019,2.019,0,0,0-.348,1.09l.016.039h2.281v-.2a1.757,1.757,0,0,0-.23-.992A.883.883,0,0,0-2.457-6.578ZM6.926-6.2l-.859-.008a1.463,1.463,0,0,0-.742.168,1.036,1.036,0,0,0-.43.473V0H2.254V-8.453H4.738l.094,1.242a2.549,2.549,0,0,1,.7-1.031,1.543,1.543,0,0,1,1.023-.367,1.963,1.963,0,0,1,.32.023,2.423,2.423,0,0,1,.3.07ZM11.2-3.484l.156.9.047.008.172-.906,1.117-4.969h2.773L12.715,0h-2.68L7.285-8.453h2.781ZM21.027-.008a3.189,3.189,0,0,1-.254-.6,4.612,4.612,0,0,1-.16-.7,3.23,3.23,0,0,1-.848,1.074,2.046,2.046,0,0,1-1.316.4A2.927,2.927,0,0,1,16.383-.52a2.415,2.415,0,0,1-.738-1.863,2.254,2.254,0,0,1,.945-1.941,4.9,4.9,0,0,1,2.867-.684h1.086v-.6a1.2,1.2,0,0,0-.258-.828,1,1,0,0,0-.789-.289.952.952,0,0,0-.684.215.891.891,0,0,0-.223.668l-2.562-.008L16.012-5.9a2.2,2.2,0,0,1,.965-1.934,4.324,4.324,0,0,1,2.691-.777,3.937,3.937,0,0,1,2.543.781,2.7,2.7,0,0,1,.973,2.234v3.188a6.5,6.5,0,0,0,.113,1.25A6.694,6.694,0,0,0,23.637,0ZM19.168-1.719a1.609,1.609,0,0,0,.855-.227,1.3,1.3,0,0,0,.52-.539V-3.6H19.48a1.194,1.194,0,0,0-.914.3,1.1,1.1,0,0,0-.281.773.748.748,0,0,0,.246.582A.913.913,0,0,0,19.168-1.719Zm9.078-.148a1.033,1.033,0,0,0,.8-.293,1.221,1.221,0,0,0,.266-.848h2.406l.016.047a2.775,2.775,0,0,1-.957,2.254,3.693,3.693,0,0,1-2.535.871,3.74,3.74,0,0,1-2.973-1.191A4.543,4.543,0,0,1,24.23-4.133v-.18a4.557,4.557,0,0,1,1.039-3.1,3.712,3.712,0,0,1,2.961-1.2,3.636,3.636,0,0,1,2.574.895,3.085,3.085,0,0,1,.934,2.449l-.016.047H29.316a1.636,1.636,0,0,0-.273-.98.937.937,0,0,0-.812-.379,1.085,1.085,0,0,0-1.066.613,3.792,3.792,0,0,0-.3,1.652v.18a3.778,3.778,0,0,0,.3,1.664A1.1,1.1,0,0,0,28.246-1.867ZM35.582,0H32.934V-8.453h2.648Zm0-10.414H32.934v-1.773h2.648ZM36.848-4.3A4.468,4.468,0,0,1,37.926-7.41a3.837,3.837,0,0,1,3.008-1.2,3.847,3.847,0,0,1,3.016,1.2A4.468,4.468,0,0,1,45.027-4.3v.164a4.465,4.465,0,0,1-1.078,3.109,3.834,3.834,0,0,1-3,1.2,3.863,3.863,0,0,1-3.023-1.2,4.465,4.465,0,0,1-1.078-3.109Zm2.641.164a3.5,3.5,0,0,0,.332,1.668,1.181,1.181,0,0,0,1.129.605,1.168,1.168,0,0,0,1.109-.609,3.465,3.465,0,0,0,.336-1.664V-4.3a3.478,3.478,0,0,0-.336-1.652,1.177,1.177,0,0,0-1.125-.621,1.16,1.16,0,0,0-1.113.625A3.517,3.517,0,0,0,39.488-4.3Zm1.766-7.93h2.9l.016.047-2.2,2.031H39.645Zm7.367,3.617.1,1.188a3.06,3.06,0,0,1,1.023-.988,2.648,2.648,0,0,1,1.359-.355,2.383,2.383,0,0,1,1.941.844,4.174,4.174,0,0,1,.7,2.68V0H51.105V-5.094a1.937,1.937,0,0,0-.258-1.145.884.884,0,0,0-.75-.34,1.856,1.856,0,0,0-.758.148,1.513,1.513,0,0,0-.562.422V0H46.145V-8.453Zm-76.7,22.406a5,5,0,0,1-.859,3.059,2.845,2.845,0,0,1-2.422,1.152,2.4,2.4,0,0,1-1.082-.234,2.409,2.409,0,0,1-.824-.68v4H-35.9V9.547h2.492l.078.922a2.569,2.569,0,0,1,.84-.8,2.205,2.205,0,0,1,1.121-.281A2.815,2.815,0,0,1-28.937,10.6a5.375,5.375,0,0,1,.863,3.188Zm-2.633-.164a3.992,3.992,0,0,0-.312-1.719,1.043,1.043,0,0,0-1-.648,1.589,1.589,0,0,0-.754.164,1.21,1.21,0,0,0-.488.477v3.531a1.131,1.131,0,0,0,.5.406,1.929,1.929,0,0,0,.762.133,1.038,1.038,0,0,0,1-.574,3.51,3.51,0,0,0,.3-1.605Zm8.891,2.945a2.779,2.779,0,0,1-.973,1.059,2.56,2.56,0,0,1-1.379.371,2.5,2.5,0,0,1-2.059-.922,4.494,4.494,0,0,1-.746-2.852V9.547h2.633v4.859a2.563,2.563,0,0,0,.254,1.359.889.889,0,0,0,.785.367,2.155,2.155,0,0,0,.742-.117,1.434,1.434,0,0,0,.547-.352V9.547h2.641V18H-21.5Zm7.648,1.43A3.924,3.924,0,0,1-17.18,17a4.14,4.14,0,0,1-1.09-2.945v-.3A4.73,4.73,0,0,1-17.242,10.6,3.649,3.649,0,0,1-14.27,9.391a3.423,3.423,0,0,1,2.652,1.023,3.984,3.984,0,0,1,.941,2.8V14.6H-15.52l-.016.047a1.641,1.641,0,0,0,.492,1.074,1.719,1.719,0,0,0,1.234.41,5.35,5.35,0,0,0,1.262-.125,7.953,7.953,0,0,0,1.152-.4l.633,1.609a4.832,4.832,0,0,1-1.469.672A6.778,6.778,0,0,1-14.168,18.164Zm-.1-6.742a1.09,1.09,0,0,0-.934.4,2.019,2.019,0,0,0-.348,1.09l.016.039h2.281v-.2a1.757,1.757,0,0,0-.23-.992A.883.883,0,0,0-14.27,11.422Zm4.359,2.367A5.375,5.375,0,0,1-9.047,10.6,2.815,2.815,0,0,1-6.613,9.391a2.1,2.1,0,0,1,1.059.27,2.8,2.8,0,0,1,.848.77V5.813h2.641V18H-4.379l-.18-1.031a2.842,2.842,0,0,1-.895.887,2.232,2.232,0,0,1-1.176.309,2.842,2.842,0,0,1-2.422-1.156,5,5,0,0,1-.859-3.055Zm2.641.164a3.51,3.51,0,0,0,.3,1.605,1.051,1.051,0,0,0,1.012.574,1.665,1.665,0,0,0,.73-.152,1.309,1.309,0,0,0,.52-.449V12.117a1.438,1.438,0,0,0-.516-.516,1.416,1.416,0,0,0-.719-.18,1.054,1.054,0,0,0-1.016.648,3.992,3.992,0,0,0-.312,1.719ZM3.184,18.164A3.924,3.924,0,0,1,.172,17a4.14,4.14,0,0,1-1.09-2.945v-.3A4.73,4.73,0,0,1,.109,10.6,3.649,3.649,0,0,1,3.082,9.391a3.423,3.423,0,0,1,2.652,1.023,3.984,3.984,0,0,1,.941,2.8V14.6H1.832l-.016.047a1.641,1.641,0,0,0,.492,1.074,1.719,1.719,0,0,0,1.234.41A5.35,5.35,0,0,0,4.8,16.008a7.953,7.953,0,0,0,1.152-.4l.633,1.609a4.832,4.832,0,0,1-1.469.672A6.778,6.778,0,0,1,3.184,18.164Zm-.1-6.742a1.09,1.09,0,0,0-.934.4,2.019,2.019,0,0,0-.348,1.09l.016.039H4.1v-.2a1.757,1.757,0,0,0-.23-.992A.883.883,0,0,0,3.082,11.422Zm13.1,4.2a.689.689,0,0,0-.355-.559,3.834,3.834,0,0,0-1.293-.441,5.1,5.1,0,0,1-2.227-.895,2.026,2.026,0,0,1-.75-1.668,2.377,2.377,0,0,1,.938-1.895,3.856,3.856,0,0,1,2.539-.777,4.36,4.36,0,0,1,2.688.754,2.217,2.217,0,0,1,.953,1.949l-.016.047H16.1a1.047,1.047,0,0,0-.25-.758,1.106,1.106,0,0,0-.82-.258,1.073,1.073,0,0,0-.7.227.71.71,0,0,0-.281.578.688.688,0,0,0,.324.57,3.668,3.668,0,0,0,1.309.422,5.257,5.257,0,0,1,2.3.91,2.088,2.088,0,0,1,.742,1.715,2.239,2.239,0,0,1-1.012,1.879,4.438,4.438,0,0,1-2.676.738,4.013,4.013,0,0,1-2.73-.875,2.41,2.41,0,0,1-.957-1.953l.016-.047h2.391a1.06,1.06,0,0,0,.363.867,1.6,1.6,0,0,0,.988.266,1.319,1.319,0,0,0,.8-.207A.7.7,0,0,0,16.184,15.625Zm7.531,2.539A3.924,3.924,0,0,1,20.7,17a4.14,4.14,0,0,1-1.09-2.945v-.3A4.73,4.73,0,0,1,20.641,10.6a3.649,3.649,0,0,1,2.973-1.211,3.423,3.423,0,0,1,2.652,1.023,3.984,3.984,0,0,1,.941,2.8V14.6H22.363l-.016.047a1.641,1.641,0,0,0,.492,1.074,1.719,1.719,0,0,0,1.234.41,5.35,5.35,0,0,0,1.262-.125,7.953,7.953,0,0,0,1.152-.4l.633,1.609a4.832,4.832,0,0,1-1.469.672A6.778,6.778,0,0,1,23.715,18.164Zm-.1-6.742a1.09,1.09,0,0,0-.934.4,2.019,2.019,0,0,0-.348,1.09l.016.039h2.281v-.2a1.757,1.757,0,0,0-.23-.992A.883.883,0,0,0,23.613,11.422ZM33,11.8l-.859-.008a1.463,1.463,0,0,0-.742.168,1.036,1.036,0,0,0-.43.473V18H28.324V9.547h2.484l.094,1.242a2.549,2.549,0,0,1,.7-1.031,1.543,1.543,0,0,1,1.023-.367,1.963,1.963,0,0,1,.32.023,2.423,2.423,0,0,1,.3.07ZM35.559,18H32.926V15.781h2.633Zm0-6.844H32.926V8.938h2.633Z" transform="translate(407.98 1480.582)" fill="#00104e"/>
    <path id="Trazado_884213" data-name="Trazado 884213" d="M51.009,0A51.009,51.009,0,1,1,0,51.009,51.009,51.009,0,0,1,51.009,0Z" transform="translate(276.467 1545.387)" fill="#f0c518"/>
    <path id="Trazado_883802" data-name="Trazado 883802" d="M51.009,0A51.009,51.009,0,1,1,0,51.009,51.009,51.009,0,0,1,51.009,0Z" transform="translate(276.467 1821.384)" fill="#e7c221"/>
    <path id="Trazado_884214" data-name="Trazado 884214" d="M-20.336-3.9V0h-2.641V-11.375h4.344a4.728,4.728,0,0,1,3.211,1.031,3.417,3.417,0,0,1,1.188,2.711,3.4,3.4,0,0,1-1.187,2.707A4.74,4.74,0,0,1-18.633-3.9Zm0-2.031h1.7A1.734,1.734,0,0,0-17.32-6.4a1.683,1.683,0,0,0,.453-1.215,1.755,1.755,0,0,0-.449-1.242,1.708,1.708,0,0,0-1.316-.484h-1.7Zm12.2,5.922a3.189,3.189,0,0,1-.254-.6,4.612,4.612,0,0,1-.16-.7A3.23,3.23,0,0,1-9.395-.238a2.046,2.046,0,0,1-1.316.4A2.927,2.927,0,0,1-12.777-.52a2.415,2.415,0,0,1-.738-1.863,2.254,2.254,0,0,1,.945-1.941A4.9,4.9,0,0,1-9.7-5.008h1.086v-.6a1.2,1.2,0,0,0-.258-.828,1,1,0,0,0-.789-.289.952.952,0,0,0-.684.215.891.891,0,0,0-.223.668l-2.562-.008-.016-.047a2.2,2.2,0,0,1,.965-1.934,4.324,4.324,0,0,1,2.691-.777,3.937,3.937,0,0,1,2.543.781,2.7,2.7,0,0,1,.973,2.234v3.188a6.5,6.5,0,0,0,.113,1.25A6.694,6.694,0,0,0-5.523,0ZM-9.992-1.719a1.609,1.609,0,0,0,.855-.227,1.3,1.3,0,0,0,.52-.539V-3.6H-9.68a1.194,1.194,0,0,0-.914.3,1.1,1.1,0,0,0-.281.773.748.748,0,0,0,.246.582A.913.913,0,0,0-9.992-1.719Zm9.867-.656A.689.689,0,0,0-.48-2.934a3.834,3.834,0,0,0-1.293-.441A5.1,5.1,0,0,1-4-4.27a2.026,2.026,0,0,1-.75-1.668,2.377,2.377,0,0,1,.938-1.895,3.856,3.856,0,0,1,2.539-.777,4.36,4.36,0,0,1,2.688.754,2.217,2.217,0,0,1,.953,1.949l-.016.047H-.211a1.047,1.047,0,0,0-.25-.758,1.106,1.106,0,0,0-.82-.258,1.073,1.073,0,0,0-.7.227.71.71,0,0,0-.281.578.688.688,0,0,0,.324.57,3.668,3.668,0,0,0,1.309.422,5.257,5.257,0,0,1,2.3.91,2.088,2.088,0,0,1,.742,1.715A2.239,2.239,0,0,1,1.4-.574,4.438,4.438,0,0,1-1.273.164,4.013,4.013,0,0,1-4-.711a2.41,2.41,0,0,1-.957-1.953l.016-.047h2.391a1.06,1.06,0,0,0,.363.867,1.6,1.6,0,0,0,.988.266,1.319,1.319,0,0,0,.8-.207A.7.7,0,0,0-.125-2.375ZM6.422,0H3.773V-8.453H6.422Zm0-10.414H3.773v-1.773H6.422ZM11.2-3.484l.156.9.047.008.172-.906L12.7-8.453h2.773L12.719,0h-2.68L7.289-8.453H10.07ZM21.031-.008a3.189,3.189,0,0,1-.254-.6,4.612,4.612,0,0,1-.16-.7A3.23,3.23,0,0,1,19.77-.238a2.046,2.046,0,0,1-1.316.4A2.927,2.927,0,0,1,16.387-.52a2.415,2.415,0,0,1-.738-1.863,2.254,2.254,0,0,1,.945-1.941,4.9,4.9,0,0,1,2.867-.684h1.086v-.6a1.2,1.2,0,0,0-.258-.828,1,1,0,0,0-.789-.289.952.952,0,0,0-.684.215.891.891,0,0,0-.223.668l-2.562-.008L16.016-5.9a2.2,2.2,0,0,1,.965-1.934,4.324,4.324,0,0,1,2.691-.777,3.937,3.937,0,0,1,2.543.781,2.7,2.7,0,0,1,.973,2.234v3.188a6.5,6.5,0,0,0,.113,1.25A6.694,6.694,0,0,0,23.641,0ZM19.172-1.719a1.609,1.609,0,0,0,.855-.227,1.3,1.3,0,0,0,.52-.539V-3.6H19.484a1.194,1.194,0,0,0-.914.3,1.1,1.1,0,0,0-.281.773.748.748,0,0,0,.246.582A.913.913,0,0,0,19.172-1.719Z" transform="translate(326.794 1601.524)" fill="#00104e"/>
    <path id="Trazado_884215" data-name="Trazado 884215" d="M-15.652-2.211h-3.383L-19.691,0h-2.781l3.711-11.375h1.414v.008l.008-.008h1.414L-12.207,0h-2.781Zm-2.773-2.031h2.164l-1.062-3.531h-.047ZM-7.934-1.867a1.033,1.033,0,0,0,.8-.293,1.221,1.221,0,0,0,.266-.848h2.406l.016.047A2.775,2.775,0,0,1-5.4-.707,3.693,3.693,0,0,1-7.934.164a3.74,3.74,0,0,1-2.973-1.191,4.543,4.543,0,0,1-1.043-3.105v-.18a4.557,4.557,0,0,1,1.039-3.1,3.712,3.712,0,0,1,2.961-1.2,3.636,3.636,0,0,1,2.574.895,3.085,3.085,0,0,1,.934,2.449l-.016.047H-6.863a1.636,1.636,0,0,0-.273-.98.937.937,0,0,0-.812-.379,1.085,1.085,0,0,0-1.066.613,3.792,3.792,0,0,0-.3,1.652v.18a3.778,3.778,0,0,0,.3,1.664A1.1,1.1,0,0,0-7.934-1.867Zm7.6-8.687v2.1H1v1.828H-.332V-2.75A.948.948,0,0,0-.148-2.1a.642.642,0,0,0,.5.2,2.654,2.654,0,0,0,.324-.016A2.807,2.807,0,0,0,.98-1.977L1.16-.023A6.374,6.374,0,0,1,.441.121,5.789,5.789,0,0,1-.316.164a2.639,2.639,0,0,1-1.98-.7,3.069,3.069,0,0,1-.676-2.2V-6.625h-1.18V-8.453h1.18v-2.1ZM5.051,0H2.4V-8.453H5.051Zm0-10.414H2.4v-1.773H5.051Zm4.781,6.93.156.9.047.008.172-.906,1.117-4.969H14.1L11.348,0H8.668L5.918-8.453H8.7ZM19.66-.008a3.189,3.189,0,0,1-.254-.6,4.612,4.612,0,0,1-.16-.7A3.23,3.23,0,0,1,18.4-.238a2.046,2.046,0,0,1-1.316.4A2.927,2.927,0,0,1,15.016-.52a2.415,2.415,0,0,1-.738-1.863,2.254,2.254,0,0,1,.945-1.941,4.9,4.9,0,0,1,2.867-.684h1.086v-.6a1.2,1.2,0,0,0-.258-.828,1,1,0,0,0-.789-.289.952.952,0,0,0-.684.215.891.891,0,0,0-.223.668L14.66-5.852,14.645-5.9a2.2,2.2,0,0,1,.965-1.934A4.324,4.324,0,0,1,18.3-8.609a3.937,3.937,0,0,1,2.543.781,2.7,2.7,0,0,1,.973,2.234v3.188a6.5,6.5,0,0,0,.113,1.25A6.694,6.694,0,0,0,22.27,0ZM17.8-1.719a1.609,1.609,0,0,0,.855-.227,1.3,1.3,0,0,0,.52-.539V-3.6H18.113a1.194,1.194,0,0,0-.914.3,1.1,1.1,0,0,0-.281.773.748.748,0,0,0,.246.582A.913.913,0,0,0,17.8-1.719Z" transform="translate(326.617 1877.521)" fill="#00104e"/>
    <path id="Trazado_884216" data-name="Trazado 884216" d="M7.539,9.727H2.867V13.8H8.336V15H1.328V3.625H8.25V4.836H2.867v3.68H7.539ZM11.609,15H10.07V2.813h1.539Zm5.984-4.3a4.654,4.654,0,0,1,1.016-3.09,3.406,3.406,0,0,1,2.758-1.215A3.439,3.439,0,0,1,24.145,7.6a4.639,4.639,0,0,1,1.02,3.094v.172a4.631,4.631,0,0,1-1.016,3.094,3.429,3.429,0,0,1-2.766,1.2,3.436,3.436,0,0,1-2.77-1.207,4.623,4.623,0,0,1-1.02-3.09Zm1.539.172a4.009,4.009,0,0,0,.566,2.219,2.046,2.046,0,0,0,3.355,0,3.988,3.988,0,0,0,.57-2.219V10.7a3.976,3.976,0,0,0-.574-2.211A1.882,1.882,0,0,0,21.367,7.6a1.856,1.856,0,0,0-1.668.883,4.018,4.018,0,0,0-.566,2.211Zm15.133.227a4.645,4.645,0,0,1-.879,2.949,2.9,2.9,0,0,1-2.418,1.121,3.064,3.064,0,0,1-1.465-.332,2.719,2.719,0,0,1-1.027-.98L28.227,15h-1.18V2.813h1.539V7.547a2.671,2.671,0,0,1,.988-.859,3.03,3.03,0,0,1,1.379-.3,2.809,2.809,0,0,1,2.438,1.25,5.622,5.622,0,0,1,.875,3.289Zm-1.539-.164a4.666,4.666,0,0,0-.535-2.371,1.762,1.762,0,0,0-1.629-.918,2.014,2.014,0,0,0-1.2.348,2.452,2.452,0,0,0-.777.934v3.664a2.517,2.517,0,0,0,.777.977,2,2,0,0,0,1.215.352,1.829,1.829,0,0,0,1.617-.773,3.552,3.552,0,0,0,.531-2.047Zm8.328,1.8a1.026,1.026,0,0,0-.387-.828,3.732,3.732,0,0,0-1.465-.562,6.146,6.146,0,0,1-2.293-.9,1.814,1.814,0,0,1-.8-1.547,2.229,2.229,0,0,1,.879-1.766,3.879,3.879,0,0,1,4.605.047,2.239,2.239,0,0,1,.852,1.82l-.016.047H40.961a1.331,1.331,0,0,0-.48-.992A1.717,1.717,0,0,0,39.266,7.6a1.751,1.751,0,0,0-1.215.367,1.146,1.146,0,0,0-.4.875A.927.927,0,0,0,38,9.617a3.848,3.848,0,0,0,1.434.5,6.058,6.058,0,0,1,2.359.93,1.872,1.872,0,0,1,.8,1.57,2.226,2.226,0,0,1-.91,1.836,3.754,3.754,0,0,1-2.379.711,3.715,3.715,0,0,1-2.547-.82,2.341,2.341,0,0,1-.883-1.914l.016-.047h1.469a1.424,1.424,0,0,0,.609,1.2,2.358,2.358,0,0,0,1.336.379,2.1,2.1,0,0,0,1.285-.348A1.063,1.063,0,0,0,41.055,12.727Zm6.953,2.438A3.576,3.576,0,0,1,45.168,14a4.48,4.48,0,0,1-1.02-3.062v-.344A4.386,4.386,0,0,1,45.2,7.582a3.3,3.3,0,0,1,2.566-1.191,3.067,3.067,0,0,1,2.543,1.055,4.345,4.345,0,0,1,.848,2.8v.813H45.75l-.023.039a3.494,3.494,0,0,0,.563,2.066,1.965,1.965,0,0,0,1.719.793,3.872,3.872,0,0,0,1.371-.223,3.061,3.061,0,0,0,1.012-.613l.6,1a3.7,3.7,0,0,1-1.2.738A4.762,4.762,0,0,1,48.008,15.164ZM47.766,7.6a1.673,1.673,0,0,0-1.332.621,2.938,2.938,0,0,0-.645,1.59l.016.039h3.813V9.727A2.462,2.462,0,0,0,49.164,8.2,1.638,1.638,0,0,0,47.766,7.6Zm9.117.3-.789-.047a1.762,1.762,0,0,0-1.027.289,1.855,1.855,0,0,0-.645.813V15H52.883V6.547h1.375l.148,1.234a2.934,2.934,0,0,1,.887-1.023,2.073,2.073,0,0,1,1.215-.367,1.9,1.9,0,0,1,.328.027,2.174,2.174,0,0,1,.258.059Zm4.563,4.6.133.594h.047l.148-.594,1.945-5.961h1.57L62.18,15H61.016L57.867,6.547h1.578ZM71.75,15q-.078-.383-.121-.676a4.96,4.96,0,0,1-.051-.59,3.589,3.589,0,0,1-1.121,1.02,2.867,2.867,0,0,1-1.488.41,2.763,2.763,0,0,1-2.012-.676,2.486,2.486,0,0,1-.691-1.863,2.183,2.183,0,0,1,.98-1.895,4.579,4.579,0,0,1,2.66-.684h1.672V9.211a1.551,1.551,0,0,0-.453-1.176A1.779,1.779,0,0,0,69.844,7.6a1.859,1.859,0,0,0-1.211.375,1.125,1.125,0,0,0-.461.9l-1.461.016L66.7,8.844a2.023,2.023,0,0,1,.863-1.687,3.578,3.578,0,0,1,2.371-.766,3.49,3.49,0,0,1,2.313.73,2.588,2.588,0,0,1,.875,2.105V13.3a7.923,7.923,0,0,0,.047.875,4.5,4.5,0,0,0,.172.828ZM69.2,13.875a2.739,2.739,0,0,0,1.508-.43,2.042,2.042,0,0,0,.875-.984V11.086H69.852a2.24,2.24,0,0,0-1.488.469,1.4,1.4,0,0,0-.559,1.1,1.159,1.159,0,0,0,.352.891A1.472,1.472,0,0,0,69.2,13.875ZM75,10.93a5.641,5.641,0,0,1,.871-3.289,2.807,2.807,0,0,1,2.441-1.25,3.027,3.027,0,0,1,1.316.273,2.7,2.7,0,0,1,.98.8V2.813h1.539V15h-1.18l-.234-1.07a2.743,2.743,0,0,1-1.023.922,3.058,3.058,0,0,1-1.414.313,2.9,2.9,0,0,1-2.422-1.121A4.659,4.659,0,0,1,75,11.094Zm1.539.164a3.588,3.588,0,0,0,.523,2.051,1.828,1.828,0,0,0,1.625.77,2.039,2.039,0,0,0,1.156-.312,2.334,2.334,0,0,0,.766-.875V8.781a2.37,2.37,0,0,0-.77-.832A2.033,2.033,0,0,0,78.7,7.641a1.759,1.759,0,0,0-1.637.914,4.718,4.718,0,0,0-.527,2.375Zm7.547-.4A4.654,4.654,0,0,1,85.1,7.605a3.764,3.764,0,0,1,5.535,0,4.639,4.639,0,0,1,1.02,3.094v.172a4.631,4.631,0,0,1-1.016,3.094,3.781,3.781,0,0,1-5.535,0,4.623,4.623,0,0,1-1.02-3.09Zm1.539.172a4.009,4.009,0,0,0,.566,2.219,2.046,2.046,0,0,0,3.355,0,3.988,3.988,0,0,0,.57-2.219V10.7a3.976,3.976,0,0,0-.574-2.211A1.882,1.882,0,0,0,87.859,7.6a1.856,1.856,0,0,0-1.668.883,4.018,4.018,0,0,0-.566,2.211ZM97.539,7.906l-.789-.047a1.762,1.762,0,0,0-1.027.289,1.854,1.854,0,0,0-.645.813V15H93.539V6.547h1.375l.148,1.234a2.934,2.934,0,0,1,.887-1.023,2.073,2.073,0,0,1,1.215-.367,1.9,1.9,0,0,1,.328.027,2.175,2.175,0,0,1,.258.059Zm6.953-1.359L104.6,7.8a3.069,3.069,0,0,1,1.059-1.043,2.824,2.824,0,0,1,1.449-.371,2.759,2.759,0,0,1,2.117.8,3.515,3.515,0,0,1,.75,2.473V15h-1.539V9.7A2.287,2.287,0,0,0,108,8.109a1.768,1.768,0,0,0-1.348-.469,2.386,2.386,0,0,0-1.207.285,2.072,2.072,0,0,0-.785.8V15h-1.539V6.547Zm7.359,4.148a4.654,4.654,0,0,1,1.016-3.09,3.764,3.764,0,0,1,5.535,0,4.639,4.639,0,0,1,1.02,3.094v.172a4.631,4.631,0,0,1-1.016,3.094,3.781,3.781,0,0,1-5.535,0,4.623,4.623,0,0,1-1.02-3.09Zm1.539.172a4.009,4.009,0,0,0,.566,2.219,2.046,2.046,0,0,0,3.355,0,3.988,3.988,0,0,0,.57-2.219V10.7a3.976,3.976,0,0,0-.574-2.211,1.882,1.882,0,0,0-1.684-.883,1.856,1.856,0,0,0-1.668.883,4.018,4.018,0,0,0-.566,2.211ZM126.82,7.68a3.119,3.119,0,0,1,1.074-.949,2.947,2.947,0,0,1,1.41-.34,2.73,2.73,0,0,1,2.105.813,3.574,3.574,0,0,1,.754,2.5V15h-1.539V9.688a2.263,2.263,0,0,0-.449-1.547,1.709,1.709,0,0,0-1.34-.5,2.514,2.514,0,0,0-1.2.27,2.174,2.174,0,0,0-.82.754V15h-1.539V2.813h1.539ZM139.57,15q-.078-.383-.121-.676a4.96,4.96,0,0,1-.051-.59,3.588,3.588,0,0,1-1.121,1.02,2.867,2.867,0,0,1-1.488.41,2.763,2.763,0,0,1-2.012-.676,2.486,2.486,0,0,1-.691-1.863,2.183,2.183,0,0,1,.98-1.895,4.579,4.579,0,0,1,2.66-.684H139.4V9.211a1.551,1.551,0,0,0-.453-1.176,1.779,1.779,0,0,0-1.281-.434,1.859,1.859,0,0,0-1.211.375,1.125,1.125,0,0,0-.461.9l-1.461.016-.016-.047a2.023,2.023,0,0,1,.863-1.687,3.578,3.578,0,0,1,2.371-.766,3.49,3.49,0,0,1,2.313.73,2.588,2.588,0,0,1,.875,2.105V13.3a7.923,7.923,0,0,0,.047.875,4.5,4.5,0,0,0,.172.828Zm-2.555-1.125a2.739,2.739,0,0,0,1.508-.43,2.042,2.042,0,0,0,.875-.984V11.086h-1.727a2.24,2.24,0,0,0-1.488.469,1.4,1.4,0,0,0-.559,1.1,1.159,1.159,0,0,0,.352.891A1.472,1.472,0,0,0,137.016,13.875Zm9.516.086a1.81,1.81,0,0,0,1.242-.473,1.493,1.493,0,0,0,.531-1.16H149.7l.023.047a2.428,2.428,0,0,1-.937,1.941,3.582,3.582,0,0,1-5-.363,4.674,4.674,0,0,1-.969-3.016v-.328a4.654,4.654,0,0,1,.973-3,3.317,3.317,0,0,1,2.746-1.215,3.189,3.189,0,0,1,2.316.875,2.775,2.775,0,0,1,.871,2.148l-.016.047h-1.4a1.865,1.865,0,0,0-.5-1.316,1.658,1.658,0,0,0-1.27-.543,1.777,1.777,0,0,0-1.652.879,4.114,4.114,0,0,0-.52,2.129v.328a4.192,4.192,0,0,0,.512,2.148A1.776,1.776,0,0,0,146.531,13.961Zm8.516,1.2A3.576,3.576,0,0,1,152.207,14a4.48,4.48,0,0,1-1.02-3.062v-.344a4.386,4.386,0,0,1,1.051-3.012A3.3,3.3,0,0,1,154.8,6.391a3.067,3.067,0,0,1,2.543,1.055,4.345,4.345,0,0,1,.848,2.8v.813h-5.406l-.023.039a3.494,3.494,0,0,0,.563,2.066,1.965,1.965,0,0,0,1.719.793,3.872,3.872,0,0,0,1.371-.223,3.061,3.061,0,0,0,1.012-.613l.6,1a3.7,3.7,0,0,1-1.2.738A4.762,4.762,0,0,1,155.047,15.164ZM154.8,7.6a1.673,1.673,0,0,0-1.332.621,2.938,2.938,0,0,0-.645,1.59l.016.039h3.813V9.727A2.462,2.462,0,0,0,156.2,8.2,1.638,1.638,0,0,0,154.8,7.6Zm16.3,3.492a4.659,4.659,0,0,1-.875,2.949,2.893,2.893,0,0,1-2.414,1.121,3.354,3.354,0,0,1-1.371-.262,2.622,2.622,0,0,1-1-.785V18.25H163.9V6.547h1.18l.242,1.094a2.792,2.792,0,0,1,1.031-.93,3.078,3.078,0,0,1,1.438-.32,2.809,2.809,0,0,1,2.441,1.246,5.637,5.637,0,0,1,.871,3.293Zm-1.539-.164A4.467,4.467,0,0,0,169,8.566a1.836,1.836,0,0,0-1.668-.926,2.054,2.054,0,0,0-1.133.3,2.25,2.25,0,0,0-.758.824v4.086a2.186,2.186,0,0,0,.758.816,2.126,2.126,0,0,0,1.148.293,1.894,1.894,0,0,0,1.656-.8,3.516,3.516,0,0,0,.563-2.066Zm7.43-3.023-.789-.047a1.762,1.762,0,0,0-1.027.289,1.855,1.855,0,0,0-.645.813V15h-1.539V6.547h1.375l.148,1.234a2.934,2.934,0,0,1,.887-1.023,2.073,2.073,0,0,1,1.215-.367,1.9,1.9,0,0,1,.328.027,2.174,2.174,0,0,1,.258.059Zm4.953,7.258A3.576,3.576,0,0,1,179.105,14a4.48,4.48,0,0,1-1.02-3.062v-.344a4.386,4.386,0,0,1,1.051-3.012A3.3,3.3,0,0,1,181.7,6.391a3.067,3.067,0,0,1,2.543,1.055,4.345,4.345,0,0,1,.848,2.8v.813h-5.406l-.023.039a3.494,3.494,0,0,0,.563,2.066,1.965,1.965,0,0,0,1.719.793,3.872,3.872,0,0,0,1.371-.223,3.061,3.061,0,0,0,1.012-.613l.6,1a3.7,3.7,0,0,1-1.2.738A4.762,4.762,0,0,1,181.945,15.164ZM181.7,7.6a1.673,1.673,0,0,0-1.332.621,2.938,2.938,0,0,0-.645,1.59l.016.039h3.813V9.727A2.462,2.462,0,0,0,183.1,8.2,1.638,1.638,0,0,0,181.7,7.6Zm4.844,3.328a5.641,5.641,0,0,1,.871-3.289,2.8,2.8,0,0,1,2.434-1.25,2.966,2.966,0,0,1,1.414.324,2.845,2.845,0,0,1,1.023.934l.188-1.1H193.7v8.5a3.225,3.225,0,0,1-.945,2.5,3.884,3.884,0,0,1-2.727.871,5.717,5.717,0,0,1-1.316-.168,5.147,5.147,0,0,1-1.246-.457l.234-1.2a4.451,4.451,0,0,0,1.074.379,5.517,5.517,0,0,0,1.238.145,2.242,2.242,0,0,0,1.637-.512,2.12,2.12,0,0,0,.512-1.559v-.961a2.725,2.725,0,0,1-.992.8,3.091,3.091,0,0,1-1.336.273,2.89,2.89,0,0,1-2.418-1.121,4.674,4.674,0,0,1-.871-2.949Zm1.539.164a3.592,3.592,0,0,0,.523,2.047,1.817,1.817,0,0,0,1.617.773,2.034,2.034,0,0,0,1.164-.316,2.4,2.4,0,0,0,.773-.895V8.813a2.388,2.388,0,0,0-.773-.855,2.029,2.029,0,0,0-1.148-.316,1.752,1.752,0,0,0-1.629.914,4.718,4.718,0,0,0-.527,2.375Zm13.2,2.656a2.863,2.863,0,0,1-1.023,1.047,2.8,2.8,0,0,1-1.445.367,2.716,2.716,0,0,1-2.156-.883,4.1,4.1,0,0,1-.773-2.75V6.547h1.539v5a3.147,3.147,0,0,0,.4,1.859,1.481,1.481,0,0,0,1.242.508,2.531,2.531,0,0,0,1.355-.332,2.077,2.077,0,0,0,.809-.941V6.547h1.539V15h-1.383Zm5.1-7.2.109,1.258a3.069,3.069,0,0,1,1.059-1.043A2.824,2.824,0,0,1,209,6.391a2.759,2.759,0,0,1,2.117.8,3.515,3.515,0,0,1,.75,2.473V15h-1.539V9.7a2.287,2.287,0,0,0-.441-1.586,1.768,1.768,0,0,0-1.348-.469,2.386,2.386,0,0,0-1.207.285,2.072,2.072,0,0,0-.785.8V15h-1.539V6.547Zm9.859-2.039V6.547h1.6V7.688h-1.6V12.82a1.149,1.149,0,0,0,.246.836.89.89,0,0,0,.652.242,1.429,1.429,0,0,0,.3-.035,2.2,2.2,0,0,0,.273-.074l.211,1.055a1.36,1.36,0,0,1-.508.23,2.562,2.562,0,0,1-.664.09,1.993,1.993,0,0,1-1.492-.566,2.46,2.46,0,0,1-.555-1.777V7.688h-1.344V6.547H214.7V4.508ZM224.688,15q-.078-.383-.121-.676a4.96,4.96,0,0,1-.051-.59,3.588,3.588,0,0,1-1.121,1.02,2.867,2.867,0,0,1-1.488.41,2.763,2.763,0,0,1-2.012-.676,2.486,2.486,0,0,1-.691-1.863,2.183,2.183,0,0,1,.98-1.895,4.579,4.579,0,0,1,2.66-.684h1.672V9.211a1.551,1.551,0,0,0-.453-1.176,1.779,1.779,0,0,0-1.281-.434,1.859,1.859,0,0,0-1.211.375,1.125,1.125,0,0,0-.461.9l-1.461.016-.016-.047a2.023,2.023,0,0,1,.863-1.687,3.578,3.578,0,0,1,2.371-.766,3.49,3.49,0,0,1,2.313.73,2.588,2.588,0,0,1,.875,2.105V13.3a7.923,7.923,0,0,0,.047.875,4.5,4.5,0,0,0,.172.828Zm-2.555-1.125a2.739,2.739,0,0,0,1.508-.43,2.042,2.042,0,0,0,.875-.984V11.086h-1.727a2.24,2.24,0,0,0-1.488.469,1.4,1.4,0,0,0-.559,1.1,1.159,1.159,0,0,0,.352.891A1.472,1.472,0,0,0,222.133,13.875Zm11.07-1.148a1.026,1.026,0,0,0-.387-.828,3.732,3.732,0,0,0-1.465-.562,6.146,6.146,0,0,1-2.293-.9,1.814,1.814,0,0,1-.8-1.547,2.229,2.229,0,0,1,.879-1.766,3.879,3.879,0,0,1,4.605.047,2.239,2.239,0,0,1,.852,1.82l-.016.047h-1.469a1.331,1.331,0,0,0-.48-.992,1.717,1.717,0,0,0-1.215-.445,1.751,1.751,0,0,0-1.215.367,1.146,1.146,0,0,0-.4.875.927.927,0,0,0,.348.773,3.848,3.848,0,0,0,1.434.5,6.058,6.058,0,0,1,2.359.93,1.872,1.872,0,0,1,.8,1.57,2.226,2.226,0,0,1-.91,1.836,3.754,3.754,0,0,1-2.379.711,3.715,3.715,0,0,1-2.547-.82,2.341,2.341,0,0,1-.883-1.914l.016-.047h1.469a1.424,1.424,0,0,0,.609,1.2,2.358,2.358,0,0,0,1.336.379,2.1,2.1,0,0,0,1.285-.348A1.063,1.063,0,0,0,233.2,12.727Zm4.8,1.9-1.172,2.391h-.914l.547-2.469V13.273H238ZM2.781,39H1.242V26.813H2.781Zm4.031,0H5.273V30.547H6.813Zm0-10.617H5.273v-1.57H6.813Zm3.742,2.164.109,1.109a2.871,2.871,0,0,1,1.051-.934,3.158,3.158,0,0,1,1.48-.332,2.615,2.615,0,0,1,1.449.391,2.363,2.363,0,0,1,.91,1.172,3.162,3.162,0,0,1,1.059-1.145,2.769,2.769,0,0,1,1.527-.418,2.531,2.531,0,0,1,2.039.887,4.051,4.051,0,0,1,.75,2.668V39H19.391V33.93a2.81,2.81,0,0,0-.43-1.77,1.567,1.567,0,0,0-1.281-.52,1.631,1.631,0,0,0-1.277.547,2.381,2.381,0,0,0-.574,1.383V39H14.281V33.93a2.772,2.772,0,0,0-.441-1.738,1.532,1.532,0,0,0-1.27-.551,2.115,2.115,0,0,0-1.156.289,1.867,1.867,0,0,0-.7.813V39H9.18V30.547ZM24.828,39H23.289V30.547h1.539Zm0-10.617H23.289v-1.57h1.539Zm4.508.125v2.039h1.6v1.141h-1.6V36.82a1.149,1.149,0,0,0,.246.836.89.89,0,0,0,.652.242,1.429,1.429,0,0,0,.3-.035,2.2,2.2,0,0,0,.273-.074l.211,1.055a1.36,1.36,0,0,1-.508.23,2.562,2.562,0,0,1-.664.09,1.993,1.993,0,0,1-1.492-.566A2.46,2.46,0,0,1,27.8,36.82V31.688H26.453V30.547H27.8V28.508ZM37.781,39q-.078-.383-.121-.676a4.96,4.96,0,0,1-.051-.59,3.589,3.589,0,0,1-1.121,1.02,2.867,2.867,0,0,1-1.488.41,2.763,2.763,0,0,1-2.012-.676,2.486,2.486,0,0,1-.691-1.863,2.183,2.183,0,0,1,.98-1.895,4.579,4.579,0,0,1,2.66-.684h1.672v-.836a1.551,1.551,0,0,0-.453-1.176,1.779,1.779,0,0,0-1.281-.434,1.859,1.859,0,0,0-1.211.375,1.125,1.125,0,0,0-.461.9l-1.461.016-.016-.047a2.023,2.023,0,0,1,.863-1.687,3.578,3.578,0,0,1,2.371-.766,3.49,3.49,0,0,1,2.313.73,2.588,2.588,0,0,1,.875,2.105V37.3a7.923,7.923,0,0,0,.047.875,4.5,4.5,0,0,0,.172.828Zm-2.555-1.125a2.739,2.739,0,0,0,1.508-.43,2.042,2.042,0,0,0,.875-.984V35.086H35.883a2.24,2.24,0,0,0-1.488.469,1.4,1.4,0,0,0-.559,1.1,1.159,1.159,0,0,0,.352.891A1.472,1.472,0,0,0,35.227,37.875Zm1.32-10.914h1.8l.016.047-2.1,2.031H35.1Zm6.211,3.586.109,1.258a3.069,3.069,0,0,1,1.059-1.043,2.824,2.824,0,0,1,1.449-.371,2.759,2.759,0,0,1,2.117.8,3.515,3.515,0,0,1,.75,2.473V39H46.7V33.7a2.287,2.287,0,0,0-.441-1.586,1.768,1.768,0,0,0-1.348-.469,2.386,2.386,0,0,0-1.207.285,2.072,2.072,0,0,0-.785.8V39H41.383V30.547Zm7.367,4.383A5.641,5.641,0,0,1,51,31.641a2.807,2.807,0,0,1,2.441-1.25,3.027,3.027,0,0,1,1.316.273,2.7,2.7,0,0,1,.98.8V26.813h1.539V39h-1.18l-.234-1.07a2.743,2.743,0,0,1-1.023.922,3.058,3.058,0,0,1-1.414.313A2.9,2.9,0,0,1,51,38.043a4.659,4.659,0,0,1-.875-2.949Zm1.539.164a3.588,3.588,0,0,0,.523,2.051,1.828,1.828,0,0,0,1.625.77,2.039,2.039,0,0,0,1.156-.312,2.334,2.334,0,0,0,.766-.875V32.781a2.37,2.37,0,0,0-.77-.832,2.033,2.033,0,0,0-1.137-.309,1.759,1.759,0,0,0-1.637.914,4.718,4.718,0,0,0-.527,2.375Zm7.547-.4a4.654,4.654,0,0,1,1.016-3.09,3.764,3.764,0,0,1,5.535,0,4.639,4.639,0,0,1,1.02,3.094v.172a4.631,4.631,0,0,1-1.016,3.094,3.781,3.781,0,0,1-5.535,0,4.623,4.623,0,0,1-1.02-3.09Zm1.539.172a4.009,4.009,0,0,0,.566,2.219,2.046,2.046,0,0,0,3.355,0,3.988,3.988,0,0,0,.57-2.219V34.7a3.976,3.976,0,0,0-.574-2.211,1.882,1.882,0,0,0-1.684-.883,1.856,1.856,0,0,0-1.668.883A4.018,4.018,0,0,0,60.75,34.7Zm12.828,1.859a1.026,1.026,0,0,0-.387-.828,3.732,3.732,0,0,0-1.465-.562,6.146,6.146,0,0,1-2.293-.9,1.814,1.814,0,0,1-.8-1.547,2.229,2.229,0,0,1,.879-1.766,3.879,3.879,0,0,1,4.605.047,2.239,2.239,0,0,1,.852,1.82l-.016.047H73.484a1.331,1.331,0,0,0-.48-.992,1.717,1.717,0,0,0-1.215-.445,1.751,1.751,0,0,0-1.215.367,1.146,1.146,0,0,0-.4.875.927.927,0,0,0,.348.773,3.848,3.848,0,0,0,1.434.5,6.058,6.058,0,0,1,2.359.93,1.872,1.872,0,0,1,.8,1.57,2.226,2.226,0,0,1-.91,1.836,3.754,3.754,0,0,1-2.379.711,3.715,3.715,0,0,1-2.547-.82A2.341,2.341,0,0,1,68.4,36.43l.016-.047h1.469a1.424,1.424,0,0,0,.609,1.2,2.358,2.358,0,0,0,1.336.379,2.1,2.1,0,0,0,1.285-.348A1.063,1.063,0,0,0,73.578,36.727Zm6.953,2.438A3.576,3.576,0,0,1,77.691,38a4.48,4.48,0,0,1-1.02-3.062v-.344a4.386,4.386,0,0,1,1.051-3.012,3.3,3.3,0,0,1,2.566-1.191,3.067,3.067,0,0,1,2.543,1.055,4.345,4.345,0,0,1,.848,2.8v.813H78.273l-.023.039a3.494,3.494,0,0,0,.563,2.066,1.965,1.965,0,0,0,1.719.793,3.872,3.872,0,0,0,1.371-.223,3.061,3.061,0,0,0,1.012-.613l.6,1a3.7,3.7,0,0,1-1.2.738A4.762,4.762,0,0,1,80.531,39.164ZM80.289,31.6a1.673,1.673,0,0,0-1.332.621,2.938,2.938,0,0,0-.645,1.59l.016.039h3.813v-.125a2.462,2.462,0,0,0-.453-1.523A1.638,1.638,0,0,0,80.289,31.6ZM94.3,36.727a1.026,1.026,0,0,0-.387-.828,3.732,3.732,0,0,0-1.465-.562,6.146,6.146,0,0,1-2.293-.9,1.814,1.814,0,0,1-.8-1.547,2.229,2.229,0,0,1,.879-1.766,3.879,3.879,0,0,1,4.605.047,2.239,2.239,0,0,1,.852,1.82l-.016.047H94.2a1.331,1.331,0,0,0-.48-.992,1.717,1.717,0,0,0-1.215-.445,1.751,1.751,0,0,0-1.215.367,1.146,1.146,0,0,0-.4.875.927.927,0,0,0,.348.773,3.848,3.848,0,0,0,1.434.5,6.058,6.058,0,0,1,2.359.93,1.872,1.872,0,0,1,.8,1.57,2.226,2.226,0,0,1-.91,1.836,3.754,3.754,0,0,1-2.379.711A3.715,3.715,0,0,1,90,38.344a2.341,2.341,0,0,1-.883-1.914l.016-.047H90.6a1.424,1.424,0,0,0,.609,1.2,2.358,2.358,0,0,0,1.336.379,2.1,2.1,0,0,0,1.285-.348A1.063,1.063,0,0,0,94.3,36.727ZM97.391,34.7a4.654,4.654,0,0,1,1.016-3.09,3.764,3.764,0,0,1,5.535,0,4.639,4.639,0,0,1,1.02,3.094v.172a4.631,4.631,0,0,1-1.016,3.094,3.781,3.781,0,0,1-5.535,0,4.623,4.623,0,0,1-1.02-3.09Zm1.539.172a4.009,4.009,0,0,0,.566,2.219,2.046,2.046,0,0,0,3.355,0,3.988,3.988,0,0,0,.57-2.219V34.7a3.976,3.976,0,0,0-.574-2.211,1.882,1.882,0,0,0-1.684-.883,1.856,1.856,0,0,0-1.668.883A4.018,4.018,0,0,0,98.93,34.7ZM108.508,39h-1.539V26.813h1.539Zm2.008-4.3a4.654,4.654,0,0,1,1.016-3.09,3.764,3.764,0,0,1,5.535,0,4.639,4.639,0,0,1,1.02,3.094v.172a4.631,4.631,0,0,1-1.016,3.094,3.781,3.781,0,0,1-5.535,0,4.623,4.623,0,0,1-1.02-3.09Zm1.539.172a4.009,4.009,0,0,0,.566,2.219,2.046,2.046,0,0,0,3.355,0,3.988,3.988,0,0,0,.57-2.219V34.7a3.976,3.976,0,0,0-.574-2.211,1.882,1.882,0,0,0-1.684-.883,1.856,1.856,0,0,0-1.668.883,4.018,4.018,0,0,0-.566,2.211ZM129.141,39q-.078-.383-.121-.676a4.96,4.96,0,0,1-.051-.59,3.588,3.588,0,0,1-1.121,1.02,2.867,2.867,0,0,1-1.488.41,2.763,2.763,0,0,1-2.012-.676,2.486,2.486,0,0,1-.691-1.863,2.183,2.183,0,0,1,.98-1.895,4.579,4.579,0,0,1,2.66-.684h1.672v-.836a1.551,1.551,0,0,0-.453-1.176,1.779,1.779,0,0,0-1.281-.434,1.859,1.859,0,0,0-1.211.375,1.125,1.125,0,0,0-.461.9l-1.461.016-.016-.047a2.023,2.023,0,0,1,.863-1.687,3.578,3.578,0,0,1,2.371-.766,3.49,3.49,0,0,1,2.313.73,2.588,2.588,0,0,1,.875,2.105V37.3a7.923,7.923,0,0,0,.047.875,4.5,4.5,0,0,0,.172.828Zm-2.555-1.125a2.739,2.739,0,0,0,1.508-.43,2.042,2.042,0,0,0,.875-.984V35.086h-1.727a2.24,2.24,0,0,0-1.488.469,1.4,1.4,0,0,0-.559,1.1,1.159,1.159,0,0,0,.352.891A1.472,1.472,0,0,0,126.586,37.875Zm12.273-9.367v2.039h1.6v1.141h-1.6V36.82a1.149,1.149,0,0,0,.246.836.89.89,0,0,0,.652.242,1.429,1.429,0,0,0,.3-.035,2.2,2.2,0,0,0,.273-.074l.211,1.055a1.36,1.36,0,0,1-.508.23,2.562,2.562,0,0,1-.664.09,1.993,1.993,0,0,1-1.492-.566,2.46,2.46,0,0,1-.555-1.777V31.688h-1.344V30.547h1.344V28.508ZM141.75,34.7a4.654,4.654,0,0,1,1.016-3.09,3.764,3.764,0,0,1,5.535,0,4.639,4.639,0,0,1,1.02,3.094v.172a4.631,4.631,0,0,1-1.016,3.094,3.781,3.781,0,0,1-5.535,0,4.623,4.623,0,0,1-1.02-3.09Zm1.539.172a4.009,4.009,0,0,0,.566,2.219,2.046,2.046,0,0,0,3.355,0,3.988,3.988,0,0,0,.57-2.219V34.7a3.976,3.976,0,0,0-.574-2.211,1.882,1.882,0,0,0-1.684-.883,1.856,1.856,0,0,0-1.668.883,4.018,4.018,0,0,0-.566,2.211Zm9.289-4.32.109,1.109a2.871,2.871,0,0,1,1.051-.934,3.158,3.158,0,0,1,1.48-.332,2.615,2.615,0,0,1,1.449.391,2.363,2.363,0,0,1,.91,1.172,3.162,3.162,0,0,1,1.059-1.145,2.769,2.769,0,0,1,1.527-.418,2.531,2.531,0,0,1,2.039.887,4.051,4.051,0,0,1,.75,2.668V39h-1.539V33.93a2.81,2.81,0,0,0-.43-1.77,1.567,1.567,0,0,0-1.281-.52,1.631,1.631,0,0,0-1.277.547,2.381,2.381,0,0,0-.574,1.383V39H156.3V33.93a2.772,2.772,0,0,0-.441-1.738,1.532,1.532,0,0,0-1.27-.551,2.115,2.115,0,0,0-1.156.289,1.867,1.867,0,0,0-.7.813V39H151.2V30.547ZM170.383,39q-.078-.383-.121-.676a4.96,4.96,0,0,1-.051-.59,3.588,3.588,0,0,1-1.121,1.02,2.867,2.867,0,0,1-1.488.41,2.763,2.763,0,0,1-2.012-.676,2.486,2.486,0,0,1-.691-1.863,2.183,2.183,0,0,1,.98-1.895,4.579,4.579,0,0,1,2.66-.684h1.672v-.836a1.551,1.551,0,0,0-.453-1.176,1.779,1.779,0,0,0-1.281-.434,1.859,1.859,0,0,0-1.211.375,1.125,1.125,0,0,0-.461.9l-1.461.016-.016-.047a2.023,2.023,0,0,1,.863-1.687,3.578,3.578,0,0,1,2.371-.766,3.49,3.49,0,0,1,2.313.73,2.588,2.588,0,0,1,.875,2.105V37.3a7.923,7.923,0,0,0,.047.875,4.5,4.5,0,0,0,.172.828Zm-2.555-1.125a2.739,2.739,0,0,0,1.508-.43,2.042,2.042,0,0,0,.875-.984V35.086h-1.727a2.24,2.24,0,0,0-1.488.469,1.4,1.4,0,0,0-.559,1.1,1.159,1.159,0,0,0,.352.891A1.472,1.472,0,0,0,167.828,37.875Zm10.156-5.969-.789-.047a1.762,1.762,0,0,0-1.027.289,1.855,1.855,0,0,0-.645.813V39h-1.539V30.547h1.375l.148,1.234a2.934,2.934,0,0,1,.887-1.023,2.073,2.073,0,0,1,1.215-.367,1.9,1.9,0,0,1,.328.027,2.174,2.174,0,0,1,.258.059Zm6.953-1.359.109,1.258a3.069,3.069,0,0,1,1.059-1.043,2.824,2.824,0,0,1,1.449-.371,2.759,2.759,0,0,1,2.117.8,3.515,3.515,0,0,1,.75,2.473V39h-1.539V33.7a2.287,2.287,0,0,0-.441-1.586,1.768,1.768,0,0,0-1.348-.469,2.386,2.386,0,0,0-1.207.285,2.072,2.072,0,0,0-.785.8V39h-1.539V30.547ZM192.3,34.7a4.654,4.654,0,0,1,1.016-3.09,3.764,3.764,0,0,1,5.535,0,4.639,4.639,0,0,1,1.02,3.094v.172a4.631,4.631,0,0,1-1.016,3.094,3.781,3.781,0,0,1-5.535,0,4.623,4.623,0,0,1-1.02-3.09Zm1.539.172a4.009,4.009,0,0,0,.566,2.219,2.046,2.046,0,0,0,3.355,0,3.988,3.988,0,0,0,.57-2.219V34.7a3.976,3.976,0,0,0-.574-2.211,1.882,1.882,0,0,0-1.684-.883,1.856,1.856,0,0,0-1.668.883,4.018,4.018,0,0,0-.566,2.211Zm10.055-6.359v2.039h1.6v1.141h-1.6V36.82a1.149,1.149,0,0,0,.246.836.89.89,0,0,0,.652.242,1.429,1.429,0,0,0,.3-.035,2.2,2.2,0,0,0,.273-.074l.211,1.055a1.36,1.36,0,0,1-.508.23,2.562,2.562,0,0,1-.664.09,1.993,1.993,0,0,1-1.492-.566,2.46,2.46,0,0,1-.555-1.777V31.688h-1.344V30.547h1.344V28.508ZM212.336,39q-.078-.383-.121-.676a4.96,4.96,0,0,1-.051-.59,3.588,3.588,0,0,1-1.121,1.02,2.867,2.867,0,0,1-1.488.41,2.763,2.763,0,0,1-2.012-.676,2.486,2.486,0,0,1-.691-1.863,2.183,2.183,0,0,1,.98-1.895,4.579,4.579,0,0,1,2.66-.684h1.672v-.836a1.551,1.551,0,0,0-.453-1.176,1.779,1.779,0,0,0-1.281-.434,1.859,1.859,0,0,0-1.211.375,1.125,1.125,0,0,0-.461.9l-1.461.016-.016-.047a2.023,2.023,0,0,1,.863-1.687,3.578,3.578,0,0,1,2.371-.766,3.49,3.49,0,0,1,2.313.73,2.588,2.588,0,0,1,.875,2.105V37.3a7.923,7.923,0,0,0,.047.875,4.5,4.5,0,0,0,.172.828Zm-2.555-1.125a2.739,2.739,0,0,0,1.508-.43,2.042,2.042,0,0,0,.875-.984V35.086h-1.727a2.24,2.24,0,0,0-1.488.469,1.4,1.4,0,0,0-.559,1.1,1.159,1.159,0,0,0,.352.891A1.472,1.472,0,0,0,209.781,37.875Zm11.07-1.148a1.026,1.026,0,0,0-.387-.828A3.732,3.732,0,0,0,219,35.336a6.146,6.146,0,0,1-2.293-.9,1.814,1.814,0,0,1-.8-1.547,2.229,2.229,0,0,1,.879-1.766,3.879,3.879,0,0,1,4.605.047,2.239,2.239,0,0,1,.852,1.82l-.016.047h-1.469a1.331,1.331,0,0,0-.48-.992,1.717,1.717,0,0,0-1.215-.445,1.751,1.751,0,0,0-1.215.367,1.146,1.146,0,0,0-.4.875.927.927,0,0,0,.348.773,3.848,3.848,0,0,0,1.434.5,6.058,6.058,0,0,1,2.359.93,1.872,1.872,0,0,1,.8,1.57,2.226,2.226,0,0,1-.91,1.836,3.754,3.754,0,0,1-2.379.711,3.715,3.715,0,0,1-2.547-.82,2.341,2.341,0,0,1-.883-1.914l.016-.047h1.469a1.424,1.424,0,0,0,.609,1.2,2.358,2.358,0,0,0,1.336.379,2.1,2.1,0,0,0,1.285-.348A1.063,1.063,0,0,0,220.852,36.727Zm10.016-.859.273,1.063h.047l2.078-6.383h1.711l-3.555,9.75a4.383,4.383,0,0,1-.918,1.484,2.113,2.113,0,0,1-1.613.633,3.363,3.363,0,0,1-.477-.043q-.289-.043-.445-.082l.156-1.211a2.062,2.062,0,0,1,.277.016q.324.023.41.023a.95.95,0,0,0,.8-.437,4.543,4.543,0,0,0,.523-.969l.367-.883-3.141-8.281h1.719ZM6.313,63q-.078-.383-.121-.676a4.96,4.96,0,0,1-.051-.59,3.589,3.589,0,0,1-1.121,1.02,2.867,2.867,0,0,1-1.488.41,2.763,2.763,0,0,1-2.012-.676,2.486,2.486,0,0,1-.691-1.863,2.183,2.183,0,0,1,.98-1.895,4.579,4.579,0,0,1,2.66-.684H6.141v-.836a1.551,1.551,0,0,0-.453-1.176A1.779,1.779,0,0,0,4.406,55.6a1.859,1.859,0,0,0-1.211.375,1.125,1.125,0,0,0-.461.9l-1.461.016-.016-.047a2.023,2.023,0,0,1,.863-1.687,3.578,3.578,0,0,1,2.371-.766,3.49,3.49,0,0,1,2.313.73,2.588,2.588,0,0,1,.875,2.105V61.3a7.923,7.923,0,0,0,.047.875A4.5,4.5,0,0,0,7.9,63ZM3.758,61.875a2.739,2.739,0,0,0,1.508-.43,2.042,2.042,0,0,0,.875-.984V59.086H4.414a2.24,2.24,0,0,0-1.488.469,1.4,1.4,0,0,0-.559,1.1,1.159,1.159,0,0,0,.352.891A1.472,1.472,0,0,0,3.758,61.875Zm11.508-7.328.109,1.258a3.069,3.069,0,0,1,1.059-1.043,2.824,2.824,0,0,1,1.449-.371,2.759,2.759,0,0,1,2.117.8,3.515,3.515,0,0,1,.75,2.473V63H19.211V57.7a2.287,2.287,0,0,0-.441-1.586,1.768,1.768,0,0,0-1.348-.469,2.386,2.386,0,0,0-1.207.285,2.072,2.072,0,0,0-.785.8V63H13.891V54.547ZM22.625,58.7a4.654,4.654,0,0,1,1.016-3.09A3.406,3.406,0,0,1,26.4,54.391,3.439,3.439,0,0,1,29.176,55.6,4.639,4.639,0,0,1,30.2,58.7v.172a4.631,4.631,0,0,1-1.016,3.094,3.429,3.429,0,0,1-2.766,1.2,3.436,3.436,0,0,1-2.77-1.207,4.623,4.623,0,0,1-1.02-3.09Zm1.539.172a4.009,4.009,0,0,0,.566,2.219,2.046,2.046,0,0,0,3.355,0,3.988,3.988,0,0,0,.57-2.219V58.7a3.976,3.976,0,0,0-.574-2.211A1.882,1.882,0,0,0,26.4,55.6a1.856,1.856,0,0,0-1.668.883,4.018,4.018,0,0,0-.566,2.211ZM37.719,63H36.18V54.547h1.539Zm0-10.617H36.18v-1.57h1.539Zm3.742,2.164L41.57,55.8a3.069,3.069,0,0,1,1.059-1.043,2.824,2.824,0,0,1,1.449-.371,2.759,2.759,0,0,1,2.117.8,3.515,3.515,0,0,1,.75,2.473V63H45.406V57.7a2.287,2.287,0,0,0-.441-1.586,1.768,1.768,0,0,0-1.348-.469,2.386,2.386,0,0,0-1.207.285,2.072,2.072,0,0,0-.785.8V63H40.086V54.547Zm9.859-2.039v2.039h1.6v1.141h-1.6V60.82a1.149,1.149,0,0,0,.246.836.89.89,0,0,0,.652.242,1.429,1.429,0,0,0,.3-.035,2.2,2.2,0,0,0,.273-.074L53,62.844a1.36,1.36,0,0,1-.508.23,2.562,2.562,0,0,1-.664.09,1.993,1.993,0,0,1-1.492-.566,2.46,2.46,0,0,1-.555-1.777V55.688H48.438V54.547h1.344V52.508Zm6.75,10.656A3.576,3.576,0,0,1,55.23,62a4.48,4.48,0,0,1-1.02-3.062v-.344a4.386,4.386,0,0,1,1.051-3.012,3.3,3.3,0,0,1,2.566-1.191,3.067,3.067,0,0,1,2.543,1.055,4.345,4.345,0,0,1,.848,2.8v.813H55.813l-.023.039a3.494,3.494,0,0,0,.563,2.066,1.965,1.965,0,0,0,1.719.793,3.872,3.872,0,0,0,1.371-.223,3.061,3.061,0,0,0,1.012-.613l.6,1a3.7,3.7,0,0,1-1.2.738A4.762,4.762,0,0,1,58.07,63.164ZM57.828,55.6a1.673,1.673,0,0,0-1.332.621,2.938,2.938,0,0,0-.645,1.59l.016.039H59.68v-.125a2.462,2.462,0,0,0-.453-1.523A1.638,1.638,0,0,0,57.828,55.6Zm9.117.3-.789-.047a1.762,1.762,0,0,0-1.027.289,1.854,1.854,0,0,0-.645.813V63H62.945V54.547H64.32l.148,1.234a2.934,2.934,0,0,1,.887-1.023,2.073,2.073,0,0,1,1.215-.367,1.9,1.9,0,0,1,.328.027,2.175,2.175,0,0,1,.258.059ZM69.3,63V55.688h-1.32V54.547H69.3v-1.07a2.9,2.9,0,0,1,.707-2.09,2.6,2.6,0,0,1,1.973-.738,3.4,3.4,0,0,1,.535.043q.27.043.6.121l-.187,1.172q-.141-.031-.34-.055a3.579,3.579,0,0,0-.418-.023,1.215,1.215,0,0,0-1,.4,1.809,1.809,0,0,0-.328,1.168v1.07h1.531v1.141H70.844V63Zm7.938.164A3.576,3.576,0,0,1,74.4,62a4.48,4.48,0,0,1-1.02-3.062v-.344a4.386,4.386,0,0,1,1.051-3.012A3.3,3.3,0,0,1,77,54.391a3.067,3.067,0,0,1,2.543,1.055,4.345,4.345,0,0,1,.848,2.8v.813H74.984l-.023.039a3.494,3.494,0,0,0,.563,2.066,1.965,1.965,0,0,0,1.719.793,3.872,3.872,0,0,0,1.371-.223,3.061,3.061,0,0,0,1.012-.613l.6,1a3.7,3.7,0,0,1-1.2.738A4.762,4.762,0,0,1,77.242,63.164ZM77,55.6a1.673,1.673,0,0,0-1.332.621,2.938,2.938,0,0,0-.645,1.59l.016.039h3.813v-.125A2.462,2.462,0,0,0,78.4,56.2,1.638,1.638,0,0,0,77,55.6Zm9.117.3-.789-.047a1.762,1.762,0,0,0-1.027.289,1.854,1.854,0,0,0-.645.813V63H82.117V54.547h1.375l.148,1.234a2.934,2.934,0,0,1,.887-1.023,2.073,2.073,0,0,1,1.215-.367,1.9,1.9,0,0,1,.328.027,2.175,2.175,0,0,1,.258.059ZM89.383,63H87.844V54.547h1.539Zm0-10.617H87.844v-1.57h1.539Zm6.367,3.523-.789-.047a1.762,1.762,0,0,0-1.027.289,1.854,1.854,0,0,0-.645.813V63H91.75V54.547h1.375l.148,1.234a2.934,2.934,0,0,1,.887-1.023,2.073,2.073,0,0,1,1.215-.367,1.9,1.9,0,0,1,.328.027,2.175,2.175,0,0,1,.258.059Zm9.078,7.258A3.576,3.576,0,0,1,101.988,62a4.48,4.48,0,0,1-1.02-3.062v-.344a4.386,4.386,0,0,1,1.051-3.012,3.3,3.3,0,0,1,2.566-1.191,3.067,3.067,0,0,1,2.543,1.055,4.345,4.345,0,0,1,.848,2.8v.813H102.57l-.023.039a3.494,3.494,0,0,0,.563,2.066,1.965,1.965,0,0,0,1.719.793,3.872,3.872,0,0,0,1.371-.223,3.061,3.061,0,0,0,1.012-.613l.6,1a3.7,3.7,0,0,1-1.2.738A4.762,4.762,0,0,1,104.828,63.164Zm-.242-7.562a1.673,1.673,0,0,0-1.332.621,2.938,2.938,0,0,0-.645,1.59l.016.039h3.813v-.125a2.462,2.462,0,0,0-.453-1.523A1.638,1.638,0,0,0,104.586,55.6Zm6.492-1.055.109,1.258a3.069,3.069,0,0,1,1.059-1.043,2.824,2.824,0,0,1,1.449-.371,2.759,2.759,0,0,1,2.117.8,3.515,3.515,0,0,1,.75,2.473V63h-1.539V57.7a2.287,2.287,0,0,0-.441-1.586,1.768,1.768,0,0,0-1.348-.469,2.386,2.386,0,0,0-1.207.285,2.072,2.072,0,0,0-.785.8V63H109.7V54.547Zm15.2,8.617A3.576,3.576,0,0,1,123.434,62a4.48,4.48,0,0,1-1.02-3.062v-.344a4.386,4.386,0,0,1,1.051-3.012,3.3,3.3,0,0,1,2.566-1.191,3.067,3.067,0,0,1,2.543,1.055,4.345,4.345,0,0,1,.848,2.8v.813h-5.406l-.023.039a3.494,3.494,0,0,0,.563,2.066,1.965,1.965,0,0,0,1.719.793,3.872,3.872,0,0,0,1.371-.223,3.061,3.061,0,0,0,1.012-.613l.6,1a3.7,3.7,0,0,1-1.2.738A4.762,4.762,0,0,1,126.273,63.164Zm-.242-7.562a1.673,1.673,0,0,0-1.332.621,2.938,2.938,0,0,0-.645,1.59l.016.039h3.813v-.125a2.462,2.462,0,0,0-.453-1.523A1.638,1.638,0,0,0,126.031,55.6Zm6.781,7.4h-1.539V50.813h1.539Zm5.992-4.07a5.641,5.641,0,0,1,.871-3.289,2.807,2.807,0,0,1,2.441-1.25,3.027,3.027,0,0,1,1.316.273,2.7,2.7,0,0,1,.98.8V50.813h1.539V63h-1.18l-.234-1.07a2.743,2.743,0,0,1-1.023.922,3.058,3.058,0,0,1-1.414.313,2.9,2.9,0,0,1-2.422-1.121,4.659,4.659,0,0,1-.875-2.949Zm1.539.164a3.588,3.588,0,0,0,.523,2.051,1.828,1.828,0,0,0,1.625.77,2.039,2.039,0,0,0,1.156-.312,2.334,2.334,0,0,0,.766-.875V56.781a2.37,2.37,0,0,0-.77-.832,2.033,2.033,0,0,0-1.137-.309,1.759,1.759,0,0,0-1.637.914,4.718,4.718,0,0,0-.527,2.375Zm11.406,4.07A3.576,3.576,0,0,1,148.91,62a4.48,4.48,0,0,1-1.02-3.062v-.344a4.386,4.386,0,0,1,1.051-3.012,3.3,3.3,0,0,1,2.566-1.191,3.067,3.067,0,0,1,2.543,1.055,4.345,4.345,0,0,1,.848,2.8v.813h-5.406l-.023.039a3.494,3.494,0,0,0,.563,2.066,1.965,1.965,0,0,0,1.719.793,3.872,3.872,0,0,0,1.371-.223,3.061,3.061,0,0,0,1.012-.613l.6,1a3.7,3.7,0,0,1-1.2.738A4.762,4.762,0,0,1,151.75,63.164Zm-.242-7.562a1.673,1.673,0,0,0-1.332.621,2.938,2.938,0,0,0-.645,1.59l.016.039h3.813v-.125a2.462,2.462,0,0,0-.453-1.523A1.638,1.638,0,0,0,151.508,55.6Zm10.031,5.125a1.026,1.026,0,0,0-.387-.828,3.732,3.732,0,0,0-1.465-.562,6.146,6.146,0,0,1-2.293-.9,1.814,1.814,0,0,1-.8-1.547,2.229,2.229,0,0,1,.879-1.766,3.879,3.879,0,0,1,4.605.047,2.239,2.239,0,0,1,.852,1.82l-.016.047h-1.469a1.331,1.331,0,0,0-.48-.992,1.717,1.717,0,0,0-1.215-.445,1.751,1.751,0,0,0-1.215.367,1.146,1.146,0,0,0-.4.875.927.927,0,0,0,.348.773,3.848,3.848,0,0,0,1.434.5,6.058,6.058,0,0,1,2.359.93,1.872,1.872,0,0,1,.8,1.57,2.226,2.226,0,0,1-.91,1.836,3.754,3.754,0,0,1-2.379.711,3.715,3.715,0,0,1-2.547-.82,2.341,2.341,0,0,1-.883-1.914l.016-.047h1.469a1.424,1.424,0,0,0,.609,1.2,2.358,2.358,0,0,0,1.336.379,2.1,2.1,0,0,0,1.285-.348A1.063,1.063,0,0,0,161.539,60.727Zm6.953,2.438A3.576,3.576,0,0,1,165.652,62a4.48,4.48,0,0,1-1.02-3.062v-.344a4.386,4.386,0,0,1,1.051-3.012,3.3,3.3,0,0,1,2.566-1.191,3.067,3.067,0,0,1,2.543,1.055,4.345,4.345,0,0,1,.848,2.8v.813h-5.406l-.023.039a3.494,3.494,0,0,0,.563,2.066,1.965,1.965,0,0,0,1.719.793,3.872,3.872,0,0,0,1.371-.223,3.061,3.061,0,0,0,1.012-.613l.6,1a3.7,3.7,0,0,1-1.2.738A4.762,4.762,0,0,1,168.492,63.164ZM168.25,55.6a1.673,1.673,0,0,0-1.332.621,2.938,2.938,0,0,0-.645,1.59l.016.039H170.1v-.125a2.462,2.462,0,0,0-.453-1.523A1.638,1.638,0,0,0,168.25,55.6Zm6.492-1.055.109,1.109a2.871,2.871,0,0,1,1.051-.934,3.158,3.158,0,0,1,1.48-.332,2.615,2.615,0,0,1,1.449.391,2.363,2.363,0,0,1,.91,1.172,3.162,3.162,0,0,1,1.059-1.145,2.769,2.769,0,0,1,1.527-.418,2.531,2.531,0,0,1,2.039.887,4.051,4.051,0,0,1,.75,2.668V63h-1.539V57.93a2.81,2.81,0,0,0-.43-1.77,1.567,1.567,0,0,0-1.281-.52,1.631,1.631,0,0,0-1.277.547,2.381,2.381,0,0,0-.574,1.383V63h-1.547V57.93a2.772,2.772,0,0,0-.441-1.738,1.532,1.532,0,0,0-1.27-.551,2.115,2.115,0,0,0-1.156.289,1.867,1.867,0,0,0-.7.813V63h-1.539V54.547Zm19.813,4.547a4.659,4.659,0,0,1-.875,2.949,2.893,2.893,0,0,1-2.414,1.121,3.354,3.354,0,0,1-1.371-.262,2.622,2.622,0,0,1-1-.785V66.25h-1.539v-11.7h1.18l.242,1.094a2.792,2.792,0,0,1,1.031-.93,3.078,3.078,0,0,1,1.438-.32,2.809,2.809,0,0,1,2.441,1.246,5.637,5.637,0,0,1,.871,3.293Zm-1.539-.164a4.467,4.467,0,0,0-.566-2.363,1.835,1.835,0,0,0-1.668-.926,2.054,2.054,0,0,0-1.133.3,2.25,2.25,0,0,0-.758.824v4.086a2.186,2.186,0,0,0,.758.816,2.126,2.126,0,0,0,1.148.293,1.894,1.894,0,0,0,1.656-.8,3.516,3.516,0,0,0,.563-2.066Zm6.93,4.234A3.576,3.576,0,0,1,197.105,62a4.48,4.48,0,0,1-1.02-3.062v-.344a4.386,4.386,0,0,1,1.051-3.012,3.3,3.3,0,0,1,2.566-1.191,3.067,3.067,0,0,1,2.543,1.055,4.345,4.345,0,0,1,.848,2.8v.813h-5.406l-.023.039a3.494,3.494,0,0,0,.563,2.066,1.965,1.965,0,0,0,1.719.793,3.872,3.872,0,0,0,1.371-.223,3.061,3.061,0,0,0,1.012-.613l.6,1a3.7,3.7,0,0,1-1.2.738A4.762,4.762,0,0,1,199.945,63.164ZM199.7,55.6a1.673,1.673,0,0,0-1.332.621,2.938,2.938,0,0,0-.645,1.59l.016.039h3.813v-.125A2.462,2.462,0,0,0,201.1,56.2,1.638,1.638,0,0,0,199.7,55.6Zm6.492-1.055L206.3,55.8a3.069,3.069,0,0,1,1.059-1.043,2.824,2.824,0,0,1,1.449-.371,2.759,2.759,0,0,1,2.117.8,3.515,3.515,0,0,1,.75,2.473V63h-1.539V57.7a2.287,2.287,0,0,0-.441-1.586,1.768,1.768,0,0,0-1.348-.469,2.386,2.386,0,0,0-1.207.285,2.072,2.072,0,0,0-.785.8V63H204.82V54.547Zm4.734-3.437a1.772,1.772,0,0,1-.465,1.242,1.516,1.516,0,0,1-1.168.508,2.242,2.242,0,0,1-1.156-.363,2.07,2.07,0,0,0-1-.363.724.724,0,0,0-.562.254.889.889,0,0,0-.227.613l-.844-.2a1.872,1.872,0,0,1,.461-1.262A1.479,1.479,0,0,1,207.141,51a2.379,2.379,0,0,1,1.094.367,2.356,2.356,0,0,0,1.063.367.731.731,0,0,0,.555-.254.882.882,0,0,0,.234-.621Zm2.625,7.586a4.654,4.654,0,0,1,1.016-3.09,3.764,3.764,0,0,1,5.535,0,4.639,4.639,0,0,1,1.02,3.094v.172a4.631,4.631,0,0,1-1.016,3.094,3.781,3.781,0,0,1-5.535,0,4.623,4.623,0,0,1-1.02-3.09Zm1.539.172a4.009,4.009,0,0,0,.566,2.219,2.046,2.046,0,0,0,3.355,0,3.988,3.988,0,0,0,.57-2.219V58.7a3.976,3.976,0,0,0-.574-2.211,1.882,1.882,0,0,0-1.684-.883,1.856,1.856,0,0,0-1.668.883,4.018,4.018,0,0,0-.566,2.211ZM2.492,78.547,2.6,79.8A3.069,3.069,0,0,1,3.66,78.762a2.824,2.824,0,0,1,1.449-.371,2.759,2.759,0,0,1,2.117.8,3.515,3.515,0,0,1,.75,2.473V87H6.438V81.7A2.287,2.287,0,0,0,6,80.109a1.768,1.768,0,0,0-1.348-.469,2.386,2.386,0,0,0-1.207.285,2.072,2.072,0,0,0-.785.8V87H1.117V78.547ZM9.852,82.7a4.654,4.654,0,0,1,1.016-3.09,3.406,3.406,0,0,1,2.758-1.215A3.439,3.439,0,0,1,16.4,79.6a4.639,4.639,0,0,1,1.02,3.094v.172a4.631,4.631,0,0,1-1.016,3.094,3.429,3.429,0,0,1-2.766,1.2,3.436,3.436,0,0,1-2.77-1.207,4.623,4.623,0,0,1-1.02-3.09Zm1.539.172a4.009,4.009,0,0,0,.566,2.219,1.875,1.875,0,0,0,1.684.875,1.87,1.87,0,0,0,1.672-.875,3.988,3.988,0,0,0,.57-2.219V82.7a3.976,3.976,0,0,0-.574-2.211,1.882,1.882,0,0,0-1.684-.883,1.856,1.856,0,0,0-1.668.883,4.018,4.018,0,0,0-.566,2.211ZM23.3,79.906l-.789-.047a1.762,1.762,0,0,0-1.027.289,1.854,1.854,0,0,0-.645.813V87H19.3V78.547H20.68l.148,1.234a2.934,2.934,0,0,1,.887-1.023,2.073,2.073,0,0,1,1.215-.367,1.9,1.9,0,0,1,.328.027,2.174,2.174,0,0,1,.258.059Zm2.977-1.359.109,1.109a2.871,2.871,0,0,1,1.051-.934,3.158,3.158,0,0,1,1.48-.332,2.615,2.615,0,0,1,1.449.391,2.363,2.363,0,0,1,.91,1.172,3.162,3.162,0,0,1,1.059-1.145,2.769,2.769,0,0,1,1.527-.418,2.531,2.531,0,0,1,2.039.887,4.051,4.051,0,0,1,.75,2.668V87H35.117V81.93a2.81,2.81,0,0,0-.43-1.77,1.567,1.567,0,0,0-1.281-.52,1.631,1.631,0,0,0-1.277.547,2.381,2.381,0,0,0-.574,1.383V87H30.008V81.93a2.772,2.772,0,0,0-.441-1.738,1.532,1.532,0,0,0-1.27-.551,2.115,2.115,0,0,0-1.156.289,1.867,1.867,0,0,0-.7.813V87H24.906V78.547ZM44.086,87q-.078-.383-.121-.676a4.96,4.96,0,0,1-.051-.59,3.589,3.589,0,0,1-1.121,1.02,2.867,2.867,0,0,1-1.488.41,2.763,2.763,0,0,1-2.012-.676,2.486,2.486,0,0,1-.691-1.863,2.183,2.183,0,0,1,.98-1.895,4.579,4.579,0,0,1,2.66-.684h1.672v-.836a1.551,1.551,0,0,0-.453-1.176A1.779,1.779,0,0,0,42.18,79.6a1.859,1.859,0,0,0-1.211.375,1.125,1.125,0,0,0-.461.9l-1.461.016-.016-.047a2.023,2.023,0,0,1,.863-1.687,3.578,3.578,0,0,1,2.371-.766,3.49,3.49,0,0,1,2.313.73,2.588,2.588,0,0,1,.875,2.105V85.3a7.923,7.923,0,0,0,.047.875,4.5,4.5,0,0,0,.172.828Zm-2.555-1.125a2.739,2.739,0,0,0,1.508-.43,2.042,2.042,0,0,0,.875-.984V83.086H42.188a2.24,2.24,0,0,0-1.488.469,1.4,1.4,0,0,0-.559,1.1,1.159,1.159,0,0,0,.352.891A1.472,1.472,0,0,0,41.531,85.875ZM49.352,87H47.813V74.813h1.539Zm5.992-4.07a5.641,5.641,0,0,1,.871-3.289,2.807,2.807,0,0,1,2.441-1.25,3.027,3.027,0,0,1,1.316.273,2.7,2.7,0,0,1,.98.8V74.813h1.539V87h-1.18l-.234-1.07a2.743,2.743,0,0,1-1.023.922,3.058,3.058,0,0,1-1.414.313,2.9,2.9,0,0,1-2.422-1.121,4.659,4.659,0,0,1-.875-2.949Zm1.539.164a3.588,3.588,0,0,0,.523,2.051,1.828,1.828,0,0,0,1.625.77,2.039,2.039,0,0,0,1.156-.312,2.334,2.334,0,0,0,.766-.875V80.781a2.37,2.37,0,0,0-.77-.832,2.033,2.033,0,0,0-1.137-.309,1.759,1.759,0,0,0-1.637.914,4.718,4.718,0,0,0-.527,2.375Zm11.406,4.07A3.576,3.576,0,0,1,65.449,86a4.48,4.48,0,0,1-1.02-3.062v-.344a4.386,4.386,0,0,1,1.051-3.012,3.3,3.3,0,0,1,2.566-1.191,3.067,3.067,0,0,1,2.543,1.055,4.345,4.345,0,0,1,.848,2.8v.813H66.031l-.023.039a3.494,3.494,0,0,0,.563,2.066,1.965,1.965,0,0,0,1.719.793,3.872,3.872,0,0,0,1.371-.223,3.061,3.061,0,0,0,1.012-.613l.6,1a3.7,3.7,0,0,1-1.2.738A4.762,4.762,0,0,1,68.289,87.164ZM68.047,79.6a1.673,1.673,0,0,0-1.332.621,2.938,2.938,0,0,0-.645,1.59l.016.039H69.9v-.125a2.462,2.462,0,0,0-.453-1.523A1.638,1.638,0,0,0,68.047,79.6ZM78.8,87H77.266V74.813H78.8Zm7.563,0q-.078-.383-.121-.676a4.96,4.96,0,0,1-.051-.59,3.589,3.589,0,0,1-1.121,1.02,2.867,2.867,0,0,1-1.488.41,2.763,2.763,0,0,1-2.012-.676,2.486,2.486,0,0,1-.691-1.863,2.183,2.183,0,0,1,.98-1.895,4.579,4.579,0,0,1,2.66-.684H86.2v-.836a1.551,1.551,0,0,0-.453-1.176,1.779,1.779,0,0,0-1.281-.434,1.859,1.859,0,0,0-1.211.375,1.125,1.125,0,0,0-.461.9l-1.461.016-.016-.047a2.023,2.023,0,0,1,.863-1.687,3.578,3.578,0,0,1,2.371-.766,3.49,3.49,0,0,1,2.313.73,2.588,2.588,0,0,1,.875,2.105V85.3a7.923,7.923,0,0,0,.047.875,4.5,4.5,0,0,0,.172.828Zm-2.555-1.125a2.739,2.739,0,0,0,1.508-.43,2.042,2.042,0,0,0,.875-.984V83.086H84.469a2.24,2.24,0,0,0-1.488.469,1.4,1.4,0,0,0-.559,1.1,1.159,1.159,0,0,0,.352.891A1.472,1.472,0,0,0,83.813,85.875Zm11.07-1.148A1.026,1.026,0,0,0,94.5,83.9a3.733,3.733,0,0,0-1.465-.562,6.146,6.146,0,0,1-2.293-.9,1.814,1.814,0,0,1-.8-1.547,2.229,2.229,0,0,1,.879-1.766,3.879,3.879,0,0,1,4.605.047,2.239,2.239,0,0,1,.852,1.82l-.016.047H94.789a1.331,1.331,0,0,0-.48-.992,1.717,1.717,0,0,0-1.215-.445,1.751,1.751,0,0,0-1.215.367,1.146,1.146,0,0,0-.4.875.927.927,0,0,0,.348.773,3.848,3.848,0,0,0,1.434.5,6.058,6.058,0,0,1,2.359.93,1.872,1.872,0,0,1,.8,1.57,2.226,2.226,0,0,1-.91,1.836,3.754,3.754,0,0,1-2.379.711,3.715,3.715,0,0,1-2.547-.82A2.341,2.341,0,0,1,89.7,84.43l.016-.047h1.469a1.424,1.424,0,0,0,.609,1.2,2.358,2.358,0,0,0,1.336.379,2.1,2.1,0,0,0,1.285-.348A1.063,1.063,0,0,0,94.883,84.727Zm7.07-2.031a4.654,4.654,0,0,1,1.016-3.09,3.764,3.764,0,0,1,5.535,0,4.639,4.639,0,0,1,1.02,3.094v.172a4.631,4.631,0,0,1-1.016,3.094,3.781,3.781,0,0,1-5.535,0,4.623,4.623,0,0,1-1.02-3.09Zm1.539.172a4.009,4.009,0,0,0,.566,2.219,2.046,2.046,0,0,0,3.355,0,3.988,3.988,0,0,0,.57-2.219V82.7a3.976,3.976,0,0,0-.574-2.211,1.882,1.882,0,0,0-1.684-.883,1.856,1.856,0,0,0-1.668.883,4.018,4.018,0,0,0-.566,2.211Zm15.117.227a4.659,4.659,0,0,1-.875,2.949,2.893,2.893,0,0,1-2.414,1.121,3.354,3.354,0,0,1-1.371-.262,2.622,2.622,0,0,1-1-.785V90.25h-1.539v-11.7h1.18l.242,1.094a2.792,2.792,0,0,1,1.031-.93,3.078,3.078,0,0,1,1.438-.32,2.809,2.809,0,0,1,2.441,1.246,5.638,5.638,0,0,1,.871,3.293Zm-1.539-.164a4.467,4.467,0,0,0-.566-2.363,1.835,1.835,0,0,0-1.668-.926,2.053,2.053,0,0,0-1.133.3,2.25,2.25,0,0,0-.758.824v4.086a2.186,2.186,0,0,0,.758.816,2.126,2.126,0,0,0,1.148.293,1.894,1.894,0,0,0,1.656-.8,3.516,3.516,0,0,0,.563-2.066ZM124,87.164A3.576,3.576,0,0,1,121.16,86a4.48,4.48,0,0,1-1.02-3.062v-.344a4.386,4.386,0,0,1,1.051-3.012,3.3,3.3,0,0,1,2.566-1.191,3.067,3.067,0,0,1,2.543,1.055,4.345,4.345,0,0,1,.848,2.8v.813h-5.406l-.023.039a3.494,3.494,0,0,0,.563,2.066,1.965,1.965,0,0,0,1.719.793,3.872,3.872,0,0,0,1.371-.223,3.061,3.061,0,0,0,1.012-.613l.6,1a3.7,3.7,0,0,1-1.2.738A4.762,4.762,0,0,1,124,87.164Zm-.242-7.562a1.673,1.673,0,0,0-1.332.621,2.938,2.938,0,0,0-.645,1.59l.016.039h3.813v-.125a2.462,2.462,0,0,0-.453-1.523A1.638,1.638,0,0,0,123.758,79.6Zm9.117.3-.789-.047a1.762,1.762,0,0,0-1.027.289,1.855,1.855,0,0,0-.645.813V87h-1.539V78.547h1.375l.148,1.234a2.934,2.934,0,0,1,.887-1.023,2.073,2.073,0,0,1,1.215-.367,1.9,1.9,0,0,1,.328.027,2.173,2.173,0,0,1,.258.059Zm6.8,7.094q-.078-.383-.121-.676a4.96,4.96,0,0,1-.051-.59,3.588,3.588,0,0,1-1.121,1.02,2.867,2.867,0,0,1-1.488.41,2.763,2.763,0,0,1-2.012-.676,2.486,2.486,0,0,1-.691-1.863,2.183,2.183,0,0,1,.98-1.895,4.579,4.579,0,0,1,2.66-.684H139.5v-.836a1.551,1.551,0,0,0-.453-1.176,1.779,1.779,0,0,0-1.281-.434,1.859,1.859,0,0,0-1.211.375,1.125,1.125,0,0,0-.461.9l-1.461.016-.016-.047a2.023,2.023,0,0,1,.863-1.687,3.578,3.578,0,0,1,2.371-.766,3.49,3.49,0,0,1,2.313.73,2.588,2.588,0,0,1,.875,2.105V85.3a7.923,7.923,0,0,0,.047.875,4.5,4.5,0,0,0,.172.828Zm-2.555-1.125a2.739,2.739,0,0,0,1.508-.43,2.042,2.042,0,0,0,.875-.984V83.086h-1.727a2.24,2.24,0,0,0-1.488.469,1.4,1.4,0,0,0-.559,1.1,1.159,1.159,0,0,0,.352.891A1.472,1.472,0,0,0,137.117,85.875Zm9.516.086a1.81,1.81,0,0,0,1.242-.473,1.493,1.493,0,0,0,.531-1.16H149.8l.023.047a2.428,2.428,0,0,1-.937,1.941,3.582,3.582,0,0,1-5-.363,4.674,4.674,0,0,1-.969-3.016v-.328a4.654,4.654,0,0,1,.973-3,3.317,3.317,0,0,1,2.746-1.215,3.189,3.189,0,0,1,2.316.875,2.775,2.775,0,0,1,.871,2.148l-.016.047h-1.4a1.865,1.865,0,0,0-.5-1.316,1.658,1.658,0,0,0-1.27-.543,1.777,1.777,0,0,0-1.652.879,4.114,4.114,0,0,0-.52,2.129v.328a4.192,4.192,0,0,0,.512,2.148A1.776,1.776,0,0,0,146.633,85.961ZM153.313,87h-1.539V78.547h1.539Zm0-10.617h-1.539v-1.57h1.539ZM155.32,82.7a4.654,4.654,0,0,1,1.016-3.09,3.764,3.764,0,0,1,5.535,0,4.639,4.639,0,0,1,1.02,3.094v.172a4.631,4.631,0,0,1-1.016,3.094,3.781,3.781,0,0,1-5.535,0,4.623,4.623,0,0,1-1.02-3.09Zm1.539.172a4.009,4.009,0,0,0,.566,2.219,2.046,2.046,0,0,0,3.355,0,3.988,3.988,0,0,0,.57-2.219V82.7a3.976,3.976,0,0,0-.574-2.211,1.882,1.882,0,0,0-1.684-.883,1.856,1.856,0,0,0-1.668.883,4.018,4.018,0,0,0-.566,2.211Zm9.289-4.32.109,1.258a3.069,3.069,0,0,1,1.059-1.043,2.824,2.824,0,0,1,1.449-.371,2.759,2.759,0,0,1,2.117.8,3.515,3.515,0,0,1,.75,2.473V87h-1.539V81.7a2.287,2.287,0,0,0-.441-1.586,1.768,1.768,0,0,0-1.348-.469,2.386,2.386,0,0,0-1.207.285,2.072,2.072,0,0,0-.785.8V87h-1.539V78.547Zm11.219,8.617A3.576,3.576,0,0,1,174.527,86a4.48,4.48,0,0,1-1.02-3.062v-.344a4.386,4.386,0,0,1,1.051-3.012,3.3,3.3,0,0,1,2.566-1.191,3.067,3.067,0,0,1,2.543,1.055,4.345,4.345,0,0,1,.848,2.8v.813h-5.406l-.023.039a3.494,3.494,0,0,0,.563,2.066,1.965,1.965,0,0,0,1.719.793,3.872,3.872,0,0,0,1.371-.223,3.061,3.061,0,0,0,1.012-.613l.6,1a3.7,3.7,0,0,1-1.2.738A4.762,4.762,0,0,1,177.367,87.164Zm-.242-7.562a1.673,1.673,0,0,0-1.332.621,2.938,2.938,0,0,0-.645,1.59l.016.039h3.813v-.125a2.462,2.462,0,0,0-.453-1.523A1.638,1.638,0,0,0,177.125,79.6Zm10.031,5.125a1.026,1.026,0,0,0-.387-.828,3.733,3.733,0,0,0-1.465-.562,6.146,6.146,0,0,1-2.293-.9,1.814,1.814,0,0,1-.8-1.547,2.229,2.229,0,0,1,.879-1.766,3.879,3.879,0,0,1,4.605.047,2.239,2.239,0,0,1,.852,1.82l-.016.047h-1.469a1.331,1.331,0,0,0-.48-.992,1.717,1.717,0,0,0-1.215-.445,1.751,1.751,0,0,0-1.215.367,1.146,1.146,0,0,0-.4.875.927.927,0,0,0,.348.773,3.848,3.848,0,0,0,1.434.5,6.058,6.058,0,0,1,2.359.93,1.872,1.872,0,0,1,.8,1.57,2.226,2.226,0,0,1-.91,1.836,3.754,3.754,0,0,1-2.379.711,3.715,3.715,0,0,1-2.547-.82,2.341,2.341,0,0,1-.883-1.914l.016-.047h1.469a1.424,1.424,0,0,0,.609,1.2,2.358,2.358,0,0,0,1.336.379,2.1,2.1,0,0,0,1.285-.348A1.063,1.063,0,0,0,187.156,84.727ZM192.289,87H190.75V85.422h1.539Z" transform="translate(281.213 1688.025)" fill="#fff"/>
    <path id="Trazado_884217" data-name="Trazado 884217" d="M7.539,9.727H2.867V13.8H8.336V15H1.328V3.625H8.25V4.836H2.867v3.68H7.539ZM11.609,15H10.07V2.813h1.539Zm5.984-4.3a4.654,4.654,0,0,1,1.016-3.09,3.406,3.406,0,0,1,2.758-1.215A3.439,3.439,0,0,1,24.145,7.6a4.639,4.639,0,0,1,1.02,3.094v.172a4.631,4.631,0,0,1-1.016,3.094,3.429,3.429,0,0,1-2.766,1.2,3.436,3.436,0,0,1-2.77-1.207,4.623,4.623,0,0,1-1.02-3.09Zm1.539.172a4.009,4.009,0,0,0,.566,2.219,2.046,2.046,0,0,0,3.355,0,3.988,3.988,0,0,0,.57-2.219V10.7a3.976,3.976,0,0,0-.574-2.211A1.882,1.882,0,0,0,21.367,7.6a1.856,1.856,0,0,0-1.668.883,4.018,4.018,0,0,0-.566,2.211Zm15.133.227a4.645,4.645,0,0,1-.879,2.949,2.9,2.9,0,0,1-2.418,1.121,3.064,3.064,0,0,1-1.465-.332,2.719,2.719,0,0,1-1.027-.98L28.227,15h-1.18V2.813h1.539V7.547a2.671,2.671,0,0,1,.988-.859,3.03,3.03,0,0,1,1.379-.3,2.809,2.809,0,0,1,2.438,1.25,5.622,5.622,0,0,1,.875,3.289Zm-1.539-.164a4.666,4.666,0,0,0-.535-2.371,1.762,1.762,0,0,0-1.629-.918,2.014,2.014,0,0,0-1.2.348,2.452,2.452,0,0,0-.777.934v3.664a2.517,2.517,0,0,0,.777.977,2,2,0,0,0,1.215.352,1.829,1.829,0,0,0,1.617-.773,3.552,3.552,0,0,0,.531-2.047Zm8.328,1.8a1.026,1.026,0,0,0-.387-.828,3.732,3.732,0,0,0-1.465-.562,6.146,6.146,0,0,1-2.293-.9,1.814,1.814,0,0,1-.8-1.547,2.229,2.229,0,0,1,.879-1.766,3.879,3.879,0,0,1,4.605.047,2.239,2.239,0,0,1,.852,1.82l-.016.047H40.961a1.331,1.331,0,0,0-.48-.992A1.717,1.717,0,0,0,39.266,7.6a1.751,1.751,0,0,0-1.215.367,1.146,1.146,0,0,0-.4.875A.927.927,0,0,0,38,9.617a3.848,3.848,0,0,0,1.434.5,6.058,6.058,0,0,1,2.359.93,1.872,1.872,0,0,1,.8,1.57,2.226,2.226,0,0,1-.91,1.836,3.754,3.754,0,0,1-2.379.711,3.715,3.715,0,0,1-2.547-.82,2.341,2.341,0,0,1-.883-1.914l.016-.047h1.469a1.424,1.424,0,0,0,.609,1.2,2.358,2.358,0,0,0,1.336.379,2.1,2.1,0,0,0,1.285-.348A1.063,1.063,0,0,0,41.055,12.727Zm6.953,2.438A3.576,3.576,0,0,1,45.168,14a4.48,4.48,0,0,1-1.02-3.062v-.344A4.386,4.386,0,0,1,45.2,7.582a3.3,3.3,0,0,1,2.566-1.191,3.067,3.067,0,0,1,2.543,1.055,4.345,4.345,0,0,1,.848,2.8v.813H45.75l-.023.039a3.494,3.494,0,0,0,.563,2.066,1.965,1.965,0,0,0,1.719.793,3.872,3.872,0,0,0,1.371-.223,3.061,3.061,0,0,0,1.012-.613l.6,1a3.7,3.7,0,0,1-1.2.738A4.762,4.762,0,0,1,48.008,15.164ZM47.766,7.6a1.673,1.673,0,0,0-1.332.621,2.938,2.938,0,0,0-.645,1.59l.016.039h3.813V9.727A2.462,2.462,0,0,0,49.164,8.2,1.638,1.638,0,0,0,47.766,7.6Zm9.117.3-.789-.047a1.762,1.762,0,0,0-1.027.289,1.855,1.855,0,0,0-.645.813V15H52.883V6.547h1.375l.148,1.234a2.934,2.934,0,0,1,.887-1.023,2.073,2.073,0,0,1,1.215-.367,1.9,1.9,0,0,1,.328.027,2.174,2.174,0,0,1,.258.059Zm4.563,4.6.133.594h.047l.148-.594,1.945-5.961h1.57L62.18,15H61.016L57.867,6.547h1.578ZM71.75,15q-.078-.383-.121-.676a4.96,4.96,0,0,1-.051-.59,3.589,3.589,0,0,1-1.121,1.02,2.867,2.867,0,0,1-1.488.41,2.763,2.763,0,0,1-2.012-.676,2.486,2.486,0,0,1-.691-1.863,2.183,2.183,0,0,1,.98-1.895,4.579,4.579,0,0,1,2.66-.684h1.672V9.211a1.551,1.551,0,0,0-.453-1.176A1.779,1.779,0,0,0,69.844,7.6a1.859,1.859,0,0,0-1.211.375,1.125,1.125,0,0,0-.461.9l-1.461.016L66.7,8.844a2.023,2.023,0,0,1,.863-1.687,3.578,3.578,0,0,1,2.371-.766,3.49,3.49,0,0,1,2.313.73,2.588,2.588,0,0,1,.875,2.105V13.3a7.923,7.923,0,0,0,.047.875,4.5,4.5,0,0,0,.172.828ZM69.2,13.875a2.739,2.739,0,0,0,1.508-.43,2.042,2.042,0,0,0,.875-.984V11.086H69.852a2.24,2.24,0,0,0-1.488.469,1.4,1.4,0,0,0-.559,1.1,1.159,1.159,0,0,0,.352.891A1.472,1.472,0,0,0,69.2,13.875ZM75,10.93a5.641,5.641,0,0,1,.871-3.289,2.807,2.807,0,0,1,2.441-1.25,3.027,3.027,0,0,1,1.316.273,2.7,2.7,0,0,1,.98.8V2.813h1.539V15h-1.18l-.234-1.07a2.743,2.743,0,0,1-1.023.922,3.058,3.058,0,0,1-1.414.313,2.9,2.9,0,0,1-2.422-1.121A4.659,4.659,0,0,1,75,11.094Zm1.539.164a3.588,3.588,0,0,0,.523,2.051,1.828,1.828,0,0,0,1.625.77,2.039,2.039,0,0,0,1.156-.312,2.334,2.334,0,0,0,.766-.875V8.781a2.37,2.37,0,0,0-.77-.832A2.033,2.033,0,0,0,78.7,7.641a1.759,1.759,0,0,0-1.637.914,4.718,4.718,0,0,0-.527,2.375Zm7.547-.4A4.654,4.654,0,0,1,85.1,7.605a3.764,3.764,0,0,1,5.535,0,4.639,4.639,0,0,1,1.02,3.094v.172a4.631,4.631,0,0,1-1.016,3.094,3.781,3.781,0,0,1-5.535,0,4.623,4.623,0,0,1-1.02-3.09Zm1.539.172a4.009,4.009,0,0,0,.566,2.219,2.046,2.046,0,0,0,3.355,0,3.988,3.988,0,0,0,.57-2.219V10.7a3.976,3.976,0,0,0-.574-2.211A1.882,1.882,0,0,0,87.859,7.6a1.856,1.856,0,0,0-1.668.883,4.018,4.018,0,0,0-.566,2.211ZM97.539,7.906l-.789-.047a1.762,1.762,0,0,0-1.027.289,1.854,1.854,0,0,0-.645.813V15H93.539V6.547h1.375l.148,1.234a2.934,2.934,0,0,1,.887-1.023,2.073,2.073,0,0,1,1.215-.367,1.9,1.9,0,0,1,.328.027,2.175,2.175,0,0,1,.258.059Zm12.781,3.188a4.659,4.659,0,0,1-.875,2.949,2.893,2.893,0,0,1-2.414,1.121,3.354,3.354,0,0,1-1.371-.262,2.622,2.622,0,0,1-1-.785V18.25h-1.539V6.547h1.18l.242,1.094a2.792,2.792,0,0,1,1.031-.93,3.078,3.078,0,0,1,1.438-.32,2.809,2.809,0,0,1,2.441,1.246,5.638,5.638,0,0,1,.871,3.293Zm-1.539-.164a4.467,4.467,0,0,0-.566-2.363,1.835,1.835,0,0,0-1.668-.926,2.054,2.054,0,0,0-1.133.3,2.25,2.25,0,0,0-.758.824v4.086a2.186,2.186,0,0,0,.758.816,2.126,2.126,0,0,0,1.148.293,1.894,1.894,0,0,0,1.656-.8,3.516,3.516,0,0,0,.563-2.066Zm8.8,2.82a2.863,2.863,0,0,1-1.023,1.047,2.8,2.8,0,0,1-1.445.367,2.716,2.716,0,0,1-2.156-.883,4.1,4.1,0,0,1-.773-2.75V6.547h1.539v5a3.147,3.147,0,0,0,.4,1.859,1.481,1.481,0,0,0,1.242.508,2.531,2.531,0,0,0,1.355-.332,2.077,2.077,0,0,0,.809-.941V6.547h1.539V15H117.68Zm7.227,1.414A3.576,3.576,0,0,1,121.965,14a4.48,4.48,0,0,1-1.02-3.062v-.344A4.386,4.386,0,0,1,122,7.582a3.3,3.3,0,0,1,2.566-1.191,3.067,3.067,0,0,1,2.543,1.055,4.345,4.345,0,0,1,.848,2.8v.813h-5.406l-.023.039a3.494,3.494,0,0,0,.563,2.066,1.965,1.965,0,0,0,1.719.793,3.872,3.872,0,0,0,1.371-.223,3.061,3.061,0,0,0,1.012-.613l.6,1a3.7,3.7,0,0,1-1.2.738A4.762,4.762,0,0,1,124.8,15.164ZM124.563,7.6a1.673,1.673,0,0,0-1.332.621,2.938,2.938,0,0,0-.645,1.59l.016.039h3.813V9.727a2.462,2.462,0,0,0-.453-1.523A1.638,1.638,0,0,0,124.563,7.6Zm4.766,3.328a5.641,5.641,0,0,1,.871-3.289,2.807,2.807,0,0,1,2.441-1.25,3.027,3.027,0,0,1,1.316.273,2.7,2.7,0,0,1,.98.8V2.813h1.539V15H135.3l-.234-1.07a2.743,2.743,0,0,1-1.023.922,3.058,3.058,0,0,1-1.414.313,2.9,2.9,0,0,1-2.422-1.121,4.659,4.659,0,0,1-.875-2.949Zm1.539.164a3.588,3.588,0,0,0,.523,2.051,1.828,1.828,0,0,0,1.625.77,2.039,2.039,0,0,0,1.156-.312,2.334,2.334,0,0,0,.766-.875V8.781a2.37,2.37,0,0,0-.77-.832,2.033,2.033,0,0,0-1.137-.309,1.759,1.759,0,0,0-1.637.914,4.718,4.718,0,0,0-.527,2.375Zm11.406,4.07A3.576,3.576,0,0,1,139.434,14a4.48,4.48,0,0,1-1.02-3.062v-.344a4.386,4.386,0,0,1,1.051-3.012,3.3,3.3,0,0,1,2.566-1.191,3.067,3.067,0,0,1,2.543,1.055,4.345,4.345,0,0,1,.848,2.8v.813h-5.406l-.023.039a3.494,3.494,0,0,0,.563,2.066,1.965,1.965,0,0,0,1.719.793,3.872,3.872,0,0,0,1.371-.223,3.061,3.061,0,0,0,1.012-.613l.6,1a3.7,3.7,0,0,1-1.2.738A4.762,4.762,0,0,1,142.273,15.164ZM142.031,7.6a1.673,1.673,0,0,0-1.332.621,2.938,2.938,0,0,0-.645,1.59l.016.039h3.813V9.727A2.462,2.462,0,0,0,143.43,8.2,1.638,1.638,0,0,0,142.031,7.6ZM4.477,37.961a1.81,1.81,0,0,0,1.242-.473,1.494,1.494,0,0,0,.531-1.16H7.641l.023.047a2.428,2.428,0,0,1-.937,1.941,3.312,3.312,0,0,1-2.25.848,3.319,3.319,0,0,1-2.75-1.211,4.674,4.674,0,0,1-.969-3.016v-.328a4.654,4.654,0,0,1,.973-3,3.317,3.317,0,0,1,2.746-1.215,3.189,3.189,0,0,1,2.316.875,2.775,2.775,0,0,1,.871,2.148l-.016.047H6.25a1.865,1.865,0,0,0-.5-1.316,1.658,1.658,0,0,0-1.27-.543,1.777,1.777,0,0,0-1.652.879,4.114,4.114,0,0,0-.52,2.129v.328a4.192,4.192,0,0,0,.512,2.148A1.776,1.776,0,0,0,4.477,37.961ZM9.133,34.7a4.654,4.654,0,0,1,1.016-3.09,3.406,3.406,0,0,1,2.758-1.215A3.439,3.439,0,0,1,15.684,31.6,4.639,4.639,0,0,1,16.7,34.7v.172a4.631,4.631,0,0,1-1.016,3.094,3.429,3.429,0,0,1-2.766,1.2,3.436,3.436,0,0,1-2.77-1.207,4.623,4.623,0,0,1-1.02-3.09Zm1.539.172a4.009,4.009,0,0,0,.566,2.219,1.875,1.875,0,0,0,1.684.875,1.87,1.87,0,0,0,1.672-.875,3.988,3.988,0,0,0,.57-2.219V34.7a3.976,3.976,0,0,0-.574-2.211,1.882,1.882,0,0,0-1.684-.883,1.856,1.856,0,0,0-1.668.883,4.018,4.018,0,0,0-.566,2.211Zm9.289-4.32L20.07,31.8a3.069,3.069,0,0,1,1.059-1.043,2.824,2.824,0,0,1,1.449-.371,2.759,2.759,0,0,1,2.117.8,3.515,3.515,0,0,1,.75,2.473V39H23.906V33.7a2.287,2.287,0,0,0-.441-1.586,1.768,1.768,0,0,0-1.348-.469,2.386,2.386,0,0,0-1.207.285,2.072,2.072,0,0,0-.785.8V39H18.586V30.547ZM30.5,36.508l.133.594h.047l.148-.594,1.945-5.961h1.57L31.234,39H30.07l-3.148-8.453H28.5Zm8.625,2.656A3.576,3.576,0,0,1,36.285,38a4.48,4.48,0,0,1-1.02-3.062v-.344a4.386,4.386,0,0,1,1.051-3.012,3.3,3.3,0,0,1,2.566-1.191,3.067,3.067,0,0,1,2.543,1.055,4.345,4.345,0,0,1,.848,2.8v.813H36.867l-.023.039a3.494,3.494,0,0,0,.563,2.066,1.965,1.965,0,0,0,1.719.793,3.872,3.872,0,0,0,1.371-.223,3.061,3.061,0,0,0,1.012-.613l.6,1a3.7,3.7,0,0,1-1.2.738A4.762,4.762,0,0,1,39.125,39.164ZM38.883,31.6a1.673,1.673,0,0,0-1.332.621,2.938,2.938,0,0,0-.645,1.59l.016.039h3.813v-.125a2.462,2.462,0,0,0-.453-1.523A1.638,1.638,0,0,0,38.883,31.6Zm9.117.3-.789-.047a1.762,1.762,0,0,0-1.027.289,1.855,1.855,0,0,0-.645.813V39H44V30.547h1.375l.148,1.234a2.934,2.934,0,0,1,.887-1.023,2.073,2.073,0,0,1,1.215-.367,1.9,1.9,0,0,1,.328.027,2.174,2.174,0,0,1,.258.059Zm6.516,4.82a1.026,1.026,0,0,0-.387-.828,3.732,3.732,0,0,0-1.465-.562,6.146,6.146,0,0,1-2.293-.9,1.814,1.814,0,0,1-.8-1.547,2.229,2.229,0,0,1,.879-1.766,3.879,3.879,0,0,1,4.605.047,2.239,2.239,0,0,1,.852,1.82l-.016.047H54.422a1.331,1.331,0,0,0-.48-.992,1.717,1.717,0,0,0-1.215-.445,1.751,1.751,0,0,0-1.215.367,1.146,1.146,0,0,0-.4.875.927.927,0,0,0,.348.773,3.848,3.848,0,0,0,1.434.5,6.058,6.058,0,0,1,2.359.93,1.872,1.872,0,0,1,.8,1.57,2.226,2.226,0,0,1-.91,1.836,3.754,3.754,0,0,1-2.379.711,3.715,3.715,0,0,1-2.547-.82,2.341,2.341,0,0,1-.883-1.914l.016-.047H50.82a1.424,1.424,0,0,0,.609,1.2,2.358,2.358,0,0,0,1.336.379,2.1,2.1,0,0,0,1.285-.348A1.063,1.063,0,0,0,54.516,36.727ZM63.164,39q-.078-.383-.121-.676a4.96,4.96,0,0,1-.051-.59,3.589,3.589,0,0,1-1.121,1.02,2.867,2.867,0,0,1-1.488.41,2.763,2.763,0,0,1-2.012-.676,2.486,2.486,0,0,1-.691-1.863,2.183,2.183,0,0,1,.98-1.895,4.579,4.579,0,0,1,2.66-.684h1.672v-.836a1.551,1.551,0,0,0-.453-1.176,1.779,1.779,0,0,0-1.281-.434,1.859,1.859,0,0,0-1.211.375,1.125,1.125,0,0,0-.461.9l-1.461.016-.016-.047a2.023,2.023,0,0,1,.863-1.687,3.578,3.578,0,0,1,2.371-.766,3.49,3.49,0,0,1,2.313.73,2.588,2.588,0,0,1,.875,2.105V37.3a7.923,7.923,0,0,0,.047.875A4.5,4.5,0,0,0,64.75,39Zm-2.555-1.125a2.739,2.739,0,0,0,1.508-.43,2.042,2.042,0,0,0,.875-.984V35.086H61.266a2.24,2.24,0,0,0-1.488.469,1.4,1.4,0,0,0-.559,1.1,1.159,1.159,0,0,0,.352.891A1.472,1.472,0,0,0,60.609,37.875Zm10.156-5.969-.789-.047a1.762,1.762,0,0,0-1.027.289,1.854,1.854,0,0,0-.645.813V39H66.766V30.547h1.375l.148,1.234a2.934,2.934,0,0,1,.887-1.023,2.073,2.073,0,0,1,1.215-.367,1.9,1.9,0,0,1,.328.027,2.175,2.175,0,0,1,.258.059ZM79.7,37.961a1.81,1.81,0,0,0,1.242-.473,1.494,1.494,0,0,0,.531-1.16h1.391l.023.047a2.428,2.428,0,0,1-.937,1.941,3.582,3.582,0,0,1-5-.363,4.674,4.674,0,0,1-.969-3.016v-.328a4.654,4.654,0,0,1,.973-3A3.317,3.317,0,0,1,79.7,30.391a3.189,3.189,0,0,1,2.316.875,2.775,2.775,0,0,1,.871,2.148l-.016.047h-1.4a1.865,1.865,0,0,0-.5-1.316A1.658,1.658,0,0,0,79.7,31.6a1.777,1.777,0,0,0-1.652.879,4.114,4.114,0,0,0-.52,2.129v.328a4.192,4.192,0,0,0,.512,2.148A1.776,1.776,0,0,0,79.7,37.961ZM84.359,34.7a4.654,4.654,0,0,1,1.016-3.09,3.764,3.764,0,0,1,5.535,0A4.639,4.639,0,0,1,91.93,34.7v.172a4.631,4.631,0,0,1-1.016,3.094,3.781,3.781,0,0,1-5.535,0,4.623,4.623,0,0,1-1.02-3.09Zm1.539.172a4.009,4.009,0,0,0,.566,2.219,2.046,2.046,0,0,0,3.355,0,3.988,3.988,0,0,0,.57-2.219V34.7a3.976,3.976,0,0,0-.574-2.211,1.882,1.882,0,0,0-1.684-.883,1.856,1.856,0,0,0-1.668.883A4.018,4.018,0,0,0,85.9,34.7Zm9.289-4.32L95.3,31.8a3.069,3.069,0,0,1,1.059-1.043,2.824,2.824,0,0,1,1.449-.371,2.759,2.759,0,0,1,2.117.8,3.515,3.515,0,0,1,.75,2.473V39H99.133V33.7a2.287,2.287,0,0,0-.441-1.586,1.768,1.768,0,0,0-1.348-.469,2.386,2.386,0,0,0-1.207.285,2.072,2.072,0,0,0-.785.8V39H93.813V30.547Zm15.2,8.617A3.576,3.576,0,0,1,107.543,38a4.48,4.48,0,0,1-1.02-3.062v-.344a4.386,4.386,0,0,1,1.051-3.012,3.3,3.3,0,0,1,2.566-1.191,3.067,3.067,0,0,1,2.543,1.055,4.345,4.345,0,0,1,.848,2.8v.813h-5.406l-.023.039a3.494,3.494,0,0,0,.563,2.066,1.965,1.965,0,0,0,1.719.793,3.872,3.872,0,0,0,1.371-.223,3.061,3.061,0,0,0,1.012-.613l.6,1a3.7,3.7,0,0,1-1.2.738A4.762,4.762,0,0,1,110.383,39.164Zm-.242-7.562a1.673,1.673,0,0,0-1.332.621,2.938,2.938,0,0,0-.645,1.59l.016.039h3.813v-.125a2.462,2.462,0,0,0-.453-1.523A1.638,1.638,0,0,0,110.141,31.6Zm6.781,7.4h-1.539V26.813h1.539Zm11.711-1.25a2.863,2.863,0,0,1-1.023,1.047,2.8,2.8,0,0,1-1.445.367,2.716,2.716,0,0,1-2.156-.883,4.1,4.1,0,0,1-.773-2.75V30.547h1.539v5a3.147,3.147,0,0,0,.4,1.859,1.481,1.481,0,0,0,1.242.508,2.531,2.531,0,0,0,1.355-.332,2.077,2.077,0,0,0,.809-.941V30.547h1.539V39h-1.383Zm8.641-1.023a1.026,1.026,0,0,0-.387-.828,3.732,3.732,0,0,0-1.465-.562,6.146,6.146,0,0,1-2.293-.9,1.814,1.814,0,0,1-.8-1.547,2.229,2.229,0,0,1,.879-1.766,3.879,3.879,0,0,1,4.605.047,2.239,2.239,0,0,1,.852,1.82l-.016.047H137.18a1.331,1.331,0,0,0-.48-.992,1.717,1.717,0,0,0-1.215-.445,1.751,1.751,0,0,0-1.215.367,1.146,1.146,0,0,0-.4.875.927.927,0,0,0,.348.773,3.848,3.848,0,0,0,1.434.5,6.058,6.058,0,0,1,2.359.93,1.872,1.872,0,0,1,.8,1.57,2.226,2.226,0,0,1-.91,1.836,3.754,3.754,0,0,1-2.379.711,3.715,3.715,0,0,1-2.547-.82,2.341,2.341,0,0,1-.883-1.914l.016-.047h1.469a1.424,1.424,0,0,0,.609,1.2,2.358,2.358,0,0,0,1.336.379,2.1,2.1,0,0,0,1.285-.348A1.063,1.063,0,0,0,137.273,36.727Zm8.82,1.023A2.863,2.863,0,0,1,145.07,38.8a2.8,2.8,0,0,1-1.445.367,2.716,2.716,0,0,1-2.156-.883,4.1,4.1,0,0,1-.773-2.75V30.547h1.539v5a3.147,3.147,0,0,0,.4,1.859,1.481,1.481,0,0,0,1.242.508,2.531,2.531,0,0,0,1.355-.332,2.077,2.077,0,0,0,.809-.941V30.547h1.539V39H146.2ZM155.016,39q-.078-.383-.121-.676a4.96,4.96,0,0,1-.051-.59,3.588,3.588,0,0,1-1.121,1.02,2.867,2.867,0,0,1-1.488.41,2.763,2.763,0,0,1-2.012-.676,2.486,2.486,0,0,1-.691-1.863,2.183,2.183,0,0,1,.98-1.895,4.579,4.579,0,0,1,2.66-.684h1.672v-.836a1.551,1.551,0,0,0-.453-1.176,1.779,1.779,0,0,0-1.281-.434,1.859,1.859,0,0,0-1.211.375,1.125,1.125,0,0,0-.461.9l-1.461.016-.016-.047a2.023,2.023,0,0,1,.863-1.687,3.578,3.578,0,0,1,2.371-.766,3.49,3.49,0,0,1,2.313.73,2.588,2.588,0,0,1,.875,2.105V37.3a7.923,7.923,0,0,0,.047.875A4.5,4.5,0,0,0,156.6,39Zm-2.555-1.125a2.739,2.739,0,0,0,1.508-.43,2.042,2.042,0,0,0,.875-.984V35.086h-1.727a2.24,2.24,0,0,0-1.488.469,1.4,1.4,0,0,0-.559,1.1,1.159,1.159,0,0,0,.352.891A1.472,1.472,0,0,0,152.461,37.875Zm10.156-5.969-.789-.047a1.762,1.762,0,0,0-1.027.289,1.855,1.855,0,0,0-.645.813V39h-1.539V30.547h1.375l.148,1.234a2.934,2.934,0,0,1,.887-1.023,2.073,2.073,0,0,1,1.215-.367,1.9,1.9,0,0,1,.328.027,2.174,2.174,0,0,1,.258.059ZM165.883,39h-1.539V30.547h1.539Zm0-10.617h-1.539v-1.57h1.539Zm2.008,6.313a4.654,4.654,0,0,1,1.016-3.09,3.764,3.764,0,0,1,5.535,0,4.639,4.639,0,0,1,1.02,3.094v.172a4.631,4.631,0,0,1-1.016,3.094,3.781,3.781,0,0,1-5.535,0,4.623,4.623,0,0,1-1.02-3.09Zm1.539.172A4.009,4.009,0,0,0,170,37.086a2.046,2.046,0,0,0,3.355,0,3.988,3.988,0,0,0,.57-2.219V34.7a3.976,3.976,0,0,0-.574-2.211,1.882,1.882,0,0,0-1.684-.883,1.856,1.856,0,0,0-1.668.883,4.018,4.018,0,0,0-.566,2.211ZM179.023,39h-1.539V37.422h1.539Z" transform="translate(296.213 1961.362)" fill="#fff"/>
    <path id="Trazado_826346" data-name="Trazado 826346" d="M242.973,25.746V12.956h27.72l73.142,75.8L355.96,82.4,277.363,0H-30V25.746" transform="translate(248.153 1842.394) rotate(-90)" fill="none" stroke="#f0c518" stroke-linecap="round" stroke-width="5"/>
    <path id="Trazado_826344" data-name="Trazado 826344" d="M0,0H8.228" transform="translate(327.888 1930.671) rotate(90)" fill="none" stroke="#f0c518" stroke-linecap="round" stroke-width="5"/>
    <path id="Trazado_826361" data-name="Trazado 826361" d="M0,0H8.228" transform="translate(327.888 1654.674) rotate(90)" fill="none" stroke="#f0c518" stroke-linecap="round" stroke-width="5"/>
  </g>
</svg>
