<svg xmlns="http://www.w3.org/2000/svg" xmlns:xlink="http://www.w3.org/1999/xlink" width="122" height="122" viewBox="0 0 122 122">
  <defs>
    <filter id="Trazado_822180" x="0" y="0" width="122" height="122" filterUnits="userSpaceOnUse">
      <feOffset dy="3" input="SourceAlpha"/>
      <feGaussianBlur stdDeviation="7" result="blur"/>
      <feFlood flood-color="#fff" flood-opacity="0.659"/>
      <feComposite operator="in" in2="blur"/>
      <feComposite in="SourceGraphic"/>
    </filter>
  </defs>
  <g id="Grupo_1073962" data-name="Grupo 1073962" transform="translate(-267 -4516)">
    <g transform="matrix(1, 0, 0, 1, 267, 4516)" filter="url(#Trazado_822180)">
      <path id="Trazado_822180-2" data-name="Trazado 822180" d="M40,0A40,40,0,1,1,0,40,40,40,0,0,1,40,0Z" transform="translate(21 18)" fill="#ffce00"/>
    </g>
    <g id="Fill_Outline" data-name="Fill Outline" transform="translate(297.839 4544.124)">
      <rect id="Rectángulo_382681" data-name="Rectángulo 382681" width="46" height="28" rx="4" transform="translate(7.161 18.876)" fill="#57b7eb"/>
      <path id="Trazado_824491" data-name="Trazado 824491" d="M13.5,27.434V20H10.717A3.717,3.717,0,0,0,7,23.717V44.161a3.717,3.717,0,0,0,3.717,3.717h39.03a3.717,3.717,0,0,0,3.717-3.717V38.586H24.656A11.151,11.151,0,0,1,13.5,27.434Z" transform="translate(-0.071 -1.273)" fill="#4891d3"/>
      <path id="Trazado_824492" data-name="Trazado 824492" d="M21.859,57H40.444A1.859,1.859,0,0,1,42.3,58.859v1.859H20V58.859A1.859,1.859,0,0,1,21.859,57Z" transform="translate(-0.99 -3.89)" fill="#93999a"/>
      <path id="Trazado_824493" data-name="Trazado 824493" d="M38.01,56.5H25L26.859,50h9.293Z" transform="translate(-1.344 -3.395)" fill="#93999a"/>
      <path id="Trazado_824494" data-name="Trazado 824494" d="M7,44H53.464v1.859a3.717,3.717,0,0,1-3.717,3.717H10.717A3.717,3.717,0,0,1,7,45.859Z" transform="translate(-0.071 -2.971)" fill="#93999a"/>
      <path id="Trazado_824495" data-name="Trazado 824495" d="M13,44H53.888v2.788h-38.1A2.788,2.788,0,0,1,13,44Z" transform="translate(-0.495 -2.971)" fill="#d0d8da"/>
      <path id="Trazado_824496" data-name="Trazado 824496" d="M25,56.5,26.859,50h9.293Z" transform="translate(-1.344 -3.395)" fill="#656b76"/>
      <path id="Trazado_824497" data-name="Trazado 824497" d="M23,57H40.656a1.859,1.859,0,0,1,1.859,1.859H24.859A1.859,1.859,0,0,1,23,57Z" transform="translate(-1.202 -3.89)" fill="#d0d8da"/>
      <path id="Trazado_824498" data-name="Trazado 824498" d="M13,10H35.3V36.949H13Z" transform="translate(-0.495 -0.566)" fill="#c4f236"/>
      <path id="Trazado_824499" data-name="Trazado 824499" d="M16.717,14.646V10H13V36.949H35.3V33.232A18.586,18.586,0,0,1,16.717,14.646Z" transform="translate(-0.495 -0.566)" fill="#a1d51c"/>
      <path id="Trazado_824502" data-name="Trazado 824502" d="M19,7H30.151v5.576H19Z" transform="translate(-0.919 -0.354)" fill="#fcbc04"/>
      <path id="Trazado_824503" data-name="Trazado 824503" d="M21,7h9.293V9.788h-6.5A2.788,2.788,0,0,1,21,7Z" transform="translate(-1.061 -0.354)" fill="#f9e109"/>
      <path id="Trazado_824504" data-name="Trazado 824504" d="M41,28H52.151v7.434H41Z" transform="translate(-2.475 -1.839)" fill="#fcbc04"/>
      <path id="Trazado_824505" data-name="Trazado 824505" d="M41,36H52.151v7.434H41Z" transform="translate(-2.475 -2.405)" fill="#fcbc04"/>
      <path id="Trazado_824506" data-name="Trazado 824506" d="M44,28h8.363v3.717H47.717A3.717,3.717,0,0,1,44,28Z" transform="translate(-2.687 -1.839)" fill="#f9e109"/>
      <path id="Trazado_824507" data-name="Trazado 824507" d="M44,36h8.363v3.717H47.717A3.717,3.717,0,0,1,44,36Z" transform="translate(-2.687 -2.405)" fill="#f9e109"/>
      <g id="Grupo_1073866" data-name="Grupo 1073866" transform="translate(6 1.996)">
        <path id="Trazado_824508" data-name="Trazado 824508" d="M10.929,44.859H35.09a.929.929,0,0,0,0-1.859H10.929a.929.929,0,1,0,0,1.859Z" transform="translate(-6.283 -4.896)" fill="#1f2d51"/>
        <path id="Trazado_824510" data-name="Trazado 824510" d="M41.519,6.312a8.363,8.363,0,0,1,11.82,0,.933.933,0,1,0,1.32-1.32,10.222,10.222,0,0,0-14.46,0,.933.933,0,0,0,1.32,1.32Z" transform="translate(-8.399 -1.996)" fill="#1f2d51"/>
        <path id="Trazado_824511" data-name="Trazado 824511" d="M51.569,9.494A.929.929,0,0,0,52.275,7.9a6.5,6.5,0,0,0-9.2,0,.929.929,0,1,0,1.31,1.31,4.646,4.646,0,0,1,6.579,0,.929.929,0,0,0,.6.279Z" transform="translate(-8.599 -2.279)" fill="#1f2d51"/>
        <path id="Trazado_824512" data-name="Trazado 824512" d="M49.8,12.13a.929.929,0,0,0,0-1.31,2.862,2.862,0,0,0-3.94,0,.929.929,0,1,0,1.31,1.31.929.929,0,0,1,1.32,0,.929.929,0,0,0,1.31,0Z" transform="translate(-8.796 -2.565)" fill="#1f2d51"/>
        <circle id="Elipse_9858" data-name="Elipse 9858" cx="1" cy="1" r="1" transform="translate(39.161 26.88)" fill="#1f2d51"/>
        <ellipse id="Elipse_9859" data-name="Elipse 9859" cx="1" cy="0.5" rx="1" ry="0.5" transform="translate(35.161 34.88)" fill="#1f2d51"/>
        <path id="Trazado_824513" data-name="Trazado 824513" d="M47,14.929v8.363a.929.929,0,0,0,1.859,0V14.929a.929.929,0,0,0-1.859,0Z" transform="translate(-8.9 -2.845)" fill="#1f2d51"/>
        <path id="Trazado_824514" data-name="Trazado 824514" d="M12.929,37.313h22.3a.929.929,0,0,0,.929-.929V23.373h4.646v1.859H38.949a.929.929,0,0,0-.929.929V41.03a.929.929,0,0,0,.929.929H50.1a.929.929,0,0,0,.929-.929V26.161a.929.929,0,0,0-.929-.929H42.666V22.444a.929.929,0,0,0-.929-.929H36.161V9.434a.929.929,0,0,0-.929-.929H30.586V6.646a.929.929,0,0,0-.929-.929H27.8a3.717,3.717,0,0,0-7.434,0H18.5a.929.929,0,0,0-.929.929V8.5H12.929A.929.929,0,0,0,12,9.434v15.8a.929.929,0,1,0,1.859,0V10.363h3.717v1.859a.929.929,0,0,0,.929.929H29.656a.929.929,0,0,0,.929-.929V10.363H34.3v25.09H13.859v-6.5a.929.929,0,1,0-1.859,0v7.434A.929.929,0,0,0,12.929,37.313ZM39.878,40.1V34.525h9.293v1.859H46.383a.929.929,0,0,0,0,1.859h2.788V40.1Zm9.293-7.434H39.878V30.808h2.788a.929.929,0,1,0,0-1.859H39.878V27.09h9.293ZM24.081,3.859a1.859,1.859,0,0,1,1.859,1.859H22.222A1.859,1.859,0,0,1,24.081,3.859Zm4.646,7.434H19.434V7.576h9.293Z" transform="translate(-6.424 -1.997)" fill="#1f2d51"/>
        <path id="Trazado_824515" data-name="Trazado 824515" d="M49.676,19h-.929a.929.929,0,0,0,0,1.859h.929a2.788,2.788,0,0,1,2.788,2.788V44.09a2.788,2.788,0,0,1-2.788,2.788H10.646A2.788,2.788,0,0,1,7.859,44.09V23.646a2.788,2.788,0,0,1,1.394-2.4.928.928,0,0,0-.929-1.608A4.646,4.646,0,0,0,6,23.646V44.09a4.646,4.646,0,0,0,4.646,4.646H24.279l-1.32,4.646H20.868a2.788,2.788,0,0,0-2.788,2.788V58.03a.929.929,0,0,0,.929.929h22.3a.929.929,0,0,0,.929-.929V56.171a2.788,2.788,0,0,0-2.788-2.788H37.363l-1.32-4.646H49.676a4.646,4.646,0,0,0,4.646-4.646V23.646A4.646,4.646,0,0,0,49.676,19ZM40.383,56.171V57.1H19.939v-.929a.929.929,0,0,1,.929-.929H39.454A.929.929,0,0,1,40.383,56.171ZM35.43,53.383H24.892l1.32-4.646h7.9Z" transform="translate(-6 -3.199)" fill="#1f2d51"/>
        <path id="Trazado_824516" data-name="Trazado 824516" d="M40.929,19a.929.929,0,0,0,0,1.859h2.788a.929.929,0,0,0,0-1.859Z" transform="translate(-8.405 -3.199)" fill="#1f2d51"/>
      </g>
      <g id="usuario_3_" data-name="usuario (3)" transform="translate(1.913 15.274)">
        <g id="Grupo_1073867" data-name="Grupo 1073867" transform="translate(15.217 0.588)">
          <path id="Trazado_824517" data-name="Trazado 824517" d="M129.745,15.673a3.278,3.278,0,0,1,3.312,3.391,3.328,3.328,0,1,1-6.625,0A3.267,3.267,0,0,1,129.745,15.673Z" transform="translate(-122.827 -15.673)" fill="#4dcfe0"/>
          <path id="Trazado_824518" data-name="Trazado 824518" d="M44.14,263.428H30.3c0-4.8,3.724-5.86,6.919-5.86S44.14,258.626,44.14,263.428Z" transform="translate(-30.302 -248.493)" fill="#4dcfe0"/>
        </g>
        <g id="Grupo_1073868" data-name="Grupo 1073868" transform="translate(14.629)">
          <path id="Trazado_824519" data-name="Trazado 824519" d="M29.055,248.93H15.217a.577.577,0,0,1-.588-.588c0-4.155,2.666-6.448,7.507-6.448s7.507,2.293,7.507,6.448A.577.577,0,0,1,29.055,248.93Zm-13.23-1.176H28.447c-.235-3.116-2.352-4.684-6.311-4.684S16.06,244.638,15.825,247.754Z" transform="translate(-14.629 -232.819)" fill="#3a2c51"/>
          <path id="Trazado_824520" data-name="Trazado 824520" d="M114.66,8.212a4.08,4.08,0,0,1-3.9-4.234,3.9,3.9,0,1,1,7.8,0A4.08,4.08,0,0,1,114.66,8.212Zm0-7.036a2.667,2.667,0,0,0-2.724,2.8,2.743,2.743,0,1,0,5.449,0A2.7,2.7,0,0,0,114.66,1.176Z" transform="translate(-107.154)" fill="#3a2c51"/>
        </g>
      </g>
    </g>
  </g>
</svg>
