<svg xmlns="http://www.w3.org/2000/svg" xmlns:xlink="http://www.w3.org/1999/xlink" width="70" height="70" viewBox="0 0 70 70">
  <defs>
    <clipPath id="clip-path">
      <rect id="Rectángulo_403113" data-name="Rectángulo 403113" width="70" height="70" transform="translate(268 6729)" fill="#fff" stroke="#707070" stroke-width="1"/>
    </clipPath>
  </defs>
  <g id="Enmascarar_grupo_1098767" data-name="Enmascarar grupo 1098767" transform="translate(-268 -6729)" clip-path="url(#clip-path)">
    <g id="idea-genial" transform="translate(268 6731.775)">
      <g id="Grupo_1102102" data-name="Grupo 1102102" transform="translate(1.025 1.025)">
        <path id="Trazado_883720" data-name="Trazado 883720" d="M47.285,112.632H28.554a3.418,3.418,0,0,1-3.418-3.418v-.684H44.55Z" transform="translate(-14.883 -63.631)" fill="#fa6f7c"/>
        <path id="Trazado_883721" data-name="Trazado 883721" d="M74.164,28.093H66.41a4.1,4.1,0,0,0-4.1,4.1H74.164Z" transform="translate(-35.375 -19.288)" fill="#fc8d94"/>
        <path id="Trazado_883722" data-name="Trazado 883722" d="M38.709,37.234h-12.8A7.183,7.183,0,0,0,18.7,43.967q0,.075-.006.149a1.365,1.365,0,0,1-1.365,1.32h-.988a7.226,7.226,0,0,0-7.221,7.109,7.1,7.1,0,0,0,.1,1.039A1.371,1.371,0,0,1,8.12,55.141,7.1,7.1,0,0,0,9.395,69.226H34.687l17.568-3.979V38.412Z" transform="translate(-2.285 -24.327)" fill="#faa4aa"/>
        <path id="Trazado_883723" data-name="Trazado 883723" d="M95.948,62.256a6.566,6.566,0,0,1,5.991,7.668,1.859,1.859,0,0,0,1.157,2.031,5.742,5.742,0,0,1,3.588,5.4,5.81,5.81,0,0,1-5.846,5.67H97.249a.684.684,0,0,0-.684.684,3.418,3.418,0,0,1-3.418,3.418H89.593a2.051,2.051,0,0,0-2.051,2.051v8.2a3.121,3.121,0,0,1-2.8,3.133,3.077,3.077,0,0,1-3.356-3.064v-4.58a2.051,2.051,0,0,0-2.051-2.051H73.871A5.469,5.469,0,0,1,68.4,85.344V80.736a5.469,5.469,0,0,1,5.469-5.469H86.259Z" transform="translate(-38.734 -38.121)" fill="#fc8d94"/>
        <path id="Trazado_883724" data-name="Trazado 883724" d="M123.888,77.351a5.811,5.811,0,0,1-5.846,5.67h-3.587a.684.684,0,0,0-.684.684,3.417,3.417,0,0,1-3.418,3.418H106.8a2.052,2.052,0,0,0-2.051,2.051v8.2a3.121,3.121,0,0,1-2.8,3.134,3.064,3.064,0,0,1-2.339-.781,3.187,3.187,0,0,0,1.035-2.353v-8.2a2.052,2.052,0,0,1,2.051-2.051h3.555a3.417,3.417,0,0,0,3.418-3.418.684.684,0,0,1,.684-.684h3.588a5.811,5.811,0,0,0,5.846-5.67,5.741,5.741,0,0,0-3.588-5.395,1.857,1.857,0,0,1-1.157-2.032A6.572,6.572,0,0,0,112.3,63.4l.85-1.143a6.568,6.568,0,0,1,5.991,7.667,1.857,1.857,0,0,0,1.157,2.032,5.741,5.741,0,0,1,3.588,5.395Z" transform="translate(-55.939 -38.122)" fill="#fa6f7c"/>
        <path id="Trazado_883725" data-name="Trazado 883725" d="M90.628,40.654V36.87a5.359,5.359,0,0,0-2.051-4.2,13.562,13.562,0,1,1,16.817,0,5.359,5.359,0,0,0-2.051,4.2v3.921Z" transform="translate(-47.015 -8.47)" fill="#ffe07d"/>
        <path id="Trazado_883726" data-name="Trazado 883726" d="M124.691,22.033a13.488,13.488,0,0,1-1.4,6.006,13.626,13.626,0,0,1-3.754,4.633,5.356,5.356,0,0,0-2.051,4.2v3.921l-4.1-.044V36.87a5.356,5.356,0,0,1,2.051-4.2,13.625,13.625,0,0,0,3.754-4.633,13.643,13.643,0,0,0,1.544-6.016,13.846,13.846,0,0,0-11.656-13.4,13.7,13.7,0,0,1,2.051-.153,13.56,13.56,0,0,1,13.563,13.562Z" transform="translate(-61.158 -8.471)" fill="#ffd064"/>
        <path id="Trazado_883727" data-name="Trazado 883727" d="M104.2,85.374v3.691a1.367,1.367,0,0,0,1.367,1.367h5.742a1.367,1.367,0,0,0,1.367-1.367V85.511Z" transform="translate(-58.471 -50.866)" fill="#e6d6d1"/>
        <path id="Trazado_883728" data-name="Trazado 883728" d="M116.374,85.678v3.555a1.368,1.368,0,0,1-1.367,1.367h-4.1a1.368,1.368,0,0,0,1.367-1.367V85.678Z" transform="translate(-62.166 -51.034)" fill="#d3c6c3"/>
        <path id="Trazado_883729" data-name="Trazado 883729" d="M110.5,82.468H97.648A1.367,1.367,0,0,1,96.281,81.1V79.734a1.367,1.367,0,0,1,1.367-1.367H110.5a1.367,1.367,0,0,1,1.367,1.367V81.1A1.367,1.367,0,0,1,110.5,82.468Z" transform="translate(-54.103 -47.003)" fill="#fcf1f2"/>
        <path id="Trazado_883730" data-name="Trazado 883730" d="M124.3,79.733V81.1a1.368,1.368,0,0,1-1.367,1.367h-4.1a1.368,1.368,0,0,0,1.367-1.367V79.733a1.368,1.368,0,0,0-1.367-1.367h4.1A1.368,1.368,0,0,1,124.3,79.733Z" transform="translate(-66.533 -47.002)" fill="#f4e5e0"/>
        <path id="Trazado_883731" data-name="Trazado 883731" d="M109.133,30.358a4.785,4.785,0,0,0,3.535,3.535.147.147,0,0,1,0,.287,4.785,4.785,0,0,0-3.535,3.535.147.147,0,0,1-.287,0,4.785,4.785,0,0,0-3.535-3.535.147.147,0,0,1,0-.287,4.785,4.785,0,0,0,3.535-3.535A.147.147,0,0,1,109.133,30.358Z" transform="translate(-59.019 -20.474)" fill="#fff"/>
      </g>
      <g id="Grupo_1102103" data-name="Grupo 1102103" transform="translate(0 0)">
        <path id="Trazado_883732" data-name="Trazado 883732" d="M61.049,49.969a1.025,1.025,0,0,0-1.025,1.025v1.367a6.5,6.5,0,0,0,6.494,6.494h1.367a1.025,1.025,0,0,0,0-2.051H66.518a4.448,4.448,0,0,1-4.443-4.443V50.994A1.025,1.025,0,0,0,61.049,49.969Z" transform="translate(-33.09 -30.322)"/>
        <path id="Trazado_883733" data-name="Trazado 883733" d="M65.772,40.094a.831.831,0,0,1-.531-.906,7.595,7.595,0,0,0-3.992-8.039A14.587,14.587,0,1,0,37.6,14.99H32.061a5.162,5.162,0,0,0-5.021,4.1H24.653A8.189,8.189,0,0,0,16.418,26.8c0,.056-.005.113-.007.17a.338.338,0,0,1-.34.327h-.988a8.246,8.246,0,0,0-5.794,2.381,8.007,8.007,0,0,0-2.452,5.754,7.817,7.817,0,0,0,.117,1.2.346.346,0,0,1-.288.387A8.211,8.211,0,0,0,0,44.861a8.135,8.135,0,0,0,8.134,8.273h2.134a4.448,4.448,0,0,0,4.429,4.1H30.3a6.5,6.5,0,0,0,5.857,3.691h5.469a1.026,1.026,0,0,1,1.025,1.025v4.58a4.1,4.1,0,0,0,4.471,4.085,4.164,4.164,0,0,0,3.732-4.155,1.025,1.025,0,0,0-2.051,0,2.1,2.1,0,0,1-1.861,2.112,2.052,2.052,0,0,1-2.24-2.042v-4.58a3.08,3.08,0,0,0-3.076-3.076H36.162a4.448,4.448,0,0,1-4.443-4.443V49.826a4.448,4.448,0,0,1,4.443-4.443h1.367a1.025,1.025,0,0,0,0-2.051H36.162a6.5,6.5,0,0,0-6.494,6.494v1.258H21.679a1.025,1.025,0,1,0,0,2.051h7.989v1.3a6.5,6.5,0,0,0,.045.752H14.7a2.394,2.394,0,0,1-2.365-2.051h4.562a1.025,1.025,0,0,0,0-2.051H8.135A6.084,6.084,0,0,1,2.052,44.9a6.15,6.15,0,0,1,5-5.865,2.388,2.388,0,0,0,1.923-2.724,5.831,5.831,0,0,1-.091-.877,6.223,6.223,0,0,1,6.2-6.084h.988a2.379,2.379,0,0,0,2.39-2.313c0-.043,0-.085.005-.129a6.139,6.139,0,0,1,6.188-5.762h11.76a14.51,14.51,0,0,0,5.538,11.074,4.314,4.314,0,0,1,1.662,3.394v2.14a2.4,2.4,0,0,0-1.436,2.191v1.367A2.4,2.4,0,0,0,44.57,43.7h1.162V45.41A2.4,2.4,0,0,0,48.125,47.8h5.742A2.4,2.4,0,0,0,56.26,45.41V43.7h1.162a2.4,2.4,0,0,0,2.393-2.393V39.941a2.4,2.4,0,0,0-1.436-2.191V35.61a4.287,4.287,0,0,1,1.186-2.956,5.542,5.542,0,0,1,3.655,6.184A2.867,2.867,0,0,0,65,41.995a4.69,4.69,0,0,1,2.947,4.432,4.787,4.787,0,0,1-4.82,4.657H59.541a1.711,1.711,0,0,0-1.709,1.709,2.4,2.4,0,0,1-2.393,2.393H51.885a3.08,3.08,0,0,0-3.076,3.076v3.417a1.025,1.025,0,0,0,2.051,0V58.262a1.026,1.026,0,0,1,1.025-1.025H55.44a4.449,4.449,0,0,0,4.43-4.1h3.259A6.845,6.845,0,0,0,70,46.452,6.728,6.728,0,0,0,65.772,40.094ZM32.061,17.041h4.832a14.48,14.48,0,0,0-.387,2.051H29.163A3.1,3.1,0,0,1,32.061,17.041ZM54.209,45.41a.342.342,0,0,1-.342.342H48.125a.342.342,0,0,1-.342-.342V43.7h6.426Zm3.555-4.1a.342.342,0,0,1-.342.342H44.57a.342.342,0,0,1-.342-.342V39.941a.342.342,0,0,1,.342-.342H57.422a.342.342,0,0,1,.342.342ZM51,29.7a9.66,9.66,0,0,0,1.025-.055v7.9H49.971v-7.9A9.7,9.7,0,0,0,51,29.7Zm5.332,5.911v1.938H54.072V29.192a9.62,9.62,0,0,0,6.529-9.1,1.025,1.025,0,0,0-2.051,0,7.554,7.554,0,1,1-15.109,0,1.025,1.025,0,0,0-2.051,0,9.62,9.62,0,0,0,6.529,9.1v8.357H45.664V35.61a6.354,6.354,0,0,0-2.441-5,12.537,12.537,0,1,1,15.545,0,6.354,6.354,0,0,0-2.44,5Z" transform="translate(0 -6.185)"/>
        <path id="Trazado_883734" data-name="Trazado 883734" d="M111.649,31.637a3.743,3.743,0,0,1-2.778-2.778,1.173,1.173,0,0,0-2.28,0,3.743,3.743,0,0,1-2.778,2.778,1.173,1.173,0,0,0,0,2.281,3.743,3.743,0,0,1,2.778,2.778,1.173,1.173,0,0,0,2.28,0,3.743,3.743,0,0,1,2.777-2.778,1.173,1.173,0,0,0,0-2.281Zm-3.918,2.65a5.767,5.767,0,0,0-1.51-1.51,5.761,5.761,0,0,0,1.51-1.51,5.763,5.763,0,0,0,1.51,1.51A5.761,5.761,0,0,0,107.731,34.287Z" transform="translate(-56.735 -18.189)"/>
        <path id="Trazado_883735" data-name="Trazado 883735" d="M38.939,82.621A1.025,1.025,0,0,0,39.965,81.6V80.229a6.5,6.5,0,0,0-6.494-6.494H32.1a1.025,1.025,0,1,0,0,2.051h1.367a4.448,4.448,0,0,1,4.443,4.443V81.6A1.025,1.025,0,0,0,38.939,82.621Z" transform="translate(-17.133 -43.424)"/>
      </g>
    </g>
  </g>
</svg>
