<svg xmlns="http://www.w3.org/2000/svg" xmlns:xlink="http://www.w3.org/1999/xlink" width="70" height="70" viewBox="0 0 70 70">
  <defs>
    <clipPath id="clip-path">
      <rect id="Rectángulo_403114" data-name="Rectángulo 403114" width="70" height="70" transform="translate(268 6996)" fill="#fff" stroke="#707070" stroke-width="1"/>
    </clipPath>
  </defs>
  <g id="Enmascarar_grupo_1098768" data-name="Enmascarar grupo 1098768" transform="translate(-268 -6996)" clip-path="url(#clip-path)">
    <g id="vision" transform="translate(274.598 6996)">
      <path id="Trazado_883736" data-name="Trazado 883736" d="M72.686,55.451,68.107,47.3a1.384,1.384,0,0,1-.175-.656,21.412,21.412,0,0,0-1.087-6.416H55.068a.684.684,0,0,1-.684-.684V32.518a.684.684,0,0,1,.684-.684h6.591A21.4,21.4,0,0,0,49.145,25.7a10.891,10.891,0,0,1-4.037,6.776,4.764,4.764,0,0,0-1.627,2.306l-.644,2.039a1.945,1.945,0,0,1-.456,3.837,1.946,1.946,0,1,1,0,3.893h-.672l-.609,2.93a1.663,1.663,0,0,1-1.628,1.325H37.361A1.663,1.663,0,0,1,35.735,47.5L35.1,44.556h-.689a1.946,1.946,0,1,1,0-3.893,1.945,1.945,0,0,1-.456-3.837l-.636-2.013a4.638,4.638,0,0,0-1.573-2.284q-.314-.242-.608-.506A21.421,21.421,0,0,0,26.4,54.57H38.236a.684.684,0,0,1,.684.684v7.027a.684.684,0,0,1-.684.684H32.151q.728.653,1.513,1.241A5.513,5.513,0,0,1,35.9,68.62V79.575a1.369,1.369,0,0,0,1.369,1.369h15.8a1.369,1.369,0,0,0,1.369-1.369V71.836a1.369,1.369,0,0,1,1.369-1.369h4.17a5.945,5.945,0,0,0,5.945-5.945V60.151a1.369,1.369,0,0,1,1.369-1.369h3.447a2.235,2.235,0,0,0,1.949-3.33Z" transform="translate(-18.25 -11.969)" fill="#fddeb0"/>
      <g id="Grupo_1102104" data-name="Grupo 1102104" transform="translate(6.773 20.053)">
        <path id="Trazado_883737" data-name="Trazado 883737" d="M29.6,52.083a21.3,21.3,0,0,1,3.745-11.672l-.03-.094a4.638,4.638,0,0,0-1.573-2.284q-.314-.242-.608-.506A21.421,21.421,0,0,0,26.4,60.076h4.577A21.418,21.418,0,0,1,29.6,52.083Z" transform="translate(-25.023 -37.528)" fill="#fdd79b"/>
        <path id="Trazado_883738" data-name="Trazado 883738" d="M46.692,112.045V101.09a5.513,5.513,0,0,0-2.237-4.414q-.785-.586-1.513-1.241H38.364q.728.653,1.513,1.241a5.513,5.513,0,0,1,2.237,4.414v10.955a1.369,1.369,0,0,0,1.369,1.369H48.06A1.368,1.368,0,0,1,46.692,112.045Z" transform="translate(-31.235 -64.492)" fill="#fdd79b"/>
      </g>
      <path id="Trazado_883739" data-name="Trazado 883739" d="M65.15,45.964H60.921a.684.684,0,0,1-.684-.684V40.462a14.493,14.493,0,0,0-8.066-2.441c-.34,0-.678.013-1.013.036-.065.053-.131.107-.2.159a4.764,4.764,0,0,0-1.627,2.306l-.644,2.039a1.945,1.945,0,0,1-.456,3.837,1.946,1.946,0,1,1,0,3.893h-.672l-.609,2.93a1.663,1.663,0,0,1-1.628,1.325H43.214a1.663,1.663,0,0,1-1.625-1.312l-.635-2.943h-.689a1.94,1.94,0,0,1-1.889-2.407A14.562,14.562,0,0,0,39.8,60.305h4.287a.684.684,0,0,1,.684.684v4.166A14.574,14.574,0,0,0,65.15,45.964Z" transform="translate(-24.103 -17.704)" fill="#c8effe"/>
      <path id="Trazado_883740" data-name="Trazado 883740" d="M58.852,51.862a7.141,7.141,0,0,0-2.682.521,1.94,1.94,0,0,1-.867.421l-.107.061a1.945,1.945,0,0,1-.281,3.871h-.672l-.609,2.93a1.663,1.663,0,0,1-1.628,1.325H51.94a7.181,7.181,0,1,0,6.912-9.129Z" transform="translate(-30.784 -24.149)" fill="#01d0fb"/>
      <path id="Trazado_883741" data-name="Trazado 883741" d="M61.174,52.249a7.155,7.155,0,0,0-5,.134,1.94,1.94,0,0,1-.867.421l-.107.061a1.945,1.945,0,0,1-.281,3.871h-.672l-.609,2.93a1.663,1.663,0,0,1-1.628,1.325H51.94a7.175,7.175,0,0,0,9.234,4.847,7.18,7.18,0,0,1,0-13.589Z" transform="translate(-30.784 -24.149)" fill="#01c0fa"/>
      <g id="Grupo_1102116" data-name="Grupo 1102116" transform="translate(9.247 1.025)">
        <g id="Grupo_1102106" data-name="Grupo 1102106" transform="translate(0)">
          <g id="Grupo_1102105" data-name="Grupo 1102105">
            <path id="Trazado_883742" data-name="Trazado 883742" d="M40.39,1.92A10.9,10.9,0,0,0,33.9,21.453a4.638,4.638,0,0,1,1.573,2.284l.677,2.144a1.8,1.8,0,0,1,.415-.05h7.969a1.8,1.8,0,0,1,.415.05l.686-2.17A4.764,4.764,0,0,1,47.264,21.4,10.9,10.9,0,0,0,40.39,1.92Z" transform="translate(-29.653 -1.919)" fill="#fed402"/>
          </g>
        </g>
        <g id="Grupo_1102108" data-name="Grupo 1102108" transform="translate(0 0.135)">
          <g id="Grupo_1102107" data-name="Grupo 1102107">
            <path id="Trazado_883743" data-name="Trazado 883743" d="M36.153,26a1.8,1.8,0,0,1,.415-.05h3.369l-1.029-3.256a4.638,4.638,0,0,0-1.573-2.284A10.886,10.886,0,0,1,38.851,2.171,10.9,10.9,0,0,0,33.9,21.57a4.638,4.638,0,0,1,1.573,2.284Z" transform="translate(-29.653 -2.171)" fill="#fac600"/>
          </g>
        </g>
        <g id="Grupo_1102109" data-name="Grupo 1102109" transform="translate(4.58 4.58)">
          <circle id="Elipse_11742" data-name="Elipse 11742" cx="6.319" cy="6.319" r="6.319" fill="#fee97d"/>
        </g>
        <g id="Grupo_1102115" data-name="Grupo 1102115" transform="translate(4.969 23.775)">
          <g id="Grupo_1102110" data-name="Grupo 1102110" transform="translate(2.611 7.649)">
            <path id="Trazado_883744" data-name="Trazado 883744" d="M43.837,60.727c0,.029.007.058.014.087l.646,2.993a1.663,1.663,0,0,0,1.625,1.312h2.111a1.663,1.663,0,0,0,1.628-1.325l.622-2.993c.005-.025.007-.049.011-.074Z" transform="translate(-43.837 -60.727)" fill="#3e5959"/>
          </g>
          <path id="Trazado_883745" data-name="Trazado 883745" d="M43.882,60.983l.635,2.943a1.663,1.663,0,0,0,1.625,1.312h2.111a1.663,1.663,0,0,0,1.628-1.325l.609-2.93Z" transform="translate(-41.247 -53.197)" fill="#3e5959"/>
          <path id="Trazado_883746" data-name="Trazado 883746" d="M47.48,63.926l-.635-2.943H43.882l.635,2.943a1.663,1.663,0,0,0,1.625,1.312h2.111a1.661,1.661,0,0,0,.425-.055A1.663,1.663,0,0,1,47.48,63.926Z" transform="translate(-41.247 -53.197)" fill="#384949"/>
          <g id="Grupo_1102111" data-name="Grupo 1102111" transform="translate(0 0)">
            <path id="Trazado_883747" data-name="Trazado 883747" d="M48.867,50.305H40.9a1.946,1.946,0,1,1,0-3.893h7.969a1.946,1.946,0,1,1,0,3.893Z" transform="translate(-38.951 -46.412)" fill="#a8d3d8"/>
          </g>
          <g id="Grupo_1102112" data-name="Grupo 1102112">
            <path id="Trazado_883748" data-name="Trazado 883748" d="M43.567,48.359a1.946,1.946,0,0,1,1.946-1.946H40.9a1.946,1.946,0,1,0,0,3.893h4.616A1.946,1.946,0,0,1,43.567,48.359Z" transform="translate(-38.951 -46.412)" fill="#8ebac5"/>
          </g>
          <g id="Grupo_1102113" data-name="Grupo 1102113" transform="translate(0 3.893)">
            <path id="Trazado_883749" data-name="Trazado 883749" d="M48.867,57.591H40.9a1.946,1.946,0,0,1,0-3.893h7.969a1.946,1.946,0,0,1,0,3.893Z" transform="translate(-38.951 -53.698)" fill="#c8effe"/>
          </g>
          <g id="Grupo_1102114" data-name="Grupo 1102114" transform="translate(0 3.893)">
            <path id="Trazado_883750" data-name="Trazado 883750" d="M43.567,55.644A1.946,1.946,0,0,1,45.514,53.7H40.9a1.946,1.946,0,1,0,0,3.893h4.616A1.946,1.946,0,0,1,43.567,55.644Z" transform="translate(-38.951 -53.698)" fill="#a8d3d8"/>
          </g>
        </g>
      </g>
      <g id="Grupo_1102119" data-name="Grupo 1102119" transform="translate(1.026 42.601)">
        <g id="Grupo_1102117" data-name="Grupo 1102117" transform="translate(0)">
          <path id="Trazado_883751" data-name="Trazado 883751" d="M33.227,88.12H14.951a.684.684,0,0,1-.684-.684V80.409a.684.684,0,0,1,.684-.684H33.227a.684.684,0,0,1,.684.684v7.027A.684.684,0,0,1,33.227,88.12Z" transform="translate(-14.267 -79.724)" fill="#05e39c"/>
        </g>
        <g id="Grupo_1102118" data-name="Grupo 1102118">
          <path id="Trazado_883752" data-name="Trazado 883752" d="M18.854,87.435V80.409a.684.684,0,0,1,.684-.684H14.951a.684.684,0,0,0-.684.684v7.027a.684.684,0,0,0,.684.684h4.587A.684.684,0,0,1,18.854,87.435Z" transform="translate(-14.267 -79.724)" fill="#0ed290"/>
        </g>
      </g>
      <g id="Grupo_1102122" data-name="Grupo 1102122" transform="translate(36.134 19.865)">
        <g id="Grupo_1102120" data-name="Grupo 1102120">
          <path id="Trazado_883753" data-name="Trazado 883753" d="M98.93,45.57H80.654a.684.684,0,0,1-.684-.684V37.86a.684.684,0,0,1,.684-.684H98.93a.684.684,0,0,1,.684.684v7.027A.684.684,0,0,1,98.93,45.57Z" transform="translate(-79.969 -37.175)" fill="#fd5426"/>
        </g>
        <g id="Grupo_1102121" data-name="Grupo 1102121" transform="translate(0 0)">
          <path id="Trazado_883754" data-name="Trazado 883754" d="M84.585,44.886V37.86a.684.684,0,0,1,.684-.684H80.654a.684.684,0,0,0-.684.684v7.027a.684.684,0,0,0,.684.684h4.616A.684.684,0,0,1,84.585,44.886Z" transform="translate(-79.969 -37.175)" fill="#ef4424"/>
        </g>
      </g>
      <g id="Grupo_1102123" data-name="Grupo 1102123" transform="translate(17.392 9.171)">
        <circle id="Elipse_11743" data-name="Elipse 11743" cx="2.754" cy="2.754" r="2.754" fill="#fe9901"/>
      </g>
      <g id="Grupo_1102124" data-name="Grupo 1102124" transform="translate(17.393 9.171)">
        <path id="Trazado_883755" data-name="Trazado 883755" d="M47.156,19.916a2.753,2.753,0,0,1,1.624-2.51,2.754,2.754,0,1,0,0,5.02,2.753,2.753,0,0,1-1.624-2.51Z" transform="translate(-44.897 -17.163)" fill="#fb8801"/>
      </g>
      <g id="Grupo_1102125" data-name="Grupo 1102125" transform="translate(0 0)">
        <path id="Trazado_883756" data-name="Trazado 883756" d="M20.3,87.712h2.562a1.025,1.025,0,0,0,0-2.051H20.3a1.025,1.025,0,1,0,0,2.051Z" transform="translate(-15.573 -39.888)"/>
        <path id="Trazado_883757" data-name="Trazado 883757" d="M31.319,87.712h6.354a1.025,1.025,0,0,0,0-2.051H31.319a1.025,1.025,0,0,0,0,2.051Z" transform="translate(-20.704 -39.888)"/>
        <path id="Trazado_883758" data-name="Trazado 883758" d="M67.442,18.839H56.177a22.318,22.318,0,0,0-11.8-5.974c.024-.311.037-.625.037-.94A11.925,11.925,0,0,0,20.574,11.6a11.979,11.979,0,0,0,3.231,8.487A22.369,22.369,0,0,0,19.08,41.575H14.058a1.712,1.712,0,0,0-1.71,1.71v7.027a1.712,1.712,0,0,0,1.71,1.71H25.864q.621.54,1.285,1.037a4.513,4.513,0,0,1,1.825,3.592V67.606A2.4,2.4,0,0,0,31.368,70h15.8a2.4,2.4,0,0,0,2.394-2.394V66.035a1.025,1.025,0,1,0-2.051,0v1.571a.344.344,0,0,1-.343.343h-15.8a.344.344,0,0,1-.343-.343V56.651a6.554,6.554,0,0,0-1.95-4.629h3.258a1.712,1.712,0,0,0,1.71-1.71V49.134A15.6,15.6,0,0,0,54.974,29.285h5.219a20.491,20.491,0,0,1,.813,5.407,2.42,2.42,0,0,0,.306,1.142l4.579,8.15a1.21,1.21,0,0,1-1.055,1.8H61.388a2.4,2.4,0,0,0-2.394,2.394v4.372a4.925,4.925,0,0,1-4.919,4.919H49.9a2.4,2.4,0,0,0-2.394,2.394V61.25a1.025,1.025,0,0,0,2.051,0V59.867a.344.344,0,0,1,.343-.343h4.17a6.978,6.978,0,0,0,6.97-6.97V48.181a.344.344,0,0,1,.343-.343h3.447a3.261,3.261,0,0,0,2.843-4.858L63.1,34.831a.362.362,0,0,1-.043-.171,22.571,22.571,0,0,0-.737-5.374h5.123a1.712,1.712,0,0,0,1.71-1.71V20.549a1.712,1.712,0,0,0-1.71-1.71Zm-14.4,0H49.166a1.712,1.712,0,0,0-1.71,1.71v.426a15.485,15.485,0,0,0-5.634-1.618,11.8,11.8,0,0,0,2.226-4.464,20.253,20.253,0,0,1,9,3.946ZM22.624,11.653a9.917,9.917,0,0,1,9.722-9.6H32.5A9.873,9.873,0,0,1,38.574,19.7a5.772,5.772,0,0,0-1.972,2.8l-.4,1.267H33.52V19.2a7.347,7.347,0,0,0,5.868-9.81,1.025,1.025,0,1,0-1.924.709,5.3,5.3,0,0,1-3.944,7.023V15.561a3.779,3.779,0,1,0-2.051,0v1.557A5.294,5.294,0,0,1,32.494,6.631a5.246,5.246,0,0,1,2.258.505,1.025,1.025,0,1,0,.876-1.854,7.279,7.279,0,0,0-3.134-.7A7.344,7.344,0,0,0,31.469,19.2v4.579H28.788L28.4,22.534a5.634,5.634,0,0,0-1.924-2.787,9.917,9.917,0,0,1-3.847-8.094Zm11.57,23.655a.64.64,0,0,1-.624.508H31.459a.641.641,0,0,1-.623-.5l-.367-1.7h4.078ZM28.51,31.561a.921.921,0,0,1,0-1.842h7.969a.921.921,0,0,1,0,1.842Zm7.969-3.893H28.51a.921.921,0,1,1,0-1.842h7.969a.921.921,0,1,1,0,1.842ZM32.494,13.653a1.729,1.729,0,1,1,1.729-1.729A1.731,1.731,0,0,1,32.494,13.653ZM20.15,34.628a20.268,20.268,0,0,1,5.176-13.167,3.609,3.609,0,0,1,1.114,1.691l.367,1.161a2.961,2.961,0,0,0-.648,4.244q-.182.409-.342.829a2.93,2.93,0,0,0-.184.512,15.579,15.579,0,0,0,.685,11.676H21.234a20.384,20.384,0,0,1-1.085-6.948ZM31.992,49.971H14.4V43.626H31.992ZM53.968,34.894A13.544,13.544,0,0,1,34.043,46.85V43.285a1.712,1.712,0,0,0-1.71-1.71h-3.7a13.506,13.506,0,0,1-1.658-8.4,2.949,2.949,0,0,0,1.4.428l.461,2.137a2.7,2.7,0,0,0,2.628,2.121h1.309a8.2,8.2,0,0,0,10.548,4.7,1.025,1.025,0,1,0-.727-1.918,6.149,6.149,0,0,1-7.733-3.119A2.694,2.694,0,0,0,36.2,35.725l.44-2.118A2.967,2.967,0,0,0,38.9,28.929a6.151,6.151,0,0,1,6.828,9.063,1.025,1.025,0,0,0,1.77,1.036A8.2,8.2,0,0,0,39.45,26.744a2.97,2.97,0,0,0-1.269-2.431l.375-1.188a3.722,3.722,0,0,1,1.234-1.768c.207-.01.415-.016.625-.016a13.467,13.467,0,0,1,7.041,1.979v4.254a1.712,1.712,0,0,0,1.71,1.71H52.75a13.466,13.466,0,0,1,1.218,5.609ZM67.1,27.234H49.507V20.89H67.1Z" transform="translate(-12.348 0)"/>
        <path id="Trazado_883759" data-name="Trazado 883759" d="M86,45.163h2.562a1.025,1.025,0,0,0,0-2.051H86a1.025,1.025,0,0,0,0,2.051Z" transform="translate(-46.167 -20.075)"/>
        <path id="Trazado_883760" data-name="Trazado 883760" d="M97.021,45.163h6.354a1.025,1.025,0,0,0,0-2.051H97.021a1.025,1.025,0,0,0,0,2.051Z" transform="translate(-51.298 -20.075)"/>
      </g>
    </g>
  </g>
</svg>
