<svg xmlns="http://www.w3.org/2000/svg" xmlns:xlink="http://www.w3.org/1999/xlink" width="676" height="382.258" viewBox="0 0 676 382.258">
  <defs>
    <filter id="Trazado_884220" x="209.222" y="0" width="275.067" height="382.258" filterUnits="userSpaceOnUse">
      <feOffset dy="3" input="SourceAlpha"/>
      <feGaussianBlur stdDeviation="3" result="blur"/>
      <feFlood flood-opacity="0.161"/>
      <feComposite operator="in" in2="blur"/>
      <feComposite in="SourceGraphic"/>
    </filter>
  </defs>
  <g id="Grupo_1102295" data-name="Grupo 1102295" transform="translate(-672 -15930)">
    <path id="Trazado_884218" data-name="Trazado 884218" d="M6.482-3.2h.044l2.41-7.463h3.274V0H9.734V-6.87L9.69-6.877,7.339,0H5.676L3.369-6.775l-.044.007V0H.85V-10.664H4.094ZM17.278.154A3.679,3.679,0,0,1,14.454-.937,3.881,3.881,0,0,1,13.433-3.7v-.278A4.434,4.434,0,0,1,14.4-6.936a3.421,3.421,0,0,1,2.787-1.135,3.209,3.209,0,0,1,2.487.959,3.735,3.735,0,0,1,.883,2.629v1.3H16.011L16-3.142a1.539,1.539,0,0,0,.461,1.007,1.611,1.611,0,0,0,1.157.385A5.016,5.016,0,0,0,18.8-1.868a7.456,7.456,0,0,0,1.08-.374l.593,1.509a4.53,4.53,0,0,1-1.377.63A6.355,6.355,0,0,1,17.278.154Zm-.1-6.321a1.021,1.021,0,0,0-.875.377,1.893,1.893,0,0,0-.326,1.022L16-4.731h2.139v-.19a1.647,1.647,0,0,0-.216-.93A.828.828,0,0,0,17.183-6.167Zm.117-5.156h2.717l.015.044-2.058,1.9H15.791Zm3.97,7.375a5.039,5.039,0,0,1,.809-2.988A2.639,2.639,0,0,1,24.36-8.071a1.968,1.968,0,0,1,.992.253,2.625,2.625,0,0,1,.795.721v-4.329h2.476V0H26.455l-.168-.967a2.665,2.665,0,0,1-.839.831,2.092,2.092,0,0,1-1.1.289A2.664,2.664,0,0,1,22.075-.93a4.686,4.686,0,0,1-.806-2.864Zm2.476.154a3.291,3.291,0,0,0,.282,1.505.985.985,0,0,0,.948.538,1.561,1.561,0,0,0,.685-.143,1.227,1.227,0,0,0,.487-.421v-3.2A1.348,1.348,0,0,0,25.664-6a1.327,1.327,0,0,0-.674-.168.988.988,0,0,0-.952.608,3.742,3.742,0,0,0-.293,1.611ZM32.622,0H30.139V-7.925h2.483Zm0-9.763H30.139v-1.663h2.483ZM37.529-1.75a.968.968,0,0,0,.754-.275,1.144,1.144,0,0,0,.249-.795h2.256l.015.044a2.6,2.6,0,0,1-.9,2.113,3.462,3.462,0,0,1-2.377.817A3.506,3.506,0,0,1,34.742-.963a4.259,4.259,0,0,1-.978-2.911v-.168a4.272,4.272,0,0,1,.974-2.908,3.48,3.48,0,0,1,2.776-1.121,3.409,3.409,0,0,1,2.413.839,2.893,2.893,0,0,1,.875,2.3l-.015.044H38.533a1.534,1.534,0,0,0-.256-.919.879.879,0,0,0-.762-.355,1.018,1.018,0,0,0-1,.575,3.555,3.555,0,0,0-.282,1.549v.168a3.542,3.542,0,0,0,.282,1.56A1.033,1.033,0,0,0,37.529-1.75Zm3.955-2.285A4.189,4.189,0,0,1,42.5-6.947a3.6,3.6,0,0,1,2.82-1.124,3.606,3.606,0,0,1,2.827,1.124,4.189,4.189,0,0,1,1.011,2.911v.154A4.186,4.186,0,0,1,48.142-.967,3.594,3.594,0,0,1,45.33.154,3.621,3.621,0,0,1,42.5-.967a4.186,4.186,0,0,1-1.011-2.915Zm2.476.154a3.276,3.276,0,0,0,.311,1.564,1.107,1.107,0,0,0,1.058.568,1.1,1.1,0,0,0,1.04-.571,3.248,3.248,0,0,0,.315-1.56v-.154a3.26,3.26,0,0,0-.315-1.549,1.1,1.1,0,0,0-1.055-.582,1.088,1.088,0,0,0-1.044.586,3.3,3.3,0,0,0-.311,1.545Z" transform="translate(716.63 16222.244)" fill="#00104e"/>
    <path id="Trazado_884219" data-name="Trazado 884219" d="M3.1-3.411V0H.793V-9.953h3.8a4.137,4.137,0,0,1,2.81.9A2.99,2.99,0,0,1,8.442-6.679,2.979,2.979,0,0,1,7.4-4.31a4.148,4.148,0,0,1-2.81.9Zm0-1.777h1.49A1.517,1.517,0,0,0,5.742-5.6a1.473,1.473,0,0,0,.4-1.063,1.535,1.535,0,0,0-.393-1.087,1.494,1.494,0,0,0-1.152-.424H3.1ZM13.781-.007a2.79,2.79,0,0,1-.222-.526,4.036,4.036,0,0,1-.14-.615,2.826,2.826,0,0,1-.742.94,1.79,1.79,0,0,1-1.152.352,2.561,2.561,0,0,1-1.808-.6,2.113,2.113,0,0,1-.646-1.63,1.972,1.972,0,0,1,.827-1.7,4.288,4.288,0,0,1,2.509-.6h.95v-.526a1.054,1.054,0,0,0-.226-.725.879.879,0,0,0-.69-.253.833.833,0,0,0-.6.188.78.78,0,0,0-.195.584L9.406-5.12l-.014-.041a1.929,1.929,0,0,1,.844-1.692,3.783,3.783,0,0,1,2.355-.68,3.445,3.445,0,0,1,2.225.684,2.362,2.362,0,0,1,.851,1.955v2.789a5.69,5.69,0,0,0,.1,1.094A5.857,5.857,0,0,0,16.064,0ZM12.154-1.5a1.408,1.408,0,0,0,.749-.2,1.135,1.135,0,0,0,.455-.472v-.978h-.93a1.044,1.044,0,0,0-.8.267.959.959,0,0,0-.246.677A.654.654,0,0,0,11.6-1.7.8.8,0,0,0,12.154-1.5Zm7.943-.13a.9.9,0,0,0,.7-.256,1.068,1.068,0,0,0,.232-.742H23.14l.014.041a2.428,2.428,0,0,1-.837,1.972A3.231,3.231,0,0,1,20.1.144,3.272,3.272,0,0,1,17.5-.9a3.975,3.975,0,0,1-.913-2.717v-.157a3.988,3.988,0,0,1,.909-2.714,3.248,3.248,0,0,1,2.591-1.046,3.181,3.181,0,0,1,2.252.783,2.7,2.7,0,0,1,.817,2.143l-.014.041H21.034a1.431,1.431,0,0,0-.239-.858.82.82,0,0,0-.711-.332.95.95,0,0,0-.933.537,3.318,3.318,0,0,0-.263,1.446v.157a3.306,3.306,0,0,0,.263,1.456A.964.964,0,0,0,20.1-1.634ZM26.517,0H24.2V-7.4h2.317Zm0-9.112H24.2v-1.552h2.317Zm4.7,9.256A3.434,3.434,0,0,1,28.578-.875a3.622,3.622,0,0,1-.954-2.577v-.26a4.139,4.139,0,0,1,.9-2.762,3.193,3.193,0,0,1,2.6-1.06,3,3,0,0,1,2.321.9,3.486,3.486,0,0,1,.824,2.454v1.21H30.03l-.014.041a1.436,1.436,0,0,0,.431.94,1.5,1.5,0,0,0,1.08.359,4.681,4.681,0,0,0,1.1-.109,6.959,6.959,0,0,0,1.008-.349l.554,1.408A4.228,4.228,0,0,1,32.908-.1,5.931,5.931,0,0,1,31.213.144Zm-.089-5.9a.953.953,0,0,0-.817.352,1.766,1.766,0,0,0-.3.954l.014.034h2v-.178a1.537,1.537,0,0,0-.2-.868A.773.773,0,0,0,31.124-5.756ZM37.372-7.4l.089,1.039a2.678,2.678,0,0,1,.9-.865,2.317,2.317,0,0,1,1.189-.311,2.085,2.085,0,0,1,1.7.738,3.652,3.652,0,0,1,.612,2.345V0H39.546V-4.457a1.7,1.7,0,0,0-.226-1,.773.773,0,0,0-.656-.3,1.624,1.624,0,0,0-.663.13,1.324,1.324,0,0,0-.492.369V0h-2.3V-7.4Zm8.395-1.839V-7.4h1.169v1.6H45.767v3.391a.829.829,0,0,0,.161.571.561.561,0,0,0,.434.174,2.322,2.322,0,0,0,.284-.014,2.456,2.456,0,0,0,.27-.055l.157,1.709a5.578,5.578,0,0,1-.629.126,5.065,5.065,0,0,1-.663.038,2.309,2.309,0,0,1-1.733-.608,2.685,2.685,0,0,1-.591-1.928V-5.8H42.424V-7.4h1.032V-9.235ZM51.338.144A3.434,3.434,0,0,1,48.7-.875a3.622,3.622,0,0,1-.954-2.577v-.26a4.139,4.139,0,0,1,.9-2.762,3.193,3.193,0,0,1,2.6-1.06,3,3,0,0,1,2.321.9,3.486,3.486,0,0,1,.824,2.454v1.21H50.155l-.014.041a1.436,1.436,0,0,0,.431.94,1.5,1.5,0,0,0,1.08.359,4.681,4.681,0,0,0,1.1-.109,6.959,6.959,0,0,0,1.008-.349l.554,1.408A4.228,4.228,0,0,1,53.033-.1,5.931,5.931,0,0,1,51.338.144Zm-.089-5.9a.953.953,0,0,0-.817.352,1.766,1.766,0,0,0-.3.954l.014.034h2v-.178a1.537,1.537,0,0,0-.2-.868A.773.773,0,0,0,51.249-5.756Z" transform="translate(1238.353 16221.244)" fill="#00104e"/>
    <g transform="matrix(1, 0, 0, 1, 672, 15930)" filter="url(#Trazado_884220)">
      <g id="Trazado_884220-2" data-name="Trazado 884220" transform="translate(218.22 6)" fill="#ffefad">
        <path d="M 247.0670623779297 362.7573852539062 L 10.00002384185791 362.7573852539062 C 5.313114643096924 362.7573852539062 1.500023603439331 358.9442749023438 1.500023603439331 354.2573852539062 L 1.500023603439331 10.00001049041748 C 1.500023603439331 5.313101768493652 5.313114643096924 1.500010848045349 10.00002384185791 1.500010848045349 L 247.0670623779297 1.500010848045349 C 251.7539825439453 1.500010848045349 255.5670623779297 5.313101768493652 255.5670623779297 10.00001049041748 L 255.5670623779297 354.2573852539062 C 255.5670623779297 358.9442749023438 251.7539825439453 362.7573852539062 247.0670623779297 362.7573852539062 Z" stroke="none"/>
        <path d="M 9.999969482421875 3 C 6.140167236328125 3 2.999969482421875 6.14019775390625 2.999969482421875 10 L 2.999969482421875 354.2573852539062 C 2.999969482421875 358.1171875 6.140167236328125 361.2573852539062 9.999969482421875 361.2573852539062 L 247.0670166015625 361.2573852539062 C 250.9268188476562 361.2573852539062 254.0670166015625 358.1171875 254.0670166015625 354.2573852539062 L 254.0670166015625 10 C 254.0670166015625 6.14019775390625 250.9268188476562 3 247.0670166015625 3 L 9.999969482421875 3 M 9.999969482421875 0 L 247.0670166015625 0 C 252.5898742675781 0 257.0670166015625 4.477142333984375 257.0670166015625 10 L 257.0670166015625 354.2573852539062 C 257.0670166015625 359.7802429199219 252.5898742675781 364.2573852539062 247.0670166015625 364.2573852539062 L 9.999969482421875 364.2573852539062 C 4.4771728515625 364.2573852539062 -3.0517578125e-05 359.7802429199219 -3.0517578125e-05 354.2573852539062 L -3.0517578125e-05 10 C -3.0517578125e-05 4.477142333984375 4.4771728515625 0 9.999969482421875 0 Z" stroke="none" fill="#f0c518"/>
      </g>
    </g>
    <g id="Trazado_884221" data-name="Trazado 884221" transform="translate(924.37 15955.92)" fill="#fff">
      <path d="M 91.53863525390625 70.59261322021484 C 79.26332855224609 70.59261322021484 67.35825347900391 69.64642333984375 56.15410995483398 67.78030395507812 C 45.35727691650391 65.98201751708984 35.66975402832031 63.41118240356445 27.36063575744629 60.13920593261719 C 23.28913497924805 58.53592300415039 19.59763526916504 56.77461242675781 16.38873100280762 54.90420913696289 C 13.17846870422363 53.03303909301758 10.42865943908691 51.03961181640625 8.215659141540527 48.97930145263672 C 3.759468555450439 44.83056640625 1.499992370605469 40.47925567626953 1.499992370605469 36.04630279541016 C 1.499992370605469 31.61334991455078 3.759468555450439 27.26206398010254 8.215659141540527 23.11332702636719 C 10.42865943908691 21.05299377441406 13.17846870422363 19.0595645904541 16.38873100280762 17.18839836120605 C 19.59763526916504 15.3179931640625 23.28913497924805 13.55670738220215 27.36063575744629 11.95339775085449 C 35.66975402832031 8.681422233581543 45.35727691650391 6.110588550567627 56.15410995483398 4.312302589416504 C 67.35825347900391 2.446183681488037 79.26332855224609 1.499993324279785 91.53863525390625 1.499993324279785 C 103.8139419555664 1.499993324279785 115.7190170288086 2.446183681488037 126.9231567382812 4.312302589416504 C 137.7199859619141 6.110588550567627 147.4075164794922 8.681422233581543 155.7166290283203 11.95339775085449 C 159.7881317138672 13.55670738220215 163.4796295166016 15.3179931640625 166.6885375976562 17.18839836120605 C 169.8988037109375 19.0595645904541 172.6486053466797 21.05299377441406 174.8616180419922 23.11332702636719 C 179.3177947998047 27.26206398010254 181.5772705078125 31.61334991455078 181.5772705078125 36.04630279541016 C 181.5772705078125 40.47925567626953 179.3177947998047 44.83056640625 174.8616180419922 48.97930145263672 C 172.6486053466797 51.03961181640625 169.8988037109375 53.03303909301758 166.6885375976562 54.90420913696289 C 163.4796295166016 56.77461242675781 159.7881317138672 58.53592300415039 155.7166290283203 60.13920593261719 C 147.4075164794922 63.41118240356445 137.7199859619141 65.98201751708984 126.9231567382812 67.78030395507812 C 115.7190170288086 69.64642333984375 103.8139419555664 70.59261322021484 91.53863525390625 70.59261322021484 Z" stroke="none"/>
      <path d="M 91.53863525390625 3 C 79.34563446044922 3 67.52348327636719 3.939353942871094 56.40053558349609 5.79193115234375 C 45.70721435546875 7.572975158691406 36.12168884277344 10.11557769775391 27.91023254394531 13.34910202026367 C 23.90951538085938 14.92450332641602 20.28726196289062 16.65225219726562 17.14408874511719 18.48432922363281 C 14.0296630859375 20.29965209960938 11.36958312988281 22.2264289855957 9.237762451171875 24.21117782592773 C 5.098678588867188 28.06467819213867 2.999984741210938 32.04660415649414 2.999984741210938 36.04630279541016 C 2.999984741210938 40.04600143432617 5.098678588867188 44.02792739868164 9.237762451171875 47.88142776489258 C 11.36958312988281 49.86618041992188 14.0296630859375 51.79295349121094 17.14408874511719 53.6082763671875 C 20.28726196289062 55.44035339355469 23.90951538085938 57.1681022644043 27.91023254394531 58.74350357055664 C 36.12168884277344 61.97702789306641 45.70721435546875 64.51963043212891 56.40053558349609 66.30067443847656 C 67.52348327636719 68.15325164794922 79.34563446044922 69.09260559082031 91.53863525390625 69.09260559082031 C 103.7316360473633 69.09260559082031 115.5537872314453 68.15325164794922 126.6767349243164 66.30067443847656 C 137.3700561523438 64.51963043212891 146.95556640625 61.97702789306641 155.1670379638672 58.74350357055664 C 159.1677398681641 57.1681022644043 162.7900085449219 55.44035339355469 165.9331817626953 53.6082763671875 C 169.0475921630859 51.79295349121094 171.7076568603516 49.86618041992188 173.8394775390625 47.88142776489258 C 177.9785614013672 44.02792739868164 180.0772552490234 40.04600143432617 180.0772552490234 36.04630279541016 C 180.0772552490234 32.04660415649414 177.9785614013672 28.06467819213867 173.8394775390625 24.21117782592773 C 171.7076568603516 22.2264289855957 169.0475921630859 20.29965209960938 165.9331817626953 18.48432922363281 C 162.7900085449219 16.65225219726562 159.1677398681641 14.92450332641602 155.1670379638672 13.34910202026367 C 146.95556640625 10.11557769775391 137.3700561523438 7.572975158691406 126.6767349243164 5.79193115234375 C 115.5537872314453 3.939353942871094 103.7316360473633 3 91.53863525390625 3 M 91.53863525390625 0 C 142.0940399169922 0 183.0772552490234 16.13847732543945 183.0772552490234 36.04630279541016 C 183.0772552490234 55.95412826538086 142.0940399169922 72.09260559082031 91.53863525390625 72.09260559082031 C 40.98323059082031 72.09260559082031 -1.52587890625e-05 55.95412826538086 -1.52587890625e-05 36.04630279541016 C -1.52587890625e-05 16.13847732543945 40.98323059082031 0 91.53863525390625 0 Z" stroke="none" fill="#3a1d71"/>
    </g>
    <g id="Trazado_884222" data-name="Trazado 884222" transform="translate(924.37 16037.499)" fill="#fff">
      <path d="M 91.53863525390625 70.59261322021484 C 79.26332855224609 70.59261322021484 67.35825347900391 69.64642333984375 56.15410995483398 67.78030395507812 C 45.35727691650391 65.98201751708984 35.66975402832031 63.41118240356445 27.36063575744629 60.13920593261719 C 23.28913497924805 58.53592300415039 19.59763526916504 56.77461242675781 16.38873100280762 54.90420913696289 C 13.17846870422363 53.03303909301758 10.42865943908691 51.03961181640625 8.215659141540527 48.97930145263672 C 3.759468555450439 44.83056640625 1.499992370605469 40.47925567626953 1.499992370605469 36.04630279541016 C 1.499992370605469 31.61334991455078 3.759468555450439 27.26206398010254 8.215659141540527 23.11332702636719 C 10.42865943908691 21.05299377441406 13.17846870422363 19.0595645904541 16.38873100280762 17.18839836120605 C 19.59763526916504 15.3179931640625 23.28913497924805 13.55670738220215 27.36063575744629 11.95339775085449 C 35.66975402832031 8.681422233581543 45.35727691650391 6.110588550567627 56.15410995483398 4.312302589416504 C 67.35825347900391 2.446183681488037 79.26332855224609 1.499993324279785 91.53863525390625 1.499993324279785 C 103.8139419555664 1.499993324279785 115.7190170288086 2.446183681488037 126.9231567382812 4.312302589416504 C 137.7199859619141 6.110588550567627 147.4075164794922 8.681422233581543 155.7166290283203 11.95339775085449 C 159.7881317138672 13.55670738220215 163.4796295166016 15.3179931640625 166.6885375976562 17.18839836120605 C 169.8988037109375 19.0595645904541 172.6486053466797 21.05299377441406 174.8616180419922 23.11332702636719 C 179.3177947998047 27.26206398010254 181.5772705078125 31.61334991455078 181.5772705078125 36.04630279541016 C 181.5772705078125 40.47925567626953 179.3177947998047 44.83056640625 174.8616180419922 48.97930145263672 C 172.6486053466797 51.03961181640625 169.8988037109375 53.03303909301758 166.6885375976562 54.90420913696289 C 163.4796295166016 56.77461242675781 159.7881317138672 58.53592300415039 155.7166290283203 60.13920593261719 C 147.4075164794922 63.41118240356445 137.7199859619141 65.98201751708984 126.9231567382812 67.78030395507812 C 115.7190170288086 69.64642333984375 103.8139419555664 70.59261322021484 91.53863525390625 70.59261322021484 Z" stroke="none"/>
      <path d="M 91.53863525390625 3 C 79.34563446044922 3 67.52348327636719 3.939353942871094 56.40053558349609 5.79193115234375 C 45.70721435546875 7.572975158691406 36.12168884277344 10.11557769775391 27.91023254394531 13.34910202026367 C 23.90951538085938 14.92450332641602 20.28726196289062 16.65225219726562 17.14408874511719 18.48432922363281 C 14.0296630859375 20.29965209960938 11.36958312988281 22.2264289855957 9.237762451171875 24.21117782592773 C 5.098678588867188 28.06467819213867 2.999984741210938 32.04660415649414 2.999984741210938 36.04630279541016 C 2.999984741210938 40.04600143432617 5.098678588867188 44.02792739868164 9.237762451171875 47.88142776489258 C 11.36958312988281 49.86618041992188 14.0296630859375 51.79295349121094 17.14408874511719 53.6082763671875 C 20.28726196289062 55.44035339355469 23.90951538085938 57.1681022644043 27.91023254394531 58.74350357055664 C 36.12168884277344 61.97702789306641 45.70721435546875 64.51963043212891 56.40053558349609 66.30067443847656 C 67.52348327636719 68.15325164794922 79.34563446044922 69.09260559082031 91.53863525390625 69.09260559082031 C 103.7316360473633 69.09260559082031 115.5537872314453 68.15325164794922 126.6767349243164 66.30067443847656 C 137.3700561523438 64.51963043212891 146.95556640625 61.97702789306641 155.1670379638672 58.74350357055664 C 159.1677398681641 57.1681022644043 162.7900085449219 55.44035339355469 165.9331817626953 53.6082763671875 C 169.0475921630859 51.79295349121094 171.7076568603516 49.86618041992188 173.8394775390625 47.88142776489258 C 177.9785614013672 44.02792739868164 180.0772552490234 40.04600143432617 180.0772552490234 36.04630279541016 C 180.0772552490234 32.04660415649414 177.9785614013672 28.06467819213867 173.8394775390625 24.21117782592773 C 171.7076568603516 22.2264289855957 169.0475921630859 20.29965209960938 165.9331817626953 18.48432922363281 C 162.7900085449219 16.65225219726562 159.1677398681641 14.92450332641602 155.1670379638672 13.34910202026367 C 146.95556640625 10.11557769775391 137.3700561523438 7.572975158691406 126.6767349243164 5.79193115234375 C 115.5537872314453 3.939353942871094 103.7316360473633 3 91.53863525390625 3 M 91.53863525390625 0 C 142.0940399169922 0 183.0772552490234 16.13847732543945 183.0772552490234 36.04630279541016 C 183.0772552490234 55.95412826538086 142.0940399169922 72.09260559082031 91.53863525390625 72.09260559082031 C 40.98323059082031 72.09260559082031 -1.52587890625e-05 55.95412826538086 -1.52587890625e-05 36.04630279541016 C -1.52587890625e-05 16.13847732543945 40.98323059082031 0 91.53863525390625 0 Z" stroke="none" fill="#3a1d71"/>
    </g>
    <g id="Trazado_884223" data-name="Trazado 884223" transform="translate(924.37 16119.077)" fill="#fff">
      <path d="M 91.53863525390625 70.59261322021484 C 79.26332855224609 70.59261322021484 67.35825347900391 69.64642333984375 56.15410995483398 67.78030395507812 C 45.35727691650391 65.98201751708984 35.66975402832031 63.41118240356445 27.36063575744629 60.13920593261719 C 23.28913497924805 58.53592300415039 19.59763526916504 56.77461242675781 16.38873100280762 54.90420913696289 C 13.17846870422363 53.03303909301758 10.42865943908691 51.03961181640625 8.215659141540527 48.97930145263672 C 3.759468555450439 44.83056640625 1.499992370605469 40.47925567626953 1.499992370605469 36.04630279541016 C 1.499992370605469 31.61334991455078 3.759468555450439 27.26206398010254 8.215659141540527 23.11332702636719 C 10.42865943908691 21.05299377441406 13.17846870422363 19.0595645904541 16.38873100280762 17.18839836120605 C 19.59763526916504 15.3179931640625 23.28913497924805 13.55670738220215 27.36063575744629 11.95339775085449 C 35.66975402832031 8.681422233581543 45.35727691650391 6.110588550567627 56.15410995483398 4.312302589416504 C 67.35825347900391 2.446183681488037 79.26332855224609 1.499993324279785 91.53863525390625 1.499993324279785 C 103.8139419555664 1.499993324279785 115.7190170288086 2.446183681488037 126.9231567382812 4.312302589416504 C 137.7199859619141 6.110588550567627 147.4075164794922 8.681422233581543 155.7166290283203 11.95339775085449 C 159.7881317138672 13.55670738220215 163.4796295166016 15.3179931640625 166.6885375976562 17.18839836120605 C 169.8988037109375 19.0595645904541 172.6486053466797 21.05299377441406 174.8616180419922 23.11332702636719 C 179.3177947998047 27.26206398010254 181.5772705078125 31.61334991455078 181.5772705078125 36.04630279541016 C 181.5772705078125 40.47925567626953 179.3177947998047 44.83056640625 174.8616180419922 48.97930145263672 C 172.6486053466797 51.03961181640625 169.8988037109375 53.03303909301758 166.6885375976562 54.90420913696289 C 163.4796295166016 56.77461242675781 159.7881317138672 58.53592300415039 155.7166290283203 60.13920593261719 C 147.4075164794922 63.41118240356445 137.7199859619141 65.98201751708984 126.9231567382812 67.78030395507812 C 115.7190170288086 69.64642333984375 103.8139419555664 70.59261322021484 91.53863525390625 70.59261322021484 Z" stroke="none"/>
      <path d="M 91.53863525390625 3 C 79.34563446044922 3 67.52348327636719 3.939353942871094 56.40053558349609 5.79193115234375 C 45.70721435546875 7.572975158691406 36.12168884277344 10.11557769775391 27.91023254394531 13.34910202026367 C 23.90951538085938 14.92450332641602 20.28726196289062 16.65225219726562 17.14408874511719 18.48432922363281 C 14.0296630859375 20.29965209960938 11.36958312988281 22.2264289855957 9.237762451171875 24.21117782592773 C 5.098678588867188 28.06467819213867 2.999984741210938 32.04660415649414 2.999984741210938 36.04630279541016 C 2.999984741210938 40.04600143432617 5.098678588867188 44.02792739868164 9.237762451171875 47.88142776489258 C 11.36958312988281 49.86618041992188 14.0296630859375 51.79295349121094 17.14408874511719 53.6082763671875 C 20.28726196289062 55.44035339355469 23.90951538085938 57.1681022644043 27.91023254394531 58.74350357055664 C 36.12168884277344 61.97702789306641 45.70721435546875 64.51963043212891 56.40053558349609 66.30067443847656 C 67.52348327636719 68.15325164794922 79.34563446044922 69.09260559082031 91.53863525390625 69.09260559082031 C 103.7316360473633 69.09260559082031 115.5537872314453 68.15325164794922 126.6767349243164 66.30067443847656 C 137.3700561523438 64.51963043212891 146.95556640625 61.97702789306641 155.1670379638672 58.74350357055664 C 159.1677398681641 57.1681022644043 162.7900085449219 55.44035339355469 165.9331817626953 53.6082763671875 C 169.0475921630859 51.79295349121094 171.7076568603516 49.86618041992188 173.8394775390625 47.88142776489258 C 177.9785614013672 44.02792739868164 180.0772552490234 40.04600143432617 180.0772552490234 36.04630279541016 C 180.0772552490234 32.04660415649414 177.9785614013672 28.06467819213867 173.8394775390625 24.21117782592773 C 171.7076568603516 22.2264289855957 169.0475921630859 20.29965209960938 165.9331817626953 18.48432922363281 C 162.7900085449219 16.65225219726562 159.1677398681641 14.92450332641602 155.1670379638672 13.34910202026367 C 146.95556640625 10.11557769775391 137.3700561523438 7.572975158691406 126.6767349243164 5.79193115234375 C 115.5537872314453 3.939353942871094 103.7316360473633 3 91.53863525390625 3 M 91.53863525390625 0 C 142.0940399169922 0 183.0772552490234 16.13847732543945 183.0772552490234 36.04630279541016 C 183.0772552490234 55.95412826538086 142.0940399169922 72.09260559082031 91.53863525390625 72.09260559082031 C 40.98323059082031 72.09260559082031 -1.52587890625e-05 55.95412826538086 -1.52587890625e-05 36.04630279541016 C -1.52587890625e-05 16.13847732543945 40.98323059082031 0 91.53863525390625 0 Z" stroke="none" fill="#3a1d71"/>
    </g>
    <g id="Trazado_884224" data-name="Trazado 884224" transform="translate(924.37 16200.656)" fill="#fff">
      <path d="M 91.53863525390625 70.59261322021484 C 79.26332855224609 70.59261322021484 67.35825347900391 69.64642333984375 56.15410995483398 67.78030395507812 C 45.35727691650391 65.98201751708984 35.66975402832031 63.41118240356445 27.36063575744629 60.13920593261719 C 23.28913497924805 58.53592300415039 19.59763526916504 56.77461242675781 16.38873100280762 54.90420913696289 C 13.17846870422363 53.03303909301758 10.42865943908691 51.03961181640625 8.215659141540527 48.97930145263672 C 3.759468555450439 44.83056640625 1.499992370605469 40.47925567626953 1.499992370605469 36.04630279541016 C 1.499992370605469 31.61334991455078 3.759468555450439 27.26206398010254 8.215659141540527 23.11332702636719 C 10.42865943908691 21.05299377441406 13.17846870422363 19.0595645904541 16.38873100280762 17.18839836120605 C 19.59763526916504 15.3179931640625 23.28913497924805 13.55670738220215 27.36063575744629 11.95339775085449 C 35.66975402832031 8.681422233581543 45.35727691650391 6.110588550567627 56.15410995483398 4.312302589416504 C 67.35825347900391 2.446183681488037 79.26332855224609 1.499993324279785 91.53863525390625 1.499993324279785 C 103.8139419555664 1.499993324279785 115.7190170288086 2.446183681488037 126.9231567382812 4.312302589416504 C 137.7199859619141 6.110588550567627 147.4075164794922 8.681422233581543 155.7166290283203 11.95339775085449 C 159.7881317138672 13.55670738220215 163.4796295166016 15.3179931640625 166.6885375976562 17.18839836120605 C 169.8988037109375 19.0595645904541 172.6486053466797 21.05299377441406 174.8616180419922 23.11332702636719 C 179.3177947998047 27.26206398010254 181.5772705078125 31.61334991455078 181.5772705078125 36.04630279541016 C 181.5772705078125 40.47925567626953 179.3177947998047 44.83056640625 174.8616180419922 48.97930145263672 C 172.6486053466797 51.03961181640625 169.8988037109375 53.03303909301758 166.6885375976562 54.90420913696289 C 163.4796295166016 56.77461242675781 159.7881317138672 58.53592300415039 155.7166290283203 60.13920593261719 C 147.4075164794922 63.41118240356445 137.7199859619141 65.98201751708984 126.9231567382812 67.78030395507812 C 115.7190170288086 69.64642333984375 103.8139419555664 70.59261322021484 91.53863525390625 70.59261322021484 Z" stroke="none"/>
      <path d="M 91.53863525390625 3 C 79.34563446044922 3 67.52348327636719 3.939353942871094 56.40053558349609 5.79193115234375 C 45.70721435546875 7.572975158691406 36.12168884277344 10.11557769775391 27.91023254394531 13.34910202026367 C 23.90951538085938 14.92450332641602 20.28726196289062 16.65225219726562 17.14408874511719 18.48432922363281 C 14.0296630859375 20.29965209960938 11.36958312988281 22.2264289855957 9.237762451171875 24.21117782592773 C 5.098678588867188 28.06467819213867 2.999984741210938 32.04660415649414 2.999984741210938 36.04630279541016 C 2.999984741210938 40.04600143432617 5.098678588867188 44.02792739868164 9.237762451171875 47.88142776489258 C 11.36958312988281 49.86618041992188 14.0296630859375 51.79295349121094 17.14408874511719 53.6082763671875 C 20.28726196289062 55.44035339355469 23.90951538085938 57.1681022644043 27.91023254394531 58.74350357055664 C 36.12168884277344 61.97702789306641 45.70721435546875 64.51963043212891 56.40053558349609 66.30067443847656 C 67.52348327636719 68.15325164794922 79.34563446044922 69.09260559082031 91.53863525390625 69.09260559082031 C 103.7316360473633 69.09260559082031 115.5537872314453 68.15325164794922 126.6767349243164 66.30067443847656 C 137.3700561523438 64.51963043212891 146.95556640625 61.97702789306641 155.1670379638672 58.74350357055664 C 159.1677398681641 57.1681022644043 162.7900085449219 55.44035339355469 165.9331817626953 53.6082763671875 C 169.0475921630859 51.79295349121094 171.7076568603516 49.86618041992188 173.8394775390625 47.88142776489258 C 177.9785614013672 44.02792739868164 180.0772552490234 40.04600143432617 180.0772552490234 36.04630279541016 C 180.0772552490234 32.04660415649414 177.9785614013672 28.06467819213867 173.8394775390625 24.21117782592773 C 171.7076568603516 22.2264289855957 169.0475921630859 20.29965209960938 165.9331817626953 18.48432922363281 C 162.7900085449219 16.65225219726562 159.1677398681641 14.92450332641602 155.1670379638672 13.34910202026367 C 146.95556640625 10.11557769775391 137.3700561523438 7.572975158691406 126.6767349243164 5.79193115234375 C 115.5537872314453 3.939353942871094 103.7316360473633 3 91.53863525390625 3 M 91.53863525390625 0 C 142.0940399169922 0 183.0772552490234 16.13847732543945 183.0772552490234 36.04630279541016 C 183.0772552490234 55.95412826538086 142.0940399169922 72.09260559082031 91.53863525390625 72.09260559082031 C 40.98323059082031 72.09260559082031 -1.52587890625e-05 55.95412826538086 -1.52587890625e-05 36.04630279541016 C -1.52587890625e-05 16.13847732543945 40.98323059082031 0 91.53863525390625 0 Z" stroke="none" fill="#3a1d71"/>
    </g>
    <path id="Trazado_884225" data-name="Trazado 884225" d="M-30.782-2.146h-3.227L-34.679,0h-2.085l3.356-9.953h2.044L-28.021,0h-2.085Zm-2.734-1.565h2.249l-1.1-3.507h-.041Zm6,.075a4.806,4.806,0,0,1,.755-2.823,2.453,2.453,0,0,1,2.129-1.073,2.071,2.071,0,0,1,1,.239,2.4,2.4,0,0,1,.779.684v-4.054h2V0h-1.7l-.171-.909a2.473,2.473,0,0,1-.827.783,2.187,2.187,0,0,1-1.094.27,2.5,2.5,0,0,1-2.116-1,4.262,4.262,0,0,1-.755-2.639Zm1.989.144A3.013,3.013,0,0,0-25.2-1.965a1.142,1.142,0,0,0,1.066.557,1.553,1.553,0,0,0,.752-.174,1.391,1.391,0,0,0,.526-.509V-5.243a1.536,1.536,0,0,0-.523-.543,1.391,1.391,0,0,0-.742-.195,1.127,1.127,0,0,0-1.07.649,3.67,3.67,0,0,0-.338,1.7Zm8.073-3.9.082.978a2.485,2.485,0,0,1,.892-.824,2.565,2.565,0,0,1,1.241-.291,2.259,2.259,0,0,1,1.217.314,1.94,1.94,0,0,1,.766.95,2.564,2.564,0,0,1,.889-.93,2.411,2.411,0,0,1,1.285-.335,2.107,2.107,0,0,1,1.726.776,3.7,3.7,0,0,1,.632,2.369V0h-2V-4.4A2.073,2.073,0,0,0-11-5.633a.971.971,0,0,0-.813-.349,1.393,1.393,0,0,0-.735.188,1.369,1.369,0,0,0-.5.523q0,.13.007.222t.007.188V0h-1.989V-4.4a2.079,2.079,0,0,0-.273-1.227.966.966,0,0,0-.82-.359,1.548,1.548,0,0,0-.708.154,1.357,1.357,0,0,0-.5.434V0h-1.989V-7.4ZM-5.1,0h-2V-7.4h2Zm0-9.167h-2v-1.5h2ZM-1.634-7.4l.089,1.06a2.705,2.705,0,0,1,.909-.882,2.36,2.36,0,0,1,1.21-.314,2.2,2.2,0,0,1,1.75.721,3.419,3.419,0,0,1,.629,2.28V0h-2V-4.525A1.771,1.771,0,0,0,.673-5.65a1.02,1.02,0,0,0-.831-.332,1.743,1.743,0,0,0-.783.167,1.528,1.528,0,0,0-.557.461V0h-2V-7.4ZM6.542,0h-2V-7.4h2Zm0-9.167h-2v-1.5h2Zm5.64,7.116a.689.689,0,0,0-.318-.564,3.229,3.229,0,0,0-1.179-.414,4.7,4.7,0,0,1-1.972-.786,1.717,1.717,0,0,1-.673-1.429,2.038,2.038,0,0,1,.807-1.62,3.252,3.252,0,0,1,2.146-.67,3.51,3.51,0,0,1,2.246.67,1.957,1.957,0,0,1,.81,1.668l-.014.041H12.106a.968.968,0,0,0-.287-.725,1.136,1.136,0,0,0-.827-.28,1.13,1.13,0,0,0-.759.239.744.744,0,0,0-.28.588.664.664,0,0,0,.291.557,3.234,3.234,0,0,0,1.179.386,4.8,4.8,0,0,1,2.027.8,1.762,1.762,0,0,1,.667,1.459,1.952,1.952,0,0,1-.854,1.634,3.688,3.688,0,0,1-2.256.636A3.429,3.429,0,0,1,8.671-.6a2.093,2.093,0,0,1-.817-1.706l.014-.041H9.693a1.037,1.037,0,0,0,.39.861,1.609,1.609,0,0,0,.964.267,1.371,1.371,0,0,0,.844-.222A.721.721,0,0,0,12.182-2.051Zm5.612-7.157V-7.4h1.251V-6H17.794v3.767a.859.859,0,0,0,.181.615.636.636,0,0,0,.475.185,1.906,1.906,0,0,0,.273-.017A2.3,2.3,0,0,0,18.99-1.5l.164,1.442a4.041,4.041,0,0,1-.584.154,3.484,3.484,0,0,1-.619.051,2.127,2.127,0,0,1-1.589-.567,2.488,2.488,0,0,1-.557-1.8V-6h-1.08V-7.4H15.8V-9.208Zm6.371,3.527L23.434-5.7a1.329,1.329,0,0,0-.731.185,1.17,1.17,0,0,0-.437.52V0H20.275V-7.4h1.853L22.217-6.3a2.333,2.333,0,0,1,.673-.906,1.5,1.5,0,0,1,.954-.325,1.492,1.492,0,0,1,.277.024q.126.024.256.058ZM29.565,0a4.2,4.2,0,0,1-.188-.533,3.709,3.709,0,0,1-.113-.574,2.736,2.736,0,0,1-.813.9,2.039,2.039,0,0,1-1.2.355,2.5,2.5,0,0,1-1.791-.6,2.143,2.143,0,0,1-.629-1.63,1.95,1.95,0,0,1,.837-1.685,4.182,4.182,0,0,1,2.444-.6H29.23v-.588a1.151,1.151,0,0,0-.28-.827,1.1,1.1,0,0,0-.834-.294,1.084,1.084,0,0,0-.749.236A.823.823,0,0,0,27.1-5.2H25.184l-.014-.041a1.876,1.876,0,0,1,.817-1.617,3.548,3.548,0,0,1,2.259-.68,3.311,3.311,0,0,1,2.157.67,2.333,2.333,0,0,1,.824,1.921v3.056a5.779,5.779,0,0,0,.079.978,4.905,4.905,0,0,0,.25.909ZM27.74-1.333a1.7,1.7,0,0,0,.93-.26,1.4,1.4,0,0,0,.561-.6V-3.24H28.109a1.329,1.329,0,0,0-.96.314,1.033,1.033,0,0,0-.325.772.771.771,0,0,0,.243.6A.96.96,0,0,0,27.74-1.333Zm8.873-4.348L35.882-5.7a1.329,1.329,0,0,0-.731.185,1.17,1.17,0,0,0-.437.52V0H32.724V-7.4h1.853L34.665-6.3a2.333,2.333,0,0,1,.673-.906,1.5,1.5,0,0,1,.954-.325,1.492,1.492,0,0,1,.277.024q.126.024.256.058ZM-51.54,12.363a4.806,4.806,0,0,1,.755-2.823,2.453,2.453,0,0,1,2.129-1.073,2.071,2.071,0,0,1,1,.239,2.4,2.4,0,0,1,.779.684V5.336h2V16h-1.7l-.171-.909a2.473,2.473,0,0,1-.827.783,2.187,2.187,0,0,1-1.094.27,2.5,2.5,0,0,1-2.116-1,4.262,4.262,0,0,1-.755-2.639Zm1.989.144a3.013,3.013,0,0,0,.328,1.528,1.142,1.142,0,0,0,1.066.557,1.553,1.553,0,0,0,.752-.174,1.391,1.391,0,0,0,.526-.509V10.757a1.536,1.536,0,0,0-.523-.543,1.391,1.391,0,0,0-.742-.195,1.127,1.127,0,0,0-1.07.649,3.67,3.67,0,0,0-.338,1.7ZM-38.968,16a4.2,4.2,0,0,1-.188-.533,3.709,3.709,0,0,1-.113-.574,2.736,2.736,0,0,1-.813.9,2.039,2.039,0,0,1-1.2.355,2.5,2.5,0,0,1-1.791-.6,2.143,2.143,0,0,1-.629-1.63,1.95,1.95,0,0,1,.837-1.685,4.182,4.182,0,0,1,2.444-.6H-39.3v-.588a1.151,1.151,0,0,0-.28-.827,1.1,1.1,0,0,0-.834-.294,1.084,1.084,0,0,0-.749.236.823.823,0,0,0-.263.646H-43.35l-.014-.041a1.876,1.876,0,0,1,.817-1.617,3.548,3.548,0,0,1,2.259-.68,3.311,3.311,0,0,1,2.157.67,2.333,2.333,0,0,1,.824,1.921v3.056a5.779,5.779,0,0,0,.079.978,4.905,4.905,0,0,0,.25.909Zm-1.825-1.333a1.7,1.7,0,0,0,.93-.26,1.4,1.4,0,0,0,.561-.6V12.76h-1.121a1.329,1.329,0,0,0-.96.314,1.033,1.033,0,0,0-.325.772.771.771,0,0,0,.243.6A.96.96,0,0,0-40.793,14.667Zm7.376-7.875V8.6h1.251V10h-1.251v3.767a.859.859,0,0,0,.181.615.636.636,0,0,0,.475.185,1.906,1.906,0,0,0,.273-.017,2.3,2.3,0,0,0,.267-.058l.164,1.442a4.041,4.041,0,0,1-.584.154,3.484,3.484,0,0,1-.619.051,2.127,2.127,0,0,1-1.589-.567,2.488,2.488,0,0,1-.557-1.8V10h-1.08V8.6h1.08V6.792Zm2.174,5.441a3.969,3.969,0,0,1,.923-2.71,3.217,3.217,0,0,1,2.557-1.056,3.251,3.251,0,0,1,2.57,1.053,3.948,3.948,0,0,1,.93,2.714v.144a3.954,3.954,0,0,1-.926,2.717,3.237,3.237,0,0,1-2.56,1.049,3.246,3.246,0,0,1-2.567-1.049,3.954,3.954,0,0,1-.926-2.717Zm1.989.144A3.218,3.218,0,0,0-28.9,14a1.227,1.227,0,0,0,1.148.612A1.215,1.215,0,0,0-26.619,14a3.2,3.2,0,0,0,.359-1.62v-.144a3.164,3.164,0,0,0-.362-1.606A1.226,1.226,0,0,0-27.764,10a1.211,1.211,0,0,0-1.131.625,3.192,3.192,0,0,0-.359,1.6Zm10.22,1.572a.689.689,0,0,0-.318-.564,3.229,3.229,0,0,0-1.179-.414,4.7,4.7,0,0,1-1.972-.786,1.717,1.717,0,0,1-.673-1.429,2.038,2.038,0,0,1,.807-1.62,3.252,3.252,0,0,1,2.146-.67,3.51,3.51,0,0,1,2.246.67,1.957,1.957,0,0,1,.81,1.668l-.014.041H-19.11a.968.968,0,0,0-.287-.725,1.136,1.136,0,0,0-.827-.28,1.13,1.13,0,0,0-.759.239.744.744,0,0,0-.28.588.664.664,0,0,0,.291.557,3.234,3.234,0,0,0,1.179.386,4.8,4.8,0,0,1,2.027.8,1.762,1.762,0,0,1,.667,1.459,1.952,1.952,0,0,1-.854,1.634,3.688,3.688,0,0,1-2.256.636,3.429,3.429,0,0,1-2.334-.749,2.093,2.093,0,0,1-.817-1.706l.014-.041h1.825a1.037,1.037,0,0,0,.39.861,1.609,1.609,0,0,0,.964.267,1.371,1.371,0,0,0,.844-.222A.721.721,0,0,0-19.035,13.949Zm13.378-1.442a4.248,4.248,0,0,1-.759,2.639,2.51,2.51,0,0,1-2.119,1,2.369,2.369,0,0,1-1.032-.215,2.12,2.12,0,0,1-.772-.632v3.548h-1.989V8.6h1.8l.116.875a2.37,2.37,0,0,1,.79-.749,2.136,2.136,0,0,1,1.077-.263A2.462,2.462,0,0,1-6.416,9.54a4.79,4.79,0,0,1,.759,2.823Zm-2-.144A3.578,3.578,0,0,0-8,10.668a1.137,1.137,0,0,0-1.066-.649,1.507,1.507,0,0,0-.769.185,1.317,1.317,0,0,0-.5.526v3.24a1.224,1.224,0,0,0,.5.479,1.693,1.693,0,0,0,.783.164,1.148,1.148,0,0,0,1.063-.567,3,3,0,0,0,.338-1.538ZM-.065,16a4.2,4.2,0,0,1-.188-.533,3.709,3.709,0,0,1-.113-.574,2.736,2.736,0,0,1-.813.9,2.039,2.039,0,0,1-1.2.355,2.5,2.5,0,0,1-1.791-.6,2.143,2.143,0,0,1-.629-1.63,1.95,1.95,0,0,1,.837-1.685,4.182,4.182,0,0,1,2.444-.6H-.4v-.588a1.151,1.151,0,0,0-.28-.827,1.1,1.1,0,0,0-.834-.294,1.084,1.084,0,0,0-.749.236.823.823,0,0,0-.263.646H-4.447l-.014-.041a1.876,1.876,0,0,1,.817-1.617,3.548,3.548,0,0,1,2.259-.68,3.311,3.311,0,0,1,2.157.67A2.333,2.333,0,0,1,1.6,11.058v3.056a5.779,5.779,0,0,0,.079.978,4.905,4.905,0,0,0,.25.909ZM-1.89,14.667a1.7,1.7,0,0,0,.93-.26,1.4,1.4,0,0,0,.561-.6V12.76H-1.521a1.329,1.329,0,0,0-.96.314,1.033,1.033,0,0,0-.325.772.771.771,0,0,0,.243.6A.96.96,0,0,0-1.89,14.667Zm8.073-.055A1.111,1.111,0,0,0,7.01,14.3a1.129,1.129,0,0,0,.308-.831H9.136l.014.041a2.315,2.315,0,0,1-.834,1.876,3.119,3.119,0,0,1-2.133.755,3.152,3.152,0,0,1-2.536-1.049,3.988,3.988,0,0,1-.9-2.683v-.205a4.014,4.014,0,0,1,.892-2.683A3.124,3.124,0,0,1,6.169,8.467a3.05,3.05,0,0,1,2.181.779,2.6,2.6,0,0,1,.8,2.051l-.014.041H7.318a1.476,1.476,0,0,0-.3-.954A1.022,1.022,0,0,0,6.169,10a1.139,1.139,0,0,0-1.1.619,3.393,3.393,0,0,0-.325,1.583v.205A3.38,3.38,0,0,0,5.072,14,1.155,1.155,0,0,0,6.183,14.612ZM12.411,16h-2V8.6h2Zm0-9.167h-2v-1.5h2Zm4.847,9.311a3.328,3.328,0,0,1-2.584-1.015,3.721,3.721,0,0,1-.93-2.615V12.24a4.05,4.05,0,0,1,.9-2.721,3.068,3.068,0,0,1,2.481-1.053,2.872,2.872,0,0,1,2.287.913,3.607,3.607,0,0,1,.8,2.458v1.032H15.8l-.021.041a2,2,0,0,0,.461,1.23,1.545,1.545,0,0,0,1.227.472,4.106,4.106,0,0,0,1.138-.137,4.644,4.644,0,0,0,.967-.417l.54,1.23a3.7,3.7,0,0,1-1.2.608A5.336,5.336,0,0,1,17.257,16.144ZM17.127,10a1.109,1.109,0,0,0-.926.414,2.075,2.075,0,0,0-.393,1.1l.014.034h2.434V11.4a1.728,1.728,0,0,0-.267-1.022A.986.986,0,0,0,17.127,10ZM23.2,8.6l.089,1.06a2.705,2.705,0,0,1,.909-.882,2.36,2.36,0,0,1,1.21-.314,2.2,2.2,0,0,1,1.75.721,3.419,3.419,0,0,1,.629,2.28V16h-2V11.475A1.771,1.771,0,0,0,25.5,10.35a1.02,1.02,0,0,0-.831-.332,1.743,1.743,0,0,0-.783.167,1.528,1.528,0,0,0-.557.461V16h-2V8.6Zm8.47-1.812V8.6h1.251V10H31.667v3.767a.859.859,0,0,0,.181.615.636.636,0,0,0,.475.185,1.906,1.906,0,0,0,.273-.017,2.3,2.3,0,0,0,.267-.058l.164,1.442a4.041,4.041,0,0,1-.584.154,3.484,3.484,0,0,1-.619.051,2.127,2.127,0,0,1-1.589-.567,2.488,2.488,0,0,1-.557-1.8V10H28.6V8.6h1.08V6.792Zm5.688,9.352a3.328,3.328,0,0,1-2.584-1.015,3.721,3.721,0,0,1-.93-2.615V12.24a4.05,4.05,0,0,1,.9-2.721,3.068,3.068,0,0,1,2.481-1.053,2.872,2.872,0,0,1,2.287.913,3.607,3.607,0,0,1,.8,2.458v1.032H35.9l-.021.041a2,2,0,0,0,.461,1.23,1.545,1.545,0,0,0,1.227.472,4.106,4.106,0,0,0,1.138-.137,4.644,4.644,0,0,0,.967-.417l.54,1.23a3.7,3.7,0,0,1-1.2.608A5.336,5.336,0,0,1,37.355,16.144ZM37.225,10a1.109,1.109,0,0,0-.926.414,2.075,2.075,0,0,0-.393,1.1l.014.034h2.434V11.4a1.728,1.728,0,0,0-.267-1.022A.986.986,0,0,0,37.225,10Zm8.244,3.944a.689.689,0,0,0-.318-.564,3.229,3.229,0,0,0-1.179-.414A4.7,4.7,0,0,1,42,12.186a1.717,1.717,0,0,1-.673-1.429,2.038,2.038,0,0,1,.807-1.62,3.252,3.252,0,0,1,2.146-.67,3.51,3.51,0,0,1,2.246.67,1.957,1.957,0,0,1,.81,1.668l-.014.041H45.394a.968.968,0,0,0-.287-.725,1.342,1.342,0,0,0-1.586-.041.744.744,0,0,0-.28.588.664.664,0,0,0,.291.557,3.234,3.234,0,0,0,1.179.386,4.8,4.8,0,0,1,2.027.8,1.762,1.762,0,0,1,.667,1.459,1.952,1.952,0,0,1-.854,1.634,3.688,3.688,0,0,1-2.256.636,3.429,3.429,0,0,1-2.334-.749,2.093,2.093,0,0,1-.817-1.706l.014-.041h1.825a1.037,1.037,0,0,0,.39.861,1.609,1.609,0,0,0,.964.267,1.371,1.371,0,0,0,.844-.222A.721.721,0,0,0,45.469,13.949ZM50.9,16h-2V14.25h2Z" transform="translate(1012.417 15984.098)" fill="#00104e"/>
    <path id="Trazado_884226" data-name="Trazado 884226" d="M-32.981-2.3h-3.457L-37.156,0H-39.39l3.6-10.664h2.19L-30.022,0h-2.234Zm-2.93-1.677h2.41L-34.68-7.734h-.044Zm6.423.081a5.15,5.15,0,0,1,.809-3.025A2.628,2.628,0,0,1-26.4-8.071a2.219,2.219,0,0,1,1.069.256,2.573,2.573,0,0,1,.835.732v-4.343h2.146V0H-24.17l-.183-.974a2.649,2.649,0,0,1-.886.839,2.343,2.343,0,0,1-1.172.289A2.68,2.68,0,0,1-28.678-.916a4.566,4.566,0,0,1-.809-2.827Zm2.131.154A3.228,3.228,0,0,0-27-2.106a1.224,1.224,0,0,0,1.143.6,1.664,1.664,0,0,0,.806-.187,1.49,1.49,0,0,0,.564-.546V-5.618a1.646,1.646,0,0,0-.56-.582,1.49,1.49,0,0,0-.795-.209,1.207,1.207,0,0,0-1.146.7A3.932,3.932,0,0,0-27.356-3.9Zm8.65-4.182.088,1.047a2.662,2.662,0,0,1,.956-.883,2.749,2.749,0,0,1,1.329-.311,2.421,2.421,0,0,1,1.3.337,2.078,2.078,0,0,1,.82,1.018,2.747,2.747,0,0,1,.952-1,2.584,2.584,0,0,1,1.377-.359,2.258,2.258,0,0,1,1.849.831A3.969,3.969,0,0,1-9.353-4.7V0h-2.139V-4.709a2.221,2.221,0,0,0-.293-1.326,1.04,1.04,0,0,0-.872-.374,1.493,1.493,0,0,0-.787.2,1.467,1.467,0,0,0-.531.56q0,.139.007.238t.007.2V0h-2.131V-4.709a2.228,2.228,0,0,0-.293-1.315,1.035,1.035,0,0,0-.879-.385,1.659,1.659,0,0,0-.758.165,1.454,1.454,0,0,0-.538.465V0h-2.131V-7.925ZM-5.464,0H-7.6V-7.925h2.139Zm0-9.822H-7.6v-1.6h2.139Zm3.713,1.9.1,1.135a2.9,2.9,0,0,1,.974-.945,2.529,2.529,0,0,1,1.3-.337A2.356,2.356,0,0,1,2.49-7.3a3.663,3.663,0,0,1,.674,2.443V0H1.018V-4.849a1.9,1.9,0,0,0-.3-1.2,1.093,1.093,0,0,0-.89-.355,1.867,1.867,0,0,0-.839.179,1.637,1.637,0,0,0-.6.494V0H-3.743V-7.925ZM7.009,0H4.871V-7.925H7.009Zm0-9.822H4.871v-1.6H7.009ZM13.052-2.2a.738.738,0,0,0-.341-.6,3.459,3.459,0,0,0-1.263-.443,5.039,5.039,0,0,1-2.113-.842,1.84,1.84,0,0,1-.721-1.531,2.183,2.183,0,0,1,.864-1.736,3.485,3.485,0,0,1,2.3-.718,3.761,3.761,0,0,1,2.406.718,2.1,2.1,0,0,1,.868,1.787l-.015.044H12.971a1.037,1.037,0,0,0-.308-.776,1.217,1.217,0,0,0-.886-.3,1.211,1.211,0,0,0-.813.256.8.8,0,0,0-.3.63.711.711,0,0,0,.311.6,3.465,3.465,0,0,0,1.263.414,5.141,5.141,0,0,1,2.172.861,1.888,1.888,0,0,1,.714,1.564,2.092,2.092,0,0,1-.916,1.75,3.952,3.952,0,0,1-2.417.681,3.673,3.673,0,0,1-2.5-.8,2.242,2.242,0,0,1-.875-1.827L8.43-2.52h1.956A1.111,1.111,0,0,0,10.8-1.6a1.724,1.724,0,0,0,1.033.286,1.469,1.469,0,0,0,.9-.238A.772.772,0,0,0,13.052-2.2Zm6.013-7.668v1.941h1.34v1.5h-1.34v4.036a.921.921,0,0,0,.194.659.681.681,0,0,0,.509.2,2.042,2.042,0,0,0,.293-.018,2.467,2.467,0,0,0,.286-.062l.176,1.545A4.33,4.33,0,0,1,19.9.1a3.733,3.733,0,0,1-.663.055,2.279,2.279,0,0,1-1.7-.608,2.666,2.666,0,0,1-.6-1.926V-6.423H15.776v-1.5h1.157V-9.866Zm6.826,3.779-.784-.022a1.424,1.424,0,0,0-.784.2,1.253,1.253,0,0,0-.469.557V0H21.724V-7.925h1.985l.1,1.172a2.5,2.5,0,0,1,.721-.97,1.608,1.608,0,0,1,1.022-.348,1.6,1.6,0,0,1,.3.026q.135.026.275.062ZM31.677,0a4.5,4.5,0,0,1-.2-.571,3.974,3.974,0,0,1-.121-.615,2.931,2.931,0,0,1-.872.959,2.185,2.185,0,0,1-1.289.381,2.676,2.676,0,0,1-1.919-.641A2.3,2.3,0,0,1,26.6-2.234a2.09,2.09,0,0,1,.9-1.805,4.481,4.481,0,0,1,2.618-.641h1.2v-.63a1.233,1.233,0,0,0-.3-.886,1.179,1.179,0,0,0-.894-.315,1.162,1.162,0,0,0-.8.253.882.882,0,0,0-.282.692H26.982l-.015-.044a2.01,2.01,0,0,1,.875-1.732,3.8,3.8,0,0,1,2.421-.729,3.548,3.548,0,0,1,2.311.718A2.5,2.5,0,0,1,33.457-5.3v3.274a6.192,6.192,0,0,0,.084,1.047A5.256,5.256,0,0,0,33.809,0ZM29.722-1.428a1.822,1.822,0,0,0,1-.278,1.5,1.5,0,0,0,.6-.645V-3.472h-1.2a1.424,1.424,0,0,0-1.029.337,1.107,1.107,0,0,0-.348.828.826.826,0,0,0,.26.641A1.029,1.029,0,0,0,29.722-1.428Zm9.507-4.658-.784-.022a1.424,1.424,0,0,0-.784.2,1.253,1.253,0,0,0-.469.557V0H35.061V-7.925h1.985l.1,1.172a2.5,2.5,0,0,1,.721-.97,1.608,1.608,0,0,1,1.022-.348,1.6,1.6,0,0,1,.3.026q.135.026.275.062ZM-61.945,13.1a5.15,5.15,0,0,1,.809-3.025,2.628,2.628,0,0,1,2.281-1.15,2.219,2.219,0,0,1,1.069.256,2.573,2.573,0,0,1,.835.732V5.574H-54.8V17h-1.824l-.183-.974a2.649,2.649,0,0,1-.886.839,2.343,2.343,0,0,1-1.172.289,2.68,2.68,0,0,1-2.267-1.069,4.566,4.566,0,0,1-.809-2.827Zm2.131.154a3.228,3.228,0,0,0,.352,1.637,1.224,1.224,0,0,0,1.143.6,1.664,1.664,0,0,0,.806-.187,1.49,1.49,0,0,0,.564-.546V11.382a1.646,1.646,0,0,0-.56-.582,1.49,1.49,0,0,0-.795-.209,1.207,1.207,0,0,0-1.146.7,3.932,3.932,0,0,0-.363,1.816ZM-48.475,17a4.5,4.5,0,0,1-.2-.571,3.974,3.974,0,0,1-.121-.615,2.931,2.931,0,0,1-.872.959,2.185,2.185,0,0,1-1.289.381,2.676,2.676,0,0,1-1.919-.641,2.3,2.3,0,0,1-.674-1.747,2.09,2.09,0,0,1,.9-1.805,4.481,4.481,0,0,1,2.618-.641h1.2v-.63a1.233,1.233,0,0,0-.3-.886,1.179,1.179,0,0,0-.894-.315,1.162,1.162,0,0,0-.8.253.882.882,0,0,0-.282.692H-53.17l-.015-.044a2.01,2.01,0,0,1,.875-1.732,3.8,3.8,0,0,1,2.421-.729,3.548,3.548,0,0,1,2.311.718A2.5,2.5,0,0,1-46.7,11.7v3.274a6.192,6.192,0,0,0,.084,1.047,5.256,5.256,0,0,0,.267.974Zm-1.956-1.428a1.822,1.822,0,0,0,1-.278,1.5,1.5,0,0,0,.6-.645V13.528h-1.2a1.424,1.424,0,0,0-1.029.337,1.107,1.107,0,0,0-.348.828.826.826,0,0,0,.26.641A1.029,1.029,0,0,0-50.431,15.572Zm7.9-8.437V9.075h1.34v1.5h-1.34v4.036a.921.921,0,0,0,.194.659.681.681,0,0,0,.509.2,2.042,2.042,0,0,0,.293-.018,2.467,2.467,0,0,0,.286-.062l.176,1.545a4.33,4.33,0,0,1-.626.165,3.733,3.733,0,0,1-.663.055,2.279,2.279,0,0,1-1.7-.608,2.666,2.666,0,0,1-.6-1.926V10.577h-1.157v-1.5h1.157V7.134Zm2.329,5.83a4.253,4.253,0,0,1,.989-2.9,3.447,3.447,0,0,1,2.739-1.132,3.483,3.483,0,0,1,2.754,1.128,4.23,4.23,0,0,1,1,2.908v.154a4.237,4.237,0,0,1-.992,2.911,3.469,3.469,0,0,1-2.743,1.124,3.477,3.477,0,0,1-2.75-1.124,4.237,4.237,0,0,1-.992-2.911Zm2.131.154a3.448,3.448,0,0,0,.381,1.74,1.315,1.315,0,0,0,1.23.656,1.3,1.3,0,0,0,1.212-.659,3.425,3.425,0,0,0,.385-1.736v-.154a3.39,3.39,0,0,0-.388-1.721,1.313,1.313,0,0,0-1.223-.667,1.3,1.3,0,0,0-1.212.67,3.42,3.42,0,0,0-.385,1.718Zm10.95,1.685a.738.738,0,0,0-.341-.6,3.459,3.459,0,0,0-1.263-.443,5.039,5.039,0,0,1-2.113-.842,1.84,1.84,0,0,1-.721-1.531,2.183,2.183,0,0,1,.864-1.736,3.485,3.485,0,0,1,2.3-.718,3.761,3.761,0,0,1,2.406.718,2.1,2.1,0,0,1,.868,1.787l-.015.044H-27.2a1.037,1.037,0,0,0-.308-.776,1.217,1.217,0,0,0-.886-.3,1.211,1.211,0,0,0-.813.256.8.8,0,0,0-.3.63.711.711,0,0,0,.311.6,3.465,3.465,0,0,0,1.263.414,5.141,5.141,0,0,1,2.172.861,1.888,1.888,0,0,1,.714,1.564,2.092,2.092,0,0,1-.916,1.75,3.952,3.952,0,0,1-2.417.681,3.673,3.673,0,0,1-2.5-.8,2.242,2.242,0,0,1-.875-1.827l.015-.044h1.956a1.111,1.111,0,0,0,.417.923,1.724,1.724,0,0,0,1.033.286,1.469,1.469,0,0,0,.9-.238A.772.772,0,0,0-27.118,14.8Zm9.749-7.668V9.075h1.34v1.5h-1.34v4.036a.921.921,0,0,0,.194.659.681.681,0,0,0,.509.2,2.042,2.042,0,0,0,.293-.018,2.467,2.467,0,0,0,.286-.062l.176,1.545a4.33,4.33,0,0,1-.626.165,3.733,3.733,0,0,1-.663.055,2.279,2.279,0,0,1-1.7-.608,2.666,2.666,0,0,1-.6-1.926V10.577h-1.157v-1.5H-19.5V7.134Zm6.826,3.779-.784-.022a1.424,1.424,0,0,0-.784.2,1.253,1.253,0,0,0-.469.557V17h-2.131V9.075h1.985l.1,1.172a2.5,2.5,0,0,1,.721-.97,1.608,1.608,0,0,1,1.022-.348,1.6,1.6,0,0,1,.3.026q.135.026.275.062ZM-4.757,17a4.5,4.5,0,0,1-.2-.571,3.974,3.974,0,0,1-.121-.615,2.931,2.931,0,0,1-.872.959,2.185,2.185,0,0,1-1.289.381,2.676,2.676,0,0,1-1.919-.641,2.3,2.3,0,0,1-.674-1.747,2.09,2.09,0,0,1,.9-1.805,4.481,4.481,0,0,1,2.618-.641h1.2v-.63a1.233,1.233,0,0,0-.3-.886,1.179,1.179,0,0,0-.894-.315,1.162,1.162,0,0,0-.8.253.882.882,0,0,0-.282.692H-9.452l-.015-.044a2.01,2.01,0,0,1,.875-1.732,3.8,3.8,0,0,1,2.421-.729,3.548,3.548,0,0,1,2.311.718A2.5,2.5,0,0,1-2.977,11.7v3.274a6.192,6.192,0,0,0,.084,1.047A5.256,5.256,0,0,0-2.626,17Zm-1.956-1.428a1.822,1.822,0,0,0,1-.278,1.5,1.5,0,0,0,.6-.645V13.528h-1.2a1.424,1.424,0,0,0-1.029.337,1.107,1.107,0,0,0-.348.828.826.826,0,0,0,.26.641A1.029,1.029,0,0,0-6.713,15.572Zm7.9-8.437V9.075h1.34v1.5H1.19v4.036a.921.921,0,0,0,.194.659.681.681,0,0,0,.509.2,2.042,2.042,0,0,0,.293-.018,2.467,2.467,0,0,0,.286-.062l.176,1.545a4.33,4.33,0,0,1-.626.165,3.733,3.733,0,0,1-.663.055,2.279,2.279,0,0,1-1.7-.608,2.666,2.666,0,0,1-.6-1.926V10.577H-2.1v-1.5H-.941V7.134ZM8.522,17a4.5,4.5,0,0,1-.2-.571,3.974,3.974,0,0,1-.121-.615,2.931,2.931,0,0,1-.872.959,2.185,2.185,0,0,1-1.289.381,2.676,2.676,0,0,1-1.919-.641,2.3,2.3,0,0,1-.674-1.747,2.09,2.09,0,0,1,.9-1.805,4.481,4.481,0,0,1,2.618-.641h1.2v-.63a1.233,1.233,0,0,0-.3-.886,1.179,1.179,0,0,0-.894-.315,1.162,1.162,0,0,0-.8.253.882.882,0,0,0-.282.692H3.827l-.015-.044a2.01,2.01,0,0,1,.875-1.732,3.8,3.8,0,0,1,2.421-.729,3.548,3.548,0,0,1,2.311.718A2.5,2.5,0,0,1,10.3,11.7v3.274a6.192,6.192,0,0,0,.084,1.047,5.256,5.256,0,0,0,.267.974ZM6.566,15.572a1.822,1.822,0,0,0,1-.278,1.5,1.5,0,0,0,.6-.645V13.528h-1.2a1.424,1.424,0,0,0-1.029.337,1.107,1.107,0,0,0-.348.828.826.826,0,0,0,.26.641A1.029,1.029,0,0,0,6.566,15.572Zm7.324-6.5.088,1.047a2.662,2.662,0,0,1,.956-.883,2.749,2.749,0,0,1,1.329-.311,2.421,2.421,0,0,1,1.3.337,2.078,2.078,0,0,1,.82,1.018,2.747,2.747,0,0,1,.952-1,2.584,2.584,0,0,1,1.377-.359,2.258,2.258,0,0,1,1.849.831,3.969,3.969,0,0,1,.677,2.538V17H21.1V12.291a2.221,2.221,0,0,0-.293-1.326,1.04,1.04,0,0,0-.872-.374,1.493,1.493,0,0,0-.787.2,1.467,1.467,0,0,0-.531.56q0,.139.007.238t.007.2V17H16.505V12.291a2.228,2.228,0,0,0-.293-1.315,1.035,1.035,0,0,0-.879-.385,1.659,1.659,0,0,0-.758.165,1.454,1.454,0,0,0-.538.465V17H11.906V9.075ZM27.133,17H24.994V9.075h2.139Zm0-9.822H24.994v-1.6h2.139Zm5.193,9.976a3.566,3.566,0,0,1-2.769-1.088,3.986,3.986,0,0,1-1-2.8v-.293a4.339,4.339,0,0,1,.967-2.915,3.287,3.287,0,0,1,2.659-1.128,3.077,3.077,0,0,1,2.45.978,3.864,3.864,0,0,1,.853,2.633v1.106H30.765l-.022.044a2.141,2.141,0,0,0,.494,1.318,1.655,1.655,0,0,0,1.315.505,4.4,4.4,0,0,0,1.219-.146,4.976,4.976,0,0,0,1.036-.447l.579,1.318a3.97,3.97,0,0,1-1.289.652A5.717,5.717,0,0,1,32.325,17.154Zm-.139-6.577a1.188,1.188,0,0,0-.992.443,2.223,2.223,0,0,0-.421,1.176l.015.037h2.607v-.161a1.851,1.851,0,0,0-.286-1.095A1.057,1.057,0,0,0,32.186,10.577Zm6.5-1.5.1,1.135a2.9,2.9,0,0,1,.974-.945,2.529,2.529,0,0,1,1.3-.337,2.356,2.356,0,0,1,1.875.773,3.663,3.663,0,0,1,.674,2.443V17H41.459V12.151a1.9,1.9,0,0,0-.3-1.2,1.093,1.093,0,0,0-.89-.355,1.867,1.867,0,0,0-.839.179,1.637,1.637,0,0,0-.6.494V17H36.7V9.075Zm9.075-1.941V9.075h1.34v1.5h-1.34v4.036a.921.921,0,0,0,.194.659.681.681,0,0,0,.509.2,2.042,2.042,0,0,0,.293-.018,2.467,2.467,0,0,0,.286-.062l.176,1.545a4.33,4.33,0,0,1-.626.165,3.733,3.733,0,0,1-.663.055,2.279,2.279,0,0,1-1.7-.608,2.666,2.666,0,0,1-.6-1.926V10.577H44.476v-1.5h1.157V7.134Zm2.329,5.83a4.253,4.253,0,0,1,.989-2.9,3.447,3.447,0,0,1,2.739-1.132,3.483,3.483,0,0,1,2.754,1.128,4.23,4.23,0,0,1,1,2.908v.154a4.237,4.237,0,0,1-.992,2.911,3.917,3.917,0,0,1-5.493,0,4.237,4.237,0,0,1-.992-2.911Zm2.131.154a3.448,3.448,0,0,0,.381,1.74,1.463,1.463,0,0,0,2.443,0,3.425,3.425,0,0,0,.385-1.736v-.154a3.39,3.39,0,0,0-.388-1.721,1.313,1.313,0,0,0-1.223-.667,1.3,1.3,0,0,0-1.212.67,3.42,3.42,0,0,0-.385,1.718ZM61.263,17H59.125V15.125h2.139Z" transform="translate(1015.777 16070.471)" fill="#00104e"/>
    <path id="Trazado_884227" data-name="Trazado 884227" d="M-43.806-1.458A4.052,4.052,0,0,1-45.293-.326a5.853,5.853,0,0,1-2.549.48,4.311,4.311,0,0,1-3.164-1.216,4.243,4.243,0,0,1-1.23-3.157V-6.445A4.317,4.317,0,0,1-51.042-9.6a4.108,4.108,0,0,1,3.069-1.219,4.362,4.362,0,0,1,3,.927,3.044,3.044,0,0,1,1,2.472l-.015.044H-46A1.749,1.749,0,0,0-46.494-8.7a1.98,1.98,0,0,0-1.428-.472,1.92,1.92,0,0,0-1.582.758,3.048,3.048,0,0,0-.6,1.952v2.241a3.037,3.037,0,0,0,.615,1.97,2.01,2.01,0,0,0,1.648.762,3.791,3.791,0,0,0,1.2-.154,1.837,1.837,0,0,0,.685-.388V-4.094H-48V-5.574h4.2Zm5.09,1.611A3.566,3.566,0,0,1-41.484-.934a3.986,3.986,0,0,1-1-2.8v-.293a4.339,4.339,0,0,1,.967-2.915,3.287,3.287,0,0,1,2.659-1.128,3.077,3.077,0,0,1,2.45.978,3.864,3.864,0,0,1,.853,2.633v1.106h-4.724l-.022.044A2.141,2.141,0,0,0-39.8-1.992a1.655,1.655,0,0,0,1.315.505,4.4,4.4,0,0,0,1.219-.146,4.976,4.976,0,0,0,1.036-.447l.579,1.318a3.97,3.97,0,0,1-1.289.652A5.717,5.717,0,0,1-38.716.154Zm-.139-6.577a1.188,1.188,0,0,0-.992.443A2.223,2.223,0,0,0-40.269-4.8l.015.037h2.607v-.161a1.851,1.851,0,0,0-.286-1.095A1.057,1.057,0,0,0-38.855-6.423ZM-30.022-2.2a.738.738,0,0,0-.341-.6,3.459,3.459,0,0,0-1.263-.443,5.039,5.039,0,0,1-2.113-.842,1.84,1.84,0,0,1-.721-1.531A2.183,2.183,0,0,1-33.6-7.354a3.485,3.485,0,0,1,2.3-.718,3.761,3.761,0,0,1,2.406.718,2.1,2.1,0,0,1,.868,1.787l-.015.044H-30.1A1.037,1.037,0,0,0-30.41-6.3a1.217,1.217,0,0,0-.886-.3,1.211,1.211,0,0,0-.813.256.8.8,0,0,0-.3.63.711.711,0,0,0,.311.6,3.465,3.465,0,0,0,1.263.414,5.141,5.141,0,0,1,2.172.861,1.888,1.888,0,0,1,.714,1.564,2.092,2.092,0,0,1-.916,1.75,3.952,3.952,0,0,1-2.417.681,3.673,3.673,0,0,1-2.5-.8,2.242,2.242,0,0,1-.875-1.827l.015-.044h1.956a1.111,1.111,0,0,0,.417.923,1.724,1.724,0,0,0,1.033.286,1.469,1.469,0,0,0,.9-.238A.772.772,0,0,0-30.022-2.2Zm6.013-7.668v1.941h1.34v1.5h-1.34v4.036a.921.921,0,0,0,.194.659.681.681,0,0,0,.509.2,2.042,2.042,0,0,0,.293-.018,2.467,2.467,0,0,0,.286-.062l.176,1.545A4.33,4.33,0,0,1-23.177.1a3.733,3.733,0,0,1-.663.055,2.279,2.279,0,0,1-1.7-.608,2.666,2.666,0,0,1-.6-1.926V-6.423H-27.3v-1.5h1.157V-9.866ZM-19.1,0H-21.24V-7.925H-19.1Zm0-9.822H-21.24v-1.6H-19.1Zm1.428,5.786a4.253,4.253,0,0,1,.989-2.9,3.447,3.447,0,0,1,2.739-1.132,3.483,3.483,0,0,1,2.754,1.128,4.23,4.23,0,0,1,1,2.908v.154A4.237,4.237,0,0,1-11.188-.97,3.469,3.469,0,0,1-13.931.154,3.477,3.477,0,0,1-16.681-.97a4.237,4.237,0,0,1-.992-2.911Zm2.131.154a3.448,3.448,0,0,0,.381,1.74,1.315,1.315,0,0,0,1.23.656,1.3,1.3,0,0,0,1.212-.659,3.425,3.425,0,0,0,.385-1.736v-.154a3.39,3.39,0,0,0-.388-1.721,1.313,1.313,0,0,0-1.223-.667,1.3,1.3,0,0,0-1.212.67,3.42,3.42,0,0,0-.385,1.718Zm8.621-4.043.1,1.135a2.9,2.9,0,0,1,.974-.945,2.529,2.529,0,0,1,1.3-.337A2.356,2.356,0,0,1-2.681-7.3a3.663,3.663,0,0,1,.674,2.443V0H-4.153V-4.849a1.9,1.9,0,0,0-.3-1.2,1.093,1.093,0,0,0-.89-.355,1.867,1.867,0,0,0-.839.179,1.637,1.637,0,0,0-.6.494V0H-8.914V-7.925ZM4.263,0a4.5,4.5,0,0,1-.2-.571,3.974,3.974,0,0,1-.121-.615,2.931,2.931,0,0,1-.872.959A2.185,2.185,0,0,1,1.78.154,2.676,2.676,0,0,1-.139-.487,2.3,2.3,0,0,1-.813-2.234a2.09,2.09,0,0,1,.9-1.805A4.481,4.481,0,0,1,2.7-4.68H3.9v-.63A1.233,1.233,0,0,0,3.6-6.2a1.179,1.179,0,0,0-.894-.315,1.162,1.162,0,0,0-.8.253.882.882,0,0,0-.282.692H-.432L-.447-5.61A2.01,2.01,0,0,1,.428-7.343a3.8,3.8,0,0,1,2.421-.729,3.548,3.548,0,0,1,2.311.718A2.5,2.5,0,0,1,6.042-5.3v3.274A6.192,6.192,0,0,0,6.127-.974,5.256,5.256,0,0,0,6.394,0ZM2.307-1.428a1.822,1.822,0,0,0,1-.278,1.5,1.5,0,0,0,.6-.645V-3.472H2.7a1.424,1.424,0,0,0-1.029.337,1.107,1.107,0,0,0-.348.828.826.826,0,0,0,.26.641A1.029,1.029,0,0,0,2.307-1.428Zm9.507-4.658-.784-.022a1.424,1.424,0,0,0-.784.2,1.253,1.253,0,0,0-.469.557V0H7.646V-7.925H9.631l.1,1.172a2.5,2.5,0,0,1,.721-.97,1.608,1.608,0,0,1,1.022-.348,1.6,1.6,0,0,1,.3.026q.135.026.275.062Zm8.159,4.6a1.19,1.19,0,0,0,.886-.333,1.21,1.21,0,0,0,.33-.89h1.948l.015.044a2.48,2.48,0,0,1-.894,2.01,3.342,3.342,0,0,1-2.285.809A3.377,3.377,0,0,1,17.256-.97,4.273,4.273,0,0,1,16.3-3.845v-.22a4.3,4.3,0,0,1,.956-2.875,3.347,3.347,0,0,1,2.706-1.132,3.268,3.268,0,0,1,2.336.835,2.79,2.79,0,0,1,.857,2.2L23.137-5H21.189a1.581,1.581,0,0,0-.326-1.022,1.1,1.1,0,0,0-.9-.406,1.221,1.221,0,0,0-1.176.663,3.635,3.635,0,0,0-.348,1.7v.22a3.622,3.622,0,0,0,.348,1.707A1.237,1.237,0,0,0,19.973-1.487ZM26.646,0H24.507V-7.925h2.139Zm0-9.822H24.507v-1.6h2.139Zm4.321-.044v1.941h1.34v1.5h-1.34v4.036a.921.921,0,0,0,.194.659.681.681,0,0,0,.509.2,2.042,2.042,0,0,0,.293-.018,2.467,2.467,0,0,0,.286-.062l.176,1.545A4.33,4.33,0,0,1,31.8.1a3.733,3.733,0,0,1-.663.055,2.279,2.279,0,0,1-1.7-.608,2.666,2.666,0,0,1-.6-1.926V-6.423H27.678v-1.5h1.157V-9.866ZM38.3,0a4.5,4.5,0,0,1-.2-.571,3.974,3.974,0,0,1-.121-.615,2.931,2.931,0,0,1-.872.959,2.185,2.185,0,0,1-1.289.381A2.676,2.676,0,0,1,33.9-.487a2.3,2.3,0,0,1-.674-1.747,2.09,2.09,0,0,1,.9-1.805,4.481,4.481,0,0,1,2.618-.641h1.2v-.63a1.233,1.233,0,0,0-.3-.886,1.179,1.179,0,0,0-.894-.315,1.162,1.162,0,0,0-.8.253.882.882,0,0,0-.282.692H33.6l-.015-.044a2.01,2.01,0,0,1,.875-1.732,3.8,3.8,0,0,1,2.421-.729,3.548,3.548,0,0,1,2.311.718A2.5,2.5,0,0,1,40.078-5.3v3.274a6.192,6.192,0,0,0,.084,1.047A5.256,5.256,0,0,0,40.43,0ZM36.343-1.428a1.822,1.822,0,0,0,1-.278,1.5,1.5,0,0,0,.6-.645V-3.472h-1.2a1.424,1.424,0,0,0-1.029.337,1.107,1.107,0,0,0-.348.828.826.826,0,0,0,.26.641A1.029,1.029,0,0,0,36.343-1.428ZM45.967-2.2a.738.738,0,0,0-.341-.6,3.459,3.459,0,0,0-1.263-.443,5.039,5.039,0,0,1-2.113-.842,1.84,1.84,0,0,1-.721-1.531,2.183,2.183,0,0,1,.864-1.736,3.485,3.485,0,0,1,2.3-.718,3.761,3.761,0,0,1,2.406.718,2.1,2.1,0,0,1,.868,1.787l-.015.044H45.886a1.037,1.037,0,0,0-.308-.776,1.217,1.217,0,0,0-.886-.3,1.211,1.211,0,0,0-.813.256.8.8,0,0,0-.3.63.711.711,0,0,0,.311.6,3.465,3.465,0,0,0,1.263.414,5.141,5.141,0,0,1,2.172.861,1.888,1.888,0,0,1,.714,1.564,2.092,2.092,0,0,1-.916,1.75,3.952,3.952,0,0,1-2.417.681,3.673,3.673,0,0,1-2.5-.8,2.242,2.242,0,0,1-.875-1.827l.015-.044H43.3a1.111,1.111,0,0,0,.417.923,1.724,1.724,0,0,0,1.033.286,1.469,1.469,0,0,0,.9-.238A.772.772,0,0,0,45.967-2.2ZM51.79,0H49.651V-1.875H51.79Z" transform="translate(1015.314 16160.586)" fill="#00104e"/>
    <path id="Trazado_884228" data-name="Trazado 884228" d="M-55.492-1.458A4.052,4.052,0,0,1-56.979-.326a5.853,5.853,0,0,1-2.549.48,4.311,4.311,0,0,1-3.164-1.216,4.243,4.243,0,0,1-1.23-3.157V-6.445A4.317,4.317,0,0,1-62.728-9.6a4.108,4.108,0,0,1,3.069-1.219,4.362,4.362,0,0,1,3,.927,3.044,3.044,0,0,1,1,2.472l-.015.044h-2.014A1.749,1.749,0,0,0-58.18-8.7a1.98,1.98,0,0,0-1.428-.472,1.92,1.92,0,0,0-1.582.758,3.048,3.048,0,0,0-.6,1.952v2.241a3.037,3.037,0,0,0,.615,1.97,2.01,2.01,0,0,0,1.648.762,3.791,3.791,0,0,0,1.2-.154,1.837,1.837,0,0,0,.685-.388V-4.094h-2.051V-5.574h4.2ZM-50.4.154A3.566,3.566,0,0,1-53.17-.934a3.986,3.986,0,0,1-1-2.8v-.293A4.339,4.339,0,0,1-53.2-6.943a3.287,3.287,0,0,1,2.659-1.128,3.077,3.077,0,0,1,2.45.978,3.864,3.864,0,0,1,.853,2.633v1.106h-4.724l-.022.044a2.141,2.141,0,0,0,.494,1.318,1.655,1.655,0,0,0,1.315.505,4.4,4.4,0,0,0,1.219-.146,4.976,4.976,0,0,0,1.036-.447l.579,1.318a3.97,3.97,0,0,1-1.289.652A5.717,5.717,0,0,1-50.4.154Zm-.139-6.577a1.188,1.188,0,0,0-.992.443A2.223,2.223,0,0,0-51.954-4.8l.015.037h2.607v-.161a1.851,1.851,0,0,0-.286-1.095A1.057,1.057,0,0,0-50.541-6.423ZM-41.708-2.2a.738.738,0,0,0-.341-.6,3.459,3.459,0,0,0-1.263-.443,5.039,5.039,0,0,1-2.113-.842,1.84,1.84,0,0,1-.721-1.531,2.183,2.183,0,0,1,.864-1.736,3.485,3.485,0,0,1,2.3-.718,3.761,3.761,0,0,1,2.406.718,2.1,2.1,0,0,1,.868,1.787l-.015.044h-2.065A1.037,1.037,0,0,0-42.1-6.3a1.217,1.217,0,0,0-.886-.3,1.211,1.211,0,0,0-.813.256.8.8,0,0,0-.3.63.711.711,0,0,0,.311.6,3.465,3.465,0,0,0,1.263.414,5.141,5.141,0,0,1,2.172.861,1.888,1.888,0,0,1,.714,1.564,2.092,2.092,0,0,1-.916,1.75,3.952,3.952,0,0,1-2.417.681,3.673,3.673,0,0,1-2.5-.8,2.242,2.242,0,0,1-.875-1.827l.015-.044h1.956a1.111,1.111,0,0,0,.417.923,1.724,1.724,0,0,0,1.033.286,1.469,1.469,0,0,0,.9-.238A.772.772,0,0,0-41.708-2.2Zm6.013-7.668v1.941h1.34v1.5h-1.34v4.036a.921.921,0,0,0,.194.659.681.681,0,0,0,.509.2,2.042,2.042,0,0,0,.293-.018,2.467,2.467,0,0,0,.286-.062l.176,1.545A4.33,4.33,0,0,1-34.863.1a3.733,3.733,0,0,1-.663.055,2.279,2.279,0,0,1-1.7-.608,2.666,2.666,0,0,1-.6-1.926V-6.423h-1.157v-1.5h1.157V-9.866ZM-30.787,0h-2.139V-7.925h2.139Zm0-9.822h-2.139v-1.6h2.139Zm1.428,5.786a4.253,4.253,0,0,1,.989-2.9,3.447,3.447,0,0,1,2.739-1.132,3.483,3.483,0,0,1,2.754,1.128,4.23,4.23,0,0,1,1,2.908v.154A4.237,4.237,0,0,1-22.874-.97,3.469,3.469,0,0,1-25.616.154,3.477,3.477,0,0,1-28.367-.97a4.237,4.237,0,0,1-.992-2.911Zm2.131.154a3.448,3.448,0,0,0,.381,1.74,1.315,1.315,0,0,0,1.23.656A1.3,1.3,0,0,0-24.4-2.146a3.425,3.425,0,0,0,.385-1.736v-.154a3.39,3.39,0,0,0-.388-1.721,1.313,1.313,0,0,0-1.223-.667,1.3,1.3,0,0,0-1.212.67,3.42,3.42,0,0,0-.385,1.718Zm8.621-4.043.1,1.135a2.9,2.9,0,0,1,.974-.945,2.529,2.529,0,0,1,1.3-.337,2.356,2.356,0,0,1,1.875.773,3.663,3.663,0,0,1,.674,2.443V0h-2.146V-4.849a1.9,1.9,0,0,0-.3-1.2,1.093,1.093,0,0,0-.89-.355,1.867,1.867,0,0,0-.839.179,1.637,1.637,0,0,0-.6.494V0H-20.6V-7.925ZM-7.423,0a4.5,4.5,0,0,1-.2-.571,3.974,3.974,0,0,1-.121-.615,2.931,2.931,0,0,1-.872.959A2.185,2.185,0,0,1-9.906.154a2.676,2.676,0,0,1-1.919-.641A2.3,2.3,0,0,1-12.5-2.234a2.09,2.09,0,0,1,.9-1.805A4.481,4.481,0,0,1-8.983-4.68h1.2v-.63a1.233,1.233,0,0,0-.3-.886,1.179,1.179,0,0,0-.894-.315,1.162,1.162,0,0,0-.8.253.882.882,0,0,0-.282.692h-2.058l-.015-.044a2.01,2.01,0,0,1,.875-1.732,3.8,3.8,0,0,1,2.421-.729,3.548,3.548,0,0,1,2.311.718A2.5,2.5,0,0,1-5.643-5.3v3.274A6.192,6.192,0,0,0-5.559-.974,5.256,5.256,0,0,0-5.292,0ZM-9.379-1.428a1.822,1.822,0,0,0,1-.278,1.5,1.5,0,0,0,.6-.645V-3.472h-1.2a1.424,1.424,0,0,0-1.029.337,1.107,1.107,0,0,0-.348.828.826.826,0,0,0,.26.641A1.029,1.029,0,0,0-9.379-1.428ZM.128-6.086l-.784-.022a1.424,1.424,0,0,0-.784.2,1.253,1.253,0,0,0-.469.557V0H-4.039V-7.925h1.985l.1,1.172a2.5,2.5,0,0,1,.721-.97A1.608,1.608,0,0,1-.216-8.071a1.6,1.6,0,0,1,.3.026q.135.026.275.062Zm9.016,0-.784-.022a1.424,1.424,0,0,0-.784.2,1.253,1.253,0,0,0-.469.557V0H4.977V-7.925H6.962l.1,1.172a2.5,2.5,0,0,1,.721-.97A1.608,1.608,0,0,1,8.8-8.071a1.6,1.6,0,0,1,.3.026q.135.026.275.062ZM13.553.154A3.566,3.566,0,0,1,10.785-.934a3.986,3.986,0,0,1-1-2.8v-.293a4.339,4.339,0,0,1,.967-2.915,3.287,3.287,0,0,1,2.659-1.128,3.077,3.077,0,0,1,2.45.978,3.864,3.864,0,0,1,.853,2.633v1.106H11.993l-.022.044a2.141,2.141,0,0,0,.494,1.318,1.655,1.655,0,0,0,1.315.505A4.4,4.4,0,0,0,15-1.633a4.976,4.976,0,0,0,1.036-.447l.579,1.318a3.97,3.97,0,0,1-1.289.652A5.717,5.717,0,0,1,13.553.154Zm-.139-6.577a1.188,1.188,0,0,0-.992.443A2.223,2.223,0,0,0,12-4.8l.015.037h2.607v-.161a1.851,1.851,0,0,0-.286-1.095A1.057,1.057,0,0,0,13.414-6.423Zm11.7,2.681A4.552,4.552,0,0,1,24.3-.916,2.689,2.689,0,0,1,22.028.154a2.538,2.538,0,0,1-1.106-.231,2.272,2.272,0,0,1-.828-.677v3.8H17.963V-7.925h1.926l.125.938a2.539,2.539,0,0,1,.846-.8,2.288,2.288,0,0,1,1.154-.282A2.637,2.637,0,0,1,24.3-6.921,5.132,5.132,0,0,1,25.111-3.9ZM22.972-3.9A3.834,3.834,0,0,0,22.6-5.713a1.218,1.218,0,0,0-1.143-.7,1.615,1.615,0,0,0-.824.2,1.411,1.411,0,0,0-.538.564v3.472a1.311,1.311,0,0,0,.538.513,1.814,1.814,0,0,0,.839.176,1.23,1.23,0,0,0,1.139-.608,3.209,3.209,0,0,0,.363-1.648ZM26.1-4.036a4.253,4.253,0,0,1,.989-2.9,3.447,3.447,0,0,1,2.739-1.132,3.483,3.483,0,0,1,2.754,1.128,4.23,4.23,0,0,1,1,2.908v.154A4.237,4.237,0,0,1,32.585-.97,3.469,3.469,0,0,1,29.843.154,3.477,3.477,0,0,1,27.092-.97,4.237,4.237,0,0,1,26.1-3.882Zm2.131.154a3.448,3.448,0,0,0,.381,1.74,1.315,1.315,0,0,0,1.23.656,1.3,1.3,0,0,0,1.212-.659,3.425,3.425,0,0,0,.385-1.736v-.154a3.39,3.39,0,0,0-.388-1.721,1.313,1.313,0,0,0-1.223-.667,1.3,1.3,0,0,0-1.212.67,3.42,3.42,0,0,0-.385,1.718Zm10.833-2.2-.784-.022a1.424,1.424,0,0,0-.784.2,1.253,1.253,0,0,0-.469.557V0H34.9V-7.925h1.985l.1,1.172a2.5,2.5,0,0,1,.721-.97,1.608,1.608,0,0,1,1.022-.348,1.6,1.6,0,0,1,.3.026q.135.026.275.062Zm3.8-3.779v1.941h1.34v1.5h-1.34v4.036a.921.921,0,0,0,.194.659.681.681,0,0,0,.509.2,2.042,2.042,0,0,0,.293-.018,2.467,2.467,0,0,0,.286-.062l.176,1.545A4.33,4.33,0,0,1,43.7.1a3.733,3.733,0,0,1-.663.055,2.279,2.279,0,0,1-1.7-.608,2.666,2.666,0,0,1-.6-1.926V-6.423H39.576v-1.5h1.157V-9.866ZM48.959.154A3.566,3.566,0,0,1,46.19-.934a3.986,3.986,0,0,1-1-2.8v-.293a4.339,4.339,0,0,1,.967-2.915A3.287,3.287,0,0,1,48.82-8.071a3.077,3.077,0,0,1,2.45.978,3.864,3.864,0,0,1,.853,2.633v1.106H47.4l-.022.044a2.141,2.141,0,0,0,.494,1.318,1.655,1.655,0,0,0,1.315.505,4.4,4.4,0,0,0,1.219-.146,4.976,4.976,0,0,0,1.036-.447L52.02-.762a3.97,3.97,0,0,1-1.289.652A5.717,5.717,0,0,1,48.959.154ZM48.82-6.423a1.188,1.188,0,0,0-.992.443A2.223,2.223,0,0,0,47.406-4.8l.015.037h2.607v-.161a1.851,1.851,0,0,0-.286-1.095A1.057,1.057,0,0,0,48.82-6.423ZM57.653-2.2a.738.738,0,0,0-.341-.6,3.459,3.459,0,0,0-1.263-.443,5.039,5.039,0,0,1-2.113-.842,1.84,1.84,0,0,1-.721-1.531,2.183,2.183,0,0,1,.864-1.736,3.485,3.485,0,0,1,2.3-.718,3.761,3.761,0,0,1,2.406.718,2.1,2.1,0,0,1,.868,1.787l-.015.044H57.572a1.037,1.037,0,0,0-.308-.776,1.217,1.217,0,0,0-.886-.3,1.211,1.211,0,0,0-.813.256.8.8,0,0,0-.3.63.711.711,0,0,0,.311.6A3.465,3.465,0,0,0,56.84-4.7a5.141,5.141,0,0,1,2.172.861,1.888,1.888,0,0,1,.714,1.564,2.092,2.092,0,0,1-.916,1.75,3.952,3.952,0,0,1-2.417.681,3.673,3.673,0,0,1-2.5-.8,2.242,2.242,0,0,1-.875-1.827l.015-.044h1.956A1.111,1.111,0,0,0,55.4-1.6a1.724,1.724,0,0,0,1.033.286,1.469,1.469,0,0,0,.9-.238A.772.772,0,0,0,57.653-2.2ZM63.475,0H61.337V-1.875h2.139Z" transform="translate(1014.982 16240.268)" fill="#00104e"/>
    <path id="Trazado_6637" data-name="Trazado 6637" d="M377.81,729.357c-17.24,2.595-27.242,4.362-31.218,8.672-4.633,5.018-10.133,7-13.875,6.07-6.937-1.734-6.953-4.463-4.914-9.828,3.459-9.1,18.354-14.31,34.588-14.643,20.452-.417,26.426,1.481,27.5,3.646C392.05,727.618,381.071,728.869,377.81,729.357Z" transform="translate(347.242 15472.459)" fill="#231f20" opacity="0.29" style="mix-blend-mode: multiply;isolation: isolate"/>
    <g id="Grupo_23507" data-name="Grupo 23507" transform="translate(672 16039.673)">
      <path id="Trazado_6638" data-name="Trazado 6638" d="M323.4,614.6s1.962-3.3,17.57-2.719c7.532.279,15.031-1.156,26.015-2.312,6.671-.7.146,4.226.146,4.226l3.79-54.088-6.071-47.552-23.48,2.921Z" transform="translate(-323.396 -479.707)" fill="#b0b4b5"/>
      <path id="Trazado_6639" data-name="Trazado 6639" d="M413.357,536.879a5.86,5.86,0,0,0-.2,2.4s-.829,1.456-1.923,1.392c-5.689-.32-18.007.579-27.272-2.731-5.617-2.012-16.951-18.049-16.951-18.049s-2.844-1.448.325-7.5c2.329-4.426,5.2-7.77,8.809-4.374,2.3,2.166,11.013,17.582,14.042,19.235,5.851,3.2,22.588,4.671,22.588,4.671S414.5,532.218,413.357,536.879Z" transform="translate(-341.301 -477.376)" fill="#c1c7c9"/>
      <path id="Trazado_6640" data-name="Trazado 6640" d="M346.4,731.962a6.446,6.446,0,0,1-.291,4.682s-1.346,1.045-1.558,1.261c-1.256,1.254-5.419,7.851-9.16,8.019-4.081.186-4.33-3.006-3.882-4.984.224-1,4.967-11.781,4.967-11.781Z" transform="translate(-326.749 -571.26)" fill="#282827"/>
      <path id="Trazado_6641" data-name="Trazado 6641" d="M397.484,708.884s1.747,3.263,3.009,3.831c2.622,1.18,10.189,3.438,10.889,3.7A1.806,1.806,0,0,1,412.6,718a1.334,1.334,0,0,1-.235.853c-.749,1.079-2.3,1.482-3.724,1.826-3.863.935-15.213-1.546-15.567-1.822,0,0-1.16-.246-1.442.324a4.931,4.931,0,0,0-.064,1.015l-4.091-1.35a10.568,10.568,0,0,1-.728-2.927l.161-5.633Z" transform="translate(-350.123 -562.706)" fill="#231f20"/>
      <g id="Grupo_23496" data-name="Grupo 23496" transform="translate(41.438 155.172)">
        <path id="Trazado_6642" data-name="Trazado 6642" d="M415.894,724.948a6.223,6.223,0,0,1-3.866,1.979c-4.663.941-15.569-1.706-15.569-1.706-.934-.121-1.321.206-1.386.76l.006.779c.043-.012,1.307-.856,1.285-.861,0,0,10.245,2.62,14.835,2.117,1.446-.168,3.891-1.03,4.738-2.365a1.5,1.5,0,0,0,.145-1.209A4.162,4.162,0,0,1,415.894,724.948Z" transform="translate(-395.073 -724.441)" fill="#282827"/>
      </g>
      <path id="Trazado_6643" data-name="Trazado 6643" d="M394.057,594.413l1.408,66.775c.073,2.227,1.433,2.885,1.387,3.147-.667,3.753-12.86,4.848-14.076,2l-4.536-71.719Z" transform="translate(-346.534 -514.411)" fill="#141413"/>
      <path id="Trazado_6644" data-name="Trazado 6644" d="M366.144,594.773,364.6,613.658,350.01,675.2c-.171,1.316-.834,1.707-2,2-6.744,1.708-9.488-.668-9.488-.668a2.309,2.309,0,0,1-1.26-2.3l9.664-77.921Z" transform="translate(-329.245 -514.563)" fill="#383736"/>
      <path id="Trazado_6645" data-name="Trazado 6645" d="M344.583,509.141a45.654,45.654,0,0,1,14.164-4.3c2.831-.358,10.705.485,10.705.485s10.058,1.62,11.393,8.225c.136.668,3.031,11.615-2.051,44.963-.494,3.242-6.962,4.6-14.532,3.463-6.238-.938-15.691-4.621-15.691-4.621s-.626-.414-.125-2.489a71.532,71.532,0,0,0,1.438-17.93C349.458,529.322,344.583,509.141,344.583,509.141Z" transform="translate(-332.334 -476.583)" fill="#63a3c6"/>
      <path id="Trazado_6646" data-name="Trazado 6646" d="M368.309,477.209a2.379,2.379,0,0,1,1.849,2.592l-1.041,4.228a1.3,1.3,0,0,1-1.162.862c-1.251-.051-1.515-1.223-1.768-2.5-.018-.072-.284-1.94-.3-2.053C365.656,478.749,366.316,476.718,368.309,477.209Z" transform="translate(-341.304 -464.931)" fill="#ffe8d9"/>
      <path id="Trazado_6647" data-name="Trazado 6647" d="M385.679,523.733a2.578,2.578,0,0,1-.087-1.223l.213-1.529-2.288-3.177-1.037.253-.4,3.737,1.137,1.267c.349.287.312,1.6.316,2.04,0,0,.325,22.332-1.909,31.411-.134.546,2.829,8.591,2.829,8.591s4.558-5.884,4.657-7.712C389.964,541.563,385.679,523.733,385.679,523.733Z" transform="translate(-347.958 -482.09)" fill="#a52619"/>
      <path id="Trazado_6648" data-name="Trazado 6648" d="M377.4,506.526c-4.172,4.219-6.464-2.747-9.231-5.962l1.135-13.3,10.75,3.232-.55,6.867Z" transform="translate(-342.282 -469.203)" fill="#ddbca6"/>
      <path id="Trazado_6649" data-name="Trazado 6649" d="M384.653,512.245a1.542,1.542,0,0,0,.245,1.578l2.127,2.727c.676.817.929-.143.911-1.029l-.3-6.423c-.552-4-1.329-3.255-1.329-3.255s-.039-.218-.213.85C385.873,508.06,384.9,511.375,384.653,512.245Z" transform="translate(-349.194 -477.02)" fill="#76c3e3"/>
      <path id="Trazado_6650" data-name="Trazado 6650" d="M378.4,467.247v0l-8.327.912,1.453,15.037a5.95,5.95,0,0,0,1.435,3.293,9.382,9.382,0,0,0,2.72,1.648s5.615,2.055,8.576.628c1.223-.587,1.521-2.171,1.814-3.163a30.261,30.261,0,0,0,.654-5.346l.382-7.306-.222-5.791Z" transform="translate(-343.09 -460.724)" fill="#e8c5ac"/>
      <path id="Trazado_6651" data-name="Trazado 6651" d="M382.643,459.8c1.533,1.766,1.092,3.588.92,6.456-.061,1.059-.275,1.868-.228,1.9s-.124-1.346-.16-2.535c-.088-2.945-1.823-2.526-3.025-2.253-.038.009-5.354,1.158-5.377,1.2-.065.114.638-1.933.3-1.729a5.633,5.633,0,0,0-2.712,2.914,15.787,15.787,0,0,0-.859,6.637l.135,1.312c.074.684.161,1.191,0,1.2a2.062,2.062,0,0,1-1.663-1.265,2.522,2.522,0,0,0-2.764-1.263c-1.581.4.012,4.014.128,4.2l-.034,1.086c-.076.76-.738,2.8-1.182,1.911-.75-1.5-2.43-4.789-2.944-5.7-5.612-9.976,1.509-20.435,12.613-17.268A29.532,29.532,0,0,1,382.643,459.8Z" transform="translate(-339.353 -456.026)" fill="#332107"/>
      <path id="Trazado_6652" data-name="Trazado 6652" d="M368.752,483.932a2.38,2.38,0,0,1,2.885,1.352l1.56,3.094s.088,1.256-.653,1.637c-1.12.573-1.3.5-2.463-.091a10,10,0,0,1-1.905-1.61C367.206,487.041,366.775,484.485,368.752,483.932Z" transform="translate(-341.942 -467.753)" fill="#e8c5ac"/>
      <path id="Trazado_6653" data-name="Trazado 6653" d="M368.112,502.481a7.487,7.487,0,0,0,.408,2.285c1.982,3.7,7.547,6.067,7.547,6.067a1.447,1.447,0,0,1,1.206,1.666l-.656,4.4c-.066,1.1-.641,1.009-1.091.578,0,0-4.536-3.606-5.822-4.825-3.016-2.871-2.742-4.959-2.186-8.847C367.672,502.715,368.112,502.481,368.112,502.481Z" transform="translate(-341.861 -475.625)" fill="#76c3e3"/>
      <g id="Grupo_23497" data-name="Grupo 23497" transform="translate(67.778 52.443)">
        <path id="Trazado_6654" data-name="Trazado 6654" d="M444.782,550.512s1.148-.431,1.536.126,1.116,1.861.553,5.066a7.625,7.625,0,0,1-1.017,2.466c-.261.418-1.026,1.285-1.6,1.112-.42-.126-.829-.451-1.256-1.529a7.627,7.627,0,0,1,.292-5.791C443.753,551.432,444.782,550.512,444.782,550.512Z" transform="translate(-441.452 -548.265)" fill="#48819b"/>
        <path id="Trazado_6655" data-name="Trazado 6655" d="M441.034,556.665l5.058.11-.246-5.845-2.748-.01Z" transform="translate(-440.805 -548.504)" fill="#e8c5ac"/>
        <path id="Trazado_6656" data-name="Trazado 6656" d="M444.7,550.331s-1.958.1-2.5,3.764a8.188,8.188,0,0,0,.282,4.28,1.467,1.467,0,0,0,.987.9l-1.594-.2s-1.287-.882-1.234-3.7c.077-4.177,2.717-5.062,2.717-5.062Z" transform="translate(-440.637 -548.246)" fill="#63a3c6"/>
        <path id="Trazado_6657" data-name="Trazado 6657" d="M447.75,550c.4-.993.858-1.862,4.17-3.255a.673.673,0,0,0,.62.6c1.411.211,2.432,1.213,3.524,2.058.416.623-.035.322-.258.286-1.781-.292-1.956-.438-2.193.011-.646,1.22-2.141,2.984-3.779,2.559S447.388,550.907,447.75,550Z" transform="translate(-443.602 -546.741)" fill="#e8c5ac"/>
      </g>
      <path id="Trazado_6658" data-name="Trazado 6658" d="M323.4,612.418l9.69-54.907.95-33.249.523-13.532c2.746-1.915,9.28-3.752,9.28-3.752a52.681,52.681,0,0,0,4.423,9.456c1.167,1.865,2.493,29.107,2.493,49.246L347.381,609.9c.559,5.147-2.825,5.912-4.025,6.338-1.445.509-6.879-.257-6.879-.257C328.662,614.8,323.256,611.96,323.4,612.418Z" transform="translate(-323.394 -477.522)" fill="#dbdddd"/>
      <path id="Trazado_6659" data-name="Trazado 6659" d="M393.291,518.672c-2.735-7-4.417-11.465-5.69-12.941a17.268,17.268,0,0,1,5.536,1.052c.072.043,4.076,1.9,5.42,4.843,1.965,4.293,1.821,8.258,3.047,14.161,3.7,17.836-.486,78.179-.486,78.179a4.79,4.79,0,0,1-1.419,4.2,38.748,38.748,0,0,1-5.483,2.911S400.722,537.714,393.291,518.672Z" transform="translate(-350.483 -476.988)" fill="#d8d8d8"/>
      <path id="Trazado_6660" data-name="Trazado 6660" d="M388.365,507.653l-.764-1.908a9.2,9.2,0,0,1,.962.472,18.32,18.32,0,0,1,3.373,3.235l3.508,4.7c.384,1,1.416,1.714.685,3.507l-1.275,3.438,2.252,1.39c1.057.75,1.956,2.207,1.786,5.008L396.6,543.42s-1.3-18.349-2.511-22.152A72.308,72.308,0,0,0,388.365,507.653Z" transform="translate(-350.483 -477.002)" fill="#fff"/>
      <path id="Trazado_6661" data-name="Trazado 6661" d="M357.626,506.624l-.941.291a3.632,3.632,0,0,0-2.049,2.582,15.047,15.047,0,0,0-.167,3.247L356.518,520c.423,1.554.987,2.072,2.162,2.165l3.34,1.32-2.117,1.669c-.917.635-1.622,1.059-.42,4.022l4.054,16.711s1.332-17.112-.806-25.389A90.271,90.271,0,0,0,357.626,506.624Z" transform="translate(-336.497 -477.373)" fill="#fff"/>
      <g id="Grupo_23499" data-name="Grupo 23499" transform="translate(5.077 34.858)">
        <path id="Trazado_6662" data-name="Trazado 6662" d="M339.141,516.347c-5.808.554-5.645,14.048-5.645,14.048s-2.938,19.9-.049,22.45c3.4,3,24.455,4.059,31.368,5.17,3.708.6.558-5.723.558-5.723-.053-.81-26.531-3.715-25.711-5.661,2.457-5.829,3.017-17.832,2.891-18.933C342.035,522.858,344.2,515.87,339.141,516.347Z" transform="translate(-332.176 -516.324)" fill="#edcfbc"/>
        <g id="Grupo_23498" data-name="Grupo 23498" transform="translate(30.125 33.718)">
          <path id="Trazado_6663" data-name="Trazado 6663" d="M386.838,581.042c1.741.391,3.434-1.685,3.79-3.274.134-.566,3.486-.137,4.879-.681a1.477,1.477,0,0,0,.688-2.356c-.264-.239-5.375.125-6.656.169-4.3.151-4.83,1.743-5.178,3.333C383.978,579.829,385.1,580.626,386.838,581.042Z" transform="translate(-384.286 -574.649)" fill="#edcfbc"/>
          <path id="Trazado_6664" data-name="Trazado 6664" d="M388.636,584l.324-2.1,3.5-3.981a9.046,9.046,0,0,0,3.521,1.019c2.058.324,2.756.539,4.57.868,1.723.311,2.933.519,2.736.929a4.459,4.459,0,0,1-1.553,1.879c-.867.723-2.023,1.9-2.023,1.9C398.012,585.636,392.369,585.474,388.636,584Z" transform="translate(-386.121 -576.028)" fill="#edcfbc"/>
        </g>
      </g>
      <path id="Trazado_6665" data-name="Trazado 6665" d="M360.191,558.439c-1.591.171-26.209-2.611-29.483-3.758-2.891-1.012-2.652-3.737-2.6-7.226.145-9.972,3.42-26.882,3.42-26.882.65-3.252,3.222-9,7.419-7.033,3.965,1.856,3.439,14.737,3.42,15.9-.048,2.938-2.986,16.138-2.986,16.138l23.028,3.71S365.161,557.9,360.191,558.439Z" transform="translate(-325.371 -480.122)" fill="#f4f4f4"/>
      <g id="Grupo_23506" data-name="Grupo 23506" transform="translate(53.592 40.133)">
        <g id="Grupo_23502" data-name="Grupo 23502">
          <g id="Grupo_23501" data-name="Grupo 23501" style="isolation: isolate">
            <g id="Grupo_23500" data-name="Grupo 23500">
              <path id="Trazado_6666" data-name="Trazado 6666" d="M424.888,530.366a1.7,1.7,0,0,0-1.243,1.162l-7.529,24.9c-.076.251.093.433.214.628.167.269.717.838.889.8l15.811-5.617a1.7,1.7,0,0,0,1.242-1.163l8.431-24.427c-.47-.469-1.149-1.288-1.576-1.19Z" transform="translate(-416.097 -525.448)" fill="#aeafaf"/>
            </g>
          </g>
        </g>
        <g id="Grupo_23505" data-name="Grupo 23505" transform="translate(1.391 1.245)">
          <g id="Grupo_23504" data-name="Grupo 23504" style="isolation: isolate">
            <g id="Grupo_23503" data-name="Grupo 23503">
              <path id="Trazado_6667" data-name="Trazado 6667" d="M427.3,532.526a1.7,1.7,0,0,0-1.242,1.163l-7.529,24.9a.57.57,0,0,0,.673.72l16.241-4.909a1.7,1.7,0,0,0,1.243-1.163l7.529-24.9a.57.57,0,0,0-.674-.72Z" transform="translate(-418.504 -527.601)" fill="#7a7c7c"/>
            </g>
          </g>
        </g>
      </g>
      <path id="Trazado_6668" data-name="Trazado 6668" d="M445.308,552.489c.295-.372.349-.4.56-.637a2.224,2.224,0,0,1,2.166-.723l1.5.39a3.553,3.553,0,0,0,2.109-.179c.481-.176,1.318-.491,1.318-.491s3.381.291,2.326,2.442a3.1,3.1,0,0,1-1.09,1.126c-.33.958-1.086,2.52-1.518,3.564-1,2.426-4.271,1.332-4.271,1.332l-2.172-.519C444.053,557.115,443.325,554.466,445.308,552.489Z" transform="translate(-374.34 -496.032)" fill="#e8c5ac"/>
    </g>
    <path id="Trazado_6669" data-name="Trazado 6669" d="M8904.933,1730H8793v246.949h111.933" transform="translate(-7987.203 14261.967)" fill="none" stroke="#3a1d71" stroke-width="2"/>
    <path id="Trazado_6670" data-name="Trazado 6670" d="M8814.95,1817.333H8703.332" transform="translate(-7897.219 14257.477)" fill="none" stroke="#3a1d71" stroke-width="2"/>
    <path id="Trazado_6671" data-name="Trazado 6671" d="M8814.95,1817.333H8703.332" transform="translate(-7897.219 14338.106)" fill="none" stroke="#3a1d71" stroke-width="2"/>
    <path id="Trazado_6672" data-name="Trazado 6672" d="M8664,1862.5h36.679" transform="translate(-7895.198 14255.154)" fill="none" stroke="#3a1d71" stroke-width="2"/>
    <path id="Trazado_884229" data-name="Trazado 884229" d="M27.223,0C42.258,0,54.447,7.037,54.447,15.717S42.258,31.435,27.223,31.435,0,24.4,0,15.717,12.188,0,27.223,0Z" transform="translate(1293.553 16185.348)" fill="#bfb7a3"/>
    <g id="Grupo_23523" data-name="Grupo 23523" transform="translate(1297.419 16039.674)">
      <g id="Grupo_23511" data-name="Grupo 23511" transform="translate(5.177 83.545)">
        <g id="Grupo_23510" data-name="Grupo 23510" transform="translate(0 62.869)">
          <path id="Trazado_6673" data-name="Trazado 6673" d="M640.911,435.264a9.159,9.159,0,0,1,.705,2.015c.044.612-.581,1.059-3.218,1.953s-3.755,2.771-6.884,3.754-7.669.251-7.611-1.484l6.45-1.272Z" transform="translate(-623.902 -432.174)" fill="#0e171c"/>
          <path id="Trazado_6674" data-name="Trazado 6674" d="M633.246,431.845a69.355,69.355,0,0,1-8.906,7.752.975.975,0,0,0,.38,1.774,29.636,29.636,0,0,0,4.673.383c4.128,0,3.709-2.477,7.7-3.991s5.081-.435,2.748-6.4Z" transform="translate(-623.902 -431.368)" fill="#1a2933"/>
          <path id="Trazado_6675" data-name="Trazado 6675" d="M633.5,434.13s.242,1.352,2.406,1.8" transform="translate(-625.888 -431.939)" fill="none" stroke="#0e171c" stroke-miterlimit="10" stroke-width="1"/>
          <path id="Trazado_6676" data-name="Trazado 6676" d="M634.768,432.642a10.4,10.4,0,0,0-.96,3.253" transform="translate(-625.952 -431.632)" fill="none" stroke="#0e171c" stroke-miterlimit="10" stroke-width="1"/>
          <path id="Trazado_6677" data-name="Trazado 6677" d="M630.842,436.618" transform="translate(-625.338 -432.454)" fill="none" stroke="#241e1b" stroke-miterlimit="10" stroke-width="0.591"/>
          <path id="Trazado_6678" data-name="Trazado 6678" d="M628.446,438.709" transform="translate(-624.842 -432.887)" fill="none" stroke="#241e1b" stroke-miterlimit="10" stroke-width="0.591"/>
          <path id="Trazado_6679" data-name="Trazado 6679" d="M631.346,438.752" transform="translate(-625.442 -432.896)" fill="none" stroke="#241e1b" stroke-miterlimit="10" stroke-width="0.591"/>
        </g>
        <path id="Trazado_6680" data-name="Trazado 6680" d="M629.313,352.1s1.654,21.307,2.39,28.134,1.761,35.173,1.761,35.173a12.647,12.647,0,0,0,8.715,0s3.172-12.8,2.6-19.838-1.218-6.568-1.106-9.586.681-20.325.842-27.452Z" transform="translate(-625.022 -352.101)" fill="#1a2933"/>
      </g>
      <g id="Grupo_23513" data-name="Grupo 23513" transform="translate(8.78 83.545)">
        <g id="Grupo_23512" data-name="Grupo 23512" transform="translate(19.277 71.778)">
          <path id="Trazado_6681" data-name="Trazado 6681" d="M661.576,442.6a5.774,5.774,0,0,1,.66,2.26c.277,1.743.551,4.469,1.018,6.481s1.262,3.308-.651,5.408-4.47,3.665-6.615,3.308a3.88,3.88,0,0,1-2.995-5.185Z" transform="translate(-652.751 -442.602)" fill="#0e171c"/>
          <path id="Trazado_6682" data-name="Trazado 6682" d="M655.572,442.6a6.458,6.458,0,0,0,6.067,0s.088,1.724.731,5.881c.422,2.726,1.678,4.817.359,6.881s-4.491,4.629-6.746,3.941-3.444-3.3-2.712-4.955A44.935,44.935,0,0,0,655.572,442.6Z" transform="translate(-652.814 -442.602)" fill="#1a2933"/>
          <path id="Trazado_6683" data-name="Trazado 6683" d="M661.654,450.639a6.108,6.108,0,0,0-5.078-.781" transform="translate(-653.542 -444.048)" fill="none" stroke="#0e171c" stroke-miterlimit="10" stroke-width="1"/>
          <path id="Trazado_6684" data-name="Trazado 6684" d="M661.654,448.146s-3.575,1.112-5.078,2.765" transform="translate(-653.542 -443.749)" fill="none" stroke="#0e171c" stroke-miterlimit="10" stroke-width="1"/>
        </g>
        <path id="Trazado_6685" data-name="Trazado 6685" d="M656.871,352.1s2.915,11.726,1.347,34.261c0,0,3.306,16.209,0,38.221,0,0-3.854,2.831-10.038,0,0,0-.888-22.131-1.121-27.133s-.235-8.262-.938-11.089-5.059-21.456-5.059-21.456-11.454-6.309-12.615-12.8Z" transform="translate(-628.446 -352.101)" fill="#263c4a"/>
      </g>
      <path id="Trazado_6686" data-name="Trazado 6686" d="M633.929,279.523c-1.225.582-9.415,4.979-12.258,12.343s-5.909,19.182-3.32,22.243,10.606-2.391,10.606-2.391Z" transform="translate(-617.375 -253.541)" fill="#943232"/>
      <g id="Grupo_23517" data-name="Grupo 23517" transform="translate(7.062 14.474)">
        <path id="Trazado_6687" data-name="Trazado 6687" d="M657.464,355.286a39.39,39.39,0,0,1-14.361,2.451,41.191,41.191,0,0,1-12.989-1.942,9.541,9.541,0,0,1-1.668-3.694h28.425S657.136,353.175,657.464,355.286Z" transform="translate(-626.727 -283.029)" fill="#3d312f"/>
        <path id="Trazado_6688" data-name="Trazado 6688" d="M635.479,357.553l1.006.175a1.954,1.954,0,0,0,2.254-1.585h0a1.954,1.954,0,0,0-1.585-2.254l-1.007-.176a1.954,1.954,0,0,0-2.254,1.585h0A1.955,1.955,0,0,0,635.479,357.553Z" transform="translate(-627.848 -283.357)" fill="#fff"/>
        <path id="Trazado_6689" data-name="Trazado 6689" d="M627.855,332.109c-.8-13.662.4-31.823.4-31.823s.023-12.42,3.87-17.1,7.256-4.516,7.256-4.516l12.374,1.791a47.707,47.707,0,0,0,6.389,2.54s-.976,8.812-1.637,16.74c-.879,10.556-1.819,20-.876,27.514.293,2.333.6,2.275.867,4.661h0a5.621,5.621,0,0,1,.627,5.878c-19.569,3.36-28.429-.706-28.87,0a7.935,7.935,0,0,1-.4-5.688Z" transform="translate(-626.535 -267.839)" fill="#9bc1db"/>
        <g id="Grupo_23514" data-name="Grupo 23514" transform="translate(0 10.644)">
          <path id="Trazado_6690" data-name="Trazado 6690" d="M639.091,278.433s-5.522,7.233-6.894,14.141-2.216,33.471-.956,49.923c0,0-2.45.638-4.963-2.344,0,0,.086-20.139.479-27.928C627.261,302.232,625.681,279.729,639.091,278.433Z" transform="translate(-626.279 -278.433)" fill="#ba3f3f"/>
          <path id="Trazado_6691" data-name="Trazado 6691" d="M631.166,314.1s-1.082-23.329,8.362-35.666c0,0-8.38,9.9-10.406,15.3a16.513,16.513,0,0,0,2.026,2.529l-2.757,4.89Z" transform="translate(-626.716 -278.433)" fill="#943232"/>
        </g>
        <g id="Grupo_23515" data-name="Grupo 23515" transform="translate(12.652 11.563)">
          <path id="Trazado_6692" data-name="Trazado 6692" d="M653.937,279.592s5.159,1.317,7.293,3.6L658.858,310.8s-.19,14.524,1.5,19.549a35.6,35.6,0,0,1,1.451,11.009s-6.085,3.829-19.376,2.034c0,0-.033-24.984.757-38.338S648.937,287.941,653.937,279.592Z" transform="translate(-642.273 -279.592)" fill="#ba3f3f"/>
          <path id="Trazado_6693" data-name="Trazado 6693" d="M653.9,279.592l-1.024,17.855-4.865,2.406,2.273,5.2L642.7,316.492S638.725,293.087,653.9,279.592Z" transform="translate(-642.231 -279.592)" fill="#943232"/>
        </g>
        <path id="Trazado_6694" data-name="Trazado 6694" d="M641.1,292.462s-6.894,18.519-4.7,49.078" transform="translate(-628.283 -270.692)" fill="none" stroke="#7390a3" stroke-miterlimit="10" stroke-width="1"/>
        <g id="Grupo_23516" data-name="Grupo 23516" transform="translate(9.492)">
          <path id="Trazado_6695" data-name="Trazado 6695" d="M641.913,276.283c.048-3.556-.1-7.477-.1-7.477l10.049-3.794s.681,10.8.778,11.769-3.961,4.28-7.136,5.35a8.693,8.693,0,0,1-1.7.426l.007.029-1.647,4.2-.7-4.57S640.449,280.159,641.913,276.283Z" transform="translate(-638.841 -265.013)" fill="#ffbe92"/>
          <path id="Trazado_6696" data-name="Trazado 6696" d="M651.883,265.306c0,.074.01.163.017.263.041.646.114,1.8.2,3.132a40.845,40.845,0,0,1-10.968,11.124,11.445,11.445,0,0,1,.784-3.542c.048-3.556-.1-7.477-.1-7.477l10.049-3.794,0,.053C651.871,265.112,651.875,265.184,651.883,265.306Z" transform="translate(-638.844 -265.013)" fill="#e0a780"/>
          <path id="Trazado_6697" data-name="Trazado 6697" d="M640.866,284.766l-2.619,1.3s.693-6.385,2.972-8.719l.348.858S640.167,283.307,640.866,284.766Z" transform="translate(-638.247 -267.565)" fill="#cbe7fa"/>
          <path id="Trazado_6698" data-name="Trazado 6698" d="M653.254,278.433s-1.415,5.251-8.753,6.9l2.356,3a21.742,21.742,0,0,0,8.412-7.921A7.9,7.9,0,0,0,653.254,278.433Z" transform="translate(-639.541 -267.789)" fill="#cbe7fa"/>
        </g>
      </g>
      <g id="Grupo_23519" data-name="Grupo 23519" transform="translate(11.859)">
        <g id="Grupo_23518" data-name="Grupo 23518" transform="translate(1.121 1.415)">
          <path id="Trazado_6699" data-name="Trazado 6699" d="M637.389,250.542a4.5,4.5,0,0,1,1.488-.958c6.649-2.556,12.8-.573,13.775,8.1,1.008,8.958-10.012,15.436-13.709,15.852s-5.68-10.47-5.1-15.525A12.091,12.091,0,0,1,637.389,250.542Z" transform="translate(-633.741 -248.548)" fill="#ffbe92"/>
        </g>
        <path id="Trazado_6700" data-name="Trazado 6700" d="M651.235,263.359s1.206-5.674-1.2-5.912-4.021,4.643-4.021,4.643a12.008,12.008,0,0,1,0-6.072s-4.344,2.5-13.687,1.905a32.121,32.121,0,0,1,2.446-6.548c1.546-2.858,4.624-5.358,11.241-4.405s6.025,5.477,6.025,5.477a6.373,6.373,0,0,1,1.464,2.615C654.338,257.209,652.9,260.727,651.235,263.359Z" transform="translate(-632.328 -246.764)" fill="#544340"/>
      </g>
      <g id="Grupo_23522" data-name="Grupo 23522" transform="translate(0.231 29.64)">
        <path id="Trazado_6701" data-name="Trazado 6701" d="M630.079,311.26s-4.466-3.925-6.508-4.219-2.865-.353-3.276.236,4.34,3.059,4.34,3.059-5.135-2.482-6.046-1.756,4.118,3.344,4.118,3.344-4.118-1.706-4.941-1,3.764,2.942,3.764,2.942Z" transform="translate(-617.667 -288.829)" fill="#ffbe92"/>
        <path id="Trazado_6702" data-name="Trazado 6702" d="M655.6,332.258s.461,2.942-.481,3-2.588-2.118-2.588-2.118-1.068,1.294-1.74,1-1.554-2.883-1.554-2.883-.228,2.353-.7,2.294-2.063-3.235-2.063-3.235Z" transform="translate(-623.626 -293.689)" fill="#ffbe92"/>
        <path id="Trazado_6703" data-name="Trazado 6703" d="M645.885,312.726c.153.117,6.883,1.234,8.849,7.351H650.31Z" transform="translate(-623.505 -290.05)" fill="#ffbe92"/>
        <g id="Grupo_23521" data-name="Grupo 23521" transform="translate(7.677)">
          <g id="Grupo_23520" data-name="Grupo 23520">
            <path id="Trazado_6704" data-name="Trazado 6704" d="M628.724,306.315a.254.254,0,0,0-.224.159,15.434,15.434,0,0,0-.8,8.855.268.268,0,0,0,.262.2c1.812-.031,26.908,14.493,32.2,6.516a66.025,66.025,0,0,0,4.718-25.209c-.14-7.95-1.771-10.947-6.768-12.706,0,0-4.919,5.381-4.408,17.917a21.6,21.6,0,0,1-3.64,10.524Z" transform="translate(-627.346 -284.135)" fill="#a63838"/>
          </g>
        </g>
        <path id="Trazado_6705" data-name="Trazado 6705" d="M618.48,320.661c.78,1.342,2.287,3.724,10.536.215,6.161-2.621,17.241-1.947,17.241-1.947s-.274-5.388-1.3-6.872c-2.529-.778-9.235-.976-11.523-.809-5.745.42-10.474.964-12.541,2.544C617.7,316.232,617.582,319.115,618.48,320.661Z" transform="translate(-617.736 -289.733)" fill="#943232"/>
      </g>
    </g>
    <path id="Trazado_6706" data-name="Trazado 6706" d="M9034,1902.333h84.108V1979.8H9034" transform="translate(-7914.221 14253.106)" fill="none" stroke="#3a1d71" stroke-width="2"/>
    <path id="Trazado_6707" data-name="Trazado 6707" d="M9122.667,1940h77.784" transform="translate(-7918.779 14251.17)" fill="none" stroke="#3a1d71" stroke-linecap="round" stroke-width="2"/>
  </g>
</svg>
