<svg xmlns="http://www.w3.org/2000/svg" xmlns:xlink="http://www.w3.org/1999/xlink" width="122" height="122" viewBox="0 0 122 122">
  <defs>
    <filter id="Trazado_824488" x="0" y="0" width="122" height="122" filterUnits="userSpaceOnUse">
      <feOffset dy="3" input="SourceAlpha"/>
      <feGaussianBlur stdDeviation="7" result="blur"/>
      <feFlood flood-color="#fff" flood-opacity="0.659"/>
      <feComposite operator="in" in2="blur"/>
      <feComposite in="SourceGraphic"/>
    </filter>
  </defs>
  <g id="Grupo_1073963" data-name="Grupo 1073963" transform="translate(-583 -4516)">
    <g transform="matrix(1, 0, 0, 1, 583, 4516)" filter="url(#Trazado_824488)">
      <path id="Trazado_824488-2" data-name="Trazado 824488" d="M40,0A40,40,0,1,1,0,40,40,40,0,0,1,40,0Z" transform="translate(21 18)" fill="#ffce00"/>
    </g>
    <g id="colaboracion" transform="translate(617.085 4549.585)">
      <g id="Grupo_1073876" data-name="Grupo 1073876" transform="translate(0.774 0.775)">
        <g id="Grupo_1073875" data-name="Grupo 1073875">
          <g id="Grupo_1073869" data-name="Grupo 1073869" transform="translate(27.771 28.975)">
            <path id="Trazado_824521" data-name="Trazado 824521" d="M283.833,310.624a.514.514,0,0,0,.465-.294,3.5,3.5,0,0,1,1.25-1.517l9.337-6.086a2.854,2.854,0,0,0,1.15-1.5l3.857-11.578a.953.953,0,0,0-.6-1.206,2.558,2.558,0,0,0-3.223,1.643l-1.857,5.63-.045,1.788-.941,1.2h0a1.848,1.848,0,0,0-.1-1.418,1.809,1.809,0,0,0-2.434-.808l-9.276,4.679a6.056,6.056,0,0,0-3.019,3.511l-1.716,5.277a.516.516,0,0,0,.491.675Z" transform="translate(-276.651 -288.318)" fill="#c68d7a"/>
            <path id="Trazado_824522" data-name="Trazado 824522" d="M374.023,365.287l-6.056,3.416a.7.7,0,1,1-.684-1.213l6.056-3.416a1.824,1.824,0,0,0,.362-.267,1.858,1.858,0,0,0,.488-.768v0l.985-2.987a3.943,3.943,0,0,1,.5.745C376.336,362.027,375.509,364.357,374.023,365.287Z" transform="translate(-357.614 -352.648)" fill="#bc7c63"/>
          </g>
          <g id="Grupo_1073870" data-name="Grupo 1073870" transform="translate(28.975 0.219)">
            <path id="Trazado_824523" data-name="Trazado 824523" d="M310.623,25.737a.514.514,0,0,0-.294-.465,3.5,3.5,0,0,1-1.517-1.25l-6.086-9.338a2.854,2.854,0,0,0-1.5-1.15L289.651,9.676a.953.953,0,0,0-1.206.6,2.558,2.558,0,0,0,1.643,3.223l5.63,1.857,1.788.045,1.2.941v0a1.848,1.848,0,0,0-1.418.1,1.809,1.809,0,0,0-.808,2.434l4.679,9.276a6.056,6.056,0,0,0,3.511,3.019l5.277,1.716a.516.516,0,0,0,.675-.491Z" transform="translate(-288.317 -9.627)" fill="#f3c6bd"/>
            <path id="Trazado_824524" data-name="Trazado 824524" d="M365.286,59.95l3.416,6.056a.7.7,0,1,1-1.213.685l-3.416-6.056a1.825,1.825,0,0,0-.267-.362,1.858,1.858,0,0,0-.768-.488h0l-2.987-.985a3.941,3.941,0,0,1,.745-.5C362.026,57.637,364.356,58.465,365.286,59.95Z" transform="translate(-352.647 -53.069)" fill="#efb9af"/>
          </g>
          <g id="Grupo_1073871" data-name="Grupo 1073871" transform="translate(0.219)">
            <path id="Trazado_824525" data-name="Trazado 824525" d="M25.737,7.5a.514.514,0,0,0-.465.294,3.5,3.5,0,0,1-1.25,1.517L14.684,15.4a2.854,2.854,0,0,0-1.15,1.5L9.676,28.474a.953.953,0,0,0,.6,1.206A2.558,2.558,0,0,0,13.5,28.037l1.857-5.63.045-1.788.941-1.2h0a1.848,1.848,0,0,0,.1,1.418,1.809,1.809,0,0,0,2.434.808l9.276-4.679a6.056,6.056,0,0,0,3.019-3.511l1.716-5.277A.516.516,0,0,0,32.4,7.5Z" transform="translate(-9.627 -7.502)" fill="#c68d7a"/>
            <path id="Trazado_824526" data-name="Trazado 824526" d="M59.95,70.725l6.056-3.416a.7.7,0,1,1,.685,1.213l-6.056,3.416a1.825,1.825,0,0,0-.362.267,1.858,1.858,0,0,0-.488.768v0L58.8,75.962a3.941,3.941,0,0,1-.5-.745C57.637,73.984,58.465,71.655,59.95,70.725Z" transform="translate(-53.069 -61.057)" fill="#bc7c63"/>
          </g>
          <g id="Grupo_1073872" data-name="Grupo 1073872" transform="translate(0 27.771)">
            <path id="Trazado_824527" data-name="Trazado 824527" d="M7.5,283.834a.514.514,0,0,0,.294.465,3.5,3.5,0,0,1,1.517,1.25l6.086,9.338a2.854,2.854,0,0,0,1.5,1.15l11.578,3.857a.953.953,0,0,0,1.206-.6,2.558,2.558,0,0,0-1.643-3.223l-5.63-1.857-1.788-.045-1.2-.941v0a1.848,1.848,0,0,0,1.418-.1,1.809,1.809,0,0,0,.808-2.434l-4.679-9.276a6.056,6.056,0,0,0-3.511-3.019l-5.277-1.716a.516.516,0,0,0-.675.491Z" transform="translate(-7.501 -276.652)" fill="#f3c6bd"/>
            <path id="Trazado_824528" data-name="Trazado 824528" d="M70.724,374.023l-3.416-6.056a.7.7,0,1,1,1.213-.684l3.416,6.056a1.824,1.824,0,0,0,.267.362,1.858,1.858,0,0,0,.768.488h0l2.987.985a3.941,3.941,0,0,1-.745.5C73.983,376.336,71.654,375.509,70.724,374.023Z" transform="translate(-61.056 -357.614)" fill="#efb9af"/>
          </g>
          <g id="Grupo_1073874" data-name="Grupo 1073874" transform="translate(11.153 11.128)">
            <path id="Trazado_824529" data-name="Trazado 824529" d="M144.286,132.186l.1-4.665a.559.559,0,0,0-.488-.554l-1.643-.2a.554.554,0,0,1-.461-.384,13.93,13.93,0,0,0-.676-2.323l-.029-.057a.554.554,0,0,1,.054-.6l1.006-1.3a.559.559,0,0,0-.047-.737l-3.544-3.544a.559.559,0,0,0-.737-.047l-1.3,1.006a.554.554,0,0,1-.6.054,12.376,12.376,0,0,0-2.181-.9.554.554,0,0,1-.384-.461l-.209-1.632a.559.559,0,0,0-.554-.488h-5.012a.559.559,0,0,0-.554.488l-.209,1.632a.554.554,0,0,1-.384.461,12.373,12.373,0,0,0-2.181.9.554.554,0,0,1-.6-.054l-1.3-1.006a.559.559,0,0,0-.737.047l-3.544,3.544a.559.559,0,0,0-.047.737l1.006,1.3a.554.554,0,0,1,.054.6,12.374,12.374,0,0,0-.9,2.181.554.554,0,0,1-.461.384l-1.632.209a.559.559,0,0,0-.488.554v5.027a.559.559,0,0,0,.493.555l1.539.183a.7.7,0,0,1,.576.48,12.373,12.373,0,0,0,.877,2.1.555.555,0,0,1-.054.6l-1.007,1.3a.559.559,0,0,0,.047.737l3.544,3.544a.559.559,0,0,0,.737.047l1.3-1.006a.554.554,0,0,1,.6-.054l.057.03a13.554,13.554,0,0,0,2.288.686.554.554,0,0,1,.384.461l.169,1.548a.559.559,0,0,0,.554.488l4.661.1a.559.559,0,0,0,.554-.488l.093-1.651a.554.554,0,0,1,.384-.461,16.659,16.659,0,0,0,2.526-1.066.554.554,0,0,1,.6.054l1.3,1.016a.559.559,0,0,0,.737-.047l3.113-3.28a.559.559,0,0,0,.047-.737l-.862-1.227a.554.554,0,0,1-.054-.6,15.254,15.254,0,0,0,.977-2.326.7.7,0,0,1,.576-.48l1.436-.125A.559.559,0,0,0,144.286,132.186Z" transform="translate(-115.598 -115.351)" fill="#918291"/>
            <g id="Grupo_1073873" data-name="Grupo 1073873" transform="translate(8.709 8.71)">
              <path id="Trazado_824530" data-name="Trazado 824530" d="M219.784,202.483l-1.632-.209a.554.554,0,0,1-.461-.384,12.371,12.371,0,0,0-.875-2.124c-.361,4.461-1.961,8.989-4.939,11.98-3,3.009-7.382,4.467-11.87,4.83a12.372,12.372,0,0,0,2.124.874.554.554,0,0,1,.384.461l.209,1.632a.559.559,0,0,0,.554.488h5.012a.559.559,0,0,0,.555-.488l.209-1.632a.554.554,0,0,1,.384-.461,12.373,12.373,0,0,0,2.181-.9.554.554,0,0,1,.6.054l1.3,1.006a.559.559,0,0,0,.737-.047l3.544-3.544a.559.559,0,0,0,.047-.737l-1.007-1.3a.554.554,0,0,1-.054-.6,12.372,12.372,0,0,0,.877-2.1.7.7,0,0,1,.576-.48l1.535-.173a.559.559,0,0,0,.5-.556v-5.037A.559.559,0,0,0,219.784,202.483Z" transform="translate(-200.007 -199.766)" fill="#7a6d79"/>
            </g>
            <circle id="Elipse_9860" data-name="Elipse 9860" cx="8.695" cy="8.695" r="8.695" transform="translate(5.792 5.793)" fill="#f9f7f8"/>
          </g>
        </g>
      </g>
      <g id="Grupo_1073877" data-name="Grupo 1073877" transform="translate(0 0.001)">
        <path id="Trazado_824531" data-name="Trazado 824531" d="M128.976,139.254l.207-1.615a13.005,13.005,0,0,0,2.007-.832l1.289,1a1.156,1.156,0,0,0,1.521-.1l3.7-3.7a1.156,1.156,0,0,0,.1-1.521l-1-1.289a13,13,0,0,0,.832-2.007l1.615-.207a1.156,1.156,0,0,0,1.007-1.144v-5.239a1.156,1.156,0,0,0-1.007-1.144l-1.615-.207a12.992,12.992,0,0,0-.832-2.007l1-1.289a1.156,1.156,0,0,0-.1-1.521l-3.7-3.7a1.156,1.156,0,0,0-1.521-.1l-1.289,1a13.008,13.008,0,0,0-2.007-.832l-.207-1.615a1.156,1.156,0,0,0-1.144-1.007h-5.239a1.156,1.156,0,0,0-1.144,1.007l-.207,1.615a13,13,0,0,0-2.007.832l-1.289-1a1.156,1.156,0,0,0-1.521.1l-3.7,3.7a1.156,1.156,0,0,0-.1,1.521l1,1.289a13,13,0,0,0-.832,2.007l-1.615.207a1.156,1.156,0,0,0-1.007,1.144v5.239a1.156,1.156,0,0,0,1.007,1.144l1.615.207a12.993,12.993,0,0,0,.832,2.007l-1,1.289a1.156,1.156,0,0,0,.1,1.521l3.7,3.7a1.156,1.156,0,0,0,1.521.1l1.289-1a13.009,13.009,0,0,0,2.007.832l.207,1.615a1.156,1.156,0,0,0,1.144,1.007h5.239A1.156,1.156,0,0,0,128.976,139.254Zm-1.491-.541h-4.546l-.2-1.523a1.158,1.158,0,0,0-.819-.96,11.441,11.441,0,0,1-2.179-.9,1.156,1.156,0,0,0-1.258.1l-1.216.939-3.214-3.214.939-1.216a1.157,1.157,0,0,0,.1-1.258,11.444,11.444,0,0,1-.9-2.179,1.157,1.157,0,0,0-.96-.819l-1.523-.2V122.94l1.523-.2a1.157,1.157,0,0,0,.96-.819,11.438,11.438,0,0,1,.9-2.178,1.157,1.157,0,0,0-.1-1.258l-.939-1.216,3.214-3.214,1.216.939a1.157,1.157,0,0,0,1.257.1,11.437,11.437,0,0,1,2.179-.9,1.158,1.158,0,0,0,.818-.96l.2-1.523h4.546l.2,1.523a1.158,1.158,0,0,0,.819.96,11.441,11.441,0,0,1,2.179.9,1.157,1.157,0,0,0,1.258-.1l1.216-.939,3.214,3.214-.939,1.216a1.157,1.157,0,0,0-.1,1.258,11.445,11.445,0,0,1,.9,2.179,1.157,1.157,0,0,0,.96.819l1.523.2v4.546l-1.523.2a1.157,1.157,0,0,0-.96.819,11.438,11.438,0,0,1-.9,2.178,1.157,1.157,0,0,0,.1,1.258l.939,1.216-3.214,3.214-1.216-.939a1.157,1.157,0,0,0-1.257-.1,11.438,11.438,0,0,1-2.179.9,1.158,1.158,0,0,0-.818.96Z" transform="translate(-98.797 -98.799)"/>
        <path id="Trazado_824532" data-name="Trazado 824532" d="M183.171,173.7a9.469,9.469,0,1,0-9.469,9.469A9.479,9.479,0,0,0,183.171,173.7Zm-9.469,7.921a7.921,7.921,0,1,1,7.921-7.921A7.93,7.93,0,0,1,173.7,181.625Z" transform="translate(-147.288 -147.289)"/>
        <path id="Trazado_824533" data-name="Trazado 824533" d="M196.953,227.23a.774.774,0,0,0-1.094,0l-2.218,2.218a.774.774,0,0,0,0,1.094l2.218,2.218a.774.774,0,0,0,1.094-1.094L195.281,230l1.671-1.671A.774.774,0,0,0,196.953,227.23Z" transform="translate(-173.457 -203.581)"/>
        <path id="Trazado_824534" data-name="Trazado 824534" d="M285.632,229.448l-2.218-2.218a.774.774,0,0,0-1.094,1.094L283.99,230l-1.671,1.671a.774.774,0,0,0,1.094,1.094l2.218-2.218A.774.774,0,0,0,285.632,229.448Z" transform="translate(-252.986 -203.581)"/>
        <path id="Trazado_824535" data-name="Trazado 824535" d="M241.865,221.77a.774.774,0,0,0-.991.465l-1.995,5.526a.774.774,0,1,0,1.456.526l1.995-5.526a.774.774,0,0,0-.465-.991Z" transform="translate(-214.19 -198.846)"/>
        <path id="Trazado_824536" data-name="Trazado 824536" d="M287.2,8.906,293.27,11a2.565,2.565,0,0,0-.411,2.829l2.017,4.182a.774.774,0,0,0,1.394-.673l-2.017-4.182a1.009,1.009,0,0,1,1.8-.918l3.531,6.525a.774.774,0,1,0,1.361-.737l-3.53-6.524a2.551,2.551,0,0,0-1.435-1.207l-8.268-2.847a1.71,1.71,0,0,1-1.059-2.171.145.145,0,0,1,.191-.093L298.1,9.055a1.975,1.975,0,0,1,1.028.819l6.18,9.713a3.17,3.17,0,0,0,1.636,1.29l.462.159a.774.774,0,0,0,.5-1.464l-.462-.159a1.617,1.617,0,0,1-.834-.658l-6.177-9.708A3.526,3.526,0,0,0,298.6,7.591L287.343,3.715a1.7,1.7,0,0,0-2.159,1.053A3.259,3.259,0,0,0,287.2,8.906Z" transform="translate(-255.599 -3.248)"/>
        <path id="Trazado_824537" data-name="Trazado 824537" d="M406.659,170.646l-6.376-2.2a5.082,5.082,0,0,1-2.9-2.578l-.788-1.633a.774.774,0,1,0-1.394.673l.788,1.633a6.64,6.64,0,0,0,3.792,3.369l6.377,2.2a.774.774,0,0,0,.5-1.464Z" transform="translate(-354.352 -146.9)"/>
        <path id="Trazado_824538" data-name="Trazado 824538" d="M117.386,5.228a.77.77,0,0,0,.415-.121l3.117-1.983a3.163,3.163,0,0,0,1.289-1.634l.16-.462A.774.774,0,0,0,120.9.522l-.16.463a1.61,1.61,0,0,1-.657.833L116.97,3.8a.774.774,0,0,0,.416,1.427Z" transform="translate(-104.579 -0.001)"/>
        <path id="Trazado_824539" data-name="Trazado 824539" d="M4.777,23.245a3.255,3.255,0,0,0,4.138-2.018l2.09-6.068a2.583,2.583,0,0,0,1.726.664,2.533,2.533,0,0,0,1.1-.252L22.9,11.2A6.637,6.637,0,0,0,26.271,7.4l2.2-6.376A.774.774,0,1,0,27,.523L24.808,6.9a5.08,5.08,0,0,1-2.579,2.9l-9.068,4.375a1.009,1.009,0,0,1-.919-1.8l6.525-3.53a.774.774,0,0,0-.737-1.361l-6.525,3.53a2.548,2.548,0,0,0-1.244,1.546l-2.81,8.157a1.707,1.707,0,0,1-2.17,1.059.15.15,0,0,1-.093-.192L9.063,10.334A1.984,1.984,0,0,1,9.882,9.3l3.546-2.257A.774.774,0,1,0,12.6,5.742L9.055,8A3.534,3.534,0,0,0,7.6,9.829L3.724,21.088a1.7,1.7,0,0,0,1.053,2.156Z" transform="translate(-3.257 -0.001)"/>
        <path id="Trazado_824540" data-name="Trazado 824540" d="M21.226,351.375l-6.068-2.089a2.565,2.565,0,0,0,.411-2.829L13.8,342.794a.774.774,0,0,0-1.394.673l1.768,3.664a1.011,1.011,0,0,1-.459,1.341,1,1,0,0,1-.762.056l-.02-.006a1,1,0,0,1-.554-.472L8.85,341.523a.774.774,0,1,0-1.361.737l3.531,6.524a2.539,2.539,0,0,0,1.414,1.2c.009.007,8.275,2.849,8.289,2.855a1.71,1.71,0,0,1,1.059,2.171.151.151,0,0,1-.192.093l-11.257-3.876a1.975,1.975,0,0,1-1.028-.819L3.124,340.7a3.17,3.17,0,0,0-1.636-1.29l-.462-.159a.774.774,0,0,0-.5,1.463l.462.159a1.617,1.617,0,0,1,.834.658L8,351.235a3.526,3.526,0,0,0,1.833,1.456l11.257,3.876a1.7,1.7,0,0,0,2.159-1.053,3.259,3.259,0,0,0-2.018-4.138Z" transform="translate(0 -304.205)"/>
        <path id="Trazado_824541" data-name="Trazado 824541" d="M.522,268.776l6.376,2.2a5.082,5.082,0,0,1,2.9,2.578l1.034,2.143a.774.774,0,1,0,1.394-.673l-1.034-2.143A6.64,6.64,0,0,0,7.4,269.508l-6.377-2.2a.774.774,0,0,0-.5,1.464Z" transform="translate(0 -239.693)"/>
        <path id="Trazado_824542" data-name="Trazado 824542" d="M344.351,458.122l-3.658,2.327a3.163,3.163,0,0,0-1.289,1.634l-.16.462a.774.774,0,1,0,1.463.506l.16-.463a1.61,1.61,0,0,1,.657-.833l3.659-2.328a.774.774,0,1,0-.831-1.306Z" transform="translate(-304.202 -410.744)"/>
        <path id="Trazado_824543" data-name="Trazado 824543" d="M291,285.174a3.255,3.255,0,0,0-4.138,2.018l-2.09,6.067a2.566,2.566,0,0,0-2.829-.412l-9.068,4.375a6.637,6.637,0,0,0-3.37,3.793l-2.2,6.376a.774.774,0,1,0,1.463.5l2.2-6.376a5.08,5.08,0,0,1,2.579-2.9l9.068-4.375a1.009,1.009,0,0,1,.919,1.8l-6.525,3.53a.774.774,0,0,0,.737,1.361l6.525-3.53a2.548,2.548,0,0,0,1.244-1.546l2.81-8.157a1.707,1.707,0,0,1,2.17-1.059.15.15,0,0,1,.093.192l-3.875,11.256a1.984,1.984,0,0,1-.819,1.029l-3.006,1.912a.774.774,0,1,0,.831,1.306l3-1.91a3.534,3.534,0,0,0,1.455-1.832l3.876-11.259A1.7,1.7,0,0,0,291,285.174Z" transform="translate(-239.695 -255.589)"/>
      </g>
    </g>
  </g>
</svg>
