<svg xmlns="http://www.w3.org/2000/svg" xmlns:xlink="http://www.w3.org/1999/xlink" width="98" height="98" viewBox="0 0 98 98">
  <defs>
    <filter id="Op_component_1" x="0" y="0" width="98" height="98" filterUnits="userSpaceOnUse">
      <feOffset dy="3" input="SourceAlpha"/>
      <feGaussianBlur stdDeviation="3" result="blur"/>
      <feFlood flood-opacity="0.161"/>
      <feComposite operator="in" in2="blur"/>
      <feComposite in="SourceGraphic"/>
    </filter>
  </defs>
  <g id="Grupo_1074231" data-name="Grupo 1074231" transform="translate(-250.569 -5609.568)">
    <g transform="matrix(1, 0, 0, 1, 250.57, 5609.57)" filter="url(#Op_component_1)">
      <path id="Op_component_1-2" data-name="Op component 1" d="M40,0A40,40,0,1,1,0,40,40,40,0,0,1,40,0Z" transform="translate(9 6)" fill="#fff"/>
    </g>
    <path id="Trazado_819972" data-name="Trazado 819972" d="M-6.7-29.859-.031-9.085,6.614-29.859h9.475V0H8.87V-6.973l.7-14.273L2.348,0H-2.41L-9.649-21.267l.7,14.294V0h-7.2V-29.859Z" transform="translate(300 5672.068)" fill="#273a89"/>
    <path id="Op_component_1-3" data-name="Op component 1" d="M35.237,0A35.237,35.237,0,1,1,0,35.237,35.237,35.237,0,0,1,35.237,0Z" transform="translate(264.332 5620.332)" fill="none" stroke="#273a89" stroke-width="1"/>
  </g>
</svg>
