<svg xmlns="http://www.w3.org/2000/svg" xmlns:xlink="http://www.w3.org/1999/xlink" width="122" height="122" viewBox="0 0 122 122">
  <defs>
    <filter id="Trazado_824489" x="0" y="0" width="122" height="122" filterUnits="userSpaceOnUse">
      <feOffset dy="3" input="SourceAlpha"/>
      <feGaussianBlur stdDeviation="7" result="blur"/>
      <feFlood flood-color="#fff" flood-opacity="0.659"/>
      <feComposite operator="in" in2="blur"/>
      <feComposite in="SourceGraphic"/>
    </filter>
  </defs>
  <g id="Grupo_1073878" data-name="Grupo 1073878" transform="translate(-898 -4516)">
    <g transform="matrix(1, 0, 0, 1, 898, 4516)" filter="url(#Trazado_824489)">
      <path id="Trazado_824489-2" data-name="Trazado 824489" d="M40,0A40,40,0,1,1,0,40,40,40,0,0,1,40,0Z" transform="translate(21 18)" fill="#ffce00"/>
    </g>
    <g id="_035---Creative-Writing" data-name="035---Creative-Writing" transform="translate(937.643 4537.927)">
      <g id="Icons" transform="translate(1.142 7.994)">
        <rect id="Rectangle-path" width="38.821" height="46.813" rx="3" transform="translate(0 12.559)" fill="#dfc49c"/>
        <rect id="Rectangle-path-2" data-name="Rectangle-path" width="35.395" height="46.813" rx="3" transform="translate(0 12.559)" fill="#ffe0b2"/>
        <path id="Shape" d="M22.136,15v4.567H13c0-4.016.008-4.429-.011-4.567Z" transform="translate(1.842 2.126)" fill="#9e9e9e"/>
        <path id="Shape-2" data-name="Shape" d="M24.124,13.119a6.251,6.251,0,0,0-1.564,4.008H13.414a6.982,6.982,0,0,0-1.644-4.11,7.993,7.993,0,1,1,12.354.1Z" transform="translate(1.417 -0.001)" fill="#ffec00"/>
        <path id="Shape-3" data-name="Shape" d="M22.134,19v2.284a2.29,2.29,0,0,1-2.284,2.284H15.284A2.29,2.29,0,0,1,13,21.284V19Z" transform="translate(1.843 2.693)" fill="#707070"/>
        <path id="Shape-4" data-name="Shape" d="M19.567,23v2.284a2.284,2.284,0,1,1-4.567,0V23Z" transform="translate(2.127 3.26)" fill="#37474f"/>
        <path id="Shape-5" data-name="Shape" d="M23.346,13.119a6.251,6.251,0,0,0-1.564,4.008H18.356a6.251,6.251,0,0,1,1.564-4.008A8.005,8.005,0,0,0,15.49.183a8.006,8.006,0,0,1,7.856,12.936Z" transform="translate(2.196 -0.001)" fill="#dbcc07"/>
        <path id="Shape-6" data-name="Shape" d="M43.7,28.291,25.121,46.868,18.67,40.405,37.235,21.84Z" transform="translate(2.647 3.096)" fill="#02a9f4"/>
        <path id="Shape-7" data-name="Shape" d="M25.722,44.563c-9.248,3.962-11.1,4.7-11.292,4.83L19.271,38.1Z" transform="translate(2.046 5.401)" fill="#9e9e9e"/>
        <path id="Shape-8" data-name="Shape" d="M46.234,24.219,41.393,29.06,34.93,22.609l4.841-4.853a4.57,4.57,0,0,1,6.463,6.463Z" transform="translate(4.953 2.327)" fill="#02a9f4"/>
        <path id="Shape-9" data-name="Shape" d="M43.179,27.772,24.6,46.349,22.33,44.065,40.9,25.5Z" transform="translate(3.166 3.615)" fill="#0377bc"/>
        <path id="Shape-10" data-name="Shape" d="M25.722,44.042c-9.248,3.962-11.1,4.7-11.292,4.83l1.713-3.985c1.678-.719,4.019-1.724,7.3-3.117Z" transform="translate(2.046 5.921)" fill="#707070"/>
        <path id="Shape-11" data-name="Shape" d="M45.715,24.167l-4.841,4.841L38.59,26.736,43.431,21.9a4.567,4.567,0,0,0,.925-5.115,4.567,4.567,0,0,1,1.359,7.387Z" transform="translate(5.472 2.378)" fill="#0377bc"/>
      </g>
      <g id="Outline" transform="translate(0)">
        <path id="Shape-12" data-name="Shape" d="M12.093,18.561H4.567A4.567,4.567,0,0,0,0,23.128V63.091a4.567,4.567,0,0,0,4.567,4.567h31.97A4.567,4.567,0,0,0,41.1,63.091V52.506a1.142,1.142,0,1,0-2.284,0V63.091a2.284,2.284,0,0,1-2.284,2.284H4.567a2.284,2.284,0,0,1-2.284-2.284V23.128a2.284,2.284,0,0,1,2.284-2.284h8.855A5.835,5.835,0,0,1,14.843,24.5V31.12a3.425,3.425,0,0,0,2.284,3.215c0,1.458-.15,2.641,1,3.759a3.425,3.425,0,0,0,5.853-2.407V34.336a3.425,3.425,0,0,0,2.284-3.215V24.281a5.293,5.293,0,0,1,1.414-3.437h8.863a2.284,2.284,0,0,1,2.284,2.284,1.142,1.142,0,0,0,1.142,1.142c2.389,0,.929-5.709-3.425-5.709H29.021a9.134,9.134,0,1,0-16.928,0Zm11.885,6.851V27.7H17.127V25.412ZM20.552,36.829a1.151,1.151,0,0,1-1.142-1.142V34.546h2.284v1.142A1.142,1.142,0,0,1,20.552,36.829Zm3.425-5.709a1.142,1.142,0,0,1-1.142,1.142H18.269a1.142,1.142,0,0,1-1.142-1.142V29.979h6.851ZM15.985,10.026a6.851,6.851,0,0,1,9.825,9.5,7.627,7.627,0,0,0-1.718,3.6h-2.4V17.419a1.142,1.142,0,0,0-2.284,0v5.709H16.99c-.714-3.689-3.288-4.04-3.288-7.993a6.861,6.861,0,0,1,2.284-5.11Z" transform="translate(0 0.85)"/>
        <path id="Shape-13" data-name="Shape" d="M19.284,3.425V1.142a1.142,1.142,0,1,0-2.284,0V3.425a1.142,1.142,0,1,0,2.284,0Z" transform="translate(2.41)"/>
        <path id="Shape-14" data-name="Shape" d="M29.142,15.284h2.284a1.142,1.142,0,1,0,0-2.284H29.142a1.142,1.142,0,0,0,0,2.284Z" transform="translate(3.97 1.843)"/>
        <path id="Shape-15" data-name="Shape" d="M7.425,13H5.142a1.142,1.142,0,0,0,0,2.284H7.425a1.142,1.142,0,1,0,0-2.284Z" transform="translate(0.567 1.843)"/>
        <path id="Shape-16" data-name="Shape" d="M28.344,22.729,26.73,21.114a1.142,1.142,0,1,0-1.614,1.614l1.613,1.616a1.142,1.142,0,0,0,1.616-1.616Z" transform="translate(3.512 2.944)"/>
        <path id="Shape-17" data-name="Shape" d="M9.757,7.372a1.142,1.142,0,1,0,1.614-1.614L9.757,4.142A1.142,1.142,0,1,0,8.142,5.757Z" transform="translate(1.107 0.54)"/>
        <path id="Shape-18" data-name="Shape" d="M9.757,24.344l1.614-1.614a1.142,1.142,0,1,0-1.614-1.614L8.142,22.729a1.142,1.142,0,1,0,1.616,1.616Z" transform="translate(1.107 2.944)"/>
        <path id="Shape-19" data-name="Shape" d="M26.725,4.142,25.111,5.757a1.142,1.142,0,0,0,1.614,1.614l1.616-1.614a1.142,1.142,0,0,0-1.616-1.616Z" transform="translate(3.515 0.54)"/>
        <path id="Shape-20" data-name="Shape" d="M5,27.142a1.142,1.142,0,0,0,1.142,1.142h4.567a1.142,1.142,0,1,0,0-2.284H6.142A1.142,1.142,0,0,0,5,27.142Z" transform="translate(0.709 3.687)"/>
        <path id="Shape-21" data-name="Shape" d="M27.284,26H26.142a1.142,1.142,0,0,0,0,2.284h1.142a1.142,1.142,0,1,0,0-2.284Z" transform="translate(3.545 3.687)"/>
        <path id="Shape-22" data-name="Shape" d="M6.142,33.284h4.567a1.142,1.142,0,1,0,0-2.284H6.142a1.142,1.142,0,1,0,0,2.284Z" transform="translate(0.709 4.395)"/>
        <path id="Shape-23" data-name="Shape" d="M6.142,43.284H18.827a1.142,1.142,0,1,0,0-2.284H6.142a1.142,1.142,0,1,0,0,2.284Z" transform="translate(0.709 5.813)"/>
        <path id="Shape-24" data-name="Shape" d="M16.989,47.142A1.142,1.142,0,0,0,15.847,46H6.142a1.142,1.142,0,1,0,0,2.284h9.705A1.142,1.142,0,0,0,16.989,47.142Z" transform="translate(0.709 6.522)"/>
        <path id="Shape-25" data-name="Shape" d="M6.142,51a1.142,1.142,0,0,0,0,2.284H13.4A1.142,1.142,0,0,0,13.4,51Z" transform="translate(0.709 7.231)"/>
        <path id="Shape-26" data-name="Shape" d="M6.142,38.284H24.536a1.142,1.142,0,0,0,0-2.284H6.142a1.142,1.142,0,0,0,0,2.284Z" transform="translate(0.709 5.104)"/>
        <path id="Shape-27" data-name="Shape" d="M47.052,22.423c-2.728,0-3.923,1.559-5.652,3.287l-.807-.807a3.425,3.425,0,0,0-4.843,0l-7.266,7.265A1.142,1.142,0,0,0,30.1,33.784l7.266-7.266a1.142,1.142,0,0,1,1.614,0l.807.807c-21.5,21.5-20.286,20.21-20.438,20.561-.457.919,1.634-3.814-4.835,11.283a1.142,1.142,0,0,0,1.053,1.592c.335,0-.542.329,11.752-4.937.464-.2.261-.14,23.771-23.656a5.718,5.718,0,0,0-4.036-9.745ZM17.739,57.45l3.052-7.134,4.074,4.074Zm9.134-4.285-4.849-4.849L38.979,31.36,43.823,36.2ZM49.481,30.557l-4.043,4.034-4.845-4.845,4.037-4.039a3.508,3.508,0,0,1,4.843,0,3.425,3.425,0,0,1,0,4.846Z" transform="translate(2.045 3.179)"/>
      </g>
    </g>
  </g>
</svg>
