<svg xmlns="http://www.w3.org/2000/svg" width="80" height="80" viewBox="0 0 80 80">
  <g id="Grupo_1073055" data-name="Grupo 1073055" transform="translate(-516.569 -5616)">
    <path id="Op_component_1" data-name="Op component 1" d="M40,0A40,40,0,1,1,0,40,40,40,0,0,1,40,0Z" transform="translate(516.569 5616)" fill="#fff"/>
    <path id="Trazado_819973" data-name="Trazado 819973" d="M4.512-7.937A2.958,2.958,0,0,0,3.394-10.4,13.892,13.892,0,0,0-.533-12.223a37.677,37.677,0,0,1-4.594-1.825q-5.8-2.851-5.8-7.834A7.025,7.025,0,0,1-9.485-26.26a9.351,9.351,0,0,1,4.091-2.953A15.921,15.921,0,0,1,.554-30.27a13.927,13.927,0,0,1,5.773,1.148,9.14,9.14,0,0,1,3.968,3.271A8.542,8.542,0,0,1,11.71-21H4.532a3.61,3.61,0,0,0-1.118-2.83,4.356,4.356,0,0,0-3.025-1,4.913,4.913,0,0,0-3.045.851A2.611,2.611,0,0,0-3.773-21.82a2.629,2.629,0,0,0,1.23,2.082,15.517,15.517,0,0,0,4.327,1.928A26.508,26.508,0,0,1,6.87-15.668q4.84,2.789,4.84,7.69A7.291,7.291,0,0,1,8.757-1.825Q5.8.41.656.41a16.071,16.071,0,0,1-6.573-1.3,9.91,9.91,0,0,1-4.43-3.568A9.3,9.3,0,0,1-11.833-9.68h7.219A4.579,4.579,0,0,0-3.374-6.142,5.865,5.865,0,0,0,.656-5a4.633,4.633,0,0,0,2.82-.769A2.538,2.538,0,0,0,4.512-7.937Z" transform="translate(557 5671.27)" fill="#273a89"/>
    <path id="Op_component_1-2" data-name="Op component 1" d="M35.237,0A35.237,35.237,0,1,1,0,35.237,35.237,35.237,0,0,1,35.237,0Z" transform="translate(521.332 5620.5)" fill="none" stroke="#273a89" stroke-width="1"/>
  </g>
</svg>
