<svg xmlns="http://www.w3.org/2000/svg" width="1110" height="168.987" viewBox="0 0 1110 168.987">
  <g id="Grupo_1102280" data-name="Grupo 1102280" transform="translate(-245 -6068.388)">
    <path id="Trazado_883869" data-name="Trazado 883869" d="M3,0H170a3,3,0,0,1,3,3V49a3,3,0,0,1-3,3H3a3,3,0,0,1-3-3V3A3,3,0,0,1,3,0Z" transform="translate(245 6124.375)" fill="#f0c518"/>
    <path id="Trazado_883870" data-name="Trazado 883870" d="M-6.138-10.218H-9.592V0h-2.424V-10.218h-3.4v-1.868h9.28ZM4.221-1.652A4.592,4.592,0,0,1,2.536-.369,6.633,6.633,0,0,1-.353.174,4.886,4.886,0,0,1-3.939-1.2,4.809,4.809,0,0,1-5.333-4.781V-7.3A4.892,4.892,0,0,1-3.98-10.878,4.655,4.655,0,0,1-.5-12.26a4.943,4.943,0,0,1,3.4,1.05,3.449,3.449,0,0,1,1.137,2.8l-.017.05H1.731a1.982,1.982,0,0,0-.556-1.5,2.244,2.244,0,0,0-1.619-.535,2.176,2.176,0,0,0-1.793.859,3.454,3.454,0,0,0-.681,2.212v2.54a3.442,3.442,0,0,0,.7,2.233,2.277,2.277,0,0,0,1.868.863,4.3,4.3,0,0,0,1.365-.174,2.082,2.082,0,0,0,.776-.44V-4.64H-.535V-6.317H4.221Zm8.359-1.5a1.414,1.414,0,0,0-.486-1.121,4.879,4.879,0,0,0-1.706-.8A9.694,9.694,0,0,1,7.213-6.558,2.811,2.811,0,0,1,6.13-8.89a2.933,2.933,0,0,1,1.22-2.428,4.945,4.945,0,0,1,3.113-.942A4.91,4.91,0,0,1,13.7-11.248a3.168,3.168,0,0,1,1.183,2.656l-.017.05H12.513a1.76,1.76,0,0,0-.548-1.39,2.237,2.237,0,0,0-1.536-.486,2.029,2.029,0,0,0-1.386.432,1.406,1.406,0,0,0-.49,1.1,1.206,1.206,0,0,0,.531,1.009,7.107,7.107,0,0,0,1.834.834,7.893,7.893,0,0,1,3.038,1.473A3.018,3.018,0,0,1,15-3.171,2.882,2.882,0,0,1,13.792-.722a5.261,5.261,0,0,1-3.2.9A5.725,5.725,0,0,1,7.238-.8a3.2,3.2,0,0,1-1.357-2.9l.017-.05H8.247a1.9,1.9,0,0,0,.631,1.577,2.656,2.656,0,0,0,1.71.506,2.334,2.334,0,0,0,1.482-.407A1.319,1.319,0,0,0,12.58-3.154Z" transform="translate(331 6157.375)" fill="#12263f"/>
    <path id="Trazado_883871" data-name="Trazado 883871" d="M3,0H140.063a3,3,0,0,1,3,3V41a3,3,0,0,1-3,3H3a3,3,0,0,1-3-3V3A3,3,0,0,1,3,0Z" transform="translate(515.999 6068.388)" fill="#aec4fa"/>
    <path id="Trazado_883872" data-name="Trazado 883872" d="M3,0H140.063a3,3,0,0,1,3,3V41a3,3,0,0,1-3,3H3a3,3,0,0,1-3-3V3A3,3,0,0,1,3,0Z" transform="translate(979.999 6068.388)" fill="#aec4fa"/>
    <path id="Trazado_883873" data-name="Trazado 883873" d="M-42.008-2.867a1.711,1.711,0,0,0-.555-1.3,4.62,4.62,0,0,0-1.953-.891A6.5,6.5,0,0,1-47.223-6.32a2.655,2.655,0,0,1-.973-2.1,2.8,2.8,0,0,1,1.047-2.227,4.05,4.05,0,0,1,2.719-.891,3.971,3.971,0,0,1,2.863,1.02,3.088,3.088,0,0,1,1.035,2.379l-.023.047h-1.469A2.1,2.1,0,0,0-42.7-9.7a2.431,2.431,0,0,0-1.73-.633,2.37,2.37,0,0,0-1.652.523,1.754,1.754,0,0,0-.574,1.359,1.518,1.518,0,0,0,.629,1.238,5.8,5.8,0,0,0,2.043.871,5.8,5.8,0,0,1,2.617,1.313,2.857,2.857,0,0,1,.9,2.141A2.657,2.657,0,0,1-41.551-.672a4.491,4.491,0,0,1-2.824.836,4.8,4.8,0,0,1-2.91-.922,2.81,2.81,0,0,1-1.223-2.469l.016-.047h1.469a1.912,1.912,0,0,0,.813,1.652,3.076,3.076,0,0,0,1.836.582,2.761,2.761,0,0,0,1.73-.492A1.6,1.6,0,0,0-42.008-2.867Zm8.875,1.617A2.863,2.863,0,0,1-34.156-.2,2.8,2.8,0,0,1-35.6.164a2.716,2.716,0,0,1-2.156-.883,4.1,4.1,0,0,1-.773-2.75V-8.453h1.539v5a3.147,3.147,0,0,0,.4,1.859,1.481,1.481,0,0,0,1.242.508A2.531,2.531,0,0,0-34-1.418a2.077,2.077,0,0,0,.809-.941V-8.453h1.539V0h-1.383Zm10.945-2.656a4.645,4.645,0,0,1-.879,2.949A2.9,2.9,0,0,1-25.484.164a3.064,3.064,0,0,1-1.465-.332,2.719,2.719,0,0,1-1.027-.98L-28.227,0h-1.18V-12.187h1.539v4.734a2.671,2.671,0,0,1,.988-.859,3.03,3.03,0,0,1,1.379-.3,2.809,2.809,0,0,1,2.438,1.25,5.622,5.622,0,0,1,.875,3.289Zm-1.539-.164a4.666,4.666,0,0,0-.535-2.371,1.762,1.762,0,0,0-1.629-.918,2.014,2.014,0,0,0-1.2.348,2.452,2.452,0,0,0-.777.934v3.664a2.517,2.517,0,0,0,.777.977,2,2,0,0,0,1.215.352,1.829,1.829,0,0,0,1.617-.773,3.552,3.552,0,0,0,.531-2.047Zm10.617.164a4.659,4.659,0,0,1-.875,2.949A2.893,2.893,0,0,1-16.4.164,3.354,3.354,0,0,1-17.77-.1a2.622,2.622,0,0,1-1-.785V3.25h-1.539v-11.7h1.18l.242,1.094a2.792,2.792,0,0,1,1.031-.93,3.078,3.078,0,0,1,1.438-.32A2.809,2.809,0,0,1-13.98-7.363a5.638,5.638,0,0,1,.871,3.293Zm-1.539-.164a4.467,4.467,0,0,0-.566-2.363,1.835,1.835,0,0,0-1.668-.926,2.054,2.054,0,0,0-1.133.3,2.25,2.25,0,0,0-.758.824v4.086a2.186,2.186,0,0,0,.758.816,2.126,2.126,0,0,0,1.148.293,1.894,1.894,0,0,0,1.656-.8,3.516,3.516,0,0,0,.563-2.066Zm7.43-3.023-.789-.047a1.762,1.762,0,0,0-1.027.289,1.855,1.855,0,0,0-.645.813V0h-1.539V-8.453h1.375L-9.7-7.219a2.934,2.934,0,0,1,.887-1.023,2.073,2.073,0,0,1,1.215-.367,1.9,1.9,0,0,1,.328.027,2.175,2.175,0,0,1,.258.059ZM-6.133-4.3a4.654,4.654,0,0,1,1.016-3.09A3.406,3.406,0,0,1-2.359-8.609,3.439,3.439,0,0,1,.418-7.4,4.639,4.639,0,0,1,1.438-4.3v.172A4.631,4.631,0,0,1,.422-1.039,3.429,3.429,0,0,1-2.344.164a3.436,3.436,0,0,1-2.77-1.207,4.623,4.623,0,0,1-1.02-3.09Zm1.539.172a4.009,4.009,0,0,0,.566,2.219,1.875,1.875,0,0,0,1.684.875A1.87,1.87,0,0,0-.672-1.914,3.988,3.988,0,0,0-.1-4.133V-4.3A3.976,3.976,0,0,0-.676-6.516,1.882,1.882,0,0,0-2.359-7.4a1.856,1.856,0,0,0-1.668.883A4.018,4.018,0,0,0-4.594-4.3ZM6.68-1.039a1.81,1.81,0,0,0,1.242-.473,1.494,1.494,0,0,0,.531-1.16H9.844l.023.047A2.428,2.428,0,0,1,8.93-.684,3.313,3.313,0,0,1,6.68.164,3.319,3.319,0,0,1,3.93-1.047a4.674,4.674,0,0,1-.969-3.016v-.328a4.654,4.654,0,0,1,.973-3A3.317,3.317,0,0,1,6.68-8.609,3.189,3.189,0,0,1,9-7.734a2.775,2.775,0,0,1,.871,2.148l-.016.047h-1.4a1.865,1.865,0,0,0-.5-1.316A1.658,1.658,0,0,0,6.68-7.4a1.777,1.777,0,0,0-1.652.879,4.114,4.114,0,0,0-.52,2.129v.328A4.192,4.192,0,0,0,5.02-1.914,1.776,1.776,0,0,0,6.68-1.039ZM15.2.164A3.576,3.576,0,0,1,12.355-1a4.48,4.48,0,0,1-1.02-3.062v-.344a4.386,4.386,0,0,1,1.051-3.012,3.3,3.3,0,0,1,2.566-1.191A3.067,3.067,0,0,1,17.5-7.555a4.345,4.345,0,0,1,.848,2.8v.813H12.938l-.023.039a3.494,3.494,0,0,0,.563,2.066,1.965,1.965,0,0,0,1.719.793,3.872,3.872,0,0,0,1.371-.223,3.061,3.061,0,0,0,1.012-.613l.6,1a3.7,3.7,0,0,1-1.2.738A4.762,4.762,0,0,1,15.2.164ZM14.953-7.4a1.673,1.673,0,0,0-1.332.621,2.938,2.938,0,0,0-.645,1.59l.016.039H16.8v-.125A2.462,2.462,0,0,0,16.352-6.8,1.638,1.638,0,0,0,14.953-7.4ZM24.984-2.273A1.026,1.026,0,0,0,24.6-3.1a3.732,3.732,0,0,0-1.465-.562,6.146,6.146,0,0,1-2.293-.9,1.814,1.814,0,0,1-.8-1.547,2.229,2.229,0,0,1,.879-1.766A3.433,3.433,0,0,1,23.2-8.609a3.4,3.4,0,0,1,2.328.781,2.239,2.239,0,0,1,.852,1.82l-.016.047H24.891a1.331,1.331,0,0,0-.48-.992A1.717,1.717,0,0,0,23.2-7.4a1.751,1.751,0,0,0-1.215.367,1.146,1.146,0,0,0-.4.875.927.927,0,0,0,.348.773,3.848,3.848,0,0,0,1.434.5,6.058,6.058,0,0,1,2.359.93,1.872,1.872,0,0,1,.8,1.57,2.226,2.226,0,0,1-.91,1.836,3.754,3.754,0,0,1-2.379.711,3.715,3.715,0,0,1-2.547-.82A2.341,2.341,0,0,1,19.8-2.57l.016-.047h1.469a1.424,1.424,0,0,0,.609,1.2,2.358,2.358,0,0,0,1.336.379,2.1,2.1,0,0,0,1.285-.348A1.063,1.063,0,0,0,24.984-2.273ZM28.078-4.3a4.654,4.654,0,0,1,1.016-3.09,3.406,3.406,0,0,1,2.758-1.215A3.439,3.439,0,0,1,34.629-7.4,4.639,4.639,0,0,1,35.648-4.3v.172a4.631,4.631,0,0,1-1.016,3.094,3.429,3.429,0,0,1-2.766,1.2A3.436,3.436,0,0,1,29.1-1.043a4.623,4.623,0,0,1-1.02-3.09Zm1.539.172a4.009,4.009,0,0,0,.566,2.219,1.875,1.875,0,0,0,1.684.875,1.87,1.87,0,0,0,1.672-.875,3.988,3.988,0,0,0,.57-2.219V-4.3a3.976,3.976,0,0,0-.574-2.211A1.882,1.882,0,0,0,31.852-7.4a1.856,1.856,0,0,0-1.668.883A4.018,4.018,0,0,0,29.617-4.3ZM45.938,0H44.391V-9.953l-2.477.023v-1.187l4.023-.422Z" transform="translate(587.999 6097.388)" fill="#12263f"/>
    <path id="Trazado_883874" data-name="Trazado 883874" d="M-42.008-2.867a1.711,1.711,0,0,0-.555-1.3,4.62,4.62,0,0,0-1.953-.891A6.5,6.5,0,0,1-47.223-6.32a2.655,2.655,0,0,1-.973-2.1,2.8,2.8,0,0,1,1.047-2.227,4.05,4.05,0,0,1,2.719-.891,3.971,3.971,0,0,1,2.863,1.02,3.088,3.088,0,0,1,1.035,2.379l-.023.047h-1.469A2.1,2.1,0,0,0-42.7-9.7a2.431,2.431,0,0,0-1.73-.633,2.37,2.37,0,0,0-1.652.523,1.754,1.754,0,0,0-.574,1.359,1.518,1.518,0,0,0,.629,1.238,5.8,5.8,0,0,0,2.043.871,5.8,5.8,0,0,1,2.617,1.313,2.857,2.857,0,0,1,.9,2.141A2.657,2.657,0,0,1-41.551-.672a4.491,4.491,0,0,1-2.824.836,4.8,4.8,0,0,1-2.91-.922,2.81,2.81,0,0,1-1.223-2.469l.016-.047h1.469a1.912,1.912,0,0,0,.813,1.652,3.076,3.076,0,0,0,1.836.582,2.761,2.761,0,0,0,1.73-.492A1.6,1.6,0,0,0-42.008-2.867Zm8.875,1.617A2.863,2.863,0,0,1-34.156-.2,2.8,2.8,0,0,1-35.6.164a2.716,2.716,0,0,1-2.156-.883,4.1,4.1,0,0,1-.773-2.75V-8.453h1.539v5a3.147,3.147,0,0,0,.4,1.859,1.481,1.481,0,0,0,1.242.508A2.531,2.531,0,0,0-34-1.418a2.077,2.077,0,0,0,.809-.941V-8.453h1.539V0h-1.383Zm10.945-2.656a4.645,4.645,0,0,1-.879,2.949A2.9,2.9,0,0,1-25.484.164a3.064,3.064,0,0,1-1.465-.332,2.719,2.719,0,0,1-1.027-.98L-28.227,0h-1.18V-12.187h1.539v4.734a2.671,2.671,0,0,1,.988-.859,3.03,3.03,0,0,1,1.379-.3,2.809,2.809,0,0,1,2.438,1.25,5.622,5.622,0,0,1,.875,3.289Zm-1.539-.164a4.666,4.666,0,0,0-.535-2.371,1.762,1.762,0,0,0-1.629-.918,2.014,2.014,0,0,0-1.2.348,2.452,2.452,0,0,0-.777.934v3.664a2.517,2.517,0,0,0,.777.977,2,2,0,0,0,1.215.352,1.829,1.829,0,0,0,1.617-.773,3.552,3.552,0,0,0,.531-2.047Zm10.617.164a4.659,4.659,0,0,1-.875,2.949A2.893,2.893,0,0,1-16.4.164,3.354,3.354,0,0,1-17.77-.1a2.622,2.622,0,0,1-1-.785V3.25h-1.539v-11.7h1.18l.242,1.094a2.792,2.792,0,0,1,1.031-.93,3.078,3.078,0,0,1,1.438-.32A2.809,2.809,0,0,1-13.98-7.363a5.638,5.638,0,0,1,.871,3.293Zm-1.539-.164a4.467,4.467,0,0,0-.566-2.363,1.835,1.835,0,0,0-1.668-.926,2.054,2.054,0,0,0-1.133.3,2.25,2.25,0,0,0-.758.824v4.086a2.186,2.186,0,0,0,.758.816,2.126,2.126,0,0,0,1.148.293,1.894,1.894,0,0,0,1.656-.8,3.516,3.516,0,0,0,.563-2.066Zm7.43-3.023-.789-.047a1.762,1.762,0,0,0-1.027.289,1.855,1.855,0,0,0-.645.813V0h-1.539V-8.453h1.375L-9.7-7.219a2.934,2.934,0,0,1,.887-1.023,2.073,2.073,0,0,1,1.215-.367,1.9,1.9,0,0,1,.328.027,2.175,2.175,0,0,1,.258.059ZM-6.133-4.3a4.654,4.654,0,0,1,1.016-3.09A3.406,3.406,0,0,1-2.359-8.609,3.439,3.439,0,0,1,.418-7.4,4.639,4.639,0,0,1,1.438-4.3v.172A4.631,4.631,0,0,1,.422-1.039,3.429,3.429,0,0,1-2.344.164a3.436,3.436,0,0,1-2.77-1.207,4.623,4.623,0,0,1-1.02-3.09Zm1.539.172a4.009,4.009,0,0,0,.566,2.219,1.875,1.875,0,0,0,1.684.875A1.87,1.87,0,0,0-.672-1.914,3.988,3.988,0,0,0-.1-4.133V-4.3A3.976,3.976,0,0,0-.676-6.516,1.882,1.882,0,0,0-2.359-7.4a1.856,1.856,0,0,0-1.668.883A4.018,4.018,0,0,0-4.594-4.3ZM6.68-1.039a1.81,1.81,0,0,0,1.242-.473,1.494,1.494,0,0,0,.531-1.16H9.844l.023.047A2.428,2.428,0,0,1,8.93-.684,3.313,3.313,0,0,1,6.68.164,3.319,3.319,0,0,1,3.93-1.047a4.674,4.674,0,0,1-.969-3.016v-.328a4.654,4.654,0,0,1,.973-3A3.317,3.317,0,0,1,6.68-8.609,3.189,3.189,0,0,1,9-7.734a2.775,2.775,0,0,1,.871,2.148l-.016.047h-1.4a1.865,1.865,0,0,0-.5-1.316A1.658,1.658,0,0,0,6.68-7.4a1.777,1.777,0,0,0-1.652.879,4.114,4.114,0,0,0-.52,2.129v.328A4.192,4.192,0,0,0,5.02-1.914,1.776,1.776,0,0,0,6.68-1.039ZM15.2.164A3.576,3.576,0,0,1,12.355-1a4.48,4.48,0,0,1-1.02-3.062v-.344a4.386,4.386,0,0,1,1.051-3.012,3.3,3.3,0,0,1,2.566-1.191A3.067,3.067,0,0,1,17.5-7.555a4.345,4.345,0,0,1,.848,2.8v.813H12.938l-.023.039a3.494,3.494,0,0,0,.563,2.066,1.965,1.965,0,0,0,1.719.793,3.872,3.872,0,0,0,1.371-.223,3.061,3.061,0,0,0,1.012-.613l.6,1a3.7,3.7,0,0,1-1.2.738A4.762,4.762,0,0,1,15.2.164ZM14.953-7.4a1.673,1.673,0,0,0-1.332.621,2.938,2.938,0,0,0-.645,1.59l.016.039H16.8v-.125A2.462,2.462,0,0,0,16.352-6.8,1.638,1.638,0,0,0,14.953-7.4ZM24.984-2.273A1.026,1.026,0,0,0,24.6-3.1a3.732,3.732,0,0,0-1.465-.562,6.146,6.146,0,0,1-2.293-.9,1.814,1.814,0,0,1-.8-1.547,2.229,2.229,0,0,1,.879-1.766A3.433,3.433,0,0,1,23.2-8.609a3.4,3.4,0,0,1,2.328.781,2.239,2.239,0,0,1,.852,1.82l-.016.047H24.891a1.331,1.331,0,0,0-.48-.992A1.717,1.717,0,0,0,23.2-7.4a1.751,1.751,0,0,0-1.215.367,1.146,1.146,0,0,0-.4.875.927.927,0,0,0,.348.773,3.848,3.848,0,0,0,1.434.5,6.058,6.058,0,0,1,2.359.93,1.872,1.872,0,0,1,.8,1.57,2.226,2.226,0,0,1-.91,1.836,3.754,3.754,0,0,1-2.379.711,3.715,3.715,0,0,1-2.547-.82A2.341,2.341,0,0,1,19.8-2.57l.016-.047h1.469a1.424,1.424,0,0,0,.609,1.2,2.358,2.358,0,0,0,1.336.379,2.1,2.1,0,0,0,1.285-.348A1.063,1.063,0,0,0,24.984-2.273ZM28.078-4.3a4.654,4.654,0,0,1,1.016-3.09,3.406,3.406,0,0,1,2.758-1.215A3.439,3.439,0,0,1,34.629-7.4,4.639,4.639,0,0,1,35.648-4.3v.172a4.631,4.631,0,0,1-1.016,3.094,3.429,3.429,0,0,1-2.766,1.2A3.436,3.436,0,0,1,29.1-1.043a4.623,4.623,0,0,1-1.02-3.09Zm1.539.172a4.009,4.009,0,0,0,.566,2.219,1.875,1.875,0,0,0,1.684.875,1.87,1.87,0,0,0,1.672-.875,3.988,3.988,0,0,0,.57-2.219V-4.3a3.976,3.976,0,0,0-.574-2.211A1.882,1.882,0,0,0,31.852-7.4a1.856,1.856,0,0,0-1.668.883A4.018,4.018,0,0,0,29.617-4.3Zm17.75.3h1.57v1.2h-1.57V0H45.836V-2.625H40.953v-.867l4.789-7.883h1.625Zm-4.766,0h3.234V-9.164l-.047-.008-.148.391Z" transform="translate(1051.999 6097.388)" fill="#12263f"/>
    <path id="Trazado_883875" data-name="Trazado 883875" d="M3,0H140a3,3,0,0,1,3,3V41a3,3,0,0,1-3,3H3a3,3,0,0,1-3-3V3A3,3,0,0,1,3,0Z" transform="translate(515.999 6193.375)" fill="#aec4fa"/>
    <path id="Trazado_883876" data-name="Trazado 883876" d="M3,0H140a3,3,0,0,1,3,3V41a3,3,0,0,1-3,3H3a3,3,0,0,1-3-3V3A3,3,0,0,1,3,0Z" transform="translate(979.999 6193.375)" fill="#aec4fa"/>
    <path id="Trazado_883877" data-name="Trazado 883877" d="M-42.008-2.867a1.711,1.711,0,0,0-.555-1.3,4.62,4.62,0,0,0-1.953-.891A6.5,6.5,0,0,1-47.223-6.32a2.655,2.655,0,0,1-.973-2.1,2.8,2.8,0,0,1,1.047-2.227,4.05,4.05,0,0,1,2.719-.891,3.971,3.971,0,0,1,2.863,1.02,3.088,3.088,0,0,1,1.035,2.379l-.023.047h-1.469A2.1,2.1,0,0,0-42.7-9.7a2.431,2.431,0,0,0-1.73-.633,2.37,2.37,0,0,0-1.652.523,1.754,1.754,0,0,0-.574,1.359,1.518,1.518,0,0,0,.629,1.238,5.8,5.8,0,0,0,2.043.871,5.8,5.8,0,0,1,2.617,1.313,2.857,2.857,0,0,1,.9,2.141A2.657,2.657,0,0,1-41.551-.672a4.491,4.491,0,0,1-2.824.836,4.8,4.8,0,0,1-2.91-.922,2.81,2.81,0,0,1-1.223-2.469l.016-.047h1.469a1.912,1.912,0,0,0,.813,1.652,3.076,3.076,0,0,0,1.836.582,2.761,2.761,0,0,0,1.73-.492A1.6,1.6,0,0,0-42.008-2.867Zm8.875,1.617A2.863,2.863,0,0,1-34.156-.2,2.8,2.8,0,0,1-35.6.164a2.716,2.716,0,0,1-2.156-.883,4.1,4.1,0,0,1-.773-2.75V-8.453h1.539v5a3.147,3.147,0,0,0,.4,1.859,1.481,1.481,0,0,0,1.242.508A2.531,2.531,0,0,0-34-1.418a2.077,2.077,0,0,0,.809-.941V-8.453h1.539V0h-1.383Zm10.945-2.656a4.645,4.645,0,0,1-.879,2.949A2.9,2.9,0,0,1-25.484.164a3.064,3.064,0,0,1-1.465-.332,2.719,2.719,0,0,1-1.027-.98L-28.227,0h-1.18V-12.187h1.539v4.734a2.671,2.671,0,0,1,.988-.859,3.03,3.03,0,0,1,1.379-.3,2.809,2.809,0,0,1,2.438,1.25,5.622,5.622,0,0,1,.875,3.289Zm-1.539-.164a4.666,4.666,0,0,0-.535-2.371,1.762,1.762,0,0,0-1.629-.918,2.014,2.014,0,0,0-1.2.348,2.452,2.452,0,0,0-.777.934v3.664a2.517,2.517,0,0,0,.777.977,2,2,0,0,0,1.215.352,1.829,1.829,0,0,0,1.617-.773,3.552,3.552,0,0,0,.531-2.047Zm10.617.164a4.659,4.659,0,0,1-.875,2.949A2.893,2.893,0,0,1-16.4.164,3.354,3.354,0,0,1-17.77-.1a2.622,2.622,0,0,1-1-.785V3.25h-1.539v-11.7h1.18l.242,1.094a2.792,2.792,0,0,1,1.031-.93,3.078,3.078,0,0,1,1.438-.32A2.809,2.809,0,0,1-13.98-7.363a5.638,5.638,0,0,1,.871,3.293Zm-1.539-.164a4.467,4.467,0,0,0-.566-2.363,1.835,1.835,0,0,0-1.668-.926,2.054,2.054,0,0,0-1.133.3,2.25,2.25,0,0,0-.758.824v4.086a2.186,2.186,0,0,0,.758.816,2.126,2.126,0,0,0,1.148.293,1.894,1.894,0,0,0,1.656-.8,3.516,3.516,0,0,0,.563-2.066Zm7.43-3.023-.789-.047a1.762,1.762,0,0,0-1.027.289,1.855,1.855,0,0,0-.645.813V0h-1.539V-8.453h1.375L-9.7-7.219a2.934,2.934,0,0,1,.887-1.023,2.073,2.073,0,0,1,1.215-.367,1.9,1.9,0,0,1,.328.027,2.175,2.175,0,0,1,.258.059ZM-6.133-4.3a4.654,4.654,0,0,1,1.016-3.09A3.406,3.406,0,0,1-2.359-8.609,3.439,3.439,0,0,1,.418-7.4,4.639,4.639,0,0,1,1.438-4.3v.172A4.631,4.631,0,0,1,.422-1.039,3.429,3.429,0,0,1-2.344.164a3.436,3.436,0,0,1-2.77-1.207,4.623,4.623,0,0,1-1.02-3.09Zm1.539.172a4.009,4.009,0,0,0,.566,2.219,1.875,1.875,0,0,0,1.684.875A1.87,1.87,0,0,0-.672-1.914,3.988,3.988,0,0,0-.1-4.133V-4.3A3.976,3.976,0,0,0-.676-6.516,1.882,1.882,0,0,0-2.359-7.4a1.856,1.856,0,0,0-1.668.883A4.018,4.018,0,0,0-4.594-4.3ZM6.68-1.039a1.81,1.81,0,0,0,1.242-.473,1.494,1.494,0,0,0,.531-1.16H9.844l.023.047A2.428,2.428,0,0,1,8.93-.684,3.313,3.313,0,0,1,6.68.164,3.319,3.319,0,0,1,3.93-1.047a4.674,4.674,0,0,1-.969-3.016v-.328a4.654,4.654,0,0,1,.973-3A3.317,3.317,0,0,1,6.68-8.609,3.189,3.189,0,0,1,9-7.734a2.775,2.775,0,0,1,.871,2.148l-.016.047h-1.4a1.865,1.865,0,0,0-.5-1.316A1.658,1.658,0,0,0,6.68-7.4a1.777,1.777,0,0,0-1.652.879,4.114,4.114,0,0,0-.52,2.129v.328A4.192,4.192,0,0,0,5.02-1.914,1.776,1.776,0,0,0,6.68-1.039ZM15.2.164A3.576,3.576,0,0,1,12.355-1a4.48,4.48,0,0,1-1.02-3.062v-.344a4.386,4.386,0,0,1,1.051-3.012,3.3,3.3,0,0,1,2.566-1.191A3.067,3.067,0,0,1,17.5-7.555a4.345,4.345,0,0,1,.848,2.8v.813H12.938l-.023.039a3.494,3.494,0,0,0,.563,2.066,1.965,1.965,0,0,0,1.719.793,3.872,3.872,0,0,0,1.371-.223,3.061,3.061,0,0,0,1.012-.613l.6,1a3.7,3.7,0,0,1-1.2.738A4.762,4.762,0,0,1,15.2.164ZM14.953-7.4a1.673,1.673,0,0,0-1.332.621,2.938,2.938,0,0,0-.645,1.59l.016.039H16.8v-.125A2.462,2.462,0,0,0,16.352-6.8,1.638,1.638,0,0,0,14.953-7.4ZM24.984-2.273A1.026,1.026,0,0,0,24.6-3.1a3.732,3.732,0,0,0-1.465-.562,6.146,6.146,0,0,1-2.293-.9,1.814,1.814,0,0,1-.8-1.547,2.229,2.229,0,0,1,.879-1.766A3.433,3.433,0,0,1,23.2-8.609a3.4,3.4,0,0,1,2.328.781,2.239,2.239,0,0,1,.852,1.82l-.016.047H24.891a1.331,1.331,0,0,0-.48-.992A1.717,1.717,0,0,0,23.2-7.4a1.751,1.751,0,0,0-1.215.367,1.146,1.146,0,0,0-.4.875.927.927,0,0,0,.348.773,3.848,3.848,0,0,0,1.434.5,6.058,6.058,0,0,1,2.359.93,1.872,1.872,0,0,1,.8,1.57,2.226,2.226,0,0,1-.91,1.836,3.754,3.754,0,0,1-2.379.711,3.715,3.715,0,0,1-2.547-.82A2.341,2.341,0,0,1,19.8-2.57l.016-.047h1.469a1.424,1.424,0,0,0,.609,1.2,2.358,2.358,0,0,0,1.336.379,2.1,2.1,0,0,0,1.285-.348A1.063,1.063,0,0,0,24.984-2.273ZM28.078-4.3a4.654,4.654,0,0,1,1.016-3.09,3.406,3.406,0,0,1,2.758-1.215A3.439,3.439,0,0,1,34.629-7.4,4.639,4.639,0,0,1,35.648-4.3v.172a4.631,4.631,0,0,1-1.016,3.094,3.429,3.429,0,0,1-2.766,1.2A3.436,3.436,0,0,1,29.1-1.043a4.623,4.623,0,0,1-1.02-3.09Zm1.539.172a4.009,4.009,0,0,0,.566,2.219,1.875,1.875,0,0,0,1.684.875,1.87,1.87,0,0,0,1.672-.875,3.988,3.988,0,0,0,.57-2.219V-4.3a3.976,3.976,0,0,0-.574-2.211A1.882,1.882,0,0,0,31.852-7.4a1.856,1.856,0,0,0-1.668.883A4.018,4.018,0,0,0,29.617-4.3ZM45.4-11.539a6.679,6.679,0,0,1,1.328.133,4.8,4.8,0,0,1,1.086.336l-.328,1.18a5.748,5.748,0,0,0-.937-.316,4.842,4.842,0,0,0-1.148-.121,2.06,2.06,0,0,0-1.738.914A3.817,3.817,0,0,0,42.992-7.1v.883a3.48,3.48,0,0,1,1.129-.75,3.591,3.591,0,0,1,1.4-.273,2.921,2.921,0,0,1,2.324.984A3.8,3.8,0,0,1,48.7-3.672a3.97,3.97,0,0,1-.957,2.793A3.333,3.333,0,0,1,45.164.164a3.385,3.385,0,0,1-2.641-1.2,4.767,4.767,0,0,1-1.062-3.277V-6.93a4.849,4.849,0,0,1,1.137-3.3A3.572,3.572,0,0,1,45.4-11.539Zm-.367,5.445a2.4,2.4,0,0,0-1.246.309,2.065,2.065,0,0,0-.793.832v.789a3.731,3.731,0,0,0,.629,2.285,1.872,1.872,0,0,0,1.543.84,1.708,1.708,0,0,0,1.48-.73,3.21,3.21,0,0,0,.52-1.9,2.634,2.634,0,0,0-.559-1.766A1.954,1.954,0,0,0,45.031-6.094Z" transform="translate(1051.999 6222.375)" fill="#12263f"/>
    <path id="Trazado_883878" data-name="Trazado 883878" d="M3,0H140a3,3,0,0,1,3,3V41a3,3,0,0,1-3,3H3a3,3,0,0,1-3-3V3A3,3,0,0,1,3,0Z" transform="translate(515.999 6128.375)" fill="#aec4fa"/>
    <path id="Trazado_883879" data-name="Trazado 883879" d="M3,0H140a3,3,0,0,1,3,3V41a3,3,0,0,1-3,3H3a3,3,0,0,1-3-3V3A3,3,0,0,1,3,0Z" transform="translate(979.999 6128.375)" fill="#aec4fa"/>
    <path id="Trazado_883880" data-name="Trazado 883880" d="M3,0H140a3,3,0,0,1,3,3V41a3,3,0,0,1-3,3H3a3,3,0,0,1-3-3V3A3,3,0,0,1,3,0Z" transform="translate(747.999 6128.375)" fill="#1de4cb"/>
    <path id="Trazado_883881" data-name="Trazado 883881" d="M3,0H140a3,3,0,0,1,3,3V41a3,3,0,0,1-3,3H3a3,3,0,0,1-3-3V3A3,3,0,0,1,3,0Z" transform="translate(1211.999 6128.375)" fill="#3cbeae"/>
    <path id="Trazado_883882" data-name="Trazado 883882" d="M-42.008-2.867a1.711,1.711,0,0,0-.555-1.3,4.62,4.62,0,0,0-1.953-.891A6.5,6.5,0,0,1-47.223-6.32a2.655,2.655,0,0,1-.973-2.1,2.8,2.8,0,0,1,1.047-2.227,4.05,4.05,0,0,1,2.719-.891,3.971,3.971,0,0,1,2.863,1.02,3.088,3.088,0,0,1,1.035,2.379l-.023.047h-1.469A2.1,2.1,0,0,0-42.7-9.7a2.431,2.431,0,0,0-1.73-.633,2.37,2.37,0,0,0-1.652.523,1.754,1.754,0,0,0-.574,1.359,1.518,1.518,0,0,0,.629,1.238,5.8,5.8,0,0,0,2.043.871,5.8,5.8,0,0,1,2.617,1.313,2.857,2.857,0,0,1,.9,2.141A2.657,2.657,0,0,1-41.551-.672a4.491,4.491,0,0,1-2.824.836,4.8,4.8,0,0,1-2.91-.922,2.81,2.81,0,0,1-1.223-2.469l.016-.047h1.469a1.912,1.912,0,0,0,.813,1.652,3.076,3.076,0,0,0,1.836.582,2.761,2.761,0,0,0,1.73-.492A1.6,1.6,0,0,0-42.008-2.867Zm8.875,1.617A2.863,2.863,0,0,1-34.156-.2,2.8,2.8,0,0,1-35.6.164a2.716,2.716,0,0,1-2.156-.883,4.1,4.1,0,0,1-.773-2.75V-8.453h1.539v5a3.147,3.147,0,0,0,.4,1.859,1.481,1.481,0,0,0,1.242.508A2.531,2.531,0,0,0-34-1.418a2.077,2.077,0,0,0,.809-.941V-8.453h1.539V0h-1.383Zm10.945-2.656a4.645,4.645,0,0,1-.879,2.949A2.9,2.9,0,0,1-25.484.164a3.064,3.064,0,0,1-1.465-.332,2.719,2.719,0,0,1-1.027-.98L-28.227,0h-1.18V-12.187h1.539v4.734a2.671,2.671,0,0,1,.988-.859,3.03,3.03,0,0,1,1.379-.3,2.809,2.809,0,0,1,2.438,1.25,5.622,5.622,0,0,1,.875,3.289Zm-1.539-.164a4.666,4.666,0,0,0-.535-2.371,1.762,1.762,0,0,0-1.629-.918,2.014,2.014,0,0,0-1.2.348,2.452,2.452,0,0,0-.777.934v3.664a2.517,2.517,0,0,0,.777.977,2,2,0,0,0,1.215.352,1.829,1.829,0,0,0,1.617-.773,3.552,3.552,0,0,0,.531-2.047Zm10.617.164a4.659,4.659,0,0,1-.875,2.949A2.893,2.893,0,0,1-16.4.164,3.354,3.354,0,0,1-17.77-.1a2.622,2.622,0,0,1-1-.785V3.25h-1.539v-11.7h1.18l.242,1.094a2.792,2.792,0,0,1,1.031-.93,3.078,3.078,0,0,1,1.438-.32A2.809,2.809,0,0,1-13.98-7.363a5.638,5.638,0,0,1,.871,3.293Zm-1.539-.164a4.467,4.467,0,0,0-.566-2.363,1.835,1.835,0,0,0-1.668-.926,2.054,2.054,0,0,0-1.133.3,2.25,2.25,0,0,0-.758.824v4.086a2.186,2.186,0,0,0,.758.816,2.126,2.126,0,0,0,1.148.293,1.894,1.894,0,0,0,1.656-.8,3.516,3.516,0,0,0,.563-2.066Zm7.43-3.023-.789-.047a1.762,1.762,0,0,0-1.027.289,1.855,1.855,0,0,0-.645.813V0h-1.539V-8.453h1.375L-9.7-7.219a2.934,2.934,0,0,1,.887-1.023,2.073,2.073,0,0,1,1.215-.367,1.9,1.9,0,0,1,.328.027,2.175,2.175,0,0,1,.258.059ZM-6.133-4.3a4.654,4.654,0,0,1,1.016-3.09A3.406,3.406,0,0,1-2.359-8.609,3.439,3.439,0,0,1,.418-7.4,4.639,4.639,0,0,1,1.438-4.3v.172A4.631,4.631,0,0,1,.422-1.039,3.429,3.429,0,0,1-2.344.164a3.436,3.436,0,0,1-2.77-1.207,4.623,4.623,0,0,1-1.02-3.09Zm1.539.172a4.009,4.009,0,0,0,.566,2.219,1.875,1.875,0,0,0,1.684.875A1.87,1.87,0,0,0-.672-1.914,3.988,3.988,0,0,0-.1-4.133V-4.3A3.976,3.976,0,0,0-.676-6.516,1.882,1.882,0,0,0-2.359-7.4a1.856,1.856,0,0,0-1.668.883A4.018,4.018,0,0,0-4.594-4.3ZM6.68-1.039a1.81,1.81,0,0,0,1.242-.473,1.494,1.494,0,0,0,.531-1.16H9.844l.023.047A2.428,2.428,0,0,1,8.93-.684,3.313,3.313,0,0,1,6.68.164,3.319,3.319,0,0,1,3.93-1.047a4.674,4.674,0,0,1-.969-3.016v-.328a4.654,4.654,0,0,1,.973-3A3.317,3.317,0,0,1,6.68-8.609,3.189,3.189,0,0,1,9-7.734a2.775,2.775,0,0,1,.871,2.148l-.016.047h-1.4a1.865,1.865,0,0,0-.5-1.316A1.658,1.658,0,0,0,6.68-7.4a1.777,1.777,0,0,0-1.652.879,4.114,4.114,0,0,0-.52,2.129v.328A4.192,4.192,0,0,0,5.02-1.914,1.776,1.776,0,0,0,6.68-1.039ZM15.2.164A3.576,3.576,0,0,1,12.355-1a4.48,4.48,0,0,1-1.02-3.062v-.344a4.386,4.386,0,0,1,1.051-3.012,3.3,3.3,0,0,1,2.566-1.191A3.067,3.067,0,0,1,17.5-7.555a4.345,4.345,0,0,1,.848,2.8v.813H12.938l-.023.039a3.494,3.494,0,0,0,.563,2.066,1.965,1.965,0,0,0,1.719.793,3.872,3.872,0,0,0,1.371-.223,3.061,3.061,0,0,0,1.012-.613l.6,1a3.7,3.7,0,0,1-1.2.738A4.762,4.762,0,0,1,15.2.164ZM14.953-7.4a1.673,1.673,0,0,0-1.332.621,2.938,2.938,0,0,0-.645,1.59l.016.039H16.8v-.125A2.462,2.462,0,0,0,16.352-6.8,1.638,1.638,0,0,0,14.953-7.4ZM24.984-2.273A1.026,1.026,0,0,0,24.6-3.1a3.732,3.732,0,0,0-1.465-.562,6.146,6.146,0,0,1-2.293-.9,1.814,1.814,0,0,1-.8-1.547,2.229,2.229,0,0,1,.879-1.766A3.433,3.433,0,0,1,23.2-8.609a3.4,3.4,0,0,1,2.328.781,2.239,2.239,0,0,1,.852,1.82l-.016.047H24.891a1.331,1.331,0,0,0-.48-.992A1.717,1.717,0,0,0,23.2-7.4a1.751,1.751,0,0,0-1.215.367,1.146,1.146,0,0,0-.4.875.927.927,0,0,0,.348.773,3.848,3.848,0,0,0,1.434.5,6.058,6.058,0,0,1,2.359.93,1.872,1.872,0,0,1,.8,1.57,2.226,2.226,0,0,1-.91,1.836,3.754,3.754,0,0,1-2.379.711,3.715,3.715,0,0,1-2.547-.82A2.341,2.341,0,0,1,19.8-2.57l.016-.047h1.469a1.424,1.424,0,0,0,.609,1.2,2.358,2.358,0,0,0,1.336.379,2.1,2.1,0,0,0,1.285-.348A1.063,1.063,0,0,0,24.984-2.273ZM28.078-4.3a4.654,4.654,0,0,1,1.016-3.09,3.406,3.406,0,0,1,2.758-1.215A3.439,3.439,0,0,1,34.629-7.4,4.639,4.639,0,0,1,35.648-4.3v.172a4.631,4.631,0,0,1-1.016,3.094,3.429,3.429,0,0,1-2.766,1.2A3.436,3.436,0,0,1,29.1-1.043a4.623,4.623,0,0,1-1.02-3.09Zm1.539.172a4.009,4.009,0,0,0,.566,2.219,1.875,1.875,0,0,0,1.684.875,1.87,1.87,0,0,0,1.672-.875,3.988,3.988,0,0,0,.57-2.219V-4.3a3.976,3.976,0,0,0-.574-2.211A1.882,1.882,0,0,0,31.852-7.4a1.856,1.856,0,0,0-1.668.883A4.018,4.018,0,0,0,29.617-4.3ZM48.625,0H41.563V-1.055l3.57-4.258a10.726,10.726,0,0,0,1.293-1.84,3.07,3.07,0,0,0,.34-1.379A1.841,1.841,0,0,0,46.3-9.824a1.639,1.639,0,0,0-1.273-.5,1.908,1.908,0,0,0-1.535.617,2.286,2.286,0,0,0-.527,1.539H41.484l-.016-.047a3.068,3.068,0,0,1,.93-2.355,3.566,3.566,0,0,1,2.633-.965,3.31,3.31,0,0,1,2.4.844,2.894,2.894,0,0,1,.875,2.18,3.476,3.476,0,0,1-.5,1.758A19.613,19.613,0,0,1,46.3-4.6L43.43-1.242l.016.039h5.18Z" transform="translate(587.999 6157.375)" fill="#12263f"/>
    <path id="Trazado_883883" data-name="Trazado 883883" d="M-42.008-2.867a1.711,1.711,0,0,0-.555-1.3,4.62,4.62,0,0,0-1.953-.891A6.5,6.5,0,0,1-47.223-6.32a2.655,2.655,0,0,1-.973-2.1,2.8,2.8,0,0,1,1.047-2.227,4.05,4.05,0,0,1,2.719-.891,3.971,3.971,0,0,1,2.863,1.02,3.088,3.088,0,0,1,1.035,2.379l-.023.047h-1.469A2.1,2.1,0,0,0-42.7-9.7a2.431,2.431,0,0,0-1.73-.633,2.37,2.37,0,0,0-1.652.523,1.754,1.754,0,0,0-.574,1.359,1.518,1.518,0,0,0,.629,1.238,5.8,5.8,0,0,0,2.043.871,5.8,5.8,0,0,1,2.617,1.313,2.857,2.857,0,0,1,.9,2.141A2.657,2.657,0,0,1-41.551-.672a4.491,4.491,0,0,1-2.824.836,4.8,4.8,0,0,1-2.91-.922,2.81,2.81,0,0,1-1.223-2.469l.016-.047h1.469a1.912,1.912,0,0,0,.813,1.652,3.076,3.076,0,0,0,1.836.582,2.761,2.761,0,0,0,1.73-.492A1.6,1.6,0,0,0-42.008-2.867Zm8.875,1.617A2.863,2.863,0,0,1-34.156-.2,2.8,2.8,0,0,1-35.6.164a2.716,2.716,0,0,1-2.156-.883,4.1,4.1,0,0,1-.773-2.75V-8.453h1.539v5a3.147,3.147,0,0,0,.4,1.859,1.481,1.481,0,0,0,1.242.508A2.531,2.531,0,0,0-34-1.418a2.077,2.077,0,0,0,.809-.941V-8.453h1.539V0h-1.383Zm10.945-2.656a4.645,4.645,0,0,1-.879,2.949A2.9,2.9,0,0,1-25.484.164a3.064,3.064,0,0,1-1.465-.332,2.719,2.719,0,0,1-1.027-.98L-28.227,0h-1.18V-12.187h1.539v4.734a2.671,2.671,0,0,1,.988-.859,3.03,3.03,0,0,1,1.379-.3,2.809,2.809,0,0,1,2.438,1.25,5.622,5.622,0,0,1,.875,3.289Zm-1.539-.164a4.666,4.666,0,0,0-.535-2.371,1.762,1.762,0,0,0-1.629-.918,2.014,2.014,0,0,0-1.2.348,2.452,2.452,0,0,0-.777.934v3.664a2.517,2.517,0,0,0,.777.977,2,2,0,0,0,1.215.352,1.829,1.829,0,0,0,1.617-.773,3.552,3.552,0,0,0,.531-2.047Zm10.617.164a4.659,4.659,0,0,1-.875,2.949A2.893,2.893,0,0,1-16.4.164,3.354,3.354,0,0,1-17.77-.1a2.622,2.622,0,0,1-1-.785V3.25h-1.539v-11.7h1.18l.242,1.094a2.792,2.792,0,0,1,1.031-.93,3.078,3.078,0,0,1,1.438-.32A2.809,2.809,0,0,1-13.98-7.363a5.638,5.638,0,0,1,.871,3.293Zm-1.539-.164a4.467,4.467,0,0,0-.566-2.363,1.835,1.835,0,0,0-1.668-.926,2.054,2.054,0,0,0-1.133.3,2.25,2.25,0,0,0-.758.824v4.086a2.186,2.186,0,0,0,.758.816,2.126,2.126,0,0,0,1.148.293,1.894,1.894,0,0,0,1.656-.8,3.516,3.516,0,0,0,.563-2.066Zm7.43-3.023-.789-.047a1.762,1.762,0,0,0-1.027.289,1.855,1.855,0,0,0-.645.813V0h-1.539V-8.453h1.375L-9.7-7.219a2.934,2.934,0,0,1,.887-1.023,2.073,2.073,0,0,1,1.215-.367,1.9,1.9,0,0,1,.328.027,2.175,2.175,0,0,1,.258.059ZM-6.133-4.3a4.654,4.654,0,0,1,1.016-3.09A3.406,3.406,0,0,1-2.359-8.609,3.439,3.439,0,0,1,.418-7.4,4.639,4.639,0,0,1,1.438-4.3v.172A4.631,4.631,0,0,1,.422-1.039,3.429,3.429,0,0,1-2.344.164a3.436,3.436,0,0,1-2.77-1.207,4.623,4.623,0,0,1-1.02-3.09Zm1.539.172a4.009,4.009,0,0,0,.566,2.219,1.875,1.875,0,0,0,1.684.875A1.87,1.87,0,0,0-.672-1.914,3.988,3.988,0,0,0-.1-4.133V-4.3A3.976,3.976,0,0,0-.676-6.516,1.882,1.882,0,0,0-2.359-7.4a1.856,1.856,0,0,0-1.668.883A4.018,4.018,0,0,0-4.594-4.3ZM6.68-1.039a1.81,1.81,0,0,0,1.242-.473,1.494,1.494,0,0,0,.531-1.16H9.844l.023.047A2.428,2.428,0,0,1,8.93-.684,3.313,3.313,0,0,1,6.68.164,3.319,3.319,0,0,1,3.93-1.047a4.674,4.674,0,0,1-.969-3.016v-.328a4.654,4.654,0,0,1,.973-3A3.317,3.317,0,0,1,6.68-8.609,3.189,3.189,0,0,1,9-7.734a2.775,2.775,0,0,1,.871,2.148l-.016.047h-1.4a1.865,1.865,0,0,0-.5-1.316A1.658,1.658,0,0,0,6.68-7.4a1.777,1.777,0,0,0-1.652.879,4.114,4.114,0,0,0-.52,2.129v.328A4.192,4.192,0,0,0,5.02-1.914,1.776,1.776,0,0,0,6.68-1.039ZM15.2.164A3.576,3.576,0,0,1,12.355-1a4.48,4.48,0,0,1-1.02-3.062v-.344a4.386,4.386,0,0,1,1.051-3.012,3.3,3.3,0,0,1,2.566-1.191A3.067,3.067,0,0,1,17.5-7.555a4.345,4.345,0,0,1,.848,2.8v.813H12.938l-.023.039a3.494,3.494,0,0,0,.563,2.066,1.965,1.965,0,0,0,1.719.793,3.872,3.872,0,0,0,1.371-.223,3.061,3.061,0,0,0,1.012-.613l.6,1a3.7,3.7,0,0,1-1.2.738A4.762,4.762,0,0,1,15.2.164ZM14.953-7.4a1.673,1.673,0,0,0-1.332.621,2.938,2.938,0,0,0-.645,1.59l.016.039H16.8v-.125A2.462,2.462,0,0,0,16.352-6.8,1.638,1.638,0,0,0,14.953-7.4ZM24.984-2.273A1.026,1.026,0,0,0,24.6-3.1a3.732,3.732,0,0,0-1.465-.562,6.146,6.146,0,0,1-2.293-.9,1.814,1.814,0,0,1-.8-1.547,2.229,2.229,0,0,1,.879-1.766A3.433,3.433,0,0,1,23.2-8.609a3.4,3.4,0,0,1,2.328.781,2.239,2.239,0,0,1,.852,1.82l-.016.047H24.891a1.331,1.331,0,0,0-.48-.992A1.717,1.717,0,0,0,23.2-7.4a1.751,1.751,0,0,0-1.215.367,1.146,1.146,0,0,0-.4.875.927.927,0,0,0,.348.773,3.848,3.848,0,0,0,1.434.5,6.058,6.058,0,0,1,2.359.93,1.872,1.872,0,0,1,.8,1.57,2.226,2.226,0,0,1-.91,1.836,3.754,3.754,0,0,1-2.379.711,3.715,3.715,0,0,1-2.547-.82A2.341,2.341,0,0,1,19.8-2.57l.016-.047h1.469a1.424,1.424,0,0,0,.609,1.2,2.358,2.358,0,0,0,1.336.379,2.1,2.1,0,0,0,1.285-.348A1.063,1.063,0,0,0,24.984-2.273ZM28.078-4.3a4.654,4.654,0,0,1,1.016-3.09,3.406,3.406,0,0,1,2.758-1.215A3.439,3.439,0,0,1,34.629-7.4,4.639,4.639,0,0,1,35.648-4.3v.172a4.631,4.631,0,0,1-1.016,3.094,3.429,3.429,0,0,1-2.766,1.2A3.436,3.436,0,0,1,29.1-1.043a4.623,4.623,0,0,1-1.02-3.09Zm1.539.172a4.009,4.009,0,0,0,.566,2.219,1.875,1.875,0,0,0,1.684.875,1.87,1.87,0,0,0,1.672-.875,3.988,3.988,0,0,0,.57-2.219V-4.3a3.976,3.976,0,0,0-.574-2.211A1.882,1.882,0,0,0,31.852-7.4a1.856,1.856,0,0,0-1.668.883A4.018,4.018,0,0,0,29.617-4.3Zm12.141-.922.656-6.32h5.7v1.367h-4.4l-.367,3.273a3.511,3.511,0,0,1,.813-.449,2.858,2.858,0,0,1,1.016-.184,3.1,3.1,0,0,1,2.473.988,3.992,3.992,0,0,1,.895,2.754,4,4,0,0,1-.918,2.75A3.382,3.382,0,0,1,44.945.164a3.666,3.666,0,0,1-2.406-.789,2.731,2.731,0,0,1-.922-2.32l.016-.047h1.391a1.9,1.9,0,0,0,.535,1.441,1.924,1.924,0,0,0,1.387.512,1.816,1.816,0,0,0,1.516-.687A2.976,2.976,0,0,0,47-3.609a2.71,2.71,0,0,0-.543-1.758,1.835,1.835,0,0,0-1.512-.672,2.416,2.416,0,0,0-1.312.273,1.6,1.6,0,0,0-.6.844Z" transform="translate(1051.999 6157.375)" fill="#12263f"/>
    <path id="Trazado_883884" data-name="Trazado 883884" d="M-36.492-4.93V0h-1.539V-11.367h3.891a4.32,4.32,0,0,1,2.852.828A2.968,2.968,0,0,1-30.3-8.133a2.576,2.576,0,0,1-.457,1.523,3.1,3.1,0,0,1-1.332,1.031,2.331,2.331,0,0,1,1.348.988,3.236,3.236,0,0,1,.41,1.691v1.07a3.564,3.564,0,0,0,.117.953,1.429,1.429,0,0,0,.406.688V0H-31.4a1.273,1.273,0,0,1-.391-.781,6.453,6.453,0,0,1-.086-1.062V-2.883a2.056,2.056,0,0,0-.539-1.484,1.908,1.908,0,0,0-1.445-.562Zm0-1.211h2.2a2.858,2.858,0,0,0,1.879-.5,1.89,1.89,0,0,0,.574-1.512A1.948,1.948,0,0,0-32.4-9.637a2.461,2.461,0,0,0-1.738-.527h-2.352Zm11.93,6.3A3.576,3.576,0,0,1-27.4-1a4.48,4.48,0,0,1-1.02-3.062v-.344a4.386,4.386,0,0,1,1.051-3.012A3.3,3.3,0,0,1-24.8-8.609a3.067,3.067,0,0,1,2.543,1.055,4.345,4.345,0,0,1,.848,2.8v.813H-26.82l-.023.039a3.494,3.494,0,0,0,.563,2.066,1.965,1.965,0,0,0,1.719.793,3.872,3.872,0,0,0,1.371-.223,3.061,3.061,0,0,0,1.012-.613l.6,1a3.7,3.7,0,0,1-1.2.738A4.762,4.762,0,0,1-24.562.164ZM-24.8-7.4a1.673,1.673,0,0,0-1.332.621,2.938,2.938,0,0,0-.645,1.59l.016.039h3.813v-.125A2.462,2.462,0,0,0-23.406-6.8,1.638,1.638,0,0,0-24.8-7.4ZM-18.023,0h-1.539V-12.187h1.539Zm7.563,0q-.078-.383-.121-.676a4.96,4.96,0,0,1-.051-.59,3.589,3.589,0,0,1-1.121,1.02,2.867,2.867,0,0,1-1.488.41,2.763,2.763,0,0,1-2.012-.676,2.486,2.486,0,0,1-.691-1.863,2.183,2.183,0,0,1,.98-1.895,4.579,4.579,0,0,1,2.66-.684h1.672v-.836a1.551,1.551,0,0,0-.453-1.176A1.779,1.779,0,0,0-12.367-7.4a1.859,1.859,0,0,0-1.211.375,1.125,1.125,0,0,0-.461.9l-1.461.016-.016-.047a2.023,2.023,0,0,1,.863-1.687,3.578,3.578,0,0,1,2.371-.766,3.49,3.49,0,0,1,2.313.73,2.588,2.588,0,0,1,.875,2.105V-1.7a7.923,7.923,0,0,0,.047.875A4.5,4.5,0,0,0-8.875,0Zm-2.555-1.125a2.739,2.739,0,0,0,1.508-.43,2.042,2.042,0,0,0,.875-.984V-3.914h-1.727a2.24,2.24,0,0,0-1.488.469,1.4,1.4,0,0,0-.559,1.1,1.159,1.159,0,0,0,.352.891A1.472,1.472,0,0,0-13.016-1.125Zm9.516.086a1.81,1.81,0,0,0,1.242-.473,1.494,1.494,0,0,0,.531-1.16H-.336l.023.047A2.428,2.428,0,0,1-1.25-.684,3.313,3.313,0,0,1-3.5.164,3.319,3.319,0,0,1-6.25-1.047a4.674,4.674,0,0,1-.969-3.016v-.328a4.654,4.654,0,0,1,.973-3A3.317,3.317,0,0,1-3.5-8.609a3.189,3.189,0,0,1,2.316.875A2.775,2.775,0,0,1-.312-5.586l-.016.047h-1.4a1.865,1.865,0,0,0-.5-1.316A1.658,1.658,0,0,0-3.5-7.4a1.777,1.777,0,0,0-1.652.879,4.114,4.114,0,0,0-.52,2.129v.328A4.192,4.192,0,0,0-5.16-1.914,1.776,1.776,0,0,0-3.5-1.039ZM3.18,0H1.641V-8.453H3.18Zm0-10.617H1.641v-1.57H3.18ZM5.188-4.3A4.654,4.654,0,0,1,6.2-7.395,3.406,3.406,0,0,1,8.961-8.609,3.439,3.439,0,0,1,11.738-7.4,4.639,4.639,0,0,1,12.758-4.3v.172a4.631,4.631,0,0,1-1.016,3.094A3.429,3.429,0,0,1,8.977.164a3.436,3.436,0,0,1-2.77-1.207,4.623,4.623,0,0,1-1.02-3.09Zm1.539.172a4.009,4.009,0,0,0,.566,2.219,1.875,1.875,0,0,0,1.684.875,1.87,1.87,0,0,0,1.672-.875,3.988,3.988,0,0,0,.57-2.219V-4.3a3.976,3.976,0,0,0-.574-2.211A1.882,1.882,0,0,0,8.961-7.4a1.856,1.856,0,0,0-1.668.883A4.018,4.018,0,0,0,6.727-4.3Zm9.289-4.32L16.125-7.2a3.069,3.069,0,0,1,1.059-1.043,2.824,2.824,0,0,1,1.449-.371,2.759,2.759,0,0,1,2.117.8,3.515,3.515,0,0,1,.75,2.473V0H19.961V-5.3a2.287,2.287,0,0,0-.441-1.586,1.768,1.768,0,0,0-1.348-.469,2.386,2.386,0,0,0-1.207.285,2.072,2.072,0,0,0-.785.8V0H14.641V-8.453ZM27.234.164A3.576,3.576,0,0,1,24.395-1a4.48,4.48,0,0,1-1.02-3.062v-.344a4.386,4.386,0,0,1,1.051-3.012,3.3,3.3,0,0,1,2.566-1.191,3.067,3.067,0,0,1,2.543,1.055,4.345,4.345,0,0,1,.848,2.8v.813H24.977l-.023.039a3.494,3.494,0,0,0,.563,2.066,1.965,1.965,0,0,0,1.719.793,3.872,3.872,0,0,0,1.371-.223,3.061,3.061,0,0,0,1.012-.613l.6,1a3.7,3.7,0,0,1-1.2.738A4.762,4.762,0,0,1,27.234.164ZM26.992-7.4a1.673,1.673,0,0,0-1.332.621,2.938,2.938,0,0,0-.645,1.59l.016.039h3.813v-.125A2.462,2.462,0,0,0,28.391-6.8,1.638,1.638,0,0,0,26.992-7.4ZM37.023-2.273a1.026,1.026,0,0,0-.387-.828,3.732,3.732,0,0,0-1.465-.562,6.146,6.146,0,0,1-2.293-.9,1.814,1.814,0,0,1-.8-1.547,2.229,2.229,0,0,1,.879-1.766,3.433,3.433,0,0,1,2.277-.734,3.4,3.4,0,0,1,2.328.781,2.239,2.239,0,0,1,.852,1.82l-.016.047H36.93a1.331,1.331,0,0,0-.48-.992A1.717,1.717,0,0,0,35.234-7.4a1.751,1.751,0,0,0-1.215.367,1.146,1.146,0,0,0-.4.875.927.927,0,0,0,.348.773,3.848,3.848,0,0,0,1.434.5,6.058,6.058,0,0,1,2.359.93,1.872,1.872,0,0,1,.8,1.57,2.226,2.226,0,0,1-.91,1.836,3.754,3.754,0,0,1-2.379.711,3.715,3.715,0,0,1-2.547-.82,2.341,2.341,0,0,1-.883-1.914l.016-.047h1.469a1.424,1.424,0,0,0,.609,1.2,2.358,2.358,0,0,0,1.336.379,2.1,2.1,0,0,0,1.285-.348A1.063,1.063,0,0,0,37.023-2.273Z" transform="translate(819.999 6157.375)" fill="#12263f"/>
    <path id="Trazado_883885" data-name="Trazado 883885" d="M-25.637-4.672A4.853,4.853,0,0,1-26.93-1.211,4.4,4.4,0,0,1-30.285.164a4.167,4.167,0,0,1-3.238-1.375A4.959,4.959,0,0,1-34.77-4.672V-6.7a4.977,4.977,0,0,1,1.246-3.461,4.156,4.156,0,0,1,3.238-1.383A4.39,4.39,0,0,1-26.93-10.16,4.867,4.867,0,0,1-25.637-6.7Zm-1.539-2.039a3.837,3.837,0,0,0-.844-2.562,2.813,2.813,0,0,0-2.266-1,2.606,2.606,0,0,0-2.145,1,3.972,3.972,0,0,0-.8,2.563v2.039a4,4,0,0,0,.8,2.578,2.606,2.606,0,0,0,2.145,1,2.815,2.815,0,0,0,2.27-1,3.869,3.869,0,0,0,.84-2.582Zm10.766,2.8a4.645,4.645,0,0,1-.879,2.949A2.9,2.9,0,0,1-19.707.164a3.064,3.064,0,0,1-1.465-.332,2.719,2.719,0,0,1-1.027-.98L-22.449,0h-1.18V-12.187h1.539v4.734a2.671,2.671,0,0,1,.988-.859,3.03,3.03,0,0,1,1.379-.3,2.809,2.809,0,0,1,2.438,1.25A5.622,5.622,0,0,1-16.41-4.07Zm-1.539-.164a4.666,4.666,0,0,0-.535-2.371,1.762,1.762,0,0,0-1.629-.918,2.014,2.014,0,0,0-1.2.348,2.452,2.452,0,0,0-.777.934v3.664a2.517,2.517,0,0,0,.777.977,2,2,0,0,0,1.215.352,1.829,1.829,0,0,0,1.617-.773,3.552,3.552,0,0,0,.531-2.047Zm5.188-4.383V.7a2.807,2.807,0,0,1-.672,2.012,2.452,2.452,0,0,1-1.867.707,2.549,2.549,0,0,1-.441-.035,3.49,3.49,0,0,1-.426-.105l.109-1.211a1.621,1.621,0,0,0,.313.066,2.608,2.608,0,0,0,.336.027,1.02,1.02,0,0,0,.809-.344A1.681,1.681,0,0,0-14.3.7V-8.453Zm-.047-2.2h-1.539v-1.539h1.539ZM-6.895.164A3.576,3.576,0,0,1-9.734-1a4.48,4.48,0,0,1-1.02-3.062v-.344A4.386,4.386,0,0,1-9.7-7.418,3.3,3.3,0,0,1-7.137-8.609,3.067,3.067,0,0,1-4.594-7.555a4.345,4.345,0,0,1,.848,2.8v.813H-9.152l-.023.039a3.494,3.494,0,0,0,.563,2.066,1.965,1.965,0,0,0,1.719.793,3.872,3.872,0,0,0,1.371-.223,3.061,3.061,0,0,0,1.012-.613l.6,1a3.7,3.7,0,0,1-1.2.738A4.762,4.762,0,0,1-6.895.164ZM-7.137-7.4a1.673,1.673,0,0,0-1.332.621,2.938,2.938,0,0,0-.645,1.59l.016.039h3.813v-.125A2.462,2.462,0,0,0-5.738-6.8,1.638,1.638,0,0,0-7.137-7.4ZM.121-10.492v2.039h1.6v1.141H.121V-2.18a1.149,1.149,0,0,0,.246.836A.89.89,0,0,0,1.02-1.1a1.429,1.429,0,0,0,.3-.035,2.2,2.2,0,0,0,.273-.074L1.8-.156a1.36,1.36,0,0,1-.508.23,2.562,2.562,0,0,1-.664.09A1.993,1.993,0,0,1-.863-.4,2.46,2.46,0,0,1-1.418-2.18V-7.312H-2.762V-8.453h1.344v-2.039ZM5.035,0H3.5V-8.453H5.035Zm0-10.617H3.5v-1.57H5.035Zm5.188,8.125.133.594H10.4l.148-.594L12.5-8.453h1.57L10.957,0H9.793L6.645-8.453H8.223ZM14.973-4.3a4.654,4.654,0,0,1,1.016-3.09,3.406,3.406,0,0,1,2.758-1.215A3.439,3.439,0,0,1,21.523-7.4,4.639,4.639,0,0,1,22.543-4.3v.172a4.631,4.631,0,0,1-1.016,3.094,3.429,3.429,0,0,1-2.766,1.2,3.436,3.436,0,0,1-2.77-1.207,4.623,4.623,0,0,1-1.02-3.09Zm1.539.172a4.009,4.009,0,0,0,.566,2.219,1.875,1.875,0,0,0,1.684.875,1.87,1.87,0,0,0,1.672-.875A3.988,3.988,0,0,0,21-4.133V-4.3a3.976,3.976,0,0,0-.574-2.211A1.882,1.882,0,0,0,18.746-7.4a1.856,1.856,0,0,0-1.668.883A4.018,4.018,0,0,0,16.512-4.3ZM29.34-2.273a1.026,1.026,0,0,0-.387-.828,3.732,3.732,0,0,0-1.465-.562,6.146,6.146,0,0,1-2.293-.9,1.814,1.814,0,0,1-.8-1.547,2.229,2.229,0,0,1,.879-1.766,3.433,3.433,0,0,1,2.277-.734,3.4,3.4,0,0,1,2.328.781,2.239,2.239,0,0,1,.852,1.82l-.016.047H29.246a1.331,1.331,0,0,0-.48-.992A1.717,1.717,0,0,0,27.551-7.4a1.751,1.751,0,0,0-1.215.367,1.146,1.146,0,0,0-.4.875.927.927,0,0,0,.348.773,3.848,3.848,0,0,0,1.434.5,6.058,6.058,0,0,1,2.359.93,1.872,1.872,0,0,1,.8,1.57,2.226,2.226,0,0,1-.91,1.836A3.754,3.754,0,0,1,27.59.164a3.715,3.715,0,0,1-2.547-.82A2.341,2.341,0,0,1,24.16-2.57l.016-.047h1.469a1.424,1.424,0,0,0,.609,1.2,2.358,2.358,0,0,0,1.336.379,2.1,2.1,0,0,0,1.285-.348A1.063,1.063,0,0,0,29.34-2.273ZM-40.012,18.164A3.576,3.576,0,0,1-42.852,17a4.48,4.48,0,0,1-1.02-3.062v-.344a4.386,4.386,0,0,1,1.051-3.012,3.3,3.3,0,0,1,2.566-1.191,3.067,3.067,0,0,1,2.543,1.055,4.345,4.345,0,0,1,.848,2.8v.813H-42.27l-.023.039a3.494,3.494,0,0,0,.563,2.066,1.965,1.965,0,0,0,1.719.793,3.872,3.872,0,0,0,1.371-.223,3.061,3.061,0,0,0,1.012-.613l.6,1a3.7,3.7,0,0,1-1.2.738A4.762,4.762,0,0,1-40.012,18.164Zm-.242-7.562a1.673,1.673,0,0,0-1.332.621,2.938,2.938,0,0,0-.645,1.59l.016.039H-38.4v-.125a2.462,2.462,0,0,0-.453-1.523A1.638,1.638,0,0,0-40.254,10.6Zm10.031,5.125a1.026,1.026,0,0,0-.387-.828,3.732,3.732,0,0,0-1.465-.562,6.146,6.146,0,0,1-2.293-.9,1.814,1.814,0,0,1-.8-1.547,2.229,2.229,0,0,1,.879-1.766,3.433,3.433,0,0,1,2.277-.734,3.4,3.4,0,0,1,2.328.781,2.239,2.239,0,0,1,.852,1.82l-.016.047h-1.469a1.331,1.331,0,0,0-.48-.992,1.717,1.717,0,0,0-1.215-.445,1.751,1.751,0,0,0-1.215.367,1.146,1.146,0,0,0-.4.875.927.927,0,0,0,.348.773,3.848,3.848,0,0,0,1.434.5,6.058,6.058,0,0,1,2.359.93,1.872,1.872,0,0,1,.8,1.57,2.226,2.226,0,0,1-.91,1.836,3.754,3.754,0,0,1-2.379.711,3.715,3.715,0,0,1-2.547-.82A2.341,2.341,0,0,1-35.4,15.43l.016-.047h1.469a1.424,1.424,0,0,0,.609,1.2,2.358,2.358,0,0,0,1.336.379,2.1,2.1,0,0,0,1.285-.348A1.063,1.063,0,0,0-30.223,15.727Zm5.594-8.219V9.547h1.6v1.141h-1.6V15.82a1.149,1.149,0,0,0,.246.836.89.89,0,0,0,.652.242,1.429,1.429,0,0,0,.3-.035,2.2,2.2,0,0,0,.273-.074l.211,1.055a1.36,1.36,0,0,1-.508.23,2.562,2.562,0,0,1-.664.09,1.993,1.993,0,0,1-1.492-.566,2.46,2.46,0,0,1-.555-1.777V10.688h-1.344V9.547h1.344V7.508Zm7.25,3.4-.789-.047a1.762,1.762,0,0,0-1.027.289,1.854,1.854,0,0,0-.645.813V18h-1.539V9.547H-20l.148,1.234a2.934,2.934,0,0,1,.887-1.023,2.073,2.073,0,0,1,1.215-.367,1.9,1.9,0,0,1,.328.027,2.175,2.175,0,0,1,.258.059Zm6.8,7.094q-.078-.383-.121-.676a4.96,4.96,0,0,1-.051-.59,3.589,3.589,0,0,1-1.121,1.02,2.867,2.867,0,0,1-1.488.41,2.763,2.763,0,0,1-2.012-.676,2.486,2.486,0,0,1-.691-1.863,2.183,2.183,0,0,1,.98-1.895,4.579,4.579,0,0,1,2.66-.684h1.672v-.836a1.551,1.551,0,0,0-.453-1.176,1.779,1.779,0,0,0-1.281-.434,1.859,1.859,0,0,0-1.211.375,1.125,1.125,0,0,0-.461.9l-1.461.016-.016-.047a2.023,2.023,0,0,1,.863-1.687A3.578,3.578,0,0,1-12.4,9.391a3.49,3.49,0,0,1,2.313.73,2.588,2.588,0,0,1,.875,2.105V16.3a7.923,7.923,0,0,0,.047.875A4.5,4.5,0,0,0-9,18Zm-2.555-1.125a2.739,2.739,0,0,0,1.508-.43,2.042,2.042,0,0,0,.875-.984V14.086H-12.48a2.24,2.24,0,0,0-1.488.469,1.4,1.4,0,0,0-.559,1.1,1.159,1.159,0,0,0,.352.891A1.472,1.472,0,0,0-13.137,16.875Zm8.3-9.367V9.547h1.6v1.141h-1.6V15.82a1.149,1.149,0,0,0,.246.836.89.89,0,0,0,.652.242,1.429,1.429,0,0,0,.3-.035,2.2,2.2,0,0,0,.273-.074l.211,1.055a1.36,1.36,0,0,1-.508.23,2.562,2.562,0,0,1-.664.09A1.993,1.993,0,0,1-5.824,17.6a2.46,2.46,0,0,1-.555-1.777V10.688H-7.723V9.547h1.344V7.508ZM1.91,18.164A3.576,3.576,0,0,1-.93,17a4.48,4.48,0,0,1-1.02-3.062v-.344A4.386,4.386,0,0,1-.9,10.582,3.3,3.3,0,0,1,1.668,9.391a3.067,3.067,0,0,1,2.543,1.055,4.345,4.345,0,0,1,.848,2.8v.813H-.348l-.023.039a3.494,3.494,0,0,0,.563,2.066,1.965,1.965,0,0,0,1.719.793,3.872,3.872,0,0,0,1.371-.223,3.061,3.061,0,0,0,1.012-.613l.6,1a3.7,3.7,0,0,1-1.2.738A4.762,4.762,0,0,1,1.91,18.164ZM1.668,10.6a1.673,1.673,0,0,0-1.332.621,2.938,2.938,0,0,0-.645,1.59l.016.039H3.52v-.125A2.462,2.462,0,0,0,3.066,11.2,1.638,1.638,0,0,0,1.668,10.6Zm.578-4.648h1.8L4.059,6l-2.1,2.031H.8ZM6.512,13.93a5.641,5.641,0,0,1,.871-3.289,2.8,2.8,0,0,1,2.434-1.25,2.966,2.966,0,0,1,1.414.324,2.845,2.845,0,0,1,1.023.934l.188-1.1h1.227v8.5a3.225,3.225,0,0,1-.945,2.5A3.884,3.884,0,0,1,10,21.414a5.717,5.717,0,0,1-1.316-.168,5.147,5.147,0,0,1-1.246-.457l.234-1.2a4.45,4.45,0,0,0,1.074.379,5.517,5.517,0,0,0,1.238.145,2.242,2.242,0,0,0,1.637-.512,2.12,2.12,0,0,0,.512-1.559v-.961a2.725,2.725,0,0,1-.992.8,3.091,3.091,0,0,1-1.336.273,2.89,2.89,0,0,1-2.418-1.121,4.674,4.674,0,0,1-.871-2.949Zm1.539.164a3.592,3.592,0,0,0,.523,2.047,1.817,1.817,0,0,0,1.617.773,2.034,2.034,0,0,0,1.164-.316,2.4,2.4,0,0,0,.773-.895V11.813a2.388,2.388,0,0,0-.773-.855,2.029,2.029,0,0,0-1.148-.316,1.752,1.752,0,0,0-1.629.914,4.718,4.718,0,0,0-.527,2.375ZM17.543,18H16V9.547h1.539Zm0-10.617H16V5.813h1.539Zm5.727,9.578a1.81,1.81,0,0,0,1.242-.473,1.494,1.494,0,0,0,.531-1.16h1.391l.023.047a2.428,2.428,0,0,1-.937,1.941,3.582,3.582,0,0,1-5-.363,4.674,4.674,0,0,1-.969-3.016v-.328a4.654,4.654,0,0,1,.973-3A3.317,3.317,0,0,1,23.27,9.391a3.189,3.189,0,0,1,2.316.875,2.775,2.775,0,0,1,.871,2.148l-.016.047h-1.4a1.865,1.865,0,0,0-.5-1.316,1.658,1.658,0,0,0-1.27-.543,1.777,1.777,0,0,0-1.652.879,4.114,4.114,0,0,0-.52,2.129v.328a4.192,4.192,0,0,0,.512,2.148A1.776,1.776,0,0,0,23.27,16.961ZM27.926,13.7a4.654,4.654,0,0,1,1.016-3.09,3.764,3.764,0,0,1,5.535,0A4.639,4.639,0,0,1,35.5,13.7v.172a4.631,4.631,0,0,1-1.016,3.094,3.781,3.781,0,0,1-5.535,0,4.623,4.623,0,0,1-1.02-3.09Zm1.539.172a4.009,4.009,0,0,0,.566,2.219,2.046,2.046,0,0,0,3.355,0,3.988,3.988,0,0,0,.57-2.219V13.7a3.976,3.976,0,0,0-.574-2.211A1.882,1.882,0,0,0,31.7,10.6a1.856,1.856,0,0,0-1.668.883,4.018,4.018,0,0,0-.566,2.211Zm12.828,1.859a1.026,1.026,0,0,0-.387-.828,3.732,3.732,0,0,0-1.465-.562,6.146,6.146,0,0,1-2.293-.9,1.814,1.814,0,0,1-.8-1.547,2.229,2.229,0,0,1,.879-1.766,3.879,3.879,0,0,1,4.605.047,2.239,2.239,0,0,1,.852,1.82l-.016.047H42.2a1.331,1.331,0,0,0-.48-.992A1.717,1.717,0,0,0,40.5,10.6a1.751,1.751,0,0,0-1.215.367,1.146,1.146,0,0,0-.4.875.927.927,0,0,0,.348.773,3.848,3.848,0,0,0,1.434.5,6.058,6.058,0,0,1,2.359.93,1.872,1.872,0,0,1,.8,1.57,2.226,2.226,0,0,1-.91,1.836,3.754,3.754,0,0,1-2.379.711A3.715,3.715,0,0,1,38,17.344a2.341,2.341,0,0,1-.883-1.914l.016-.047H38.6a1.424,1.424,0,0,0,.609,1.2,2.358,2.358,0,0,0,1.336.379,2.1,2.1,0,0,0,1.285-.348A1.063,1.063,0,0,0,42.293,15.727Z" transform="translate(1283.999 6147.875)" fill="#12263f"/>
    <path id="Trazado_878770" data-name="Trazado 878770" d="M8.578,2.447,0,0,8.557,13.27l.021-.027.021.027L17.156,0Z" transform="translate(490.104 6213.233) rotate(-53)" fill="#3a1d71"/>
    <path id="Trazado_878794" data-name="Trazado 878794" d="M8.578,2.447,0,0,8.557,13.27l.021-.027.021.027L17.156,0Z" transform="translate(954.104 6213.233) rotate(-53)" fill="#3a1d71"/>
    <path id="Trazado_878782" data-name="Trazado 878782" d="M8.578,10.823,0,13.27,8.557,0l.021.027L8.6,0l8.557,13.27Z" transform="matrix(0.602, 0.799, -0.799, 0.602, 732.702, 6161.849)" fill="#3a1d71"/>
    <path id="Trazado_878783" data-name="Trazado 878783" d="M8.578,10.823,0,13.27,8.557,0l.021.027L8.6,0l8.557,13.27Z" transform="matrix(0.602, 0.799, -0.799, 0.602, 1196.702, 6161.849)" fill="#3a1d71"/>
    <path id="Trazado_878769" data-name="Trazado 878769" d="M8.578,10.823,0,13.27,8.557,0l.021.027L8.6,0l8.557,13.27Z" transform="translate(507.2 6142.375) rotate(90)" fill="#3a1d71"/>
    <path id="Trazado_878784" data-name="Trazado 878784" d="M8.578,10.823,0,13.27,8.557,0l.021.027L8.6,0l8.557,13.27Z" transform="translate(971.2 6142.375) rotate(90)" fill="#3a1d71"/>
    <path id="Trazado_878779" data-name="Trazado 878779" d="M8.578,10.823,0,13.27,8.557,0l.021.027L8.6,0l8.557,13.27Z" transform="translate(739.2 6142.375) rotate(90)" fill="#3a1d71"/>
    <path id="Trazado_878785" data-name="Trazado 878785" d="M8.578,10.823,0,13.27,8.557,0l.021.027L8.6,0l8.557,13.27Z" transform="translate(1203.2 6142.375) rotate(90)" fill="#3a1d71"/>
    <path id="Trazado_878771" data-name="Trazado 878771" d="M-7985-5473h65.955" transform="translate(8417.337 11623.875)" fill="none" stroke="#3a1d71" stroke-width="1"/>
    <path id="Trazado_878786" data-name="Trazado 878786" d="M-7985-5473h65.955" transform="translate(8881.337 11623.875)" fill="none" stroke="#3a1d71" stroke-width="1"/>
    <path id="Trazado_878780" data-name="Trazado 878780" d="M-7985-5473h65.955" transform="translate(8649.337 11623.875)" fill="none" stroke="#3a1d71" stroke-width="1"/>
    <path id="Trazado_878787" data-name="Trazado 878787" d="M-7985-5473h65.955" transform="translate(9113.337 11623.875)" fill="none" stroke="#3a1d71" stroke-width="1"/>
    <path id="Trazado_878772" data-name="Trazado 878772" d="M-7983.259-5500.87l63.473,46.495" transform="translate(8417.337 11662.719)" fill="none" stroke="#3a1d71" stroke-width="1"/>
    <path id="Trazado_878788" data-name="Trazado 878788" d="M-7983.259-5500.87l63.473,46.495" transform="translate(8881.337 11662.719)" fill="none" stroke="#3a1d71" stroke-width="1"/>
    <path id="Trazado_878781" data-name="Trazado 878781" d="M-7983.259-5454.375l63.473-46.495" transform="translate(8649.337 11675.596)" fill="none" stroke="#3a1d71" stroke-width="1"/>
    <path id="Trazado_878793" data-name="Trazado 878793" d="M-7983.259-5454.375l63.473-46.495" transform="translate(9113.337 11675.596)" fill="none" stroke="#3a1d71" stroke-width="1"/>
    <path id="Trazado_878773" data-name="Trazado 878773" d="M8.578,10.823,0,13.27,8.557,0l.021.027L8.6,0l8.557,13.27Z" transform="matrix(0.602, 0.799, -0.799, 0.602, 500.702, 6082.703)" fill="#3a1d71"/>
    <path id="Trazado_878789" data-name="Trazado 878789" d="M8.578,10.823,0,13.27,8.557,0l.021.027L8.6,0l8.557,13.27Z" transform="matrix(0.602, 0.799, -0.799, 0.602, 964.702, 6082.703)" fill="#3a1d71"/>
    <path id="Trazado_878777" data-name="Trazado 878777" d="M8.578,2.447,0,0,8.557,13.27l.021-.027.021.027L17.156,0Z" transform="matrix(0.602, -0.799, 0.799, 0.602, 722.104, 6134.087)" fill="#3a1d71"/>
    <path id="Trazado_878790" data-name="Trazado 878790" d="M8.578,2.447,0,0,8.557,13.27l.021-.027.021.027L17.156,0Z" transform="matrix(0.602, -0.799, 0.799, 0.602, 1186.104, 6134.087)" fill="#3a1d71"/>
    <path id="Trazado_878774" data-name="Trazado 878774" d="M-7983.259-5454.375l63.473-46.495" transform="translate(8417.337 11596.449)" fill="none" stroke="#3a1d71" stroke-width="1"/>
    <path id="Trazado_878791" data-name="Trazado 878791" d="M-7983.259-5454.375l63.473-46.495" transform="translate(8881.337 11596.449)" fill="none" stroke="#3a1d71" stroke-width="1"/>
    <path id="Trazado_878778" data-name="Trazado 878778" d="M-7983.259-5500.871l63.473,46.495" transform="translate(8649.337 11583.574)" fill="none" stroke="#3a1d71" stroke-width="1"/>
    <path id="Trazado_878792" data-name="Trazado 878792" d="M-7983.259-5500.871l63.473,46.495" transform="translate(9113.337 11583.574)" fill="none" stroke="#3a1d71" stroke-width="1"/>
    <path id="Trazado_883886" data-name="Trazado 883886" d="M-42.008-2.867a1.711,1.711,0,0,0-.555-1.3,4.62,4.62,0,0,0-1.953-.891A6.5,6.5,0,0,1-47.223-6.32a2.655,2.655,0,0,1-.973-2.1,2.8,2.8,0,0,1,1.047-2.227,4.05,4.05,0,0,1,2.719-.891,3.971,3.971,0,0,1,2.863,1.02,3.088,3.088,0,0,1,1.035,2.379l-.023.047h-1.469A2.1,2.1,0,0,0-42.7-9.7a2.431,2.431,0,0,0-1.73-.633,2.37,2.37,0,0,0-1.652.523,1.754,1.754,0,0,0-.574,1.359,1.518,1.518,0,0,0,.629,1.238,5.8,5.8,0,0,0,2.043.871,5.8,5.8,0,0,1,2.617,1.313,2.857,2.857,0,0,1,.9,2.141A2.657,2.657,0,0,1-41.551-.672a4.491,4.491,0,0,1-2.824.836,4.8,4.8,0,0,1-2.91-.922,2.81,2.81,0,0,1-1.223-2.469l.016-.047h1.469a1.912,1.912,0,0,0,.813,1.652,3.076,3.076,0,0,0,1.836.582,2.761,2.761,0,0,0,1.73-.492A1.6,1.6,0,0,0-42.008-2.867Zm8.875,1.617A2.863,2.863,0,0,1-34.156-.2,2.8,2.8,0,0,1-35.6.164a2.716,2.716,0,0,1-2.156-.883,4.1,4.1,0,0,1-.773-2.75V-8.453h1.539v5a3.147,3.147,0,0,0,.4,1.859,1.481,1.481,0,0,0,1.242.508A2.531,2.531,0,0,0-34-1.418a2.077,2.077,0,0,0,.809-.941V-8.453h1.539V0h-1.383Zm10.945-2.656a4.645,4.645,0,0,1-.879,2.949A2.9,2.9,0,0,1-25.484.164a3.064,3.064,0,0,1-1.465-.332,2.719,2.719,0,0,1-1.027-.98L-28.227,0h-1.18V-12.187h1.539v4.734a2.671,2.671,0,0,1,.988-.859,3.03,3.03,0,0,1,1.379-.3,2.809,2.809,0,0,1,2.438,1.25,5.622,5.622,0,0,1,.875,3.289Zm-1.539-.164a4.666,4.666,0,0,0-.535-2.371,1.762,1.762,0,0,0-1.629-.918,2.014,2.014,0,0,0-1.2.348,2.452,2.452,0,0,0-.777.934v3.664a2.517,2.517,0,0,0,.777.977,2,2,0,0,0,1.215.352,1.829,1.829,0,0,0,1.617-.773,3.552,3.552,0,0,0,.531-2.047Zm10.617.164a4.659,4.659,0,0,1-.875,2.949A2.893,2.893,0,0,1-16.4.164,3.354,3.354,0,0,1-17.77-.1a2.622,2.622,0,0,1-1-.785V3.25h-1.539v-11.7h1.18l.242,1.094a2.792,2.792,0,0,1,1.031-.93,3.078,3.078,0,0,1,1.438-.32A2.809,2.809,0,0,1-13.98-7.363a5.638,5.638,0,0,1,.871,3.293Zm-1.539-.164a4.467,4.467,0,0,0-.566-2.363,1.835,1.835,0,0,0-1.668-.926,2.054,2.054,0,0,0-1.133.3,2.25,2.25,0,0,0-.758.824v4.086a2.186,2.186,0,0,0,.758.816,2.126,2.126,0,0,0,1.148.293,1.894,1.894,0,0,0,1.656-.8,3.516,3.516,0,0,0,.563-2.066Zm7.43-3.023-.789-.047a1.762,1.762,0,0,0-1.027.289,1.855,1.855,0,0,0-.645.813V0h-1.539V-8.453h1.375L-9.7-7.219a2.934,2.934,0,0,1,.887-1.023,2.073,2.073,0,0,1,1.215-.367,1.9,1.9,0,0,1,.328.027,2.175,2.175,0,0,1,.258.059ZM-6.133-4.3a4.654,4.654,0,0,1,1.016-3.09A3.406,3.406,0,0,1-2.359-8.609,3.439,3.439,0,0,1,.418-7.4,4.639,4.639,0,0,1,1.438-4.3v.172A4.631,4.631,0,0,1,.422-1.039,3.429,3.429,0,0,1-2.344.164a3.436,3.436,0,0,1-2.77-1.207,4.623,4.623,0,0,1-1.02-3.09Zm1.539.172a4.009,4.009,0,0,0,.566,2.219,1.875,1.875,0,0,0,1.684.875A1.87,1.87,0,0,0-.672-1.914,3.988,3.988,0,0,0-.1-4.133V-4.3A3.976,3.976,0,0,0-.676-6.516,1.882,1.882,0,0,0-2.359-7.4a1.856,1.856,0,0,0-1.668.883A4.018,4.018,0,0,0-4.594-4.3ZM6.68-1.039a1.81,1.81,0,0,0,1.242-.473,1.494,1.494,0,0,0,.531-1.16H9.844l.023.047A2.428,2.428,0,0,1,8.93-.684,3.313,3.313,0,0,1,6.68.164,3.319,3.319,0,0,1,3.93-1.047a4.674,4.674,0,0,1-.969-3.016v-.328a4.654,4.654,0,0,1,.973-3A3.317,3.317,0,0,1,6.68-8.609,3.189,3.189,0,0,1,9-7.734a2.775,2.775,0,0,1,.871,2.148l-.016.047h-1.4a1.865,1.865,0,0,0-.5-1.316A1.658,1.658,0,0,0,6.68-7.4a1.777,1.777,0,0,0-1.652.879,4.114,4.114,0,0,0-.52,2.129v.328A4.192,4.192,0,0,0,5.02-1.914,1.776,1.776,0,0,0,6.68-1.039ZM15.2.164A3.576,3.576,0,0,1,12.355-1a4.48,4.48,0,0,1-1.02-3.062v-.344a4.386,4.386,0,0,1,1.051-3.012,3.3,3.3,0,0,1,2.566-1.191A3.067,3.067,0,0,1,17.5-7.555a4.345,4.345,0,0,1,.848,2.8v.813H12.938l-.023.039a3.494,3.494,0,0,0,.563,2.066,1.965,1.965,0,0,0,1.719.793,3.872,3.872,0,0,0,1.371-.223,3.061,3.061,0,0,0,1.012-.613l.6,1a3.7,3.7,0,0,1-1.2.738A4.762,4.762,0,0,1,15.2.164ZM14.953-7.4a1.673,1.673,0,0,0-1.332.621,2.938,2.938,0,0,0-.645,1.59l.016.039H16.8v-.125A2.462,2.462,0,0,0,16.352-6.8,1.638,1.638,0,0,0,14.953-7.4ZM24.984-2.273A1.026,1.026,0,0,0,24.6-3.1a3.732,3.732,0,0,0-1.465-.562,6.146,6.146,0,0,1-2.293-.9,1.814,1.814,0,0,1-.8-1.547,2.229,2.229,0,0,1,.879-1.766A3.433,3.433,0,0,1,23.2-8.609a3.4,3.4,0,0,1,2.328.781,2.239,2.239,0,0,1,.852,1.82l-.016.047H24.891a1.331,1.331,0,0,0-.48-.992A1.717,1.717,0,0,0,23.2-7.4a1.751,1.751,0,0,0-1.215.367,1.146,1.146,0,0,0-.4.875.927.927,0,0,0,.348.773,3.848,3.848,0,0,0,1.434.5,6.058,6.058,0,0,1,2.359.93,1.872,1.872,0,0,1,.8,1.57,2.226,2.226,0,0,1-.91,1.836,3.754,3.754,0,0,1-2.379.711,3.715,3.715,0,0,1-2.547-.82A2.341,2.341,0,0,1,19.8-2.57l.016-.047h1.469a1.424,1.424,0,0,0,.609,1.2,2.358,2.358,0,0,0,1.336.379,2.1,2.1,0,0,0,1.285-.348A1.063,1.063,0,0,0,24.984-2.273ZM28.078-4.3a4.654,4.654,0,0,1,1.016-3.09,3.406,3.406,0,0,1,2.758-1.215A3.439,3.439,0,0,1,34.629-7.4,4.639,4.639,0,0,1,35.648-4.3v.172a4.631,4.631,0,0,1-1.016,3.094,3.429,3.429,0,0,1-2.766,1.2A3.436,3.436,0,0,1,29.1-1.043a4.623,4.623,0,0,1-1.02-3.09Zm1.539.172a4.009,4.009,0,0,0,.566,2.219,1.875,1.875,0,0,0,1.684.875,1.87,1.87,0,0,0,1.672-.875,3.988,3.988,0,0,0,.57-2.219V-4.3a3.976,3.976,0,0,0-.574-2.211A1.882,1.882,0,0,0,31.852-7.4a1.856,1.856,0,0,0-1.668.883A4.018,4.018,0,0,0,29.617-4.3Zm15.3-2.336a1.8,1.8,0,0,0,1.457-.512A2.179,2.179,0,0,0,46.8-8.414,2.02,2.02,0,0,0,46.332-9.8a1.741,1.741,0,0,0-1.379-.527,2.057,2.057,0,0,0-1.473.551A1.819,1.819,0,0,0,42.9-8.4H41.43l-.023-.047a2.718,2.718,0,0,1,.969-2.187,3.709,3.709,0,0,1,2.578-.906,3.6,3.6,0,0,1,2.484.8,2.991,2.991,0,0,1,.9,2.355,2.65,2.65,0,0,1-.418,1.453A2.818,2.818,0,0,1,46.75-5.906a2.688,2.688,0,0,1,1.309,1.043,3.063,3.063,0,0,1,.449,1.691A3.122,3.122,0,0,1,47.52-.723a3.7,3.7,0,0,1-2.566.887,4.064,4.064,0,0,1-2.559-.855,2.62,2.62,0,0,1-1.066-2.262L41.344-3h1.469a1.846,1.846,0,0,0,.6,1.395,2.152,2.152,0,0,0,1.543.566,1.914,1.914,0,0,0,1.477-.582,2.147,2.147,0,0,0,.539-1.52,2.273,2.273,0,0,0-.5-1.6,2.041,2.041,0,0,0-1.559-.531H43.648v-1.2Z" transform="translate(587.999 6221.875)" fill="#12263f"/>
  </g>
</svg>
