<svg xmlns="http://www.w3.org/2000/svg" xmlns:xlink="http://www.w3.org/1999/xlink" width="122" height="122" viewBox="0 0 122 122">
  <defs>
    <filter id="Trazado_824490" x="0" y="0" width="122" height="122" filterUnits="userSpaceOnUse">
      <feOffset dy="3" input="SourceAlpha"/>
      <feGaussianBlur stdDeviation="7" result="blur"/>
      <feFlood flood-color="#fff" flood-opacity="0.659"/>
      <feComposite operator="in" in2="blur"/>
      <feComposite in="SourceGraphic"/>
    </filter>
  </defs>
  <g id="Grupo_1073879" data-name="Grupo 1073879" transform="translate(-1213 -4516)">
    <g transform="matrix(1, 0, 0, 1, 1213, 4516)" filter="url(#Trazado_824490)">
      <path id="Trazado_824490-2" data-name="Trazado 824490" d="M40,0A40,40,0,1,1,0,40,40,40,0,0,1,40,0Z" transform="translate(21 18)" fill="#ffce00"/>
    </g>
    <g id="_07-Solution" data-name="07-Solution" transform="translate(1246.854 4546.553)">
      <path id="Trazado_824544" data-name="Trazado 824544" d="M2,39.867H7.9v.7A2.626,2.626,0,0,0,10.3,43.241a2.53,2.53,0,0,0,2.666-2.53v-.843h5.9v-5.9h-.7a2.626,2.626,0,0,1-2.673-2.394,2.53,2.53,0,0,1,2.53-2.666h.843V23H3.687A1.687,1.687,0,0,0,2,24.687Z" transform="translate(-0.157 -3.599)" fill="#7cd1ff"/>
      <path id="Trazado_824545" data-name="Trazado 824545" d="M11.769,43.843a2.522,2.522,0,0,1-1.243,2.172,2.361,2.361,0,0,0,1.107.358,2.53,2.53,0,0,0,2.666-2.53V43h-2.53Z" transform="translate(-1.492 -6.732)" fill="#7099cf"/>
      <path id="Trazado_824546" data-name="Trazado 824546" d="M20.059,28.9H20.9V23h-2.53v5.9h-.843A2.53,2.53,0,0,0,15,31.569a2.626,2.626,0,0,0,2.673,2.394h.7v5.9H20.9v-5.9h-.7a2.626,2.626,0,0,1-2.673-2.394,2.53,2.53,0,0,1,2.53-2.666Z" transform="translate(-2.192 -3.599)" fill="#7099cf"/>
      <path id="Trazado_824547" data-name="Trazado 824547" d="M18.867,59.867v-5.9h.7a2.626,2.626,0,0,0,2.673-2.394,2.53,2.53,0,0,0-2.53-2.666h-.843V43h-5.9v.7a2.626,2.626,0,0,1-2.394,2.673A2.53,2.53,0,0,1,7.9,43.843V43H2V58.181a1.687,1.687,0,0,0,1.687,1.687Z" transform="translate(-0.157 -6.732)" fill="#b2876d"/>
      <path id="Trazado_824548" data-name="Trazado 824548" d="M22.53,48.9h-.843V43H20v5.9h.843a2.53,2.53,0,0,1,2.53,2.666A2.626,2.626,0,0,1,20.7,53.964H20v5.9h1.687v-5.9h.7a2.626,2.626,0,0,0,2.673-2.394A2.53,2.53,0,0,0,22.53,48.9Z" transform="translate(-2.976 -6.732)" fill="#966857"/>
      <path id="Trazado_824549" data-name="Trazado 824549" d="M9.666,46.373a2.339,2.339,0,0,0,.685-.152,2.53,2.53,0,0,1-1.664-2.378V43H7v.843a2.53,2.53,0,0,0,2.666,2.53Z" transform="translate(-0.94 -6.732)" fill="#966857"/>
      <path id="Trazado_824550" data-name="Trazado 824550" d="M38.867,42.373h-5.9v-.7A2.626,2.626,0,0,0,30.569,39a2.53,2.53,0,0,0-2.666,2.53v.843H22v5.9h.7a2.626,2.626,0,0,1,2.673,2.394,2.53,2.53,0,0,1-2.53,2.666H22v5.9H37.181a1.687,1.687,0,0,0,1.687-1.687Z" transform="translate(-3.289 -6.104)" fill="#95e8c8"/>
      <path id="Trazado_824551" data-name="Trazado 824551" d="M31.761,41.673v.7h2.53v-.7A2.626,2.626,0,0,0,31.9,39a2.521,2.521,0,0,0-1.423.354,2.726,2.726,0,0,1,1.287,2.319Z" transform="translate(-4.617 -6.105)" fill="#06ccab"/>
      <path id="Trazado_824552" data-name="Trazado 824552" d="M38.687,43V58.181A1.687,1.687,0,0,1,37,59.867h2.53a1.687,1.687,0,0,0,1.687-1.687V43Z" transform="translate(-5.639 -6.732)" fill="#06ccab"/>
      <path id="Trazado_824553" data-name="Trazado 824553" d="M59.494,42v5.06H46V42H59.494Z" transform="translate(-7.049 -6.575)" fill="#a0cbe0"/>
      <path id="Trazado_824554" data-name="Trazado 824554" d="M47,48H58.807V60.65H47Z" transform="translate(-7.205 -7.515)" fill="#314a66"/>
      <path id="Trazado_824555" data-name="Trazado 824555" d="M58.807,51.373V48H47V60.65h3.373v-.843a8.434,8.434,0,0,1,8.434-8.434Z" transform="translate(-7.205 -7.515)" fill="#2c4354"/>
      <path id="Trazado_824556" data-name="Trazado 824556" d="M46.59,32.725c-4.217-2.134-4.217-9.53-4.217-9.53l-.464-.464L39,19.821l2.53-2.53.565.565,4.5,4.5,2.53,2.53V15.3l1.687-1.737L45.494,8.09l6.157.767,6.747,5.9L56.711,33.315v3.373H52.494a3.3,3.3,0,0,1-3.373-3.373A5.313,5.313,0,0,1,46.59,32.725Z" transform="translate(-5.952 -1.263)" fill="#ffbeaa"/>
      <path id="Trazado_824557" data-name="Trazado 824557" d="M53.9,41.264H48V37.3a5.313,5.313,0,0,0,2.53.59A3.3,3.3,0,0,0,53.9,41.264Z" transform="translate(-7.362 -5.839)" fill="#faa68e"/>
      <path id="Trazado_824558" data-name="Trazado 824558" d="M46.927,14.19l-2.446,2.522-.084-.084-.506-.531a2.459,2.459,0,0,0-3.635.1,2.029,2.029,0,0,0-.354.548l-.565-.565-2.53,2.53,2.91,2.91-2.91,2.994-4.132-4.259-.59.607a2.446,2.446,0,0,1-3.635-.1,2.732,2.732,0,0,1,.194-3.652l.489-.5L25,12.453,35.626,1.506a1.63,1.63,0,0,1,2.361,0L43.3,6.979l5.313,5.473Z" transform="translate(-3.759 -0.153)" fill="#fbb040"/>
      <path id="Trazado_824559" data-name="Trazado 824559" d="M48.747,17.291l-.506-.531a2.459,2.459,0,0,0-3.635.1,2.029,2.029,0,0,0-.354.548l-.565-.565L42,18.531l.565.565a2.029,2.029,0,0,1,.354-.548,2.459,2.459,0,0,1,3.635-.1l.506.531.084.084,1.661-1.712Z" transform="translate(-6.422 -2.504)" fill="#f7941d"/>
      <path id="Trazado_824560" data-name="Trazado 824560" d="M34.361,18.721l-.59.607a2.446,2.446,0,0,1-3.635-.1,2.733,2.733,0,0,1,.194-3.652l.489-.5-4.132-4.259,9.207-9.485a1.675,1.675,0,0,0-.267.225L25,12.505l4.132,4.259-.489.5a2.732,2.732,0,0,0-.194,3.652,2.446,2.446,0,0,0,3.635.1l.59-.607,4.132,4.259,1.663-1.711Z" transform="translate(-3.759 -0.205)" fill="#f7941d"/>
      <path id="Trazado_824561" data-name="Trazado 824561" d="M50.53,16.64v9.581L48,23.691V19.077l.084.084Z" transform="translate(-7.362 -2.603)" fill="#faa68e"/>
      <path id="Trazado_824562" data-name="Trazado 824562" d="M47.687,42H46v5.06H59.494V45.373C47.687,45.373,47.687,42,47.687,42Z" transform="translate(-7.049 -6.575)" fill="#7ea8c2"/>
      <path id="Trazado_824563" data-name="Trazado 824563" d="M36.651,25.3a.843.843,0,0,1-.606-.253l-3.527-3.639a3.352,3.352,0,0,1-2.446,1,3.289,3.289,0,0,1-2.415-1.15,3.557,3.557,0,0,1,.143-4.705l-3.562-3.67a.843.843,0,0,1,0-1.174L34.865.763a2.53,2.53,0,0,1,3.574,0L49.066,11.707a.843.843,0,0,1,0,1.174L44.933,17.14a.844.844,0,0,1-1.212-.007l-.59-.616a1.6,1.6,0,0,0-1.2-.493,1.627,1.627,0,0,0-1.188.568,1.211,1.211,0,0,0-.214.328l-1.547-.675a2.874,2.874,0,0,1,.5-.775,3.3,3.3,0,0,1,4.848-.126L47.277,12.3,37.226,1.943a.8.8,0,0,0-1.148,0L26.019,12.3l3.562,3.672a.843.843,0,0,1,0,1.181l-.489.5a1.893,1.893,0,0,0-.162,2.5,1.621,1.621,0,0,0,1.189.573,1.591,1.591,0,0,0,1.206-.5l.59-.609a.849.849,0,0,1,1.209,0l3.525,3.633,2.3-2.371,1.209,1.176-2.91,2.994a.843.843,0,0,1-.6.256Z" transform="translate(-3.603 0)"/>
      <path id="Trazado_824564" data-name="Trazado 824564" d="M10.277,43.927c-.061,0-.122,0-.183-.005A3.441,3.441,0,0,1,6.9,40.554H1.843A.843.843,0,0,1,1,39.711V24.53A2.53,2.53,0,0,1,3.53,22H18.711a.843.843,0,0,1,.843.843v5.9a.843.843,0,0,1-.843.843h-.843a1.687,1.687,0,0,0-1.687,1.779,1.787,1.787,0,0,0,1.83,1.595h.7a.843.843,0,0,1,.843.843v5.9a.843.843,0,0,1-.843.843H13.65A3.39,3.39,0,0,1,12.6,43,3.34,3.34,0,0,1,10.277,43.927Zm-7.59-5.06h5.06a.843.843,0,0,1,.843.843v.7a1.787,1.787,0,0,0,1.595,1.83,1.687,1.687,0,0,0,1.779-1.687v-.843a.843.843,0,0,1,.843-.843h5.06V34.65A3.441,3.441,0,0,1,14.5,31.459a3.345,3.345,0,0,1,.923-2.5A3.39,3.39,0,0,1,17.867,27.9V23.687H3.53a.843.843,0,0,0-.843.843Z" transform="translate(0 -3.442)"/>
      <path id="Trazado_824565" data-name="Trazado 824565" d="M18.711,60.554H3.53A2.53,2.53,0,0,1,1,58.024V42.843A.843.843,0,0,1,1.843,42h5.9a.843.843,0,0,1,.843.843v.843a1.687,1.687,0,0,0,1.779,1.687,1.787,1.787,0,0,0,1.595-1.83v-.7A.843.843,0,0,1,12.807,42h5.9a.843.843,0,0,1,.843.843V47.9A3.39,3.39,0,0,1,22,48.955a3.345,3.345,0,0,1,.921,2.5,3.441,3.441,0,0,1-3.367,3.194v5.06A.843.843,0,0,1,18.711,60.554ZM2.687,43.687V58.024a.843.843,0,0,0,.843.843H17.867v-5.06a.843.843,0,0,1,.843-.843h.7a1.787,1.787,0,0,0,1.83-1.595,1.687,1.687,0,0,0-1.687-1.779h-.843a.843.843,0,0,1-.843-.843v-5.06H13.65a3.441,3.441,0,0,1-3.191,3.368,3.342,3.342,0,0,1-2.5-.923A3.39,3.39,0,0,1,6.9,43.687Z" transform="translate(0 -6.575)"/>
      <path id="Trazado_824566" data-name="Trazado 824566" d="M37.024,59.928H21.843A.843.843,0,0,1,21,59.084v-5.9a.843.843,0,0,1,.843-.843h.843a1.687,1.687,0,0,0,1.687-1.779,1.787,1.787,0,0,0-1.83-1.595h-.7A.843.843,0,0,1,21,48.121v-5.9a.843.843,0,0,1,.843-.843H26.9a3.39,3.39,0,0,1,1.052-2.446,3.341,3.341,0,0,1,2.5-.921,3.441,3.441,0,0,1,3.194,3.367h5.06a.843.843,0,0,1,.843.843V57.4A2.53,2.53,0,0,1,37.024,59.928ZM22.687,58.241H37.024a.843.843,0,0,0,.843-.843V43.06h-5.06a.843.843,0,0,1-.843-.843v-.7a1.787,1.787,0,0,0-1.595-1.83,1.687,1.687,0,0,0-1.779,1.687v.843a.843.843,0,0,1-.843.843h-5.06v4.217a3.441,3.441,0,0,1,3.368,3.191,3.345,3.345,0,0,1-.923,2.5,3.39,3.39,0,0,1-2.446,1.052Z" transform="translate(-3.133 -5.949)"/>
      <path id="Trazado_824567" data-name="Trazado 824567" d="M48.964,35.711c-5.819,0-7.49-6.747-7.586-10.61L38.247,21.97a.843.843,0,0,1,0-1.193l2.53-2.53a.843.843,0,0,1,1.193,0l7.59,7.59L48.367,27.03l-6.994-6.994-1.338,1.338,2.777,2.777a.843.843,0,0,1,.247.6c0,.093.084,9.277,5.9,9.277Z" transform="translate(-5.796 -2.816)"/>
      <path id="Trazado_824568" data-name="Trazado 824568" d="M58.74,36.533H57.053V33.16l1.651-18.2-6.229-5.45-5.9-.736L46.785,7.1l6.157.767a.843.843,0,0,1,.451.2l6.747,5.9a.843.843,0,0,1,.288.708L58.74,33.236Z" transform="translate(-7.138 -1.108)"/>
      <path id="Trazado_824569" data-name="Trazado 824569" d="M47,37h1.687v4.217H47Z" transform="translate(-7.205 -5.792)"/>
      <path id="Trazado_824570" data-name="Trazado 824570" d="M59.337,47.747H45.843A.843.843,0,0,1,45,46.9v-5.06A.843.843,0,0,1,45.843,41H59.337a.843.843,0,0,1,.843.843V46.9A.843.843,0,0,1,59.337,47.747ZM46.687,46.06H58.494V42.687H46.687Z" transform="translate(-6.892 -6.418)"/>
      <path id="Trazado_824571" data-name="Trazado 824571" d="M46,48h1.687V60.65H46Z" transform="translate(-7.049 -7.515)"/>
      <path id="Trazado_824572" data-name="Trazado 824572" d="M60,48h1.687V60.65H60Z" transform="translate(-9.242 -7.515)"/>
      <path id="Trazado_824573" data-name="Trazado 824573" d="M47,19h1.687v5.06H47Z" transform="translate(-7.205 -2.972)"/>
      <path id="Trazado_824574" data-name="Trazado 824574" d="M12,11h6.747v1.687H12Z" transform="translate(-1.723 -1.719)"/>
      <path id="Trazado_824575" data-name="Trazado 824575" d="M0,0H5.963V1.687H0Z" transform="translate(12.207 16.275) rotate(-45)"/>
      <path id="Trazado_824576" data-name="Trazado 824576" d="M0,0H1.687V5.963H0Z" transform="translate(12.208 3.974) rotate(-45)"/>
      <path id="Trazado_824577" data-name="Trazado 824577" d="M5,58H6.687v1.687H5Z" transform="translate(-0.627 -9.081)"/>
      <path id="Trazado_824578" data-name="Trazado 824578" d="M9,58h8.434v1.687H9Z" transform="translate(-1.253 -9.081)"/>
    </g>
  </g>
</svg>
