<svg xmlns="http://www.w3.org/2000/svg" width="80" height="80" viewBox="0 0 80 80">
  <g id="Grupo_1073864" data-name="Grupo 1073864" transform="translate(-516.569 -5616)">
    <path id="Op_component_1" data-name="Op component 1" d="M40,0A40,40,0,1,1,0,40,40,40,0,0,1,40,0Z" transform="translate(516.569 5616)" fill="#fff"/>
    <path id="Op_component_1-2" data-name="Op component 1" d="M35.237,0A35.237,35.237,0,1,1,0,35.237,35.237,35.237,0,0,1,35.237,0Z" transform="translate(521.332 5620.5)" fill="none" stroke="#273a89" stroke-width="1"/>
    <path id="Trazado_819976" data-name="Trazado 819976" d="M12.633-10.11A10.9,10.9,0,0,1,10.951-4.6,10.149,10.149,0,0,1,6.634-.9,14.693,14.693,0,0,1,.287.41a11.725,11.725,0,0,1-9.27-3.835q-3.384-3.835-3.384-10.828v-1.477a18.074,18.074,0,0,1,1.528-7.68,11.576,11.576,0,0,1,4.4-5.086A12.273,12.273,0,0,1,.205-30.29a12.87,12.87,0,0,1,8.736,2.861,11.3,11.3,0,0,1,3.753,7.885H5.517a5.348,5.348,0,0,0-1.374-3.917A5.651,5.651,0,0,0,.205-24.65a4.3,4.3,0,0,0-3.937,2.01q-1.251,2.01-1.312,6.419v2.112q0,4.778,1.2,6.829A4.39,4.39,0,0,0,.287-5.229,5.527,5.527,0,0,0,4.081-6.4,4.961,4.961,0,0,0,5.476-10.11Z" transform="translate(555.936 5671.723)" fill="#273a89"/>
  </g>
</svg>
