<svg xmlns="http://www.w3.org/2000/svg" xmlns:xlink="http://www.w3.org/1999/xlink" width="190" height="116.538" viewBox="0 0 190 116.538">
  <defs>
    <linearGradient id="linear-gradient" x1="0.35" y1="0.433" x2="0.935" y2="0.848" gradientUnits="objectBoundingBox">
      <stop offset="0" stop-color="#f0c518"/>
      <stop offset="0.371" stop-color="#d1ae1f"/>
      <stop offset="1" stop-color="#78630c"/>
    </linearGradient>
    <clipPath id="clip-path">
      <rect id="Rectángulo_402716" data-name="Rectángulo 402716" width="157" height="56" transform="translate(164.398 6430.053)" fill="#fff" stroke="#707070" stroke-width="1"/>
    </clipPath>
    <filter id="Trazado_878795" x="32.937" y="39.872" width="137.415" height="137.415" filterUnits="userSpaceOnUse">
      <feOffset dy="1" input="SourceAlpha"/>
      <feGaussianBlur stdDeviation="5.5" result="blur"/>
      <feFlood flood-color="#fff" flood-opacity="0.902"/>
      <feComposite operator="in" in2="blur"/>
      <feComposite in="SourceGraphic"/>
    </filter>
  </defs>
  <g id="Grupo_1102422" data-name="Grupo 1102422" transform="translate(-180 -6380.463)">
    <g id="Grupo_1074076" data-name="Grupo 1074076" transform="translate(180 6396.053)">
      <rect id="Rectángulo_401407" data-name="Rectángulo 401407" width="190" height="79" rx="3" transform="translate(0 3)" fill="#a854f3"/>
    </g>
    <circle id="Elipse_11637" data-name="Elipse 11637" cx="11.49" cy="11.49" r="11.49" transform="translate(343.51 6461.23)" fill="url(#linear-gradient)"/>
    <circle id="Elipse_11638" data-name="Elipse 11638" cx="10.49" cy="10.49" r="10.49" transform="translate(187.69 6395.515)" fill="url(#linear-gradient)"/>
    <g id="Enmascarar_grupo_1098713" data-name="Enmascarar grupo 1098713" transform="translate(36.602 -8.053)" clip-path="url(#clip-path)">
      <g transform="matrix(1, 0, 0, 1, 143.4, 6388.52)" filter="url(#Trazado_878795)">
        <g id="Trazado_878795-2" data-name="Trazado 878795" transform="translate(49.44 55.37)" fill="none">
          <path d="M52.207,0A52.207,52.207,0,1,1,0,52.207,52.207,52.207,0,0,1,52.207,0Z" stroke="none"/>
          <path d="M 52.20735168457031 13.99999237060547 C 31.13973999023438 13.99999237060547 13.99999237060547 31.13973999023438 13.99999237060547 52.20735168457031 C 13.99999237060547 73.27496337890625 31.13973999023438 90.41471099853516 52.20735168457031 90.41471099853516 C 73.27496337890625 90.41471099853516 90.41471099853516 73.27496337890625 90.41471099853516 52.20735168457031 C 90.41471099853516 31.13973999023438 73.27496337890625 13.99999237060547 52.20735168457031 13.99999237060547 M 52.20735168457031 -7.62939453125e-06 C 81.04068756103516 -7.62939453125e-06 104.4147109985352 23.37401580810547 104.4147109985352 52.20735168457031 C 104.4147109985352 81.04068756103516 81.04068756103516 104.4147109985352 52.20735168457031 104.4147109985352 C 23.37401580810547 104.4147109985352 -7.62939453125e-06 81.04068756103516 -7.62939453125e-06 52.20735168457031 C -7.62939453125e-06 23.37401580810547 23.37401580810547 -7.62939453125e-06 52.20735168457031 -7.62939453125e-06 Z" stroke="none" fill="#fff"/>
        </g>
      </g>
    </g>
    <g id="programador_10_" data-name="programador (10)" transform="translate(222.409 6380.34)">
      <g id="Grupo_1099575" data-name="Grupo 1099575" transform="translate(0 0)">
        <g id="Grupo_1101537" data-name="Grupo 1101537" transform="translate(-9 15.123)">
          <path id="Trazado_875239" data-name="Trazado 875239" d="M41.208,229.515a5.4,5.4,0,0,0-5.389,5.389v4.345a5.389,5.389,0,0,0,10.778,0V234.9A5.4,5.4,0,0,0,41.208,229.515Zm1.971,9.734a1.971,1.971,0,0,1-3.943,0V234.9a1.971,1.971,0,0,1,3.943,0Z" transform="translate(-27.658 -177.22)"/>
          <path id="Trazado_875240" data-name="Trazado 875240" d="M105.649,244.638a1.709,1.709,0,0,0,1.709-1.709V231.224a1.709,1.709,0,1,0-3.418,0V242.93A1.709,1.709,0,0,0,105.649,244.638Z" transform="translate(-80.257 -177.22)"/>
          <path id="Trazado_875241" data-name="Trazado 875241" d="M5.389,311.416A5.4,5.4,0,0,0,0,316.8v4.345a5.389,5.389,0,1,0,10.778,0V316.8A5.4,5.4,0,0,0,5.389,311.416ZM7.36,321.15a1.971,1.971,0,1,1-3.943,0v-4.345a1.971,1.971,0,0,1,3.942,0v4.345Z" transform="translate(0 -240.459)"/>
          <path id="Trazado_875242" data-name="Trazado 875242" d="M69.831,311.416a1.709,1.709,0,0,0-1.709,1.709V324.83a1.709,1.709,0,1,0,3.418,0V313.125A1.709,1.709,0,0,0,69.831,311.416Z" transform="translate(-52.601 -240.459)"/>
          <path id="Trazado_875243" data-name="Trazado 875243" d="M1.709,244.638a1.709,1.709,0,0,0,1.709-1.709V231.224a1.709,1.709,0,1,0-3.418,0V242.93A1.709,1.709,0,0,0,1.709,244.638Z" transform="translate(0 -177.22)"/>
        </g>
        <g id="Grupo_1101538" data-name="Grupo 1101538" transform="translate(94 44.418)">
          <path id="Trazado_875239-2" data-name="Trazado 875239" d="M41.208,229.515A5.4,5.4,0,0,1,46.6,234.9v4.345a5.389,5.389,0,0,1-10.778,0V234.9A5.4,5.4,0,0,1,41.208,229.515Zm-1.971,9.734a1.971,1.971,0,0,0,3.943,0V234.9a1.971,1.971,0,0,0-3.943,0Z" transform="translate(-27.657 -229.515)"/>
          <path id="Trazado_875240-2" data-name="Trazado 875240" d="M105.649,244.638a1.709,1.709,0,0,1-1.709-1.709V231.224a1.709,1.709,0,1,1,3.418,0V242.93A1.709,1.709,0,0,1,105.649,244.638Z" transform="translate(-103.94 -229.515)"/>
          <path id="Trazado_875241-2" data-name="Trazado 875241" d="M5.389,311.416a5.4,5.4,0,0,1,5.389,5.389v4.345A5.389,5.389,0,1,1,0,321.15V316.8A5.4,5.4,0,0,1,5.389,311.416ZM3.418,321.15a1.971,1.971,0,1,0,3.943,0v-4.345a1.971,1.971,0,0,0-3.942,0v4.345Z" transform="translate(16.323 -292.755)"/>
          <path id="Trazado_875242-2" data-name="Trazado 875242" d="M69.831,311.416a1.709,1.709,0,0,1,1.709,1.709V324.83a1.709,1.709,0,1,1-3.418,0V313.125A1.709,1.709,0,0,1,69.831,311.416Z" transform="translate(-59.96 -292.755)"/>
          <path id="Trazado_875243-2" data-name="Trazado 875243" d="M1.709,244.638A1.709,1.709,0,0,1,0,242.93V231.224a1.709,1.709,0,1,1,3.418,0V242.93A1.709,1.709,0,0,1,1.709,244.638Z" transform="translate(23.683 -229.515)"/>
        </g>
        <g id="Web_Developer" data-name="Web Developer" transform="translate(-13 0.438)">
          <path id="Trazado_878796" data-name="Trazado 878796" d="M35.8,45.01V18.318a2.7,2.7,0,0,0-2.7-2.7H5.674A2.7,2.7,0,0,0,3,18.318V53.165a2.686,2.686,0,0,0,2.7,2.686H41.465a1.343,1.343,0,0,0,1-2.263l-6.05-6.836A2.686,2.686,0,0,1,35.8,45.01Z" transform="translate(0.21 3.346)" fill="#619fff"/>
          <path id="Trazado_878797" data-name="Trazado 878797" d="M106.475,103.174H28.82l4.307-28.2a17.242,17.242,0,0,1,13.31-14.217L67.466,56.07l21.392,4.755a17.23,17.23,0,0,1,13.31,14.229Z" transform="translate(5.631 11.839)" fill="#ffab57"/>
          <path id="Trazado_878798" data-name="Trazado 878798" d="M68.971,62.648,61.966,75.522,54.73,62.648V49.98H68.971Z" transform="translate(11.071 10.56)" fill="#ffbf9d"/>
          <path id="Trazado_878799" data-name="Trazado 878799" d="M90.732,38.4H40.966a5.033,5.033,0,1,1,0-10.055H90.732a5.033,5.033,0,0,1,0,10.055Z" transform="translate(7.073 6.015)" fill="#ffbf9d"/>
          <path id="Trazado_878800" data-name="Trazado 878800" d="M64.473,62.187A22.263,22.263,0,0,1,42.21,39.923v-10.2a22.263,22.263,0,1,1,44.527,0v10.2A22.263,22.263,0,0,1,64.473,62.187Z" transform="translate(8.443 1.632)" fill="#fdb"/>
          <path id="Trazado_878801" data-name="Trazado 878801" d="M86.727,35.108V29.723a22.263,22.263,0,1,0-44.527,0v5.384Z" transform="translate(8.44 1.632)" fill="#ffc9a2"/>
          <path id="Trazado_878803" data-name="Trazado 878803" d="M96.632,96.146H37.174L32.456,60.864a3.63,3.63,0,0,1,3.63-4.114H97.794a3.63,3.63,0,0,1,3.63,4.114Z" transform="translate(6.388 11.981)" fill="#dbecff"/>
          <path id="Trazado_878804" data-name="Trazado 878804" d="M78.257,74.041a4.4,4.4,0,0,0,6.848-3.061l.762-5.759A2.178,2.178,0,0,0,83.7,62.8H70.223a2.42,2.42,0,0,0-1.476,4.428C72.425,69.927,74.942,71.8,78.257,74.041Z" transform="translate(13.788 13.251)" fill="#fff"/>
          <path id="Trazado_878805" data-name="Trazado 878805" d="M41.3,62.75a2.178,2.178,0,0,0-2.166,2.42l2.735,20.5a2.178,2.178,0,0,0,2.166,1.9h4.259a4.489,4.489,0,0,0,4.1-6.328,185.481,185.481,0,0,0-7.962-16.782A3.63,3.63,0,0,0,41.3,62.75Z" transform="translate(7.793 13.241)" fill="#fff"/>
          <path id="Trazado_878806" data-name="Trazado 878806" d="M36.35,89.31H95.82v6.885H36.35Z" transform="translate(7.212 18.818)" fill="#5955a1"/>
          <path id="Trazado_878807" data-name="Trazado 878807" d="M44.78,89.31H83.838v6.885H44.78Z" transform="translate(8.982 18.818)" fill="#b8c4ff"/>
          <path id="Trazado_878808" data-name="Trazado 878808" d="M67.226,80.46a7.841,7.841,0,1,1,0-12.1,7.841,7.841,0,0,0,0,12.1Z" transform="translate(11.002 14.043)" fill="#5955a1"/>
          <path id="Trazado_878809" data-name="Trazado 878809" d="M89.687,34.175H40.671V25.608a24.514,24.514,0,1,1,49.016,0Z" transform="translate(8.118 0.182)" fill="#ff575a"/>
          <path id="Trazado_878810" data-name="Trazado 878810" d="M59.195,30.423H45.51V24.978a6.848,6.848,0,0,1,13.685,0Z" transform="translate(9.135 3.933)" fill="#5955a1"/>
          <path id="Trazado_878811" data-name="Trazado 878811" d="M45.51,24.08H59.195v5.154H45.51Z" transform="translate(9.135 5.122)" fill="#ff7a5a"/>
          <rect id="Rectángulo_402723" data-name="Rectángulo 402723" width="8.034" height="5.154" rx="0.87" transform="translate(57.465 29.202)" fill="#ff985a"/>
          <path id="Trazado_878812" data-name="Trazado 878812" d="M78.1,21.62H89.718a4.065,4.065,0,1,1,0,8.131H56.42l3.255-2.3A32.1,32.1,0,0,1,78.1,21.62Z" transform="translate(11.426 4.605)" fill="#ff985a"/>
          <path id="Trazado_878813" data-name="Trazado 878813" d="M79.024,19.669a35.512,35.512,0,0,0-13.757,2.8,4.029,4.029,0,0,1-5.082-1.694,10.515,10.515,0,0,0-6.171-4.84,3.969,3.969,0,0,1-.835-7.26,20.823,20.823,0,0,1,27.66,7.8,2.142,2.142,0,0,1-1.815,3.194Z" transform="translate(10.323 1.378)" fill="#ff897d"/>
          <g id="Grupo_1101536" data-name="Grupo 1101536" transform="translate(2 -0.315)">
            <path id="Trazado_878814" data-name="Trazado 878814" d="M102.288,82.126,103.5,73a4.84,4.84,0,0,0-4.84-5.481H75.838V63.492A23.51,23.51,0,0,0,90.624,45.621h1.754a6.243,6.243,0,0,0,4.767-10.26A5.275,5.275,0,0,0,95.73,25.016H93.564a25.71,25.71,0,1,0-51.414.762l0,7.393a6.231,6.231,0,0,0,.472,12.451h1.754A23.51,23.51,0,0,0,59.165,63.492v4.029H37.034A4.84,4.84,0,0,0,32.195,73l1.21,9.075c-1.21,2.626-.956,2.42-5.6,32.754a1.21,1.21,0,0,0,1.21,1.391h77.679a1.21,1.21,0,0,0,1.21-1.391C103.328,84.763,103.606,85.1,102.288,82.126ZM92.378,43.2H90.962c.109-1.113.085-1.283.085-7.635h1.391a3.823,3.823,0,1,1,0,7.635ZM95.73,27.472a2.856,2.856,0,1,1,0,5.711H66.255a30.66,30.66,0,0,1,17.859-5.711Zm-45.3,2.94H61.705v2.735H50.429Zm.073-2.42a5.651,5.651,0,0,1,11.144,0Zm-5.929-2.214a23.29,23.29,0,1,1,46.574-.762H84.114A32.984,32.984,0,0,0,65,31.065l-.871.6V29.2a8.058,8.058,0,0,0-16.117,0v3.944H44.572ZM42.624,43.2a3.823,3.823,0,1,1,0-7.635h1.4c0,6.05,0,6.5.073,7.635Zm4.223,2.42c-.484-2.42-.4-3.63-.4-10.055H88.542v5.989a21.053,21.053,0,0,1-41.719,4.065ZM61.584,64.279a23.751,23.751,0,0,0,11.833,0v3.243H71.6c-4.985-1.1-5.336-1.21,0,0H63.859c2.263-.508,3.545-.811,3.63-.811H67.3c-4.235.944-2.952.786-5.747.786Zm-24.55,5.663H98.742a2.42,2.42,0,0,1,2.42,2.747c-1.4,10.527.254-1.8-4.562,34.23H39.2L34.627,72.664a2.42,2.42,0,0,1,2.408-2.722ZM34.3,88.551c3.061,22.9,2.626,17.8,2.626,25.252H30.464Zm5.046,20.787h7.792V113.8H39.345ZM49.557,113.8v-4.465H86.2V113.8Zm39.058,0v-4.465H96.4V113.8Zm10.2,0c0-7.514-.423-2.42,2.626-25.276L105.3,113.8Z" transform="translate(3.415 0.315)"/>
            <path id="Trazado_878820" data-name="Trazado 878820" d="M68.211,81.619a1.21,1.21,0,0,0,0-1.888,6.643,6.643,0,0,1,0-10.285,1.21,1.21,0,0,0,0-1.875,9.051,9.051,0,1,0,0,14.048ZM65.525,68.7a9.087,9.087,0,0,0,0,11.8,6.631,6.631,0,1,1,0-11.8Z" transform="translate(8.803 14.143)"/>
            <path id="Trazado_878821" data-name="Trazado 878821" d="M21.708,22.5A1.211,1.211,0,1,0,20,24.219l2,2.009-2,2.009a1.21,1.21,0,0,0,.847,2.057c.665,0,.641-.133,3.727-3.218a1.21,1.21,0,0,0,0-1.706Z" transform="translate(1.705 5.032)"/>
            <path id="Trazado_878822" data-name="Trazado 878822" d="M11.459,29.942a1.21,1.21,0,0,0,1.706-1.706l-2.009-2.009,2.009-2.009A1.211,1.211,0,0,0,11.459,22.5L8.591,25.369a1.21,1.21,0,0,0,0,1.706Z" transform="translate(-0.69 5.032)"/>
            <path id="Trazado_878823" data-name="Trazado 878823" d="M14.97,29.01a1.21,1.21,0,0,0,.859-.363l3.46-3.46a1.21,1.21,0,0,0-1.706-1.706l-3.509,3.4a1.21,1.21,0,0,0,.9,2.13Z" transform="translate(0.445 5.25)"/>
            <path id="Trazado_878824" data-name="Trazado 878824" d="M43.586,53.048,37.537,46.2a1.452,1.452,0,0,1-.375-.98V18.528a3.908,3.908,0,0,0-3.9-3.908H5.884A3.908,3.908,0,0,0,2,18.528V53.375a3.908,3.908,0,0,0,3.908,3.908H41.663a2.553,2.553,0,0,0,1.924-4.235ZM4.42,53.375V18.528A1.5,1.5,0,0,1,5.908,17.04H33.314a1.488,1.488,0,0,1,1.476,1.488V45.22a3.908,3.908,0,0,0,.98,2.529c6.364,7.26,6.05,6.86,6.05,6.981s2.638.085-35.9.085a1.5,1.5,0,0,1-1.5-1.44Z" transform="translate(-2 3.451)"/>
            <path id="Trazado_878825" data-name="Trazado 878825" d="M23.848,37.874h-.411V36.567c0-3.279-4.477-4.32-4.477-2.057a1.21,1.21,0,0,0,1.21,1.21.847.847,0,0,1,.847.847V41.54a.859.859,0,0,1-.847.859,1.21,1.21,0,0,0-1.21,1.21c0,2.239,4.477,1.21,4.477-2.069V40.293h.411a1.21,1.21,0,1,0,0-2.42Z" transform="translate(1.561 7.373)"/>
            <path id="Trazado_878826" data-name="Trazado 878826" d="M11.841,36.564a.847.847,0,0,1,.859-.847,1.21,1.21,0,0,0,1.21-1.21c0-2.238-4.489-1.21-4.489,2.057v1.283H9.01a1.21,1.21,0,0,0,0,2.42h.411v1.27c0,3.291,4.489,4.32,4.489,2.069A1.21,1.21,0,0,0,12.7,42.4a.859.859,0,0,1-.859-.859Z" transform="translate(-0.782 7.375)"/>
            <path id="Trazado_878827" data-name="Trazado 878827" d="M17.877,35.581,13.4,40.058a1.21,1.21,0,0,0,1.706,1.706L19.583,37.3a1.211,1.211,0,0,0-1.706-1.718Z" transform="translate(0.333 7.778)"/>
          </g>
        </g>
      </g>
    </g>
  </g>
</svg>
