<svg xmlns="http://www.w3.org/2000/svg" xmlns:xlink="http://www.w3.org/1999/xlink" width="400" height="423" viewBox="0 0 400 423">
  <defs>
    <clipPath id="clip-path">
      <rect id="Rectángulo_403516" data-name="Rectángulo 403516" width="400" height="423" transform="translate(1020 547)" fill="#12263f" stroke="#707070" stroke-width="1" opacity="0.25"/>
    </clipPath>
    <clipPath id="clip-path-2">
      <rect id="Rectángulo_403506" data-name="Rectángulo 403506" width="102.215" height="77.126" transform="translate(0 0)" fill="#3a1d71" stroke="#707070" stroke-width="1"/>
    </clipPath>
    <clipPath id="clip-path-3">
      <rect id="Rectángulo_403512" data-name="Rectángulo 403512" width="255.857" height="332.665" fill="none"/>
    </clipPath>
    <clipPath id="clip-path-5">
      <rect id="Rectángulo_403507" data-name="Rectángulo 403507" width="47.941" height="22.636" fill="none"/>
    </clipPath>
    <clipPath id="clip-path-6">
      <rect id="Rectángulo_403508" data-name="Rectángulo 403508" width="35.12" height="12.697" fill="none"/>
    </clipPath>
    <clipPath id="clip-path-7">
      <rect id="Rectángulo_403509" data-name="Rectángulo 403509" width="54.721" height="17.058" fill="none"/>
    </clipPath>
    <clipPath id="clip-path-8">
      <rect id="Rectángulo_403510" data-name="Rectángulo 403510" width="4.806" height="3.984" fill="none"/>
    </clipPath>
    <clipPath id="clip-path-9">
      <rect id="Rectángulo_403513" data-name="Rectángulo 403513" width="37.18" height="35.598" fill="none"/>
    </clipPath>
    <clipPath id="clip-path-10">
      <rect id="Rectángulo_403514" data-name="Rectángulo 403514" width="35.59" height="34.076" fill="none"/>
    </clipPath>
    <clipPath id="clip-path-11">
      <rect id="Rectángulo_403515" data-name="Rectángulo 403515" width="32.039" height="30.675" fill="none"/>
    </clipPath>
    <clipPath id="clip-path-12">
      <path id="Trazado_884750" data-name="Trazado 884750" d="M3.992-26.947C30.5-26.947,96,21.49,96,48A48,48,0,0,1,5.838,70.933c-.332-.592-6.807-5.857-7.233-6.739-2.921-6.041-4.741-15.364-4.741-22.84C-6.136,14.845-22.517-26.947,3.992-26.947Z" transform="translate(1063 817)" fill="#bbadff" opacity="0.67"/>
    </clipPath>
  </defs>
  <g id="Enmascarar_grupo_1098806" data-name="Enmascarar grupo 1098806" transform="translate(-1020 -547)" clip-path="url(#clip-path)">
    <g id="Grupo_1102498" data-name="Grupo 1102498" transform="translate(20 -760)">
      <path id="Trazado_884609" data-name="Trazado 884609" d="M190.491,0C295.7,0,380.983,85.286,380.983,190.491S295.7,380.983,190.491,380.983,0,295.7,0,190.491,85.286,0,190.491,0Z" transform="translate(1010 1333)" fill="#bbadff"/>
      <g id="Grupo_1102465" data-name="Grupo 1102465" transform="translate(1042.165 1517.638)">
        <path id="Trazado_884610" data-name="Trazado 884610" d="M563.429,228.63A17.3,17.3,0,0,0,563.66,226a16.988,16.988,0,0,0-.166-2.268l.249.447,8.94-7.251-2.583-4.47L567.518,208s-7,2.682-10.612,4.073l.4.7a17.22,17.22,0,0,0-4.155-2.467h.48c-.6-3.775-1.8-11.373-1.8-11.373h-10.3s-1.176,7.4-1.788,11.224h.811a17.671,17.671,0,0,0-4.255,2.417l.265-.447C532.984,210.75,525.815,208,525.815,208l-2.583,4.47-2.582,4.453s5.827,4.718,8.824,7.152l.431-.712a17.286,17.286,0,0,0-.232,2.632,17,17,0,0,0,.165,2.268l-.248-.447-8.94,7.251,2.583,4.47,2.583,4.453s7-2.682,10.612-4.073l-.4-.7a17.221,17.221,0,0,0,4.155,2.467h-.48c.6,3.775,1.8,11.373,1.8,11.373h10.3s1.175-7.4,1.788-11.224h-.811a17.676,17.676,0,0,0,4.255-2.417l-.265.447c3.576,1.374,10.744,4.122,10.744,4.122l2.582-4.453,2.583-4.47s-5.827-4.718-8.824-7.152ZM546.675,232.5A6.506,6.506,0,1,1,553.181,226,6.507,6.507,0,0,1,546.675,232.5Z" transform="translate(-517.927 -196.43)" fill="#f5c59d"/>
        <g id="Grupo_1102464" data-name="Grupo 1102464">
          <path id="Trazado_884611" data-name="Trazado 884611" d="M538.084,209.85a7.334,7.334,0,1,0,7.334,7.334A7.348,7.348,0,0,0,538.084,209.85Zm0,13a5.678,5.678,0,1,1,5.679-5.678A5.688,5.688,0,0,1,538.084,222.846Z" transform="translate(-511.307 -189.272)" fill="#251c4a"/>
          <path id="Trazado_884612" data-name="Trazado 884612" d="M563.53,226.623c.033-.43.066-.861.066-1.308s-.033-.877-.066-1.308l8.791-7.119a.839.839,0,0,0,.2-1.06l-5.149-8.923a.844.844,0,0,0-1.01-.364l-10.545,4.039a16.052,16.052,0,0,0-2.268-1.291l-1.771-11.175a.833.833,0,0,0-.811-.7h-10.3a.807.807,0,0,0-.811.7l-1.771,11.175a17.882,17.882,0,0,0-2.268,1.291l-10.545-4.039a.808.808,0,0,0-1.01.364l-5.148,8.923a.843.843,0,0,0,.2,1.06l8.791,7.119c-.033.43-.066.861-.066,1.308s.033.877.066,1.308l-8.791,7.119a.839.839,0,0,0-.2,1.06l5.148,8.923a.82.82,0,0,0,.712.414.937.937,0,0,0,.3-.05l10.545-4.039a16.068,16.068,0,0,0,2.268,1.291l1.771,11.175a.833.833,0,0,0,.811.7h10.3a.807.807,0,0,0,.811-.7l1.771-11.175a17.866,17.866,0,0,0,2.268-1.291l10.545,4.039a.938.938,0,0,0,.3.05.82.82,0,0,0,.712-.414l5.149-8.923a.843.843,0,0,0-.2-1.06Zm2.748-18.26,4.437,7.7-7.433,6.026a17.835,17.835,0,0,0-5.96-10.3l8.956-3.427Zm-20.5,33.11a16.158,16.158,0,1,1,16.158-16.158A16.179,16.179,0,0,1,545.783,241.473Zm-4.437-42.381h8.89l1.507,9.469a17.456,17.456,0,0,0-11.887,0l1.507-9.469Zm-20.5,16.969,4.437-7.7,8.956,3.427a17.832,17.832,0,0,0-5.96,10.3Zm4.437,26.223-4.437-7.7,7.433-6.026a17.834,17.834,0,0,0,5.96,10.3l-8.956,3.427Zm24.949,9.271h-8.89l-1.507-9.469a17.456,17.456,0,0,0,11.887,0l-1.507,9.469Zm16.042-9.271-8.956-3.427a17.834,17.834,0,0,0,5.96-10.3l7.433,6.026-4.453,7.7Z" transform="translate(-519.005 -197.42)" fill="#251c4a"/>
        </g>
      </g>
      <g id="Grupo_1102468" data-name="Grupo 1102468" transform="translate(1041.528 1358.751)">
        <rect id="Rectángulo_403466" data-name="Rectángulo 403466" width="166.046" height="99.688" transform="translate(4.554 3.663)" fill="#fff"/>
        <rect id="Rectángulo_403467" data-name="Rectángulo 403467" width="166.363" height="10.708" transform="translate(4.237 3.663)" fill="#7c60ff"/>
        <path id="Trazado_884613" data-name="Trazado 884613" d="M0,0H50.095V32.611H0Z" transform="translate(23.698 20.072)" fill="#f5c59d"/>
        <rect id="Rectángulo_403468" data-name="Rectángulo 403468" width="50.339" height="32.33" transform="translate(23.454 58.58)" fill="#f5c59d"/>
        <g id="Grupo_1102466" data-name="Grupo 1102466" transform="translate(140.846 3.351)">
          <path id="Trazado_884614" data-name="Trazado 884614" d="M749.1,174.8h-4.139a.3.3,0,0,1-.305-.305v-4.139a.3.3,0,0,1,.305-.305H749.1a.3.3,0,0,1,.305.305v4.139A.3.3,0,0,1,749.1,174.8Zm-3.834-.61H748.8V170.66h-3.528Z" transform="translate(-736.162 -170.044)" fill="#fff"/>
          <path id="Trazado_884615" data-name="Trazado 884615" d="M754.247,172.42l1.856-1.856a.3.3,0,0,0,0-.427.306.306,0,0,0-.427,0l-1.856,1.856-1.856-1.856a.3.3,0,1,0-.427.427l1.856,1.856-1.856,1.856a.307.307,0,0,0,.44.427l1.856-1.856,1.856,1.856a.566.566,0,0,0,.22.085.3.3,0,0,0,.22-.513l-1.856-1.856Z" transform="translate(-734.663 -170.045)" fill="#fff"/>
          <path id="Trazado_884616" data-name="Trazado 884616" d="M742.254,174.05h-4.249a.305.305,0,0,1,0-.61h4.249a.305.305,0,1,1,0,.61Z" transform="translate(-737.7 -169.295)" fill="#fff"/>
        </g>
        <g id="Grupo_1102467" data-name="Grupo 1102467">
          <path id="Trazado_884617" data-name="Trazado 884617" d="M789,167.3H622.951a.6.6,0,0,0-.611.61v99.676a.6.6,0,0,0,.611.61H789a.6.6,0,0,0,.61-.61V167.911A.6.6,0,0,0,789,167.3Zm-.61,1.221v9.487H623.561v-9.487ZM623.561,266.988V179.241H788.386v87.748Z" transform="translate(-622.34 -167.3)" fill="#251c4a"/>
          <path id="Trazado_884618" data-name="Trazado 884618" d="M692,216.994H641.661a.6.6,0,0,1-.61-.61V183.65a.6.6,0,0,1,.61-.61H692a.6.6,0,0,1,.61.61v32.733A.6.6,0,0,1,692,216.994Zm-49.728-1.221h49.118V184.261H642.271Z" transform="translate(-618.207 -163.823)" fill="#251c4a"/>
          <path id="Trazado_884619" data-name="Trazado 884619" d="M692,248.754H641.661a.6.6,0,0,1-.61-.61V215.411a.6.6,0,0,1,.61-.61H692a.6.6,0,0,1,.61.61v32.733A.6.6,0,0,1,692,248.754Zm-49.728-1.221h49.118V216.021H642.271Z" transform="translate(-618.207 -156.806)" fill="#251c4a"/>
        </g>
        <text id="C_" data-name="C++" transform="translate(29.929 80.21)" fill="#12263f" font-size="17" font-family="Montserrat-Bold, Montserrat" font-weight="700"><tspan x="0" y="0" letter-spacing="-0.005em">C</tspan><tspan y="0" letter-spacing="0.005em">+</tspan><tspan y="0">+</tspan></text>
        <text id="_" data-name="&lt;/&gt;" transform="matrix(-1, 0, 0, 1, 68.027, 45.343)" fill="#12263f" font-size="17" font-family="Montserrat-Regular, Montserrat"><tspan x="0" y="0">&lt;/&gt;</tspan></text>
      </g>
      <g id="Grupo_1102470" data-name="Grupo 1102470" transform="translate(1126.828 1385.335)">
        <rect id="Rectángulo_403469" data-name="Rectángulo 403469" width="109.615" height="89.482" transform="translate(2.381 2.576)" fill="#ffc7ec"/>
        <path id="Trazado_884620" data-name="Trazado 884620" d="M677.194,246.133H567.751a.6.6,0,0,1-.611-.61V156.04a.6.6,0,0,1,.611-.61H677.194a.6.6,0,0,1,.61.61v89.482A.6.6,0,0,1,677.194,246.133Zm-108.833-1.221H676.584V156.651H568.361Z" transform="translate(-567.14 -155.43)" fill="#251c4a"/>
        <g id="Enmascarar_grupo_1098804" data-name="Enmascarar grupo 1098804" transform="translate(5.751 8.211)" clip-path="url(#clip-path-2)">
          <g id="Grupo_1102469" data-name="Grupo 1102469" transform="translate(0.398 3.721)">
            <rect id="Rectángulo_403470" data-name="Rectángulo 403470" width="28.521" height="4.182" fill="#3a1d71"/>
            <rect id="Rectángulo_403471" data-name="Rectángulo 403471" width="47.885" height="4.182" transform="translate(33.793)" fill="#3a1d71"/>
            <rect id="Rectángulo_403472" data-name="Rectángulo 403472" width="55.989" height="4.182" transform="translate(87.315)" fill="#3a1d71"/>
            <rect id="Rectángulo_403473" data-name="Rectángulo 403473" width="21.481" height="4.182" transform="translate(149.291)" fill="#3a1d71"/>
            <rect id="Rectángulo_403474" data-name="Rectángulo 403474" width="6.689" height="4.182" transform="translate(77.808 10.299)" fill="#3a1d71"/>
            <rect id="Rectángulo_403475" data-name="Rectángulo 403475" width="3.169" height="4.182" transform="translate(97.172 10.299)" fill="#3a1d71"/>
            <rect id="Rectángulo_403476" data-name="Rectángulo 403476" width="51.405" height="4.182" transform="translate(103.16 10.299)" fill="#3a1d71"/>
            <rect id="Rectángulo_403477" data-name="Rectángulo 403477" width="15.091" height="4.182" transform="translate(160.902 10.299)" fill="#3a1d71"/>
            <rect id="Rectángulo_403478" data-name="Rectángulo 403478" width="5.987" height="4.182" transform="translate(87.315 10.299)" fill="#3a1d71"/>
            <rect id="Rectángulo_403479" data-name="Rectángulo 403479" width="27.469" height="4.182" transform="translate(48.236 10.299)" fill="#3a1d71"/>
            <rect id="Rectángulo_403480" data-name="Rectángulo 403480" width="35.91" height="4.182" transform="translate(9.156 10.299)" fill="#3a1d71"/>
            <rect id="Rectángulo_403481" data-name="Rectángulo 403481" width="5.987" height="4.182" transform="translate(0 10.299)" fill="#3a1d71"/>
            <rect id="Rectángulo_403482" data-name="Rectángulo 403482" width="5.286" height="4.182" transform="translate(0 20.611)" fill="#3a1d71"/>
            <rect id="Rectángulo_403483" data-name="Rectángulo 403483" width="51.755" height="4.182" transform="translate(9.858 20.611)" fill="#3a1d71"/>
            <rect id="Rectángulo_403484" data-name="Rectángulo 403484" width="81.691" height="4.182" transform="translate(67.249 20.611)" fill="#3a1d71"/>
            <rect id="Rectángulo_403485" data-name="Rectángulo 403485" width="24.248" height="4.182" transform="translate(151.759 20.611)" fill="#3a1d71"/>
            <rect id="Rectángulo_403486" data-name="Rectángulo 403486" width="62.678" height="4.182" transform="translate(107.394 30.91)" fill="#3a1d71"/>
            <rect id="Rectángulo_403487" data-name="Rectángulo 403487" width="9.858" height="4.182" transform="translate(0 30.91)" fill="#3a1d71"/>
            <rect id="Rectángulo_403488" data-name="Rectángulo 403488" width="9.858" height="4.182" transform="translate(0 62.654)" fill="#3a1d71"/>
            <rect id="Rectángulo_403489" data-name="Rectángulo 403489" width="49.301" height="4.182" transform="translate(14.078 30.91)" fill="#3a1d71"/>
            <rect id="Rectángulo_403490" data-name="Rectángulo 403490" width="49.301" height="4.182" transform="translate(14.078 62.654)" fill="#3a1d71"/>
            <rect id="Rectángulo_403491" data-name="Rectángulo 403491" width="32.04" height="4.182" transform="translate(66.548 30.91)" fill="#3a1d71"/>
            <rect id="Rectángulo_403492" data-name="Rectángulo 403492" width="32.04" height="4.182" transform="translate(66.548 62.654)" fill="#3a1d71"/>
            <rect id="Rectángulo_403493" data-name="Rectángulo 403493" width="9.507" height="4.182" transform="translate(33.793 41.222)" fill="#3a1d71"/>
            <rect id="Rectángulo_403494" data-name="Rectángulo 403494" width="29.573" height="4.182" transform="translate(0 41.222)" fill="#3a1d71"/>
            <rect id="Rectángulo_403495" data-name="Rectángulo 403495" width="8.806" height="4.182" transform="translate(46.82 41.222)" fill="#3a1d71"/>
            <rect id="Rectángulo_403496" data-name="Rectángulo 403496" width="39.794" height="4.182" transform="translate(59.145 41.222)" fill="#3a1d71"/>
            <rect id="Rectángulo_403497" data-name="Rectángulo 403497" width="17.962" height="4.182" transform="translate(104.575 41.222)" fill="#3a1d71"/>
            <rect id="Rectángulo_403498" data-name="Rectángulo 403498" width="18.312" height="4.182" transform="translate(130.278 41.222)" fill="#3a1d71"/>
            <rect id="Rectángulo_403499" data-name="Rectángulo 403499" width="12.325" height="4.182" transform="translate(157.733 41.222)" fill="#3a1d71"/>
            <rect id="Rectángulo_403500" data-name="Rectángulo 403500" width="20.066" height="4.182" transform="translate(116.654 51.521)" fill="#3a1d71"/>
            <rect id="Rectángulo_403501" data-name="Rectángulo 403501" width="10.559" height="4.182" transform="translate(0 51.521)" fill="#3a1d71"/>
            <rect id="Rectángulo_403502" data-name="Rectángulo 403502" width="50.353" height="4.182" transform="translate(17.949 51.521)" fill="#3a1d71"/>
            <rect id="Rectángulo_403503" data-name="Rectángulo 403503" width="10.208" height="4.182" transform="translate(76.055 51.521)" fill="#3a1d71"/>
            <rect id="Rectángulo_403504" data-name="Rectángulo 403504" width="16.195" height="4.182" transform="translate(91.185 51.521)" fill="#3a1d71"/>
            <rect id="Rectángulo_403505" data-name="Rectángulo 403505" width="24.65" height="4.182" transform="translate(146.473 51.521)" fill="#3a1d71"/>
          </g>
        </g>
      </g>
      <g id="Grupo_1102471" data-name="Grupo 1102471" transform="translate(1278.185 1389.797)">
        <path id="Trazado_884621" data-name="Trazado 884621" d="M800.061,210.756,796.972,198.1A19.378,19.378,0,0,1,788.01,181.5c0-11.6,8.693-21.281,21.757-20.219s18.766,12.124,18.3,18.521-.574,10.451-4.334,14.114-6.1,5.69-6.1,5.69l-3.077,11.147H800.061Z" transform="translate(-784.445 -160.442)" fill="#f5c59d"/>
        <path id="Trazado_884622" data-name="Trazado 884622" d="M801.239,167.494a2.344,2.344,0,1,1-2.344-2.344A2.345,2.345,0,0,1,801.239,167.494Z" transform="translate(-782.558 -159.57)" fill="#fff"/>
        <path id="Trazado_884623" data-name="Trazado 884623" d="M794.686,171.338a1.038,1.038,0,1,1-1.038-1.038A1.037,1.037,0,0,1,794.686,171.338Z" transform="translate(-783.429 -158.433)" fill="#fff"/>
        <path id="Trazado_884624" data-name="Trazado 884624" d="M796.56,201.79H816.2l-1.636,13.552-16.91-.122Z" transform="translate(-782.556 -151.476)" fill="#7c60ff"/>
        <path id="Trazado_884625" data-name="Trazado 884625" d="M793.456,207.083a.306.306,0,0,1-.024-.61l25.994-1.892a.289.289,0,0,1,.33.281.3.3,0,0,1-.281.33l-25.993,1.892Z" transform="translate(-783.31 -150.86)" fill="#fff"/>
        <path id="Trazado_884626" data-name="Trazado 884626" d="M793.456,210.713a.306.306,0,0,1-.024-.61l25.994-1.892a.3.3,0,0,1,.33.281.3.3,0,0,1-.281.33l-25.993,1.892Z" transform="translate(-783.31 -150.058)" fill="#fff"/>
        <path id="Trazado_884627" data-name="Trazado 884627" d="M807.25,160.58c-12.222,0-22.16,9.535-22.16,21.256a21.025,21.025,0,0,0,9.572,17.2,4.041,4.041,0,0,1,1.673,2.417L798.5,210.3h-.879a.639.639,0,0,0-.452.2.588.588,0,0,0-.159.464l1.258,13.552a.6.6,0,0,0,.611.549h2.247c.4,2.332,2.979,4.139,6.129,4.139s5.738-1.807,6.129-4.139h2.246a.62.62,0,0,0,.61-.549l1.258-13.552a.588.588,0,0,0-.159-.464.618.618,0,0,0-.452-.2H816l2.161-8.839a4.147,4.147,0,0,1,1.673-2.417,21.025,21.025,0,0,0,9.572-17.2c0-11.721-9.938-21.256-22.16-21.256Zm0,67.383c-2.43,0-4.444-1.233-4.9-2.918h9.8C811.743,226.693,809.7,227.963,807.25,227.963Zm7.814-4.127H801.976a.552.552,0,0,0-.317-.11.631.631,0,0,0-.378.11h-1.868L798.264,211.5H816.2l-1.147,12.331Zm-7.4-13.552v-9.633a.61.61,0,1,0-1.221,0v9.633H802.72l-4.652-27.19,2.637-2.308,2.82,2.967a.619.619,0,0,0,.44.183.631.631,0,0,0,.4-.147l2.857-2.491,2.857,2.491a.609.609,0,0,0,.842-.037l2.82-2.967,2.32,2.027-4.7,27.471h-3.724Zm11.489-12.258a5.3,5.3,0,0,0-2.173,3.138l-2.222,9.133h-2.125l4.64-27.129a.9.9,0,0,0,.073-.061.59.59,0,0,0,.061-.708l.305-1.795a.613.613,0,1,0-1.209-.208l-.171,1.013-2.2-1.917a.622.622,0,0,0-.843.037l-2.833,2.967-2.82-2.454a.627.627,0,0,0-.806,0l-2.82,2.454-2.833-2.967a.609.609,0,0,0-.842-.037l-2.515,2.2-.22-1.294a.618.618,0,0,0-.708-.5.611.611,0,0,0-.5.708l5.079,29.693h-1.746l-2.222-9.12a5.3,5.3,0,0,0-2.173-3.138,19.824,19.824,0,0,1-9.035-16.189c0-11.049,9.4-20.035,20.939-20.035s20.939,8.986,20.939,20.035a19.807,19.807,0,0,1-9.035,16.189Z" transform="translate(-785.09 -160.58)" fill="#251c4a"/>
      </g>
      <g id="Grupo_1102488" data-name="Grupo 1102488" transform="translate(1092.79 1385.335)">
        <g id="Grupo_1102487" data-name="Grupo 1102487" transform="translate(0 0)">
          <g id="Grupo_1102486" data-name="Grupo 1102486" transform="translate(0)" clip-path="url(#clip-path-3)">
            <g id="Grupo_1102485" data-name="Grupo 1102485">
              <g id="Grupo_1102484" data-name="Grupo 1102484" clip-path="url(#clip-path-3)">
                <path id="Trazado_884628" data-name="Trazado 884628" d="M92.37,437.314c54.458.4,111.015-4.635,144.375-103.6,9.918-29.419,5.245-52.215-3.532-69.614a103.349,103.349,0,0,0-7.1-11.924l0,0q-1.418-2.067-2.872-4c-20.141-26.953-55.379-37.81-87.45-27.635-17.988,5.7-41.116,14.289-61.9,25.845C32.12,269.6,21.366,297.636,6,345.864c-1.321,4.14-2.66,8.791-3.738,13.742-.579,2.648-1.08,5.38-1.461,8.169-4.271,31.074,6.18,68.922,91.572,69.539" transform="translate(13.543 -110.111)" fill="#12263f"/>
                <path id="Trazado_884629" data-name="Trazado 884629" d="M14.186,404.329A64.156,64.156,0,0,0,21.349,419.8c9.659,15.169,30.315,33.879,73.877,36.878q2.875.2,5.68.315c16.662.707,31.443-.681,45.044-4.213a109.605,109.605,0,0,0,38.328-18.2c19.321-14.281,35.654-35.68,52.947-69.381A100.072,100.072,0,0,0,248.6,324.722a89.26,89.26,0,0,0-2-24.068,103.35,103.35,0,0,0-7.1-11.924c.609,1.587,1.194,3.244,1.742,4.97,5.034,15.865,7.9,40.882-7.021,69.967-30.354,59.151-64.157,94.771-138.766,89.648C53.3,450.414,33.437,432.5,24.2,417.989a59.266,59.266,0,0,1-8.552-21.829c-.579,2.648-1.08,5.38-1.461,8.169" transform="translate(0.154 -146.665)" fill="#274467"/>
                <path id="Trazado_884630" data-name="Trazado 884630" d="M368.326,195.167s-36.1,44.874-44.871,67.612,9.441,39.935,9.441,39.935l17.273,7.329s21.5-80.7,18.158-114.876" transform="translate(-270.796 -99.139)" fill="#084fc7"/>
                <path id="Trazado_884631" data-name="Trazado 884631" d="M161.389,317.47c14.713,5.58,50.615,20.094,66.677,15.515a15.042,15.042,0,0,0,1.922-.686,9.961,9.961,0,0,0,4.231-3.275c6.61-9.193,14.449-48.583,12.672-72.013-.222-2.925-.256-6.1-.173-9.417.126-4.89.51-10.113.941-15.37,1.621-19.765,5.319-33.3-2.945-38.472A98.949,98.949,0,0,0,221.748,183.6c-3.761-1.071-9.9-3.236-14.261-3.334l-19.026,2.629s-16.408,2.028-20.286,4.644-6.316,14.748-13.583,25.653-9.217,22.064-3.253,34.625c5.191,10.924,4.369,6.83,4.364,24.395,0,21.519-23.04,34.369,5.685,45.26" transform="translate(-66.351 -91.569)" fill="#fff"/>
                <g id="Grupo_1102474" data-name="Grupo 1102474" transform="translate(101.483 123.759)" opacity="0.8">
                  <g id="Grupo_1102473" data-name="Grupo 1102473">
                    <g id="Grupo_1102472" data-name="Grupo 1102472" clip-path="url(#clip-path-5)">
                      <path id="Trazado_884632" data-name="Trazado 884632" d="M264.254,255.136s-20.234-6.159-46.544-2.388l-1.4,18.02s28.843-1.974,46.728,3.394Z" transform="translate(-216.313 -251.526)" fill="#ced3e6"/>
                    </g>
                  </g>
                </g>
                <g id="Grupo_1102477" data-name="Grupo 1102477" transform="translate(114.861 98.446)" opacity="0.8">
                  <g id="Grupo_1102476" data-name="Grupo 1102476">
                    <g id="Grupo_1102475" data-name="Grupo 1102475" clip-path="url(#clip-path-6)">
                      <path id="Trazado_884633" data-name="Trazado 884633" d="M226.887,212.762q.412.018.843.014c11.2-.1,21.868-9.534,22.317-9.936a.766.766,0,0,0-1.021-1.142c-.106.094-10.69,9.448-21.309,9.545-10.178.1-10.974-10.019-11-10.449a.766.766,0,0,0-1.529.1c.007.117.869,11.408,11.7,11.867" transform="translate(-215.181 -200.08)" fill="#ced3e6"/>
                    </g>
                  </g>
                </g>
                <g id="Grupo_1102480" data-name="Grupo 1102480" transform="translate(100.048 185.891)" opacity="0.8">
                  <g id="Grupo_1102479" data-name="Grupo 1102479">
                    <g id="Grupo_1102478" data-name="Grupo 1102478" clip-path="url(#clip-path-7)">
                      <path id="Trazado_884634" data-name="Trazado 884634" d="M259.821,394.722a.79.79,0,0,0,.215-.218.8.8,0,0,0-.223-1.106,94.072,94.072,0,0,0-37.075-14.553,68.905,68.905,0,0,0-16.577-.881.8.8,0,0,0,.169,1.587,68.863,68.863,0,0,1,16.219.88,92.465,92.465,0,0,1,36.38,14.3.8.8,0,0,0,.891,0" transform="translate(-205.449 -377.802)" fill="#ced3e6"/>
                    </g>
                  </g>
                </g>
                <path id="Trazado_884635" data-name="Trazado 884635" d="M139.535,321.481c13.614-3.685,26.123-11.741,34.746-19.026q1.023-.866,1.973-1.714c4.473-3.991,7.412-1.717,8.829-4.067,5.411-8.979,4.09-45.148,2.479-58.479s8.555-37.2,4.007-46.078-21.353-12.626-21.353-12.626,2.515-2.694-1.9-6.084-16.572-2.579-16.572-2.579c-3,57.274-13.38,110.151-12.212,150.651" transform="translate(-5.503 -86.733)" fill="#0875f7"/>
                <path id="Trazado_884636" data-name="Trazado 884636" d="M207.458,324.507a.749.749,0,0,0,.766-.6c7.8-39.485,4.924-114.5,4.894-115.249a.75.75,0,0,0-1.5.06c.03.751,2.9,75.587-4.866,114.9a.75.75,0,0,0,.59.881.706.706,0,0,0,.115.014" transform="translate(-59.526 -105.624)" fill="#fff"/>
                <path id="Trazado_884637" data-name="Trazado 884637" d="M215.666,325.618a.75.75,0,0,0,.763-.588c9.93-45.312,13.907-124.044,13.946-124.834a.75.75,0,0,0-.711-.786h-.005a.749.749,0,0,0-.78.712c-.039.789-4.01,79.4-13.914,124.587a.75.75,0,0,0,.572.893.793.793,0,0,0,.13.017" transform="translate(-80.28 -101.293)" fill="#084fc7"/>
                <path id="Trazado_884638" data-name="Trazado 884638" d="M185.26,193.735a.747.747,0,0,0,.194-.017,25.2,25.2,0,0,0,10.6-5.141.75.75,0,0,0-1-1.116,24.118,24.118,0,0,1-9.927,4.793.75.75,0,0,0,.13,1.482" transform="translate(-31.251 -95.126)" fill="#084fc7"/>
                <path id="Trazado_884639" data-name="Trazado 884639" d="M279.322,295.646a41.272,41.272,0,0,0,21.6,24.762c4.061-43.612,11.2-93.311,19.919-146.134,0,0-6.76-1.487-9.767,2.287a10.833,10.833,0,0,0-1.679,4.456,35.179,35.179,0,0,0-7.4,2.14c-3.889,1.612-3.556,4.072-4.728,10.226s-11.143,15.332-14.806,28.185,4.236,21.48,6.351,32.483-9.493,41.6-9.493,41.6" transform="translate(-202.42 -88.379)" fill="#0875f7"/>
                <path id="Trazado_884640" data-name="Trazado 884640" d="M295.249,193.4a.75.75,0,0,0,.189-1.482c-.051-.011-4.807-1.082-5.761-4.608a.75.75,0,0,0-1.447.392c1.194,4.415,6.661,5.632,6.893,5.682a.741.741,0,0,0,.125.016" transform="translate(-181.978 -94.864)" fill="#084fc7"/>
                <path id="Trazado_884641" data-name="Trazado 884641" d="M291.1,317.2a.75.75,0,0,0,.771-.628C299,272.966,310.3,203.259,310.41,202.56a.75.75,0,1,0-1.48-.24c-.114.7-11.413,70.4-18.544,114.014a.749.749,0,0,0,.619.861.729.729,0,0,0,.09.009" transform="translate(-197.438 -102.452)" fill="#084fc7"/>
                <path id="Trazado_884642" data-name="Trazado 884642" d="M239.783,444.048c-2.343,1.536-6.013,3.082-11.468,4.566-30.99,8.432-58.36-8.461-58.36-8.461-1.34-8.445.112-17.917,3.081-21.28a3.076,3.076,0,0,1-.184-2.729l-26.9-30.406c15.44,13.94,35.051,19.119,50.066,29.086h.007c4.326,2.871,8.219,5.4,11.075,7.171,4.358,2.7,10.046,3.183,15.662,2.651,10.947-1.043,21.614-5.962,21.614-5.962s35.718-14.4,42.267-13.589c5.092.626-23.617,28.165-46.856,38.954" transform="translate(-103.187 -195.942)" fill="#00a74c"/>
                <path id="Trazado_884643" data-name="Trazado 884643" d="M322.623,544.152s9.131-2.209,12.025-5.02l5.642,15.023L318.67,559.91s.253-12.977,3.953-15.757" transform="translate(-241.228 -273.862)" fill="#f0b8a0"/>
                <path id="Trazado_884644" data-name="Trazado 884644" d="M346.637,569.568l30.179-60.054a9.391,9.391,0,0,1,3.733.886c5.269,2.177,12.562,7.871,17.275,11.234.549.4,1.065.759,1.537,1.077a19.618,19.618,0,0,0,2,1.228c4.172,2.1,1.834,4.3,1.834,4.3-8.1,3.629-3.768,15.588-8.718,18.133,0,0-2.11,1.107-8.8,3.72s-13.591,9.3-19.949,14.749c-8.2,7.04-13.194,7.7-16.006,6.9a5.252,5.252,0,0,1-3.087-2.17" transform="translate(-318.545 -258.815)" fill="#ebb12b"/>
                <path id="Trazado_884645" data-name="Trazado 884645" d="M393.985,569.568l30.179-60.054a9.391,9.391,0,0,1,3.733.886l-30.825,61.339a5.252,5.252,0,0,1-3.087-2.17" transform="translate(-365.893 -258.815)" fill="#c77e2e"/>
                <path id="Trazado_884646" data-name="Trazado 884646" d="M355.753,520.127l.9-1.784a14.749,14.749,0,0,0,7.994,8.06,18.953,18.953,0,0,0,15.2-.284c.549.4,1.065.759,1.537,1.076-3.378,1.642-10.1,3.894-17.38.673a16.307,16.307,0,0,1-8.243-7.742" transform="translate(-300.561 -263.302)" fill="#c77e2e"/>
                <path id="Trazado_884647" data-name="Trazado 884647" d="M386.53,585.659a1.108,1.108,0,0,1,2.07.742l-.954,4.219a1.107,1.107,0,1,1-2.16-.488l.954-4.22a1.088,1.088,0,0,1,.091-.254" transform="translate(-322.428 -297.186)" fill="#fff"/>
                <path id="Trazado_884648" data-name="Trazado 884648" d="M376.375,581.272a1.108,1.108,0,0,1,2.069.743l-.954,4.219a1.107,1.107,0,1,1-2.16-.488l.954-4.219a1.094,1.094,0,0,1,.091-.255" transform="translate(-307.276 -294.958)" fill="#fff"/>
                <path id="Trazado_884649" data-name="Trazado 884649" d="M394.794,591.057a1.108,1.108,0,0,1,2.069.742l-.954,4.219a1.107,1.107,0,1,1-2.161-.488l.954-4.22a1.085,1.085,0,0,1,.091-.254" transform="translate(-334.758 -299.928)" fill="#fff"/>
                <path id="Trazado_884650" data-name="Trazado 884650" d="M402.885,596.54a1.108,1.108,0,0,1,2.07.743L404,601.5a1.108,1.108,0,1,1-2.161-.489l.954-4.22a1.092,1.092,0,0,1,.091-.254" transform="translate(-346.83 -302.714)" fill="#fff"/>
                <path id="Trazado_884651" data-name="Trazado 884651" d="M411,602.873a1.108,1.108,0,0,1,2.07.742l-.954,4.22a1.107,1.107,0,1,1-2.16-.489l.954-4.22a1.107,1.107,0,0,1,.091-.254" transform="translate(-358.942 -305.93)" fill="#fff"/>
                <path id="Trazado_884652" data-name="Trazado 884652" d="M418.894,610.2a1.108,1.108,0,0,1,2.069.743l-.954,4.22a1.108,1.108,0,0,1-2.161-.489l.954-4.22a1.117,1.117,0,0,1,.091-.254" transform="translate(-370.716 -309.652)" fill="#fff"/>
                <path id="Trazado_884653" data-name="Trazado 884653" d="M159.838,419.618s22.687-11.029,35.142-1.232c22.775,17.915-18.467,48.773-64.743,62.733s-60.988,11.164-60.988,11.164-9.792-3.147-5.6-19.054c0,0,26.709-8.879,40.83-18.767s23.988-22.321,55.354-34.844" transform="translate(23.615 -210.466)" fill="#00a74c"/>
                <path id="Trazado_884654" data-name="Trazado 884654" d="M144.426,488.126c9.662-1.893,29.529-10.005,53.147-21.7,17.663-8.747,38.086-20.018,41.185-24.1,1.674-2.2,2.151-4.042,1.416-5.467-1.1-2.133-4.511-2.493-6.07-2.544a.694.694,0,0,0-.054,1.388c1.534.055,4.189.43,4.89,1.794.583,1.132-.379,2.795-1.288,3.991-2.5,3.289-19.615,13.252-40.7,23.692-18.153,8.99-41.556,19.38-52.8,21.583Z" transform="translate(-55.582 -220.619)" fill="#04492e"/>
                <path id="Trazado_884655" data-name="Trazado 884655" d="M327.464,529.548c.719,8.486,2.581,16.25,7.1,22.336,0,0-4.207,2.767-7.846.5-2.78-1.732-7.713-15.147-5.321-22.1,2.438-1.2,4.513-1.567,6.068-.74" transform="translate(-236.532 -268.767)" fill="#04492e"/>
                <path id="Trazado_884656" data-name="Trazado 884656" d="M233.812,546.193s-8.992-2.135-11.428-5.351l-7.846,14,20.5,8.954s2.009-14.294-1.228-17.6" transform="translate(-85.358 -274.73)" fill="#f0b8a0"/>
                <path id="Trazado_884657" data-name="Trazado 884657" d="M174.447,586.188l-20.763-63.924a9.4,9.4,0,0,0-3.824.312c-5.537,1.357-13.607,5.883-18.773,8.5-.6.309-1.167.589-1.682.832a19.571,19.571,0,0,1-2.16.912c-4.441,1.442-2.672,2.75-2.672,2.75,8.444,4.408,1.58,17.2,6.089,20.462,0,0,1.918,1.413,8.133,5.007s12.031,11.243,17.492,17.592c7.045,8.2,11.88,9.6,14.779,9.241a5.25,5.25,0,0,0,3.38-1.678" transform="translate(20.286 -265.249)" fill="#ebb12b"/>
                <path id="Trazado_884658" data-name="Trazado 884658" d="M148.812,586.188,128.05,522.264a9.4,9.4,0,0,0-3.824.312l21.207,65.29a5.25,5.25,0,0,0,3.38-1.678" transform="translate(45.921 -265.249)" fill="#c77e2e"/>
                <path id="Trazado_884659" data-name="Trazado 884659" d="M188.516,533.65l-.617-1.9a14.754,14.754,0,0,1-9.12,6.76,18.955,18.955,0,0,1-14.979-2.576c-.6.309-1.167.589-1.681.832,3.091,2.134,9.393,5.375,17.078,3.29a16.309,16.309,0,0,0,9.318-6.408" transform="translate(-12.426 -270.112)" fill="#c77e2e"/>
                <path id="Trazado_884660" data-name="Trazado 884660" d="M191.165,595.668a1.108,1.108,0,0,0-2.159.421l.306,4.315a1.107,1.107,0,1,0,2.209-.156l-.305-4.315a1.117,1.117,0,0,0-.051-.265" transform="translate(-28.664 -302.192)" fill="#fff"/>
                <path id="Trazado_884661" data-name="Trazado 884661" d="M200.54,589.8a1.108,1.108,0,0,0-2.158.421l.306,4.315a1.107,1.107,0,1,0,2.209-.157l-.306-4.315a1.112,1.112,0,0,0-.051-.265" transform="translate(-42.652 -299.21)" fill="#fff"/>
                <path id="Trazado_884662" data-name="Trazado 884662" d="M183.811,602.251a1.108,1.108,0,0,0-2.158.421l.306,4.315a1.107,1.107,0,1,0,2.209-.156l-.306-4.315a1.114,1.114,0,0,0-.051-.265" transform="translate(-17.691 -305.536)" fill="#fff"/>
                <path id="Trazado_884663" data-name="Trazado 884663" d="M176.639,608.893a1.108,1.108,0,0,0-2.158.422l.306,4.315a1.107,1.107,0,0,0,2.209-.156l-.306-4.315a1.069,1.069,0,0,0-.051-.265" transform="translate(-6.991 -308.91)" fill="#fff"/>
                <path id="Trazado_884664" data-name="Trazado 884664" d="M169.571,616.38a1.108,1.108,0,0,0-2.158.421l.306,4.315a1.107,1.107,0,1,0,2.209-.156l-.306-4.315a1.091,1.091,0,0,0-.051-.265" transform="translate(3.555 -312.713)" fill="#fff"/>
                <path id="Trazado_884665" data-name="Trazado 884665" d="M162.877,624.815a1.108,1.108,0,0,0-2.158.422l.306,4.315a1.108,1.108,0,1,0,2.21-.156l-.306-4.316a1.116,1.116,0,0,0-.051-.265" transform="translate(13.542 -316.997)" fill="#fff"/>
                <path id="Trazado_884666" data-name="Trazado 884666" d="M284.538,384.129s-20.4-14.844-34.378-7.388c-25.569,13.635,9.61,51.259,52.712,73.132s58.078,21.707,58.078,21.707,10.192-1.377,8.857-17.775c0,0-24.734-13.433-36.9-25.649s-19.693-26.188-48.371-44.028" transform="translate(-232.902 -190.308)" fill="#00a74c"/>
                <path id="Trazado_884667" data-name="Trazado 884667" d="M265.73,544.327c2.385.9,4.813,1.8,7.319,2.71,9.7,3.512,20.791,7.228,30.852,10.156l-.026,1.456c-9.085-2.627-19.732-6.119-31.3-10.307-2.258-.818-4.562-1.674-6.872-2.544Z" transform="translate(-178.778 -276.501)" fill="#04492e"/>
                <path id="Trazado_884668" data-name="Trazado 884668" d="M331.472,473.35c-9.178-3.561-27.312-15.039-48.507-30.7-15.852-11.714-33.976-26.4-36.31-30.957-1.261-2.463-1.407-4.357-.434-5.632,1.457-1.907,4.879-1.662,6.423-1.438a.695.695,0,0,1-.192,1.376c-1.518-.216-4.2-.313-5.128.906-.772,1.012-.119,2.818.566,4.155,1.883,3.676,16.981,16.492,35.9,30.474,16.291,12.039,37.5,26.381,48.184,30.524Z" transform="translate(-196.952 -205.458)" fill="#04492e"/>
                <path id="Trazado_884669" data-name="Trazado 884669" d="M247.178,530.074c-2.2,8.228-5.4,15.544-10.914,20.741,0,0,3.655,3.463,7.636,1.871,3.041-1.216,10.254-13.556,9.121-20.817-2.189-1.609-4.167-2.335-5.843-1.794" transform="translate(-113.533 -269.171)" fill="#04492e"/>
                <path id="Trazado_884670" data-name="Trazado 884670" d="M91.412,300.375l.665,24.153s28.809-2.875,43.021-5.862a57.79,57.79,0,0,0,13.093-4.076c7.935-3.8,14.677-10.7,14.795-24.719a64.219,64.219,0,0,0-2.114-15.838c-8.751-35.409-24.634-65.5-24.634-65.5-22.453,8.5-21.265,24.289-21.265,24.289,5.581,17.044,17.972,53.369,17.972,53.369-8.489,9.517-41.533,14.179-41.533,14.179" transform="translate(47.891 -105.931)" fill="#0875f7"/>
                <path id="Trazado_884671" data-name="Trazado 884671" d="M132.365,361.124a.748.748,0,0,0,.4-.1c2.5-1.4,9.2-2.686,9.267-2.7a.75.75,0,1,0-.279-1.473,59.761,59.761,0,0,0-8.065,2.121,13.38,13.38,0,0,1,2.34-3.138.75.75,0,0,0-1.083-1.037,11.568,11.568,0,0,0-3.281,5.42.75.75,0,0,0,.7.9" transform="translate(48.44 -180.111)" fill="#084fc7"/>
                <path id="Trazado_884672" data-name="Trazado 884672" d="M91.788,398.557c7.934-3.8,14.677-10.7,14.794-24.719-6.284,2.954-17.328,10.3-14.794,24.719" transform="translate(104.294 -189.898)" fill="#084fc7"/>
                <path id="Trazado_884673" data-name="Trazado 884673" d="M151.663,324.485a.767.767,0,0,0,.188-.016,59.1,59.1,0,0,0,23.655-10.656.75.75,0,0,0,.2-.889c-9.273-20.318-15-36.384-18.034-50.56a.75.75,0,1,0-1.466.313c3.027,14.16,8.715,30.164,17.891,50.33a59.789,59.789,0,0,1-22.562,10,.75.75,0,0,0,.123,1.483" transform="translate(5.809 -132.971)" fill="#084fc7"/>
                <path id="Trazado_884674" data-name="Trazado 884674" d="M188.115,277.247a.75.75,0,0,0,.637-1.19l-4.975-6.829a.75.75,0,1,0-1.212.883l4.975,6.829a.749.749,0,0,0,.575.308" transform="translate(-22.797 -136.602)" fill="#084fc7"/>
                <path id="Trazado_884675" data-name="Trazado 884675" d="M241.189,94.23l-25.6,2.556c-16.453-2.353-21.438-9.144-23.552-23.151a37.664,37.664,0,0,1,1.627-17.7c.57-5.207,1.949-9.668,4.546-12.54,11.736-12.986,21.547-12.044,21.547-12.044,5.092-2.078,21.666-2.947,31.993,10.731a0,0,0,0,1,0,0c.333.309,6.669,7.622,7.576,22.455.863,14.139-9.29,31.718-18.142,29.687" transform="translate(-97.812 -15.323)" fill="#39393b"/>
                <path id="Trazado_884676" data-name="Trazado 884676" d="M183.48,20.144S181.831-3.43,202.524.427c13.523,2.521,21.157,21.314,8.364,29.156s-27.408-9.439-27.408-9.439" transform="translate(-51.847 0)" fill="#39393b"/>
                <path id="Trazado_884677" data-name="Trazado 884677" d="M225.465,46.219a.66.66,0,0,0,.618-.952,30.1,30.1,0,0,0-16.014-15.058,27.22,27.22,0,0,0-9.592-2.027A.66.66,0,0,0,200.5,29.5a28.545,28.545,0,0,1,24.4,16.352.658.658,0,0,0,.563.366" transform="translate(-68.618 -14.315)" fill="#ebb12b"/>
                <path id="Trazado_884678" data-name="Trazado 884678" d="M222.254,92.952s16.613-8.388,14.224-27.424S222.13,34.591,202.819,39.262c0,0-.467,54.714,19.435,53.691" transform="translate(-80.649 -19.428)" fill="#39393b"/>
                <path id="Trazado_884679" data-name="Trazado 884679" d="M308.542,74.917s-2.344,16.154.513,18.627,6.027-3.82,6.027-3.82-3.423-14.5-6.54-14.807" transform="translate(-210.592 -38.055)" fill="#39393b"/>
                <path id="Trazado_884680" data-name="Trazado 884680" d="M313.133,114.448s-4.659-4.456-6.483.685,1.024,14.856,7.157,12.569Z" transform="translate(-208.563 -57.226)" fill="#d46a43"/>
                <path id="Trazado_884681" data-name="Trazado 884681" d="M291.766,118.292a10.983,10.983,0,0,0,2.129,1.66c2.97,1.767,6.937,2.129,11.808-.178,0,0,6.435-7.675-1.985-22.052,0,0-8.175-2.526-13.111,2.274a9.7,9.7,0,0,0-1.5,1.866,11,11,0,0,0-.762,1.438c-1.857,4.183-.588,11.032,3.42,14.992" transform="translate(-193.661 -49.302)" fill="#21b573"/>
                <path id="Trazado_884682" data-name="Trazado 884682" d="M315.505,92.374a68.158,68.158,0,0,1-.728-6.8,1.047,1.047,0,0,0,.363.111,2.284,2.284,0,0,0,1.54-.471c.12,2.409.37,4.6.635,6.416Z" transform="translate(-216.338 -43.285)" fill="#fff"/>
                <path id="Trazado_884683" data-name="Trazado 884683" d="M318.977,121.325a10.986,10.986,0,0,0,2.129,1.66,41.57,41.57,0,0,1-3.288-19.956,9.7,9.7,0,0,0-1.5,1.866,42.7,42.7,0,0,0,2.658,16.43" transform="translate(-220.871 -52.335)" fill="#217c58"/>
                <path id="Trazado_884684" data-name="Trazado 884684" d="M222.007,154.722l1.427,13.5s7.761,10.876,27.506-5.489c-1.934-5.554-4.952-12.709-3.874-18.057a29.723,29.723,0,0,1-3.9,2.632q-.752.437-1.614.913c-5.073,2.79-12.774,6.315-19.549,6.5" transform="translate(-104.318 -73.489)" fill="#f0b8a0"/>
                <path id="Trazado_884685" data-name="Trazado 884685" d="M237.8,157.439l.668,6.318c5.637-1.9,15.428-6.115,20.5-13.735q-.752.437-1.614.913c-5.073,2.79-12.774,6.315-19.549,6.5" transform="translate(-120.11 -76.206)" fill="#39393b"/>
                <path id="Trazado_884686" data-name="Trazado 884686" d="M229.491,84.292q.227,2.094.453,3.953c1.132,9.316,2.319,14.358,4.8,16.441,12.583,10.529,36.268-6.132,37.029-6.67A.087.087,0,0,0,271.8,98c.12-1.075.217-2.137.3-3.187A82.6,82.6,0,0,0,270.315,70.2a18.68,18.68,0,0,0-14-17.191c-8.219-2.045-14.949,2.186-19.075,3.951-6.228,2.668-9.4,11.414-8.18,23.272.147,1.424.287,2.779.429,4.064" transform="translate(-129.064 -26.648)" fill="#f0b8a0"/>
                <path id="Trazado_884687" data-name="Trazado 884687" d="M274.586,132.279c7.272.308,10.478-6.528,10.513-6.6a.661.661,0,0,0-1.2-.549c-.139.3-3.494,7.4-11.371,5.53a.661.661,0,1,0-.305,1.287,12.549,12.549,0,0,0,2.367.336" transform="translate(-162.991 -63.364)" fill="#39393b"/>
                <path id="Trazado_884688" data-name="Trazado 884688" d="M260.957,85.862a1.82,1.82,0,0,1,.634-3.51c3.376-.075,8.77.239,9.107,2.969.493,3.994-5.716,2.075-9.625.585l-.116-.045" transform="translate(-142.703 -41.827)" fill="#39393b"/>
                <path id="Trazado_884689" data-name="Trazado 884689" d="M308.044,87.7a1.82,1.82,0,0,0-1.738-3.115c-3.218,1.024-8.218,3.069-7.652,5.762.829,3.938,6.08.11,9.3-2.567l.095-.08" transform="translate(-199.758 -42.918)" fill="#39393b"/>
                <path id="Trazado_884690" data-name="Trazado 884690" d="M280.731,145.279a5.773,5.773,0,0,1-2.529-.051.439.439,0,0,1,.24-.844,4.69,4.69,0,0,0,3.885-.8.439.439,0,1,1,.555.681,4.96,4.96,0,0,1-2.15,1.01" transform="translate(-163.914 -72.888)" fill="#d46a43"/>
                <path id="Trazado_884691" data-name="Trazado 884691" d="M295.033,118.018a.483.483,0,0,0-.026-.895l-3.13-1.178,1.966-1.829a.482.482,0,0,0,.152-.387l-.363-5.278a.484.484,0,0,0-.966.066l.347,5.048-2.368,2.2a.483.483,0,0,0,.159.806l3.861,1.454a.484.484,0,0,0,.367-.01" transform="translate(-182.395 -54.861)" fill="#39393b"/>
                <path id="Trazado_884692" data-name="Trazado 884692" d="M253.379,116.176c.116,1.1,2.471,1.749,5.261,1.453s4.956-1.424,4.84-2.522-2.472-1.749-5.261-1.453-4.956,1.423-4.84,2.522" transform="translate(-132.296 -57.697)" fill="#d46a43"/>
                <g id="Grupo_1102483" data-name="Grupo 1102483" transform="translate(100.372 58.885)" opacity="0.8">
                  <g id="Grupo_1102482" data-name="Grupo 1102482" transform="translate(0)">
                    <g id="Grupo_1102481" data-name="Grupo 1102481" clip-path="url(#clip-path-8)">
                      <path id="Trazado_884693" data-name="Trazado 884693" d="M306.236,119.709q.227,2.094.453,3.953c2.551-.368,4.458-1.429,4.349-2.462s-2.218-1.674-4.8-1.491" transform="translate(-306.236 -119.678)" fill="#d46a43"/>
                    </g>
                  </g>
                </g>
                <path id="Trazado_884694" data-name="Trazado 884694" d="M272.835,107.693c.159,1.508.973,2.657,1.816,2.568s1.4-1.384,1.239-2.892-.973-2.657-1.816-2.568-1.4,1.384-1.239,2.892" transform="translate(-154.29 -53.233)" fill="#39393b"/>
                <path id="Trazado_884695" data-name="Trazado 884695" d="M303.153,110.9c.159,1.508.973,2.657,1.816,2.568s1.4-1.384,1.239-2.892-.973-2.657-1.817-2.568-1.4,1.384-1.238,2.892" transform="translate(-199.526 -54.862)" fill="#39393b"/>
                <path id="Trazado_884696" data-name="Trazado 884696" d="M229.308,133.669c.09.161,2.559,4.549,5.553,5.6,0,0,0,0,.005,0l.013-.017q.184-1.611.3-3.188a11.613,11.613,0,0,1-5.872-2.4" transform="translate(-92.15 -67.9)" fill="#39393b"/>
                <path id="Trazado_884697" data-name="Trazado 884697" d="M214.047,106.753s5.172-8.736,10.262-2.839c4.194,4.859-1.183,19.546-9.092,15.224Z" transform="translate(-75.234 -51.746)" fill="#ea9b7a"/>
                <path id="Trazado_884698" data-name="Trazado 884698" d="M222.48,120.919a.624.624,0,0,0,.557-.618,10.423,10.423,0,0,1,5.139-8.991.624.624,0,0,0-.582-1.1,11.672,11.672,0,0,0-5.8,10.09.624.624,0,0,0,.69.622" transform="translate(-81.779 -55.945)" fill="#39393b"/>
                <path id="Trazado_884699" data-name="Trazado 884699" d="M226.571,120.755a.624.624,0,0,0,.276-1.143c-.269-.175-2.677-1.693-4.491-1.018a.624.624,0,0,0,.435,1.17c1.041-.387,2.831.539,3.375.894a.619.619,0,0,0,.406.1" transform="translate(-80.479 -60.155)" fill="#39393b"/>
                <path id="Trazado_884700" data-name="Trazado 884700" d="M268.121,108.805a9.119,9.119,0,1,0-11.539-5.759,9.128,9.128,0,0,0,11.539,5.759M262.764,92.77a7.787,7.787,0,1,1-4.918,9.854,7.8,7.8,0,0,1,4.918-9.854" transform="translate(-144.509 -46.244)" fill="#fff"/>
                <path id="Trazado_884701" data-name="Trazado 884701" d="M236.479,103.739a.662.662,0,0,0,.245-.05,13.524,13.524,0,0,1,9.625-.111.666.666,0,0,0,.527-1.222,14.7,14.7,0,0,0-10.655.1.666.666,0,0,0,.258,1.282" transform="translate(-107.445 -51.51)" fill="#fff"/>
                <path id="Trazado_884702" data-name="Trazado 884702" d="M309.284,111.7a9.119,9.119,0,1,0-11.539-5.759,9.129,9.129,0,0,0,11.539,5.759m-5.358-16.035a7.788,7.788,0,1,1-4.918,9.854,7.8,7.8,0,0,1,4.918-9.854" transform="translate(-205.926 -47.714)" fill="#fff"/>
                <path id="Trazado_884703" data-name="Trazado 884703" d="M295.066,105.788a.666.666,0,0,0,.091-1.149,4.109,4.109,0,0,0-4.628.161.666.666,0,0,0,.765,1.089,2.79,2.79,0,0,1,3.108-.154.666.666,0,0,0,.663.053" transform="translate(-182.399 -52.828)" fill="#fff"/>
                <path id="Trazado_884704" data-name="Trazado 884704" d="M242.713,42.615A21.873,21.873,0,0,0,230.35,54.963c-1.367,3.551-2.587,8.26,2.5,7.86,13.886-1.091,21.885-15.112,21.885-15.112s2.129,13.325,13.048,12.17,10.919-9.352,4.949-14.241c-4.866-3.985-17.514-8.036-30.023-3.025" transform="translate(-133.627 -20.464)" fill="#39393b"/>
                <path id="Trazado_884705" data-name="Trazado 884705" d="M227.221,75.608s5.893,6.886,3.376,13.928-2.909,12.752-.762,16.679c0,0,.916-7.486,3.905-13.062,2.454-4.578,4.712-8.049,3.311-13.51-.962-3.749-3.517-7.421-9.83-4.035" transform="translate(-93.425 -37.727)" fill="#39393b"/>
                <path id="Trazado_884706" data-name="Trazado 884706" d="M198.7,116.375c4.734,1.358,8.466.845,11.28-.756a11.877,11.877,0,0,0,1.278-.85c5.954-4.566,6.8-14.526,3.488-19.57a11.2,11.2,0,0,0-4.032-3.8,9.692,9.692,0,0,0-1.362-.628c-5.86-2.2-12.457,1.09-12.457,1.09-7.536,18.27,1.8,24.518,1.8,24.518" transform="translate(-56.242 -45.722)" fill="#21b573"/>
                <path id="Trazado_884707" data-name="Trazado 884707" d="M229.18,144.385c14.105-2.266,20.477-12.088,20.772-12.555a.81.81,0,1,0-1.37-.866c-.1.151-7.877,12.054-24.869,12.26a.81.81,0,1,0,.02,1.62,37.157,37.157,0,0,0,5.447-.46" transform="translate(-103.901 -66.334)" fill="#fff"/>
                <path id="Trazado_884708" data-name="Trazado 884708" d="M275.246,155.629a2.593,2.593,0,1,0,2.149-2.971,2.592,2.592,0,0,0-2.149,2.971" transform="translate(-159.955 -77.528)" fill="#39393b"/>
                <path id="Trazado_884709" data-name="Trazado 884709" d="M207.561,116.4a11.842,11.842,0,0,0,1.278-.849,33.348,33.348,0,0,1-.544-23.374,9.721,9.721,0,0,0-1.362-.628,34.966,34.966,0,0,0,.628,24.852" transform="translate(-53.826 -46.504)" fill="#217c58"/>
                <path id="Trazado_884710" data-name="Trazado 884710" d="M217.412,43.531a22.269,22.269,0,0,1,3.309-4.262,20.761,20.761,0,0,1,2.184-4.337c3.121-4.515,7.874-7.161,14.128-7.863,6.759-.752,12.526.816,17.139,4.677A24.52,24.52,0,0,1,258,35.8a34.384,34.384,0,0,1,3.826,6.571,53.089,53.089,0,0,1,4.112,15.919l1.842-.121c-.051-.757-1.366-18.607-12.419-27.842-5.016-4.192-11.254-5.906-18.528-5.093-6.816.761-12.008,3.675-15.45,8.654a26.69,26.69,0,0,0-3.968,9.644" transform="translate(-118.893 -12.718)" fill="#fff"/>
                <path id="Trazado_884711" data-name="Trazado 884711" d="M198.31,359.706l89.679,3.8a3.445,3.445,0,0,0,3.652-3.771l-3.765-55.665a4.493,4.493,0,0,0-4.185-4.1l-89.679-3.8a3.445,3.445,0,0,0-3.652,3.77l3.765,55.665a4.493,4.493,0,0,0,4.185,4.1" transform="translate(-129.452 -150.442)" fill="#39393b"/>
              </g>
            </g>
          </g>
        </g>
        <g id="Trazado_884712" data-name="Trazado 884712" transform="translate(101.197 169.719)" fill="#fff">
          <path d="M 9.292266845703125 18.08453750610352 C 4.444196701049805 18.08453750610352 0.4999968409538269 14.14033699035645 0.4999968409538269 9.292266845703125 C 0.4999968409538269 4.444196701049805 4.444196701049805 0.4999968409538269 9.292266845703125 0.4999968409538269 C 14.14033699035645 0.4999968409538269 18.08453750610352 4.444196701049805 18.08453750610352 9.292266845703125 C 18.08453750610352 14.14033699035645 14.14033699035645 18.08453750610352 9.292266845703125 18.08453750610352 Z" stroke="none"/>
          <path d="M 9.292266845703125 0.9999961853027344 C 4.719897270202637 0.9999961853027344 0.9999961853027344 4.719897270202637 0.9999961853027344 9.292266845703125 C 0.9999961853027344 13.86463737487793 4.719897270202637 17.58453750610352 9.292266845703125 17.58453750610352 C 13.86463737487793 17.58453750610352 17.58453750610352 13.86463737487793 17.58453750610352 9.292266845703125 C 17.58453750610352 4.719897270202637 13.86463737487793 0.9999961853027344 9.292266845703125 0.9999961853027344 M 9.292266845703125 -3.814697265625e-06 C 14.4242467880249 -3.814697265625e-06 18.58453750610352 4.160286903381348 18.58453750610352 9.292266845703125 C 18.58453750610352 14.4242467880249 14.4242467880249 18.58453750610352 9.292266845703125 18.58453750610352 C 4.160286903381348 18.58453750610352 -3.814697265625e-06 14.4242467880249 -3.814697265625e-06 9.292266845703125 C -3.814697265625e-06 4.160286903381348 4.160286903381348 -3.814697265625e-06 9.292266845703125 -3.814697265625e-06 Z" stroke="none" fill="#0875f7"/>
        </g>
      </g>
      <g id="Grupo_1102489" data-name="Grupo 1102489" transform="translate(1264.411 1469.328)">
        <path id="Trazado_884713" data-name="Trazado 884713" d="M852.117,234.14h-58.6v36.53l-.122,8.705,8.705-8.705h50.021Z" transform="translate(-789.825 -234.14)" fill="#ffc7ec"/>
        <path id="Trazado_884714" data-name="Trazado 884714" d="M791.081,276.934a.372.372,0,0,1-.2-.037.617.617,0,0,1-.415-.574V236.461a.6.6,0,0,1,.61-.61h57.9a.6.6,0,0,1,.61.61v32.293a.6.6,0,0,1-.61.61H797.283l-5.726,7.326a.62.62,0,0,1-.476.232Zm.61-39.863v37.47l4.823-6.166a.6.6,0,0,1,.476-.232h51.377V237.071H791.691Z" transform="translate(-790.47 -233.762)" fill="#251c4a"/>
        <path id="Trazado_884715" data-name="Trazado 884715" d="M801.1,243.842a1.612,1.612,0,1,1-1.612-1.612A1.61,1.61,0,0,1,801.1,243.842Z" transform="translate(-788.833 -232.353)" fill="#7c60ff"/>
        <path id="Trazado_884716" data-name="Trazado 884716" d="M836.675,244.271H803.991a.61.61,0,0,1,0-1.221h32.684a.61.61,0,0,1,0,1.221Z" transform="translate(-787.618 -232.172)" fill="#fff"/>
        <ellipse id="Elipse_11818" data-name="Elipse 11818" cx="1.612" cy="1.612" rx="1.612" ry="1.612" transform="translate(9.047 16.959)" fill="#7c60ff"/>
        <path id="Trazado_884717" data-name="Trazado 884717" d="M832.817,250.071H803.991a.61.61,0,0,1,0-1.221h28.826a.61.61,0,0,1,0,1.221Z" transform="translate(-787.618 -230.89)" fill="#fff"/>
        <path id="Trazado_884718" data-name="Trazado 884718" d="M801.1,255.452a1.612,1.612,0,1,1-1.612-1.612A1.61,1.61,0,0,1,801.1,255.452Z" transform="translate(-788.833 -229.788)" fill="#7c60ff"/>
        <path id="Trazado_884719" data-name="Trazado 884719" d="M827.459,255.881H803.981a.61.61,0,0,1,0-1.221h23.478a.61.61,0,1,1,0,1.221Z" transform="translate(-787.62 -229.607)" fill="#fff"/>
        <path id="Trazado_884720" data-name="Trazado 884720" d="M833.017,255.881h-6.776a.61.61,0,1,1,0-1.221h6.776a.61.61,0,0,1,0,1.221Z" transform="translate(-782.702 -229.607)" fill="#fff"/>
      </g>
      <g id="Grupo_1102490" data-name="Grupo 1102490" transform="translate(1106.227 1486.229)">
        <path id="Trazado_884721" data-name="Trazado 884721" d="M645.55,264.06v40.084h56.813l6.436,8.539V264.06Z" transform="translate(-640.901 -259.569)" fill="#f5c59d"/>
        <path id="Trazado_884722" data-name="Trazado 884722" d="M706.127,311.66a.779.779,0,0,1-.617-.3l-7.416-9.487H643.4a.783.783,0,0,1-.791-.791V264.351a.783.783,0,0,1,.791-.791h62.742a.783.783,0,0,1,.791.791V310.87a.8.8,0,0,1-.538.743.717.717,0,0,1-.253.047Zm-61.952-11.385h54.3a.779.779,0,0,1,.617.3l6.246,7.985V265.126H644.176v35.15Z" transform="translate(-642.61 -259.86)" fill="#251c4a"/>
        <path id="Trazado_884723" data-name="Trazado 884723" d="M662.485,281.911h-7.194a.791.791,0,0,1,0-1.581h7.194a.791.791,0,1,1,0,1.581Z" transform="translate(-635.7 -250.113)" fill="#fff"/>
        <path id="Trazado_884724" data-name="Trazado 884724" d="M685.827,281.911H664.1a.791.791,0,0,1,0-1.581h21.726a.791.791,0,0,1,0,1.581Z" transform="translate(-630.579 -250.113)" fill="#fff"/>
        <path id="Trazado_884725" data-name="Trazado 884725" d="M691.958,276.691H653.551a.791.791,0,1,1,0-1.581h38.408a.791.791,0,1,1,0,1.581Z" transform="translate(-636.711 -253.147)" fill="#fff"/>
        <path id="Trazado_884726" data-name="Trazado 884726" d="M657.934,271.461h-7.953a.791.791,0,1,1,0-1.581h7.953a.791.791,0,1,1,0,1.581Z" transform="translate(-638.786 -256.187)" fill="#fff"/>
        <path id="Trazado_884727" data-name="Trazado 884727" d="M688.134,271.461h-28a.791.791,0,0,1,0-1.581h28a.791.791,0,0,1,0,1.581Z" transform="translate(-632.887 -256.187)" fill="#fff"/>
        <circle id="Elipse_11819" data-name="Elipse 11819" cx="4.491" cy="4.491" r="4.491" transform="translate(49.334)" fill="#7c60ff"/>
      </g>
      <path id="Trazado_884728" data-name="Trazado 884728" d="M535.687,328.923H504.243a.468.468,0,0,1-.472-.472V317.962a.468.468,0,0,1,.472-.472h31.444a.468.468,0,0,1,.472.472V328.45A.468.468,0,0,1,535.687,328.923Zm-30.972-.945h30.5v-9.543h-30.5Z" transform="translate(526.834 1168.739)" fill="#fff"/>
      <path id="Trazado_884729" data-name="Trazado 884729" d="M532.634,328.923H504.2a.447.447,0,0,1-.427-.472V317.962a.447.447,0,0,1,.427-.472h28.436a.447.447,0,0,1,.427.472V328.45A.447.447,0,0,1,532.634,328.923Zm-28.009-.945h27.582v-9.543H504.625Z" transform="translate(849.896 1225.84)" fill="#fff"/>
      <path id="Trazado_884730" data-name="Trazado 884730" d="M535.687,328.923H504.243a.468.468,0,0,1-.472-.472V317.962a.468.468,0,0,1,.472-.472h31.444a.468.468,0,0,1,.472.472V328.45A.468.468,0,0,1,535.687,328.923Zm-30.972-.945h30.5v-9.543h-30.5Z" transform="translate(748.986 1046.499)" fill="#fff"/>
      <path id="Trazado_884731" data-name="Trazado 884731" d="M525.79,328.923H504.1c-.183,0-.326-.208-.326-.472V317.962c0-.265.143-.472.326-.472H525.79c.183,0,.326.208.326.472V328.45C526.116,328.715,525.973,328.923,525.79,328.923Zm-21.368-.945h21.042v-9.543H504.422Z" transform="translate(840.071 1147.8)" fill="#fff"/>
      <g id="Grupo_1102492" data-name="Grupo 1102492" transform="translate(1113.432 1580.509) rotate(-90)">
        <g id="Grupo_1102491" data-name="Grupo 1102491" transform="translate(0)" clip-path="url(#clip-path-9)">
          <path id="Trazado_884732" data-name="Trazado 884732" d="M30.259,0H5.759A5.759,5.759,0,0,0,0,5.759v11.92a5.76,5.76,0,0,0,5.759,5.759h6.4l4.852,11,6.84-11h6.4a5.76,5.76,0,0,0,5.759-5.759V5.759A5.759,5.759,0,0,0,30.259,0" transform="translate(0.581 0.581)" fill="#fff"/>
          <path id="Trazado_884733" data-name="Trazado 884733" d="M30.259,0H5.759A5.759,5.759,0,0,0,0,5.759v11.92a5.76,5.76,0,0,0,5.759,5.759h6.4l4.852,11,6.84-11h6.4a5.76,5.76,0,0,0,5.759-5.759V5.759A5.759,5.759,0,0,0,30.259,0Z" transform="translate(0.581 0.581)" fill="none" stroke="#263238" stroke-linecap="round" stroke-linejoin="round" stroke-width="1"/>
          <path id="Trazado_884734" data-name="Trazado 884734" d="M0,1.12A1.136,1.136,0,0,1,1.194,0,1.111,1.111,0,0,1,2.388,1.074,1.146,1.146,0,0,1,1.194,2.239,1.137,1.137,0,0,1,0,1.12M.254,3.551H2.119v7.968H.254Z" transform="translate(25.681 7.425) rotate(90)" fill="#263238"/>
          <path id="Trazado_884735" data-name="Trazado 884735" d="M3.118,2.79v.477H5.312V4.759H3.177v6.416H1.312V4.759H0V3.267H1.312V2.761A2.575,2.575,0,0,1,4.162,0,2.984,2.984,0,0,1,5.849.432l-.523,1.4A1.835,1.835,0,0,0,4.3,1.506c-.776,0-1.179.433-1.179,1.283" transform="translate(25.337 10.93) rotate(90)" fill="#263238"/>
        </g>
      </g>
      <g id="Grupo_1102494" data-name="Grupo 1102494" transform="translate(1295.224 1533.872) rotate(90)">
        <g id="Grupo_1102493" data-name="Grupo 1102493" transform="translate(0 0)" clip-path="url(#clip-path-10)">
          <path id="Trazado_884736" data-name="Trazado 884736" d="M28.966,0H5.513A5.513,5.513,0,0,0,0,5.513V16.924a5.513,5.513,0,0,0,5.513,5.513h6.13l4.645,10.528,6.548-10.528h6.13a5.513,5.513,0,0,0,5.513-5.513V5.513A5.513,5.513,0,0,0,28.966,0" transform="translate(0.556 0.556)" fill="#fff"/>
          <path id="Trazado_884737" data-name="Trazado 884737" d="M28.966,0H5.513A5.513,5.513,0,0,0,0,5.513V16.924a5.513,5.513,0,0,0,5.513,5.513h6.13l4.645,10.528,6.548-10.528h6.13a5.513,5.513,0,0,0,5.513-5.513V5.513A5.513,5.513,0,0,0,28.966,0Z" transform="translate(0.556 0.556)" fill="none" stroke="#263238" stroke-linecap="round" stroke-linejoin="round" stroke-width="1"/>
          <path id="Trazado_884738" data-name="Trazado 884738" d="M2.057,6.685c.571.186.843.571.843,1.457v2.714a.958.958,0,0,0,1.057,1.085h.3v1.429H3.542a2.121,2.121,0,0,1-2.428-2.328V8.1c0-.471-.242-.686-.643-.686H0V5.957H.471c.4,0,.643-.215.643-.686V2.328A2.121,2.121,0,0,1,3.542,0h.715V1.429h-.3A.959.959,0,0,0,2.9,2.515V5.227c0,.886-.271,1.272-.843,1.457" transform="translate(12.04 17.968) rotate(-90)" fill="#263238"/>
          <path id="Trazado_884739" data-name="Trazado 884739" d="M4.27,5.955V7.413H3.784c-.385,0-.628.213-.628.685V11.04A2.132,2.132,0,0,1,.714,13.369H0V11.94H.3a.962.962,0,0,0,1.071-1.085V8.141c0-.885.257-1.272.829-1.457-.573-.186-.829-.57-.829-1.456V2.514A.963.963,0,0,0,.3,1.427H0V0H.714A2.131,2.131,0,0,1,3.156,2.328V5.27c0,.472.243.686.628.686Z" transform="translate(12.04 9.289) rotate(-90)" fill="#263238"/>
        </g>
      </g>
      <g id="Grupo_1102496" data-name="Grupo 1102496" transform="translate(1220.719 1588.378)">
        <g id="Grupo_1102495" data-name="Grupo 1102495" transform="translate(0 0)" clip-path="url(#clip-path-11)">
          <path id="Trazado_884740" data-name="Trazado 884740" d="M26.575,30.174H5.463A4.962,4.962,0,0,1,.5,25.211V14.94A4.962,4.962,0,0,1,5.463,9.977h5.518L9.778.5,21.057,9.977h5.518a4.962,4.962,0,0,1,4.963,4.963V25.211a4.962,4.962,0,0,1-4.963,4.963" transform="translate(0 0.001)" fill="#fff"/>
          <path id="Trazado_884741" data-name="Trazado 884741" d="M26.575,30.174H5.463A4.962,4.962,0,0,1,.5,25.211V14.94A4.962,4.962,0,0,1,5.463,9.977h5.518L9.778.5,21.057,9.977h5.518a4.962,4.962,0,0,1,4.963,4.963V25.211A4.962,4.962,0,0,1,26.575,30.174Z" transform="translate(0 0.001)" fill="none" stroke="#263238" stroke-linecap="round" stroke-linejoin="round" stroke-width="1"/>
          <path id="Trazado_884742" data-name="Trazado 884742" d="M13.77,23.648a1,1,0,0,0-1.042-.99.98.98,0,0,0-1.015.99.99.99,0,0,0,1.015,1,1,1,0,0,0,1.042-1m-.09-8.087h-1.9l.321,6.017h1.273Z" transform="translate(6.547 0.012)" fill="#263238"/>
          <path id="Trazado_884743" data-name="Trazado 884743" d="M21.288,17.862H15.36v1.285h5.928Zm0,3.11H15.36v1.286h5.928Z" transform="translate(-4.621 0.013)" fill="#263238"/>
        </g>
      </g>
      <g id="Enmascarar_grupo_1098805" data-name="Enmascarar grupo 1098805" transform="translate(-14.83 782)" clip-path="url(#clip-path-12)">
        <g id="Grupo_1102497" data-name="Grupo 1102497" transform="translate(1058.583 800.984)">
          <path id="Trazado_884744" data-name="Trazado 884744" d="M555.175,367.708s-17.9-20.782-20.549-54.553,1.643-55.675,1.643-55.675,20.6,15.9,35.659,55.12c0,0,7.272,18.062,9.658,34.226,0,0,8.615-30.03,32.25-45.073,0,0,8.382,33.516-9.348,65.755l-49.313.211Z" transform="translate(-529.621 -256.237)" fill="#0eb259"/>
          <path id="Trazado_884745" data-name="Trazado 884745" d="M564.478,300.4a.537.537,0,0,0-.2-.433c-13.9-29.375-30.319-43.285-30.552-43.485-.011,0-.022,0-.044-.022a.509.509,0,0,0-.178-.078c-.022,0-.044-.022-.078-.022a.91.91,0,0,0-.244.022h0c-.011,0-.022.022-.033.022a1.011,1.011,0,0,0-.178.122.194.194,0,0,0-.044.056.4.4,0,0,0-.078.189c0,.011-.011.022-.022.033-3.319,21.071-3.386,38.978-1.743,53.876,0,.022-.022.044-.033.078a.539.539,0,0,0,.089.433c4.374,38.578,20.227,56.752,20.449,57a.551.551,0,0,0,.411.189.511.511,0,0,0,.366-.144.56.56,0,0,0,.044-.788c-.222-.244-15.709-18.029-20.116-55.841l20.416,4.518,17.374,51.656a.557.557,0,0,0,.522.378.339.339,0,0,0,.178-.033.55.55,0,0,0,.344-.7l-9.314-27.687,7.249-25.645a199.973,199.973,0,0,1,9.214,32.939.554.554,0,1,0,1.088-.211,194.192,194.192,0,0,0-14.9-46.427Zm-1.155.133-6.705,23.724-22.037-65.5c4.407,4.185,17.407,17.785,28.742,41.775Zm-31.151,9.925a200.7,200.7,0,0,1,1.41-51.167L552.3,314.91ZM561.2,337.891l-3.952-11.768,6.805-24.057c1.5,3.253,2.953,6.705,4.363,10.325l-7.2,25.5Z" transform="translate(-530.032 -256.36)" fill="#251c4a"/>
          <path id="Trazado_884746" data-name="Trazado 884746" d="M604.6,347.351a102.779,102.779,0,0,0,2.82-50.346c0-.011-.011-.022-.022-.044a.473.473,0,0,0-.067-.155.232.232,0,0,0-.044-.067.711.711,0,0,0-.144-.111c-.011,0-.022-.022-.044-.033h0a.581.581,0,0,0-.233-.044h-.044a.375.375,0,0,0-.189.055h-.022c-.189.111-10.846,6.45-20.649,20.949a.547.547,0,0,0-.3.455c-1.454,2.176-2.875,4.529-4.241,7.061a.559.559,0,0,0-.244.455,98.315,98.315,0,0,0-10.935,37.8.551.551,0,0,0,.5.6.544.544,0,0,0,.6-.5,97.625,97.625,0,0,1,10.38-36.591l6.606,14.454-8.881,21.87a.553.553,0,0,0,.311.722.451.451,0,0,0,.211.044.554.554,0,0,0,.511-.344l5.218-12.856,17.529-2.664a79.517,79.517,0,0,1-6.372,15.021.56.56,0,0,0,.189.766.538.538,0,0,0,.289.078.578.578,0,0,0,.477-.266,83.149,83.149,0,0,0,6.694-15.942.555.555,0,0,0,.122-.4Zm-22.248-21.715c1.221-2.254,2.476-4.374,3.763-6.328l4.052,9.159a.555.555,0,0,0,.511.333.5.5,0,0,0,.222-.044.548.548,0,0,0,.278-.733l-4.341-9.8a75.717,75.717,0,0,1,18.84-19.65l-16.8,41.354-6.528-14.277Zm3.808,23.924,20.5-50.457a101.927,101.927,0,0,1-3.086,47.815l-17.418,2.653Z" transform="translate(-525.603 -251.933)" fill="#251c4a"/>
          <path id="Trazado_884747" data-name="Trazado 884747" d="M553.2,346.828a2.609,2.609,0,1,1,2.609-2.609A2.613,2.613,0,0,1,553.2,346.828Zm0-4.652a2.054,2.054,0,1,0,2.054,2.054A2.056,2.056,0,0,0,553.2,342.176Z" transform="translate(-527.767 -246.969)" fill="#fff"/>
          <path id="Trazado_884748" data-name="Trazado 884748" d="M597.854,331.869a1.454,1.454,0,1,1,1.443-1.454A1.459,1.459,0,0,1,597.854,331.869Zm0-2.342a.9.9,0,1,0,0,1.8.9.9,0,0,0,0-1.8Z" transform="translate(-522.721 -248.362)" fill="#fff"/>
          <path id="Trazado_884749" data-name="Trazado 884749" d="M554,299.809a2.009,2.009,0,1,1,2.009-2.009A2.009,2.009,0,0,1,554,299.809Zm0-3.464a1.454,1.454,0,1,0,1.454,1.454A1.459,1.459,0,0,0,554,296.345Z" transform="translate(-527.613 -252.016)" fill="#fff"/>
        </g>
      </g>
    </g>
  </g>
</svg>
