<svg xmlns="http://www.w3.org/2000/svg" xmlns:xlink="http://www.w3.org/1999/xlink" width="295" height="237" viewBox="0 0 295 237">
  <defs>
    <clipPath id="clip-path">
      <rect id="Rectángulo_382518" data-name="Rectángulo 382518" width="295" height="237" rx="10" transform="translate(180 5919)" fill="#dee1ed"/>
    </clipPath>
    <clipPath id="clip-path-2">
      <rect id="Rectángulo_382501" data-name="Rectángulo 382501" width="93.839" height="67.775" fill="#fff" stroke="#263238" stroke-linecap="round" stroke-linejoin="round" stroke-width="1"/>
    </clipPath>
  </defs>
  <g id="Enmascarar_grupo_139" data-name="Enmascarar grupo 139" transform="translate(-180 -5919)" clip-path="url(#clip-path)">
    <rect id="Rectángulo_382363" data-name="Rectángulo 382363" width="295" height="237" rx="10" transform="translate(180 5919)" fill="#dee1ed"/>
    <g id="Grupo_1073231" data-name="Grupo 1073231" transform="translate(-36.321 -338.247)">
      <path id="Trazado_820314" data-name="Trazado 820314" d="M593.084,454.62h85.667a7.568,7.568,0,0,1,7.564,7.564v18.2a7.568,7.568,0,0,1-7.564,7.564H593.084a7.568,7.568,0,0,1-7.564-7.564v-18.2A7.568,7.568,0,0,1,593.084,454.62Z" transform="translate(-183.758 5918.9)" fill="#1682fb"/>
      <path id="Trazado_820315" data-name="Trazado 820315" d="M593.084,614.85h85.667a7.568,7.568,0,0,1,7.564,7.564v18.2a7.568,7.568,0,0,1-7.564,7.564H593.084a7.568,7.568,0,0,1-7.564-7.564v-18.2A7.568,7.568,0,0,1,593.084,614.85Z" transform="translate(-183.758 5797.463)" fill="#1682fb"/>
      <path id="Trazado_820316" data-name="Trazado 820316" d="M593.084,775.07h85.667a7.568,7.568,0,0,1,7.564,7.564v18.2a7.568,7.568,0,0,1-7.564,7.564H593.084a7.568,7.568,0,0,1-7.564-7.564v-18.2A7.568,7.568,0,0,1,593.084,775.07Z" transform="translate(-183.758 5676.035)" fill="#1682fb"/>
      <path id="Trazado_820317" data-name="Trazado 820317" d="M564.664,454.62h85.667a7.568,7.568,0,0,1,7.564,7.564v18.2a7.568,7.568,0,0,1-7.564,7.564H564.664a7.568,7.568,0,0,1-7.564-7.564v-18.2A7.568,7.568,0,0,1,564.664,454.62Z" transform="translate(-162.219 5918.9)" fill="#c4ddff"/>
      <path id="Trazado_820318" data-name="Trazado 820318" d="M564.664,614.85h85.667a7.568,7.568,0,0,1,7.564,7.564v18.2a7.568,7.568,0,0,1-7.564,7.564H564.664a7.568,7.568,0,0,1-7.564-7.564v-18.2A7.568,7.568,0,0,1,564.664,614.85Z" transform="translate(-162.219 5797.463)" fill="#c4ddff"/>
      <g id="Grupo_1073210" data-name="Grupo 1073210" transform="translate(401.678 6424.117)">
        <rect id="Rectángulo_382505" data-name="Rectángulo 382505" width="6.963" height="6.963" fill="#fff"/>
        <rect id="Rectángulo_382506" data-name="Rectángulo 382506" width="6.963" height="6.963" transform="translate(13.897)" fill="#fff"/>
      </g>
      <g id="Grupo_1073211" data-name="Grupo 1073211" transform="translate(401.678 6386.701)">
        <rect id="Rectángulo_382507" data-name="Rectángulo 382507" width="6.963" height="6.963" fill="#8eb8ff"/>
        <rect id="Rectángulo_382508" data-name="Rectángulo 382508" width="6.963" height="6.963" transform="translate(13.897)" fill="#8eb8ff"/>
      </g>
      <path id="Trazado_820319" data-name="Trazado 820319" d="M564.664,775.07h85.667a7.568,7.568,0,0,1,7.564,7.564v18.2a7.568,7.568,0,0,1-7.564,7.564H564.664a7.568,7.568,0,0,1-7.564-7.564v-18.2A7.568,7.568,0,0,1,564.664,775.07Z" transform="translate(-162.219 5676.035)" fill="#c4ddff"/>
      <path id="Trazado_820320" data-name="Trazado 820320" d="M614.256,486.648H528.589a8.178,8.178,0,0,1-8.169-8.169v-18.2a8.178,8.178,0,0,1,8.169-8.169h64.62a.605.605,0,1,1,0,1.211h-64.62a6.965,6.965,0,0,0-6.958,6.958v18.2a6.965,6.965,0,0,0,6.958,6.958h85.667a6.967,6.967,0,0,0,6.958-6.958v-9.1a.605.605,0,1,1,1.211,0v9.1A8.178,8.178,0,0,1,614.256,486.648Z" transform="translate(-134.419 5920.802)" fill="#090928"/>
      <path id="Trazado_820321" data-name="Trazado 820321" d="M614.256,646.878H541.007a.605.605,0,0,1,0-1.211h73.249a6.967,6.967,0,0,0,6.958-6.958v-18.2a6.965,6.965,0,0,0-6.958-6.958H528.589a6.965,6.965,0,0,0-6.958,6.958v2.854a.605.605,0,0,1-1.211,0v-2.854a8.178,8.178,0,0,1,8.169-8.169h85.667a8.178,8.178,0,0,1,8.169,8.169v18.2A8.178,8.178,0,0,1,614.256,646.878Z" transform="translate(-134.419 5799.366)" fill="#090928"/>
      <g id="Grupo_1073222" data-name="Grupo 1073222" transform="translate(429.726 6419.284)">
        <path id="Trazado_820353" data-name="Trazado 820353" d="M703.95,663.348h0a2.93,2.93,0,0,1-2.929-2.929V646.57a2.93,2.93,0,0,1,2.929-2.93h0a2.93,2.93,0,0,1,2.93,2.93v13.849A2.93,2.93,0,0,1,703.95,663.348Z" transform="translate(-701.02 -643.64)" fill="#fff"/>
        <path id="Trazado_820354" data-name="Trazado 820354" d="M751.87,663.348h0a2.93,2.93,0,0,1-2.93-2.929V646.57a2.93,2.93,0,0,1,2.93-2.93h0a2.93,2.93,0,0,1,2.929,2.93v13.849A2.93,2.93,0,0,1,751.87,663.348Z" transform="translate(-737.338 -643.64)" fill="#fff"/>
        <path id="Trazado_820355" data-name="Trazado 820355" d="M799.79,663.348h0a2.93,2.93,0,0,1-2.93-2.929V646.57a2.93,2.93,0,0,1,2.93-2.93h0a2.93,2.93,0,0,1,2.93,2.93v13.849A2.93,2.93,0,0,1,799.79,663.348Z" transform="translate(-773.656 -643.64)" fill="#8eb8ff"/>
        <path id="Trazado_820356" data-name="Trazado 820356" d="M847.719,663.348h0a2.93,2.93,0,0,1-2.929-2.929V646.57a2.93,2.93,0,0,1,2.929-2.93h0a2.93,2.93,0,0,1,2.93,2.93v13.849A2.93,2.93,0,0,1,847.719,663.348Z" transform="translate(-809.981 -643.64)" fill="#fff"/>
        <path id="Trazado_820357" data-name="Trazado 820357" d="M895.64,663.348h0a2.93,2.93,0,0,1-2.93-2.929V646.57a2.93,2.93,0,0,1,2.93-2.93h0a2.93,2.93,0,0,1,2.93,2.93v13.849A2.93,2.93,0,0,1,895.64,663.348Z" transform="translate(-846.299 -643.64)" fill="#fff"/>
      </g>
      <g id="Grupo_1073223" data-name="Grupo 1073223" transform="translate(429.726 6458.867)">
        <path id="Trazado_820358" data-name="Trazado 820358" d="M703.95,826.838h0a2.93,2.93,0,0,1-2.929-2.93V810.06a2.93,2.93,0,0,1,2.929-2.93h0a2.93,2.93,0,0,1,2.93,2.93v13.849A2.93,2.93,0,0,1,703.95,826.838Z" transform="translate(-701.02 -807.13)" fill="#fff"/>
        <path id="Trazado_820359" data-name="Trazado 820359" d="M751.87,826.838h0a2.93,2.93,0,0,1-2.93-2.93V810.06a2.93,2.93,0,0,1,2.93-2.93h0a2.93,2.93,0,0,1,2.929,2.93v13.849A2.93,2.93,0,0,1,751.87,826.838Z" transform="translate(-737.338 -807.13)" fill="#fff"/>
        <path id="Trazado_820360" data-name="Trazado 820360" d="M799.79,826.838h0a2.93,2.93,0,0,1-2.93-2.93V810.06a2.93,2.93,0,0,1,2.93-2.93h0a2.93,2.93,0,0,1,2.93,2.93v13.849A2.93,2.93,0,0,1,799.79,826.838Z" transform="translate(-773.656 -807.13)" fill="#fff"/>
        <path id="Trazado_820361" data-name="Trazado 820361" d="M847.719,826.838h0a2.93,2.93,0,0,1-2.929-2.93V810.06a2.93,2.93,0,0,1,2.929-2.93h0a2.93,2.93,0,0,1,2.93,2.93v13.849A2.93,2.93,0,0,1,847.719,826.838Z" transform="translate(-809.981 -807.13)" fill="#fff"/>
        <path id="Trazado_820362" data-name="Trazado 820362" d="M895.64,826.838h0a2.93,2.93,0,0,1-2.93-2.93V810.06a2.93,2.93,0,0,1,2.93-2.93h0a2.93,2.93,0,0,1,2.93,2.93v13.849A2.93,2.93,0,0,1,895.64,826.838Z" transform="translate(-846.299 -807.13)" fill="#8eb8ff"/>
      </g>
      <g id="Grupo_1073224" data-name="Grupo 1073224" transform="translate(429.726 6380.328)">
        <path id="Trazado_820363" data-name="Trazado 820363" d="M703.95,502.448h0a2.93,2.93,0,0,1-2.929-2.93V485.67a2.93,2.93,0,0,1,2.929-2.93h0a2.93,2.93,0,0,1,2.93,2.93v13.849A2.93,2.93,0,0,1,703.95,502.448Z" transform="translate(-701.02 -482.74)" fill="#fff"/>
        <path id="Trazado_820364" data-name="Trazado 820364" d="M751.87,502.448h0a2.93,2.93,0,0,1-2.93-2.93V485.67a2.93,2.93,0,0,1,2.93-2.93h0a2.93,2.93,0,0,1,2.929,2.93v13.849A2.93,2.93,0,0,1,751.87,502.448Z" transform="translate(-737.338 -482.74)" fill="#fff"/>
        <path id="Trazado_820365" data-name="Trazado 820365" d="M799.79,502.448h0a2.93,2.93,0,0,1-2.93-2.93V485.67a2.93,2.93,0,0,1,2.93-2.93h0a2.93,2.93,0,0,1,2.93,2.93v13.849A2.93,2.93,0,0,1,799.79,502.448Z" transform="translate(-773.656 -482.74)" fill="#8eb8ff"/>
        <path id="Trazado_820366" data-name="Trazado 820366" d="M847.719,502.448h0a2.93,2.93,0,0,1-2.929-2.93V485.67a2.93,2.93,0,0,1,2.929-2.93h0a2.93,2.93,0,0,1,2.93,2.93v13.849A2.93,2.93,0,0,1,847.719,502.448Z" transform="translate(-809.981 -482.74)" fill="#8eb8ff"/>
        <path id="Trazado_820367" data-name="Trazado 820367" d="M895.64,502.448h0a2.93,2.93,0,0,1-2.93-2.93V485.67a2.93,2.93,0,0,1,2.93-2.93h0a2.93,2.93,0,0,1,2.93,2.93v13.849A2.93,2.93,0,0,1,895.64,502.448Z" transform="translate(-846.299 -482.74)" fill="#fff"/>
      </g>
      <g id="Grupo_1073228" data-name="Grupo 1073228" transform="translate(401.678 6464.652)">
        <rect id="Rectángulo_382509" data-name="Rectángulo 382509" width="6.963" height="6.963" fill="#8eb8ff"/>
        <rect id="Rectángulo_382510" data-name="Rectángulo 382510" width="6.963" height="6.963" transform="translate(13.897)" fill="#8eb8ff"/>
      </g>
      <path id="Trazado_820382" data-name="Trazado 820382" d="M878.91,373.607l-3.353-1.131a13.608,13.608,0,0,0-.1-1.443l3.16-1.571a1.541,1.541,0,0,0,.695-2.068l-2.738-5.508a1.544,1.544,0,0,0-2.068-.7l-3.167,1.576c-.329-.317-.673-.617-1.036-.905l1.131-3.351a1.539,1.539,0,0,0-.966-1.954l-5.828-1.971a1.544,1.544,0,0,0-1.956.966l-1.128,3.346a13.548,13.548,0,0,0-1.695.128l-1.634-3.14a1.537,1.537,0,0,0-2.077-.654l-5.457,2.84a1.545,1.545,0,0,0-.659,2.082l1.629,3.131q-.4.425-.76.889l-3.346-1.131a1.544,1.544,0,0,0-1.954.968l-1.971,5.828a1.545,1.545,0,0,0,.966,1.956l3.353,1.131a13.313,13.313,0,0,0,.145,1.792l-3.283,1.734a1.545,1.545,0,0,0-.659,2.056l2.806,5.576a1.539,1.539,0,0,0,2.1.668l3.436-1.811q.341.312.709.6l-1.274,3.77a1.541,1.541,0,0,0,.966,1.954l5.83,1.971a1.542,1.542,0,0,0,1.954-.966l1.271-3.765a13,13,0,0,0,1.341-.085l1.726,3.467a1.543,1.543,0,0,0,2.094.68l5.532-2.891a1.54,1.54,0,0,0,.666-2.053l-1.649-3.312q.429-.443.826-.927l3.4,1.15a1.546,1.546,0,0,0,1.956-.968l2.027-6a1.545,1.545,0,0,0-.966-1.956Zm-8.147,2.37a9.583,9.583,0,1,1-6.014-12.147A9.583,9.583,0,0,1,870.763,375.977Z" transform="translate(-379.316 5994.777)" fill="#ffce00"/>
    </g>
    <g id="Character" transform="translate(189.984 5939.302)">
      <g id="Grupo_1073207" data-name="Grupo 1073207" transform="translate(11)">
        <path id="Trazado_820279" data-name="Trazado 820279" d="M247.828,178.616s8.322,50.926,8.322,54.829a15.572,15.572,0,0,0,1.955,7.166l9.768,13.678-12.37,3.69-6.732-7.813s-3.111-71.55-3.332-72.2,1.521-2.168,2.389.654Z" transform="translate(-161.185 -97.054)" fill="#1682fb" stroke="#263238" stroke-linecap="round" stroke-linejoin="round" stroke-width="1"/>
        <path id="Trazado_820280" data-name="Trazado 820280" d="M279.9,388.706c-.916-8.894-1.962-18.283-2.678-22.062-1.521-8.033-4.123-24.527-4.123-24.527l7.813-28,35.162-.22s10.422.654,16.06,0a87.822,87.822,0,0,1,9.114-.654s6.512,22.572,1.3,54.485c-2.1,12.852-3.986,21.9-5.493,28.12-18.359-3.655-38.99-2.96-57.17-7.145Z" transform="translate(-256.928 -139.518)" fill="#263238" stroke="#263238" stroke-linecap="round" stroke-linejoin="round" stroke-width="1"/>
        <path id="Trazado_820281" data-name="Trazado 820281" d="M265.04,160.137s23.123,9.837,23.123,11.358,3.469,36.3,3.469,41.722,1.521,44.283,1.3,49.487,2.685,29.717,2.031,30.151-.461,4.5-5.452,3.635-4.172-29.662-4.172-29.662l-3.91-24.747-.22-16.06s0-17.147-1.735-26.7-6.946-22.572-7.379-23.226-7.056-15.963-7.056-15.963Z" transform="translate(-201.879 -91.805)" fill="#1682fb" stroke="#263238" stroke-linecap="round" stroke-linejoin="round" stroke-width="1"/>
        <path id="Trazado_820282" data-name="Trazado 820282" d="M346.044,152.75s-11.6,4.316-18.159,7.187c-9.341,4.089-16.211,5.941-16.645,8.763s8.846,76.3,8.846,76.3L307.22,295.477s20.6,7.868,35.142,7.214,22.723-3.332,22.723-3.332l.7-34.164s2.712-20.527-2.795-51.277c-4.647-25.924-13.052-59.427-13.052-59.427l-3.91-1.735Z" transform="translate(-302.308 -89.505)" fill="#1682fb" stroke="#263238" stroke-linecap="round" stroke-linejoin="round" stroke-width="1"/>
        <path id="Trazado_820283" data-name="Trazado 820283" d="M311.012,160.434s5.858,6.078,8.9,11.723a68.352,68.352,0,0,1,4.557,10.422l-3.256,1.3,7.166,8.9a55.322,55.322,0,0,1-.434,15.846c-1.521,8.033-3.256,21.057-3.256,21.057s-13.891.22-18.015-2.389-18.669-31.259-19.316-33.648,5.858-12.157,5.858-12.157l-4.468-1.039-8.557-2s2.822-18.448,4.557-23.226.867-5.424,4.777-6.946,19.97,11.5,19.97,11.5l1.521.654Z" transform="translate(-246.005 -88.075)" fill="#1682fb" stroke="#263238" stroke-linecap="round" stroke-linejoin="round" stroke-width="1"/>
        <path id="Trazado_820284" data-name="Trazado 820284" d="M285.018,124.669s-1.088,8.033-3.256,13.024a61.072,61.072,0,0,1-2.6,5.645,437.164,437.164,0,0,1,11.069,44.5c3.91,21.491,6.512,42.541,6.512,53.184s-.434,15.413-.434,15.413,2.389,1.3,8.68.867a42.445,42.445,0,0,0,11.289-2.389s-5.424-46.885-5.645-58.174-11.5-41.461-11.5-41.461l1.955-6.292s-6.512-7.813-8.033-13.678-4.991-11.069-8.033-10.635Z" transform="translate(-232.815 -80.746)" fill="#fff" stroke="#263238" stroke-linecap="round" stroke-linejoin="round" stroke-width="1"/>
        <path id="Trazado_820285" data-name="Trazado 820285" d="M305.866,140.3c1.57,5.851,8,13.561,8,13.561l-1.955,6.292s.289.778.778,2.127c-7.09-6.932-11.448-19.254-11.448-19.254l4.619-2.733Z" transform="translate(-245.602 -85.622)" fill="#263238" stroke="#263238" stroke-linecap="round" stroke-linejoin="round" stroke-width="1"/>
        <g id="Grupo_1073197" data-name="Grupo 1073197" transform="translate(54.282 92.136)">
          <path id="Trazado_820286" data-name="Trazado 820286" d="M279.16,194.72a57.05,57.05,0,0,0,18.256.647c2.657,8.522,5.177,17.925,5.28,23.205.22,11.289,5.645,58.174,5.645,58.174a42.36,42.36,0,0,1-11.289,2.389c-6.292.434-8.68-.867-8.68-.867s.434-4.777.434-15.413-2.6-31.693-6.512-53.184C281.383,204.667,280.3,199.58,279.16,194.72Z" transform="translate(-279.16 -194.72)" fill="#fff" stroke="#263238" stroke-linecap="round" stroke-linejoin="round" stroke-width="1"/>
          <g id="Grupo_1073196" data-name="Grupo 1073196" transform="translate(11.613 25.077)">
            <line id="Línea_235" data-name="Línea 235" x1="1.37" y2="1.59" transform="translate(0 10.45)" fill="none" stroke="#263238" stroke-linecap="round" stroke-linejoin="round" stroke-width="1"/>
            <line id="Línea_236" data-name="Línea 236" x1="7.978" y2="9.224" transform="translate(2.43)" fill="none" stroke="#263238" stroke-linecap="round" stroke-linejoin="round" stroke-width="1"/>
            <line id="Línea_237" data-name="Línea 237" x1="6.182" y2="5.851" transform="translate(0.647 9.114)" fill="none" stroke="#263238" stroke-linecap="round" stroke-linejoin="round" stroke-width="1"/>
          </g>
        </g>
        <g id="Grupo_1073201" data-name="Grupo 1073201" transform="translate(31.891)">
          <g id="Grupo_1073199" data-name="Grupo 1073199">
            <path id="Trazado_820287" data-name="Trazado 820287" d="M318.363,96.446a4.464,4.464,0,0,0,5.3-2.423c1.659-3.518-1.735-4.082-1.542-7.441s3.586-6.319,1.762-9.465-14.16-10.9-20.094-14.346-14.635-1.576-21.815.681-12.659,4.7-14.511,9.913-1.721,9.83-3.9,13.774-6.2,4.378-4.041,8.97,6.2,4.158,5.252,7.407-2.609,6.774-.193,8.55,6.6-.709,8.632.922,3.456,2.781,5.1,2.6,2.74-3.82,6.67-8.694,8.3-9.059,13.719-10.381,10.381-3.531,13.616-2.767a20.511,20.511,0,0,1,6.037,2.685Z" transform="translate(-258.91 -60.874)" fill="#263238" stroke="#263238" stroke-linecap="round" stroke-linejoin="round" stroke-width="1"/>
            <g id="Grupo_1073198" data-name="Grupo 1073198" transform="translate(4.955 16.118)">
              <path id="Trazado_820288" data-name="Trazado 820288" d="M336.328,113.34a4.416,4.416,0,0,1-4.178.392" transform="translate(-326.189 -93.341)" fill="none" stroke="gray" stroke-linecap="round" stroke-linejoin="round" stroke-width="1"/>
              <path id="Trazado_820289" data-name="Trazado 820289" d="M311.358,87.64s0,5.562-8.742,5.562-19.268-.6-23.439,2.981c-2.409,2.065-5.149,5.652-7.916,7.9" transform="translate(-259.303 -85.333)" fill="none" stroke="gray" stroke-linecap="round" stroke-linejoin="round" stroke-width="1"/>
              <path id="Trazado_820290" data-name="Trazado 820290" d="M334.265,84.289a12.141,12.141,0,0,0-8.791,3.3c-5.562,5.362-9.142,11.723-13.313,11.923s-5.762-.6-5.762-.6" transform="translate(-306.4 -84.288)" fill="none" stroke="gray" stroke-linecap="round" stroke-linejoin="round" stroke-width="1"/>
              <path id="Trazado_820291" data-name="Trazado 820291" d="M302,85.1a13.2,13.2,0,0,0-2.168-.516" transform="translate(-269.61 -84.379)" fill="none" stroke="gray" stroke-linecap="round" stroke-linejoin="round" stroke-width="1"/>
            </g>
          </g>
          <g id="Grupo_1073200" data-name="Grupo 1073200" transform="translate(17.628 25.515)">
            <path id="Trazado_820292" data-name="Trazado 820292" d="M307.924,97.947s1.824,8.336-1.762,14.655-4.034,5.631-5.046,11.675-3.47,9.093-8.391,13.334-7.875,4.371-10.842,2.65-12.941-9.919-13.458-13.017-1.28-6.725-1.28-6.725-2.457-2.148-2.719-2.864a11.009,11.009,0,0,1-.4-2s3.394,2.23,5.968.282,1.466-5.349,5.892-7.311,10.415-1.494,12.253-3.359.048-2.974,4.819-3.49,12.157.916,14.979-3.841Z" transform="translate(-264.026 -97.94)" fill="#fff" stroke="#263238" stroke-linecap="round" stroke-linejoin="round" stroke-width="1"/>
            <path id="Trazado_820293" data-name="Trazado 820293" d="M284.723,123.4s-2.795,1.6-2.926,3.841,2.217,6.808,1.012,7.682-4.419.289-4.419.289" transform="translate(-250.249 -105.874)" fill="none" stroke="#263238" stroke-linecap="round" stroke-linejoin="round" stroke-width="1"/>
            <path id="Trazado_820294" data-name="Trazado 820294" d="M293.645,145.163a3.672,3.672,0,0,1-4.5-2.113" transform="translate(-266.578 -111.997)" fill="none" stroke="#263238" stroke-linecap="round" stroke-linejoin="round" stroke-width="1"/>
            <path id="Trazado_820295" data-name="Trazado 820295" d="M290.233,115.745s-1.742-2.409-6.533-2.079" transform="translate(-259.414 -102.831)" fill="none" stroke="#263238" stroke-linecap="round" stroke-linejoin="round" stroke-width="2"/>
            <path id="Trazado_820296" data-name="Trazado 820296" d="M270.91,120.269s1.921-1.136,2.967,1.721" transform="translate(-234.254 -104.829)" fill="none" stroke="#263238" stroke-linecap="round" stroke-linejoin="round" stroke-width="2"/>
            <path id="Trazado_820297" data-name="Trazado 820297" d="M290.346,123.436c-.475,1.074-.482,2.106-.021,2.313s1.225-.5,1.7-1.563.482-2.106.021-2.313S290.821,122.369,290.346,123.436Z" transform="translate(-265.895 -105.387)" fill="#263238"/>
            <path id="Trazado_820298" data-name="Trazado 820298" d="M274.266,127.636c-.475,1.074-.482,2.106-.021,2.313s1.225-.5,1.7-1.563.482-2.106.021-2.313S274.741,126.569,274.266,127.636Z" transform="translate(-238.746 -106.696)" fill="#263238"/>
          </g>
        </g>
        <g id="Grupo_1073203" data-name="Grupo 1073203" transform="translate(83.744 155.604)">
          <g id="Grupo_1073202" data-name="Grupo 1073202" transform="translate(0 0.936)">
            <path id="Trazado_820299" data-name="Trazado 820299" d="M272.2,293.574s-5.4,4.378-8.1,4.151-6.381-5.535-6.381-7.372,3.924-2.072,3.924-2.072l4.172,1.845,6.381,3.456Z" transform="translate(-257.72 -288.28)" fill="#fff" stroke="#263238" stroke-linecap="round" stroke-linejoin="round" stroke-width="1"/>
            <path id="Trazado_820300" data-name="Trazado 820300" d="M266.486,296.594s-5.4,4.378-8.1,4.151-6.381-5.535-6.381-7.372,3.924-2.072,3.924-2.072l4.172,1.845,6.381,3.456Z" transform="translate(-248.079 -289.221)" fill="#fff" stroke="#263238" stroke-linecap="round" stroke-linejoin="round" stroke-width="1"/>
            <path id="Trazado_820301" data-name="Trazado 820301" d="M260.787,297.924s-5.4,4.378-8.1,4.151-6.381-5.535-6.381-7.372,3.924-2.072,3.924-2.072l4.172,1.845,6.381,3.456Z" transform="translate(-238.456 -289.636)" fill="#fff" stroke="#263238" stroke-linecap="round" stroke-linejoin="round" stroke-width="1"/>
            <path id="Trazado_820302" data-name="Trazado 820302" d="M254.377,298.934s-5.4,4.378-8.1,4.151-6.381-5.535-6.381-7.372,3.924-2.072,3.924-2.072L248,295.485l6.381,3.456Z" transform="translate(-227.633 -289.95)" fill="#fff" stroke="#263238" stroke-linecap="round" stroke-linejoin="round" stroke-width="1"/>
          </g>
          <path id="Trazado_820303" data-name="Trazado 820303" d="M247.046,286.927s-4.172,8.756-5.4,9.451-3.435.688-5.886,1.611-8.343-5.535-8.343-5.535l19.626-5.535Z" transform="translate(-211.711 -286.92)" fill="#fff" stroke="#263238" stroke-linecap="round" stroke-linejoin="round" stroke-width="1"/>
        </g>
        <g id="Grupo_1073204" data-name="Grupo 1073204" transform="translate(57.242 113.848)">
          <path id="Trazado_820304" data-name="Trazado 820304" d="M228.867,291.313l-47.9-7.159,48.138-16.294,45.674,7.9Z" transform="translate(-180.97 -239.224)" fill="#fff" stroke="#263238" stroke-linecap="round" stroke-linejoin="round" stroke-width="1"/>
          <path id="Trazado_820305" data-name="Trazado 820305" d="M227.252,271.86,188.51,284.526l37.248,5.218,40.236-12.17Z" transform="translate(-177.372 -240.47)" fill="#dbdbdb"/>
          <path id="Trazado_820306" data-name="Trazado 820306" d="M207.875,262.8l-45.915,15.55,14.07-37.523,44.93-14.566Z" transform="translate(-114.063 -226.26)" fill="#fff" stroke="#263238" stroke-linecap="round" stroke-linejoin="round" stroke-width="1"/>
          <path id="Trazado_820307" data-name="Trazado 820307" d="M193.071,255.58a105.471,105.471,0,0,1,19.77,9.651,62.084,62.084,0,0,0,14.091,6.739L181.1,287.493l11.964-31.906Z" transform="translate(-133.21 -235.397)" fill="#263238" stroke="#263238" stroke-linecap="round" stroke-linejoin="round" stroke-width="1"/>
          <path id="Trazado_820308" data-name="Trazado 820308" d="M197.524,253.978c-1.212,1.625-1.122,3.745.2,4.729s3.373.461,4.585-1.163,1.122-3.745-.2-4.729-3.373-.461-4.585,1.163Z" transform="translate(-120.157 -234.38)" fill="#fff" stroke="#263238" stroke-linecap="round" stroke-linejoin="round" stroke-width="1"/>
        </g>
        <g id="Grupo_1073205" data-name="Grupo 1073205" transform="translate(60.326 137.876)">
          <path id="Trazado_820309" data-name="Trazado 820309" d="M260.965,261.417s7.359-.509,8.66-.076,15.351,5.569,17.086,7.3a71.063,71.063,0,0,1,7.3,9.782c2.217,3.91,1.039,3.91.392,3.91s-1.969-.957-2.836-2.471a47.64,47.64,0,0,0-4.777-5.424l-3.022-1.4s3.015,5.507,4.75,8.109,2.678,4.1,1.707,4.585c-1.563.785-3.394-1.872-4.041-2.74s-2.437-2.692-2.437-2.692,1.955,3.91,1.735,4.557-1.783,1.005-3.036-.867c-.544-.805-6.319-7.744-6.319-7.744s2.85,6.01,2.85,6.877-.867,1.088-2.6,0-4.055-6.478-4.922-7.565-3.1-1.356-3.1-1.356-3.476-.867-4.344-1.735-2.6-2.389-2.6-2.389l-4.695,1.955.344-9.534,3.91-1.088Z" transform="translate(-256.717 -261.166)" fill="#fff" stroke="#263238" stroke-linecap="round" stroke-linejoin="round" stroke-width="1"/>
          <line id="Línea_238" data-name="Línea 238" x1="2.065" y1="3.896" transform="translate(17.347 11.189)" fill="none" stroke="#263238" stroke-linecap="round" stroke-miterlimit="10" stroke-width="1"/>
          <line id="Línea_239" data-name="Línea 239" x1="5.858" y1="9.121" transform="translate(21.181 10.019)" fill="none" stroke="#263238" stroke-linecap="round" stroke-linejoin="round" stroke-width="1"/>
          <line id="Línea_240" data-name="Línea 240" x1="1.955" y1="3.256" transform="translate(25.229 8.731)" fill="none" stroke="#263238" stroke-linecap="round" stroke-linejoin="round" stroke-width="1"/>
        </g>
        <g id="Grupo_1073206" data-name="Grupo 1073206" transform="translate(0 70.618)">
          <path id="Trazado_820310" data-name="Trazado 820310" d="M333.016,192.33l-1.521,38.418,39.286-.867-.22,16.493s-28,4.557-41.895,4.123-22.138.867-23.226-.867,7.083-69.8,7.083-69.8,1.3-10.856,3.476-11.5,15.709-4.867,15.709-4.867" transform="translate(-305.34 -163.46)" fill="#1682fb" stroke="#263238" stroke-linecap="round" stroke-linejoin="round" stroke-width="1"/>
          <line id="Línea_241" data-name="Línea 241" x1="1.907" y2="0.055" transform="translate(10.962 67.674)" fill="#fff" stroke="#263238" stroke-linecap="round" stroke-linejoin="round" stroke-width="1"/>
          <line id="Línea_242" data-name="Línea 242" x1="10.78" y2="0.31" transform="translate(15.375 67.295)" fill="#fff" stroke="#263238" stroke-linecap="round" stroke-linejoin="round" stroke-width="1"/>
        </g>
        <path id="Trazado_820311" data-name="Trazado 820311" d="M290.93,404.873c2.581-11.585,5.328-26.489,5.328-37.42,0,0,2.857-1.074,9.266-8.433" transform="translate(-230.164 -153.784)" fill="none" stroke="gray" stroke-linecap="round" stroke-linejoin="round" stroke-width="1"/>
      </g>
    </g>
    <g id="Grupo_1073230" data-name="Grupo 1073230" transform="translate(-105.009 -315.548)">
      <g id="Grupo_1073209" data-name="Grupo 1073209" transform="translate(423.543 6427.252)">
        <path id="Trazado_820313" data-name="Trazado 820313" d="M782.545,858.749l1.733-5.133a1.319,1.319,0,0,0-.827-1.672l-2.869-.969a11.751,11.751,0,0,0-.084-1.233l2.7-1.345a1.318,1.318,0,0,0,.594-1.768l-2.344-4.714a1.318,1.318,0,0,0-1.768-.594l-2.711,1.348a11.694,11.694,0,0,0-.886-.773l.969-2.869a1.319,1.319,0,0,0-.827-1.672l-4.988-1.685a1.319,1.319,0,0,0-1.672.827l-.966,2.862a11.853,11.853,0,0,0-1.448.11l-1.4-2.687a1.318,1.318,0,0,0-1.779-.561l-4.669,2.43a1.318,1.318,0,0,0-.561,1.779l1.393,2.678c-.227.242-.444.5-.651.76l-2.862-.966a1.319,1.319,0,0,0-1.672.827l-1.685,4.988a1.319,1.319,0,0,0,.827,1.672l2.869.969a11.841,11.841,0,0,0,.125,1.533l-2.807,1.481a1.318,1.318,0,0,0-.562,1.759l2.4,4.768a1.32,1.32,0,0,0,1.794.574l2.938-1.55q.295.267.608.515l-1.09,3.226a1.319,1.319,0,0,0,.827,1.672l4.988,1.685a1.319,1.319,0,0,0,1.672-.827l1.087-3.219c.384-.006.767-.03,1.146-.073l1.478,2.966a1.319,1.319,0,0,0,1.792.581l4.735-2.474a1.319,1.319,0,0,0,.569-1.758l-1.411-2.833c.245-.254.48-.518.7-.794l2.913.984a1.319,1.319,0,0,0,1.672-.827Z" transform="translate(-753.202 -835.602)" fill="#a1c1ec"/>
        <circle id="Elipse_9748" data-name="Elipse 9748" cx="8.199" cy="8.199" r="8.199" transform="translate(7.313 7.547)" fill="#fff"/>
      </g>
      <g id="Grupo_1073229" data-name="Grupo 1073229" transform="translate(420.066 6422.814)">
        <path id="Trazado_820380" data-name="Trazado 820380" d="M742.716,836.856a1.653,1.653,0,0,1-.535-.089l-4.988-1.685a1.679,1.679,0,0,1-1.052-2.126l1.009-2.988-.241-.2-2.718,1.434a1.677,1.677,0,0,1-2.281-.728l-2.4-4.768a1.685,1.685,0,0,1,.715-2.238l2.585-1.363c-.044-.354-.075-.714-.087-1.072l-2.631-.889a1.679,1.679,0,0,1-1.052-2.126l1.685-4.988a1.677,1.677,0,0,1,2.126-1.052l2.624.886c.112-.136.225-.268.34-.4l-1.279-2.456a1.677,1.677,0,0,1,.714-2.262l4.669-2.43a1.677,1.677,0,0,1,2.262.714l1.282,2.464c.327-.039.657-.064.986-.076l.886-2.624a1.677,1.677,0,0,1,2.125-1.052l4.988,1.685a1.679,1.679,0,0,1,1.052,2.126l-.889,2.631c.181.149.358.3.531.463l2.487-1.236a1.68,1.68,0,0,1,2.249.756l2.344,4.714a1.68,1.68,0,0,1-.755,2.25l-2.48,1.233c.026.252.043.509.053.764l2.631.889a1.679,1.679,0,0,1,1.052,2.126l-1.733,5.133h0a1.679,1.679,0,0,1-2.126,1.052l-2.68-.9c-.126.149-.257.3-.39.44l1.3,2.608a1.686,1.686,0,0,1-.724,2.235l-4.735,2.474a1.679,1.679,0,0,1-2.28-.738l-1.368-2.744q-.338.03-.675.043l-1.007,2.981a1.68,1.68,0,0,1-1.59,1.141Zm-5.755-7.882a.355.355,0,0,1,.241.093c.191.172.389.34.589.5a.357.357,0,0,1,.118.4l-1.09,3.226a.961.961,0,0,0,.6,1.217l4.988,1.685a.962.962,0,0,0,1.217-.6l1.087-3.219a.36.36,0,0,1,.334-.244c.37-.006.743-.029,1.11-.07a.359.359,0,0,1,.361.2L748,835.115a.959.959,0,0,0,.563.486.947.947,0,0,0,.741-.063l4.736-2.475a.967.967,0,0,0,.416-1.28l-1.411-2.833a.36.36,0,0,1,.063-.41c.238-.245.469-.5.682-.77a.36.36,0,0,1,.393-.115l2.913.983a.961.961,0,0,0,1.217-.6l1.733-5.133a.961.961,0,0,0-.6-1.217l-2.869-.969a.359.359,0,0,1-.244-.334,11.428,11.428,0,0,0-.082-1.2.357.357,0,0,1,.2-.364l2.7-1.345a.962.962,0,0,0,.433-1.289l-2.344-4.714a.962.962,0,0,0-1.288-.433l-2.711,1.348a.36.36,0,0,1-.409-.063c-.272-.262-.56-.515-.859-.75a.357.357,0,0,1-.117-.4l.969-2.867a.962.962,0,0,0-.6-1.217l-4.988-1.685a.959.959,0,0,0-1.217.6l-.966,2.862a.359.359,0,0,1-.334.244,11.48,11.48,0,0,0-1.4.108.358.358,0,0,1-.367-.189l-1.4-2.687a.96.96,0,0,0-1.3-.409l-4.67,2.43a.96.96,0,0,0-.409,1.3l1.394,2.68a.359.359,0,0,1-.056.41c-.216.231-.429.479-.631.737a.359.359,0,0,1-.4.118l-2.862-.966a.959.959,0,0,0-1.217.6l-1.685,4.988a.961.961,0,0,0,.6,1.217l2.869.969a.36.36,0,0,1,.244.334,11.6,11.6,0,0,0,.12,1.485.359.359,0,0,1-.188.37l-2.807,1.481a.965.965,0,0,0-.41,1.282l2.4,4.768a.959.959,0,0,0,1.306.417l2.938-1.55a.368.368,0,0,1,.168-.042Zm21.69-.82Z" transform="translate(-728.952 -804.651)" fill="#3a2ef2"/>
        <path id="Trazado_820381" data-name="Trazado 820381" d="M788.5,874.378a8.575,8.575,0,1,1,3.789-.893A8.558,8.558,0,0,1,788.5,874.378Zm0-16.4a7.841,7.841,0,1,0,7.422,10.35h0a7.842,7.842,0,0,0-7.421-10.35Z" transform="translate(-772.625 -849.715)" fill="#3a2ef2"/>
      </g>
    </g>
    <g id="Grupo_1073234" data-name="Grupo 1073234" transform="translate(4.553 7.977)">
      <g id="Grupo_1073233" data-name="Grupo 1073233" transform="translate(318.285 5931.325)">
        <g id="Window">
          <g id="Grupo_1073193" data-name="Grupo 1073193">
            <g id="Grupo_1073191" data-name="Grupo 1073191">
              <path id="Trazado_820265" data-name="Trazado 820265" d="M51.792,40.939,49.166,36.75H26.04v75.4h95.177V40.939Z" transform="translate(-26.04 -36.75)" fill="#263238"/>
              <g id="Grupo_1073190" data-name="Grupo 1073190" transform="translate(0.71 6.109)">
                <rect id="Rectángulo_382497" data-name="Rectángulo 382497" width="93.839" height="67.775" fill="#fff"/>
                <g id="Grupo_1073189" data-name="Grupo 1073189" clip-path="url(#clip-path-2)">
                  <rect id="Rectángulo_382498" data-name="Rectángulo 382498" width="2.177" height="68.87" transform="translate(92.121 -0.582)" opacity="0.17"/>
                  <rect id="Rectángulo_382499" data-name="Rectángulo 382499" width="2.177" height="26.669" transform="translate(92.121 41.06)" opacity="0.17"/>
                  <path id="Trazado_820312" data-name="Trazado 820312" d="M0,0H94.339V3.685H0Z" transform="translate(-0.376 -0.917)" fill="#1582fb" stroke="#263238" stroke-linecap="round" stroke-width="1"/>
                </g>
                <rect id="Rectángulo_382502" data-name="Rectángulo 382502" width="93.839" height="67.775" fill="none" stroke="#263238" stroke-linecap="round" stroke-linejoin="round" stroke-width="1"/>
              </g>
            </g>
            <g id="Grupo_1073192" data-name="Grupo 1073192" transform="translate(5.422 13.859)">
              <path id="Trazado_820266" data-name="Trazado 820266" d="M39.465,67.673H38.186a.316.316,0,1,1,0-.632h1.279a.316.316,0,1,1,0,.632Zm.316,1.141a.317.317,0,0,0-.316-.316H38.186a.316.316,0,0,0,0,.632h1.279A.317.317,0,0,0,39.781,68.814Zm0,1.462a.317.317,0,0,0-.316-.316H38.186a.316.316,0,0,0,0,.632h1.279A.317.317,0,0,0,39.781,70.276Zm0,1.462a.317.317,0,0,0-.316-.316H38.186a.316.316,0,0,0,0,.632h1.279A.317.317,0,0,0,39.781,71.738Zm0,1.462a.317.317,0,0,0-.316-.316H38.186a.316.316,0,0,0,0,.632h1.279A.317.317,0,0,0,39.781,73.2Zm0,1.457a.317.317,0,0,0-.316-.316H38.186a.316.316,0,0,0,0,.632h1.279A.317.317,0,0,0,39.781,74.658Zm0,1.462a.317.317,0,0,0-.316-.316H38.186a.316.316,0,0,0,0,.632h1.279A.317.317,0,0,0,39.781,76.12Zm0,1.462a.317.317,0,0,0-.316-.316H38.186a.316.316,0,0,0,0,.632h1.279A.317.317,0,0,0,39.781,77.582Zm4.785-10.225a.317.317,0,0,0-.316-.316H40.895a.316.316,0,1,0,0,.632H44.25A.317.317,0,0,0,44.566,67.357Zm0,1.457a.317.317,0,0,0-.316-.316H40.895a.316.316,0,1,0,0,.632H44.25A.317.317,0,0,0,44.566,68.814Zm0,1.462a.317.317,0,0,0-.316-.316H40.895a.316.316,0,1,0,0,.632H44.25A.317.317,0,0,0,44.566,70.276Zm0,1.462a.317.317,0,0,0-.316-.316H40.895a.316.316,0,0,0,0,.632H44.25A.317.317,0,0,0,44.566,71.738Zm0,1.462a.317.317,0,0,0-.316-.316H40.895a.316.316,0,1,0,0,.632H44.25A.317.317,0,0,0,44.566,73.2Zm4.015,1.457a.317.317,0,0,0-.316-.316H44.91a.316.316,0,0,0,0,.632h3.355A.317.317,0,0,0,48.581,74.658Zm0,1.462a.317.317,0,0,0-.316-.316H44.91a.316.316,0,0,0,0,.632h3.355A.317.317,0,0,0,48.581,76.12Zm0,1.462a.317.317,0,0,0-.316-.316H44.91a.316.316,0,1,0,0,.632h3.355A.317.317,0,0,0,48.581,77.582ZM46.042,67.357a.367.367,0,1,0-.367.367A.368.368,0,0,0,46.042,67.357Zm1.1,0a.367.367,0,1,0-.367.367A.368.368,0,0,0,47.137,67.357Zm1.1,0a.367.367,0,1,0-.367.367A.368.368,0,0,0,48.232,67.357Zm1.1,0a.367.367,0,1,0-.367.367A.368.368,0,0,0,49.328,67.357Zm1.1,0a.367.367,0,1,0-.367.367A.368.368,0,0,0,50.423,67.357Zm1.1,0a.367.367,0,1,0-.367.367A.368.368,0,0,0,51.519,67.357Zm-5.477,2.919a.367.367,0,1,0-.367.367A.368.368,0,0,0,46.042,70.276Zm1.1,0a.367.367,0,1,0-.367.367A.368.368,0,0,0,47.137,70.276Zm1.1,0a.367.367,0,1,0-.367.367A.368.368,0,0,0,48.232,70.276Zm1.1,0a.367.367,0,1,0-.367.367A.368.368,0,0,0,49.328,70.276Zm1.1,0a.367.367,0,1,0-.367.367A.368.368,0,0,0,50.423,70.276Zm1.1,0a.367.367,0,1,0-.367.367A.368.368,0,0,0,51.519,70.276Zm-1.732,4.2a.367.367,0,1,0-.367.367A.368.368,0,0,0,49.786,74.479Zm1.1,0a.367.367,0,1,0-.367.367A.368.368,0,0,0,50.881,74.479Zm1.1,0a.367.367,0,1,0-.367.367A.368.368,0,0,0,51.977,74.479Zm1.1,0a.367.367,0,1,0-.367.367A.368.368,0,0,0,53.072,74.479Zm1.1,0a.367.367,0,1,0-.367.367A.368.368,0,0,0,54.168,74.479Zm1.1,0a.367.367,0,1,0-.367.367A.368.368,0,0,0,55.263,74.479ZM49.786,77.49a.367.367,0,1,0-.367.367A.368.368,0,0,0,49.786,77.49Zm1.1,0a.367.367,0,1,0-.367.367A.368.368,0,0,0,50.881,77.49Zm1.1,0a.367.367,0,1,0-.367.367A.368.368,0,0,0,51.977,77.49Zm1.1,0a.367.367,0,1,0-.367.367A.368.368,0,0,0,53.072,77.49Zm1.1,0a.367.367,0,1,0-.367.367A.368.368,0,0,0,54.168,77.49Zm1.1,0a.367.367,0,1,0-.367.367A.368.368,0,0,0,55.263,77.49Z" transform="translate(-37.87 -66.99)" fill="#1682fb"/>
              <path id="Trazado_820267" data-name="Trazado 820267" d="M39.465,93.173H38.186a.316.316,0,0,1,0-.632h1.279a.316.316,0,0,1,0,.632Zm.316,1.146A.317.317,0,0,0,39.465,94H38.186a.316.316,0,0,0,0,.632h1.279A.317.317,0,0,0,39.781,94.319Zm0,1.462a.317.317,0,0,0-.316-.316H38.186a.316.316,0,0,0,0,.632h1.279A.317.317,0,0,0,39.781,95.781Zm0,1.457a.317.317,0,0,0-.316-.316H38.186a.316.316,0,0,0,0,.632h1.279A.317.317,0,0,0,39.781,97.238Zm0,1.462a.317.317,0,0,0-.316-.316H38.186a.316.316,0,0,0,0,.632h1.279A.317.317,0,0,0,39.781,98.7Zm0,1.462a.317.317,0,0,0-.316-.316H38.186a.316.316,0,0,0,0,.632h1.279A.317.317,0,0,0,39.781,100.162Zm0,1.462a.317.317,0,0,0-.316-.316H38.186a.316.316,0,0,0,0,.632h1.279A.317.317,0,0,0,39.781,101.624Zm0,1.457a.317.317,0,0,0-.316-.316H38.186a.316.316,0,0,0,0,.632h1.279A.317.317,0,0,0,39.781,103.082Zm4.785-10.225a.317.317,0,0,0-.316-.316H40.895a.316.316,0,1,0,0,.632H44.25A.317.317,0,0,0,44.566,92.857Zm0,1.462A.317.317,0,0,0,44.25,94H40.895a.316.316,0,0,0,0,.632H44.25A.317.317,0,0,0,44.566,94.319Zm0,1.462a.317.317,0,0,0-.316-.316H40.895a.316.316,0,1,0,0,.632H44.25A.317.317,0,0,0,44.566,95.781Zm0,1.457a.317.317,0,0,0-.316-.316H40.895a.316.316,0,0,0,0,.632H44.25A.317.317,0,0,0,44.566,97.238Zm0,1.462a.317.317,0,0,0-.316-.316H40.895a.316.316,0,1,0,0,.632H44.25A.317.317,0,0,0,44.566,98.7Zm4.015,1.462a.317.317,0,0,0-.316-.316H44.91a.316.316,0,1,0,0,.632h3.355A.317.317,0,0,0,48.581,100.162Zm0,1.462a.317.317,0,0,0-.316-.316H44.91a.316.316,0,1,0,0,.632h3.355A.317.317,0,0,0,48.581,101.624Zm0,1.457a.317.317,0,0,0-.316-.316H44.91a.316.316,0,1,0,0,.632h3.355A.317.317,0,0,0,48.581,103.082ZM46.042,92.857a.367.367,0,1,0-.367.367A.368.368,0,0,0,46.042,92.857Zm1.1,0a.367.367,0,1,0-.367.367A.368.368,0,0,0,47.137,92.857Zm1.1,0a.367.367,0,1,0-.367.367A.368.368,0,0,0,48.232,92.857Zm1.1,0a.367.367,0,1,0-.367.367A.368.368,0,0,0,49.328,92.857Zm1.1,0a.367.367,0,1,0-.367.367A.368.368,0,0,0,50.423,92.857Zm1.1,0a.367.367,0,1,0-.367.367A.368.368,0,0,0,51.519,92.857Zm-5.477,2.924a.367.367,0,1,0-.367.367A.368.368,0,0,0,46.042,95.781Zm1.1,0a.367.367,0,1,0-.367.367A.368.368,0,0,0,47.137,95.781Zm1.1,0a.367.367,0,1,0-.367.367A.368.368,0,0,0,48.232,95.781Zm1.1,0a.367.367,0,1,0-.367.367A.368.368,0,0,0,49.328,95.781Zm1.1,0a.367.367,0,1,0-.367.367A.368.368,0,0,0,50.423,95.781Zm1.1,0a.367.367,0,1,0-.367.367A.368.368,0,0,0,51.519,95.781Zm-1.732,4.2a.367.367,0,1,0-.367.367A.368.368,0,0,0,49.786,99.979Zm1.1,0a.367.367,0,1,0-.367.367A.368.368,0,0,0,50.881,99.979Zm1.1,0a.367.367,0,1,0-.367.367A.368.368,0,0,0,51.977,99.979Zm1.1,0a.367.367,0,1,0-.367.367A.368.368,0,0,0,53.072,99.979Zm1.1,0a.367.367,0,1,0-.367.367A.368.368,0,0,0,54.168,99.979Zm1.1,0a.367.367,0,1,0-.367.367A.368.368,0,0,0,55.263,99.979Zm-5.477,3.011a.367.367,0,1,0-.367.367A.368.368,0,0,0,49.786,102.99Zm1.1,0a.367.367,0,1,0-.367.367A.368.368,0,0,0,50.881,102.99Zm1.1,0a.367.367,0,1,0-.367.367A.368.368,0,0,0,51.977,102.99Zm1.1,0a.367.367,0,1,0-.367.367A.368.368,0,0,0,53.072,102.99Zm1.1,0a.367.367,0,1,0-.367.367A.368.368,0,0,0,54.168,102.99Zm1.1,0a.367.367,0,1,0-.367.367A.368.368,0,0,0,55.263,102.99Z" transform="translate(-37.87 -80.803)" fill="#1682fb"/>
              <path id="Trazado_820268" data-name="Trazado 820268" d="M39.465,119.293H38.186a.316.316,0,0,1,0-.632h1.279a.316.316,0,0,1,0,.632Zm.316,1.146a.317.317,0,0,0-.316-.316H38.186a.316.316,0,0,0,0,.632h1.279A.317.317,0,0,0,39.781,120.439Zm0,1.462a.317.317,0,0,0-.316-.316H38.186a.316.316,0,0,0,0,.632h1.279A.317.317,0,0,0,39.781,121.9Zm0,1.457a.317.317,0,0,0-.316-.316H38.186a.316.316,0,0,0,0,.632h1.279A.317.317,0,0,0,39.781,123.358Zm0,1.462a.317.317,0,0,0-.316-.316H38.186a.316.316,0,0,0,0,.632h1.279A.317.317,0,0,0,39.781,124.82Zm0,1.462a.317.317,0,0,0-.316-.316H38.186a.316.316,0,0,0,0,.632h1.279A.317.317,0,0,0,39.781,126.282Zm0,1.462a.317.317,0,0,0-.316-.316H38.186a.316.316,0,0,0,0,.632h1.279A.317.317,0,0,0,39.781,127.744Zm0,1.457a.317.317,0,0,0-.316-.316H38.186a.316.316,0,0,0,0,.632h1.279A.317.317,0,0,0,39.781,129.2Zm4.785-10.225a.317.317,0,0,0-.316-.316H40.895a.316.316,0,1,0,0,.632H44.25A.317.317,0,0,0,44.566,118.977Zm0,1.462a.317.317,0,0,0-.316-.316H40.895a.316.316,0,1,0,0,.632H44.25A.317.317,0,0,0,44.566,120.439Zm0,1.462a.317.317,0,0,0-.316-.316H40.895a.316.316,0,0,0,0,.632H44.25A.317.317,0,0,0,44.566,121.9Zm0,1.457a.317.317,0,0,0-.316-.316H40.895a.316.316,0,1,0,0,.632H44.25A.317.317,0,0,0,44.566,123.358Zm0,1.462a.317.317,0,0,0-.316-.316H40.895a.316.316,0,1,0,0,.632H44.25A.317.317,0,0,0,44.566,124.82Zm4.015,1.462a.317.317,0,0,0-.316-.316H44.91a.316.316,0,1,0,0,.632h3.355A.317.317,0,0,0,48.581,126.282Zm0,1.462a.317.317,0,0,0-.316-.316H44.91a.316.316,0,0,0,0,.632h3.355A.317.317,0,0,0,48.581,127.744Zm0,1.457a.317.317,0,0,0-.316-.316H44.91a.316.316,0,0,0,0,.632h3.355A.317.317,0,0,0,48.581,129.2Zm-2.539-10.225a.367.367,0,1,0-.367.367A.368.368,0,0,0,46.042,118.977Zm1.1,0a.367.367,0,1,0-.367.367A.368.368,0,0,0,47.137,118.977Zm1.1,0a.367.367,0,1,0-.367.367A.368.368,0,0,0,48.232,118.977Zm1.1,0a.367.367,0,1,0-.367.367A.368.368,0,0,0,49.328,118.977Zm1.1,0a.367.367,0,1,0-.367.367A.368.368,0,0,0,50.423,118.977Zm1.1,0a.367.367,0,1,0-.367.367A.368.368,0,0,0,51.519,118.977ZM46.042,121.9a.367.367,0,1,0-.367.367A.368.368,0,0,0,46.042,121.9Zm1.1,0a.367.367,0,1,0-.367.367A.368.368,0,0,0,47.137,121.9Zm1.1,0a.367.367,0,1,0-.367.367A.368.368,0,0,0,48.232,121.9Zm1.1,0a.367.367,0,1,0-.367.367A.368.368,0,0,0,49.328,121.9Zm1.1,0a.367.367,0,1,0-.367.367A.368.368,0,0,0,50.423,121.9Zm1.1,0a.367.367,0,1,0-.367.367A.368.368,0,0,0,51.519,121.9Zm-1.732,4.2a.367.367,0,1,0-.367.367A.368.368,0,0,0,49.786,126.1Zm1.1,0a.367.367,0,1,0-.367.367A.368.368,0,0,0,50.881,126.1Zm1.1,0a.367.367,0,1,0-.367.367A.368.368,0,0,0,51.977,126.1Zm1.1,0a.367.367,0,1,0-.367.367A.368.368,0,0,0,53.072,126.1Zm1.1,0a.367.367,0,1,0-.367.367A.368.368,0,0,0,54.168,126.1Zm1.1,0a.367.367,0,1,0-.367.367A.368.368,0,0,0,55.263,126.1Zm-5.477,3.011a.367.367,0,1,0-.367.367A.368.368,0,0,0,49.786,129.11Zm1.1,0a.367.367,0,1,0-.367.367A.368.368,0,0,0,50.881,129.11Zm1.1,0a.367.367,0,1,0-.367.367A.368.368,0,0,0,51.977,129.11Zm1.1,0a.367.367,0,1,0-.367.367A.368.368,0,0,0,53.072,129.11Zm1.1,0a.367.367,0,1,0-.367.367A.368.368,0,0,0,54.168,129.11Zm1.1,0a.367.367,0,1,0-.367.367A.368.368,0,0,0,55.263,129.11Z" transform="translate(-37.87 -94.952)" fill="#1682fb"/>
              <path id="Trazado_820269" data-name="Trazado 820269" d="M79.665,134.883H78.386a.316.316,0,0,1,0-.632h1.279a.316.316,0,0,1,0,.632Zm.316,1.146a.317.317,0,0,0-.316-.316H78.386a.316.316,0,1,0,0,.632h1.279A.317.317,0,0,0,79.981,136.029Zm0,1.462a.317.317,0,0,0-.316-.316H78.386a.316.316,0,0,0,0,.632h1.279A.317.317,0,0,0,79.981,137.491Zm0,1.457a.317.317,0,0,0-.316-.316H78.386a.316.316,0,0,0,0,.632h1.279A.317.317,0,0,0,79.981,138.948Zm0,1.462a.317.317,0,0,0-.316-.316H78.386a.316.316,0,0,0,0,.632h1.279A.317.317,0,0,0,79.981,140.41Zm0,1.462a.317.317,0,0,0-.316-.316H78.386a.316.316,0,0,0,0,.632h1.279A.317.317,0,0,0,79.981,141.872Zm0,1.457a.317.317,0,0,0-.316-.316H78.386a.316.316,0,0,0,0,.632h1.279A.317.317,0,0,0,79.981,143.33Zm0,1.462a.317.317,0,0,0-.316-.316H78.386a.316.316,0,1,0,0,.632h1.279A.317.317,0,0,0,79.981,144.792Zm4.78-10.225a.317.317,0,0,0-.316-.316H81.09a.316.316,0,0,0,0,.632h3.355A.317.317,0,0,0,84.761,134.567Zm0,1.462a.317.317,0,0,0-.316-.316H81.09a.316.316,0,1,0,0,.632h3.355A.317.317,0,0,0,84.761,136.029Zm0,1.462a.317.317,0,0,0-.316-.316H81.09a.316.316,0,0,0,0,.632h3.355A.317.317,0,0,0,84.761,137.491Zm0,1.457a.317.317,0,0,0-.316-.316H81.09a.316.316,0,0,0,0,.632h3.355A.317.317,0,0,0,84.761,138.948Zm0,1.462a.317.317,0,0,0-.316-.316H81.09a.316.316,0,0,0,0,.632h3.355A.317.317,0,0,0,84.761,140.41Zm4.015,1.462a.317.317,0,0,0-.316-.316H85.105a.316.316,0,1,0,0,.632H88.46A.317.317,0,0,0,88.776,141.872Zm0,1.457a.317.317,0,0,0-.316-.316H85.105a.316.316,0,0,0,0,.632H88.46A.317.317,0,0,0,88.776,143.33Zm0,1.462a.317.317,0,0,0-.316-.316H85.105a.316.316,0,1,0,0,.632H88.46A.317.317,0,0,0,88.776,144.792Zm-2.539-10.225a.367.367,0,1,0-.367.367A.368.368,0,0,0,86.237,134.567Zm1.1,0a.367.367,0,1,0-.367.367A.368.368,0,0,0,87.332,134.567Zm1.1,0a.367.367,0,1,0-.367.367A.368.368,0,0,0,88.428,134.567Zm1.1,0a.367.367,0,1,0-.367.367A.368.368,0,0,0,89.523,134.567Zm1.1,0a.367.367,0,1,0-.367.367A.368.368,0,0,0,90.619,134.567Zm1.1,0a.367.367,0,1,0-.367.367A.368.368,0,0,0,91.714,134.567Zm-5.477,2.924a.367.367,0,1,0-.367.367A.368.368,0,0,0,86.237,137.491Zm1.1,0a.367.367,0,1,0-.367.367A.368.368,0,0,0,87.332,137.491Zm1.1,0a.367.367,0,1,0-.367.367A.368.368,0,0,0,88.428,137.491Zm1.1,0a.367.367,0,1,0-.367.367A.368.368,0,0,0,89.523,137.491Zm1.1,0a.367.367,0,1,0-.367.367A.368.368,0,0,0,90.619,137.491Zm1.1,0a.367.367,0,1,0-.367.367A.368.368,0,0,0,91.714,137.491Zm-1.732,4.2a.367.367,0,1,0-.367.367A.368.368,0,0,0,89.981,141.689Zm1.1,0a.367.367,0,1,0-.367.367A.368.368,0,0,0,91.077,141.689Zm1.1,0a.367.367,0,1,0-.367.367A.368.368,0,0,0,92.172,141.689Zm1.1,0a.367.367,0,1,0-.367.367A.368.368,0,0,0,93.268,141.689Zm1.1,0a.367.367,0,1,0-.367.367A.368.368,0,0,0,94.363,141.689Zm1.1,0a.367.367,0,1,0-.367.367A.368.368,0,0,0,95.458,141.689ZM89.981,144.7a.367.367,0,1,0-.367.367A.368.368,0,0,0,89.981,144.7Zm1.1,0a.367.367,0,1,0-.367.367A.368.368,0,0,0,91.077,144.7Zm1.1,0a.367.367,0,1,0-.367.367A.368.368,0,0,0,92.172,144.7Zm1.1,0a.367.367,0,1,0-.367.367A.368.368,0,0,0,93.268,144.7Zm1.1,0a.367.367,0,1,0-.367.367A.368.368,0,0,0,94.363,144.7Zm1.1,0a.367.367,0,1,0-.367.367A.368.368,0,0,0,95.458,144.7Zm.784-10.133a.317.317,0,0,0-.316-.316H92.571a.316.316,0,0,0,0,.632h3.355A.317.317,0,0,0,96.242,134.567Zm0,1.462a.317.317,0,0,0-.316-.316H92.571a.316.316,0,0,0,0,.632h3.355A.317.317,0,0,0,96.242,136.029Zm0,1.462a.317.317,0,0,0-.316-.316H92.571a.316.316,0,0,0,0,.632h3.355A.317.317,0,0,0,96.242,137.491Zm0,1.457a.317.317,0,0,0-.316-.316H92.571a.316.316,0,0,0,0,.632h3.355A.317.317,0,0,0,96.242,138.948Zm0,1.462a.317.317,0,0,0-.316-.316H92.571a.316.316,0,0,0,0,.632h3.355A.317.317,0,0,0,96.242,140.41Zm4.015,1.462a.317.317,0,0,0-.316-.316H96.586a.316.316,0,0,0,0,.632h3.355A.317.317,0,0,0,100.257,141.872Zm0,1.457a.317.317,0,0,0-.316-.316H96.586a.316.316,0,0,0,0,.632h3.355A.317.317,0,0,0,100.257,143.33Zm0,1.462a.317.317,0,0,0-.316-.316H96.586a.316.316,0,0,0,0,.632h3.355A.317.317,0,0,0,100.257,144.792Zm-2.539-10.225a.367.367,0,1,0-.367.367A.368.368,0,0,0,97.718,134.567Zm1.1,0a.367.367,0,1,0-.367.367A.368.368,0,0,0,98.813,134.567Zm1.1,0a.367.367,0,1,0-.367.367A.368.368,0,0,0,99.909,134.567Zm1.1,0a.367.367,0,1,0-.367.367A.368.368,0,0,0,101,134.567Zm1.1,0a.367.367,0,1,0-.367.367A.368.368,0,0,0,102.1,134.567Zm1.1,0a.367.367,0,1,0-.367.367A.368.368,0,0,0,103.195,134.567Zm-5.477,2.924a.367.367,0,1,0-.367.367A.368.368,0,0,0,97.718,137.491Zm1.1,0a.367.367,0,1,0-.367.367A.368.368,0,0,0,98.813,137.491Zm1.1,0a.367.367,0,1,0-.367.367A.368.368,0,0,0,99.909,137.491Zm1.1,0a.367.367,0,1,0-.367.367A.368.368,0,0,0,101,137.491Zm1.1,0a.367.367,0,1,0-.367.367A.368.368,0,0,0,102.1,137.491Zm1.1,0a.367.367,0,1,0-.367.367A.368.368,0,0,0,103.195,137.491Zm-1.737,4.2a.367.367,0,1,0-.367.367A.368.368,0,0,0,101.458,141.689Zm1.1,0a.367.367,0,1,0-.367.367A.368.368,0,0,0,102.558,141.689Zm1.1,0a.367.367,0,1,0-.367.367A.368.368,0,0,0,103.653,141.689Zm1.1,0a.367.367,0,1,0-.367.367A.368.368,0,0,0,104.748,141.689Zm1.1,0a.367.367,0,1,0-.367.367A.368.368,0,0,0,105.844,141.689Zm1.1,0a.367.367,0,1,0-.367.367A.368.368,0,0,0,106.939,141.689Zm-5.481,3.011a.367.367,0,1,0-.367.367A.368.368,0,0,0,101.458,144.7Zm1.1,0a.367.367,0,1,0-.367.367A.368.368,0,0,0,102.558,144.7Zm1.1,0a.367.367,0,1,0-.367.367A.368.368,0,0,0,103.653,144.7Zm1.1,0a.367.367,0,1,0-.367.367A.368.368,0,0,0,104.748,144.7Zm1.1,0a.367.367,0,1,0-.367.367A.368.368,0,0,0,105.844,144.7Zm1.1,0a.367.367,0,1,0-.367.367A.368.368,0,0,0,106.939,144.7Zm.779-10.133a.317.317,0,0,0-.316-.316h-3.355a.316.316,0,0,0,0,.632H107.4A.317.317,0,0,0,107.718,134.567Zm0,1.462a.317.317,0,0,0-.316-.316h-3.355a.316.316,0,0,0,0,.632H107.4A.317.317,0,0,0,107.718,136.029Zm0,1.462a.317.317,0,0,0-.316-.316h-3.355a.316.316,0,0,0,0,.632H107.4A.317.317,0,0,0,107.718,137.491Zm0,1.457a.317.317,0,0,0-.316-.316h-3.355a.316.316,0,0,0,0,.632H107.4A.317.317,0,0,0,107.718,138.948Zm0,1.462a.317.317,0,0,0-.316-.316h-3.355a.316.316,0,0,0,0,.632H107.4A.317.317,0,0,0,107.718,140.41Zm4.019,1.462a.317.317,0,0,0-.316-.316h-3.355a.316.316,0,0,0,0,.632h3.355A.317.317,0,0,0,111.738,141.872Zm0,1.457a.317.317,0,0,0-.316-.316h-3.355a.316.316,0,0,0,0,.632h3.355A.317.317,0,0,0,111.738,143.33Zm0,1.462a.317.317,0,0,0-.316-.316h-3.355a.316.316,0,0,0,0,.632h3.355A.317.317,0,0,0,111.738,144.792Zm-2.544-10.225a.367.367,0,1,0-.367.367A.368.368,0,0,0,109.194,134.567Zm1.1,0a.367.367,0,1,0-.367.367A.368.368,0,0,0,110.294,134.567Zm1.1,0a.367.367,0,1,0-.367.367A.368.368,0,0,0,111.389,134.567Zm1.1,0a.367.367,0,1,0-.367.367A.368.368,0,0,0,112.485,134.567Zm1.1,0a.367.367,0,1,0-.367.367A.368.368,0,0,0,113.58,134.567Zm1.1,0a.367.367,0,1,0-.367.367A.368.368,0,0,0,114.675,134.567Zm-5.481,2.924a.367.367,0,1,0-.367.367A.368.368,0,0,0,109.194,137.491Zm1.1,0a.367.367,0,1,0-.367.367A.368.368,0,0,0,110.294,137.491Zm1.1,0a.367.367,0,1,0-.367.367A.368.368,0,0,0,111.389,137.491Zm1.1,0a.367.367,0,1,0-.367.367A.368.368,0,0,0,112.485,137.491Zm1.1,0a.367.367,0,1,0-.367.367A.368.368,0,0,0,113.58,137.491Zm1.1,0a.367.367,0,1,0-.367.367A.368.368,0,0,0,114.675,137.491Zm-1.737,4.2a.367.367,0,1,0-.367.367A.368.368,0,0,0,112.938,141.689Zm1.1,0a.367.367,0,1,0-.367.367A.368.368,0,0,0,114.034,141.689Zm1.1,0a.367.367,0,1,0-.367.367A.368.368,0,0,0,115.129,141.689Zm1.1,0a.367.367,0,1,0-.367.367A.368.368,0,0,0,116.224,141.689Zm1.1,0a.367.367,0,1,0-.367.367A.368.368,0,0,0,117.32,141.689Zm1.1,0a.367.367,0,1,0-.367.367A.368.368,0,0,0,118.415,141.689Zm-5.477,3.011a.367.367,0,1,0-.367.367A.368.368,0,0,0,112.938,144.7Zm1.1,0a.367.367,0,1,0-.367.367A.368.368,0,0,0,114.034,144.7Zm1.1,0a.367.367,0,1,0-.367.367A.368.368,0,0,0,115.129,144.7Zm1.1,0a.367.367,0,1,0-.367.367A.368.368,0,0,0,116.224,144.7Zm1.1,0a.367.367,0,1,0-.367.367A.368.368,0,0,0,117.32,144.7Zm1.1,0a.367.367,0,1,0-.367.367A.368.368,0,0,0,118.415,144.7Zm.784-10.133a.317.317,0,0,0-.316-.316h-3.355a.316.316,0,1,0,0,.632h3.355A.317.317,0,0,0,119.2,134.567Zm0,1.462a.317.317,0,0,0-.316-.316h-3.355a.316.316,0,1,0,0,.632h3.355A.317.317,0,0,0,119.2,136.029Zm0,1.462a.317.317,0,0,0-.316-.316h-3.355a.316.316,0,1,0,0,.632h3.355A.317.317,0,0,0,119.2,137.491Zm0,1.457a.317.317,0,0,0-.316-.316h-3.355a.316.316,0,1,0,0,.632h3.355A.317.317,0,0,0,119.2,138.948Zm0,1.462a.317.317,0,0,0-.316-.316h-3.355a.316.316,0,1,0,0,.632h3.355A.317.317,0,0,0,119.2,140.41Zm4.019,1.462a.317.317,0,0,0-.316-.316h-3.355a.316.316,0,0,0,0,.632H122.9A.317.317,0,0,0,123.218,141.872Zm0,1.457a.317.317,0,0,0-.316-.316h-3.355a.316.316,0,1,0,0,.632H122.9A.317.317,0,0,0,123.218,143.33Zm0,1.462a.317.317,0,0,0-.316-.316h-3.355a.316.316,0,0,0,0,.632H122.9A.317.317,0,0,0,123.218,144.792Zm-2.544-10.225a.367.367,0,1,0-.367.367A.368.368,0,0,0,120.675,134.567Zm1.1,0a.367.367,0,1,0-.367.367A.368.368,0,0,0,121.77,134.567Zm1.1,0a.367.367,0,1,0-.367.367A.368.368,0,0,0,122.865,134.567Zm1.1,0a.367.367,0,1,0-.367.367A.368.368,0,0,0,123.961,134.567Zm1.1,0a.367.367,0,1,0-.367.367A.368.368,0,0,0,125.056,134.567Zm1.1,0a.367.367,0,1,0-.367.367A.368.368,0,0,0,126.151,134.567Zm-5.477,2.924a.367.367,0,1,0-.367.367A.368.368,0,0,0,120.675,137.491Zm1.1,0a.367.367,0,1,0-.367.367A.368.368,0,0,0,121.77,137.491Zm1.1,0a.367.367,0,1,0-.367.367A.368.368,0,0,0,122.865,137.491Zm1.1,0a.367.367,0,1,0-.367.367A.368.368,0,0,0,123.961,137.491Zm1.1,0a.367.367,0,1,0-.367.367A.368.368,0,0,0,125.056,137.491Zm1.1,0a.367.367,0,1,0-.367.367A.368.368,0,0,0,126.151,137.491Zm-1.732,4.2a.367.367,0,1,0-.367.367A.368.368,0,0,0,124.419,141.689Zm1.1,0a.367.367,0,1,0-.367.367A.368.368,0,0,0,125.514,141.689Zm1.1,0a.367.367,0,1,0-.367.367A.368.368,0,0,0,126.61,141.689Zm1.1,0a.367.367,0,1,0-.367.367A.368.368,0,0,0,127.705,141.689Zm1.1,0a.367.367,0,1,0-.367.367A.368.368,0,0,0,128.8,141.689Zm1.1,0a.367.367,0,1,0-.367.367A.368.368,0,0,0,129.9,141.689Zm-5.477,3.011a.367.367,0,1,0-.367.367A.368.368,0,0,0,124.419,144.7Zm1.1,0a.367.367,0,1,0-.367.367A.368.368,0,0,0,125.514,144.7Zm1.1,0a.367.367,0,1,0-.367.367A.368.368,0,0,0,126.61,144.7Zm1.1,0a.367.367,0,1,0-.367.367A.368.368,0,0,0,127.705,144.7Zm1.1,0a.367.367,0,1,0-.367.367A.368.368,0,0,0,128.8,144.7Zm1.1,0a.367.367,0,1,0-.367.367A.368.368,0,0,0,129.9,144.7Z" transform="translate(-59.646 -103.397)" fill="#1682fb"/>
              <path id="Trazado_820270" data-name="Trazado 820270" d="M79.665,163.423H78.386a.316.316,0,1,1,0-.632h1.279a.316.316,0,1,1,0,.632Zm.316,1.146a.317.317,0,0,0-.316-.316H78.386a.316.316,0,1,0,0,.632h1.279A.317.317,0,0,0,79.981,164.569Zm0,1.462a.317.317,0,0,0-.316-.316H78.386a.316.316,0,0,0,0,.632h1.279A.317.317,0,0,0,79.981,166.031Zm0,1.457a.317.317,0,0,0-.316-.316H78.386a.316.316,0,0,0,0,.632h1.279A.317.317,0,0,0,79.981,167.488Zm0,1.462a.317.317,0,0,0-.316-.316H78.386a.316.316,0,1,0,0,.632h1.279A.317.317,0,0,0,79.981,168.95Zm0,1.462a.317.317,0,0,0-.316-.316H78.386a.316.316,0,0,0,0,.632h1.279A.317.317,0,0,0,79.981,170.412Zm0,1.462a.317.317,0,0,0-.316-.316H78.386a.316.316,0,1,0,0,.632h1.279A.317.317,0,0,0,79.981,171.874Zm0,1.457a.317.317,0,0,0-.316-.316H78.386a.316.316,0,0,0,0,.632h1.279A.317.317,0,0,0,79.981,173.332Zm4.78-10.225a.317.317,0,0,0-.316-.316H81.09a.316.316,0,1,0,0,.632h3.355A.317.317,0,0,0,84.761,163.107Zm0,1.462a.317.317,0,0,0-.316-.316H81.09a.316.316,0,1,0,0,.632h3.355A.317.317,0,0,0,84.761,164.569Zm0,1.462a.317.317,0,0,0-.316-.316H81.09a.316.316,0,0,0,0,.632h3.355A.317.317,0,0,0,84.761,166.031Zm0,1.457a.317.317,0,0,0-.316-.316H81.09a.316.316,0,0,0,0,.632h3.355A.317.317,0,0,0,84.761,167.488Zm0,1.462a.317.317,0,0,0-.316-.316H81.09a.316.316,0,1,0,0,.632h3.355A.317.317,0,0,0,84.761,168.95Zm4.015,1.462a.317.317,0,0,0-.316-.316H85.105a.316.316,0,0,0,0,.632H88.46A.317.317,0,0,0,88.776,170.412Zm0,1.462a.317.317,0,0,0-.316-.316H85.105a.316.316,0,1,0,0,.632H88.46A.317.317,0,0,0,88.776,171.874Zm0,1.457a.317.317,0,0,0-.316-.316H85.105a.316.316,0,0,0,0,.632H88.46A.317.317,0,0,0,88.776,173.332Zm-2.539-10.225a.367.367,0,1,0-.367.367A.368.368,0,0,0,86.237,163.107Zm1.1,0a.367.367,0,1,0-.367.367A.368.368,0,0,0,87.332,163.107Zm1.1,0a.367.367,0,1,0-.367.367A.368.368,0,0,0,88.428,163.107Zm1.1,0a.367.367,0,1,0-.367.367A.368.368,0,0,0,89.523,163.107Zm1.1,0a.367.367,0,1,0-.367.367A.368.368,0,0,0,90.619,163.107Zm1.1,0a.367.367,0,1,0-.367.367A.368.368,0,0,0,91.714,163.107Zm-5.477,2.924a.367.367,0,1,0-.367.367A.368.368,0,0,0,86.237,166.031Zm1.1,0a.367.367,0,1,0-.367.367A.368.368,0,0,0,87.332,166.031Zm1.1,0a.367.367,0,1,0-.367.367A.368.368,0,0,0,88.428,166.031Zm1.1,0a.367.367,0,1,0-.367.367A.368.368,0,0,0,89.523,166.031Zm1.1,0a.367.367,0,1,0-.367.367A.368.368,0,0,0,90.619,166.031Zm1.1,0a.367.367,0,1,0-.367.367A.368.368,0,0,0,91.714,166.031Zm-1.732,4.2a.367.367,0,1,0-.367.367A.368.368,0,0,0,89.981,170.229Zm1.1,0a.367.367,0,1,0-.367.367A.368.368,0,0,0,91.077,170.229Zm1.1,0a.367.367,0,1,0-.367.367A.368.368,0,0,0,92.172,170.229Zm1.1,0a.367.367,0,1,0-.367.367A.368.368,0,0,0,93.268,170.229Zm1.1,0A.367.367,0,1,0,94,170.6.368.368,0,0,0,94.363,170.229Zm1.1,0a.367.367,0,1,0-.367.367A.368.368,0,0,0,95.458,170.229Zm-5.477,3.011a.367.367,0,1,0-.367.367A.368.368,0,0,0,89.981,173.24Zm1.1,0a.367.367,0,1,0-.367.367A.368.368,0,0,0,91.077,173.24Zm1.1,0a.367.367,0,1,0-.367.367A.368.368,0,0,0,92.172,173.24Zm1.1,0a.367.367,0,1,0-.367.367A.368.368,0,0,0,93.268,173.24Zm1.1,0a.367.367,0,1,0-.367.367A.368.368,0,0,0,94.363,173.24Zm1.1,0a.367.367,0,1,0-.367.367A.368.368,0,0,0,95.458,173.24Zm.784-10.133a.317.317,0,0,0-.316-.316H92.571a.316.316,0,1,0,0,.632h3.355A.317.317,0,0,0,96.242,163.107Zm0,1.462a.317.317,0,0,0-.316-.316H92.571a.316.316,0,1,0,0,.632h3.355A.317.317,0,0,0,96.242,164.569Zm0,1.462a.317.317,0,0,0-.316-.316H92.571a.316.316,0,0,0,0,.632h3.355A.317.317,0,0,0,96.242,166.031Zm0,1.457a.317.317,0,0,0-.316-.316H92.571a.316.316,0,0,0,0,.632h3.355A.317.317,0,0,0,96.242,167.488Zm0,1.462a.317.317,0,0,0-.316-.316H92.571a.316.316,0,1,0,0,.632h3.355A.317.317,0,0,0,96.242,168.95Zm4.015,1.462a.317.317,0,0,0-.316-.316H96.586a.316.316,0,0,0,0,.632h3.355A.317.317,0,0,0,100.257,170.412Zm0,1.462a.317.317,0,0,0-.316-.316H96.586a.316.316,0,1,0,0,.632h3.355A.317.317,0,0,0,100.257,171.874Zm0,1.457a.317.317,0,0,0-.316-.316H96.586a.316.316,0,0,0,0,.632h3.355A.317.317,0,0,0,100.257,173.332Zm-2.539-10.225a.367.367,0,1,0-.367.367A.368.368,0,0,0,97.718,163.107Zm1.1,0a.367.367,0,1,0-.367.367A.368.368,0,0,0,98.813,163.107Zm1.1,0a.367.367,0,1,0-.367.367A.368.368,0,0,0,99.909,163.107Zm1.1,0a.367.367,0,1,0-.367.367A.368.368,0,0,0,101,163.107Zm1.1,0a.367.367,0,1,0-.367.367A.368.368,0,0,0,102.1,163.107Zm1.1,0a.367.367,0,1,0-.367.367A.368.368,0,0,0,103.195,163.107Zm-5.477,2.924a.367.367,0,1,0-.367.367A.368.368,0,0,0,97.718,166.031Zm1.1,0a.367.367,0,1,0-.367.367A.368.368,0,0,0,98.813,166.031Zm1.1,0a.367.367,0,1,0-.367.367A.368.368,0,0,0,99.909,166.031Zm1.1,0a.367.367,0,1,0-.367.367A.368.368,0,0,0,101,166.031Zm1.1,0a.367.367,0,1,0-.367.367A.368.368,0,0,0,102.1,166.031Zm1.1,0a.367.367,0,1,0-.367.367A.368.368,0,0,0,103.195,166.031Zm-1.737,4.2a.367.367,0,1,0-.367.367A.368.368,0,0,0,101.458,170.229Zm1.1,0a.367.367,0,1,0-.367.367A.368.368,0,0,0,102.558,170.229Zm1.1,0a.367.367,0,1,0-.367.367A.368.368,0,0,0,103.653,170.229Zm1.1,0a.367.367,0,1,0-.367.367A.368.368,0,0,0,104.748,170.229Zm1.1,0a.367.367,0,1,0-.367.367A.368.368,0,0,0,105.844,170.229Zm1.1,0a.367.367,0,1,0-.367.367A.368.368,0,0,0,106.939,170.229Zm-5.481,3.011a.367.367,0,1,0-.367.367A.368.368,0,0,0,101.458,173.24Zm1.1,0a.367.367,0,1,0-.367.367A.368.368,0,0,0,102.558,173.24Zm1.1,0a.367.367,0,1,0-.367.367A.368.368,0,0,0,103.653,173.24Zm1.1,0a.367.367,0,1,0-.367.367A.368.368,0,0,0,104.748,173.24Zm1.1,0a.367.367,0,1,0-.367.367A.368.368,0,0,0,105.844,173.24Zm1.1,0a.367.367,0,1,0-.367.367A.368.368,0,0,0,106.939,173.24Zm.779-10.133a.317.317,0,0,0-.316-.316h-3.355a.316.316,0,1,0,0,.632H107.4A.317.317,0,0,0,107.718,163.107Zm0,1.462a.317.317,0,0,0-.316-.316h-3.355a.316.316,0,1,0,0,.632H107.4A.317.317,0,0,0,107.718,164.569Zm0,1.462a.317.317,0,0,0-.316-.316h-3.355a.316.316,0,0,0,0,.632H107.4A.317.317,0,0,0,107.718,166.031Zm0,1.457a.317.317,0,0,0-.316-.316h-3.355a.316.316,0,0,0,0,.632H107.4A.317.317,0,0,0,107.718,167.488Zm0,1.462a.317.317,0,0,0-.316-.316h-3.355a.316.316,0,1,0,0,.632H107.4A.317.317,0,0,0,107.718,168.95Zm4.019,1.462a.317.317,0,0,0-.316-.316h-3.355a.316.316,0,0,0,0,.632h3.355A.317.317,0,0,0,111.738,170.412Zm0,1.462a.317.317,0,0,0-.316-.316h-3.355a.316.316,0,1,0,0,.632h3.355A.317.317,0,0,0,111.738,171.874Zm0,1.457a.317.317,0,0,0-.316-.316h-3.355a.316.316,0,0,0,0,.632h3.355A.317.317,0,0,0,111.738,173.332Zm-2.544-10.225a.367.367,0,1,0-.367.367A.368.368,0,0,0,109.194,163.107Zm1.1,0a.367.367,0,1,0-.367.367A.368.368,0,0,0,110.294,163.107Zm1.1,0a.367.367,0,1,0-.367.367A.368.368,0,0,0,111.389,163.107Zm1.1,0a.367.367,0,1,0-.367.367A.368.368,0,0,0,112.485,163.107Zm1.1,0a.367.367,0,1,0-.367.367A.368.368,0,0,0,113.58,163.107Zm1.1,0a.367.367,0,1,0-.367.367A.368.368,0,0,0,114.675,163.107Zm-5.481,2.924a.367.367,0,1,0-.367.367A.368.368,0,0,0,109.194,166.031Zm1.1,0a.367.367,0,1,0-.367.367A.368.368,0,0,0,110.294,166.031Zm1.1,0a.367.367,0,1,0-.367.367A.368.368,0,0,0,111.389,166.031Zm1.1,0a.367.367,0,1,0-.367.367A.368.368,0,0,0,112.485,166.031Zm1.1,0a.367.367,0,1,0-.367.367A.368.368,0,0,0,113.58,166.031Zm1.1,0a.367.367,0,1,0-.367.367A.368.368,0,0,0,114.675,166.031Zm-1.737,4.2a.367.367,0,1,0-.367.367A.368.368,0,0,0,112.938,170.229Zm1.1,0a.367.367,0,1,0-.367.367A.368.368,0,0,0,114.034,170.229Zm1.1,0a.367.367,0,1,0-.367.367A.368.368,0,0,0,115.129,170.229Zm1.1,0a.367.367,0,1,0-.367.367A.368.368,0,0,0,116.224,170.229Zm1.1,0a.367.367,0,1,0-.367.367A.368.368,0,0,0,117.32,170.229Zm1.1,0a.367.367,0,1,0-.367.367A.368.368,0,0,0,118.415,170.229Zm-5.477,3.011a.367.367,0,1,0-.367.367A.368.368,0,0,0,112.938,173.24Zm1.1,0a.367.367,0,1,0-.367.367A.368.368,0,0,0,114.034,173.24Zm1.1,0a.367.367,0,1,0-.367.367A.368.368,0,0,0,115.129,173.24Zm1.1,0a.367.367,0,1,0-.367.367A.368.368,0,0,0,116.224,173.24Zm1.1,0a.367.367,0,1,0-.367.367A.368.368,0,0,0,117.32,173.24Zm1.1,0a.367.367,0,1,0-.367.367A.368.368,0,0,0,118.415,173.24Zm.784-10.133a.317.317,0,0,0-.316-.316h-3.355a.316.316,0,1,0,0,.632h3.355A.317.317,0,0,0,119.2,163.107Zm0,1.462a.317.317,0,0,0-.316-.316h-3.355a.316.316,0,1,0,0,.632h3.355A.317.317,0,0,0,119.2,164.569Zm0,1.462a.317.317,0,0,0-.316-.316h-3.355a.316.316,0,1,0,0,.632h3.355A.317.317,0,0,0,119.2,166.031Zm0,1.457a.317.317,0,0,0-.316-.316h-3.355a.316.316,0,0,0,0,.632h3.355A.317.317,0,0,0,119.2,167.488Zm0,1.462a.317.317,0,0,0-.316-.316h-3.355a.316.316,0,1,0,0,.632h3.355A.317.317,0,0,0,119.2,168.95Zm4.019,1.462a.317.317,0,0,0-.316-.316h-3.355a.316.316,0,0,0,0,.632H122.9A.317.317,0,0,0,123.218,170.412Zm0,1.462a.317.317,0,0,0-.316-.316h-3.355a.316.316,0,1,0,0,.632H122.9A.317.317,0,0,0,123.218,171.874Zm0,1.457a.317.317,0,0,0-.316-.316h-3.355a.316.316,0,0,0,0,.632H122.9A.317.317,0,0,0,123.218,173.332Zm-2.544-10.225a.367.367,0,1,0-.367.367A.368.368,0,0,0,120.675,163.107Zm1.1,0a.367.367,0,1,0-.367.367A.368.368,0,0,0,121.77,163.107Zm1.1,0a.367.367,0,1,0-.367.367A.368.368,0,0,0,122.865,163.107Zm1.1,0a.367.367,0,1,0-.367.367A.368.368,0,0,0,123.961,163.107Zm1.1,0a.367.367,0,1,0-.367.367A.368.368,0,0,0,125.056,163.107Zm1.1,0a.367.367,0,1,0-.367.367A.368.368,0,0,0,126.151,163.107Zm-5.477,2.924a.367.367,0,1,0-.367.367A.368.368,0,0,0,120.675,166.031Zm1.1,0a.367.367,0,1,0-.367.367A.368.368,0,0,0,121.77,166.031Zm1.1,0a.367.367,0,1,0-.367.367A.368.368,0,0,0,122.865,166.031Zm1.1,0a.367.367,0,1,0-.367.367A.368.368,0,0,0,123.961,166.031Zm1.1,0a.367.367,0,1,0-.367.367A.368.368,0,0,0,125.056,166.031Zm1.1,0a.367.367,0,1,0-.367.367A.368.368,0,0,0,126.151,166.031Zm-1.732,4.2a.367.367,0,1,0-.367.367A.368.368,0,0,0,124.419,170.229Zm1.1,0a.367.367,0,1,0-.367.367A.368.368,0,0,0,125.514,170.229Zm1.1,0a.367.367,0,1,0-.367.367A.368.368,0,0,0,126.61,170.229Zm1.1,0a.367.367,0,1,0-.367.367A.368.368,0,0,0,127.705,170.229Zm1.1,0a.367.367,0,1,0-.367.367A.368.368,0,0,0,128.8,170.229Zm1.1,0a.367.367,0,1,0-.367.367A.368.368,0,0,0,129.9,170.229Zm-5.477,3.011a.367.367,0,1,0-.367.367A.368.368,0,0,0,124.419,173.24Zm1.1,0a.367.367,0,1,0-.367.367A.368.368,0,0,0,125.514,173.24Zm1.1,0a.367.367,0,1,0-.367.367A.368.368,0,0,0,126.61,173.24Zm1.1,0a.367.367,0,1,0-.367.367A.368.368,0,0,0,127.705,173.24Zm1.1,0a.367.367,0,1,0-.367.367A.368.368,0,0,0,128.8,173.24Zm1.1,0a.367.367,0,1,0-.367.367A.368.368,0,0,0,129.9,173.24Z" transform="translate(-59.646 -118.857)" fill="#1682fb"/>
              <path id="Trazado_820271" data-name="Trazado 820271" d="M39.465,150.543H38.186a.316.316,0,0,1,0-.632h1.279a.316.316,0,0,1,0,.632Zm.316,1.146a.317.317,0,0,0-.316-.316H38.186a.316.316,0,0,0,0,.632h1.279A.317.317,0,0,0,39.781,151.689Zm0,1.462a.317.317,0,0,0-.316-.316H38.186a.316.316,0,0,0,0,.632h1.279A.317.317,0,0,0,39.781,153.151Zm0,1.457a.317.317,0,0,0-.316-.316H38.186a.316.316,0,1,0,0,.632h1.279A.317.317,0,0,0,39.781,154.608Zm0,1.462a.317.317,0,0,0-.316-.316H38.186a.316.316,0,0,0,0,.632h1.279A.317.317,0,0,0,39.781,156.07Zm0,1.462a.317.317,0,0,0-.316-.316H38.186a.316.316,0,1,0,0,.632h1.279A.317.317,0,0,0,39.781,157.532Zm0,1.462a.317.317,0,0,0-.316-.316H38.186a.316.316,0,0,0,0,.632h1.279A.317.317,0,0,0,39.781,158.994Zm0,1.457a.317.317,0,0,0-.316-.316H38.186a.316.316,0,0,0,0,.632h1.279A.317.317,0,0,0,39.781,160.452Zm4.785-10.225a.317.317,0,0,0-.316-.316H40.895a.316.316,0,0,0,0,.632H44.25A.317.317,0,0,0,44.566,150.227Zm0,1.462a.317.317,0,0,0-.316-.316H40.895a.316.316,0,0,0,0,.632H44.25A.317.317,0,0,0,44.566,151.689Zm0,1.462a.317.317,0,0,0-.316-.316H40.895a.316.316,0,0,0,0,.632H44.25A.317.317,0,0,0,44.566,153.151Zm0,1.457a.317.317,0,0,0-.316-.316H40.895a.316.316,0,1,0,0,.632H44.25A.317.317,0,0,0,44.566,154.608Zm0,1.462a.317.317,0,0,0-.316-.316H40.895a.316.316,0,0,0,0,.632H44.25A.317.317,0,0,0,44.566,156.07Zm4.015,1.462a.317.317,0,0,0-.316-.316H44.91a.316.316,0,1,0,0,.632h3.355A.317.317,0,0,0,48.581,157.532Zm0,1.462a.317.317,0,0,0-.316-.316H44.91a.316.316,0,0,0,0,.632h3.355A.317.317,0,0,0,48.581,158.994Zm0,1.457a.317.317,0,0,0-.316-.316H44.91a.316.316,0,0,0,0,.632h3.355A.317.317,0,0,0,48.581,160.452Zm-2.539-10.225a.367.367,0,1,0-.367.367A.368.368,0,0,0,46.042,150.227Zm1.1,0a.367.367,0,1,0-.367.367A.368.368,0,0,0,47.137,150.227Zm1.1,0a.367.367,0,1,0-.367.367A.368.368,0,0,0,48.232,150.227Zm1.1,0a.367.367,0,1,0-.367.367A.368.368,0,0,0,49.328,150.227Zm1.1,0a.367.367,0,1,0-.367.367A.368.368,0,0,0,50.423,150.227Zm1.1,0a.367.367,0,1,0-.367.367A.368.368,0,0,0,51.519,150.227Zm-5.477,2.924a.367.367,0,1,0-.367.367A.368.368,0,0,0,46.042,153.151Zm1.1,0a.367.367,0,1,0-.367.367A.368.368,0,0,0,47.137,153.151Zm1.1,0a.367.367,0,1,0-.367.367A.368.368,0,0,0,48.232,153.151Zm1.1,0a.367.367,0,1,0-.367.367A.368.368,0,0,0,49.328,153.151Zm1.1,0a.367.367,0,1,0-.367.367A.368.368,0,0,0,50.423,153.151Zm1.1,0a.367.367,0,1,0-.367.367A.368.368,0,0,0,51.519,153.151Zm-1.732,4.2a.367.367,0,1,0-.367.367A.368.368,0,0,0,49.786,157.349Zm1.1,0a.367.367,0,1,0-.367.367A.368.368,0,0,0,50.881,157.349Zm1.1,0a.367.367,0,1,0-.367.367A.368.368,0,0,0,51.977,157.349Zm1.1,0a.367.367,0,1,0-.367.367A.368.368,0,0,0,53.072,157.349Zm1.1,0a.367.367,0,1,0-.367.367A.368.368,0,0,0,54.168,157.349Zm1.1,0a.367.367,0,1,0-.367.367A.368.368,0,0,0,55.263,157.349Zm-5.477,3.011a.367.367,0,1,0-.367.367A.368.368,0,0,0,49.786,160.36Zm1.1,0a.367.367,0,1,0-.367.367A.368.368,0,0,0,50.881,160.36Zm1.1,0a.367.367,0,1,0-.367.367A.368.368,0,0,0,51.977,160.36Zm1.1,0a.367.367,0,1,0-.367.367A.368.368,0,0,0,53.072,160.36Zm1.1,0a.367.367,0,1,0-.367.367A.368.368,0,0,0,54.168,160.36Zm1.1,0a.367.367,0,1,0-.367.367A.368.368,0,0,0,55.263,160.36Z" transform="translate(-37.87 -111.88)" fill="#1682fb"/>
              <path id="Trazado_820272" data-name="Trazado 820272" d="M79.665,166.133H78.386a.316.316,0,0,1,0-.632h1.279a.316.316,0,0,1,0,.632Zm.316,1.146a.317.317,0,0,0-.316-.316H78.386a.316.316,0,1,0,0,.632h1.279A.317.317,0,0,0,79.981,167.279Zm0,1.457a.317.317,0,0,0-.316-.316H78.386a.316.316,0,1,0,0,.632h1.279A.317.317,0,0,0,79.981,168.736Zm0,1.462a.317.317,0,0,0-.316-.316H78.386a.316.316,0,0,0,0,.632h1.279A.317.317,0,0,0,79.981,170.2Zm0,1.462a.317.317,0,0,0-.316-.316H78.386a.316.316,0,0,0,0,.632h1.279A.317.317,0,0,0,79.981,171.66Zm0,1.462a.317.317,0,0,0-.316-.316H78.386a.316.316,0,1,0,0,.632h1.279A.317.317,0,0,0,79.981,173.122Zm0,1.457a.317.317,0,0,0-.316-.316H78.386a.316.316,0,0,0,0,.632h1.279A.317.317,0,0,0,79.981,174.58Zm0,1.462a.317.317,0,0,0-.316-.316H78.386a.316.316,0,1,0,0,.632h1.279A.317.317,0,0,0,79.981,176.042Zm4.78-10.225a.317.317,0,0,0-.316-.316H81.09a.316.316,0,0,0,0,.632h3.355A.317.317,0,0,0,84.761,165.817Zm0,1.462a.317.317,0,0,0-.316-.316H81.09a.316.316,0,1,0,0,.632h3.355A.317.317,0,0,0,84.761,167.279Zm0,1.457a.317.317,0,0,0-.316-.316H81.09a.316.316,0,1,0,0,.632h3.355A.317.317,0,0,0,84.761,168.736Zm0,1.462a.317.317,0,0,0-.316-.316H81.09a.316.316,0,0,0,0,.632h3.355A.317.317,0,0,0,84.761,170.2Zm0,1.462a.317.317,0,0,0-.316-.316H81.09a.316.316,0,0,0,0,.632h3.355A.317.317,0,0,0,84.761,171.66Zm4.015,1.462a.317.317,0,0,0-.316-.316H85.105a.316.316,0,1,0,0,.632H88.46A.317.317,0,0,0,88.776,173.122Zm0,1.457a.317.317,0,0,0-.316-.316H85.105a.316.316,0,1,0,0,.632H88.46A.317.317,0,0,0,88.776,174.58Zm0,1.462a.317.317,0,0,0-.316-.316H85.105a.316.316,0,0,0,0,.632H88.46A.317.317,0,0,0,88.776,176.042Zm-2.539-10.225a.367.367,0,1,0-.367.367A.368.368,0,0,0,86.237,165.817Zm1.1,0a.367.367,0,1,0-.367.367A.368.368,0,0,0,87.332,165.817Zm1.1,0a.367.367,0,1,0-.367.367A.368.368,0,0,0,88.428,165.817Zm1.1,0a.367.367,0,1,0-.367.367A.368.368,0,0,0,89.523,165.817Zm1.1,0a.367.367,0,1,0-.367.367A.368.368,0,0,0,90.619,165.817Zm1.1,0a.367.367,0,1,0-.367.367A.368.368,0,0,0,91.714,165.817Zm-5.477,2.919a.367.367,0,1,0-.367.367A.368.368,0,0,0,86.237,168.736Zm1.1,0a.367.367,0,1,0-.367.367A.368.368,0,0,0,87.332,168.736Zm1.1,0a.367.367,0,1,0-.367.367A.368.368,0,0,0,88.428,168.736Zm1.1,0a.367.367,0,1,0-.367.367A.368.368,0,0,0,89.523,168.736Zm1.1,0a.367.367,0,1,0-.367.367A.368.368,0,0,0,90.619,168.736Zm1.1,0a.367.367,0,1,0-.367.367A.368.368,0,0,0,91.714,168.736Zm-1.732,4.2a.367.367,0,1,0-.367.367A.368.368,0,0,0,89.981,172.939Zm1.1,0a.367.367,0,1,0-.367.367A.368.368,0,0,0,91.077,172.939Zm1.1,0a.367.367,0,1,0-.367.367A.368.368,0,0,0,92.172,172.939Zm1.1,0a.367.367,0,1,0-.367.367A.368.368,0,0,0,93.268,172.939Zm1.1,0a.367.367,0,1,0-.367.367A.368.368,0,0,0,94.363,172.939Zm1.1,0a.367.367,0,1,0-.367.367A.368.368,0,0,0,95.458,172.939Zm-5.477,3.011a.367.367,0,1,0-.367.367A.368.368,0,0,0,89.981,175.95Zm1.1,0a.367.367,0,1,0-.367.367A.368.368,0,0,0,91.077,175.95Zm1.1,0a.367.367,0,1,0-.367.367A.368.368,0,0,0,92.172,175.95Zm1.1,0a.367.367,0,1,0-.367.367A.368.368,0,0,0,93.268,175.95Zm1.1,0a.367.367,0,1,0-.367.367A.368.368,0,0,0,94.363,175.95Zm1.1,0a.367.367,0,1,0-.367.367A.368.368,0,0,0,95.458,175.95Z" transform="translate(-59.646 -120.325)" fill="#1682fb"/>
              <path id="Trazado_820273" data-name="Trazado 820273" d="M82.285,67.673H81.006a.316.316,0,1,1,0-.632h1.279a.316.316,0,1,1,0,.632Zm.316,1.141a.317.317,0,0,0-.316-.316H81.006a.316.316,0,1,0,0,.632h1.279A.317.317,0,0,0,82.6,68.814Zm0,1.462a.317.317,0,0,0-.316-.316H81.006a.316.316,0,1,0,0,.632h1.279A.317.317,0,0,0,82.6,70.276Zm0,1.462a.317.317,0,0,0-.316-.316H81.006a.316.316,0,0,0,0,.632h1.279A.317.317,0,0,0,82.6,71.738Zm0,1.462a.317.317,0,0,0-.316-.316H81.006a.316.316,0,1,0,0,.632h1.279A.317.317,0,0,0,82.6,73.2Zm0,1.457a.317.317,0,0,0-.316-.316H81.006a.316.316,0,0,0,0,.632h1.279A.317.317,0,0,0,82.6,74.658Zm0,1.462a.317.317,0,0,0-.316-.316H81.006a.316.316,0,0,0,0,.632h1.279A.317.317,0,0,0,82.6,76.12Zm0,1.462a.317.317,0,0,0-.316-.316H81.006a.316.316,0,1,0,0,.632h1.279A.317.317,0,0,0,82.6,77.582Zm4.78-10.225a.317.317,0,0,0-.316-.316H83.71a.316.316,0,0,0,0,.632h3.355A.317.317,0,0,0,87.381,67.357Zm0,1.457a.317.317,0,0,0-.316-.316H83.71a.316.316,0,0,0,0,.632h3.355A.317.317,0,0,0,87.381,68.814Zm0,1.462a.317.317,0,0,0-.316-.316H83.71a.316.316,0,0,0,0,.632h3.355A.317.317,0,0,0,87.381,70.276Zm0,1.462a.317.317,0,0,0-.316-.316H83.71a.316.316,0,0,0,0,.632h3.355A.317.317,0,0,0,87.381,71.738Zm0,1.462a.317.317,0,0,0-.316-.316H83.71a.316.316,0,0,0,0,.632h3.355A.317.317,0,0,0,87.381,73.2ZM91.4,74.658a.317.317,0,0,0-.316-.316H87.73a.316.316,0,0,0,0,.632h3.355A.317.317,0,0,0,91.4,74.658Zm0,1.462a.317.317,0,0,0-.316-.316H87.73a.316.316,0,0,0,0,.632h3.355A.317.317,0,0,0,91.4,76.12Zm0,1.462a.317.317,0,0,0-.316-.316H87.73a.316.316,0,1,0,0,.632h3.355A.317.317,0,0,0,91.4,77.582ZM88.862,67.357a.367.367,0,1,0-.367.367A.368.368,0,0,0,88.862,67.357Zm1.1,0a.367.367,0,1,0-.367.367A.368.368,0,0,0,89.957,67.357Zm1.1,0a.367.367,0,1,0-.367.367A.368.368,0,0,0,91.052,67.357Zm1.1,0a.367.367,0,1,0-.367.367A.368.368,0,0,0,92.148,67.357Zm1.1,0a.367.367,0,1,0-.367.367A.368.368,0,0,0,93.243,67.357Zm1.1,0a.367.367,0,1,0-.367.367A.368.368,0,0,0,94.339,67.357Zm-5.477,2.919a.367.367,0,1,0-.367.367A.368.368,0,0,0,88.862,70.276Zm1.1,0a.367.367,0,1,0-.367.367A.368.368,0,0,0,89.957,70.276Zm1.1,0a.367.367,0,1,0-.367.367A.368.368,0,0,0,91.052,70.276Zm1.1,0a.367.367,0,1,0-.367.367A.368.368,0,0,0,92.148,70.276Zm1.1,0a.367.367,0,1,0-.367.367A.368.368,0,0,0,93.243,70.276Zm1.1,0a.367.367,0,1,0-.367.367A.368.368,0,0,0,94.339,70.276Zm-1.737,4.2a.367.367,0,1,0-.367.367A.368.368,0,0,0,92.6,74.479Zm1.1,0a.367.367,0,1,0-.367.367A.368.368,0,0,0,93.7,74.479Zm1.1,0a.367.367,0,1,0-.367.367A.368.368,0,0,0,94.792,74.479Zm1.1,0a.367.367,0,1,0-.367.367A.368.368,0,0,0,95.888,74.479Zm1.1,0a.367.367,0,1,0-.367.367A.368.368,0,0,0,96.983,74.479Zm1.1,0a.367.367,0,1,0-.367.367A.368.368,0,0,0,98.078,74.479ZM92.6,77.49a.367.367,0,1,0-.367.367A.368.368,0,0,0,92.6,77.49Zm1.1,0a.367.367,0,1,0-.367.367A.368.368,0,0,0,93.7,77.49Zm1.1,0a.367.367,0,1,0-.367.367A.368.368,0,0,0,94.792,77.49Zm1.1,0a.367.367,0,1,0-.367.367A.368.368,0,0,0,95.888,77.49Zm1.1,0a.367.367,0,1,0-.367.367A.368.368,0,0,0,96.983,77.49Zm1.1,0a.367.367,0,1,0-.367.367A.368.368,0,0,0,98.078,77.49Z" transform="translate(-61.065 -66.99)" fill="#1682fb"/>
              <path id="Trazado_820274" data-name="Trazado 820274" d="M82.285,93.793H81.006a.316.316,0,0,1,0-.632h1.279a.316.316,0,0,1,0,.632Zm.316,1.146a.317.317,0,0,0-.316-.316H81.006a.316.316,0,1,0,0,.632h1.279A.317.317,0,0,0,82.6,94.939Zm0,1.457a.317.317,0,0,0-.316-.316H81.006a.316.316,0,0,0,0,.632h1.279A.317.317,0,0,0,82.6,96.4Zm0,1.462a.317.317,0,0,0-.316-.316H81.006a.316.316,0,0,0,0,.632h1.279A.317.317,0,0,0,82.6,97.858Zm0,1.462A.317.317,0,0,0,82.285,99H81.006a.316.316,0,1,0,0,.632h1.279A.317.317,0,0,0,82.6,99.32Zm0,1.457a.317.317,0,0,0-.316-.316H81.006a.316.316,0,1,0,0,.632h1.279A.317.317,0,0,0,82.6,100.778Zm0,1.462a.317.317,0,0,0-.316-.316H81.006a.316.316,0,1,0,0,.632h1.279A.317.317,0,0,0,82.6,102.24Zm0,1.462a.317.317,0,0,0-.316-.316H81.006a.316.316,0,1,0,0,.632h1.279A.317.317,0,0,0,82.6,103.7Zm4.78-10.225a.317.317,0,0,0-.316-.316H83.71a.316.316,0,0,0,0,.632h3.355A.317.317,0,0,0,87.381,93.477Zm0,1.462a.317.317,0,0,0-.316-.316H83.71a.316.316,0,0,0,0,.632h3.355A.317.317,0,0,0,87.381,94.939Zm0,1.457a.317.317,0,0,0-.316-.316H83.71a.316.316,0,0,0,0,.632h3.355A.317.317,0,0,0,87.381,96.4Zm0,1.462a.317.317,0,0,0-.316-.316H83.71a.316.316,0,0,0,0,.632h3.355A.317.317,0,0,0,87.381,97.858Zm0,1.462A.317.317,0,0,0,87.065,99H83.71a.316.316,0,0,0,0,.632h3.355A.317.317,0,0,0,87.381,99.32Zm4.019,1.457a.317.317,0,0,0-.316-.316H87.73a.316.316,0,1,0,0,.632h3.355A.317.317,0,0,0,91.4,100.778Zm0,1.462a.317.317,0,0,0-.316-.316H87.73a.316.316,0,1,0,0,.632h3.355A.317.317,0,0,0,91.4,102.24Zm0,1.462a.317.317,0,0,0-.316-.316H87.73a.316.316,0,1,0,0,.632h3.355A.317.317,0,0,0,91.4,103.7ZM88.862,93.477a.367.367,0,1,0-.367.367A.368.368,0,0,0,88.862,93.477Zm1.1,0a.367.367,0,1,0-.367.367A.368.368,0,0,0,89.957,93.477Zm1.1,0a.367.367,0,1,0-.367.367A.368.368,0,0,0,91.052,93.477Zm1.1,0a.367.367,0,1,0-.367.367A.368.368,0,0,0,92.148,93.477Zm1.1,0a.367.367,0,1,0-.367.367A.368.368,0,0,0,93.243,93.477Zm1.1,0a.367.367,0,1,0-.367.367A.368.368,0,0,0,94.339,93.477ZM88.862,96.4a.367.367,0,1,0-.367.367A.368.368,0,0,0,88.862,96.4Zm1.1,0a.367.367,0,1,0-.367.367A.368.368,0,0,0,89.957,96.4Zm1.1,0a.367.367,0,1,0-.367.367A.368.368,0,0,0,91.052,96.4Zm1.1,0a.367.367,0,1,0-.367.367A.368.368,0,0,0,92.148,96.4Zm1.1,0a.367.367,0,1,0-.367.367A.368.368,0,0,0,93.243,96.4Zm1.1,0a.367.367,0,1,0-.367.367A.368.368,0,0,0,94.339,96.4ZM92.6,100.6a.367.367,0,1,0-.367.367A.368.368,0,0,0,92.6,100.6Zm1.1,0a.367.367,0,1,0-.367.367A.368.368,0,0,0,93.7,100.6Zm1.1,0a.367.367,0,1,0-.367.367A.368.368,0,0,0,94.792,100.6Zm1.1,0a.367.367,0,1,0-.367.367A.368.368,0,0,0,95.888,100.6Zm1.1,0a.367.367,0,1,0-.367.367A.368.368,0,0,0,96.983,100.6Zm1.1,0a.367.367,0,1,0-.367.367A.368.368,0,0,0,98.078,100.6ZM92.6,103.61a.367.367,0,1,0-.367.367A.368.368,0,0,0,92.6,103.61Zm1.1,0a.367.367,0,1,0-.367.367A.368.368,0,0,0,93.7,103.61Zm1.1,0a.367.367,0,1,0-.367.367A.368.368,0,0,0,94.792,103.61Zm1.1,0a.367.367,0,1,0-.367.367A.368.368,0,0,0,95.888,103.61Zm1.1,0a.367.367,0,1,0-.367.367A.368.368,0,0,0,96.983,103.61Zm1.1,0a.367.367,0,1,0-.367.367A.368.368,0,0,0,98.078,103.61Z" transform="translate(-61.065 -81.139)" fill="#1682fb"/>
            </g>
          </g>
        </g>
      </g>
      <g id="Grupo_1073232" data-name="Grupo 1073232" transform="translate(376.709 5943.843)">
        <path id="Trazado_820377" data-name="Trazado 820377" d="M257.421,253.026a.117.117,0,0,1-.007.016,11.966,11.966,0,0,1-7.5,6.381c-.081.023-.161.046-.243.067-.045.012-.09.025-.136.035a12,12,0,1,1,7.893-6.5Z" transform="translate(-234.567 -229.925)" fill="#ffce00"/>
        <path id="Trazado_820378" data-name="Trazado 820378" d="M302.789,207.394a.36.36,0,0,1-.347-.26L299.106,195.6a.363.363,0,0,1,.247-.448,12.364,12.364,0,0,1,15.314,8.441.363.363,0,0,1-.247.448l-11.529,3.336a.34.34,0,0,1-.1.014ZM299.9,195.755l3.133,10.829,10.829-3.133a11.638,11.638,0,0,0-13.962-7.7Z" transform="translate(-289.758 -194.669)" fill="#b89603"/>
        <path id="Trazado_820379" data-name="Trazado 820379" d="M328.448,304,317.6,298.868l11.509-3.408a11.969,11.969,0,0,1-.66,8.542Z" transform="translate(-305.588 -280.88)" fill="#b89603"/>
        <path id="Trazado_820383" data-name="Trazado 820383" d="M328.442,324.132a.117.117,0,0,1-.007.016,11.965,11.965,0,0,1-7.5,6.381c-.081.023-.161.046-.243.067L317.6,319.02l10.844,5.112Z" transform="translate(-305.588 -301.031)" fill="#feeeac"/>
      </g>
      <g id="Grupo_1073195" data-name="Grupo 1073195" transform="translate(301.68 5953.098)">
        <g id="Grupo_1073194" data-name="Grupo 1073194">
          <path id="Trazado_820275" data-name="Trazado 820275" d="M65.337,218.92a2.328,2.328,0,0,1-.834-3.185l6.251-10.688a2.328,2.328,0,1,1,4.019,2.351l-6.251,10.688A2.328,2.328,0,0,1,65.337,218.92Z" transform="translate(-48.109 -169.145)" fill="#5e5e5e" stroke="#263238" stroke-linecap="round" stroke-linejoin="round" stroke-width="1"/>
          <path id="Trazado_820276" data-name="Trazado 820276" d="M91.334,130.8a19.9,19.9,0,1,0,7.131,27.224A19.9,19.9,0,0,0,91.334,130.8ZM72.992,162.167a16.439,16.439,0,1,1,22.489-5.889A16.438,16.438,0,0,1,72.992,162.167Z" transform="translate(-46.594 -128.076)" fill="#fff" stroke="#263238" stroke-linecap="round" stroke-linejoin="round" stroke-width="1"/>
          <path id="Trazado_820277" data-name="Trazado 820277" d="M31.416,254.318a4.654,4.654,0,0,1-1.668-6.366l13.745-23.507a4.653,4.653,0,1,1,8.034,4.7L37.781,252.65A4.654,4.654,0,0,1,31.416,254.318Z" transform="translate(-29.11 -179.03)" fill="#263238"/>
        </g>
        <path id="Trazado_820278" data-name="Trazado 820278" d="M99.075,147.784A3.494,3.494,0,1,1,97.824,143,3.495,3.495,0,0,1,99.075,147.784Z" transform="translate(-63.483 -135.903)" fill="#fff" stroke="#263238" stroke-linecap="round" stroke-linejoin="round" stroke-width="1"/>
      </g>
    </g>
    <g id="Plants" transform="translate(374.064 6074.796)">
      <g id="Grupo_1073188" data-name="Grupo 1073188">
        <path id="Trazado_820262" data-name="Trazado 820262" d="M117.489,358.056c.041.021.694-3.159.714-3.365.206-2.376-.79-7.095-3.255-8.139a3.166,3.166,0,0,0-4.2,2.122c-.556,1.806.378,3.935,1.422,5.385C113.4,355.755,117.489,358.049,117.489,358.056Z" transform="translate(-65.721 -337.408)" fill="#1682fb"/>
        <path id="Trazado_820263" data-name="Trazado 820263" d="M110.656,336.289c-2.672-.151-5.639,3.647-6.5,5.879-.076.192-.886,3.338-.838,3.338h.055c-.474.6-.975,1.243-1.5,1.957-.975,1.332-2.06,2.837-3.132,4.567a55.837,55.837,0,0,0-3.2,5.728,41.216,41.216,0,0,0-2.63,6.847l-.021.082c-.027-.783-.172-2.967-.206-3.139-.426-2.349-2.637-6.635-5.288-6.992a3.17,3.17,0,0,0-3.5,3.159c-.055,1.889,1.4,3.7,2.788,4.815,1.566,1.264,5.79,2.342,6.126,2.431a55.722,55.722,0,0,0-1.387,7.342q-.268,2.163-.44,4.361c-.041-.673-.089-1.277-.1-1.367-.426-2.349-2.637-6.635-5.288-6.992a3.17,3.17,0,0,0-3.5,3.159c-.055,1.889,1.4,3.7,2.788,4.814,1.408,1.133,4.993,2.129,5.948,2.383-.041.563-.089,1.12-.124,1.683-.185,2.7-.357,5.391-.6,8.022-.089.927-.206,1.841-.323,2.754-.041-.6-.082-1.106-.1-1.181-.426-2.349-2.637-6.635-5.288-6.992a3.17,3.17,0,0,0-3.5,3.159c-.055,1.889,1.4,3.7,2.788,4.815,1.346,1.085,4.643,2.033,5.776,2.335-.151.927-.3,1.861-.481,2.761-.137.611-.234,1.2-.405,1.806s-.316,1.2-.474,1.786c-.343,1.126-.694,2.287-1.058,3.372-.247.755-.494,1.477-.749,2.2.1-.92.247-2.734.247-2.885a12.282,12.282,0,0,0-1.951-5.886,2.948,2.948,0,0,0-.082-.694,3.169,3.169,0,0,0-4-2.486c-2.548.817-3.949,5.433-3.949,7.823,0,.144.172,1.669.3,2.63-.158-.556-.309-1.092-.474-1.662-.33-1.126-.694-2.246-1.078-3.448-.206-.577-.412-1.154-.625-1.738s-.481-1.181-.714-1.772c-.584-1.367-1.236-2.727-1.93-4.087.989-.288,4.478-1.374,5.838-2.534s2.768-3.008,2.658-4.89a3.167,3.167,0,0,0-3.578-3.063c-2.637.426-4.725,4.773-5.089,7.129-.021.144-.089,1.868-.11,2.816-.419-.81-.838-1.621-1.291-2.431-1.312-2.328-2.706-4.643-4.093-6.964-.426-.707-.838-1.422-1.257-2.136.35-.1,4.526-1.3,6.058-2.6,1.36-1.154,2.768-3.008,2.658-4.89a3.167,3.167,0,0,0-3.578-3.063c-2.637.426-4.725,4.773-5.089,7.129-.027.179-.124,2.658-.117,3.29-.92-1.566-1.82-3.139-2.644-4.718a55.883,55.883,0,0,1-2.953-6.6c.165-.048,4.526-1.277,6.092-2.61,1.36-1.154,2.768-3.008,2.658-4.89a3.167,3.167,0,0,0-3.578-3.063c-2.637.426-4.725,4.773-5.089,7.129-.027.185-.13,2.85-.117,3.338-.048-.13-.11-.261-.158-.391a40.676,40.676,0,0,1-1.717-7.04c-.22-1.319-.35-2.589-.453-3.832.838-.144,4.65-.852,6.188-1.9,1.477-1,3.077-2.685,3.18-4.567a3.162,3.162,0,0,0-3.221-3.434c-2.672.13-5.227,4.224-5.845,6.532-.034.124-.234,1.435-.371,2.4-.034-.563-.089-1.14-.11-1.676-.1-2.019-.069-3.874-.021-5.522.034-.934.082-1.779.13-2.569.749-.57,3.722-2.912,4.595-4.519.852-1.566,1.5-3.8.714-5.522a3.17,3.17,0,0,0-4.444-1.566c-2.308,1.346-2.692,6.154-2.177,8.489.041.2,1.1,3.276,1.14,3.242a.465.465,0,0,1,.048-.034c-.069.755-.13,1.573-.179,2.466-.076,1.648-.151,3.5-.1,5.536a55.2,55.2,0,0,0,.495,6.538,41.049,41.049,0,0,0,1.58,7.163.421.421,0,0,0,.034.082c-.453-.639-1.786-2.383-1.9-2.507-1.655-1.724-5.858-4.08-8.262-2.912a3.162,3.162,0,0,0-1.168,4.56c1,1.607,3.207,2.308,4.986,2.479,2.005.185,6.126-1.236,6.449-1.353a55.436,55.436,0,0,0,2.9,6.889c.646,1.3,1.332,2.6,2.04,3.88-.412-.543-.783-1.016-.838-1.078-1.655-1.724-5.858-4.08-8.262-2.912a3.162,3.162,0,0,0-1.168,4.56c1,1.607,3.207,2.314,4.986,2.479,1.8.172,5.336-.975,6.271-1.291.275.488.549.982.824,1.477,1.332,2.349,2.679,4.691,3.922,7.026.44.824.845,1.648,1.25,2.472-.364-.481-.673-.879-.728-.934-1.655-1.724-5.858-4.08-8.262-2.912a3.162,3.162,0,0,0-1.168,4.56c1,1.607,3.207,2.315,4.986,2.479,1.717.158,4.993-.865,6.106-1.236.391.859.783,1.717,1.12,2.562.22.584.467,1.133.659,1.731s.391,1.174.584,1.751c.33,1.126.68,2.287.975,3.393.213.769.4,1.5.591,2.246-.426-.824-1.3-2.418-1.387-2.541-1.374-1.957-5.172-4.924-7.727-4.128a3.166,3.166,0,0,0-1.848,4.334c.735,1.738,2.823,2.768,4.554,3.207,1.9.474,6.03-.261,6.545-.357.316,1.229.6,2.424.865,3.558.343,1.49.639,2.885.9,4.169.495.137,1.113.3,1.827.481-.33-1.518-.721-3.2-1.181-5.021-.309-1.25-.673-2.576-1.051-3.935a34.686,34.686,0,0,0,3.565-1.9c1.442,1.408,5.034,2.96,5.5,3.159-.419,1.2-.831,2.356-1.243,3.441-.707,1.882-1.387,3.585-2.005,5.089.543.117,1.113.234,1.69.35q.855-2.194,1.806-4.9c.426-1.216.859-2.521,1.291-3.86.508.082,4.663.707,6.552.172,1.717-.481,3.771-1.573,4.464-3.331a3.164,3.164,0,0,0-1.971-4.279c-2.576-.721-6.291,2.349-7.61,4.341-.076.117-.776,1.484-1.209,2.356.172-.549.35-1.085.522-1.648.35-1.119.659-2.253,1-3.468.144-.591.288-1.188.44-1.793s.254-1.243.378-1.875c.268-1.463.474-2.96.646-4.471.982.3,4.492,1.326,6.271,1.106s3.963-.982,4.911-2.617a3.161,3.161,0,0,0-1.3-4.526c-2.438-1.106-6.573,1.374-8.18,3.139-.1.11-1.106,1.511-1.648,2.287.1-.907.192-1.82.261-2.74.192-2.665.3-5.371.433-8.063.034-.824.082-1.648.13-2.472.35.11,4.492,1.415,6.483,1.174,1.772-.213,3.963-.982,4.911-2.617a3.161,3.161,0,0,0-1.3-4.526c-2.438-1.106-6.573,1.374-8.18,3.139-.124.13-1.566,2.15-1.909,2.679.1-1.813.213-3.62.4-5.4a55.927,55.927,0,0,1,1.181-7.129c.165.055,4.478,1.435,6.518,1.188,1.772-.213,3.963-.982,4.911-2.617a3.161,3.161,0,0,0-1.3-4.526c-2.438-1.106-6.573,1.374-8.18,3.139-.124.137-1.683,2.308-1.937,2.72.034-.137.048-.282.082-.419a41.341,41.341,0,0,1,2.452-6.82c.549-1.223,1.14-2.356,1.738-3.448.776.337,4.347,1.854,6.209,1.834,1.786-.021,4.052-.543,5.172-2.06a3.165,3.165,0,0,0-.79-4.643c-2.3-1.367-6.689.639-8.475,2.225-.1.082-.989,1.071-1.628,1.793.282-.488.556-1,.831-1.463,1.03-1.738,2.081-3.269,3.022-4.615.543-.762,1.044-1.442,1.525-2.067.934-.062,4.712-.371,6.326-1.236,1.573-.838,3.345-2.349,3.64-4.21a3.168,3.168,0,0,0-2.843-3.757Z" transform="translate(-45.77 -333.347)" fill="#1682fb"/>
        <path id="Trazado_820264" data-name="Trazado 820264" d="M49.561,361.86c1.957.742,6.641.391,6.648.391.048,0-1.168-3.015-1.264-3.2-1.14-2.1-4.574-5.488-7.2-4.993a3.166,3.166,0,0,0-2.335,4.093C45.941,359.964,47.892,361.228,49.561,361.86Z" transform="translate(-45.265 -339.818)" fill="#1682fb"/>
      </g>
    </g>
  </g>
</svg>
