<svg xmlns="http://www.w3.org/2000/svg" width="73" height="77" viewBox="0 0 73 77">
  <g id="Grupo_1073452" data-name="Grupo 1073452" transform="translate(-200 -6469)">
    <rect id="Rectángulo_382523" data-name="Rectángulo 382523" width="73" height="77" rx="8" transform="translate(200 6469)" fill="#0b47db"/>
    <g id="tabla-de-base-de-datos" transform="translate(211 6482)">
      <g id="Grupo_1073250" data-name="Grupo 1073250" transform="translate(0.759 0.759)">
        <path id="Trazado_820398" data-name="Trazado 820398" d="M35.547,122.021H8.513A1.013,1.013,0,0,1,7.5,121.008v-32A1.013,1.013,0,0,1,8.513,88H35.547a1.013,1.013,0,0,1,1.013,1.013v32A1.013,1.013,0,0,1,35.547,122.021Z" transform="translate(-7.5 -79.849)" fill="#ecf9f9"/>
        <path id="Trazado_820399" data-name="Trazado 820399" d="M257.538,88H254.5a1.013,1.013,0,0,1,1.013,1.013v32a1.013,1.013,0,0,1-1.013,1.013h3.038a1.013,1.013,0,0,0,1.013-1.013v-32A1.013,1.013,0,0,0,257.538,88Z" transform="translate(-229.491 -79.849)" fill="#daf1f4"/>
        <path id="Trazado_820400" data-name="Trazado 820400" d="M37.5,124.6v-6.2a.405.405,0,0,1,.405-.405H60.079a.405.405,0,0,1,.405.405v6.2a.405.405,0,0,1-.405.4H37.905A.405.405,0,0,1,37.5,124.6Z" transform="translate(-34.462 -106.812)" fill="#9d66d5"/>
        <path id="Trazado_820401" data-name="Trazado 820401" d="M233.538,118H230.5a.405.405,0,0,1,.405.405v6.2a.405.405,0,0,1-.405.4h3.038a.405.405,0,0,0,.4-.4v-6.2A.405.405,0,0,0,233.538,118Z" transform="translate(-207.921 -106.812)" fill="#8659b9"/>
        <path id="Trazado_820402" data-name="Trazado 820402" d="M37.5,336.67V331.4a.405.405,0,0,1,.405-.4H47.17a.405.405,0,0,1,.405.4v5.265a.405.405,0,0,1-.405.4H37.905A.405.405,0,0,1,37.5,336.67Z" transform="translate(-34.462 -298.245)" fill="#b1e4f9"/>
        <path id="Trazado_820403" data-name="Trazado 820403" d="M106.038,331H103a.405.405,0,0,1,.405.4v5.265a.405.405,0,0,1-.405.4h3.038a.405.405,0,0,0,.405-.4V331.4A.405.405,0,0,0,106.038,331Z" transform="translate(-93.33 -298.245)" fill="#90d8f9"/>
        <path id="Trazado_820404" data-name="Trazado 820404" d="M167,336.67V331.4a.405.405,0,0,1,.4-.4h9.062a.405.405,0,0,1,.405.4v5.265a.4.4,0,0,1-.405.4H167.4A.4.4,0,0,1,167,336.67Z" transform="translate(-150.85 -298.245)" fill="#b1e4f9"/>
        <path id="Trazado_820405" data-name="Trazado 820405" d="M233.538,331H230.5a.405.405,0,0,1,.405.4v5.265a.405.405,0,0,1-.405.4h3.038a.4.4,0,0,0,.4-.4V331.4A.405.405,0,0,0,233.538,331Z" transform="translate(-207.921 -298.245)" fill="#90d8f9"/>
        <path id="Trazado_820406" data-name="Trazado 820406" d="M37.5,243.67V238.4a.405.405,0,0,1,.405-.4H47.17a.405.405,0,0,1,.405.4v5.265a.405.405,0,0,1-.405.405H37.905A.405.405,0,0,1,37.5,243.67Z" transform="translate(-34.462 -214.661)" fill="#b1e4f9"/>
        <path id="Trazado_820407" data-name="Trazado 820407" d="M106.038,238H103a.405.405,0,0,1,.405.4v5.265a.405.405,0,0,1-.405.405h3.038a.405.405,0,0,0,.405-.405V238.4A.405.405,0,0,0,106.038,238Z" transform="translate(-93.33 -214.661)" fill="#90d8f9"/>
        <path id="Trazado_820408" data-name="Trazado 820408" d="M167,243.67V238.4a.405.405,0,0,1,.4-.4h9.062a.405.405,0,0,1,.405.4v5.265a.405.405,0,0,1-.405.405H167.4A.405.405,0,0,1,167,243.67Z" transform="translate(-150.85 -214.661)" fill="#b1e4f9"/>
        <path id="Trazado_820409" data-name="Trazado 820409" d="M233.538,238H230.5a.405.405,0,0,1,.405.4v5.265a.405.405,0,0,1-.405.405h3.038a.405.405,0,0,0,.4-.405V238.4A.405.405,0,0,0,233.538,238Z" transform="translate(-207.921 -214.661)" fill="#90d8f9"/>
        <path id="Trazado_820410" data-name="Trazado 820410" d="M395.638,19.65H385.513a1.012,1.012,0,0,1-1.013-1.013V8.513A1.013,1.013,0,0,1,385.513,7.5h10.125a1.012,1.012,0,0,1,1.013,1.013V18.638A1.012,1.012,0,0,1,395.638,19.65Z" transform="translate(-346.328 -7.5)" fill="#ffd064"/>
        <path id="Trazado_820411" data-name="Trazado 820411" d="M467.538,7.5H464.5a1.013,1.013,0,0,1,1.013,1.013V18.638A1.012,1.012,0,0,1,464.5,19.65h3.038a1.012,1.012,0,0,0,1.013-1.013V8.513A1.013,1.013,0,0,0,467.538,7.5Z" transform="translate(-418.228 -7.5)" fill="#ffc250"/>
        <path id="Trazado_820412" data-name="Trazado 820412" d="M395.638,208.15H385.513a1.013,1.013,0,0,1-1.013-1.013V197.013A1.013,1.013,0,0,1,385.513,196h10.125a1.012,1.012,0,0,1,1.013,1.013v10.125A1.012,1.012,0,0,1,395.638,208.15Z" transform="translate(-346.328 -176.914)" fill="#aad540"/>
        <path id="Trazado_820413" data-name="Trazado 820413" d="M467.538,196H464.5a1.013,1.013,0,0,1,1.013,1.013v10.125a1.013,1.013,0,0,1-1.013,1.013h3.038a1.013,1.013,0,0,0,1.013-1.013V197.013A1.013,1.013,0,0,0,467.538,196Z" transform="translate(-418.228 -176.914)" fill="#9dc63d"/>
        <path id="Trazado_820414" data-name="Trazado 820414" d="M395.638,396.65H385.513a1.012,1.012,0,0,1-1.013-1.013V385.513a1.013,1.013,0,0,1,1.013-1.013h10.125a1.012,1.012,0,0,1,1.013,1.013v10.125A1.012,1.012,0,0,1,395.638,396.65Z" transform="translate(-346.328 -346.328)" fill="#b1e4f9"/>
        <path id="Trazado_820415" data-name="Trazado 820415" d="M467.538,384.5H464.5a1.013,1.013,0,0,1,1.013,1.013v10.125a1.012,1.012,0,0,1-1.013,1.013h3.038a1.012,1.012,0,0,0,1.013-1.013V385.513A1.013,1.013,0,0,0,467.538,384.5Z" transform="translate(-418.228 -346.328)" fill="#90d8f9"/>
      </g>
      <g id="Grupo_1073251" data-name="Grupo 1073251" transform="translate(0)">
        <path id="Trazado_820416" data-name="Trazado 820416" d="M54.5,111.664a1.166,1.166,0,0,0-1.164-1.164H31.164A1.166,1.166,0,0,0,30,111.664v6.2a1.166,1.166,0,0,0,1.164,1.164H53.339a1.166,1.166,0,0,0,1.164-1.164Zm-1.519,5.845H31.519v-5.491H52.984Z" transform="translate(-26.962 -99.312)"/>
        <path id="Trazado_820417" data-name="Trazado 820417" d="M30,329.93a1.166,1.166,0,0,0,1.164,1.164h9.265a1.166,1.166,0,0,0,1.164-1.164v-5.265a1.166,1.166,0,0,0-1.164-1.164H31.164A1.166,1.166,0,0,0,30,324.664Zm1.519-4.911h8.556v4.556H31.519Z" transform="translate(-26.962 -290.745)"/>
        <path id="Trazado_820418" data-name="Trazado 820418" d="M169.726,323.5h-9.062a1.166,1.166,0,0,0-1.164,1.164v5.265a1.166,1.166,0,0,0,1.164,1.164h9.062a1.166,1.166,0,0,0,1.164-1.164v-5.265A1.166,1.166,0,0,0,169.726,323.5Zm-.354,6.075h-8.353v-4.556h8.353Z" transform="translate(-143.35 -290.745)"/>
        <path id="Trazado_820419" data-name="Trazado 820419" d="M30,236.93a1.166,1.166,0,0,0,1.164,1.164h9.265a1.166,1.166,0,0,0,1.164-1.164v-5.265a1.166,1.166,0,0,0-1.164-1.164H31.164A1.166,1.166,0,0,0,30,231.664Zm1.519-4.911h8.556v4.556H31.519Z" transform="translate(-26.962 -207.161)"/>
        <path id="Trazado_820420" data-name="Trazado 820420" d="M170.891,231.664a1.166,1.166,0,0,0-1.164-1.164h-9.062a1.166,1.166,0,0,0-1.164,1.164v5.265a1.166,1.166,0,0,0,1.164,1.164h9.062a1.166,1.166,0,0,0,1.164-1.164Zm-1.519,4.911h-8.353v-4.556h8.353Z" transform="translate(-143.35 -207.161)"/>
        <path id="Trazado_820421" data-name="Trazado 820421" d="M39.944,13.669H50.069A1.774,1.774,0,0,0,51.841,11.9V1.772A1.774,1.774,0,0,0,50.069,0H39.944a1.774,1.774,0,0,0-1.772,1.772v4.3h-2.48a5.689,5.689,0,0,0-3.983,1.615L30.332,9.027a1.771,1.771,0,0,0-1.526-.876H1.772A1.774,1.774,0,0,0,0,9.923V12.4a.759.759,0,0,0,1.519,0V9.923a.253.253,0,0,1,.253-.253H28.806a.253.253,0,0,1,.253.253v32a.253.253,0,0,1-.253.253H1.772a.253.253,0,0,1-.253-.253V15.887a.759.759,0,0,0-1.519,0V41.918A1.774,1.774,0,0,0,1.772,43.69H28.806a1.767,1.767,0,0,0,1.329-.6l1.694,1.386a5.734,5.734,0,0,0,3.622,1.293h2.721v4.3a1.774,1.774,0,0,0,1.772,1.772H43.83a.759.759,0,1,0,0-1.519H39.944a.253.253,0,0,1-.253-.253V39.944a.253.253,0,0,1,.253-.253H50.069a.253.253,0,0,1,.253.253V50.069a.253.253,0,0,1-.253.253H47.432a.759.759,0,0,0,0,1.519h2.637a1.774,1.774,0,0,0,1.772-1.772V39.944a1.774,1.774,0,0,0-1.772-1.772H39.944a1.774,1.774,0,0,0-1.772,1.772v4.3H35.451a4.212,4.212,0,0,1-2.66-.95l-2.213-1.811V26.68h7.594v4.3a1.774,1.774,0,0,0,1.772,1.772H50.069a1.774,1.774,0,0,0,1.772-1.772V20.858a1.774,1.774,0,0,0-1.772-1.772H39.944a1.774,1.774,0,0,0-1.772,1.772v4.3H30.578V10.9L32.766,8.78a4.178,4.178,0,0,1,2.925-1.186h2.48v4.3a1.774,1.774,0,0,0,1.772,1.772Zm-.253,7.189a.253.253,0,0,1,.253-.253H50.069a.253.253,0,0,1,.253.253V30.983a.253.253,0,0,1-.253.253H39.944a.253.253,0,0,1-.253-.253Zm0-19.086a.253.253,0,0,1,.253-.253H50.069a.253.253,0,0,1,.253.253V11.9a.253.253,0,0,1-.253.253H39.944a.253.253,0,0,1-.253-.253Z" transform="translate(0)"/>
        <path id="Trazado_820422" data-name="Trazado 820422" d="M409.731,31.519h2.488a.759.759,0,1,0,0-1.519h-2.488a.759.759,0,1,0,0,1.519Z" transform="translate(-367.563 -26.962)"/>
        <path id="Trazado_820423" data-name="Trazado 820423" d="M409.731,61.519h6.075a.759.759,0,1,0,0-1.519h-6.075a.759.759,0,1,0,0,1.519Z" transform="translate(-367.563 -53.925)"/>
        <path id="Trazado_820424" data-name="Trazado 820424" d="M409.731,91.519h4.4a.759.759,0,0,0,0-1.519h-4.4a.759.759,0,1,0,0,1.519Z" transform="translate(-367.563 -80.887)"/>
        <path id="Trazado_820425" data-name="Trazado 820425" d="M409.731,220.019h2.488a.759.759,0,1,0,0-1.519h-2.488a.759.759,0,1,0,0,1.519Z" transform="translate(-367.563 -196.376)"/>
        <path id="Trazado_820426" data-name="Trazado 820426" d="M409.731,250.019h6.075a.759.759,0,1,0,0-1.519h-6.075a.759.759,0,1,0,0,1.519Z" transform="translate(-367.563 -223.339)"/>
        <path id="Trazado_820427" data-name="Trazado 820427" d="M409.731,280.019h4.4a.759.759,0,0,0,0-1.519h-4.4a.759.759,0,1,0,0,1.519Z" transform="translate(-367.563 -250.301)"/>
        <path id="Trazado_820428" data-name="Trazado 820428" d="M405.315,407.8H407.8a.759.759,0,0,0,0-1.519h-2.488a.759.759,0,1,0,0,1.519Z" transform="translate(-363.594 -365.142)"/>
        <path id="Trazado_820429" data-name="Trazado 820429" d="M405.315,437.8h6.075a.759.759,0,0,0,0-1.519h-6.075a.759.759,0,1,0,0,1.519Z" transform="translate(-363.594 -392.104)"/>
        <path id="Trazado_820430" data-name="Trazado 820430" d="M409.72,466.278h-4.4a.759.759,0,1,0,0,1.519h4.4a.759.759,0,0,0,0-1.519Z" transform="translate(-363.594 -419.066)"/>
      </g>
    </g>
  </g>
</svg>
