<svg xmlns="http://www.w3.org/2000/svg" width="861.153" height="493" viewBox="0 0 861.153 493">
  <g id="Grupo_1074231" data-name="Grupo 1074231" transform="translate(-369 -6968)">
    <path id="Trazado_825146" data-name="Trazado 825146" d="M15.977,13.99V19h-2.93V4.781h5.547a6.417,6.417,0,0,1,2.817.586,4.318,4.318,0,0,1,1.87,1.665,4.643,4.643,0,0,1,.654,2.456,4.083,4.083,0,0,1-1.431,3.3,5.959,5.959,0,0,1-3.96,1.206Zm0-2.373h2.617a2.573,2.573,0,0,0,1.772-.547,1.989,1.989,0,0,0,.61-1.562,2.345,2.345,0,0,0-.615-1.689,2.3,2.3,0,0,0-1.7-.664H15.977ZM28.74,19H25.908V8.434H28.74Zm-3-13.3a1.39,1.39,0,0,1,.425-1.045,1.831,1.831,0,0,1,2.31,0,1.382,1.382,0,0,1,.43,1.045,1.386,1.386,0,0,1-.435,1.055,1.81,1.81,0,0,1-2.295,0A1.386,1.386,0,0,1,25.742,5.7Zm8.3,13.3H31.211V4h2.832Zm8.447,0a3.134,3.134,0,0,1-.283-.947A3.415,3.415,0,0,1,39.541,19.2a3.752,3.752,0,0,1-2.573-.9,2.89,2.89,0,0,1-1.021-2.266,2.986,2.986,0,0,1,1.245-2.578,6.144,6.144,0,0,1,3.6-.908h1.3v-.605a1.741,1.741,0,0,0-.376-1.172,1.479,1.479,0,0,0-1.187-.439,1.682,1.682,0,0,0-1.118.342,1.161,1.161,0,0,0-.405.938H36.182a2.835,2.835,0,0,1,.566-1.7,3.744,3.744,0,0,1,1.6-1.226,5.837,5.837,0,0,1,2.324-.444,4.611,4.611,0,0,1,3.1.981,3.433,3.433,0,0,1,1.147,2.759v4.58a5.052,5.052,0,0,0,.42,2.275V19Zm-2.334-1.963a2.431,2.431,0,0,0,1.152-.278,1.828,1.828,0,0,0,.781-.747V14.2H41.035q-2.119,0-2.256,1.465l-.01.166a1.13,1.13,0,0,0,.371.869A1.441,1.441,0,0,0,40.156,17.037Zm11.475-3.4A6.368,6.368,0,0,1,52.739,9.7a3.6,3.6,0,0,1,3.032-1.465A3.236,3.236,0,0,1,58.32,9.391V4h2.832V19H58.6l-.137-1.123A3.321,3.321,0,0,1,55.752,19.2a3.587,3.587,0,0,1-2.993-1.47A6.573,6.573,0,0,1,51.631,13.639Zm2.822.2a4.194,4.194,0,0,0,.518,2.286,1.685,1.685,0,0,0,1.5.795,1.888,1.888,0,0,0,1.846-1.109V11.622a1.861,1.861,0,0,0-1.826-1.109Q54.453,10.514,54.453,13.839ZM68.2,19.2a5.187,5.187,0,0,1-3.784-1.426,5.068,5.068,0,0,1-1.46-3.8V13.7a6.383,6.383,0,0,1,.615-2.847,4.515,4.515,0,0,1,1.743-1.934,4.893,4.893,0,0,1,2.573-.679A4.385,4.385,0,0,1,71.3,9.605a5.555,5.555,0,0,1,1.245,3.877v1.152H65.82a2.622,2.622,0,0,0,.825,1.66,2.5,2.5,0,0,0,1.743.625,3.046,3.046,0,0,0,2.549-1.182l1.387,1.553a4.237,4.237,0,0,1-1.719,1.4A5.639,5.639,0,0,1,68.2,19.2Zm-.322-8.682a1.764,1.764,0,0,0-1.362.569,2.946,2.946,0,0,0-.669,1.628h3.926v-.226a2.1,2.1,0,0,0-.508-1.457A1.819,1.819,0,0,0,67.881,10.514Zm20.762,3.3a6.337,6.337,0,0,1-1.108,3.911,3.554,3.554,0,0,1-2.993,1.47,3.292,3.292,0,0,1-2.588-1.113v4.98H79.131V8.434h2.617l.1,1.035a3.317,3.317,0,0,1,2.676-1.23,3.578,3.578,0,0,1,3.037,1.445,6.509,6.509,0,0,1,1.084,3.984ZM85.82,13.6a4.182,4.182,0,0,0-.522-2.282,1.7,1.7,0,0,0-1.519-.8,1.847,1.847,0,0,0-1.826,1.019v4.339A1.879,1.879,0,0,0,83.8,16.92Q85.82,16.92,85.82,13.6ZM96.328,11.08A7.667,7.667,0,0,0,95.313,11a2.067,2.067,0,0,0-2.1,1.084V19H90.391V8.434h2.666l.078,1.26a2.615,2.615,0,0,1,2.354-1.455,2.957,2.957,0,0,1,.879.127Zm.566,2.539a6.266,6.266,0,0,1,.605-2.8,4.432,4.432,0,0,1,1.743-1.9,5.086,5.086,0,0,1,2.642-.674,4.812,4.812,0,0,1,3.491,1.309,5.252,5.252,0,0,1,1.509,3.555l.02.723a5.523,5.523,0,0,1-1.357,3.9,5.261,5.261,0,0,1-7.29,0,5.62,5.62,0,0,1-1.362-3.984Zm2.822.2a3.95,3.95,0,0,0,.566,2.3,2.035,2.035,0,0,0,3.223.01,4.322,4.322,0,0,0,.576-2.518,3.91,3.91,0,0,0-.576-2.289,1.873,1.873,0,0,0-1.621-.812,1.842,1.842,0,0,0-1.6.807A4.395,4.395,0,0,0,99.717,13.819Zm8.486-.181A6.368,6.368,0,0,1,109.312,9.7a3.6,3.6,0,0,1,3.032-1.465,3.236,3.236,0,0,1,2.549,1.152V4h2.832V19h-2.549l-.137-1.123a3.321,3.321,0,0,1-2.715,1.318,3.587,3.587,0,0,1-2.993-1.47A6.573,6.573,0,0,1,108.2,13.639Zm2.822.2a4.194,4.194,0,0,0,.518,2.286,1.685,1.685,0,0,0,1.5.795,1.888,1.888,0,0,0,1.846-1.109V11.622a1.861,1.861,0,0,0-1.826-1.109Q111.025,10.514,111.025,13.839Zm15.215,4.086a3.539,3.539,0,0,1-2.891,1.27,3.338,3.338,0,0,1-2.593-.977,4.169,4.169,0,0,1-.913-2.861V8.434h2.822v6.834q0,1.652,1.5,1.652a2.038,2.038,0,0,0,1.973-1V8.434h2.832V19h-2.656ZM135.5,16.92a1.851,1.851,0,0,0,1.27-.43,1.506,1.506,0,0,0,.508-1.143h2.646a3.62,3.62,0,0,1-.586,1.968,3.866,3.866,0,0,1-1.577,1.387,4.936,4.936,0,0,1-2.212.493,4.587,4.587,0,0,1-3.574-1.44,5.7,5.7,0,0,1-1.309-3.979V13.59a5.635,5.635,0,0,1,1.3-3.9,4.534,4.534,0,0,1,3.564-1.455,4.444,4.444,0,0,1,3.179,1.128,3.994,3.994,0,0,1,1.216,3h-2.646a1.939,1.939,0,0,0-.508-1.34,1.887,1.887,0,0,0-2.778.2,4.166,4.166,0,0,0-.5,2.333v.293a4.219,4.219,0,0,0,.5,2.347A1.721,1.721,0,0,0,135.5,16.92Zm9.414-11.084v2.6h1.807V10.5h-1.807v5.273a1.259,1.259,0,0,0,.225.84,1.128,1.128,0,0,0,.859.254,4.5,4.5,0,0,0,.83-.068v2.139a5.81,5.81,0,0,1-1.709.254q-2.969,0-3.027-3V10.5h-1.543V8.434h1.543v-2.6Zm2.646,7.783a6.267,6.267,0,0,1,.605-2.8,4.432,4.432,0,0,1,1.743-1.9,5.086,5.086,0,0,1,2.642-.674,4.812,4.812,0,0,1,3.491,1.309,5.252,5.252,0,0,1,1.509,3.555l.02.723a5.523,5.523,0,0,1-1.357,3.9,5.261,5.261,0,0,1-7.29,0,5.62,5.62,0,0,1-1.362-3.984Zm2.822.2a3.95,3.95,0,0,0,.566,2.3,2.035,2.035,0,0,0,3.223.01,4.322,4.322,0,0,0,.576-2.518,3.91,3.91,0,0,0-.576-2.289,1.873,1.873,0,0,0-1.621-.812,1.842,1.842,0,0,0-1.6.807A4.395,4.395,0,0,0,150.381,13.819Z" transform="translate(369 6964)" fill="#12263f"/>
    <path id="Trazado_825147" data-name="Trazado 825147" d="M30.5,15.99V21h-2.93V6.781H33.12a6.417,6.417,0,0,1,2.817.586,4.318,4.318,0,0,1,1.87,1.665,4.643,4.643,0,0,1,.654,2.456,4.083,4.083,0,0,1-1.431,3.3,5.959,5.959,0,0,1-3.96,1.206Zm0-2.373H33.12a2.573,2.573,0,0,0,1.772-.547,1.989,1.989,0,0,0,.61-1.562,2.345,2.345,0,0,0-.615-1.689,2.3,2.3,0,0,0-1.7-.664H30.5ZM43.267,21H40.435V10.434h2.832Zm-3-13.3a1.39,1.39,0,0,1,.425-1.045,1.831,1.831,0,0,1,2.31,0,1.382,1.382,0,0,1,.43,1.045A1.386,1.386,0,0,1,43,8.754a1.81,1.81,0,0,1-2.295,0A1.386,1.386,0,0,1,40.269,7.7Zm8.3,13.3H45.737V6h2.832Zm8.447,0a3.134,3.134,0,0,1-.283-.947A3.415,3.415,0,0,1,54.067,21.2a3.752,3.752,0,0,1-2.573-.9,2.89,2.89,0,0,1-1.021-2.266,2.986,2.986,0,0,1,1.245-2.578,6.144,6.144,0,0,1,3.6-.908h1.3v-.605a1.741,1.741,0,0,0-.376-1.172,1.479,1.479,0,0,0-1.187-.439,1.682,1.682,0,0,0-1.118.342,1.161,1.161,0,0,0-.405.938H50.708a2.835,2.835,0,0,1,.566-1.7,3.744,3.744,0,0,1,1.6-1.226,5.837,5.837,0,0,1,2.324-.444,4.611,4.611,0,0,1,3.1.981,3.433,3.433,0,0,1,1.147,2.759v4.58a5.052,5.052,0,0,0,.42,2.275V21Zm-2.334-1.963a2.431,2.431,0,0,0,1.152-.278,1.828,1.828,0,0,0,.781-.747V16.2H55.562q-2.119,0-2.256,1.465l-.01.166a1.13,1.13,0,0,0,.371.869A1.441,1.441,0,0,0,54.683,19.037Zm11.475-3.4A6.368,6.368,0,0,1,67.266,11.7,3.6,3.6,0,0,1,70.3,10.238a3.236,3.236,0,0,1,2.549,1.152V6h2.832V21H73.13l-.137-1.123A3.321,3.321,0,0,1,70.278,21.2a3.587,3.587,0,0,1-2.993-1.47A6.573,6.573,0,0,1,66.157,15.639Zm2.822.2a4.194,4.194,0,0,0,.518,2.286,1.685,1.685,0,0,0,1.5.795,1.888,1.888,0,0,0,1.846-1.109V13.622a1.861,1.861,0,0,0-1.826-1.109Q68.979,12.514,68.979,15.839ZM82.729,21.2a5.187,5.187,0,0,1-3.784-1.426,5.068,5.068,0,0,1-1.46-3.8V15.7a6.383,6.383,0,0,1,.615-2.847,4.515,4.515,0,0,1,1.743-1.934,4.893,4.893,0,0,1,2.573-.679,4.385,4.385,0,0,1,3.413,1.367,5.555,5.555,0,0,1,1.245,3.877v1.152H80.347a2.622,2.622,0,0,0,.825,1.66,2.5,2.5,0,0,0,1.743.625,3.046,3.046,0,0,0,2.549-1.182l1.387,1.553a4.237,4.237,0,0,1-1.719,1.4A5.639,5.639,0,0,1,82.729,21.2Zm-.322-8.682a1.764,1.764,0,0,0-1.362.569,2.946,2.946,0,0,0-.669,1.628H84.3v-.226a2.1,2.1,0,0,0-.508-1.457A1.819,1.819,0,0,0,82.407,12.514Zm16.318,5.508q.156-.781-1.084-1.133l-.889-.225Q93.6,15.795,93.687,13.6a3.035,3.035,0,0,1,1.323-2.437,4.927,4.927,0,0,1,3.071-.923,4.42,4.42,0,0,1,2.891.947,3.121,3.121,0,0,1,1.123,2.471l-2.734-.01a1.2,1.2,0,0,0-1.348-1.377,1.939,1.939,0,0,0-1.118.322,1.327,1.327,0,0,0-.581.869q-.146.781,1.182,1.1l.391.088a7.856,7.856,0,0,1,2.061.737,3.11,3.11,0,0,1,1.1,1.03,2.55,2.55,0,0,1,.356,1.475,2.814,2.814,0,0,1-.649,1.758,3.975,3.975,0,0,1-1.7,1.162,5.92,5.92,0,0,1-2.271.381,4.461,4.461,0,0,1-2.93-1.011,3.259,3.259,0,0,1-1.191-2.563l2.6.02a1.428,1.428,0,0,0,1.621,1.533,2.306,2.306,0,0,0,1.255-.312A1.234,1.234,0,0,0,98.726,18.021Zm14.092-2.275a8.727,8.727,0,0,1-.869,2.949,4.782,4.782,0,0,1-1.65,1.914,3.823,3.823,0,0,1-2.187.6,3.05,3.05,0,0,1-2.422-1.143l-.967,5h-2.754L104.5,10.434l2.539-.01-.186,1.064a3.374,3.374,0,0,1,2.7-1.25,3,3,0,0,1,2.412,1.128,4.9,4.9,0,0,1,.918,2.954A11.415,11.415,0,0,1,112.817,15.746Zm-2.734-.2.059-.939a2.612,2.612,0,0,0-.347-1.506,1.244,1.244,0,0,0-1.069-.577,2.273,2.273,0,0,0-1.982,1.017l-.791,4.362A1.541,1.541,0,0,0,107.5,18.93a1.987,1.987,0,0,0,1.66-.773A5.292,5.292,0,0,0,110.083,15.546Zm10.84-2.466a5.686,5.686,0,0,0-.928-.1,2.67,2.67,0,0,0-2.334,1.1L116.44,21h-2.754l1.836-10.566,2.588-.01-.254,1.289a2.906,2.906,0,0,1,2.461-1.494,4.017,4.017,0,0,1,.957.137ZM123.774,21H121l1.836-10.566h2.773Zm-.615-13.252a1.376,1.376,0,0,1,.43-1.084,1.653,1.653,0,0,1,2.168-.049,1.37,1.37,0,0,1,.479,1.035,1.415,1.415,0,0,1-.405,1.055,1.519,1.519,0,0,1-1.108.469,1.544,1.544,0,0,1-1.079-.371A1.363,1.363,0,0,1,123.159,7.748Zm7.3,2.676-.234,1.25a3.8,3.8,0,0,1,3.076-1.436,2.535,2.535,0,0,1,2.207,1.094,4.407,4.407,0,0,1,.518,2.949L134.917,21h-2.754l1.133-6.748a3.16,3.16,0,0,0,.02-.693,1.118,1.118,0,0,0-1.25-1.025,2.37,2.37,0,0,0-1.943,1.006L128.8,21H126.05l1.836-10.566Zm12.2-2.588-.459,2.6h1.758L143.6,12.5h-1.758l-.9,5.293a1.346,1.346,0,0,0,.078.762q.137.264.664.283.156.01.84-.049l-.2,2.158a4.632,4.632,0,0,1-1.582.225,2.482,2.482,0,0,1-2.021-.85,3.07,3.07,0,0,1-.547-2.246l.908-5.576h-1.494l.361-2.07h1.494l.449-2.6Z" transform="translate(998 7104)" fill="#12263f"/>
    <path id="Trazado_825148" data-name="Trazado 825148" d="M5,0H165a5,5,0,0,1,5,5V45a5,5,0,0,1-5,5H5a5,5,0,0,1-5-5V5A5,5,0,0,1,5,0Z" transform="translate(369 6999)" fill="#ffca28"/>
    <path id="Trazado_825149" data-name="Trazado 825149" d="M5,0H165a5,5,0,0,1,5,5V45a5,5,0,0,1-5,5H5a5,5,0,0,1-5-5V5A5,5,0,0,1,5,0Z" transform="translate(369 7064)" fill="#ffca28"/>
    <path id="Trazado_825150" data-name="Trazado 825150" d="M5,0H165a5,5,0,0,1,5,5V45a5,5,0,0,1-5,5H5a5,5,0,0,1-5-5V5A5,5,0,0,1,5,0Z" transform="translate(369 7129)" fill="#ffca28"/>
    <path id="Trazado_825151" data-name="Trazado 825151" d="M5,0H165a5,5,0,0,1,5,5V45a5,5,0,0,1-5,5H5a5,5,0,0,1-5-5V5A5,5,0,0,1,5,0Z" transform="translate(369 7194)" fill="#ffca28"/>
    <path id="Trazado_825152" data-name="Trazado 825152" d="M5,0H165a5,5,0,0,1,5,5V45a5,5,0,0,1-5,5H5a5,5,0,0,1-5-5V5A5,5,0,0,1,5,0Z" transform="translate(369 7259)" fill="#ffca28"/>
    <path id="Trazado_825153" data-name="Trazado 825153" d="M5,0H165a5,5,0,0,1,5,5V45a5,5,0,0,1-5,5H5a5,5,0,0,1-5-5V5A5,5,0,0,1,5,0Z" transform="translate(369 7324)" fill="#ffca28"/>
    <path id="Trazado_825154" data-name="Trazado 825154" d="M5,0H165a5,5,0,0,1,5,5V45a5,5,0,0,1-5,5H5a5,5,0,0,1-5-5V5A5,5,0,0,1,5,0Z" transform="translate(369 7411)" fill="#ffca28"/>
    <path id="Trazado_825155" data-name="Trazado 825155" d="M5,0H48V50H5a5,5,0,0,1-5-5V5A5,5,0,0,1,5,0Z" transform="translate(369 6999)" fill="#ffa726"/>
    <path id="Trazado_825156" data-name="Trazado 825156" d="M5,0H48V50H5a5,5,0,0,1-5-5V5A5,5,0,0,1,5,0Z" transform="translate(369 7064)" fill="#ffa726"/>
    <path id="Trazado_825157" data-name="Trazado 825157" d="M5,0H48V50H5a5,5,0,0,1-5-5V5A5,5,0,0,1,5,0Z" transform="translate(369 7129)" fill="#ffa726"/>
    <path id="Trazado_825158" data-name="Trazado 825158" d="M5,0H48V50H5a5,5,0,0,1-5-5V5A5,5,0,0,1,5,0Z" transform="translate(369 7194)" fill="#ffa726"/>
    <path id="Trazado_825159" data-name="Trazado 825159" d="M5,0H48V50H5a5,5,0,0,1-5-5V5A5,5,0,0,1,5,0Z" transform="translate(369 7259)" fill="#ffa726"/>
    <path id="Trazado_825160" data-name="Trazado 825160" d="M5,0H48V50H5a5,5,0,0,1-5-5V5A5,5,0,0,1,5,0Z" transform="translate(369 7324)" fill="#ffa726"/>
    <path id="Trazado_825161" data-name="Trazado 825161" d="M5,0H48V50H5a5,5,0,0,1-5-5V5A5,5,0,0,1,5,0Z" transform="translate(369 7411)" fill="#ffa726"/>
    <path id="Trazado_825162" data-name="Trazado 825162" d="M19.142,19H15.733V13.063H10.685V19H7.257V4.781h3.428v5.645h5.049V4.781h3.408ZM28.4,19H25.1V8.492l-3.242.947v-2.5L28.1,4.781h.3Z" transform="translate(425 7012)" fill="#12263f"/>
    <path id="Trazado_825163" data-name="Trazado 825163" d="M19.142,19H15.733V13.063H10.685V19H7.257V4.781h3.428v5.645h5.049V4.781h3.408Zm11.885,0H21.1V16.852l4.57-4.8q1.689-1.924,1.689-3.057a2.126,2.126,0,0,0-.4-1.4A1.43,1.43,0,0,0,25.8,7.115a1.447,1.447,0,0,0-1.221.64,2.629,2.629,0,0,0-.469,1.6h-3.3a4.67,4.67,0,0,1,.654-2.417A4.588,4.588,0,0,1,23.282,5.2a5.4,5.4,0,0,1,2.6-.625,5.308,5.308,0,0,1,3.55,1.064A3.8,3.8,0,0,1,30.675,8.7a4.439,4.439,0,0,1-.312,1.636A7.173,7.173,0,0,1,29.391,12a24.476,24.476,0,0,1-2.124,2.339l-1.836,2.119h5.6Z" transform="translate(425 7077)" fill="#12263f"/>
    <path id="Trazado_825164" data-name="Trazado 825164" d="M19.142,19H15.733V13.063H10.685V19H7.257V4.781h3.428v5.645h5.049V4.781h3.408Zm4.971-8.486h1.553a1.614,1.614,0,0,0,1.846-1.807,1.562,1.562,0,0,0-.439-1.147,1.666,1.666,0,0,0-1.24-.444,1.784,1.784,0,0,0-1.138.381,1.162,1.162,0,0,0-.483.947H20.919a3.369,3.369,0,0,1,.625-2,4.127,4.127,0,0,1,1.733-1.372,5.926,5.926,0,0,1,2.437-.493,5.823,5.823,0,0,1,3.73,1.084A3.6,3.6,0,0,1,30.8,8.639a3,3,0,0,1-.562,1.733A4,4,0,0,1,28.6,11.7a3.823,3.823,0,0,1,1.777,1.245,3.279,3.279,0,0,1,.645,2.065,3.669,3.669,0,0,1-1.465,3.047A6.08,6.08,0,0,1,25.714,19.2a6.306,6.306,0,0,1-2.593-.532,4.062,4.062,0,0,1-1.812-1.475,3.834,3.834,0,0,1-.615-2.144H24a1.482,1.482,0,0,0,.527,1.133,1.862,1.862,0,0,0,1.3.479,1.95,1.95,0,0,0,1.387-.483,1.616,1.616,0,0,0,.518-1.235,1.889,1.889,0,0,0-.537-1.523,2.245,2.245,0,0,0-1.484-.449h-1.6Z" transform="translate(425 7142)" fill="#12263f"/>
    <path id="Trazado_825165" data-name="Trazado 825165" d="M19.142,19H15.733V13.063H10.685V19H7.257V4.781h3.428v5.645h5.049V4.781h3.408ZM29.8,13.443h1.445v2.539H29.8V19H26.5V15.982h-5.5l-.2-2.012L26.5,4.811V4.781H29.8Zm-5.85,0H26.5V9.068L26.3,9.4Z" transform="translate(425 7207)" fill="#12263f"/>
    <path id="Trazado_825166" data-name="Trazado 825166" d="M19.142,19H15.733V13.063H10.685V19H7.257V4.781h3.428v5.645h5.049V4.781h3.408ZM21.3,12.055l.869-7.273h8.311V7.32H24.845l-.322,2.844a3.882,3.882,0,0,1,.923-.363,4.643,4.643,0,0,1,4.375,1.1,5.055,5.055,0,0,1,1.138,3.521,5.046,5.046,0,0,1-.61,2.476,4.2,4.2,0,0,1-1.714,1.7,5.411,5.411,0,0,1-2.607.6,5.822,5.822,0,0,1-2.51-.551,4.5,4.5,0,0,1-1.836-1.512,3.675,3.675,0,0,1-.654-2.171h3.3a1.867,1.867,0,0,0,.5,1.238,1.581,1.581,0,0,0,1.182.458q1.66,0,1.66-2.456,0-2.271-2.031-2.271a2.027,2.027,0,0,0-1.719.741Z" transform="translate(425 7272)" fill="#12263f"/>
    <path id="Trazado_825167" data-name="Trazado 825167" d="M19.142,19H15.733V13.063H10.685V19H7.257V4.781h3.428v5.645h5.049V4.781h3.408ZM29.054,4.576V7.164h-.146a4.941,4.941,0,0,0-3.032.884,3.732,3.732,0,0,0-1.46,2.456A3.848,3.848,0,0,1,27.228,9.41a3.59,3.59,0,0,1,2.939,1.348,5.436,5.436,0,0,1,1.094,3.535,4.977,4.977,0,0,1-.64,2.49,4.564,4.564,0,0,1-1.787,1.772,5.135,5.135,0,0,1-2.544.64,5.307,5.307,0,0,1-2.705-.688,4.733,4.733,0,0,1-1.855-1.968,6.48,6.48,0,0,1-.684-2.949V12.271a8.208,8.208,0,0,1,.942-3.95,6.832,6.832,0,0,1,2.69-2.749,7.692,7.692,0,0,1,3.877-1Zm-2.969,7.373a1.889,1.889,0,0,0-1.094.3,1.917,1.917,0,0,0-.654.739v.982q0,2.684,1.865,2.684a1.515,1.515,0,0,0,1.255-.671,2.727,2.727,0,0,0,.5-1.682,2.677,2.677,0,0,0-.513-1.7A1.642,1.642,0,0,0,26.085,11.949Z" transform="translate(425 7337)" fill="#12263f"/>
    <path id="Trazado_825168" data-name="Trazado 825168" d="M15.2,17H12.136V11.656H7.592V17H4.507V4.2H7.592v5.08h4.544V4.2H15.2Zm10.7,0H16.97V15.066l4.113-4.324A4.909,4.909,0,0,0,22.6,7.991a1.913,1.913,0,0,0-.36-1.257A1.287,1.287,0,0,0,21.2,6.3a1.3,1.3,0,0,0-1.1.576,2.366,2.366,0,0,0-.422,1.437H16.707A4.2,4.2,0,0,1,17.3,6.141a4.129,4.129,0,0,1,1.635-1.56,4.856,4.856,0,0,1,2.338-.562,4.777,4.777,0,0,1,3.195.958,3.42,3.42,0,0,1,1.121,2.751A4,4,0,0,1,25.3,9.2a6.456,6.456,0,0,1-.875,1.5,22.029,22.029,0,0,1-1.912,2.1l-1.652,1.907H25.9Zm1.67-6.251L28.352,4.2h7.479V6.488H30.76l-.29,2.56a3.493,3.493,0,0,1,.831-.327,4.179,4.179,0,0,1,3.938.988,4.549,4.549,0,0,1,1.024,3.168,4.541,4.541,0,0,1-.549,2.228A3.776,3.776,0,0,1,34.17,16.64a4.87,4.87,0,0,1-2.347.536,5.24,5.24,0,0,1-2.259-.5,4.052,4.052,0,0,1-1.652-1.361,3.308,3.308,0,0,1-.589-1.954h2.971a1.68,1.68,0,0,0,.448,1.114,1.423,1.423,0,0,0,1.063.412q1.494,0,1.494-2.21,0-2.044-1.828-2.044a1.824,1.824,0,0,0-1.547.667ZM46.7,11.771a6.11,6.11,0,0,1-1.165,4,4.024,4.024,0,0,1-3.283,1.406,4.046,4.046,0,0,1-3.3-1.415,6.1,6.1,0,0,1-1.169-3.99V9.433a6.11,6.11,0,0,1,1.165-4,4.034,4.034,0,0,1,3.292-1.406,4.036,4.036,0,0,1,3.3,1.415,6.116,6.116,0,0,1,1.169,4ZM43.742,9.055a4.564,4.564,0,0,0-.36-2.061,1.2,1.2,0,0,0-1.143-.681,1.176,1.176,0,0,0-1.112.633,4.3,4.3,0,0,0-.374,1.916v3.27a4.6,4.6,0,0,0,.36,2.1,1.209,1.209,0,0,0,1.143.664,1.193,1.193,0,0,0,1.116-.646,4.39,4.39,0,0,0,.369-2.026Z" transform="translate(420 7425)" fill="#12263f"/>
    <path id="Icon_awesome-star" data-name="Icon awesome-star" d="M11.687.8l-2.8,5.935-6.268.955a1.453,1.453,0,0,0-.759,2.447l4.535,4.617L5.32,21.274a1.386,1.386,0,0,0,1.991,1.511l5.607-3.08,5.607,3.08a1.387,1.387,0,0,0,1.991-1.511l-1.073-6.522,4.535-4.617a1.453,1.453,0,0,0-.759-2.447l-6.268-.955L14.149.8a1.349,1.349,0,0,0-2.463,0Z" transform="translate(380.209 7012.501)" fill="none" stroke="#12263f" stroke-linecap="round" stroke-linejoin="round" stroke-width="3"/>
    <path id="Icon_awesome-star-2" data-name="Icon awesome-star" d="M11.687.8l-2.8,5.935-6.268.955a1.453,1.453,0,0,0-.759,2.447l4.535,4.617L5.32,21.274a1.386,1.386,0,0,0,1.991,1.511l5.607-3.08,5.607,3.08a1.387,1.387,0,0,0,1.991-1.511l-1.073-6.522,4.535-4.617a1.453,1.453,0,0,0-.759-2.447l-6.268-.955L14.149.8a1.349,1.349,0,0,0-2.463,0Z" transform="translate(380.209 7077.501)" fill="none" stroke="#12263f" stroke-linecap="round" stroke-linejoin="round" stroke-width="3"/>
    <path id="Icon_awesome-star-3" data-name="Icon awesome-star" d="M11.687.8l-2.8,5.935-6.268.955a1.453,1.453,0,0,0-.759,2.447l4.535,4.617L5.32,21.274a1.386,1.386,0,0,0,1.991,1.511l5.607-3.08,5.607,3.08a1.387,1.387,0,0,0,1.991-1.511l-1.073-6.522,4.535-4.617a1.453,1.453,0,0,0-.759-2.447l-6.268-.955L14.149.8a1.349,1.349,0,0,0-2.463,0Z" transform="translate(380.209 7142.501)" fill="none" stroke="#12263f" stroke-linecap="round" stroke-linejoin="round" stroke-width="3"/>
    <path id="Icon_awesome-star-4" data-name="Icon awesome-star" d="M11.687.8l-2.8,5.935-6.268.955a1.453,1.453,0,0,0-.759,2.447l4.535,4.617L5.32,21.274a1.386,1.386,0,0,0,1.991,1.511l5.607-3.08,5.607,3.08a1.387,1.387,0,0,0,1.991-1.511l-1.073-6.522,4.535-4.617a1.453,1.453,0,0,0-.759-2.447l-6.268-.955L14.149.8a1.349,1.349,0,0,0-2.463,0Z" transform="translate(380.209 7207.501)" fill="none" stroke="#12263f" stroke-linecap="round" stroke-linejoin="round" stroke-width="3"/>
    <path id="Icon_awesome-star-5" data-name="Icon awesome-star" d="M11.687.8l-2.8,5.935-6.268.955a1.453,1.453,0,0,0-.759,2.447l4.535,4.617L5.32,21.274a1.386,1.386,0,0,0,1.991,1.511l5.607-3.08,5.607,3.08a1.387,1.387,0,0,0,1.991-1.511l-1.073-6.522,4.535-4.617a1.453,1.453,0,0,0-.759-2.447l-6.268-.955L14.149.8a1.349,1.349,0,0,0-2.463,0Z" transform="translate(380.209 7272.501)" fill="none" stroke="#12263f" stroke-linecap="round" stroke-linejoin="round" stroke-width="3"/>
    <path id="Icon_awesome-star-6" data-name="Icon awesome-star" d="M11.687.8l-2.8,5.935-6.268.955a1.453,1.453,0,0,0-.759,2.447l4.535,4.617L5.32,21.274a1.386,1.386,0,0,0,1.991,1.511l5.607-3.08,5.607,3.08a1.387,1.387,0,0,0,1.991-1.511l-1.073-6.522,4.535-4.617a1.453,1.453,0,0,0-.759-2.447l-6.268-.955L14.149.8a1.349,1.349,0,0,0-2.463,0Z" transform="translate(380.209 7337.501)" fill="none" stroke="#12263f" stroke-linecap="round" stroke-linejoin="round" stroke-width="3"/>
    <path id="Icon_awesome-star-7" data-name="Icon awesome-star" d="M11.687.8l-2.8,5.935-6.268.955a1.453,1.453,0,0,0-.759,2.447l4.535,4.617L5.32,21.274a1.386,1.386,0,0,0,1.991,1.511l5.607-3.08,5.607,3.08a1.387,1.387,0,0,0,1.991-1.511l-1.073-6.522,4.535-4.617a1.453,1.453,0,0,0-.759-2.447l-6.268-.955L14.149.8a1.349,1.349,0,0,0-2.463,0Z" transform="translate(380.209 7424.501)" fill="none" stroke="#12263f" stroke-linecap="round" stroke-linejoin="round" stroke-width="3"/>
    <g id="Icon_ionic-ios-list" data-name="Icon ionic-ios-list" transform="translate(473.967 7015)">
      <path id="Trazado_26736" data-name="Trazado 26736" d="M8.19,17.876a1.845,1.845,0,1,1-1.845-1.845A1.845,1.845,0,0,1,8.19,17.876Z" transform="translate(-4.5 -8.799)" fill="#12263f"/>
      <path id="Trazado_26737" data-name="Trazado 26737" d="M8.19,9.157A1.845,1.845,0,1,1,6.345,7.313,1.845,1.845,0,0,1,8.19,9.157Z" transform="translate(-4.5 -7.313)" fill="#12263f"/>
      <path id="Trazado_26738" data-name="Trazado 26738" d="M8.19,26.595A1.845,1.845,0,1,1,6.345,24.75,1.845,1.845,0,0,1,8.19,26.595Z" transform="translate(-4.5 -10.285)" fill="#12263f"/>
      <path id="Trazado_26741" data-name="Trazado 26741" d="M13.394,10.265H53.909a1.054,1.054,0,0,0,0-2.108H13.394a1.054,1.054,0,1,0,0,2.108Z" transform="translate(-5.93 -7.366)" fill="#12263f"/>
      <path id="Trazado_26744" data-name="Trazado 26744" d="M13.394,10.265H53.909a1.054,1.054,0,0,0,0-2.108H13.394a1.054,1.054,0,1,0,0,2.108Z" transform="translate(-5.93 -0.133)" fill="#12263f"/>
      <path id="Trazado_26745" data-name="Trazado 26745" d="M13.394,10.265H53.909a1.054,1.054,0,0,0,0-2.108H13.394a1.054,1.054,0,1,0,0,2.108Z" transform="translate(-5.93 7.099)" fill="#12263f"/>
    </g>
    <g id="Icon_ionic-ios-list-2" data-name="Icon ionic-ios-list" transform="translate(473.967 7080)">
      <path id="Trazado_26736-2" data-name="Trazado 26736" d="M8.19,17.876a1.845,1.845,0,1,1-1.845-1.845A1.845,1.845,0,0,1,8.19,17.876Z" transform="translate(-4.5 -8.799)" fill="#12263f"/>
      <path id="Trazado_26737-2" data-name="Trazado 26737" d="M8.19,9.157A1.845,1.845,0,1,1,6.345,7.313,1.845,1.845,0,0,1,8.19,9.157Z" transform="translate(-4.5 -7.313)" fill="#12263f"/>
      <path id="Trazado_26738-2" data-name="Trazado 26738" d="M8.19,26.595A1.845,1.845,0,1,1,6.345,24.75,1.845,1.845,0,0,1,8.19,26.595Z" transform="translate(-4.5 -10.285)" fill="#12263f"/>
      <path id="Trazado_26741-2" data-name="Trazado 26741" d="M13.394,10.265H53.909a1.054,1.054,0,0,0,0-2.108H13.394a1.054,1.054,0,1,0,0,2.108Z" transform="translate(-5.93 -7.366)" fill="#12263f"/>
      <path id="Trazado_26744-2" data-name="Trazado 26744" d="M13.394,10.265H53.909a1.054,1.054,0,0,0,0-2.108H13.394a1.054,1.054,0,1,0,0,2.108Z" transform="translate(-5.93 -0.133)" fill="#12263f"/>
      <path id="Trazado_26745-2" data-name="Trazado 26745" d="M13.394,10.265H53.909a1.054,1.054,0,0,0,0-2.108H13.394a1.054,1.054,0,1,0,0,2.108Z" transform="translate(-5.93 7.099)" fill="#12263f"/>
    </g>
    <g id="Icon_ionic-ios-list-3" data-name="Icon ionic-ios-list" transform="translate(473.967 7145)">
      <path id="Trazado_26736-3" data-name="Trazado 26736" d="M8.19,17.876a1.845,1.845,0,1,1-1.845-1.845A1.845,1.845,0,0,1,8.19,17.876Z" transform="translate(-4.5 -8.799)" fill="#12263f"/>
      <path id="Trazado_26737-3" data-name="Trazado 26737" d="M8.19,9.157A1.845,1.845,0,1,1,6.345,7.313,1.845,1.845,0,0,1,8.19,9.157Z" transform="translate(-4.5 -7.313)" fill="#12263f"/>
      <path id="Trazado_26738-3" data-name="Trazado 26738" d="M8.19,26.595A1.845,1.845,0,1,1,6.345,24.75,1.845,1.845,0,0,1,8.19,26.595Z" transform="translate(-4.5 -10.285)" fill="#12263f"/>
      <path id="Trazado_26741-3" data-name="Trazado 26741" d="M13.394,10.265H53.909a1.054,1.054,0,0,0,0-2.108H13.394a1.054,1.054,0,1,0,0,2.108Z" transform="translate(-5.93 -7.366)" fill="#12263f"/>
      <path id="Trazado_26744-3" data-name="Trazado 26744" d="M13.394,10.265H53.909a1.054,1.054,0,0,0,0-2.108H13.394a1.054,1.054,0,1,0,0,2.108Z" transform="translate(-5.93 -0.133)" fill="#12263f"/>
      <path id="Trazado_26745-3" data-name="Trazado 26745" d="M13.394,10.265H53.909a1.054,1.054,0,0,0,0-2.108H13.394a1.054,1.054,0,1,0,0,2.108Z" transform="translate(-5.93 7.099)" fill="#12263f"/>
    </g>
    <g id="Icon_ionic-ios-list-4" data-name="Icon ionic-ios-list" transform="translate(473.967 7210)">
      <path id="Trazado_26736-4" data-name="Trazado 26736" d="M8.19,17.876a1.845,1.845,0,1,1-1.845-1.845A1.845,1.845,0,0,1,8.19,17.876Z" transform="translate(-4.5 -8.799)" fill="#12263f"/>
      <path id="Trazado_26737-4" data-name="Trazado 26737" d="M8.19,9.157A1.845,1.845,0,1,1,6.345,7.313,1.845,1.845,0,0,1,8.19,9.157Z" transform="translate(-4.5 -7.313)" fill="#12263f"/>
      <path id="Trazado_26738-4" data-name="Trazado 26738" d="M8.19,26.595A1.845,1.845,0,1,1,6.345,24.75,1.845,1.845,0,0,1,8.19,26.595Z" transform="translate(-4.5 -10.285)" fill="#12263f"/>
      <path id="Trazado_26741-4" data-name="Trazado 26741" d="M13.394,10.265H53.909a1.054,1.054,0,0,0,0-2.108H13.394a1.054,1.054,0,1,0,0,2.108Z" transform="translate(-5.93 -7.366)" fill="#12263f"/>
      <path id="Trazado_26744-4" data-name="Trazado 26744" d="M13.394,10.265H53.909a1.054,1.054,0,0,0,0-2.108H13.394a1.054,1.054,0,1,0,0,2.108Z" transform="translate(-5.93 -0.133)" fill="#12263f"/>
      <path id="Trazado_26745-4" data-name="Trazado 26745" d="M13.394,10.265H53.909a1.054,1.054,0,0,0,0-2.108H13.394a1.054,1.054,0,1,0,0,2.108Z" transform="translate(-5.93 7.099)" fill="#12263f"/>
    </g>
    <g id="Icon_ionic-ios-list-5" data-name="Icon ionic-ios-list" transform="translate(473.967 7275)">
      <path id="Trazado_26736-5" data-name="Trazado 26736" d="M8.19,17.876a1.845,1.845,0,1,1-1.845-1.845A1.845,1.845,0,0,1,8.19,17.876Z" transform="translate(-4.5 -8.799)" fill="#12263f"/>
      <path id="Trazado_26737-5" data-name="Trazado 26737" d="M8.19,9.157A1.845,1.845,0,1,1,6.345,7.313,1.845,1.845,0,0,1,8.19,9.157Z" transform="translate(-4.5 -7.313)" fill="#12263f"/>
      <path id="Trazado_26738-5" data-name="Trazado 26738" d="M8.19,26.595A1.845,1.845,0,1,1,6.345,24.75,1.845,1.845,0,0,1,8.19,26.595Z" transform="translate(-4.5 -10.285)" fill="#12263f"/>
      <path id="Trazado_26741-5" data-name="Trazado 26741" d="M13.394,10.265H53.909a1.054,1.054,0,0,0,0-2.108H13.394a1.054,1.054,0,1,0,0,2.108Z" transform="translate(-5.93 -7.366)" fill="#12263f"/>
      <path id="Trazado_26744-5" data-name="Trazado 26744" d="M13.394,10.265H53.909a1.054,1.054,0,0,0,0-2.108H13.394a1.054,1.054,0,1,0,0,2.108Z" transform="translate(-5.93 -0.133)" fill="#12263f"/>
      <path id="Trazado_26745-5" data-name="Trazado 26745" d="M13.394,10.265H53.909a1.054,1.054,0,0,0,0-2.108H13.394a1.054,1.054,0,1,0,0,2.108Z" transform="translate(-5.93 7.099)" fill="#12263f"/>
    </g>
    <g id="Icon_ionic-ios-list-6" data-name="Icon ionic-ios-list" transform="translate(473.967 7340)">
      <path id="Trazado_26736-6" data-name="Trazado 26736" d="M8.19,17.876a1.845,1.845,0,1,1-1.845-1.845A1.845,1.845,0,0,1,8.19,17.876Z" transform="translate(-4.5 -8.799)" fill="#12263f"/>
      <path id="Trazado_26737-6" data-name="Trazado 26737" d="M8.19,9.157A1.845,1.845,0,1,1,6.345,7.313,1.845,1.845,0,0,1,8.19,9.157Z" transform="translate(-4.5 -7.313)" fill="#12263f"/>
      <path id="Trazado_26738-6" data-name="Trazado 26738" d="M8.19,26.595A1.845,1.845,0,1,1,6.345,24.75,1.845,1.845,0,0,1,8.19,26.595Z" transform="translate(-4.5 -10.285)" fill="#12263f"/>
      <path id="Trazado_26741-6" data-name="Trazado 26741" d="M13.394,10.265H53.909a1.054,1.054,0,0,0,0-2.108H13.394a1.054,1.054,0,1,0,0,2.108Z" transform="translate(-5.93 -7.366)" fill="#12263f"/>
      <path id="Trazado_26744-6" data-name="Trazado 26744" d="M13.394,10.265H53.909a1.054,1.054,0,0,0,0-2.108H13.394a1.054,1.054,0,1,0,0,2.108Z" transform="translate(-5.93 -0.133)" fill="#12263f"/>
      <path id="Trazado_26745-6" data-name="Trazado 26745" d="M13.394,10.265H53.909a1.054,1.054,0,0,0,0-2.108H13.394a1.054,1.054,0,1,0,0,2.108Z" transform="translate(-5.93 7.099)" fill="#12263f"/>
    </g>
    <g id="Icon_ionic-ios-list-7" data-name="Icon ionic-ios-list" transform="translate(476.967 7427)">
      <path id="Trazado_26736-7" data-name="Trazado 26736" d="M8.19,17.876a1.845,1.845,0,1,1-1.845-1.845A1.845,1.845,0,0,1,8.19,17.876Z" transform="translate(-4.5 -8.799)" fill="#12263f"/>
      <path id="Trazado_26737-7" data-name="Trazado 26737" d="M8.19,9.157A1.845,1.845,0,1,1,6.345,7.313,1.845,1.845,0,0,1,8.19,9.157Z" transform="translate(-4.5 -7.313)" fill="#12263f"/>
      <path id="Trazado_26738-7" data-name="Trazado 26738" d="M8.19,26.595A1.845,1.845,0,1,1,6.345,24.75,1.845,1.845,0,0,1,8.19,26.595Z" transform="translate(-4.5 -10.285)" fill="#12263f"/>
      <path id="Trazado_26741-7" data-name="Trazado 26741" d="M13.394,10.265H53.909a1.054,1.054,0,0,0,0-2.108H13.394a1.054,1.054,0,1,0,0,2.108Z" transform="translate(-5.93 -7.366)" fill="#12263f"/>
      <path id="Trazado_26744-7" data-name="Trazado 26744" d="M13.394,10.265H53.909a1.054,1.054,0,0,0,0-2.108H13.394a1.054,1.054,0,1,0,0,2.108Z" transform="translate(-5.93 -0.133)" fill="#12263f"/>
      <path id="Trazado_26745-7" data-name="Trazado 26745" d="M13.394,10.265H53.909a1.054,1.054,0,0,0,0-2.108H13.394a1.054,1.054,0,1,0,0,2.108Z" transform="translate(-5.93 7.099)" fill="#12263f"/>
    </g>
    <g id="Icon_ionic-ios-list-8" data-name="Icon ionic-ios-list" transform="translate(452 7384)">
      <path id="Trazado_26736-8" data-name="Trazado 26736" d="M8.19,17.876a1.845,1.845,0,1,1-1.845-1.845A1.845,1.845,0,0,1,8.19,17.876Z" transform="translate(-4.5 -8.799)" fill="#12263f"/>
      <path id="Trazado_26737-8" data-name="Trazado 26737" d="M8.19,9.157A1.845,1.845,0,1,1,6.345,7.313,1.845,1.845,0,0,1,8.19,9.157Z" transform="translate(-4.5 -7.313)" fill="#12263f"/>
      <path id="Trazado_26738-8" data-name="Trazado 26738" d="M8.19,26.595A1.845,1.845,0,1,1,6.345,24.75,1.845,1.845,0,0,1,8.19,26.595Z" transform="translate(-4.5 -10.285)" fill="#12263f"/>
    </g>
    <path id="Trazado_825169" data-name="Trazado 825169" d="M5,0H215a5,5,0,0,1,5,5V45a5,5,0,0,1-5,5H5a5,5,0,0,1-5-5V5A5,5,0,0,1,5,0Z" transform="translate(975 7138)" fill="#4dd0e1"/>
    <path id="Trazado_825170" data-name="Trazado 825170" d="M5,0H215a5,5,0,0,1,5,5V45a5,5,0,0,1-5,5H5a5,5,0,0,1-5-5V5A5,5,0,0,1,5,0Z" transform="translate(975 7203)" fill="#4dd0e1"/>
    <path id="Trazado_825171" data-name="Trazado 825171" d="M5,0H215a5,5,0,0,1,5,5V45a5,5,0,0,1-5,5H5a5,5,0,0,1-5-5V5A5,5,0,0,1,5,0Z" transform="translate(975 7268)" fill="#4dd0e1"/>
    <path id="Trazado_825172" data-name="Trazado 825172" d="M5,0H48V50H5a5,5,0,0,1-5-5V5A5,5,0,0,1,5,0Z" transform="translate(975 7138)" fill="#3ab4c4"/>
    <path id="Trazado_825173" data-name="Trazado 825173" d="M5,0H48V50H5a5,5,0,0,1-5-5V5A5,5,0,0,1,5,0Z" transform="translate(975 7203)" fill="#3ab4c4"/>
    <path id="Trazado_825174" data-name="Trazado 825174" d="M5,0H48V50H5a5,5,0,0,1-5-5V5A5,5,0,0,1,5,0Z" transform="translate(975 7268)" fill="#3ab4c4"/>
    <path id="Trazado_825175" data-name="Trazado 825175" d="M19.142,19H15.733V13.063H10.685V19H7.257V4.781h3.428v5.645h5.049V4.781h3.408ZM28.4,19H25.1V8.492l-3.242.947v-2.5L28.1,4.781h.3Z" transform="translate(1031 7151)" fill="#12263f"/>
    <path id="Trazado_825176" data-name="Trazado 825176" d="M19.142,19H15.733V13.063H10.685V19H7.257V4.781h3.428v5.645h5.049V4.781h3.408Zm11.885,0H21.1V16.852l4.57-4.8q1.689-1.924,1.689-3.057a2.126,2.126,0,0,0-.4-1.4A1.43,1.43,0,0,0,25.8,7.115a1.447,1.447,0,0,0-1.221.64,2.629,2.629,0,0,0-.469,1.6h-3.3a4.67,4.67,0,0,1,.654-2.417A4.588,4.588,0,0,1,23.282,5.2a5.4,5.4,0,0,1,2.6-.625,5.308,5.308,0,0,1,3.55,1.064A3.8,3.8,0,0,1,30.675,8.7a4.439,4.439,0,0,1-.312,1.636A7.173,7.173,0,0,1,29.391,12a24.476,24.476,0,0,1-2.124,2.339l-1.836,2.119h5.6Z" transform="translate(1031 7216)" fill="#12263f"/>
    <path id="Trazado_825177" data-name="Trazado 825177" d="M19.142,19H15.733V13.063H10.685V19H7.257V4.781h3.428v5.645h5.049V4.781h3.408Zm4.971-8.486h1.553a1.614,1.614,0,0,0,1.846-1.807,1.562,1.562,0,0,0-.439-1.147,1.666,1.666,0,0,0-1.24-.444,1.784,1.784,0,0,0-1.138.381,1.162,1.162,0,0,0-.483.947H20.919a3.369,3.369,0,0,1,.625-2,4.127,4.127,0,0,1,1.733-1.372,5.926,5.926,0,0,1,2.437-.493,5.823,5.823,0,0,1,3.73,1.084A3.6,3.6,0,0,1,30.8,8.639a3,3,0,0,1-.562,1.733A4,4,0,0,1,28.6,11.7a3.823,3.823,0,0,1,1.777,1.245,3.279,3.279,0,0,1,.645,2.065,3.669,3.669,0,0,1-1.465,3.047A6.08,6.08,0,0,1,25.714,19.2a6.306,6.306,0,0,1-2.593-.532,4.062,4.062,0,0,1-1.812-1.475,3.834,3.834,0,0,1-.615-2.144H24a1.482,1.482,0,0,0,.527,1.133,1.862,1.862,0,0,0,1.3.479,1.95,1.95,0,0,0,1.387-.483,1.616,1.616,0,0,0,.518-1.235,1.889,1.889,0,0,0-.537-1.523,2.245,2.245,0,0,0-1.484-.449h-1.6Z" transform="translate(1031 7281)" fill="#12263f"/>
    <path id="Icon_awesome-star-8" data-name="Icon awesome-star" d="M11.687.8l-2.8,5.935-6.268.955a1.453,1.453,0,0,0-.759,2.447l4.535,4.617L5.32,21.274a1.386,1.386,0,0,0,1.991,1.511l5.607-3.08,5.607,3.08a1.387,1.387,0,0,0,1.991-1.511l-1.073-6.522,4.535-4.617a1.453,1.453,0,0,0-.759-2.447l-6.268-.955L14.149.8a1.349,1.349,0,0,0-2.463,0Z" transform="translate(986.209 7151.501)" fill="none" stroke="#12263f" stroke-linecap="round" stroke-linejoin="round" stroke-width="3"/>
    <path id="Icon_awesome-star-9" data-name="Icon awesome-star" d="M11.687.8l-2.8,5.935-6.268.955a1.453,1.453,0,0,0-.759,2.447l4.535,4.617L5.32,21.274a1.386,1.386,0,0,0,1.991,1.511l5.607-3.08,5.607,3.08a1.387,1.387,0,0,0,1.991-1.511l-1.073-6.522,4.535-4.617a1.453,1.453,0,0,0-.759-2.447l-6.268-.955L14.149.8a1.349,1.349,0,0,0-2.463,0Z" transform="translate(986.209 7216.501)" fill="none" stroke="#12263f" stroke-linecap="round" stroke-linejoin="round" stroke-width="3"/>
    <path id="Icon_awesome-star-10" data-name="Icon awesome-star" d="M11.687.8l-2.8,5.935-6.268.955a1.453,1.453,0,0,0-.759,2.447l4.535,4.617L5.32,21.274a1.386,1.386,0,0,0,1.991,1.511l5.607-3.08,5.607,3.08a1.387,1.387,0,0,0,1.991-1.511l-1.073-6.522,4.535-4.617a1.453,1.453,0,0,0-.759-2.447l-6.268-.955L14.149.8a1.349,1.349,0,0,0-2.463,0Z" transform="translate(986.209 7281.501)" fill="none" stroke="#12263f" stroke-linecap="round" stroke-linejoin="round" stroke-width="3"/>
    <g id="Icon_ionic-ios-list-9" data-name="Icon ionic-ios-list" transform="translate(1079.967 7154)">
      <path id="Trazado_26736-9" data-name="Trazado 26736" d="M8.19,17.876a1.845,1.845,0,1,1-1.845-1.845A1.845,1.845,0,0,1,8.19,17.876Z" transform="translate(-4.5 -8.799)" fill="#12263f"/>
      <path id="Trazado_26737-9" data-name="Trazado 26737" d="M8.19,9.157A1.845,1.845,0,1,1,6.345,7.313,1.845,1.845,0,0,1,8.19,9.157Z" transform="translate(-4.5 -7.313)" fill="#12263f"/>
      <path id="Trazado_26738-9" data-name="Trazado 26738" d="M8.19,26.595A1.845,1.845,0,1,1,6.345,24.75,1.845,1.845,0,0,1,8.19,26.595Z" transform="translate(-4.5 -10.285)" fill="#12263f"/>
      <path id="Trazado_26741-8" data-name="Trazado 26741" d="M13.394,10.265H53.909a1.054,1.054,0,0,0,0-2.108H13.394a1.054,1.054,0,1,0,0,2.108Z" transform="translate(-5.93 -7.366)" fill="#12263f"/>
      <path id="Trazado_26744-8" data-name="Trazado 26744" d="M13.394,10.265H53.909a1.054,1.054,0,0,0,0-2.108H13.394a1.054,1.054,0,1,0,0,2.108Z" transform="translate(-5.93 -0.133)" fill="#12263f"/>
      <path id="Trazado_26745-8" data-name="Trazado 26745" d="M13.394,10.265H53.909a1.054,1.054,0,0,0,0-2.108H13.394a1.054,1.054,0,1,0,0,2.108Z" transform="translate(-5.93 7.099)" fill="#12263f"/>
    </g>
    <g id="Icon_ionic-ios-list-10" data-name="Icon ionic-ios-list" transform="translate(1079.967 7219)">
      <path id="Trazado_26736-10" data-name="Trazado 26736" d="M8.19,17.876a1.845,1.845,0,1,1-1.845-1.845A1.845,1.845,0,0,1,8.19,17.876Z" transform="translate(-4.5 -8.799)" fill="#12263f"/>
      <path id="Trazado_26737-10" data-name="Trazado 26737" d="M8.19,9.157A1.845,1.845,0,1,1,6.345,7.313,1.845,1.845,0,0,1,8.19,9.157Z" transform="translate(-4.5 -7.313)" fill="#12263f"/>
      <path id="Trazado_26738-10" data-name="Trazado 26738" d="M8.19,26.595A1.845,1.845,0,1,1,6.345,24.75,1.845,1.845,0,0,1,8.19,26.595Z" transform="translate(-4.5 -10.285)" fill="#12263f"/>
      <path id="Trazado_26741-9" data-name="Trazado 26741" d="M13.394,10.265H53.909a1.054,1.054,0,0,0,0-2.108H13.394a1.054,1.054,0,1,0,0,2.108Z" transform="translate(-5.93 -7.366)" fill="#12263f"/>
      <path id="Trazado_26744-9" data-name="Trazado 26744" d="M13.394,10.265H53.909a1.054,1.054,0,0,0,0-2.108H13.394a1.054,1.054,0,1,0,0,2.108Z" transform="translate(-5.93 -0.133)" fill="#12263f"/>
      <path id="Trazado_26745-9" data-name="Trazado 26745" d="M13.394,10.265H53.909a1.054,1.054,0,0,0,0-2.108H13.394a1.054,1.054,0,1,0,0,2.108Z" transform="translate(-5.93 7.099)" fill="#12263f"/>
    </g>
    <g id="Icon_ionic-ios-list-11" data-name="Icon ionic-ios-list" transform="translate(1079.967 7284)">
      <path id="Trazado_26736-11" data-name="Trazado 26736" d="M8.19,17.876a1.845,1.845,0,1,1-1.845-1.845A1.845,1.845,0,0,1,8.19,17.876Z" transform="translate(-4.5 -8.799)" fill="#12263f"/>
      <path id="Trazado_26737-11" data-name="Trazado 26737" d="M8.19,9.157A1.845,1.845,0,1,1,6.345,7.313,1.845,1.845,0,0,1,8.19,9.157Z" transform="translate(-4.5 -7.313)" fill="#12263f"/>
      <path id="Trazado_26738-11" data-name="Trazado 26738" d="M8.19,26.595A1.845,1.845,0,1,1,6.345,24.75,1.845,1.845,0,0,1,8.19,26.595Z" transform="translate(-4.5 -10.285)" fill="#12263f"/>
      <path id="Trazado_26741-10" data-name="Trazado 26741" d="M13.394,10.265H53.909a1.054,1.054,0,0,0,0-2.108H13.394a1.054,1.054,0,1,0,0,2.108Z" transform="translate(-5.93 -7.366)" fill="#12263f"/>
      <path id="Trazado_26744-10" data-name="Trazado 26744" d="M13.394,10.265H53.909a1.054,1.054,0,0,0,0-2.108H13.394a1.054,1.054,0,1,0,0,2.108Z" transform="translate(-5.93 -0.133)" fill="#12263f"/>
      <path id="Trazado_26745-10" data-name="Trazado 26745" d="M13.394,10.265H53.909a1.054,1.054,0,0,0,0-2.108H13.394a1.054,1.054,0,1,0,0,2.108Z" transform="translate(-5.93 7.099)" fill="#12263f"/>
    </g>
    <g id="Icon_feather-check-circle" data-name="Icon feather-check-circle" transform="translate(1141.926 7275.009)">
      <path id="Trazado_26746" data-name="Trazado 26746" d="M33,16.62V18A15,15,0,1,1,24.105,4.29" fill="none" stroke="#1565c0" stroke-linecap="round" stroke-linejoin="round" stroke-width="3"/>
      <path id="Trazado_26747" data-name="Trazado 26747" d="M33,6,18,21.015l-4.5-4.5" fill="none" stroke="#1565c0" stroke-linecap="round" stroke-linejoin="round" stroke-width="3"/>
    </g>
    <g id="Icon_feather-check-circle-2" data-name="Icon feather-check-circle" transform="translate(1141.926 7210.086)">
      <path id="Trazado_26746-2" data-name="Trazado 26746" d="M33,16.62V18A15,15,0,1,1,24.105,4.29" fill="none" stroke="#1565c0" stroke-linecap="round" stroke-linejoin="round" stroke-width="3"/>
      <path id="Trazado_26747-2" data-name="Trazado 26747" d="M33,6,18,21.015l-4.5-4.5" fill="none" stroke="#1565c0" stroke-linecap="round" stroke-linejoin="round" stroke-width="3"/>
    </g>
    <g id="Icon_feather-check-circle-3" data-name="Icon feather-check-circle" transform="translate(1141.926 7145.086)">
      <path id="Trazado_26746-3" data-name="Trazado 26746" d="M33,16.62V18A15,15,0,1,1,24.105,4.29" fill="none" stroke="#1565c0" stroke-linecap="round" stroke-linejoin="round" stroke-width="3"/>
      <path id="Trazado_26747-3" data-name="Trazado 26747" d="M33,6,18,21.015l-4.5-4.5" fill="none" stroke="#1565c0" stroke-linecap="round" stroke-linejoin="round" stroke-width="3"/>
    </g>
    <path id="Icon_awesome-user-alt" data-name="Icon awesome-user-alt" d="M12.154,13.673A6.837,6.837,0,1,0,5.317,6.837,6.838,6.838,0,0,0,12.154,13.673Zm6.077,1.519H15.615a8.264,8.264,0,0,1-6.922,0H6.077A6.076,6.076,0,0,0,0,21.269v.76a2.279,2.279,0,0,0,2.279,2.279h19.75a2.279,2.279,0,0,0,2.279-2.279v-.76A6.076,6.076,0,0,0,18.231,15.192Z" transform="translate(1205.846 7281)" fill="#40b8e2"/>
    <path id="Icon_awesome-user-alt-2" data-name="Icon awesome-user-alt" d="M12.154,13.673A6.837,6.837,0,1,0,5.317,6.837,6.838,6.838,0,0,0,12.154,13.673Zm6.077,1.519H15.615a8.264,8.264,0,0,1-6.922,0H6.077A6.076,6.076,0,0,0,0,21.269v.76a2.279,2.279,0,0,0,2.279,2.279h19.75a2.279,2.279,0,0,0,2.279-2.279v-.76A6.076,6.076,0,0,0,18.231,15.192Z" transform="translate(1205.846 7216)" fill="#ffa726"/>
    <path id="Icon_awesome-user-alt-3" data-name="Icon awesome-user-alt" d="M12.154,13.673A6.837,6.837,0,1,0,5.317,6.837,6.838,6.838,0,0,0,12.154,13.673Zm6.077,1.519H15.615a8.264,8.264,0,0,1-6.922,0H6.077A6.076,6.076,0,0,0,0,21.269v.76a2.279,2.279,0,0,0,2.279,2.279h19.75a2.279,2.279,0,0,0,2.279-2.279v-.76A6.076,6.076,0,0,0,18.231,15.192Z" transform="translate(1205.846 7151)" fill="#26a69a"/>
    <path id="Trazado_825178" data-name="Trazado 825178" d="M6.538,15.99V21H3.608V6.781H9.155a6.417,6.417,0,0,1,2.817.586,4.318,4.318,0,0,1,1.87,1.665,4.643,4.643,0,0,1,.654,2.456,4.083,4.083,0,0,1-1.431,3.3,5.959,5.959,0,0,1-3.96,1.206Zm0-2.373H9.155a2.573,2.573,0,0,0,1.772-.547,1.989,1.989,0,0,0,.61-1.562,2.345,2.345,0,0,0-.615-1.689,2.3,2.3,0,0,0-1.7-.664H6.538ZM19.3,21H16.47V6H19.3Zm8.447,0a3.134,3.134,0,0,1-.283-.947A3.415,3.415,0,0,1,24.8,21.2a3.752,3.752,0,0,1-2.573-.9,2.89,2.89,0,0,1-1.021-2.266,2.986,2.986,0,0,1,1.245-2.578,6.144,6.144,0,0,1,3.6-.908h1.3v-.605a1.741,1.741,0,0,0-.376-1.172,1.479,1.479,0,0,0-1.187-.439,1.682,1.682,0,0,0-1.118.342,1.161,1.161,0,0,0-.405.938H21.44a2.835,2.835,0,0,1,.566-1.7,3.744,3.744,0,0,1,1.6-1.226,5.837,5.837,0,0,1,2.324-.444,4.611,4.611,0,0,1,3.1.981,3.433,3.433,0,0,1,1.147,2.759v4.58a5.052,5.052,0,0,0,.42,2.275V21Zm-2.334-1.963a2.431,2.431,0,0,0,1.152-.278,1.828,1.828,0,0,0,.781-.747V16.2H26.294q-2.119,0-2.256,1.465l-.01.166a1.13,1.13,0,0,0,.371.869A1.441,1.441,0,0,0,25.415,19.037Zm9.531-8.6.088,1.221a3.689,3.689,0,0,1,3.037-1.416,3.066,3.066,0,0,1,2.5.986,4.6,4.6,0,0,1,.84,2.949V21H38.589V14.227A1.838,1.838,0,0,0,38.2,12.92a1.746,1.746,0,0,0-1.3-.406,1.941,1.941,0,0,0-1.787,1.018V21H32.29V10.434ZM48.413,21.2a5.187,5.187,0,0,1-3.784-1.426,5.068,5.068,0,0,1-1.46-3.8V15.7a6.383,6.383,0,0,1,.615-2.847,4.515,4.515,0,0,1,1.743-1.934,4.893,4.893,0,0,1,2.573-.679,4.385,4.385,0,0,1,3.413,1.367,5.555,5.555,0,0,1,1.245,3.877v1.152H46.03a2.622,2.622,0,0,0,.825,1.66,2.5,2.5,0,0,0,1.743.625,3.046,3.046,0,0,0,2.549-1.182l1.387,1.553a4.237,4.237,0,0,1-1.719,1.4A5.639,5.639,0,0,1,48.413,21.2Zm-.322-8.682a1.764,1.764,0,0,0-1.362.569,2.946,2.946,0,0,0-.669,1.628h3.926v-.226a2.1,2.1,0,0,0-.508-1.457A1.819,1.819,0,0,0,48.091,12.514ZM60.483,21a3.134,3.134,0,0,1-.283-.947A3.415,3.415,0,0,1,57.534,21.2a3.752,3.752,0,0,1-2.573-.9,2.89,2.89,0,0,1-1.021-2.266,2.986,2.986,0,0,1,1.245-2.578,6.144,6.144,0,0,1,3.6-.908h1.3v-.605a1.741,1.741,0,0,0-.376-1.172,1.479,1.479,0,0,0-1.187-.439,1.682,1.682,0,0,0-1.118.342,1.161,1.161,0,0,0-.405.938H54.175a2.835,2.835,0,0,1,.566-1.7,3.744,3.744,0,0,1,1.6-1.226,5.837,5.837,0,0,1,2.324-.444,4.611,4.611,0,0,1,3.1.981,3.433,3.433,0,0,1,1.147,2.759v4.58a5.052,5.052,0,0,0,.42,2.275V21Zm-2.334-1.963a2.431,2.431,0,0,0,1.152-.278,1.828,1.828,0,0,0,.781-.747V16.2H59.028q-2.119,0-2.256,1.465l-.01.166a1.13,1.13,0,0,0,.371.869A1.441,1.441,0,0,0,58.149,19.037Zm11.328-.117a1.851,1.851,0,0,0,1.27-.43,1.506,1.506,0,0,0,.508-1.143H73.9a3.62,3.62,0,0,1-.586,1.968A3.866,3.866,0,0,1,71.738,20.7a4.936,4.936,0,0,1-2.212.493,4.587,4.587,0,0,1-3.574-1.44,5.7,5.7,0,0,1-1.309-3.979V15.59a5.635,5.635,0,0,1,1.3-3.9,4.534,4.534,0,0,1,3.564-1.455,4.444,4.444,0,0,1,3.179,1.128,3.994,3.994,0,0,1,1.216,3H71.255a1.939,1.939,0,0,0-.508-1.34,1.887,1.887,0,0,0-2.778.2,4.166,4.166,0,0,0-.5,2.333v.293a4.219,4.219,0,0,0,.5,2.347A1.721,1.721,0,0,0,69.478,18.92ZM78.491,21H75.659V10.434h2.832Zm-3-13.3a1.39,1.39,0,0,1,.425-1.045,1.831,1.831,0,0,1,2.31,0,1.382,1.382,0,0,1,.43,1.045,1.386,1.386,0,0,1-.435,1.055,1.81,1.81,0,0,1-2.295,0A1.386,1.386,0,0,1,75.493,7.7Zm4.883,7.92a6.266,6.266,0,0,1,.605-2.8,4.432,4.432,0,0,1,1.743-1.9,5.086,5.086,0,0,1,2.642-.674,4.812,4.812,0,0,1,3.491,1.309A5.252,5.252,0,0,1,90.366,15.1l.02.723a5.523,5.523,0,0,1-1.357,3.9,5.261,5.261,0,0,1-7.29,0,5.62,5.62,0,0,1-1.362-3.984Zm2.822.2a3.95,3.95,0,0,0,.566,2.3,2.035,2.035,0,0,0,3.223.01,4.322,4.322,0,0,0,.576-2.518,3.91,3.91,0,0,0-.576-2.289,1.873,1.873,0,0,0-1.621-.812,1.842,1.842,0,0,0-1.6.807A4.395,4.395,0,0,0,83.2,15.819ZM85.923,6H89L86.294,9.027H84Zm8.8,4.434.088,1.221a3.689,3.689,0,0,1,3.037-1.416,3.066,3.066,0,0,1,2.5.986,4.6,4.6,0,0,1,.84,2.949V21H98.364V14.227a1.838,1.838,0,0,0-.391-1.307,1.746,1.746,0,0,0-1.3-.406,1.941,1.941,0,0,0-1.787,1.018V21H92.065V10.434Zm13.145,5.205a6.368,6.368,0,0,1,1.108-3.936,3.6,3.6,0,0,1,3.032-1.465,3.236,3.236,0,0,1,2.549,1.152V6h2.832V21h-2.549l-.137-1.123a3.321,3.321,0,0,1-2.715,1.318,3.587,3.587,0,0,1-2.993-1.47A6.573,6.573,0,0,1,107.866,15.639Zm2.822.2a4.194,4.194,0,0,0,.518,2.286,1.685,1.685,0,0,0,1.5.795,1.888,1.888,0,0,0,1.846-1.109V13.622a1.861,1.861,0,0,0-1.826-1.109Q110.688,12.514,110.688,15.839Zm13.75,5.356a5.187,5.187,0,0,1-3.784-1.426,5.068,5.068,0,0,1-1.46-3.8V15.7a6.383,6.383,0,0,1,.615-2.847,4.515,4.515,0,0,1,1.743-1.934,4.893,4.893,0,0,1,2.573-.679,4.385,4.385,0,0,1,3.413,1.367,5.555,5.555,0,0,1,1.245,3.877v1.152h-6.729a2.622,2.622,0,0,0,.825,1.66,2.5,2.5,0,0,0,1.743.625,3.046,3.046,0,0,0,2.549-1.182l1.387,1.553a4.237,4.237,0,0,1-1.719,1.4A5.639,5.639,0,0,1,124.438,21.2Zm-.322-8.682a1.764,1.764,0,0,0-1.362.569,2.946,2.946,0,0,0-.669,1.628h3.926v-.226a2.1,2.1,0,0,0-.508-1.457A1.819,1.819,0,0,0,124.116,12.514ZM133.364,21h-2.832V6h2.832Zm14.248-3.8q.205-1.162-1.143-1.777l-1.885-.752q-3.281-1.465-3.115-4.033a3.7,3.7,0,0,1,.781-2.109,4.7,4.7,0,0,1,2-1.44,7.088,7.088,0,0,1,2.783-.5,4.822,4.822,0,0,1,3.33,1.226,4.084,4.084,0,0,1,1.25,3.179h-2.852a2.035,2.035,0,0,0-.425-1.5,1.914,1.914,0,0,0-1.47-.557,2.963,2.963,0,0,0-1.7.444,1.823,1.823,0,0,0-.859,1.274q-.186,1.064,1.426,1.689l1.289.488.742.342q2.881,1.426,2.7,4a3.863,3.863,0,0,1-.806,2.173,4.542,4.542,0,0,1-1.953,1.4,6.957,6.957,0,0,1-2.72.459,6.092,6.092,0,0,1-2.7-.635,4.186,4.186,0,0,1-1.8-1.709,4.425,4.425,0,0,1-.537-2.344l2.861.01q-.137,2.314,2.275,2.354a2.989,2.989,0,0,0,1.719-.459A1.787,1.787,0,0,0,147.612,17.2Zm14.17-1.455a8.727,8.727,0,0,1-.869,2.949,4.782,4.782,0,0,1-1.65,1.914,3.823,3.823,0,0,1-2.187.6,3.05,3.05,0,0,1-2.422-1.143l-.967,5h-2.754l2.529-14.629,2.539-.01-.186,1.064a3.374,3.374,0,0,1,2.7-1.25,3,3,0,0,1,2.412,1.128,4.9,4.9,0,0,1,.918,2.954A11.418,11.418,0,0,1,161.782,15.746Zm-2.734-.2.059-.939a2.612,2.612,0,0,0-.347-1.506,1.244,1.244,0,0,0-1.069-.577,2.273,2.273,0,0,0-1.982,1.017l-.791,4.362a1.541,1.541,0,0,0,1.553,1.027,1.987,1.987,0,0,0,1.66-.773A5.292,5.292,0,0,0,159.048,15.546Zm10.84-2.466a5.686,5.686,0,0,0-.928-.1,2.67,2.67,0,0,0-2.334,1.1L165.405,21h-2.754l1.836-10.566,2.588-.01-.254,1.289a2.906,2.906,0,0,1,2.461-1.494,4.017,4.017,0,0,1,.957.137ZM172.739,21h-2.773L171.8,10.434h2.773Zm-.615-13.252a1.376,1.376,0,0,1,.43-1.084,1.653,1.653,0,0,1,2.168-.049A1.37,1.37,0,0,1,175.2,7.65a1.415,1.415,0,0,1-.405,1.055,1.519,1.519,0,0,1-1.108.469,1.544,1.544,0,0,1-1.079-.371A1.363,1.363,0,0,1,172.124,7.748Zm7.3,2.676-.234,1.25a3.8,3.8,0,0,1,3.076-1.436,2.535,2.535,0,0,1,2.207,1.094A4.407,4.407,0,0,1,185,14.281L183.882,21h-2.754l1.133-6.748a3.16,3.16,0,0,0,.02-.693,1.118,1.118,0,0,0-1.25-1.025,2.37,2.37,0,0,0-1.943,1.006L177.769,21h-2.754l1.836-10.566Zm12.2-2.588-.459,2.6h1.758l-.361,2.07h-1.758l-.9,5.293a1.346,1.346,0,0,0,.078.762q.137.264.664.283.156.01.84-.049l-.2,2.158a4.632,4.632,0,0,1-1.582.225,2.482,2.482,0,0,1-2.021-.85,3.07,3.07,0,0,1-.547-2.246l.908-5.576h-1.494l.361-2.07h1.494l.449-2.6Z" transform="translate(662 7053)" fill="#12263f"/>
    <path id="Icon_awesome-arrow-right" data-name="Icon awesome-arrow-right" d="M13.395,4.7l1.561-1.561a1.681,1.681,0,0,1,2.384,0L31.008,16.8a1.681,1.681,0,0,1,0,2.384L17.339,32.857a1.681,1.681,0,0,1-2.384,0L13.395,31.3a1.689,1.689,0,0,1,.028-2.412L21.9,20.813H1.688A1.683,1.683,0,0,1,0,19.125v-2.25a1.683,1.683,0,0,1,1.688-1.687H21.9L13.423,7.116A1.677,1.677,0,0,1,13.395,4.7Z" transform="translate(920.1 7209.353)" fill="#1565c0"/>
    <path id="Icon_awesome-arrow-right-2" data-name="Icon awesome-arrow-right" d="M13.395,4.7l1.561-1.561a1.681,1.681,0,0,1,2.384,0L31.008,16.8a1.681,1.681,0,0,1,0,2.384L17.339,32.857a1.681,1.681,0,0,1-2.384,0L13.395,31.3a1.689,1.689,0,0,1,.028-2.412L21.9,20.813H1.688A1.683,1.683,0,0,1,0,19.125v-2.25a1.683,1.683,0,0,1,1.688-1.687H21.9L13.423,7.116A1.677,1.677,0,0,1,13.395,4.7Z" transform="translate(566.1 7209.353)" fill="#1565c0"/>
    <path id="Trazado_825179" data-name="Trazado 825179" d="M10,0H274a10,10,0,0,1,10,10V274a10,10,0,0,1-10,10H10A10,10,0,0,1,0,274V10A10,10,0,0,1,10,0Z" transform="translate(618 7085)" fill="#e3edf8"/>
    <path id="Trazado_825180" data-name="Trazado 825180" d="M23.692,6.12H20.6L19.057,15H17.779l1.538-8.88h-3.1l.191-1.073h7.472Zm2.96,9.017a2.667,2.667,0,0,1-2.16-1.019,3.505,3.505,0,0,1-.656-2.536l.034-.294a4.921,4.921,0,0,1,.653-2.01,3.8,3.8,0,0,1,1.309-1.371A3.054,3.054,0,0,1,27.5,7.467a2.352,2.352,0,0,1,1.791.759A3.121,3.121,0,0,1,30,10.208a5.793,5.793,0,0,1-.027.889l-.075.567H25.066a2.5,2.5,0,0,0,.332,1.709,1.57,1.57,0,0,0,1.357.731,2.631,2.631,0,0,0,2.023-.984l.711.6a3.253,3.253,0,0,1-1.2,1.049A3.4,3.4,0,0,1,26.652,15.137ZM27.438,8.5a1.807,1.807,0,0,0-1.336.52,3.693,3.693,0,0,0-.906,1.606l3.6.007.027-.109a2.024,2.024,0,0,0-.277-1.432A1.3,1.3,0,0,0,27.438,8.5Zm7.8,6.5a1.657,1.657,0,0,1-.048-.39l.021-.39a3.032,3.032,0,0,1-2.16.916,2.21,2.21,0,0,1-1.589-.619A1.872,1.872,0,0,1,30.9,13a2.277,2.277,0,0,1,1.029-1.835,4.38,4.38,0,0,1,2.526-.66l1.292.007.082-.588a1.352,1.352,0,0,0-.256-1.049,1.237,1.237,0,0,0-.974-.4,1.908,1.908,0,0,0-1.125.311,1.324,1.324,0,0,0-.6.858l-1.244.007A1.983,1.983,0,0,1,32.141,8.5a2.943,2.943,0,0,1,1.142-.779,3.688,3.688,0,0,1,1.442-.263,2.452,2.452,0,0,1,1.8.7,2.173,2.173,0,0,1,.54,1.788l-.6,3.664-.034.526a2.58,2.58,0,0,0,.082.745L36.5,15ZM33.3,14.043a2.158,2.158,0,0,0,1.125-.284,2.847,2.847,0,0,0,.913-.824l.267-1.524-.937-.007a3.547,3.547,0,0,0-1.791.369,1.36,1.36,0,0,0-.7,1.046,1.059,1.059,0,0,0,.243.865A1.156,1.156,0,0,0,33.3,14.043ZM40.611,7.6l-.157.827A2.892,2.892,0,0,1,42.7,7.467a2.282,2.282,0,0,1,1.193.321,1.576,1.576,0,0,1,.673.868,3.054,3.054,0,0,1,2.454-1.189,1.956,1.956,0,0,1,1.634.745,2.662,2.662,0,0,1,.39,1.928L48.233,15H47l.807-4.874a2.575,2.575,0,0,0,0-.649q-.13-.93-1.217-.95a1.869,1.869,0,0,0-1.227.42,1.945,1.945,0,0,0-.708,1.138L43.817,15H42.573l.82-4.867a1.563,1.563,0,0,0-.229-1.169,1.2,1.2,0,0,0-.988-.424,2.026,2.026,0,0,0-1.839,1.053L39.4,15H38.164l1.285-7.4Z" transform="translate(728 7094)" fill="#12263f"/>
    <g id="Grupo_27482" data-name="Grupo 27482" transform="translate(665.885 7118)">
      <g id="Grupo_27466" data-name="Grupo 27466" transform="translate(7.88 7.465)">
        <path id="Trazado_26748" data-name="Trazado 26748" d="M82.337,66.589s1.468-1.348,4.268,1.091l1.3-2.024A3.75,3.75,0,0,0,82.337,66.589Z" transform="translate(-82.337 -60.68)" fill="#1565c0"/>
        <path id="Trazado_26749" data-name="Trazado 26749" d="M89.338,57.861s-1.737,2.158.764,4.616l-1.688,1.7S84.545,59.44,89.338,57.861Z" transform="translate(-84.211 -57.861)" fill="#1565c0"/>
      </g>
      <path id="Trazado_26750" data-name="Trazado 26750" d="M78.962,148.93a14.838,14.838,0,0,1,7.829-5.987l11.465-4.249H109.2l11.461,4.249a14.842,14.842,0,0,1,7.83,5.987Z" transform="translate(-73.083 -83.314)" fill="#a4dbf7"/>
      <path id="Trazado_26751" data-name="Trazado 26751" d="M143.945,173.976h17.712c0-3.025-.2-7.336-.2-7.336-1.041-18.112-14.241-20.96-14.241-20.96-10.292-2.492-4.682,13.427-4.682,13.427A62.612,62.612,0,0,0,143.945,173.976Z" transform="translate(-98.351 -86.051)" fill="#40b8e2"/>
      <g id="Grupo_27467" data-name="Grupo 27467" transform="translate(23.133 44.631)">
        <rect id="Rectngulo_5812" data-name="Rectngulo 5812" width="15.025" height="14.649" fill="#a4dbf7"/>
      </g>
      <g id="Grupo_27468" data-name="Grupo 27468" transform="translate(23.133 44.631)">
        <path id="Trazado_26752" data-name="Trazado 26752" d="M123.094,127.369V120.56H108.069v3.372C112.355,127.5,117.517,127.952,123.094,127.369Z" transform="translate(-108.069 -120.56)" fill="#6bc7f2"/>
      </g>
      <path id="Trazado_26753" data-name="Trazado 26753" d="M124.132,171.758c.288-7.9.2-10.068.13-12.762-.157-6-1.44-11.073-5.4-15.529l-.019,0-10.711-3.493s2.253,3.942-7.592,3.942c0,0-6.485-.253-7.432-3.942l-10.877,3.493s-9.3,2.287-10.893,12.075l5.466,10.051-.194,6.17Z" transform="translate(-69.98 -83.833)" fill="#4166ad"/>
      <g id="Grupo_27469" data-name="Grupo 27469" transform="translate(10.113 0)">
        <path id="Trazado_26754" data-name="Trazado 26754" d="M147.106,78.812c.427-3.369-.29-6.6-.255-9.917.024-2.228-.411-5.591-3.182-5.873-3.839-.392-5.024,6.237-5.25,9.11-.312,3.96.67,8.241,1.433,12.116.275,1.4.247,4.2,1.822,4.873,1.347.577,2.725-.784,3.414-1.8C146.749,84.881,146.752,81.632,147.106,78.812Z" transform="translate(-107.385 -52.49)" fill="#1565c0"/>
        <path id="Trazado_26755" data-name="Trazado 26755" d="M126.488,91.906c-1.519,5.942-4.193,7.579-4.193,7.579l-3.587.7c-2.063-.262-5.624-1.1-5.624-1.1-8.194-2.785-10.568-3.538-11.838-6.652-.053-.132-6.459-22.366-6.459-22.366-1.048-11.443,10.931-13.824,12.739-14.123,1.789-.413,13.194-3.583,16.564,7.4A59.668,59.668,0,0,1,126.488,91.906Z" transform="translate(-89.615 -49.314)" fill="#a4dbf7"/>
        <path id="Trazado_26756" data-name="Trazado 26756" d="M126.746,48.225c.649,3.553.041,8.471-2.711,10.739-2.989,2.462-5.555,1.793-9.153,2.592-3.74.83-7.567,1.16-11.325,1.887-2.632.51-5.671.8-6.883,3.594a18.882,18.882,0,0,0-.839,12.1c.9,3,1.172,5.909,2.157,9.808a34.705,34.705,0,0,1-6.037-6.913c-1.694-2.98-1.694-2.98-3.6-8.164a28.786,28.786,0,0,1-2.233-8.843c-.186-4.041,1.774-5.8,3.931-9.512a14.6,14.6,0,0,1,8.58-7.009s18.8,1.056,18.451-3.239c0,0,4.516,1.153,3.657,4.156,0,0,4.725-.862,3.723-4.156A4.409,4.409,0,0,1,126.746,48.225Z" transform="translate(-86.105 -45.267)" fill="#1565c0"/>
        <path id="Trazado_26757" data-name="Trazado 26757" d="M99.832,99.3s-2.025-4.413-5.209-1.8c0,0-1.449,1.13.336,4.084,0,0,2.593,4.245,5.7,1.893Z" transform="translate(-89.348 -66.203)" fill="#a4dbf7"/>
        <path id="Trazado_26758" data-name="Trazado 26758" d="M100.733,83.746s.013,7.9,1.465,12.09l-1.539.305s-.81-5.418-3.6-5.482Z" transform="translate(-90.566 -60.937)" fill="#1565c0"/>
      </g>
      <path id="Trazado_26759" data-name="Trazado 26759" d="M85.6,174.656H69.044c.005,0,.058-3.931.066-4.209a78.361,78.361,0,0,1,1.065-11.566c1-5.445,3.639-10.272,9.458-11.656,2.663-.634,5.031.979,6.474,3.17C86.108,150.4,88.742,153.644,85.6,174.656Z" transform="translate(-69.044 -86.731)" fill="#40b8e2"/>
    </g>
    <g id="Grupo_27483" data-name="Grupo 27483" transform="translate(794.443 7118)">
      <path id="Trazado_26760" data-name="Trazado 26760" d="M293.685,103.675c-2.728-.991-4.448-3.27-7.687-2.985-5.76.508-9.848,6.983-15.392,2.59-6.71-5.321-4.948-37.325-2.039-44.574,2.467-6.148,7.015-.138,13.506-2.2,7.541-2.4,14.042,3.551,17.941,9.729A37.267,37.267,0,0,1,305.563,88.4C305.01,95.378,303.749,107.329,293.685,103.675Z" transform="translate(-257.803 -48.255)" fill="#4166ad"/>
      <g id="Grupo_27471" data-name="Grupo 27471" transform="translate(44.796 63.324)">
        <path id="Trazado_26761" data-name="Trazado 26761" d="M344.584,175.788H330.444l-2.528-10.209s-2.055-15.5,8.571-15.713c0,0,5.515,3.867,7.018,12.961A86.544,86.544,0,0,1,344.584,175.788Z" transform="translate(-327.756 -149.866)" fill="#40b8e2"/>
      </g>
      <g id="Grupo_27472" data-name="Grupo 27472" transform="translate(0 65.832)">
        <path id="Trazado_26762" data-name="Trazado 26762" d="M264.7,177.511l1.908-7.7s2.055-15.5-8.571-15.713c0,0-6.372,4.642-5.814,23.414H264.7" transform="translate(-252.186 -154.097)" fill="#40b8e2"/>
      </g>
      <g id="Grupo_27473" data-name="Grupo 27473" transform="translate(23.193 40.921)">
        <rect id="Rectngulo_5813" data-name="Rectngulo 5813" width="12.901" height="18.887" fill="#a4dbf7"/>
      </g>
      <g id="Grupo_27474" data-name="Grupo 27474" transform="translate(23.193 40.921)">
        <path id="Trazado_26763" data-name="Trazado 26763" d="M304.214,119.779v-7.708h-12.9v11.1C295.569,123.045,300.618,122.275,304.214,119.779Z" transform="translate(-291.313 -112.071)" fill="#6bc7f2"/>
      </g>
      <path id="Trazado_26764" data-name="Trazado 26764" d="M262.465,147.41a14.115,14.115,0,0,1,7.445-5.694l10.9-4.039h10.406l13.331,4.039A14.114,14.114,0,0,1,312,147.41Z" transform="translate(-256.372 -81.578)" fill="#a4dbf7"/>
      <path id="Trazado_26765" data-name="Trazado 26765" d="M263.779,171.483h42.955l-.274-8.07,6.317-9.558a14.02,14.02,0,0,0-9.583-11.481l-10.5-2.989s.626,3.418-8.036,3.418c0,0-6.959,0-7.791-3.51l-8.315,3.081a17.644,17.644,0,0,0-9.42,8.021l4.646,13.018Z" transform="translate(-255.015 -82.236)" fill="#40b8e2"/>
      <path id="Trazado_26766" data-name="Trazado 26766" d="M297.327,89.28a8.507,8.507,0,0,1-1.915,2.794,23.626,23.626,0,0,1-7.4,4.861c-3.373,1.384-8.466,1.561-11.147-1.218-2.173-2.253-3.365-5.664-4.308-8.589-1.834-5.689-1.811-11.9-1.344-17.81.107-1.347.243-2.7.467-4.029,2.1-12.884,13.122-12.855,13.122-12.855,8.324-.362,15.922,3.571,17.2,12.343.492,3.359-.156,6.967-.325,10.327a27.031,27.031,0,0,1-1.217,7.286C299.66,84.794,298.331,86.961,297.327,89.28Z" transform="translate(-259.827 -46.855)" fill="#a4dbf7"/>
      <path id="Trazado_26767" data-name="Trazado 26767" d="M268.931,73.1c-3.111-9.633-.6-20.96,3.117-24.5,10.533-10.048,29.986-6.224,35.93,9.484,1.836,4.851.974,22.943.142,28.5-1.114,7.45-3.854,12.554-9.511,12.554.151-6.143-.32-12.949.224-20.459.541-7.452-.451-7.635-6.651-11.1a18.457,18.457,0,0,1-6.793-6.324c-2.371-3.465-.587-4.678-5.281-4.52C280.108,56.731,269.2,56.358,268.931,73.1Z" transform="translate(-258.433 -43.037)" fill="#1565c0"/>
      <path id="Trazado_26768" data-name="Trazado 26768" d="M317.261,95.875s1.1-4.584,4.626-2.69c0,0,1.592.806.445,3.953,0,0-1.673,4.529-5.074,2.873Z" transform="translate(-278.685 -63.272)" fill="#a4dbf7"/>
    </g>
    <g id="Grupo_27484" data-name="Grupo 27484" transform="translate(665.885 7240.072)">
      <path id="Trazado_26769" data-name="Trazado 26769" d="M78.962,337.5a14.838,14.838,0,0,1,7.829-5.987l11.465-4.248H109.2l11.461,4.248a14.842,14.842,0,0,1,7.83,5.987Z" transform="translate(-73.083 -271.289)" fill="#a4dbf7"/>
      <path id="Trazado_26770" data-name="Trazado 26770" d="M143.945,362.542h17.712c0-3.025-.2-7.336-.2-7.336-1.041-18.112-14.241-20.96-14.241-20.96-10.292-2.492-4.682,13.427-4.682,13.427A62.612,62.612,0,0,0,143.945,362.542Z" transform="translate(-98.351 -274.026)" fill="#40b8e2"/>
      <g id="Grupo_27476" data-name="Grupo 27476" transform="translate(23.133 45.223)">
        <rect id="Rectngulo_5814" data-name="Rectngulo 5814" width="15.025" height="14.649" fill="#a4dbf7"/>
      </g>
      <g id="Grupo_27477" data-name="Grupo 27477" transform="translate(23.133 45.223)">
        <path id="Trazado_26771" data-name="Trazado 26771" d="M123.094,315.936v-6.809H108.069V312.5C112.355,316.066,117.517,316.519,123.094,315.936Z" transform="translate(-108.069 -309.127)" fill="#6bc7f2"/>
      </g>
      <path id="Trazado_26772" data-name="Trazado 26772" d="M124.132,360.324c.288-7.9.2-10.068.13-12.762-.157-6-1.44-11.073-5.4-15.529l-.019,0-10.711-3.493s2.253,3.942-7.592,3.942c0,0-6.485-.252-7.432-3.942l-10.877,3.493s-9.3,2.287-10.893,12.075l5.466,10.051-.194,6.17Z" transform="translate(-69.98 -271.808)" fill="#40b8e2"/>
      <g id="Grupo_27478" data-name="Grupo 27478" transform="translate(10.075)">
        <path id="Trazado_26773" data-name="Trazado 26773" d="M145.782,263.836c0-3.481-.148-6.956-.066-10.434.053-2.223.258-1.65-2.317-1.893-3.568-.34-4.761,6.289-5.011,9.156-.345,3.954.511,8.21,1.169,12.063.237,1.392.173,4.182,1.63,4.835,1.246.558,2.547-.819,3.2-1.837,1.505-2.344,1.239-5.926,1.338-8.586C145.768,266.038,145.782,264.936,145.782,263.836Z" transform="translate(-107.326 -240.435)" fill="#1565c0"/>
        <path id="Trazado_26774" data-name="Trazado 26774" d="M126.488,280.473c-1.519,5.942-4.193,7.58-4.193,7.58l-3.587.7c-2.063-.261-5.624-1.1-5.624-1.1-8.194-2.785-10.568-3.537-11.838-6.651-.053-.132-6.459-22.366-6.459-22.366-1.048-11.444,10.931-13.825,12.739-14.124,1.789-.413,13.194-3.582,16.564,7.4A59.668,59.668,0,0,1,126.488,280.473Z" transform="translate(-89.577 -237.289)" fill="#a4dbf7"/>
        <path id="Trazado_26775" data-name="Trazado 26775" d="M90.022,251.121c-3.98,1.918-4.117,5.472-3.931,9.512a28.793,28.793,0,0,0,2.233,8.843c1.91,5.184,1.91,5.184,3.6,8.164a34.7,34.7,0,0,0,6.037,6.913c-.985-3.9-1.26-6.813-2.157-9.808a18.884,18.884,0,0,1,.839-12.1s.907-2.457,4.631-3.158h0l-11.257-8.365" transform="translate(-86.041 -240.282)" fill="#1565c0"/>
        <path id="Trazado_26776" data-name="Trazado 26776" d="M99.832,287.869s-2.025-4.413-5.209-1.8c0,0-1.449,1.131.336,4.084,0,0,2.593,4.245,5.7,1.893Z" transform="translate(-89.31 -254.177)" fill="#a4dbf7"/>
        <path id="Trazado_26777" data-name="Trazado 26777" d="M100.733,272.313s.013,7.9,1.465,12.089l-1.539.305s-.81-5.418-3.6-5.482Z" transform="translate(-90.529 -248.912)" fill="#1565c0"/>
        <path id="Trazado_26778" data-name="Trazado 26778" d="M129.171,239.318c12.8,13.041-25.944,12.909-25.944,12.909s-4.065,1.879-10.5-8.552c0,0-1.736-8.159,16.587-10.727C109.314,232.947,121.425,231.462,129.171,239.318Z" transform="translate(-88.746 -232.835)" fill="#1565c0"/>
      </g>
      <path id="Trazado_26779" data-name="Trazado 26779" d="M85.6,363.222H69.044c.005,0,.058-3.93.066-4.209a78.361,78.361,0,0,1,1.065-11.566c1-5.444,3.639-10.272,9.458-11.656,2.663-.633,5.031.979,6.474,3.171C86.108,338.962,88.742,342.21,85.6,363.222Z" transform="translate(-69.044 -274.706)" fill="#40b8e2"/>
    </g>
    <g id="Grupo_27485" data-name="Grupo 27485" transform="translate(794.449 7242.4)">
      <path id="Trazado_26780" data-name="Trazado 26780" d="M277.247,238.834s-13.825,4.156-12.522,26.043v47.17H280.45Z" transform="translate(-257.263 -237.607)" fill="#1565c0"/>
      <path id="Trazado_26781" data-name="Trazado 26781" d="M283.258,252.978v67.764h30.069V263.659s1.976-21.9-12.393-24.588C300.934,239.071,283.258,235.869,283.258,252.978Z" transform="translate(-264.845 -237.606)" fill="#1565c0"/>
      <rect id="Rectngulo_5815" data-name="Rectngulo 5815" width="20.909" height="10.351" transform="translate(17.658 58.761)" fill="#a4dbf7"/>
      <path id="Trazado_26782" data-name="Trazado 26782" d="M344.584,364.355H330.444l-2.528-10.209s-2.055-15.5,8.571-15.712c0,0,5.515,3.867,7.018,12.961A86.544,86.544,0,0,1,344.584,364.355Z" transform="translate(-282.966 -278.167)" fill="#a4dbf7"/>
      <path id="Trazado_26783" data-name="Trazado 26783" d="M264.7,364.908l1.908-7.7s3.38-17.2-7.247-17.415c0,0-7.7,6.344-7.139,25.117H264.7" transform="translate(-252.195 -278.72)" fill="#a4dbf7"/>
      <rect id="Rectngulo_5816" data-name="Rectngulo 5816" width="12.901" height="18.887" transform="translate(23.188 37.862)" fill="#a4dbf7"/>
      <path id="Trazado_26784" data-name="Trazado 26784" d="M304.214,308.346v-7.709h-12.9v11.1C295.569,311.611,300.618,310.841,304.214,308.346Z" transform="translate(-268.125 -262.775)" fill="#6bc7f2"/>
      <path id="Trazado_26785" data-name="Trazado 26785" d="M262.465,335.976a14.115,14.115,0,0,1,7.445-5.693l10.9-4.039h10.406l13.331,4.039A14.114,14.114,0,0,1,312,335.976Z" transform="translate(-256.377 -273.203)" fill="#a4dbf7"/>
      <path id="Trazado_26786" data-name="Trazado 26786" d="M265.878,351.979v8.07h41.871l-.492-9.372c-.519-18.054,1.5-18.06,1.5-18.06a12.976,12.976,0,0,0-3.464-1.676l-10.5-2.988s-2.276,9.788-10.937,9.788c0,0-6.708-3.613-4.89-9.88l-8.315,3.081a17.528,17.528,0,0,0-6.364,3.992S265.771,335.842,265.878,351.979Z" transform="translate(-257.12 -273.861)" fill="#40b8e2"/>
      <path id="Trazado_26787" data-name="Trazado 26787" d="M297.327,277.847a8.514,8.514,0,0,1-1.915,2.794,23.646,23.646,0,0,1-7.4,4.861c-3.373,1.384-8.466,1.561-11.147-1.218-2.173-2.253-3.365-5.664-4.308-8.589-1.834-5.688-1.811-11.9-1.344-17.809.107-1.347.243-2.7.467-4.03,2.1-12.884,13.122-12.855,13.122-12.855,8.324-.363,15.922,3.57,17.2,12.343.492,3.359-.156,6.967-.325,10.326a27.031,27.031,0,0,1-1.217,7.286C299.66,273.36,298.331,275.528,297.327,277.847Z" transform="translate(-259.833 -238.48)" fill="#a4dbf7"/>
      <path id="Trazado_26788" data-name="Trazado 26788" d="M317.261,284.441s1.1-4.584,4.626-2.69c0,0,1.592.806.445,3.954,0,0-1.673,4.529-5.074,2.873Z" transform="translate(-278.691 -254.897)" fill="#a4dbf7"/>
      <path id="Trazado_26789" data-name="Trazado 26789" d="M269.973,253.614c-.593-17.684,16.192-16.844,16.192-16.844,16.5.677,17.319,8.151,17.319,8.151a41.863,41.863,0,0,1-.86,18.7c-3.507-.765-4.1,3.927-4.1,3.927.367-7.518-.248-7.971-.248-7.971a74.46,74.46,0,0,1-9.209-.63l-.237-5.242-1.29,4.967a83.929,83.929,0,0,1-15.468-2.04s-2.1.148-2.1,6.531Z" transform="translate(-259.429 -236.763)" fill="#1565c0"/>
    </g>
    <path id="Icon_awesome-clipboard-list" data-name="Icon awesome-clipboard-list" d="M23.625,4.5H18a4.5,4.5,0,0,0-9,0H3.375A3.376,3.376,0,0,0,0,7.875v24.75A3.376,3.376,0,0,0,3.375,36h20.25A3.376,3.376,0,0,0,27,32.625V7.875A3.376,3.376,0,0,0,23.625,4.5ZM6.75,29.813a1.688,1.688,0,1,1,1.688-1.687A1.683,1.683,0,0,1,6.75,29.813Zm0-6.75a1.688,1.688,0,1,1,1.688-1.687A1.683,1.683,0,0,1,6.75,23.063Zm0-6.75a1.688,1.688,0,1,1,1.688-1.687A1.683,1.683,0,0,1,6.75,16.313Zm6.75-13.5A1.688,1.688,0,1,1,11.813,4.5,1.683,1.683,0,0,1,13.5,2.813Zm9,25.875a.564.564,0,0,1-.562.563H11.813a.564.564,0,0,1-.562-.562V27.563A.564.564,0,0,1,11.813,27H21.938a.564.564,0,0,1,.563.563Zm0-6.75a.564.564,0,0,1-.562.563H11.813a.564.564,0,0,1-.562-.562V20.813a.564.564,0,0,1,.563-.562H21.938a.564.564,0,0,1,.563.563Zm0-6.75a.564.564,0,0,1-.562.563H11.813a.564.564,0,0,1-.562-.562V14.063a.564.564,0,0,1,.563-.562H21.938a.564.564,0,0,1,.563.563Z" transform="translate(747 7209)" fill="#1565c0"/>
    <path id="Icon_ionic-ios-time" data-name="Icon ionic-ios-time" d="M18,3.375A14.625,14.625,0,1,0,32.625,18,14.623,14.623,0,0,0,18,3.375Zm.984,15.891A.987.987,0,0,1,18,20.25H11.25a.984.984,0,0,1,0-1.969h5.766V9a.984.984,0,0,1,1.969,0Z" transform="translate(741.625 7256)" fill="#1565c0"/>
  </g>
</svg>
