<svg xmlns="http://www.w3.org/2000/svg" width="55.617" height="59.736" viewBox="0 0 55.617 59.736">
  <g id="Grupo_1073248" data-name="Grupo 1073248" transform="translate(-1032.9 -7389)">
    <g id="FilledOutline" transform="translate(1032.9 7389)">
      <path id="Trazado_819943" data-name="Trazado 819943" d="M67.09,32h43.257a3.09,3.09,0,0,1,3.09,3.09v51.5a3.09,3.09,0,0,1-3.09,3.09h-6.18a3.09,3.09,0,0,1-3.09-3.09v-5.15H64V35.09A3.09,3.09,0,0,1,67.09,32Z" transform="translate(-58.85 -30.97)" fill="#ccdce5"/>
      <path id="Trazado_819944" data-name="Trazado 819944" d="M67.09,32h43.257a3.09,3.09,0,0,1,3.09,3.09v5.15H64V35.09A3.09,3.09,0,0,1,67.09,32Z" transform="translate(-58.85 -30.97)" fill="#c5f5b9"/>
      <path id="Trazado_819945" data-name="Trazado 819945" d="M160,32h12.359v8.239H160Z" transform="translate(-142.491 -30.97)" fill="#c5f5b9"/>
      <path id="Trazado_819946" data-name="Trazado 819946" d="M352,32h9.269a3.09,3.09,0,0,1,3.09,3.09v5.15H352Z" transform="translate(-309.773 -30.97)" fill="#ff8b8b"/>
      <path id="Trazado_819969" data-name="Trazado 819969" d="M352,32h9.269a3.09,3.09,0,0,1,3.09,3.09v5.15H352Z" transform="translate(-322.132 -30.97)" fill="#fff2ae"/>
      <path id="Trazado_819970" data-name="Trazado 819970" d="M352,32h9.269a3.09,3.09,0,0,1,3.09,3.09v5.15H352Z" transform="translate(-334.491 -30.97)" fill="#c5f5b9"/>
      <path id="Trazado_819971" data-name="Trazado 819971" d="M352,32h9.269a3.09,3.09,0,0,1,3.09,3.09v5.15H352Z" transform="translate(-346.85 -30.97)" fill="#047fa7"/>
      <g id="Grupo_1073044" data-name="Grupo 1073044" transform="translate(5.15 9.269)">
        <path id="Trazado_819947" data-name="Trazado 819947" d="M64,96H76.359v8.239H64Z" transform="translate(-64 -96)" fill="#abbac2"/>
        <path id="Trazado_819948" data-name="Trazado 819948" d="M256,96h12.359v8.239H256Z" transform="translate(-231.282 -96)" fill="#abbac2"/>
        <path id="Trazado_819949" data-name="Trazado 819949" d="M352,160h12.359v8.239H352Z" transform="translate(-314.922 -151.761)" fill="#abbac2"/>
        <path id="Trazado_819950" data-name="Trazado 819950" d="M256,224h12.359v8.24H256Z" transform="translate(-231.282 -207.521)" fill="#abbac2"/>
        <path id="Trazado_819951" data-name="Trazado 819951" d="M160,160h12.359v8.239H160Z" transform="translate(-147.641 -151.761)" fill="#abbac2"/>
        <path id="Trazado_819952" data-name="Trazado 819952" d="M64,224H76.359v8.24H64Z" transform="translate(-64 -207.521)" fill="#abbac2"/>
        <path id="Trazado_819953" data-name="Trazado 819953" d="M352,288h12.359v8.24H352Z" transform="translate(-314.922 -263.282)" fill="#abbac2"/>
        <path id="Trazado_819954" data-name="Trazado 819954" d="M256,352h12.359v8.24H256Z" transform="translate(-231.282 -319.042)" fill="#abbac2"/>
        <path id="Trazado_819955" data-name="Trazado 819955" d="M352,416h12.359v5.15a3.09,3.09,0,0,1-3.09,3.09h-6.18a3.09,3.09,0,0,1-3.09-3.09Z" transform="translate(-314.922 -374.803)" fill="#abbac2"/>
        <path id="Trazado_819956" data-name="Trazado 819956" d="M160,288h12.359v8.24H160Z" transform="translate(-147.641 -263.282)" fill="#abbac2"/>
      </g>
      <path id="Trazado_819957" data-name="Trazado 819957" d="M59.808,347.569H35.09a3.09,3.09,0,0,1-3.09-3.09V333.15a3.09,3.09,0,0,1,3.09-3.09h5.15L42.3,328l2.06,2.06H59.808a3.09,3.09,0,0,1,3.09,3.09v11.329A3.09,3.09,0,0,1,59.808,347.569Z" transform="translate(-30.97 -288.862)" fill="#88bf40"/>
      <path id="Trazado_819958" data-name="Trazado 819958" d="M107.5,79.617V28.12a4.124,4.124,0,0,0-4.12-4.12H60.12A4.124,4.124,0,0,0,56,28.12V62.108h2.06v-3.09h10.3v3.09h2.06v-3.09h10.3v3.09h2.06v-3.09h10.3V65.2H86.9v2.06h6.18v6.18H86.9V75.5h6.18v4.12a4.124,4.124,0,0,0,4.12,4.12h6.18a4.124,4.124,0,0,0,4.12-4.12ZM93.078,40.479h-10.3V34.3h10.3Zm2.06-6.18h10.3v6.18h-10.3ZM82.778,32.24V26.06h10.3v6.18Zm-2.06,0h-10.3V26.06h10.3Zm0,2.06v6.18h-10.3V34.3Zm-12.359,6.18H58.06V34.3h10.3Zm0,2.06v6.18H58.06v-6.18Zm2.06,0h10.3v6.18h-10.3Zm12.359,0h10.3v6.18h-10.3Zm12.359,0h10.3v6.18h-10.3Zm10.3,8.24v6.18h-10.3v-6.18Zm0-22.659v4.12h-10.3V26.06h8.24A2.062,2.062,0,0,1,105.437,28.12ZM60.12,26.06h8.239v6.18H58.06V28.12A2.062,2.062,0,0,1,60.12,26.06Zm-2.06,30.9v-6.18h10.3v6.18Zm12.359,0v-6.18h10.3v6.18Zm12.359,0v-6.18h10.3v6.18Zm12.359,2.06h10.3V65.2h-10.3Zm10.3,8.239v6.18h-10.3v-6.18Zm-10.3,12.359V75.5h10.3v4.12a2.062,2.062,0,0,1-2.06,2.06H97.2a2.062,2.062,0,0,1-2.06-2.06Z" transform="translate(-51.88 -24)"/>
      <path id="Trazado_819959" data-name="Trazado 819959" d="M88,56h2.06v2.06H88Z" transform="translate(-79.761 -51.88)"/>
      <path id="Trazado_819960" data-name="Trazado 819960" d="M120,56h2.06v2.06H120Z" transform="translate(-107.641 -51.88)"/>
      <path id="Trazado_819961" data-name="Trazado 819961" d="M184,56h6.18v2.06H184Z" transform="translate(-163.401 -51.88)"/>
      <path id="Trazado_819962" data-name="Trazado 819962" d="M280,56h6.18v2.06H280Z" transform="translate(-247.042 -51.88)"/>
      <path id="Trazado_819963" data-name="Trazado 819963" d="M376,56h6.18v2.06H376Z" transform="translate(-330.683 -51.88)"/>
      <path id="Trazado_819964" data-name="Trazado 819964" d="M56.958,337.509V326.179a4.124,4.124,0,0,0-4.12-4.12H37.816L36.058,320.3a1.03,1.03,0,0,0-1.457,0l-1.758,1.758H28.12a4.124,4.124,0,0,0-4.12,4.12v11.329a4.124,4.124,0,0,0,4.12,4.12H52.838A4.124,4.124,0,0,0,56.958,337.509Zm-30.9,0V326.179a2.062,2.062,0,0,1,2.06-2.06h5.15a1.03,1.03,0,0,0,.728-.3l1.332-1.332,1.332,1.332a1.03,1.03,0,0,0,.728.3H52.838a2.062,2.062,0,0,1,2.06,2.06v11.329a2.062,2.062,0,0,1-2.06,2.06H28.12A2.062,2.062,0,0,1,26.06,337.509Z" transform="translate(-24 -281.892)"/>
      <path id="Trazado_819965" data-name="Trazado 819965" d="M80,376h2.06v2.06H80Z" transform="translate(-72.79 -330.683)"/>
      <path id="Trazado_819966" data-name="Trazado 819966" d="M112,376h16.479v2.06H112Z" transform="translate(-100.671 -330.683)"/>
      <path id="Trazado_819967" data-name="Trazado 819967" d="M64,408H86.659v2.06H64Z" transform="translate(-58.85 -358.563)"/>
      <path id="Trazado_819968" data-name="Trazado 819968" d="M64,440H82.539v2.06H64Z" transform="translate(-58.85 -386.443)"/>
    </g>
  </g>
</svg>
