<svg xmlns="http://www.w3.org/2000/svg" xmlns:xlink="http://www.w3.org/1999/xlink" width="122" height="122" viewBox="0 0 122 122">
  <defs>
    <filter id="Trazado_824659" x="0" y="0" width="122" height="122" filterUnits="userSpaceOnUse">
      <feOffset dy="3" input="SourceAlpha"/>
      <feGaussianBlur stdDeviation="7" result="blur"/>
      <feFlood flood-color="#fff" flood-opacity="0.659"/>
      <feComposite operator="in" in2="blur"/>
      <feComposite in="SourceGraphic"/>
    </filter>
  </defs>
  <g id="Grupo_1073945" data-name="Grupo 1073945" transform="translate(-267 -8200)">
    <g transform="matrix(1, 0, 0, 1, 267, 8200)" filter="url(#Trazado_824659)">
      <path id="Trazado_824659-2" data-name="Trazado 824659" d="M40,0A40,40,0,1,1,0,40,40,40,0,0,1,40,0Z" transform="translate(21 18)" fill="#ffce00"/>
    </g>
    <g id="premio" transform="translate(308.211 8226.729)">
      <path id="Trazado_824740" data-name="Trazado 824740" d="M32.466,10,42.621,27.589H27.6L17.442,10Zm0,0" transform="translate(-15.311 -8.778)" fill="#ffcb7c"/>
      <path id="Trazado_824741" data-name="Trazado 824741" d="M162.125,14.536,164.745,10h15.023L169.612,27.589" transform="translate(-142.321 -8.778)" fill="#ffc15a"/>
      <path id="Trazado_824742" data-name="Trazado 824742" d="M98.521,162.1v-6.556A1.547,1.547,0,0,0,96.974,154H79.547A1.547,1.547,0,0,0,78,155.543V162.1Zm0,0" transform="translate(-68.472 -135.185)" fill="#eff3f3"/>
      <path id="Trazado_824743" data-name="Trazado 824743" d="M47.134,216.567A18.567,18.567,0,1,1,28.567,198,18.567,18.567,0,0,1,47.134,216.567Zm0,0" transform="translate(-8.778 -173.814)" fill="#91def5"/>
      <path id="Trazado_824744" data-name="Trazado 824744" d="M83.407,258.7A12.7,12.7,0,1,1,70.7,246,12.7,12.7,0,0,1,83.407,258.7Zm0,0" transform="translate(-50.915 -215.951)" fill="#fff"/>
      <path id="Trazado_824745" data-name="Trazado 824745" d="M109.445,304.682l-3.328,2.429a.981.981,0,0,1-1.511-1.1l1.282-3.915-3.348-2.421a.981.981,0,0,1,.575-1.776h4.131l1.265-3.913a.981.981,0,0,1,1.868,0l1.265,3.913h4.131a.981.981,0,0,1,.575,1.776L113,302.1l1.282,3.915a.981.981,0,0,1-1.511,1.1Zm0,0" transform="translate(-89.656 -257.48)" fill="#ffcb7c"/>
      <path id="Trazado_824746" data-name="Trazado 824746" d="M38.027,46.46a1.221,1.221,0,0,0-1.5.858,17.345,17.345,0,1,1,0-9.131,1.221,1.221,0,1,0,2.357-.641,19.747,19.747,0,0,0-7.614-10.9V20.358a2.773,2.773,0,0,0-1.937-2.641L38.5,1.833A1.222,1.222,0,0,0,37.447,0H22.424a1.221,1.221,0,0,0-1.058.611L19.789,3.342,18.213.611A1.222,1.222,0,0,0,17.155,0H2.131A1.222,1.222,0,0,0,1.073,1.833l9.171,15.885a2.773,2.773,0,0,0-1.938,2.641v6.287A19.786,19.786,0,1,0,38.885,47.96a1.222,1.222,0,0,0-.858-1.5ZM23.129,2.443h12.2L27.3,16.353,21.2,5.785Zm-6.68,0,8.745,15.146h-12.2L4.247,2.443Zm-5.7,17.915a.326.326,0,0,1,.326-.326H28.5a.326.326,0,0,1,.326.326v4.8a19.748,19.748,0,0,0-18.078,0Zm0,0"/>
      <path id="Trazado_824747" data-name="Trazado 824747" d="M107,287.9h-3.242l-.992-3.067a2.2,2.2,0,0,0-4.192,0l-.991,3.067H94.346a2.2,2.2,0,0,0-1.291,3.988l2.625,1.9-1,3.068a2.2,2.2,0,0,0,3.392,2.464l2.608-1.9,2.608,1.9a2.2,2.2,0,0,0,3.393-2.464l-1-3.068,2.625-1.9A2.2,2.2,0,0,0,107,287.9Zm-3.488,4.429a1.222,1.222,0,0,0-.445,1.37l1.05,3.207-2.726-1.99a1.222,1.222,0,0,0-1.44,0l-2.726,1.99,1.05-3.207a1.22,1.22,0,0,0-.445-1.37l-2.746-1.986h3.389a1.222,1.222,0,0,0,1.163-.846l1.036-3.206,1.036,3.206a1.222,1.222,0,0,0,1.163.846h3.389Zm0,0" transform="translate(-80.886 -248.702)"/>
      <path id="Trazado_824748" data-name="Trazado 824748" d="M61.925,236A13.925,13.925,0,1,0,75.85,249.925,13.941,13.941,0,0,0,61.925,236Zm0,25.407a11.482,11.482,0,1,1,11.482-11.482A11.5,11.5,0,0,1,61.925,261.407Zm0,0" transform="translate(-42.136 -207.172)"/>
      <path id="Trazado_824749" data-name="Trazado 824749" d="M306.085,340.355a1.221,1.221,0,1,0,.358.864A1.229,1.229,0,0,0,306.085,340.355Zm0,0" transform="translate(-266.865 -298.466)"/>
    </g>
  </g>
</svg>
