<svg xmlns="http://www.w3.org/2000/svg" xmlns:xlink="http://www.w3.org/1999/xlink" width="122" height="122" viewBox="0 0 122 122">
  <defs>
    <filter id="Trazado_824658" x="0" y="0" width="122" height="122" filterUnits="userSpaceOnUse">
      <feOffset dy="3" input="SourceAlpha"/>
      <feGaussianBlur stdDeviation="7" result="blur"/>
      <feFlood flood-color="#fff" flood-opacity="0.659"/>
      <feComposite operator="in" in2="blur"/>
      <feComposite in="SourceGraphic"/>
    </filter>
  </defs>
  <g id="Grupo_1074030" data-name="Grupo 1074030" transform="translate(-583 -8200)">
    <g transform="matrix(1, 0, 0, 1, 583, 8200)" filter="url(#Trazado_824658)">
      <path id="Trazado_824658-2" data-name="Trazado 824658" d="M40,0A40,40,0,1,1,0,40,40,40,0,0,1,40,0Z" transform="translate(21 18)" fill="#ffce00"/>
    </g>
    <g id="reduccion-de-desperdicios" transform="translate(611.326 8209.171)">
      <g id="Grupo_1073974" data-name="Grupo 1073974" transform="translate(1.019 29.063)">
        <g id="Grupo_1073964" data-name="Grupo 1073964" transform="translate(16.979 1.539)">
          <path id="Trazado_824750" data-name="Trazado 824750" d="M141.026,85.213l2.134,27.474a2.522,2.522,0,0,0,2.52,2.335h20.028a2.527,2.527,0,0,0,2.52-2.335l2.134-27.474a2.527,2.527,0,0,0-2.521-2.723h-24.3a2.518,2.518,0,0,0-2.517,2.723Z" transform="translate(-141.016 -82.49)" fill="#7ca1b1" fill-rule="evenodd"/>
        </g>
        <g id="Grupo_1073965" data-name="Grupo 1073965" transform="translate(13.851 0)">
          <path id="Trazado_824751" data-name="Trazado 824751" d="M117.393,70.43h33.845a.882.882,0,0,1,.879.879v3.126a.883.883,0,0,1-.879.883H117.393a.884.884,0,0,1-.883-.883V71.311A.884.884,0,0,1,117.393,70.43Z" transform="translate(-116.51 -70.43)" fill="#537983" fill-rule="evenodd"/>
        </g>
        <g id="Grupo_1073966" data-name="Grupo 1073966" transform="translate(24.784 30.856)">
          <path id="Trazado_824752" data-name="Trazado 824752" d="M202.885,325.955h2.475a.718.718,0,0,0,.715-.715V312.885a.718.718,0,0,1,.715-.715h4.5a.716.716,0,0,1,.715.715v12.356a.718.718,0,0,0,.715.715h2.475a.713.713,0,0,1,.5,1.22l-6.151,6.151a.715.715,0,0,1-1.013,0l-6.151-6.151a.715.715,0,0,1,.505-1.22Z" transform="translate(-202.167 -312.17)" fill="#70da40" fill-rule="evenodd"/>
        </g>
        <g id="Grupo_1073967" data-name="Grupo 1073967" transform="translate(49.568 12.644)">
          <path id="Trazado_824753" data-name="Trazado 824753" d="M397.055,183.275h2.475a.718.718,0,0,0,.715-.715V170.2a.716.716,0,0,1,.715-.715h4.5a.714.714,0,0,1,.715.715v12.356a.718.718,0,0,0,.715.715h2.475a.711.711,0,0,1,.5,1.219l-6.151,6.151a.715.715,0,0,1-1.013,0l-6.151-6.151a.714.714,0,0,1,.505-1.219Z" transform="translate(-396.337 -169.49)" fill="#70da40" fill-rule="evenodd"/>
        </g>
        <g id="Grupo_1073968" data-name="Grupo 1073968" transform="translate(0 12.644)">
          <path id="Trazado_824754" data-name="Trazado 824754" d="M8.715,183.275h2.474a.718.718,0,0,0,.715-.715V170.2a.716.716,0,0,1,.715-.715h4.5a.714.714,0,0,1,.715.715v12.356a.718.718,0,0,0,.715.715h2.475a.711.711,0,0,1,.5,1.219l-6.151,6.151a.715.715,0,0,1-1.013,0l-6.15-6.151a.714.714,0,0,1,.505-1.219Z" transform="translate(-7.997 -169.49)" fill="#70da40" fill-rule="evenodd"/>
        </g>
        <g id="Grupo_1073969" data-name="Grupo 1073969" transform="translate(17.033 4.89)">
          <path id="Trazado_824755" data-name="Trazado 824755" d="M141.44,108.74l2.089,26.846a2.522,2.522,0,0,0,2.52,2.335h1.991a2.521,2.521,0,0,1-2.52-2.335l-2.086-26.846Z" transform="translate(-141.44 -108.74)" fill="#70919f" fill-rule="evenodd"/>
        </g>
        <g id="Grupo_1073970" data-name="Grupo 1073970" transform="translate(13.851 0)">
          <path id="Trazado_824756" data-name="Trazado 824756" d="M117.393,70.43h1.991a.883.883,0,0,0-.883.879v3.126a.884.884,0,0,0,.883.883h-1.991a.884.884,0,0,1-.883-.883V71.311A.884.884,0,0,1,117.393,70.43Z" transform="translate(-116.51 -70.43)" fill="#4b6d76" fill-rule="evenodd"/>
        </g>
        <g id="Grupo_1073971" data-name="Grupo 1073971" transform="translate(24.785 30.856)">
          <path id="Trazado_824757" data-name="Trazado 824757" d="M202.893,325.955h1.532a.715.715,0,0,0-.5,1.22l5.892,5.892-.259.259a.715.715,0,0,1-1.013,0l-6.151-6.151a.715.715,0,0,1,.5-1.22Zm2.475,0a.718.718,0,0,0,.715-.715V312.885a.718.718,0,0,1,.715-.715h1.532a.718.718,0,0,0-.715.715v12.356a.718.718,0,0,1-.715.715Z" transform="translate(-202.177 -312.17)" fill="#65c43a" fill-rule="evenodd"/>
        </g>
        <g id="Grupo_1073972" data-name="Grupo 1073972" transform="translate(49.57 12.644)">
          <path id="Trazado_824758" data-name="Trazado 824758" d="M397.063,183.275H398.6a.714.714,0,0,0-.5,1.219l5.892,5.892-.259.259a.715.715,0,0,1-1.013,0l-6.151-6.151a.714.714,0,0,1,.5-1.219Zm2.475,0a.718.718,0,0,0,.715-.715V170.2a.716.716,0,0,1,.715-.715H402.5a.715.715,0,0,0-.715.715v12.356a.718.718,0,0,1-.715.715Z" transform="translate(-396.347 -169.49)" fill="#65c43a" fill-rule="evenodd"/>
        </g>
        <g id="Grupo_1073973" data-name="Grupo 1073973" transform="translate(0 12.644)">
          <path id="Trazado_824759" data-name="Trazado 824759" d="M8.715,183.275h1.532a.714.714,0,0,0-.5,1.219l5.892,5.892-.259.259a.715.715,0,0,1-1.013,0l-6.152-6.151a.714.714,0,0,1,.505-1.219Zm2.474,0a.718.718,0,0,0,.715-.715V170.2a.716.716,0,0,1,.715-.715H14.15a.715.715,0,0,0-.715.715v12.356a.718.718,0,0,1-.715.715Z" transform="translate(-7.997 -169.49)" fill="#65c43a" fill-rule="evenodd"/>
        </g>
      </g>
      <path id="Trazado_824760" data-name="Trazado 824760" d="M49.6,35.156a1.9,1.9,0,0,0,1.9-1.9V30.127a1.9,1.9,0,0,0-1.9-1.9H41.41v-.337a4.883,4.883,0,0,0-4.877-4.877H28.82a4.883,4.883,0,0,0-4.877,4.877v.337H15.754a1.906,1.906,0,0,0-1.9,1.9v3.126a1.906,1.906,0,0,0,1.9,1.9h1.357l2.012,25.907a3.525,3.525,0,0,0,3.54,3.269h6.029v8.532H26.522a1.714,1.714,0,0,0-1.6,1.072,1.738,1.738,0,0,0,.377,1.889l6.155,6.155a1.738,1.738,0,0,0,2.453,0l6.155-6.155a1.734,1.734,0,0,0-1.228-2.961H36.662V64.333h6.029a3.564,3.564,0,0,0,3.54-3.271l2.012-25.906H49.6ZM25.982,27.887a2.84,2.84,0,0,1,2.836-2.836h7.713a2.84,2.84,0,0,1,2.836,2.836v.337H25.982Zm-10.09,2.378H49.458v2.852H15.892Zm22.2,44.641-5.416,5.415-5.416-5.416H29a1.737,1.737,0,0,0,1.733-1.737V61.12h3.889V73.168a1.737,1.737,0,0,0,1.733,1.737H38.09Zm6.1-14a1.5,1.5,0,0,1-1.5,1.387H36.66V60.814a1.737,1.737,0,0,0-1.737-1.733h-4.5a1.737,1.737,0,0,0-1.737,1.733v1.479H22.66a1.5,1.5,0,0,1-1.5-1.389l-2-25.748H46.192Zm-19.325-5.9V42.44a1.02,1.02,0,0,1,2.04,0V55.01a1.02,1.02,0,0,1-2.04,0Zm6.788,0V42.44a1.02,1.02,0,1,1,2.04,0V55.01a1.02,1.02,0,0,1-2.04,0Zm6.784,0V42.44a1.02,1.02,0,0,1,2.04,0V55.01a1.02,1.02,0,0,1-2.04,0Zm26.777.714a1.731,1.731,0,0,0-1.6-1.072H61.445V42.6a1.739,1.739,0,0,0-1.737-1.737h-4.5A1.739,1.739,0,0,0,53.474,42.6V54.651H51.306a1.735,1.735,0,0,0-1.228,2.961l6.155,6.155a1.735,1.735,0,0,0,2.453,0l6.149-6.148A1.723,1.723,0,0,0,65.217,55.723Zm-7.758,6.385-5.416-5.416H53.78a1.735,1.735,0,0,0,1.733-1.733V42.907H59.4V54.959a1.735,1.735,0,0,0,1.733,1.733h1.737ZM14.043,54.651H11.875V42.6a1.739,1.739,0,0,0-1.737-1.737h-4.5A1.739,1.739,0,0,0,3.9,42.6V54.651H1.737A1.735,1.735,0,0,0,.508,57.612l6.155,6.155a1.738,1.738,0,0,0,2.453,0l6.148-6.148a1.735,1.735,0,0,0-1.222-2.968ZM7.89,62.108,2.475,56.692H4.212a1.735,1.735,0,0,0,1.733-1.733V42.907H9.834V54.959a1.735,1.735,0,0,0,1.733,1.733H13.3Z" transform="translate(0)"/>
    </g>
  </g>
</svg>
