<svg xmlns="http://www.w3.org/2000/svg" width="307" height="233.5" viewBox="0 0 307 233.5">
  <g id="Grupo_1074230" data-name="Grupo 1074230" transform="translate(-232 -8341)">
    <rect id="Rectángulo_382745" data-name="Rectángulo 382745" width="307" height="233.5" rx="10" transform="translate(232 8341)" fill="#f7fcfa"/>
    <g id="_03" data-name="03" transform="translate(302.257 8381.489)">
      <path id="Trazado_821192" data-name="Trazado 821192" d="M413.89,157.08a1.592,1.592,0,0,0,1.588-1.588,65.338,65.338,0,0,0-101.254-54.576,1.553,1.553,0,0,0-.437,2.183,1.521,1.521,0,0,0,2.183.437A62.154,62.154,0,0,1,412.3,155.453a1.592,1.592,0,0,0,1.588,1.588Z" transform="translate(-263.775 -69.52)" fill="#231f20"/>
      <path id="Trazado_821193" data-name="Trazado 821193" d="M315.28,118.623a1.62,1.62,0,0,0,1.548-1.151c.6-2.183,1.111-4.485,1.508-6.787a1.577,1.577,0,0,0-1.31-1.826,1.6,1.6,0,0,0-1.826,1.31,56.757,56.757,0,0,1-1.429,6.47,1.594,1.594,0,0,0,1.111,1.945,1.63,1.63,0,0,0,.437.04Z" transform="translate(-167.468 -14.075)" fill="#231f20"/>
      <path id="Trazado_821194" data-name="Trazado 821194" d="M380.278,199.374a64.9,64.9,0,0,0,36.516-11.153,66.321,66.321,0,0,0,18.973-19.647,64.87,64.87,0,0,0,3.85-7.144,1.59,1.59,0,0,0-2.9-1.31,61.934,61.934,0,0,1-3.652,6.787,62.75,62.75,0,0,1-18.02,18.695,62.191,62.191,0,0,1-86.687-85.774,1.574,1.574,0,1,0-2.619-1.746,65.369,65.369,0,0,0,54.576,101.293Z" transform="translate(-293.909 -48.069)" fill="#231f20"/>
      <path id="Trazado_821195" data-name="Trazado 821195" d="M367.1,193.488a49.694,49.694,0,1,0-25.324-92.442,1.593,1.593,0,0,0,1.627,2.739,46.5,46.5,0,1,1-16.393,16.472,1.593,1.593,0,0,0-2.739-1.627,49.684,49.684,0,0,0,42.867,74.819Z" transform="translate(-280.735 -57.822)" fill="#231f20"/>
      <path id="Trazado_821196" data-name="Trazado 821196" d="M385.685,130.462a31.873,31.873,0,1,0-31.872,31.872A31.872,31.872,0,0,0,385.685,130.462Z" transform="translate(-267.443 -44.49)" fill="#00c2b7"/>
      <path id="Trazado_821197" data-name="Trazado 821197" d="M405.7,164.859a1.5,1.5,0,0,0,1.111-.476,1.581,1.581,0,0,0,0-2.262l-74.5-74.1a1.6,1.6,0,0,0-2.263,2.262l74.5,74.1a1.567,1.567,0,0,0,1.112.476Z" transform="translate(-319.329 -77.3)" fill="#231f20"/>
      <path id="Trazado_821198" data-name="Trazado 821198" d="M347.458,108.219a1.592,1.592,0,0,0,1.588-1.588V86.548a1.588,1.588,0,0,0-3.175,0v20.084A1.592,1.592,0,0,0,347.458,108.219Z" transform="translate(-325.786 -84.96)" fill="#231f20"/>
      <path id="Trazado_821199" data-name="Trazado 821199" d="M347.458,93.2h20.084a1.588,1.588,0,0,0,0-3.175H347.458a1.588,1.588,0,0,0,0,3.175Z" transform="translate(-345.87 -69.936)" fill="#231f20"/>
      <ellipse id="Elipse_9779" data-name="Elipse 9779" cx="8.375" cy="8.375" rx="8.375" ry="8.375" transform="translate(148.566 122.806)" fill="#1682fb"/>
      <path id="Trazado_821200" data-name="Trazado 821200" d="M328.55,102.345a1.469,1.469,0,0,0,1.032-.4,1.576,1.576,0,0,0,.159-2.223c-3.572-4.049-10.6-8.931-10.875-9.129a1.6,1.6,0,1,0-1.826,2.62c.079.04,6.986,4.882,10.32,8.653a1.566,1.566,0,0,0,1.191.516Z" transform="translate(-189.708 -69.084)" fill="#231f20"/>
      <path id="Trazado_821201" data-name="Trazado 821201" d="M339.988,102.339a1.592,1.592,0,0,0,1.587-1.588V87.018a1.588,1.588,0,1,0-3.175,0v13.733A1.592,1.592,0,0,0,339.988,102.339Z" transform="translate(-288.666 -83.565)" fill="#231f20"/>
      <path id="Trazado_821202" data-name="Trazado 821202" d="M338.258,90.335h13.733a1.588,1.588,0,0,0,0-3.175H338.258a1.588,1.588,0,0,0,0,3.175Z" transform="translate(-293.803 -78.428)" fill="#231f20"/>
      <path id="Trazado_821203" data-name="Trazado 821203" d="M347.28,118.913a3.453,3.453,0,1,0,3.453-3.453A3.456,3.456,0,0,0,347.28,118.913Z" transform="translate(-336.524 5.6)"/>
    </g>
  </g>
</svg>
