<svg xmlns="http://www.w3.org/2000/svg" width="296" height="1106.807" viewBox="0 0 296 1106.807">
  <g id="Grupo_1102284" data-name="Grupo 1102284" transform="translate(8859 3582.211)">
    <path id="Trazado_883951" data-name="Trazado 883951" d="M12,0H284a12,12,0,0,1,12,12V210a12,12,0,0,1-12,12H12A12,12,0,0,1,0,210V12A12,12,0,0,1,12,0Z" transform="translate(-8859 -3544.5)" fill="#fff"/>
    <path id="Trazado_883952" data-name="Trazado 883952" d="M12,0H284a12,12,0,0,1,12,12V210a12,12,0,0,1-12,12H12A12,12,0,0,1,0,210V12A12,12,0,0,1,12,0Z" transform="translate(-8859 -2697.404)" fill="#fff"/>
    <path id="Trazado_883953" data-name="Trazado 883953" d="M10.1-10.819H6.442V0H3.876V-10.819H.272V-12.8H10.1Zm4.553,11a4.279,4.279,0,0,1-3.322-1.305,4.784,4.784,0,0,1-1.2-3.362v-.352a5.207,5.207,0,0,1,1.16-3.5,3.944,3.944,0,0,1,3.19-1.354,3.692,3.692,0,0,1,2.94,1.173,4.637,4.637,0,0,1,1.024,3.16v1.327H12.779l-.026.053a2.569,2.569,0,0,0,.593,1.582,1.987,1.987,0,0,0,1.578.606,5.279,5.279,0,0,0,1.463-.176A5.971,5.971,0,0,0,17.631-2.5l.694,1.582a4.764,4.764,0,0,1-1.547.782A6.86,6.86,0,0,1,14.651.185Zm-.167-7.893a1.425,1.425,0,0,0-1.191.532,2.667,2.667,0,0,0-.505,1.411l.018.044h3.129v-.193a2.221,2.221,0,0,0-.343-1.314A1.268,1.268,0,0,0,14.484-7.708Zm.308-5.871h2.856l.018.053-2.435,2.285H13.043ZM23.915-1.784a1.428,1.428,0,0,0,1.063-.4,1.452,1.452,0,0,0,.4-1.068h2.338l.018.053A2.976,2.976,0,0,1,26.657-.787a4.01,4.01,0,0,1-2.742.971,4.052,4.052,0,0,1-3.261-1.349A5.128,5.128,0,0,1,19.5-4.614v-.264a5.161,5.161,0,0,1,1.147-3.45A4.016,4.016,0,0,1,23.9-9.686a3.922,3.922,0,0,1,2.8,1,3.348,3.348,0,0,1,1.028,2.637l-.018.053H25.374a1.9,1.9,0,0,0-.391-1.226A1.314,1.314,0,0,0,23.9-7.708a1.465,1.465,0,0,0-1.411.8,4.362,4.362,0,0,0-.417,2.035v.264a4.346,4.346,0,0,0,.417,2.048A1.485,1.485,0,0,0,23.915-1.784ZM31.57-9.51l.114,1.362a3.478,3.478,0,0,1,1.169-1.134,3.034,3.034,0,0,1,1.556-.4,2.828,2.828,0,0,1,2.25.927,4.4,4.4,0,0,1,.809,2.931V0H34.893V-5.818a2.277,2.277,0,0,0-.356-1.446,1.312,1.312,0,0,0-1.068-.426,2.241,2.241,0,0,0-1.006.215,1.965,1.965,0,0,0-.716.593V0H29.18V-9.51ZM42.082,0H39.516V-9.51h2.566Zm0-11.786H39.516v-1.925h2.566Zm6.082,10a1.428,1.428,0,0,0,1.063-.4,1.452,1.452,0,0,0,.4-1.068h2.338l.018.053A2.976,2.976,0,0,1,50.906-.787a4.01,4.01,0,0,1-2.742.971A4.052,4.052,0,0,1,44.9-1.165a5.128,5.128,0,0,1-1.151-3.45v-.264A5.161,5.161,0,0,1,44.9-8.328a4.016,4.016,0,0,1,3.248-1.358,3.922,3.922,0,0,1,2.8,1,3.348,3.348,0,0,1,1.028,2.637l-.018.053H49.623a1.9,1.9,0,0,0-.391-1.226,1.314,1.314,0,0,0-1.085-.488,1.465,1.465,0,0,0-1.411.8,4.362,4.362,0,0,0-.417,2.035v.264a4.346,4.346,0,0,0,.417,2.048A1.485,1.485,0,0,0,48.164-1.784ZM59.08,0a5.4,5.4,0,0,1-.242-.686,4.769,4.769,0,0,1-.145-.738A3.518,3.518,0,0,1,57.647-.272,2.621,2.621,0,0,1,56.1.185a3.211,3.211,0,0,1-2.3-.769,2.755,2.755,0,0,1-.809-2.1,2.508,2.508,0,0,1,1.077-2.167,5.377,5.377,0,0,1,3.142-.769h1.441v-.756a1.48,1.48,0,0,0-.36-1.063,1.414,1.414,0,0,0-1.072-.378,1.394,1.394,0,0,0-.962.3,1.059,1.059,0,0,0-.338.831h-2.47l-.018-.053a2.412,2.412,0,0,1,1.05-2.079,4.562,4.562,0,0,1,2.9-.875,4.257,4.257,0,0,1,2.773.861,3,3,0,0,1,1.059,2.47v3.929a7.431,7.431,0,0,0,.1,1.257A6.307,6.307,0,0,0,61.638,0ZM56.733-1.714a2.187,2.187,0,0,0,1.2-.334,1.8,1.8,0,0,0,.721-.773V-4.166H57.208a1.708,1.708,0,0,0-1.235.4,1.329,1.329,0,0,0-.417.993A.992.992,0,0,0,55.868-2,1.234,1.234,0,0,0,56.733-1.714Zm11.549-.923a.885.885,0,0,0-.409-.725,4.151,4.151,0,0,0-1.516-.532A6.047,6.047,0,0,1,63.822-4.9a2.208,2.208,0,0,1-.866-1.837,2.62,2.62,0,0,1,1.037-2.083,4.182,4.182,0,0,1,2.76-.861,4.513,4.513,0,0,1,2.887.861A2.517,2.517,0,0,1,70.682-6.68l-.018.053H68.186a1.245,1.245,0,0,0-.369-.932,1.461,1.461,0,0,0-1.063-.36,1.453,1.453,0,0,0-.976.308.957.957,0,0,0-.36.756.854.854,0,0,0,.374.716,4.158,4.158,0,0,0,1.516.5A6.17,6.17,0,0,1,69.913-4.61a2.265,2.265,0,0,1,.857,1.876,2.51,2.51,0,0,1-1.1,2.1,4.742,4.742,0,0,1-2.9.817,4.408,4.408,0,0,1-3-.962,2.691,2.691,0,0,1-1.05-2.193l.018-.053h2.347a1.334,1.334,0,0,0,.5,1.107,2.068,2.068,0,0,0,1.239.343,1.762,1.762,0,0,0,1.085-.286A.927.927,0,0,0,68.282-2.637Zm8.227-2.039a6.18,6.18,0,0,1,.971-3.63,3.154,3.154,0,0,1,2.738-1.38,2.663,2.663,0,0,1,1.283.308,3.087,3.087,0,0,1,1,.879v-5.212h2.575V0H82.89l-.22-1.169A3.179,3.179,0,0,1,81.606-.163,2.812,2.812,0,0,1,80.2.185,3.215,3.215,0,0,1,77.48-1.1a5.479,5.479,0,0,1-.971-3.393Zm2.558.185a3.874,3.874,0,0,0,.422,1.964,1.469,1.469,0,0,0,1.371.716,2,2,0,0,0,.967-.224,1.788,1.788,0,0,0,.677-.655V-6.741a1.975,1.975,0,0,0-.672-.7,1.788,1.788,0,0,0-.954-.25,1.448,1.448,0,0,0-1.375.835,4.718,4.718,0,0,0-.435,2.18ZM91.187.185a4.279,4.279,0,0,1-3.322-1.305,4.784,4.784,0,0,1-1.2-3.362v-.352a5.207,5.207,0,0,1,1.16-3.5,3.944,3.944,0,0,1,3.19-1.354,3.692,3.692,0,0,1,2.94,1.173,4.637,4.637,0,0,1,1.024,3.16v1.327H89.314l-.026.053a2.569,2.569,0,0,0,.593,1.582,1.987,1.987,0,0,0,1.578.606,5.279,5.279,0,0,0,1.463-.176A5.971,5.971,0,0,0,94.166-2.5L94.86-.914a4.764,4.764,0,0,1-1.547.782A6.86,6.86,0,0,1,91.187.185ZM91.02-7.708a1.425,1.425,0,0,0-1.191.532,2.667,2.667,0,0,0-.505,1.411l.018.044H92.47v-.193a2.221,2.221,0,0,0-.343-1.314A1.268,1.268,0,0,0,91.02-7.708Zm14.941.4-.94-.026a1.709,1.709,0,0,0-.94.237,1.5,1.5,0,0,0-.562.668V0H100.96V-9.51h2.382l.114,1.406a3,3,0,0,1,.866-1.165,1.93,1.93,0,0,1,1.226-.417,1.918,1.918,0,0,1,.356.031q.163.031.33.075ZM111.252.185a4.279,4.279,0,0,1-3.322-1.305,4.784,4.784,0,0,1-1.2-3.362v-.352a5.207,5.207,0,0,1,1.16-3.5,3.944,3.944,0,0,1,3.19-1.354,3.692,3.692,0,0,1,2.94,1.173,4.637,4.637,0,0,1,1.024,3.16v1.327H109.38l-.026.053a2.569,2.569,0,0,0,.593,1.582,1.987,1.987,0,0,0,1.578.606,5.279,5.279,0,0,0,1.463-.176,5.971,5.971,0,0,0,1.244-.536l.694,1.582a4.764,4.764,0,0,1-1.547.782A6.86,6.86,0,0,1,111.252.185Zm-.167-7.893a1.425,1.425,0,0,0-1.191.532,2.667,2.667,0,0,0-.505,1.411l.018.044h3.129v-.193a2.221,2.221,0,0,0-.343-1.314A1.268,1.268,0,0,0,111.085-7.708Zm9.431,5.924a1.428,1.428,0,0,0,1.063-.4,1.452,1.452,0,0,0,.4-1.068h2.338l.018.053a2.976,2.976,0,0,1-1.072,2.413,4.01,4.01,0,0,1-2.742.971,4.052,4.052,0,0,1-3.261-1.349,5.128,5.128,0,0,1-1.151-3.45v-.264a5.161,5.161,0,0,1,1.147-3.45A4.016,4.016,0,0,1,120.5-9.686a3.922,3.922,0,0,1,2.8,1,3.348,3.348,0,0,1,1.028,2.637l-.018.053h-2.338a1.9,1.9,0,0,0-.391-1.226,1.314,1.314,0,0,0-1.085-.488,1.465,1.465,0,0,0-1.411.8,4.362,4.362,0,0,0-.417,2.035v.264a4.346,4.346,0,0,0,.417,2.048A1.485,1.485,0,0,0,120.516-1.784Zm4.913-3.059a5.1,5.1,0,0,1,1.187-3.485A4.136,4.136,0,0,1,129.9-9.686a4.18,4.18,0,0,1,3.3,1.354,5.076,5.076,0,0,1,1.2,3.489v.185a5.084,5.084,0,0,1-1.191,3.494A4.162,4.162,0,0,1,129.92.185a4.173,4.173,0,0,1-3.3-1.349,5.084,5.084,0,0,1-1.191-3.494Zm2.558.185a4.137,4.137,0,0,0,.457,2.087,1.578,1.578,0,0,0,1.477.787,1.562,1.562,0,0,0,1.455-.791,4.11,4.11,0,0,0,.461-2.083v-.185a4.068,4.068,0,0,0-.466-2.065,1.576,1.576,0,0,0-1.468-.8,1.557,1.557,0,0,0-1.455.8,4.1,4.1,0,0,0-.461,2.061ZM138.683,0h-2.566V-13.711h2.566Zm6.231.185a4.279,4.279,0,0,1-3.322-1.305,4.784,4.784,0,0,1-1.2-3.362v-.352a5.207,5.207,0,0,1,1.16-3.5,3.944,3.944,0,0,1,3.19-1.354,3.692,3.692,0,0,1,2.94,1.173,4.637,4.637,0,0,1,1.024,3.16v1.327h-5.669l-.026.053a2.569,2.569,0,0,0,.593,1.582,1.987,1.987,0,0,0,1.578.606,5.279,5.279,0,0,0,1.463-.176,5.971,5.971,0,0,0,1.244-.536l.694,1.582a4.764,4.764,0,0,1-1.547.782A6.86,6.86,0,0,1,144.914.185Zm-.167-7.893a1.425,1.425,0,0,0-1.191.532,2.667,2.667,0,0,0-.505,1.411l.018.044H146.2v-.193a2.221,2.221,0,0,0-.343-1.314A1.268,1.268,0,0,0,144.747-7.708Zm9.431,5.924a1.428,1.428,0,0,0,1.063-.4,1.452,1.452,0,0,0,.4-1.068h2.338l.018.053A2.976,2.976,0,0,1,156.92-.787a4.01,4.01,0,0,1-2.742.971,4.052,4.052,0,0,1-3.261-1.349,5.128,5.128,0,0,1-1.151-3.45v-.264a5.161,5.161,0,0,1,1.147-3.45,4.016,4.016,0,0,1,3.248-1.358,3.922,3.922,0,0,1,2.8,1,3.348,3.348,0,0,1,1.028,2.637l-.018.053h-2.338a1.9,1.9,0,0,0-.391-1.226,1.314,1.314,0,0,0-1.085-.488,1.465,1.465,0,0,0-1.411.8,4.362,4.362,0,0,0-.417,2.035v.264a4.346,4.346,0,0,0,.417,2.048A1.485,1.485,0,0,0,154.178-1.784Zm9.281,0a1.428,1.428,0,0,0,1.063-.4,1.452,1.452,0,0,0,.4-1.068h2.338l.018.053A2.976,2.976,0,0,1,166.2-.787a4.01,4.01,0,0,1-2.742.971A4.052,4.052,0,0,1,160.2-1.165a5.128,5.128,0,0,1-1.151-3.45v-.264a5.161,5.161,0,0,1,1.147-3.45,4.016,4.016,0,0,1,3.248-1.358,3.922,3.922,0,0,1,2.8,1,3.348,3.348,0,0,1,1.028,2.637l-.018.053h-2.338a1.9,1.9,0,0,0-.391-1.226,1.314,1.314,0,0,0-1.085-.488,1.465,1.465,0,0,0-1.411.8,4.362,4.362,0,0,0-.417,2.035v.264a4.346,4.346,0,0,0,.417,2.048A1.485,1.485,0,0,0,163.459-1.784ZM171.466,0H168.9V-9.51h2.566Zm0-11.786H168.9v-1.925h2.566Zm1.714,6.943a5.1,5.1,0,0,1,1.187-3.485,4.136,4.136,0,0,1,3.287-1.358,4.18,4.18,0,0,1,3.3,1.354,5.076,5.076,0,0,1,1.2,3.489v.185a5.084,5.084,0,0,1-1.191,3.494A4.162,4.162,0,0,1,177.671.185a4.173,4.173,0,0,1-3.3-1.349,5.084,5.084,0,0,1-1.191-3.494Zm2.558.185a4.137,4.137,0,0,0,.457,2.087,1.578,1.578,0,0,0,1.477.787,1.562,1.562,0,0,0,1.455-.791,4.11,4.11,0,0,0,.461-2.083v-.185a4.068,4.068,0,0,0-.466-2.065,1.576,1.576,0,0,0-1.468-.8,1.557,1.557,0,0,0-1.455.8,4.1,4.1,0,0,0-.461,2.061Zm2.435-8.912h2.856l.018.053-2.435,2.285h-2.188Zm7.91,4.061.114,1.362a3.478,3.478,0,0,1,1.169-1.134,3.034,3.034,0,0,1,1.556-.4,2.828,2.828,0,0,1,2.25.927,4.4,4.4,0,0,1,.809,2.931V0H189.4V-5.818a2.277,2.277,0,0,0-.356-1.446,1.312,1.312,0,0,0-1.068-.426,2.241,2.241,0,0,0-1.006.215,1.965,1.965,0,0,0-.716.593V0h-2.566V-9.51Zm11.9,4.834a6.18,6.18,0,0,1,.971-3.63,3.154,3.154,0,0,1,2.738-1.38,2.663,2.663,0,0,1,1.283.308,3.087,3.087,0,0,1,1,.879v-5.212h2.575V0h-2.188l-.22-1.169A3.179,3.179,0,0,1,203.08-.163a2.812,2.812,0,0,1-1.406.347,3.215,3.215,0,0,1-2.72-1.283,5.479,5.479,0,0,1-.971-3.393Zm2.558.185a3.874,3.874,0,0,0,.422,1.964,1.469,1.469,0,0,0,1.371.716,2,2,0,0,0,.967-.224,1.788,1.788,0,0,0,.677-.655V-6.741a1.975,1.975,0,0,0-.672-.7,1.788,1.788,0,0,0-.954-.25,1.448,1.448,0,0,0-1.375.835,4.718,4.718,0,0,0-.435,2.18ZM212.66.185a4.279,4.279,0,0,1-3.322-1.305,4.784,4.784,0,0,1-1.2-3.362v-.352a5.207,5.207,0,0,1,1.16-3.5,3.944,3.944,0,0,1,3.19-1.354,3.692,3.692,0,0,1,2.94,1.173,4.637,4.637,0,0,1,1.024,3.16v1.327h-5.669l-.026.053a2.569,2.569,0,0,0,.593,1.582,1.987,1.987,0,0,0,1.578.606A5.279,5.279,0,0,0,214.4-1.96,5.971,5.971,0,0,0,215.64-2.5l.694,1.582a4.764,4.764,0,0,1-1.547.782A6.86,6.86,0,0,1,212.66.185Zm-.167-7.893a1.425,1.425,0,0,0-1.191.532,2.667,2.667,0,0,0-.505,1.411l.018.044h3.129v-.193a2.221,2.221,0,0,0-.343-1.314A1.268,1.268,0,0,0,212.493-7.708Zm9.545,3.032a6.18,6.18,0,0,1,.971-3.63,3.154,3.154,0,0,1,2.738-1.38,2.663,2.663,0,0,1,1.283.308,3.087,3.087,0,0,1,1,.879v-5.212h2.575V0h-2.188l-.22-1.169a3.179,3.179,0,0,1-1.063,1.006,2.812,2.812,0,0,1-1.406.347,3.215,3.215,0,0,1-2.72-1.283,5.479,5.479,0,0,1-.971-3.393Zm2.558.185a3.874,3.874,0,0,0,.422,1.964,1.469,1.469,0,0,0,1.371.716,2,2,0,0,0,.967-.224,1.788,1.788,0,0,0,.677-.655V-6.741a1.975,1.975,0,0,0-.672-.7,1.788,1.788,0,0,0-.954-.25,1.448,1.448,0,0,0-1.375.835,4.718,4.718,0,0,0-.435,2.18ZM238.2,0a5.4,5.4,0,0,1-.242-.686,4.769,4.769,0,0,1-.145-.738,3.518,3.518,0,0,1-1.046,1.151,2.621,2.621,0,0,1-1.547.457,3.211,3.211,0,0,1-2.3-.769,2.755,2.755,0,0,1-.809-2.1,2.508,2.508,0,0,1,1.077-2.167,5.377,5.377,0,0,1,3.142-.769h1.441v-.756a1.48,1.48,0,0,0-.36-1.063,1.414,1.414,0,0,0-1.072-.378,1.394,1.394,0,0,0-.962.3,1.059,1.059,0,0,0-.338.831h-2.47l-.018-.053a2.412,2.412,0,0,1,1.05-2.079,4.562,4.562,0,0,1,2.9-.875,4.257,4.257,0,0,1,2.773.861,3,3,0,0,1,1.059,2.47v3.929a7.431,7.431,0,0,0,.1,1.257A6.307,6.307,0,0,0,240.759,0Zm-2.347-1.714a2.187,2.187,0,0,0,1.2-.334,1.8,1.8,0,0,0,.721-.773V-4.166h-1.441a1.708,1.708,0,0,0-1.235.4,1.329,1.329,0,0,0-.417.993.992.992,0,0,0,.312.769A1.234,1.234,0,0,0,235.854-1.714Zm9.483-10.125V-9.51h1.608v1.8h-1.608v4.843a1.105,1.105,0,0,0,.233.791.818.818,0,0,0,.611.237,2.45,2.45,0,0,0,.352-.022,2.961,2.961,0,0,0,.343-.075l.211,1.854a5.2,5.2,0,0,1-.751.2,4.48,4.48,0,0,1-.8.066A2.735,2.735,0,0,1,243.5-.545a3.2,3.2,0,0,1-.716-2.312V-7.708h-1.389v-1.8h1.389v-2.329Zm2.795,7a5.1,5.1,0,0,1,1.187-3.485,4.136,4.136,0,0,1,3.287-1.358,4.18,4.18,0,0,1,3.3,1.354,5.076,5.076,0,0,1,1.2,3.489v.185a5.084,5.084,0,0,1-1.191,3.494A4.162,4.162,0,0,1,252.624.185a4.173,4.173,0,0,1-3.3-1.349,5.084,5.084,0,0,1-1.191-3.494Zm2.558.185a4.137,4.137,0,0,0,.457,2.087,1.578,1.578,0,0,0,1.477.787,1.562,1.562,0,0,0,1.455-.791,4.11,4.11,0,0,0,.461-2.083v-.185a4.068,4.068,0,0,0-.466-2.065,1.576,1.576,0,0,0-1.468-.8,1.557,1.557,0,0,0-1.455.8,4.1,4.1,0,0,0-.461,2.061Zm13.14,2.021a.885.885,0,0,0-.409-.725,4.151,4.151,0,0,0-1.516-.532A6.047,6.047,0,0,1,259.37-4.9a2.208,2.208,0,0,1-.866-1.837,2.62,2.62,0,0,1,1.037-2.083,4.182,4.182,0,0,1,2.76-.861,4.513,4.513,0,0,1,2.887.861,2.517,2.517,0,0,1,1.042,2.145l-.018.053h-2.479a1.245,1.245,0,0,0-.369-.932,1.461,1.461,0,0,0-1.063-.36,1.453,1.453,0,0,0-.976.308.957.957,0,0,0-.36.756.854.854,0,0,0,.374.716,4.158,4.158,0,0,0,1.516.5A6.17,6.17,0,0,1,265.46-4.61a2.265,2.265,0,0,1,.857,1.876,2.51,2.51,0,0,1-1.1,2.1,4.742,4.742,0,0,1-2.9.817,4.408,4.408,0,0,1-3-.962,2.691,2.691,0,0,1-1.05-2.193l.018-.053h2.347a1.334,1.334,0,0,0,.5,1.107,2.068,2.068,0,0,0,1.239.343,1.762,1.762,0,0,0,1.085-.286A.927.927,0,0,0,263.83-2.637Z" transform="translate(-8846 -3568.5)" fill="#12263f"/>
    <path id="Trazado_883954" data-name="Trazado 883954" d="M3.744-4.641V0H1.178V-12.8h4.9a5.04,5.04,0,0,1,3.472,1.125A3.772,3.772,0,0,1,10.811-8.71,3.745,3.745,0,0,1,9.545-5.757,5.066,5.066,0,0,1,6.073-4.641Zm0-1.978H6.073A2.135,2.135,0,0,0,7.7-7.2a2.079,2.079,0,0,0,.554-1.49A2.176,2.176,0,0,0,7.7-10.217a2.1,2.1,0,0,0-1.63-.6H3.744ZM17.455-7.3l-.94-.026a1.709,1.709,0,0,0-.94.237,1.5,1.5,0,0,0-.562.668V0H12.454V-9.51h2.382L14.95-8.1a3,3,0,0,1,.866-1.165,1.93,1.93,0,0,1,1.226-.417,1.918,1.918,0,0,1,.356.031q.163.031.33.075Zm.765,2.461a5.1,5.1,0,0,1,1.187-3.485,4.136,4.136,0,0,1,3.287-1.358A4.18,4.18,0,0,1,26-8.332a5.076,5.076,0,0,1,1.2,3.489v.185A5.084,5.084,0,0,1,26-1.165,4.162,4.162,0,0,1,22.711.185a4.173,4.173,0,0,1-3.3-1.349A5.084,5.084,0,0,1,18.22-4.658Zm2.558.185a4.137,4.137,0,0,0,.457,2.087,1.578,1.578,0,0,0,1.477.787,1.562,1.562,0,0,0,1.455-.791,4.11,4.11,0,0,0,.461-2.083v-.185a4.068,4.068,0,0,0-.466-2.065,1.576,1.576,0,0,0-1.468-.8,1.557,1.557,0,0,0-1.455.8,4.1,4.1,0,0,0-.461,2.061ZM32.748-1.784a1.428,1.428,0,0,0,1.063-.4,1.452,1.452,0,0,0,.4-1.068h2.338l.018.053A2.976,2.976,0,0,1,35.49-.787a4.01,4.01,0,0,1-2.742.971,4.052,4.052,0,0,1-3.261-1.349,5.128,5.128,0,0,1-1.151-3.45v-.264a5.161,5.161,0,0,1,1.147-3.45A4.016,4.016,0,0,1,32.73-9.686a3.922,3.922,0,0,1,2.8,1,3.348,3.348,0,0,1,1.028,2.637l-.018.053H34.207a1.9,1.9,0,0,0-.391-1.226,1.314,1.314,0,0,0-1.085-.488,1.465,1.465,0,0,0-1.411.8A4.362,4.362,0,0,0,30.9-4.878v.264a4.346,4.346,0,0,0,.417,2.048A1.485,1.485,0,0,0,32.748-1.784ZM42.179.185a4.279,4.279,0,0,1-3.322-1.305,4.784,4.784,0,0,1-1.2-3.362v-.352a5.207,5.207,0,0,1,1.16-3.5,3.944,3.944,0,0,1,3.19-1.354,3.692,3.692,0,0,1,2.94,1.173,4.637,4.637,0,0,1,1.024,3.16v1.327H40.307l-.026.053a2.569,2.569,0,0,0,.593,1.582,1.987,1.987,0,0,0,1.578.606,5.279,5.279,0,0,0,1.463-.176A5.971,5.971,0,0,0,45.158-2.5l.694,1.582a4.764,4.764,0,0,1-1.547.782A6.86,6.86,0,0,1,42.179.185Zm-.167-7.893a1.425,1.425,0,0,0-1.191.532,2.667,2.667,0,0,0-.505,1.411l.018.044h3.129v-.193a2.221,2.221,0,0,0-.343-1.314A1.268,1.268,0,0,0,42.012-7.708Zm10.6,5.071a.885.885,0,0,0-.409-.725,4.151,4.151,0,0,0-1.516-.532A6.047,6.047,0,0,1,48.151-4.9a2.208,2.208,0,0,1-.866-1.837,2.62,2.62,0,0,1,1.037-2.083,4.182,4.182,0,0,1,2.76-.861,4.513,4.513,0,0,1,2.887.861A2.517,2.517,0,0,1,55.011-6.68l-.018.053H52.515a1.245,1.245,0,0,0-.369-.932,1.461,1.461,0,0,0-1.063-.36,1.453,1.453,0,0,0-.976.308.957.957,0,0,0-.36.756.854.854,0,0,0,.374.716,4.158,4.158,0,0,0,1.516.5A6.17,6.17,0,0,1,54.242-4.61,2.265,2.265,0,0,1,55.1-2.733,2.51,2.51,0,0,1,54-.633a4.742,4.742,0,0,1-2.9.817,4.408,4.408,0,0,1-3-.962,2.691,2.691,0,0,1-1.05-2.193l.018-.053h2.347a1.334,1.334,0,0,0,.5,1.107,2.068,2.068,0,0,0,1.239.343,1.762,1.762,0,0,0,1.085-.286A.927.927,0,0,0,52.611-2.637Zm3.744-2.206a5.1,5.1,0,0,1,1.187-3.485,4.136,4.136,0,0,1,3.287-1.358,4.18,4.18,0,0,1,3.3,1.354,5.076,5.076,0,0,1,1.2,3.489v.185a5.084,5.084,0,0,1-1.191,3.494A4.162,4.162,0,0,1,60.847.185a4.173,4.173,0,0,1-3.3-1.349,5.084,5.084,0,0,1-1.191-3.494Zm2.558.185a4.137,4.137,0,0,0,.457,2.087,1.578,1.578,0,0,0,1.477.787A1.562,1.562,0,0,0,62.3-2.575a4.11,4.11,0,0,0,.461-2.083v-.185A4.068,4.068,0,0,0,62.3-6.908a1.576,1.576,0,0,0-1.468-.8,1.557,1.557,0,0,0-1.455.8,4.1,4.1,0,0,0-.461,2.061Zm13.14,2.021a.885.885,0,0,0-.409-.725,4.151,4.151,0,0,0-1.516-.532A6.047,6.047,0,0,1,67.592-4.9a2.208,2.208,0,0,1-.866-1.837,2.62,2.62,0,0,1,1.037-2.083,4.182,4.182,0,0,1,2.76-.861,4.513,4.513,0,0,1,2.887.861A2.517,2.517,0,0,1,74.452-6.68l-.018.053H71.956a1.245,1.245,0,0,0-.369-.932,1.461,1.461,0,0,0-1.063-.36,1.453,1.453,0,0,0-.976.308.957.957,0,0,0-.36.756.854.854,0,0,0,.374.716,4.158,4.158,0,0,0,1.516.5A6.17,6.17,0,0,1,73.683-4.61a2.265,2.265,0,0,1,.857,1.876,2.51,2.51,0,0,1-1.1,2.1,4.742,4.742,0,0,1-2.9.817,4.408,4.408,0,0,1-3-.962,2.691,2.691,0,0,1-1.05-2.193l.018-.053h2.347a1.334,1.334,0,0,0,.5,1.107,2.068,2.068,0,0,0,1.239.343,1.762,1.762,0,0,0,1.085-.286A.927.927,0,0,0,72.053-2.637ZM84.1-3.99l.105.527h.053L86.08-9.51h2.76L84.981,1.424a5.034,5.034,0,0,1-1.1,1.718,2.818,2.818,0,0,1-2.083.7,3.221,3.221,0,0,1-.6-.053q-.277-.053-.672-.149l.3-1.872.246.035a1.813,1.813,0,0,0,.237.018,1.4,1.4,0,0,0,.976-.312,2.059,2.059,0,0,0,.527-.778l.3-.738-3.375-9.5h2.76Zm15.39,1.354a.885.885,0,0,0-.409-.725,4.151,4.151,0,0,0-1.516-.532A6.047,6.047,0,0,1,95.032-4.9a2.208,2.208,0,0,1-.866-1.837A2.62,2.62,0,0,1,95.2-8.824a4.182,4.182,0,0,1,2.76-.861,4.513,4.513,0,0,1,2.887.861,2.517,2.517,0,0,1,1.042,2.145l-.018.053H99.4a1.245,1.245,0,0,0-.369-.932,1.461,1.461,0,0,0-1.063-.36,1.453,1.453,0,0,0-.976.308.957.957,0,0,0-.36.756A.854.854,0,0,0,97-6.139a4.158,4.158,0,0,0,1.516.5,6.17,6.17,0,0,1,2.606,1.033,2.265,2.265,0,0,1,.857,1.876,2.51,2.51,0,0,1-1.1,2.1,4.742,4.742,0,0,1-2.9.817,4.408,4.408,0,0,1-3-.962,2.691,2.691,0,0,1-1.05-2.193l.018-.053h2.347a1.334,1.334,0,0,0,.5,1.107,2.068,2.068,0,0,0,1.239.343,1.762,1.762,0,0,0,1.085-.286A.927.927,0,0,0,99.492-2.637Zm9.967,1.23a3.229,3.229,0,0,1-1.116,1.178,2.959,2.959,0,0,1-1.573.413,2.892,2.892,0,0,1-2.351-1.02A4.89,4.89,0,0,1,103.57-4V-9.51h2.558v5.528a3.07,3.07,0,0,0,.338,1.709,1.216,1.216,0,0,0,1.05.461,2.557,2.557,0,0,0,1.055-.2,1.778,1.778,0,0,0,.721-.584V-9.51h2.566V0h-2.127ZM122.37-4.491a5.563,5.563,0,0,1-.949,3.4A3.21,3.21,0,0,1,118.679.185a2.9,2.9,0,0,1-1.455-.352,3.006,3.006,0,0,1-1.05-1.028L115.963,0h-2.171V-13.711h2.558V-8.5a2.905,2.905,0,0,1,.989-.879,2.764,2.764,0,0,1,1.323-.308,3.15,3.15,0,0,1,2.76,1.367,6.274,6.274,0,0,1,.949,3.643Zm-2.558-.185a4.951,4.951,0,0,0-.409-2.2,1.434,1.434,0,0,0-1.393-.813A1.916,1.916,0,0,0,117-7.44a1.736,1.736,0,0,0-.65.716V-2.7a1.631,1.631,0,0,0,.655.659,2.108,2.108,0,0,0,1.024.229,1.459,1.459,0,0,0,1.389-.7,4.07,4.07,0,0,0,.4-1.982Zm12.718.185a5.462,5.462,0,0,1-.976,3.393A3.227,3.227,0,0,1,128.83.185,3.045,3.045,0,0,1,127.5-.092a2.726,2.726,0,0,1-.993-.813V3.656h-2.558V-9.51h2.312l.149,1.125a3.047,3.047,0,0,1,1.015-.962,2.746,2.746,0,0,1,1.384-.338,3.165,3.165,0,0,1,2.742,1.38,6.159,6.159,0,0,1,.976,3.63Zm-2.566-.185a4.6,4.6,0,0,0-.448-2.18,1.462,1.462,0,0,0-1.371-.835,1.938,1.938,0,0,0-.989.237,1.693,1.693,0,0,0-.646.677V-2.61a1.573,1.573,0,0,0,.646.615,2.176,2.176,0,0,0,1.006.211,1.476,1.476,0,0,0,1.367-.729,3.851,3.851,0,0,0,.435-1.978ZM139.113-7.3l-.94-.026a1.709,1.709,0,0,0-.94.237,1.5,1.5,0,0,0-.562.668V0h-2.558V-9.51h2.382l.114,1.406a3,3,0,0,1,.866-1.165,1.93,1.93,0,0,1,1.226-.417,1.918,1.918,0,0,1,.356.031q.163.031.33.075Zm.765,2.461a5.1,5.1,0,0,1,1.187-3.485,4.136,4.136,0,0,1,3.287-1.358,4.18,4.18,0,0,1,3.3,1.354,5.076,5.076,0,0,1,1.2,3.489v.185a5.084,5.084,0,0,1-1.191,3.494A4.162,4.162,0,0,1,144.369.185a4.173,4.173,0,0,1-3.3-1.349,5.084,5.084,0,0,1-1.191-3.494Zm2.558.185a4.137,4.137,0,0,0,.457,2.087,1.578,1.578,0,0,0,1.477.787,1.562,1.562,0,0,0,1.455-.791,4.11,4.11,0,0,0,.461-2.083v-.185a4.068,4.068,0,0,0-.466-2.065,1.576,1.576,0,0,0-1.468-.8,1.557,1.557,0,0,0-1.455.8,4.1,4.1,0,0,0-.461,2.061Zm11.971,2.874a1.428,1.428,0,0,0,1.063-.4,1.452,1.452,0,0,0,.4-1.068H158.2l.018.053a2.976,2.976,0,0,1-1.072,2.413,4.01,4.01,0,0,1-2.742.971,4.052,4.052,0,0,1-3.261-1.349,5.128,5.128,0,0,1-1.151-3.45v-.264a5.161,5.161,0,0,1,1.147-3.45,4.016,4.016,0,0,1,3.248-1.358,3.922,3.922,0,0,1,2.8,1,3.348,3.348,0,0,1,1.028,2.637l-.018.053h-2.338a1.9,1.9,0,0,0-.391-1.226,1.314,1.314,0,0,0-1.085-.488,1.465,1.465,0,0,0-1.411.8,4.362,4.362,0,0,0-.417,2.035v.264a4.346,4.346,0,0,0,.417,2.048A1.485,1.485,0,0,0,154.406-1.784ZM163.837.185a4.279,4.279,0,0,1-3.322-1.305,4.784,4.784,0,0,1-1.2-3.362v-.352a5.207,5.207,0,0,1,1.16-3.5,3.944,3.944,0,0,1,3.19-1.354,3.692,3.692,0,0,1,2.94,1.173,4.637,4.637,0,0,1,1.024,3.16v1.327h-5.669l-.026.053a2.569,2.569,0,0,0,.593,1.582,1.987,1.987,0,0,0,1.578.606,5.279,5.279,0,0,0,1.463-.176,5.971,5.971,0,0,0,1.244-.536l.694,1.582a4.764,4.764,0,0,1-1.547.782A6.86,6.86,0,0,1,163.837.185Zm-.167-7.893a1.425,1.425,0,0,0-1.191.532,2.667,2.667,0,0,0-.505,1.411l.018.044h3.129v-.193a2.221,2.221,0,0,0-.343-1.314A1.268,1.268,0,0,0,163.67-7.708Zm10.6,5.071a.885.885,0,0,0-.409-.725,4.151,4.151,0,0,0-1.516-.532A6.047,6.047,0,0,1,169.809-4.9a2.208,2.208,0,0,1-.866-1.837,2.62,2.62,0,0,1,1.037-2.083,4.182,4.182,0,0,1,2.76-.861,4.513,4.513,0,0,1,2.887.861,2.517,2.517,0,0,1,1.042,2.145l-.018.053h-2.479a1.245,1.245,0,0,0-.369-.932,1.461,1.461,0,0,0-1.063-.36,1.453,1.453,0,0,0-.976.308.957.957,0,0,0-.36.756.854.854,0,0,0,.374.716,4.158,4.158,0,0,0,1.516.5A6.17,6.17,0,0,1,175.9-4.61a2.265,2.265,0,0,1,.857,1.876,2.51,2.51,0,0,1-1.1,2.1,4.742,4.742,0,0,1-2.9.817,4.408,4.408,0,0,1-3-.962,2.691,2.691,0,0,1-1.05-2.193l.018-.053h2.347a1.334,1.334,0,0,0,.5,1.107,2.068,2.068,0,0,0,1.239.343,1.762,1.762,0,0,0,1.085-.286A.927.927,0,0,0,174.27-2.637Zm3.744-2.206A5.1,5.1,0,0,1,179.2-8.328a4.136,4.136,0,0,1,3.287-1.358,4.18,4.18,0,0,1,3.3,1.354,5.076,5.076,0,0,1,1.2,3.489v.185A5.084,5.084,0,0,1,185.8-1.165,4.162,4.162,0,0,1,182.5.185a4.173,4.173,0,0,1-3.3-1.349,5.084,5.084,0,0,1-1.191-3.494Zm2.558.185a4.137,4.137,0,0,0,.457,2.087,1.578,1.578,0,0,0,1.477.787,1.562,1.562,0,0,0,1.455-.791,4.11,4.11,0,0,0,.461-2.083v-.185a4.068,4.068,0,0,0-.466-2.065,1.576,1.576,0,0,0-1.468-.8,1.557,1.557,0,0,0-1.455.8,4.1,4.1,0,0,0-.461,2.061Zm13.14,2.021a.885.885,0,0,0-.409-.725,4.151,4.151,0,0,0-1.516-.532A6.047,6.047,0,0,1,189.25-4.9a2.208,2.208,0,0,1-.866-1.837,2.62,2.62,0,0,1,1.037-2.083,4.182,4.182,0,0,1,2.76-.861,4.513,4.513,0,0,1,2.887.861A2.517,2.517,0,0,1,196.11-6.68l-.018.053h-2.479a1.245,1.245,0,0,0-.369-.932,1.461,1.461,0,0,0-1.063-.36,1.453,1.453,0,0,0-.976.308.957.957,0,0,0-.36.756.854.854,0,0,0,.374.716,4.158,4.158,0,0,0,1.516.5,6.17,6.17,0,0,1,2.606,1.033,2.265,2.265,0,0,1,.857,1.876,2.51,2.51,0,0,1-1.1,2.1,4.742,4.742,0,0,1-2.9.817,4.408,4.408,0,0,1-3-.962,2.691,2.691,0,0,1-1.05-2.193l.018-.053h2.347a1.334,1.334,0,0,0,.5,1.107,2.068,2.068,0,0,0,1.239.343,1.762,1.762,0,0,0,1.085-.286A.927.927,0,0,0,193.711-2.637Z" transform="translate(-8810 -2721.404)" fill="#12263f"/>
    <path id="Trazado_883955" data-name="Trazado 883955" d="M1.047,0V-11.375H5.016a4.693,4.693,0,0,1,3.438,1.332A4.592,4.592,0,0,1,9.8-6.625v1.883A4.575,4.575,0,0,1,8.453-1.324,4.708,4.708,0,0,1,5.016,0ZM3.328-9.617V-1.75H5.016a2.227,2.227,0,0,0,1.813-.84,3.287,3.287,0,0,0,.688-2.152v-1.9a3.259,3.259,0,0,0-.687-2.141,2.231,2.231,0,0,0-1.812-.836ZM15.125.164A3.8,3.8,0,0,1,12.172-1a4.252,4.252,0,0,1-1.062-2.988V-4.3a4.628,4.628,0,0,1,1.031-3.109,3.506,3.506,0,0,1,2.836-1.2A3.282,3.282,0,0,1,17.59-7.566a4.122,4.122,0,0,1,.91,2.809v1.18H13.461l-.023.047a2.284,2.284,0,0,0,.527,1.406,1.766,1.766,0,0,0,1.4.539,4.692,4.692,0,0,0,1.3-.156,5.307,5.307,0,0,0,1.105-.477l.617,1.406a4.234,4.234,0,0,1-1.375.7A6.1,6.1,0,0,1,15.125.164Zm-.148-7.016a1.267,1.267,0,0,0-1.059.473,2.371,2.371,0,0,0-.449,1.254l.016.039h2.781v-.172a1.974,1.974,0,0,0-.3-1.168A1.127,1.127,0,0,0,14.977-6.852Zm7.586-3.672v2.07h1.43v1.6h-1.43v4.3a.982.982,0,0,0,.207.7.727.727,0,0,0,.543.211,2.178,2.178,0,0,0,.313-.02,2.632,2.632,0,0,0,.3-.066L24.117-.07a4.618,4.618,0,0,1-.668.176,3.982,3.982,0,0,1-.707.059,2.431,2.431,0,0,1-1.816-.648,2.843,2.843,0,0,1-.637-2.055V-6.852H19.055v-1.6h1.234v-2.07ZM29.063.164A3.8,3.8,0,0,1,26.109-1a4.252,4.252,0,0,1-1.062-2.988V-4.3a4.628,4.628,0,0,1,1.031-3.109,3.506,3.506,0,0,1,2.836-1.2,3.282,3.282,0,0,1,2.613,1.043,4.122,4.122,0,0,1,.91,2.809v1.18H27.4l-.023.047A2.284,2.284,0,0,0,27.9-2.125a1.766,1.766,0,0,0,1.4.539,4.692,4.692,0,0,0,1.3-.156,5.307,5.307,0,0,0,1.105-.477l.617,1.406a4.234,4.234,0,0,1-1.375.7A6.1,6.1,0,0,1,29.063.164Zm-.148-7.016a1.267,1.267,0,0,0-1.059.473,2.371,2.371,0,0,0-.449,1.254l.016.039H30.2v-.172a1.974,1.974,0,0,0-.3-1.168A1.127,1.127,0,0,0,28.914-6.852Zm9.3.359-.836-.023a1.519,1.519,0,0,0-.836.211,1.337,1.337,0,0,0-.5.594V0H33.766V-8.453h2.117l.1,1.25a2.667,2.667,0,0,1,.77-1.035,1.715,1.715,0,0,1,1.09-.371,1.705,1.705,0,0,1,.316.027q.145.027.293.066Zm3.3-1.961.094,1.117a2.84,2.84,0,0,1,1.02-.941,2.932,2.932,0,0,1,1.418-.332,2.582,2.582,0,0,1,1.391.359,2.217,2.217,0,0,1,.875,1.086,2.93,2.93,0,0,1,1.016-1.062A2.756,2.756,0,0,1,48.8-8.609a2.408,2.408,0,0,1,1.973.887,4.233,4.233,0,0,1,.723,2.707V0H49.211V-5.023A2.369,2.369,0,0,0,48.9-6.437a1.109,1.109,0,0,0-.93-.4,1.592,1.592,0,0,0-.84.215,1.565,1.565,0,0,0-.566.6q0,.148.008.254t.008.215V0H44.3V-5.023a2.376,2.376,0,0,0-.312-1.4,1.1,1.1,0,0,0-.937-.41,1.769,1.769,0,0,0-.809.176,1.551,1.551,0,0,0-.574.5V0H39.4V-8.453ZM55.641,0H53.359V-8.453h2.281Zm0-10.477H53.359v-1.711h2.281ZM59.6-8.453l.1,1.211A3.092,3.092,0,0,1,60.742-8.25a2.7,2.7,0,0,1,1.383-.359,2.513,2.513,0,0,1,2,.824,3.908,3.908,0,0,1,.719,2.605V0H62.555V-5.172a2.024,2.024,0,0,0-.316-1.285,1.166,1.166,0,0,0-.949-.379,1.992,1.992,0,0,0-.895.191,1.746,1.746,0,0,0-.637.527V0H57.477V-8.453ZM71.531,0a4.8,4.8,0,0,1-.215-.609,4.238,4.238,0,0,1-.129-.656,3.127,3.127,0,0,1-.93,1.023,2.33,2.33,0,0,1-1.375.406A2.855,2.855,0,0,1,66.836-.52a2.449,2.449,0,0,1-.719-1.863,2.229,2.229,0,0,1,.957-1.926,4.78,4.78,0,0,1,2.793-.684h1.281v-.672a1.315,1.315,0,0,0-.32-.945,1.257,1.257,0,0,0-.953-.336,1.239,1.239,0,0,0-.855.27.941.941,0,0,0-.3.738h-2.2l-.016-.047a2.144,2.144,0,0,1,.934-1.848,4.055,4.055,0,0,1,2.582-.777,3.784,3.784,0,0,1,2.465.766,2.667,2.667,0,0,1,.941,2.2v3.492a6.6,6.6,0,0,0,.09,1.117A5.606,5.606,0,0,0,73.8,0ZM69.445-1.523a1.944,1.944,0,0,0,1.063-.3,1.6,1.6,0,0,0,.641-.687V-3.7H69.867a1.519,1.519,0,0,0-1.1.359,1.181,1.181,0,0,0-.371.883.881.881,0,0,0,.277.684A1.1,1.1,0,0,0,69.445-1.523ZM79.586-6.492l-.836-.023a1.519,1.519,0,0,0-.836.211,1.337,1.337,0,0,0-.5.594V0H75.141V-8.453h2.117l.1,1.25a2.667,2.667,0,0,1,.77-1.035,1.715,1.715,0,0,1,1.09-.371,1.7,1.7,0,0,1,.316.027q.145.027.293.066Z" transform="translate(-8751 -3290.258)" fill="#12263f"/>
    <path id="Trazado_883956" data-name="Trazado 883956" d="M6.977-2.453H3.289L2.523,0H.141L3.977-11.375H6.313L10.133,0H7.75ZM3.852-4.242h2.57L5.164-8.25H5.117Zm14.453.25a4.855,4.855,0,0,1-.867,3.016A2.869,2.869,0,0,1,15.016.164a2.707,2.707,0,0,1-1.18-.246A2.423,2.423,0,0,1,12.953-.8V3.25H10.68v-11.7h2.055l.133,1a2.709,2.709,0,0,1,.9-.855,2.441,2.441,0,0,1,1.23-.3,2.813,2.813,0,0,1,2.438,1.227A5.474,5.474,0,0,1,18.3-4.156Zm-2.281-.164a4.09,4.09,0,0,0-.4-1.937,1.3,1.3,0,0,0-1.219-.742,1.722,1.722,0,0,0-.879.211,1.505,1.505,0,0,0-.574.6v3.7a1.4,1.4,0,0,0,.574.547,1.935,1.935,0,0,0,.895.188,1.312,1.312,0,0,0,1.215-.648,3.423,3.423,0,0,0,.387-1.758Zm8.133-2.336-.836-.023a1.519,1.519,0,0,0-.836.211,1.337,1.337,0,0,0-.5.594V0H19.711V-8.453h2.117l.1,1.25a2.667,2.667,0,0,1,.77-1.035,1.715,1.715,0,0,1,1.09-.371,1.7,1.7,0,0,1,.316.027q.145.027.293.066Zm.68,2.188a4.536,4.536,0,0,1,1.055-3.1,3.676,3.676,0,0,1,2.922-1.207,3.715,3.715,0,0,1,2.938,1.2,4.512,4.512,0,0,1,1.063,3.1v.164a4.519,4.519,0,0,1-1.059,3.105,3.7,3.7,0,0,1-2.926,1.2,3.709,3.709,0,0,1-2.934-1.2,4.519,4.519,0,0,1-1.059-3.105Zm2.273.164a3.677,3.677,0,0,0,.406,1.855,1.4,1.4,0,0,0,1.313.7,1.389,1.389,0,0,0,1.293-.7,3.653,3.653,0,0,0,.41-1.852V-4.3a3.616,3.616,0,0,0-.414-1.836,1.4,1.4,0,0,0-1.3-.711,1.384,1.384,0,0,0-1.293.715,3.648,3.648,0,0,0-.41,1.832ZM37.234-5.766h.047l1.3-2.687h2.578l-2.547,4.18L41.242,0h-2.57L37.289-2.8,35.906,0H33.328l2.633-4.273-2.555-4.18h2.563ZM44.625,0H42.344V-8.453h2.281Zm0-10.477H42.344v-1.711h2.281Zm3.992,2.023.094,1.117a2.84,2.84,0,0,1,1.02-.941,2.932,2.932,0,0,1,1.418-.332,2.582,2.582,0,0,1,1.391.359,2.217,2.217,0,0,1,.875,1.086A2.93,2.93,0,0,1,54.43-8.227,2.756,2.756,0,0,1,55.9-8.609a2.408,2.408,0,0,1,1.973.887,4.233,4.233,0,0,1,.723,2.707V0H56.313V-5.023A2.369,2.369,0,0,0,56-6.437a1.109,1.109,0,0,0-.93-.4,1.592,1.592,0,0,0-.84.215,1.565,1.565,0,0,0-.566.6q0,.148.008.254t.008.215V0H51.406V-5.023a2.376,2.376,0,0,0-.312-1.4,1.1,1.1,0,0,0-.937-.41,1.769,1.769,0,0,0-.809.176,1.551,1.551,0,0,0-.574.5V0H46.5V-8.453ZM65.328,0a4.8,4.8,0,0,1-.215-.609,4.238,4.238,0,0,1-.129-.656,3.127,3.127,0,0,1-.93,1.023A2.33,2.33,0,0,1,62.68.164,2.855,2.855,0,0,1,60.633-.52a2.449,2.449,0,0,1-.719-1.863,2.229,2.229,0,0,1,.957-1.926,4.78,4.78,0,0,1,2.793-.684h1.281v-.672a1.315,1.315,0,0,0-.32-.945,1.257,1.257,0,0,0-.953-.336,1.239,1.239,0,0,0-.855.27.941.941,0,0,0-.3.738h-2.2L60.3-5.984a2.144,2.144,0,0,1,.934-1.848,4.055,4.055,0,0,1,2.582-.777,3.784,3.784,0,0,1,2.465.766,2.667,2.667,0,0,1,.941,2.2v3.492a6.6,6.6,0,0,0,.09,1.117A5.606,5.606,0,0,0,67.6,0ZM63.242-1.523a1.944,1.944,0,0,0,1.063-.3,1.6,1.6,0,0,0,.641-.687V-3.7H63.664a1.519,1.519,0,0,0-1.1.359,1.181,1.181,0,0,0-.371.883.881.881,0,0,0,.277.684A1.1,1.1,0,0,0,63.242-1.523Zm9.227-.062a1.27,1.27,0,0,0,.945-.355,1.291,1.291,0,0,0,.352-.949h2.078l.016.047A2.645,2.645,0,0,1,74.906-.7a3.564,3.564,0,0,1-2.437.863,3.6,3.6,0,0,1-2.9-1.2A4.558,4.558,0,0,1,68.547-4.1v-.234A4.588,4.588,0,0,1,69.566-7.4a3.57,3.57,0,0,1,2.887-1.207,3.486,3.486,0,0,1,2.492.891,2.976,2.976,0,0,1,.914,2.344l-.016.047H73.766a1.687,1.687,0,0,0-.348-1.09,1.168,1.168,0,0,0-.965-.434,1.3,1.3,0,0,0-1.254.707,3.878,3.878,0,0,0-.371,1.809V-4.1a3.863,3.863,0,0,0,.371,1.82A1.32,1.32,0,0,0,72.469-1.586ZM79.586,0H77.3V-8.453h2.281Zm0-10.477H77.3v-1.711h2.281ZM81.109-4.3a4.536,4.536,0,0,1,1.055-3.1,3.676,3.676,0,0,1,2.922-1.207,3.715,3.715,0,0,1,2.938,1.2,4.512,4.512,0,0,1,1.063,3.1v.164a4.519,4.519,0,0,1-1.059,3.105A3.7,3.7,0,0,1,85.1.164a3.709,3.709,0,0,1-2.934-1.2,4.519,4.519,0,0,1-1.059-3.105Zm2.273.164a3.677,3.677,0,0,0,.406,1.855,1.4,1.4,0,0,0,1.313.7,1.389,1.389,0,0,0,1.293-.7,3.653,3.653,0,0,0,.41-1.852V-4.3a3.616,3.616,0,0,0-.414-1.836,1.4,1.4,0,0,0-1.3-.711,1.384,1.384,0,0,0-1.293.715,3.648,3.648,0,0,0-.41,1.832Zm2.164-7.922h2.539l.016.047L85.938-9.984H83.992Zm7.031,3.609.1,1.211A3.092,3.092,0,0,1,93.719-8.25,2.7,2.7,0,0,1,95.1-8.609a2.513,2.513,0,0,1,2,.824A3.908,3.908,0,0,1,97.82-5.18V0H95.531V-5.172a2.024,2.024,0,0,0-.316-1.285,1.166,1.166,0,0,0-.949-.379,1.992,1.992,0,0,0-.895.191,1.746,1.746,0,0,0-.637.527V0H90.453V-8.453ZM105.906,0h-2.281V-8.453h2.281Zm0-10.477h-2.281v-1.711h2.281Zm3.961,2.023.1,1.211a3.092,3.092,0,0,1,1.039-1.008,2.7,2.7,0,0,1,1.383-.359,2.513,2.513,0,0,1,2,.824,3.908,3.908,0,0,1,.719,2.605V0H112.82V-5.172a2.024,2.024,0,0,0-.316-1.285,1.166,1.166,0,0,0-.949-.379,1.992,1.992,0,0,0-.895.191,1.746,1.746,0,0,0-.637.527V0h-2.281V-8.453ZM119.211,0H116.93V-8.453h2.281Zm0-10.477H116.93v-1.711h2.281Zm5.406,8.891a1.27,1.27,0,0,0,.945-.355,1.291,1.291,0,0,0,.352-.949h2.078l.016.047A2.645,2.645,0,0,1,127.055-.7a3.564,3.564,0,0,1-2.437.863,3.6,3.6,0,0,1-2.9-1.2A4.558,4.558,0,0,1,120.7-4.1v-.234a4.588,4.588,0,0,1,1.02-3.066A3.57,3.57,0,0,1,124.6-8.609a3.486,3.486,0,0,1,2.492.891,2.976,2.976,0,0,1,.914,2.344l-.016.047h-2.078a1.687,1.687,0,0,0-.348-1.09,1.168,1.168,0,0,0-.965-.434,1.3,1.3,0,0,0-1.254.707,3.878,3.878,0,0,0-.371,1.809V-4.1a3.863,3.863,0,0,0,.371,1.82A1.32,1.32,0,0,0,124.617-1.586ZM131.734,0h-2.281V-8.453h2.281Zm0-10.477h-2.281v-1.711h2.281ZM138.594,0a4.8,4.8,0,0,1-.215-.609,4.24,4.24,0,0,1-.129-.656,3.127,3.127,0,0,1-.93,1.023,2.33,2.33,0,0,1-1.375.406A2.855,2.855,0,0,1,133.9-.52a2.449,2.449,0,0,1-.719-1.863,2.229,2.229,0,0,1,.957-1.926,4.78,4.78,0,0,1,2.793-.684h1.281v-.672a1.315,1.315,0,0,0-.32-.945,1.257,1.257,0,0,0-.953-.336,1.239,1.239,0,0,0-.855.27.941.941,0,0,0-.3.738h-2.2l-.016-.047a2.144,2.144,0,0,1,.934-1.848,4.055,4.055,0,0,1,2.582-.777,3.784,3.784,0,0,1,2.465.766,2.667,2.667,0,0,1,.941,2.2v3.492a6.605,6.605,0,0,0,.09,1.117A5.606,5.606,0,0,0,140.867,0Zm-2.086-1.523a1.944,1.944,0,0,0,1.063-.3,1.6,1.6,0,0,0,.641-.687V-3.7H136.93a1.519,1.519,0,0,0-1.1.359,1.181,1.181,0,0,0-.371.883.881.881,0,0,0,.277.684A1.1,1.1,0,0,0,136.508-1.523ZM144.6,0H142.32V-12.187H144.6Z" transform="translate(-8784 -2841.389)" fill="#12263f"/>
    <path id="Trazado_879023" data-name="Trazado 879023" d="M19.187,24.712,0,30.3,19.141,0l.046.061L19.234,0l19.14,30.3Z" transform="translate(-8691.813 -3204.516) rotate(180)" fill="#3a1d71"/>
    <path id="Trazado_883957" data-name="Trazado 883957" d="M0,0H49.006V12.634H0Z" transform="translate(-8705.078 -3275.758) rotate(90)" fill="#3a1d71"/>
    <path id="Trazado_879231" data-name="Trazado 879231" d="M19.187,24.712,0,30.3,19.141,0l.046.061L19.234,0l19.14,30.3Z" transform="translate(-8691.625 -2755.646) rotate(180)" fill="#3a1d71"/>
    <path id="Trazado_883958" data-name="Trazado 883958" d="M0,0H49.006V12.634H0Z" transform="translate(-8704.891 -2826.889) rotate(90)" fill="#3a1d71"/>
    <path id="Trazado_883959" data-name="Trazado 883959" d="M0,0H24V24H0Z" transform="translate(-8784 -3494.5)" fill="#00ffdf"/>
    <path id="Trazado_883960" data-name="Trazado 883960" d="M0,0H24V24H0Z" transform="translate(-8787 -2647.404)" fill="#00ffdf"/>
    <path id="Trazado_883961" data-name="Trazado 883961" d="M0,0H24V24H0Z" transform="translate(-8784 -3428.5)" fill="#00ffdf"/>
    <path id="Trazado_883962" data-name="Trazado 883962" d="M0,0H24V24H0Z" transform="translate(-8787 -2581.404)" fill="#00ffdf"/>
    <path id="Trazado_883963" data-name="Trazado 883963" d="M0,0H24V24H0Z" transform="translate(-8784 -3461.5)" fill="#00ffdf"/>
    <path id="Trazado_883964" data-name="Trazado 883964" d="M0,0H24V24H0Z" transform="translate(-8787 -2614.404)" fill="#00ffdf"/>
    <path id="Trazado_883965" data-name="Trazado 883965" d="M0,0H24V24H0Z" transform="translate(-8784 -3395.5)" fill="#00ffdf"/>
    <path id="Trazado_883966" data-name="Trazado 883966" d="M0,0H24V24H0Z" transform="translate(-8787 -2548.404)" fill="#00ffdf"/>
    <path id="Trazado_883967" data-name="Trazado 883967" d="M7.539,9.727H2.867V13.8H8.336V15H1.328V3.625H8.25V4.836H2.867v3.68H7.539Zm3.781-3.18L11.43,7.8a3.069,3.069,0,0,1,1.059-1.043,2.824,2.824,0,0,1,1.449-.371,2.759,2.759,0,0,1,2.117.8,3.515,3.515,0,0,1,.75,2.473V15H15.266V9.7a2.287,2.287,0,0,0-.441-1.586,1.768,1.768,0,0,0-1.348-.469,2.386,2.386,0,0,0-1.207.285,2.072,2.072,0,0,0-.785.8V15H9.945V6.547ZM22.4,13.961a1.81,1.81,0,0,0,1.242-.473,1.494,1.494,0,0,0,.531-1.16h1.391l.023.047a2.428,2.428,0,0,1-.937,1.941,3.582,3.582,0,0,1-5-.363,4.674,4.674,0,0,1-.969-3.016v-.328a4.654,4.654,0,0,1,.973-3A3.317,3.317,0,0,1,22.4,6.391a3.189,3.189,0,0,1,2.316.875,2.775,2.775,0,0,1,.871,2.148l-.016.047h-1.4a1.865,1.865,0,0,0-.5-1.316A1.658,1.658,0,0,0,22.4,7.6a1.777,1.777,0,0,0-1.652.879,4.114,4.114,0,0,0-.52,2.129v.328a4.192,4.192,0,0,0,.512,2.148A1.776,1.776,0,0,0,22.4,13.961Zm10.383-.211A2.863,2.863,0,0,1,31.758,14.8a2.8,2.8,0,0,1-1.445.367,2.716,2.716,0,0,1-2.156-.883,4.1,4.1,0,0,1-.773-2.75V6.547h1.539v5a3.147,3.147,0,0,0,.4,1.859,1.481,1.481,0,0,0,1.242.508,2.531,2.531,0,0,0,1.355-.332,2.077,2.077,0,0,0,.809-.941V6.547h1.539V15H32.883Zm7.227,1.414A3.576,3.576,0,0,1,37.168,14a4.48,4.48,0,0,1-1.02-3.062v-.344A4.386,4.386,0,0,1,37.2,7.582a3.3,3.3,0,0,1,2.566-1.191,3.067,3.067,0,0,1,2.543,1.055,4.345,4.345,0,0,1,.848,2.8v.813H37.75l-.023.039a3.494,3.494,0,0,0,.563,2.066,1.965,1.965,0,0,0,1.719.793,3.872,3.872,0,0,0,1.371-.223,3.061,3.061,0,0,0,1.012-.613l.6,1a3.7,3.7,0,0,1-1.2.738A4.762,4.762,0,0,1,40.008,15.164ZM39.766,7.6a1.673,1.673,0,0,0-1.332.621,2.938,2.938,0,0,0-.645,1.59l.016.039h3.813V9.727A2.462,2.462,0,0,0,41.164,8.2,1.638,1.638,0,0,0,39.766,7.6ZM49.8,12.727a1.026,1.026,0,0,0-.387-.828,3.732,3.732,0,0,0-1.465-.562,6.146,6.146,0,0,1-2.293-.9,1.814,1.814,0,0,1-.8-1.547,2.229,2.229,0,0,1,.879-1.766,3.879,3.879,0,0,1,4.605.047,2.239,2.239,0,0,1,.852,1.82l-.016.047H49.7a1.331,1.331,0,0,0-.48-.992A1.717,1.717,0,0,0,48.008,7.6a1.751,1.751,0,0,0-1.215.367,1.146,1.146,0,0,0-.4.875.927.927,0,0,0,.348.773,3.848,3.848,0,0,0,1.434.5,6.058,6.058,0,0,1,2.359.93,1.872,1.872,0,0,1,.8,1.57,2.226,2.226,0,0,1-.91,1.836,3.754,3.754,0,0,1-2.379.711,3.715,3.715,0,0,1-2.547-.82,2.341,2.341,0,0,1-.883-1.914l.016-.047H46.1a1.424,1.424,0,0,0,.609,1.2,2.358,2.358,0,0,0,1.336.379,2.1,2.1,0,0,0,1.285-.348A1.063,1.063,0,0,0,49.8,12.727Zm5.594-8.219V6.547h1.6V7.688h-1.6V12.82a1.149,1.149,0,0,0,.246.836.89.89,0,0,0,.652.242,1.429,1.429,0,0,0,.3-.035,2.2,2.2,0,0,0,.273-.074l.211,1.055a1.36,1.36,0,0,1-.508.23,2.562,2.562,0,0,1-.664.09,1.993,1.993,0,0,1-1.492-.566,2.46,2.46,0,0,1-.555-1.777V7.688H52.508V6.547h1.344V4.508ZM63.836,15q-.078-.383-.121-.676a4.96,4.96,0,0,1-.051-.59,3.589,3.589,0,0,1-1.121,1.02,2.867,2.867,0,0,1-1.488.41,2.763,2.763,0,0,1-2.012-.676,2.486,2.486,0,0,1-.691-1.863,2.183,2.183,0,0,1,.98-1.895,4.579,4.579,0,0,1,2.66-.684h1.672V9.211a1.551,1.551,0,0,0-.453-1.176A1.779,1.779,0,0,0,61.93,7.6a1.859,1.859,0,0,0-1.211.375,1.125,1.125,0,0,0-.461.9L58.8,8.891l-.016-.047a2.023,2.023,0,0,1,.863-1.687,3.578,3.578,0,0,1,2.371-.766,3.49,3.49,0,0,1,2.313.73A2.588,2.588,0,0,1,65.2,9.227V13.3a7.923,7.923,0,0,0,.047.875,4.5,4.5,0,0,0,.172.828Zm-2.555-1.125a2.739,2.739,0,0,0,1.508-.43,2.042,2.042,0,0,0,.875-.984V11.086H61.938a2.24,2.24,0,0,0-1.488.469,1.4,1.4,0,0,0-.559,1.1,1.159,1.159,0,0,0,.352.891A1.472,1.472,0,0,0,61.281,13.875Zm11.07-1.148a1.026,1.026,0,0,0-.387-.828,3.732,3.732,0,0,0-1.465-.562,6.146,6.146,0,0,1-2.293-.9,1.814,1.814,0,0,1-.8-1.547,2.229,2.229,0,0,1,.879-1.766,3.879,3.879,0,0,1,4.605.047,2.239,2.239,0,0,1,.852,1.82l-.016.047H72.258a1.331,1.331,0,0,0-.48-.992A1.717,1.717,0,0,0,70.563,7.6a1.751,1.751,0,0,0-1.215.367,1.146,1.146,0,0,0-.4.875.927.927,0,0,0,.348.773,3.848,3.848,0,0,0,1.434.5,6.058,6.058,0,0,1,2.359.93,1.872,1.872,0,0,1,.8,1.57,2.226,2.226,0,0,1-.91,1.836,3.754,3.754,0,0,1-2.379.711,3.715,3.715,0,0,1-2.547-.82,2.341,2.341,0,0,1-.883-1.914l.016-.047h1.469a1.424,1.424,0,0,0,.609,1.2,2.358,2.358,0,0,0,1.336.379,2.1,2.1,0,0,0,1.285-.348A1.063,1.063,0,0,0,72.352,12.727Zm-64.812,30H2.867V46.8H8.336V48H1.328V36.625H8.25v1.211H2.867v3.68H7.539Zm3.781-3.18L11.43,40.8a3.069,3.069,0,0,1,1.059-1.043,2.824,2.824,0,0,1,1.449-.371,2.759,2.759,0,0,1,2.117.8,3.515,3.515,0,0,1,.75,2.473V48H15.266V42.7a2.287,2.287,0,0,0-.441-1.586,1.768,1.768,0,0,0-1.348-.469,2.386,2.386,0,0,0-1.207.285,2.072,2.072,0,0,0-.785.8V48H9.945V39.547Zm9.859-2.039v2.039h1.6v1.141h-1.6V45.82a1.149,1.149,0,0,0,.246.836.89.89,0,0,0,.652.242,1.429,1.429,0,0,0,.3-.035,2.2,2.2,0,0,0,.273-.074l.211,1.055a1.36,1.36,0,0,1-.508.23,2.562,2.562,0,0,1-.664.09A1.993,1.993,0,0,1,20.2,47.6a2.46,2.46,0,0,1-.555-1.777V40.688H18.3V39.547h1.344V37.508Zm7.25,3.4-.789-.047a1.762,1.762,0,0,0-1.027.289,1.854,1.854,0,0,0-.645.813V48H24.43V39.547H25.8l.148,1.234a2.934,2.934,0,0,1,.887-1.023,2.073,2.073,0,0,1,1.215-.367,1.9,1.9,0,0,1,.328.027,2.175,2.175,0,0,1,.258.059Zm4.953,7.258A3.576,3.576,0,0,1,30.543,47a4.48,4.48,0,0,1-1.02-3.062v-.344a4.386,4.386,0,0,1,1.051-3.012,3.3,3.3,0,0,1,2.566-1.191,3.067,3.067,0,0,1,2.543,1.055,4.345,4.345,0,0,1,.848,2.8v.813H31.125L31.1,44.1a3.494,3.494,0,0,0,.563,2.066,1.965,1.965,0,0,0,1.719.793,3.872,3.872,0,0,0,1.371-.223,3.061,3.061,0,0,0,1.012-.613l.6,1a3.7,3.7,0,0,1-1.2.738A4.762,4.762,0,0,1,33.383,48.164ZM33.141,40.6a1.673,1.673,0,0,0-1.332.621,2.938,2.938,0,0,0-.645,1.59l.016.039h3.813v-.125a2.462,2.462,0,0,0-.453-1.523A1.638,1.638,0,0,0,33.141,40.6Zm7.836,4.906.133.594h.047l.148-.594,1.945-5.961h1.57L41.711,48H40.547L37.4,39.547h1.578ZM47.867,48H46.328V39.547h1.539Zm0-10.617H46.328v-1.57h1.539Zm7.281,8.344a1.026,1.026,0,0,0-.387-.828,3.732,3.732,0,0,0-1.465-.562,6.146,6.146,0,0,1-2.293-.9,1.814,1.814,0,0,1-.8-1.547,2.229,2.229,0,0,1,.879-1.766,3.879,3.879,0,0,1,4.605.047,2.239,2.239,0,0,1,.852,1.82l-.016.047H55.055a1.331,1.331,0,0,0-.48-.992,1.717,1.717,0,0,0-1.215-.445,1.751,1.751,0,0,0-1.215.367,1.146,1.146,0,0,0-.4.875.927.927,0,0,0,.348.773,3.848,3.848,0,0,0,1.434.5,6.058,6.058,0,0,1,2.359.93,1.872,1.872,0,0,1,.8,1.57,2.226,2.226,0,0,1-.91,1.836,3.754,3.754,0,0,1-2.379.711,3.715,3.715,0,0,1-2.547-.82,2.341,2.341,0,0,1-.883-1.914l.016-.047h1.469a1.424,1.424,0,0,0,.609,1.2,2.358,2.358,0,0,0,1.336.379,2.1,2.1,0,0,0,1.285-.348A1.063,1.063,0,0,0,55.148,45.727Zm5.594-8.219v2.039h1.6v1.141h-1.6V45.82a1.149,1.149,0,0,0,.246.836.89.89,0,0,0,.652.242,1.429,1.429,0,0,0,.3-.035,2.2,2.2,0,0,0,.273-.074l.211,1.055a1.36,1.36,0,0,1-.508.23,2.562,2.562,0,0,1-.664.09,1.993,1.993,0,0,1-1.492-.566A2.46,2.46,0,0,1,59.2,45.82V40.688H57.859V39.547H59.2V37.508ZM69.188,48q-.078-.383-.121-.676a4.96,4.96,0,0,1-.051-.59,3.589,3.589,0,0,1-1.121,1.02,2.867,2.867,0,0,1-1.488.41,2.763,2.763,0,0,1-2.012-.676,2.486,2.486,0,0,1-.691-1.863,2.183,2.183,0,0,1,.98-1.895,4.579,4.579,0,0,1,2.66-.684h1.672v-.836a1.551,1.551,0,0,0-.453-1.176,1.779,1.779,0,0,0-1.281-.434,1.859,1.859,0,0,0-1.211.375,1.125,1.125,0,0,0-.461.9l-1.461.016-.016-.047A2.023,2.023,0,0,1,65,40.156a3.578,3.578,0,0,1,2.371-.766,3.49,3.49,0,0,1,2.313.73,2.588,2.588,0,0,1,.875,2.105V46.3a7.923,7.923,0,0,0,.047.875,4.5,4.5,0,0,0,.172.828Zm-2.555-1.125a2.739,2.739,0,0,0,1.508-.43,2.042,2.042,0,0,0,.875-.984V44.086H67.289a2.24,2.24,0,0,0-1.488.469,1.4,1.4,0,0,0-.559,1.1,1.159,1.159,0,0,0,.352.891A1.472,1.472,0,0,0,66.633,46.875ZM77.7,45.727a1.026,1.026,0,0,0-.387-.828,3.732,3.732,0,0,0-1.465-.562,6.146,6.146,0,0,1-2.293-.9,1.814,1.814,0,0,1-.8-1.547,2.229,2.229,0,0,1,.879-1.766,3.879,3.879,0,0,1,4.605.047,2.239,2.239,0,0,1,.852,1.82l-.016.047H77.609a1.331,1.331,0,0,0-.48-.992,1.717,1.717,0,0,0-1.215-.445,1.751,1.751,0,0,0-1.215.367,1.146,1.146,0,0,0-.4.875.927.927,0,0,0,.348.773,3.848,3.848,0,0,0,1.434.5,6.058,6.058,0,0,1,2.359.93,1.872,1.872,0,0,1,.8,1.57,2.226,2.226,0,0,1-.91,1.836,3.754,3.754,0,0,1-2.379.711,3.715,3.715,0,0,1-2.547-.82,2.341,2.341,0,0,1-.883-1.914l.016-.047h1.469a1.424,1.424,0,0,0,.609,1.2,2.358,2.358,0,0,0,1.336.379,2.1,2.1,0,0,0,1.285-.348A1.063,1.063,0,0,0,77.7,45.727ZM7.8,75.969h-4.8L2.242,81H.7l1.7-11.375H9.539l-.18,1.211H3.766l-.594,3.922h4.8Zm1.648.727a5.387,5.387,0,0,1,1.473-3.125,4,4,0,0,1,2.941-1.18,2.942,2.942,0,0,1,2.559,1.223,4.1,4.1,0,0,1,.6,3.082l-.031.172A5.4,5.4,0,0,1,15.508,80a4.018,4.018,0,0,1-2.945,1.168A2.945,2.945,0,0,1,10,79.945a4.063,4.063,0,0,1-.59-3.078Zm1.508.172a3.681,3.681,0,0,0,.227,2.242,1.6,1.6,0,0,0,1.563.852,2.211,2.211,0,0,0,1.777-.887,4.5,4.5,0,0,0,.926-2.207l.031-.172a3.683,3.683,0,0,0-.238-2.234A1.6,1.6,0,0,0,13.68,73.6a2.212,2.212,0,0,0-1.785.895,4.425,4.425,0,0,0-.91,2.2Zm10.813,3.094a2.076,2.076,0,0,0,1.293-.477,1.8,1.8,0,0,0,.723-1.156h1.391l.016.047a2.885,2.885,0,0,1-1.223,1.965,3.838,3.838,0,0,1-2.379.824,2.837,2.837,0,0,1-2.527-1.223,4.112,4.112,0,0,1-.559-3l.047-.328a5.417,5.417,0,0,1,1.422-3.035,3.89,3.89,0,0,1,2.93-1.184,2.769,2.769,0,0,1,2.164.883,2.407,2.407,0,0,1,.57,2.148l-.016.039H24.211a1.676,1.676,0,0,0-.3-1.332,1.429,1.429,0,0,0-1.2-.527,2.118,2.118,0,0,0-1.766.895,4.517,4.517,0,0,0-.859,2.113l-.047.328a3.852,3.852,0,0,0,.18,2.168A1.514,1.514,0,0,0,21.766,79.961ZM32.094,81l.086-1.211A3.446,3.446,0,0,1,31,80.813a3.209,3.209,0,0,1-1.5.352,2.33,2.33,0,0,1-2-.895,3.643,3.643,0,0,1-.383-2.738l.742-4.984H29.4l-.75,5a2.963,2.963,0,0,0,.109,1.883,1.311,1.311,0,0,0,1.18.484A2.606,2.606,0,0,0,32.3,78.586l.9-6.039h1.539L33.477,81Zm8.9-2.273a.908.908,0,0,0-.266-.836,3.27,3.27,0,0,0-1.391-.555,5.344,5.344,0,0,1-2.176-.9,1.562,1.562,0,0,1-.582-1.547A2.6,2.6,0,0,1,37.7,73.1a3.935,3.935,0,0,1,2.387-.711,3.006,3.006,0,0,1,2.188.789,1.943,1.943,0,0,1,.633,1.813l-.016.047H41.414a1.162,1.162,0,0,0-.336-1,1.515,1.515,0,0,0-1.156-.437,1.974,1.974,0,0,0-1.254.371,1.334,1.334,0,0,0-.543.871.821.821,0,0,0,.234.781,3.446,3.446,0,0,0,1.375.492,5.217,5.217,0,0,1,2.227.93,1.632,1.632,0,0,1,.586,1.57,2.62,2.62,0,0,1-1.164,1.855,4.265,4.265,0,0,1-2.484.691,3.283,3.283,0,0,1-2.395-.828,2.033,2.033,0,0,1-.652-1.906l.016-.047h1.477a1.245,1.245,0,0,0,.445,1.2,2.1,2.1,0,0,0,1.281.379,2.3,2.3,0,0,0,1.313-.352A1.3,1.3,0,0,0,40.992,78.727Zm7.406-1.8A6.411,6.411,0,0,1,49.758,73.6a3.326,3.326,0,0,1,2.625-1.211,2.589,2.589,0,0,1,1.352.336,2.364,2.364,0,0,1,.891.969l.359-1.148h1.227l-1.273,8.5a3.807,3.807,0,0,1-1.316,2.527,4.483,4.483,0,0,1-2.863.84,5.368,5.368,0,0,1-1.281-.172,4.632,4.632,0,0,1-1.187-.453l.414-1.2a3.921,3.921,0,0,0,1.02.379,5.216,5.216,0,0,0,1.215.145,2.536,2.536,0,0,0,1.691-.52,2.421,2.421,0,0,0,.77-1.551l.141-.961a3.255,3.255,0,0,1-2.484,1.078,2.465,2.465,0,0,1-2.219-1.133,4.13,4.13,0,0,1-.461-2.937Zm1.516.164a3.283,3.283,0,0,0,.207,2.07,1.568,1.568,0,0,0,1.512.75,2.223,2.223,0,0,0,1.2-.324,3.092,3.092,0,0,0,.922-.91l.586-3.867a2.008,2.008,0,0,0-.652-.855,1.793,1.793,0,0,0-1.1-.316,2.1,2.1,0,0,0-1.746.93,5.147,5.147,0,0,0-.9,2.359Zm12.3-3.187-.781-.047a1.9,1.9,0,0,0-1.062.3,2.49,2.49,0,0,0-.781.848L58.7,81H57.156l1.266-8.453H59.8l-.031,1.2a3.552,3.552,0,0,1,1.031-1,2.384,2.384,0,0,1,1.273-.355,1.923,1.923,0,0,1,.324.027,1.786,1.786,0,0,1,.254.059Zm.672,2.789a5.387,5.387,0,0,1,1.473-3.125,4,4,0,0,1,2.941-1.18,2.942,2.942,0,0,1,2.559,1.223,4.1,4.1,0,0,1,.6,3.082l-.031.172A5.4,5.4,0,0,1,68.953,80a4.018,4.018,0,0,1-2.945,1.168,2.945,2.945,0,0,1-2.559-1.219,4.063,4.063,0,0,1-.59-3.078Zm1.508.172a3.681,3.681,0,0,0,.227,2.242,1.6,1.6,0,0,0,1.563.852,2.211,2.211,0,0,0,1.777-.887,4.5,4.5,0,0,0,.926-2.207l.031-.172a3.683,3.683,0,0,0-.238-2.234,1.6,1.6,0,0,0-1.559-.859,2.212,2.212,0,0,0-1.785.895,4.425,4.425,0,0,0-.91,2.2ZM77.164,81l.086-1.211a3.446,3.446,0,0,1-1.176,1.023,3.209,3.209,0,0,1-1.5.352,2.33,2.33,0,0,1-2-.895,3.643,3.643,0,0,1-.383-2.738l.742-4.984h1.539l-.75,5a2.963,2.963,0,0,0,.109,1.883,1.311,1.311,0,0,0,1.18.484,2.606,2.606,0,0,0,2.367-1.328l.9-6.039h1.539L78.547,81Zm11.414-3.906a5.4,5.4,0,0,1-1.316,2.984,3.4,3.4,0,0,1-2.582,1.086,2.9,2.9,0,0,1-1.312-.277,2.238,2.238,0,0,1-.9-.816l-.625,4.18H80.3l1.75-11.7h1.18l.078,1.094a3.5,3.5,0,0,1,1.172-.93,3.372,3.372,0,0,1,1.484-.32,2.371,2.371,0,0,1,2.219,1.262A5.081,5.081,0,0,1,88.6,76.93Zm-1.516-.164a4.127,4.127,0,0,0-.2-2.391,1.558,1.558,0,0,0-1.539-.9,2.229,2.229,0,0,0-1.16.309,3,3,0,0,0-.9.84l-.609,4.063a1.819,1.819,0,0,0,.641.816,1.893,1.893,0,0,0,1.1.293,2.237,2.237,0,0,0,1.754-.809,3.935,3.935,0,0,0,.895-2.059Zm-77.047,32.4a4.853,4.853,0,0,1-1.293,3.461,4.4,4.4,0,0,1-3.355,1.375,4.167,4.167,0,0,1-3.238-1.375,4.959,4.959,0,0,1-1.246-3.461V107.3a4.977,4.977,0,0,1,1.246-3.461,4.156,4.156,0,0,1,3.238-1.383,4.39,4.39,0,0,1,3.355,1.379,4.867,4.867,0,0,1,1.293,3.465Zm-1.539-2.039a3.837,3.837,0,0,0-.844-2.562,2.813,2.813,0,0,0-2.266-1,2.606,2.606,0,0,0-2.145,1,3.972,3.972,0,0,0-.8,2.563v2.039a4,4,0,0,0,.8,2.578,2.606,2.606,0,0,0,2.145,1,2.815,2.815,0,0,0,2.27-1,3.869,3.869,0,0,0,.84-2.582Zm10.766,2.8a4.645,4.645,0,0,1-.879,2.949,2.9,2.9,0,0,1-2.418,1.121,3.064,3.064,0,0,1-1.465-.332,2.719,2.719,0,0,1-1.027-.98L13.2,114h-1.18V101.813h1.539v4.734a2.671,2.671,0,0,1,.988-.859,3.03,3.03,0,0,1,1.379-.3,2.809,2.809,0,0,1,2.438,1.25,5.622,5.622,0,0,1,.875,3.289ZM17.7,109.93a4.666,4.666,0,0,0-.535-2.371,1.762,1.762,0,0,0-1.629-.918,2.014,2.014,0,0,0-1.2.348,2.452,2.452,0,0,0-.777.934v3.664a2.517,2.517,0,0,0,.777.977,2,2,0,0,0,1.215.352,1.829,1.829,0,0,0,1.617-.773,3.552,3.552,0,0,0,.531-2.047Zm8.328,1.8a1.026,1.026,0,0,0-.387-.828,3.733,3.733,0,0,0-1.465-.562,6.146,6.146,0,0,1-2.293-.9,1.814,1.814,0,0,1-.8-1.547,2.229,2.229,0,0,1,.879-1.766,3.433,3.433,0,0,1,2.277-.734,3.4,3.4,0,0,1,2.328.781,2.239,2.239,0,0,1,.852,1.82l-.016.047H25.938a1.331,1.331,0,0,0-.48-.992,1.717,1.717,0,0,0-1.215-.445,1.751,1.751,0,0,0-1.215.367,1.146,1.146,0,0,0-.4.875.927.927,0,0,0,.348.773,3.848,3.848,0,0,0,1.434.5,6.058,6.058,0,0,1,2.359.93,1.872,1.872,0,0,1,.8,1.57,2.226,2.226,0,0,1-.91,1.836,3.754,3.754,0,0,1-2.379.711,3.715,3.715,0,0,1-2.547-.82,2.341,2.341,0,0,1-.883-1.914l.016-.047h1.469a1.424,1.424,0,0,0,.609,1.2,2.358,2.358,0,0,0,1.336.379,2.1,2.1,0,0,0,1.285-.348A1.063,1.063,0,0,0,26.031,111.727Zm6.953,2.438A3.576,3.576,0,0,1,30.145,113a4.48,4.48,0,0,1-1.02-3.062v-.344a4.386,4.386,0,0,1,1.051-3.012,3.3,3.3,0,0,1,2.566-1.191,3.067,3.067,0,0,1,2.543,1.055,4.345,4.345,0,0,1,.848,2.8v.813H30.727l-.023.039a3.494,3.494,0,0,0,.563,2.066,1.965,1.965,0,0,0,1.719.793,3.872,3.872,0,0,0,1.371-.223,3.061,3.061,0,0,0,1.012-.613l.6,1a3.7,3.7,0,0,1-1.2.738A4.762,4.762,0,0,1,32.984,114.164Zm-.242-7.562a1.673,1.673,0,0,0-1.332.621,2.938,2.938,0,0,0-.645,1.59l.016.039h3.813v-.125a2.462,2.462,0,0,0-.453-1.523A1.638,1.638,0,0,0,32.742,106.6Zm9.117.3-.789-.047a1.762,1.762,0,0,0-1.027.289,1.855,1.855,0,0,0-.645.813V114H37.859v-8.453h1.375l.148,1.234a2.934,2.934,0,0,1,.887-1.023,2.073,2.073,0,0,1,1.215-.367,1.9,1.9,0,0,1,.328.027,2.173,2.173,0,0,1,.258.059Zm4.563,4.6.133.594H46.6l.148-.594,1.945-5.961h1.57L47.156,114H45.992l-3.148-8.453h1.578ZM56.727,114q-.078-.383-.121-.676a4.96,4.96,0,0,1-.051-.59,3.589,3.589,0,0,1-1.121,1.02,2.867,2.867,0,0,1-1.488.41,2.763,2.763,0,0,1-2.012-.676,2.486,2.486,0,0,1-.691-1.863,2.183,2.183,0,0,1,.98-1.895,4.579,4.579,0,0,1,2.66-.684h1.672v-.836a1.551,1.551,0,0,0-.453-1.176,1.779,1.779,0,0,0-1.281-.434,1.859,1.859,0,0,0-1.211.375,1.125,1.125,0,0,0-.461.9l-1.461.016-.016-.047a2.023,2.023,0,0,1,.863-1.687,3.578,3.578,0,0,1,2.371-.766,3.49,3.49,0,0,1,2.313.73,2.588,2.588,0,0,1,.875,2.105v4.07a7.923,7.923,0,0,0,.047.875,4.5,4.5,0,0,0,.172.828Zm-2.555-1.125a2.739,2.739,0,0,0,1.508-.43,2.042,2.042,0,0,0,.875-.984v-1.375H54.828a2.24,2.24,0,0,0-1.488.469,1.4,1.4,0,0,0-.559,1.1,1.159,1.159,0,0,0,.352.891A1.472,1.472,0,0,0,54.172,112.875Zm9.516.086a1.81,1.81,0,0,0,1.242-.473,1.494,1.494,0,0,0,.531-1.16h1.391l.023.047a2.428,2.428,0,0,1-.937,1.941,3.582,3.582,0,0,1-5-.363,4.674,4.674,0,0,1-.969-3.016v-.328a4.654,4.654,0,0,1,.973-3,3.317,3.317,0,0,1,2.746-1.215,3.189,3.189,0,0,1,2.316.875,2.775,2.775,0,0,1,.871,2.148l-.016.047h-1.4a1.865,1.865,0,0,0-.5-1.316,1.658,1.658,0,0,0-1.27-.543,1.777,1.777,0,0,0-1.652.879,4.114,4.114,0,0,0-.52,2.129v.328a4.192,4.192,0,0,0,.512,2.148A1.776,1.776,0,0,0,63.688,112.961ZM70.367,114H68.828v-8.453h1.539Zm0-10.617H68.828v-1.57h1.539Zm2.008,6.313a4.654,4.654,0,0,1,1.016-3.09,3.764,3.764,0,0,1,5.535,0,4.639,4.639,0,0,1,1.02,3.094v.172a4.631,4.631,0,0,1-1.016,3.094,3.781,3.781,0,0,1-5.535,0,4.623,4.623,0,0,1-1.02-3.09Zm1.539.172a4.009,4.009,0,0,0,.566,2.219,2.046,2.046,0,0,0,3.355,0,3.988,3.988,0,0,0,.57-2.219V109.7a3.976,3.976,0,0,0-.574-2.211,1.882,1.882,0,0,0-1.684-.883,1.856,1.856,0,0,0-1.668.883,4.018,4.018,0,0,0-.566,2.211Zm2.992-7.906h1.8l.016.047-2.1,2.031H75.461Zm6.3,3.586.109,1.258a3.069,3.069,0,0,1,1.059-1.043,2.824,2.824,0,0,1,1.449-.371,2.759,2.759,0,0,1,2.117.8,3.515,3.515,0,0,1,.75,2.473V114H87.148v-5.3a2.287,2.287,0,0,0-.441-1.586,1.768,1.768,0,0,0-1.348-.469,2.386,2.386,0,0,0-1.207.285,2.072,2.072,0,0,0-.785.8V114H81.828v-8.453Z" transform="translate(-8746 -3492.5)" fill="#12263f"/>
    <path id="Trazado_883968" data-name="Trazado 883968" d="M2.867,13.8H8.414V15H1.328V3.625H2.867Zm12.07-.047A2.863,2.863,0,0,1,13.914,14.8a2.8,2.8,0,0,1-1.445.367,2.716,2.716,0,0,1-2.156-.883,4.1,4.1,0,0,1-.773-2.75V6.547h1.539v5a3.147,3.147,0,0,0,.4,1.859,1.481,1.481,0,0,0,1.242.508,2.531,2.531,0,0,0,1.355-.332,2.077,2.077,0,0,0,.809-.941V6.547h1.539V15H15.039Zm3.453-2.82a5.641,5.641,0,0,1,.871-3.289A2.8,2.8,0,0,1,21.7,6.391a2.966,2.966,0,0,1,1.414.324,2.845,2.845,0,0,1,1.023.934l.188-1.1h1.227v8.5a3.225,3.225,0,0,1-.945,2.5,3.884,3.884,0,0,1-2.727.871,5.717,5.717,0,0,1-1.316-.168,5.147,5.147,0,0,1-1.246-.457l.234-1.2a4.45,4.45,0,0,0,1.074.379,5.517,5.517,0,0,0,1.238.145,2.242,2.242,0,0,0,1.637-.512,2.12,2.12,0,0,0,.512-1.559v-.961a2.725,2.725,0,0,1-.992.8,3.091,3.091,0,0,1-1.336.273,2.89,2.89,0,0,1-2.418-1.121,4.674,4.674,0,0,1-.871-2.949Zm1.539.164a3.592,3.592,0,0,0,.523,2.047,1.817,1.817,0,0,0,1.617.773,2.034,2.034,0,0,0,1.164-.316,2.4,2.4,0,0,0,.773-.895V8.813a2.388,2.388,0,0,0-.773-.855,2.029,2.029,0,0,0-1.148-.316,1.752,1.752,0,0,0-1.629.914,4.718,4.718,0,0,0-.527,2.375ZM32.953,15q-.078-.383-.121-.676a4.96,4.96,0,0,1-.051-.59,3.589,3.589,0,0,1-1.121,1.02,2.867,2.867,0,0,1-1.488.41,2.763,2.763,0,0,1-2.012-.676,2.486,2.486,0,0,1-.691-1.863,2.183,2.183,0,0,1,.98-1.895,4.579,4.579,0,0,1,2.66-.684h1.672V9.211a1.551,1.551,0,0,0-.453-1.176A1.779,1.779,0,0,0,31.047,7.6a1.859,1.859,0,0,0-1.211.375,1.125,1.125,0,0,0-.461.9l-1.461.016L27.9,8.844a2.023,2.023,0,0,1,.863-1.687,3.578,3.578,0,0,1,2.371-.766,3.49,3.49,0,0,1,2.313.73,2.588,2.588,0,0,1,.875,2.105V13.3a7.923,7.923,0,0,0,.047.875,4.5,4.5,0,0,0,.172.828ZM30.4,13.875a2.739,2.739,0,0,0,1.508-.43,2.042,2.042,0,0,0,.875-.984V11.086H31.055a2.24,2.24,0,0,0-1.488.469,1.4,1.4,0,0,0-.559,1.1,1.159,1.159,0,0,0,.352.891A1.472,1.472,0,0,0,30.4,13.875ZM40.555,7.906l-.789-.047a1.762,1.762,0,0,0-1.027.289,1.855,1.855,0,0,0-.645.813V15H36.555V6.547H37.93l.148,1.234a2.934,2.934,0,0,1,.887-1.023,2.073,2.073,0,0,1,1.215-.367,1.9,1.9,0,0,1,.328.027,2.174,2.174,0,0,1,.258.059Zm4.953,7.258A3.576,3.576,0,0,1,42.668,14a4.48,4.48,0,0,1-1.02-3.062v-.344A4.386,4.386,0,0,1,42.7,7.582a3.3,3.3,0,0,1,2.566-1.191,3.067,3.067,0,0,1,2.543,1.055,4.345,4.345,0,0,1,.848,2.8v.813H43.25l-.023.039a3.494,3.494,0,0,0,.563,2.066,1.965,1.965,0,0,0,1.719.793,3.872,3.872,0,0,0,1.371-.223,3.061,3.061,0,0,0,1.012-.613l.6,1a3.7,3.7,0,0,1-1.2.738A4.762,4.762,0,0,1,45.508,15.164ZM45.266,7.6a1.673,1.673,0,0,0-1.332.621,2.938,2.938,0,0,0-.645,1.59l.016.039h3.813V9.727A2.462,2.462,0,0,0,46.664,8.2,1.638,1.638,0,0,0,45.266,7.6ZM55.3,12.727a1.026,1.026,0,0,0-.387-.828,3.732,3.732,0,0,0-1.465-.562,6.146,6.146,0,0,1-2.293-.9,1.814,1.814,0,0,1-.8-1.547,2.229,2.229,0,0,1,.879-1.766,3.879,3.879,0,0,1,4.605.047,2.239,2.239,0,0,1,.852,1.82l-.016.047H55.2a1.331,1.331,0,0,0-.48-.992A1.717,1.717,0,0,0,53.508,7.6a1.751,1.751,0,0,0-1.215.367,1.146,1.146,0,0,0-.4.875.927.927,0,0,0,.348.773,3.848,3.848,0,0,0,1.434.5,6.058,6.058,0,0,1,2.359.93,1.872,1.872,0,0,1,.8,1.57,2.226,2.226,0,0,1-.91,1.836,3.754,3.754,0,0,1-2.379.711A3.715,3.715,0,0,1,51,14.344a2.341,2.341,0,0,1-.883-1.914l.016-.047H51.6a1.424,1.424,0,0,0,.609,1.2,2.358,2.358,0,0,0,1.336.379,2.1,2.1,0,0,0,1.285-.348A1.063,1.063,0,0,0,55.3,12.727ZM7.2,45.07H2.922L1.906,48H.336l4.1-11.375h1.32L9.773,48H8.2ZM3.367,43.781h3.4L5.109,38.9H5.063Zm11.227,3.18a1.81,1.81,0,0,0,1.242-.473,1.494,1.494,0,0,0,.531-1.16h1.391l.023.047a2.428,2.428,0,0,1-.937,1.941,3.312,3.312,0,0,1-2.25.848,3.319,3.319,0,0,1-2.75-1.211,4.674,4.674,0,0,1-.969-3.016v-.328a4.654,4.654,0,0,1,.973-3,3.317,3.317,0,0,1,2.746-1.215,3.189,3.189,0,0,1,2.316.875,2.775,2.775,0,0,1,.871,2.148l-.016.047h-1.4a1.865,1.865,0,0,0-.5-1.316,1.658,1.658,0,0,0-1.27-.543,1.777,1.777,0,0,0-1.652.879,4.114,4.114,0,0,0-.52,2.129v.328a4.192,4.192,0,0,0,.512,2.148A1.776,1.776,0,0,0,14.594,46.961Zm7.156-9.453v2.039h1.6v1.141h-1.6V45.82a1.149,1.149,0,0,0,.246.836.89.89,0,0,0,.652.242,1.429,1.429,0,0,0,.3-.035,2.2,2.2,0,0,0,.273-.074l.211,1.055a1.36,1.36,0,0,1-.508.23,2.562,2.562,0,0,1-.664.09,1.993,1.993,0,0,1-1.492-.566,2.46,2.46,0,0,1-.555-1.777V40.688H18.867V39.547h1.344V37.508ZM24.641,43.7a4.654,4.654,0,0,1,1.016-3.09,3.406,3.406,0,0,1,2.758-1.215A3.439,3.439,0,0,1,31.191,40.6a4.639,4.639,0,0,1,1.02,3.094v.172A4.631,4.631,0,0,1,31.2,46.961a3.429,3.429,0,0,1-2.766,1.2,3.436,3.436,0,0,1-2.77-1.207,4.623,4.623,0,0,1-1.02-3.09Zm1.539.172a4.009,4.009,0,0,0,.566,2.219,2.046,2.046,0,0,0,3.355,0,3.988,3.988,0,0,0,.57-2.219V43.7a3.976,3.976,0,0,0-.574-2.211,1.882,1.882,0,0,0-1.684-.883,1.856,1.856,0,0,0-1.668.883A4.018,4.018,0,0,0,26.18,43.7Zm11.914-2.961-.789-.047a1.762,1.762,0,0,0-1.027.289,1.855,1.855,0,0,0-.645.813V48H34.094V39.547h1.375l.148,1.234a2.934,2.934,0,0,1,.887-1.023,2.073,2.073,0,0,1,1.215-.367,1.9,1.9,0,0,1,.328.027,2.175,2.175,0,0,1,.258.059Zm4.953,7.258A3.576,3.576,0,0,1,40.207,47a4.48,4.48,0,0,1-1.02-3.062v-.344a4.386,4.386,0,0,1,1.051-3.012A3.3,3.3,0,0,1,42.8,39.391a3.067,3.067,0,0,1,2.543,1.055,4.345,4.345,0,0,1,.848,2.8v.813H40.789l-.023.039a3.494,3.494,0,0,0,.563,2.066,1.965,1.965,0,0,0,1.719.793,3.872,3.872,0,0,0,1.371-.223,3.061,3.061,0,0,0,1.012-.613l.6,1a3.7,3.7,0,0,1-1.2.738A4.762,4.762,0,0,1,43.047,48.164ZM42.8,40.6a1.673,1.673,0,0,0-1.332.621,2.938,2.938,0,0,0-.645,1.59l.016.039h3.813v-.125A2.462,2.462,0,0,0,44.2,41.2,1.638,1.638,0,0,0,42.8,40.6Zm10.031,5.125a1.026,1.026,0,0,0-.387-.828,3.732,3.732,0,0,0-1.465-.562,6.146,6.146,0,0,1-2.293-.9,1.814,1.814,0,0,1-.8-1.547,2.229,2.229,0,0,1,.879-1.766,3.879,3.879,0,0,1,4.605.047,2.239,2.239,0,0,1,.852,1.82l-.016.047H52.742a1.331,1.331,0,0,0-.48-.992,1.717,1.717,0,0,0-1.215-.445,1.751,1.751,0,0,0-1.215.367,1.146,1.146,0,0,0-.4.875.927.927,0,0,0,.348.773,3.848,3.848,0,0,0,1.434.5,6.058,6.058,0,0,1,2.359.93,1.872,1.872,0,0,1,.8,1.57,2.226,2.226,0,0,1-.91,1.836,3.754,3.754,0,0,1-2.379.711,3.715,3.715,0,0,1-2.547-.82,2.341,2.341,0,0,1-.883-1.914l.016-.047h1.469a1.424,1.424,0,0,0,.609,1.2,2.358,2.358,0,0,0,1.336.379,2.1,2.1,0,0,0,1.285-.348A1.063,1.063,0,0,0,52.836,45.727ZM9.281,70.836H5.531V81H3.992V70.836H.289V69.625H9.281ZM12.352,81H10.813V72.547h1.539Zm0-10.617H10.813v-1.57h1.539Zm5.867,10.781A3.576,3.576,0,0,1,15.379,80a4.48,4.48,0,0,1-1.02-3.062v-.344a4.386,4.386,0,0,1,1.051-3.012,3.3,3.3,0,0,1,2.566-1.191,3.067,3.067,0,0,1,2.543,1.055,4.345,4.345,0,0,1,.848,2.8v.813H15.961l-.023.039a3.494,3.494,0,0,0,.563,2.066,1.965,1.965,0,0,0,1.719.793,3.872,3.872,0,0,0,1.371-.223,3.061,3.061,0,0,0,1.012-.613l.6,1a3.7,3.7,0,0,1-1.2.738A4.762,4.762,0,0,1,18.219,81.164ZM17.977,73.6a1.673,1.673,0,0,0-1.332.621A2.938,2.938,0,0,0,16,75.813l.016.039h3.813v-.125a2.462,2.462,0,0,0-.453-1.523A1.638,1.638,0,0,0,17.977,73.6Zm6.492-1.055.109,1.109a2.871,2.871,0,0,1,1.051-.934,3.158,3.158,0,0,1,1.48-.332,2.615,2.615,0,0,1,1.449.391,2.363,2.363,0,0,1,.91,1.172,3.162,3.162,0,0,1,1.059-1.145,2.769,2.769,0,0,1,1.527-.418,2.531,2.531,0,0,1,2.039.887,4.051,4.051,0,0,1,.75,2.668V81H33.3V75.93a2.81,2.81,0,0,0-.43-1.77,1.567,1.567,0,0,0-1.281-.52,1.631,1.631,0,0,0-1.277.547,2.381,2.381,0,0,0-.574,1.383V81H28.2V75.93a2.772,2.772,0,0,0-.441-1.738,1.532,1.532,0,0,0-1.27-.551,2.115,2.115,0,0,0-1.156.289,1.867,1.867,0,0,0-.7.813V81H23.094V72.547Zm19.813,4.547a4.659,4.659,0,0,1-.875,2.949,2.893,2.893,0,0,1-2.414,1.121,3.354,3.354,0,0,1-1.371-.262,2.622,2.622,0,0,1-1-.785V84.25H37.078v-11.7h1.18l.242,1.094a2.792,2.792,0,0,1,1.031-.93,3.078,3.078,0,0,1,1.438-.32,2.809,2.809,0,0,1,2.441,1.246,5.637,5.637,0,0,1,.871,3.293Zm-1.539-.164a4.467,4.467,0,0,0-.566-2.363,1.835,1.835,0,0,0-1.668-.926,2.053,2.053,0,0,0-1.133.3,2.25,2.25,0,0,0-.758.824v4.086a2.186,2.186,0,0,0,.758.816,2.126,2.126,0,0,0,1.148.293,1.894,1.894,0,0,0,1.656-.8,3.516,3.516,0,0,0,.563-2.066Zm3.07-.234a4.654,4.654,0,0,1,1.016-3.09,3.764,3.764,0,0,1,5.535,0,4.639,4.639,0,0,1,1.02,3.094v.172a4.631,4.631,0,0,1-1.016,3.094,3.781,3.781,0,0,1-5.535,0,4.623,4.623,0,0,1-1.02-3.09Zm1.539.172a4.009,4.009,0,0,0,.566,2.219,2.046,2.046,0,0,0,3.355,0,3.988,3.988,0,0,0,.57-2.219V76.7a3.976,3.976,0,0,0-.574-2.211,1.882,1.882,0,0,0-1.684-.883,1.856,1.856,0,0,0-1.668.883,4.018,4.018,0,0,0-.566,2.211ZM60.18,78.727a1.026,1.026,0,0,0-.387-.828,3.733,3.733,0,0,0-1.465-.562,6.146,6.146,0,0,1-2.293-.9,1.814,1.814,0,0,1-.8-1.547,2.229,2.229,0,0,1,.879-1.766,3.879,3.879,0,0,1,4.605.047,2.239,2.239,0,0,1,.852,1.82l-.016.047H60.086a1.331,1.331,0,0,0-.48-.992,1.717,1.717,0,0,0-1.215-.445,1.751,1.751,0,0,0-1.215.367,1.146,1.146,0,0,0-.4.875.927.927,0,0,0,.348.773,3.848,3.848,0,0,0,1.434.5,6.058,6.058,0,0,1,2.359.93,1.872,1.872,0,0,1,.8,1.57,2.226,2.226,0,0,1-.91,1.836,3.754,3.754,0,0,1-2.379.711,3.715,3.715,0,0,1-2.547-.82A2.341,2.341,0,0,1,55,78.43l.016-.047h1.469a1.424,1.424,0,0,0,.609,1.2,2.358,2.358,0,0,0,1.336.379,2.1,2.1,0,0,0,1.285-.348A1.063,1.063,0,0,0,60.18,78.727ZM9.445,110.359l.016.047a3.417,3.417,0,0,1-1.125,2.68,4.3,4.3,0,0,1-3.055,1.078A4.012,4.012,0,0,1,2.137,112.8a5.028,5.028,0,0,1-1.215-3.469V107.3a5.043,5.043,0,0,1,1.215-3.473,4.006,4.006,0,0,1,3.145-1.371,4.416,4.416,0,0,1,3.07,1.027,3.4,3.4,0,0,1,1.109,2.723l-.016.047H7.969a2.539,2.539,0,0,0-.7-1.891,2.7,2.7,0,0,0-1.984-.7,2.424,2.424,0,0,0-2.055,1.039,4.227,4.227,0,0,0-.766,2.578v2.039a4.254,4.254,0,0,0,.766,2.594,2.424,2.424,0,0,0,2.055,1.039,2.71,2.71,0,0,0,1.984-.691,2.557,2.557,0,0,0,.7-1.91Zm1.445-.664a4.654,4.654,0,0,1,1.016-3.09,3.406,3.406,0,0,1,2.758-1.215,3.439,3.439,0,0,1,2.777,1.211,4.639,4.639,0,0,1,1.02,3.094v.172a4.631,4.631,0,0,1-1.016,3.094,3.429,3.429,0,0,1-2.766,1.2,3.436,3.436,0,0,1-2.77-1.207,4.623,4.623,0,0,1-1.02-3.09Zm1.539.172A4.009,4.009,0,0,0,13,112.086a1.875,1.875,0,0,0,1.684.875,1.87,1.87,0,0,0,1.672-.875,3.988,3.988,0,0,0,.57-2.219V109.7a3.976,3.976,0,0,0-.574-2.211,1.882,1.882,0,0,0-1.684-.883,1.856,1.856,0,0,0-1.668.883,4.018,4.018,0,0,0-.566,2.211Zm12.828,1.859a1.026,1.026,0,0,0-.387-.828,3.733,3.733,0,0,0-1.465-.562,6.146,6.146,0,0,1-2.293-.9,1.814,1.814,0,0,1-.8-1.547,2.229,2.229,0,0,1,.879-1.766,3.433,3.433,0,0,1,2.277-.734,3.4,3.4,0,0,1,2.328.781,2.239,2.239,0,0,1,.852,1.82l-.016.047H25.164a1.331,1.331,0,0,0-.48-.992,1.717,1.717,0,0,0-1.215-.445,1.751,1.751,0,0,0-1.215.367,1.146,1.146,0,0,0-.4.875.927.927,0,0,0,.348.773,3.848,3.848,0,0,0,1.434.5,6.058,6.058,0,0,1,2.359.93,1.872,1.872,0,0,1,.8,1.57,2.226,2.226,0,0,1-.91,1.836,3.754,3.754,0,0,1-2.379.711,3.715,3.715,0,0,1-2.547-.82,2.341,2.341,0,0,1-.883-1.914l.016-.047h1.469a1.424,1.424,0,0,0,.609,1.2,2.358,2.358,0,0,0,1.336.379,2.1,2.1,0,0,0,1.285-.348A1.063,1.063,0,0,0,25.258,111.727Zm5.594-8.219v2.039h1.6v1.141h-1.6v5.133a1.149,1.149,0,0,0,.246.836.89.89,0,0,0,.652.242,1.429,1.429,0,0,0,.3-.035,2.2,2.2,0,0,0,.273-.074l.211,1.055a1.36,1.36,0,0,1-.508.23,2.562,2.562,0,0,1-.664.09,1.993,1.993,0,0,1-1.492-.566,2.46,2.46,0,0,1-.555-1.777v-5.133H27.969v-1.141h1.344v-2.039Zm2.891,6.188a4.654,4.654,0,0,1,1.016-3.09,3.764,3.764,0,0,1,5.535,0,4.639,4.639,0,0,1,1.02,3.094v.172a4.631,4.631,0,0,1-1.016,3.094,3.781,3.781,0,0,1-5.535,0,4.623,4.623,0,0,1-1.02-3.09Zm1.539.172a4.009,4.009,0,0,0,.566,2.219,2.046,2.046,0,0,0,3.355,0,3.988,3.988,0,0,0,.57-2.219V109.7a3.976,3.976,0,0,0-.574-2.211,1.882,1.882,0,0,0-1.684-.883,1.856,1.856,0,0,0-1.668.883,4.018,4.018,0,0,0-.566,2.211Zm12.828,1.859a1.026,1.026,0,0,0-.387-.828,3.733,3.733,0,0,0-1.465-.562,6.146,6.146,0,0,1-2.293-.9,1.814,1.814,0,0,1-.8-1.547,2.229,2.229,0,0,1,.879-1.766,3.879,3.879,0,0,1,4.605.047,2.239,2.239,0,0,1,.852,1.82l-.016.047H48.016a1.331,1.331,0,0,0-.48-.992,1.717,1.717,0,0,0-1.215-.445,1.751,1.751,0,0,0-1.215.367,1.146,1.146,0,0,0-.4.875.927.927,0,0,0,.348.773,3.848,3.848,0,0,0,1.434.5,6.058,6.058,0,0,1,2.359.93,1.872,1.872,0,0,1,.8,1.57,2.226,2.226,0,0,1-.91,1.836,3.754,3.754,0,0,1-2.379.711,3.715,3.715,0,0,1-2.547-.82,2.341,2.341,0,0,1-.883-1.914l.016-.047h1.469a1.424,1.424,0,0,0,.609,1.2,2.358,2.358,0,0,0,1.336.379,2.1,2.1,0,0,0,1.285-.348A1.063,1.063,0,0,0,48.109,111.727Z" transform="translate(-8749 -2645.404)" fill="#12263f"/>
    <path id="Trazado_883969" data-name="Trazado 883969" d="M6.219,15H3.945V5.609H1.594V3.867l4.625-.406ZM8.547,48H.914V46.508l3.523-3.984a8.9,8.9,0,0,0,1.121-1.574,2.616,2.616,0,0,0,.332-1.184,1.7,1.7,0,0,0-.352-1.125,1.294,1.294,0,0,0-1.055-.422,1.354,1.354,0,0,0-1.148.539,2.208,2.208,0,0,0-.406,1.367H.711L.7,40.078a3.379,3.379,0,0,1,1-2.566,3.746,3.746,0,0,1,2.789-1.051,3.858,3.858,0,0,1,2.719.895,3.111,3.111,0,0,1,.969,2.4,3.379,3.379,0,0,1-.543,1.867,21.022,21.022,0,0,1-1.871,2.336l-1.875,2.25.016.039H8.547ZM4.523,74.313a1.578,1.578,0,0,0,1.207-.422A1.672,1.672,0,0,0,6.125,72.7a1.455,1.455,0,0,0-.414-1.062,1.546,1.546,0,0,0-1.156-.422A1.514,1.514,0,0,0,3.5,71.6a1.255,1.255,0,0,0-.426.977H.875l-.016-.047a2.582,2.582,0,0,1,1.031-2.2,4.115,4.115,0,0,1,2.664-.867,4.362,4.362,0,0,1,2.8.832A2.879,2.879,0,0,1,8.4,72.68a2.474,2.474,0,0,1-.449,1.434,3.07,3.07,0,0,1-1.23,1.027,2.873,2.873,0,0,1,1.375,1.02,2.784,2.784,0,0,1,.484,1.652A2.964,2.964,0,0,1,7.449,80.27a4.518,4.518,0,0,1-2.895.895,4.51,4.51,0,0,1-2.719-.844A2.663,2.663,0,0,1,.711,77.953l.016-.047H2.945a1.433,1.433,0,0,0,.449,1.074,1.6,1.6,0,0,0,1.16.434,1.76,1.76,0,0,0,1.266-.461A1.538,1.538,0,0,0,6.3,77.789a1.766,1.766,0,0,0-.453-1.332,1.85,1.85,0,0,0-1.328-.434H3.266V74.313Zm2.938,35.453H8.742v1.766H7.461V114H5.18v-2.469H.547l-.109-1.367,4.719-7.539h2.3Zm-4.953,0H5.18v-4.133l-.047-.008-.234.508Z" transform="translate(-8777 -3492.5)" fill="#12263f"/>
    <path id="Trazado_883970" data-name="Trazado 883970" d="M6.219,15H3.945V5.609H1.594V3.867l4.625-.406ZM8.547,48H.914V46.508l3.523-3.984a8.9,8.9,0,0,0,1.121-1.574,2.616,2.616,0,0,0,.332-1.184,1.7,1.7,0,0,0-.352-1.125,1.294,1.294,0,0,0-1.055-.422,1.354,1.354,0,0,0-1.148.539,2.208,2.208,0,0,0-.406,1.367H.711L.7,40.078a3.379,3.379,0,0,1,1-2.566,3.746,3.746,0,0,1,2.789-1.051,3.858,3.858,0,0,1,2.719.895,3.111,3.111,0,0,1,.969,2.4,3.379,3.379,0,0,1-.543,1.867,21.022,21.022,0,0,1-1.871,2.336l-1.875,2.25.016.039H8.547ZM4.523,74.313a1.578,1.578,0,0,0,1.207-.422A1.672,1.672,0,0,0,6.125,72.7a1.455,1.455,0,0,0-.414-1.062,1.546,1.546,0,0,0-1.156-.422A1.514,1.514,0,0,0,3.5,71.6a1.255,1.255,0,0,0-.426.977H.875l-.016-.047a2.582,2.582,0,0,1,1.031-2.2,4.115,4.115,0,0,1,2.664-.867,4.362,4.362,0,0,1,2.8.832A2.879,2.879,0,0,1,8.4,72.68a2.474,2.474,0,0,1-.449,1.434,3.07,3.07,0,0,1-1.23,1.027,2.873,2.873,0,0,1,1.375,1.02,2.784,2.784,0,0,1,.484,1.652A2.964,2.964,0,0,1,7.449,80.27a4.518,4.518,0,0,1-2.895.895,4.51,4.51,0,0,1-2.719-.844A2.663,2.663,0,0,1,.711,77.953l.016-.047H2.945a1.433,1.433,0,0,0,.449,1.074,1.6,1.6,0,0,0,1.16.434,1.76,1.76,0,0,0,1.266-.461A1.538,1.538,0,0,0,6.3,77.789a1.766,1.766,0,0,0-.453-1.332,1.85,1.85,0,0,0-1.328-.434H3.266V74.313Zm2.938,35.453H8.742v1.766H7.461V114H5.18v-2.469H.547l-.109-1.367,4.719-7.539h2.3Zm-4.953,0H5.18v-4.133l-.047-.008-.234.508Z" transform="translate(-8780 -2645.404)" fill="#12263f"/>
    <path id="Trazado_883971" data-name="Trazado 883971" d="M12,0H284a12,12,0,0,1,12,12V271a12,12,0,0,1-12,12H12A12,12,0,0,1,0,271V12A12,12,0,0,1,12,0Z" transform="translate(-8859 -3156.016)" fill="#fff"/>
    <path id="Trazado_883972" data-name="Trazado 883972" d="M3.92,0H1.354V-12.8H3.92ZM8.613-9.51l.114,1.362A3.478,3.478,0,0,1,9.9-9.281a3.034,3.034,0,0,1,1.556-.4,2.828,2.828,0,0,1,2.25.927,4.4,4.4,0,0,1,.809,2.931V0H11.936V-5.818a2.277,2.277,0,0,0-.356-1.446,1.312,1.312,0,0,0-1.068-.426,2.241,2.241,0,0,0-1.006.215,1.965,1.965,0,0,0-.716.593V0H6.223V-9.51ZM21.568-2.637a.885.885,0,0,0-.409-.725,4.151,4.151,0,0,0-1.516-.532A6.047,6.047,0,0,1,17.108-4.9a2.208,2.208,0,0,1-.866-1.837,2.62,2.62,0,0,1,1.037-2.083,4.182,4.182,0,0,1,2.76-.861,4.513,4.513,0,0,1,2.887.861A2.517,2.517,0,0,1,23.968-6.68l-.018.053H21.472a1.245,1.245,0,0,0-.369-.932,1.461,1.461,0,0,0-1.063-.36,1.453,1.453,0,0,0-.976.308.957.957,0,0,0-.36.756.854.854,0,0,0,.374.716,4.158,4.158,0,0,0,1.516.5A6.17,6.17,0,0,1,23.2-4.61a2.265,2.265,0,0,1,.857,1.876,2.51,2.51,0,0,1-1.1,2.1,4.742,4.742,0,0,1-2.9.817,4.408,4.408,0,0,1-3-.962A2.691,2.691,0,0,1,16-2.971l.018-.053h2.347a1.334,1.334,0,0,0,.5,1.107,2.068,2.068,0,0,0,1.239.343,1.762,1.762,0,0,0,1.085-.286A.927.927,0,0,0,21.568-2.637Zm9.967,1.23A3.229,3.229,0,0,1,30.419-.229a2.959,2.959,0,0,1-1.573.413,2.892,2.892,0,0,1-2.351-1.02A4.89,4.89,0,0,1,25.646-4V-9.51H28.2v5.528a3.07,3.07,0,0,0,.338,1.709,1.216,1.216,0,0,0,1.05.461,2.557,2.557,0,0,0,1.055-.2,1.778,1.778,0,0,0,.721-.584V-9.51h2.566V0H31.808Zm6.715-8.1.105,1.257A3.2,3.2,0,0,1,39.5-9.312a3.3,3.3,0,0,1,1.6-.374,2.905,2.905,0,0,1,1.564.4,2.494,2.494,0,0,1,.984,1.222,3.3,3.3,0,0,1,1.143-1.2,3.1,3.1,0,0,1,1.652-.431,2.71,2.71,0,0,1,2.219,1,4.762,4.762,0,0,1,.813,3.045V0H46.907V-5.651a2.665,2.665,0,0,0-.352-1.591A1.248,1.248,0,0,0,45.51-7.69a1.792,1.792,0,0,0-.945.242,1.761,1.761,0,0,0-.637.672q0,.167.009.286t.009.242V0H41.388V-5.651a2.673,2.673,0,0,0-.352-1.578,1.242,1.242,0,0,0-1.055-.461,1.991,1.991,0,0,0-.91.2,1.745,1.745,0,0,0-.646.558V0H35.868V-9.51Zm12.8,4.667a5.1,5.1,0,0,1,1.187-3.485,4.136,4.136,0,0,1,3.287-1.358,4.18,4.18,0,0,1,3.3,1.354,5.076,5.076,0,0,1,1.2,3.489v.185A5.084,5.084,0,0,1,58.83-1.165,4.162,4.162,0,0,1,55.538.185a4.173,4.173,0,0,1-3.3-1.349,5.084,5.084,0,0,1-1.191-3.494Zm2.558.185a4.137,4.137,0,0,0,.457,2.087,1.578,1.578,0,0,0,1.477.787,1.562,1.562,0,0,0,1.455-.791,4.11,4.11,0,0,0,.461-2.083v-.185a4.068,4.068,0,0,0-.466-2.065,1.576,1.576,0,0,0-1.468-.8,1.557,1.557,0,0,0-1.455.8A4.1,4.1,0,0,0,53.6-4.843Zm13.14,2.021a.885.885,0,0,0-.409-.725,4.151,4.151,0,0,0-1.516-.532A6.047,6.047,0,0,1,62.284-4.9a2.208,2.208,0,0,1-.866-1.837,2.62,2.62,0,0,1,1.037-2.083,4.182,4.182,0,0,1,2.76-.861,4.513,4.513,0,0,1,2.887.861A2.517,2.517,0,0,1,69.144-6.68l-.018.053H66.647a1.245,1.245,0,0,0-.369-.932,1.461,1.461,0,0,0-1.063-.36,1.453,1.453,0,0,0-.976.308.957.957,0,0,0-.36.756.854.854,0,0,0,.374.716,4.158,4.158,0,0,0,1.516.5A6.17,6.17,0,0,1,68.375-4.61a2.265,2.265,0,0,1,.857,1.876,2.51,2.51,0,0,1-1.1,2.1,4.742,4.742,0,0,1-2.9.817,4.408,4.408,0,0,1-3-.962,2.691,2.691,0,0,1-1.05-2.193l.018-.053h2.347a1.334,1.334,0,0,0,.5,1.107,2.068,2.068,0,0,0,1.239.343,1.762,1.762,0,0,0,1.085-.286A.927.927,0,0,0,66.744-2.637Z" transform="translate(-8746 -3175.016)" fill="#12263f"/>
    <path id="Trazado_883973" data-name="Trazado 883973" d="M0,0H24V24H0Z" transform="translate(-8804 -3125.016)" fill="#00ffdf"/>
    <path id="Trazado_883974" data-name="Trazado 883974" d="M0,0H24V24H0Z" transform="translate(-8804 -3059.016)" fill="#00ffdf"/>
    <path id="Trazado_883975" data-name="Trazado 883975" d="M0,0H24V24H0Z" transform="translate(-8804 -3092.016)" fill="#00ffdf"/>
    <path id="Trazado_883976" data-name="Trazado 883976" d="M0,0H24V24H0Z" transform="translate(-8804 -3026.016)" fill="#00ffdf"/>
    <path id="Trazado_883977" data-name="Trazado 883977" d="M0,0H24V24H0Z" transform="translate(-8804 -2993.016)" fill="#00ffdf"/>
    <path id="Trazado_883978" data-name="Trazado 883978" d="M0,0H24V24H0Z" transform="translate(-8804 -2960.016)" fill="#00ffdf"/>
    <path id="Trazado_883979" data-name="Trazado 883979" d="M0,0H24V24H0Z" transform="translate(-8804 -2927.016)" fill="#00ffdf"/>
    <path id="Trazado_883980" data-name="Trazado 883980" d="M2.867,10.07V15H1.328V3.633H5.219a4.32,4.32,0,0,1,2.852.828,2.968,2.968,0,0,1,.984,2.406A2.576,2.576,0,0,1,8.6,8.391,3.1,3.1,0,0,1,7.266,9.422a2.331,2.331,0,0,1,1.348.988,3.236,3.236,0,0,1,.41,1.691v1.07a3.564,3.564,0,0,0,.117.953,1.429,1.429,0,0,0,.406.688V15H7.961a1.273,1.273,0,0,1-.391-.781,6.453,6.453,0,0,1-.086-1.062V12.117a2.056,2.056,0,0,0-.539-1.484A1.908,1.908,0,0,0,5.5,10.07Zm0-1.211h2.2a2.858,2.858,0,0,0,1.879-.5,1.89,1.89,0,0,0,.574-1.512,1.948,1.948,0,0,0-.559-1.488,2.461,2.461,0,0,0-1.738-.527H2.867Zm8.07,1.836a4.654,4.654,0,0,1,1.016-3.09,3.406,3.406,0,0,1,2.758-1.215A3.439,3.439,0,0,1,17.488,7.6a4.639,4.639,0,0,1,1.02,3.094v.172a4.631,4.631,0,0,1-1.016,3.094,3.429,3.429,0,0,1-2.766,1.2,3.436,3.436,0,0,1-2.77-1.207,4.623,4.623,0,0,1-1.02-3.09Zm1.539.172a4.009,4.009,0,0,0,.566,2.219,1.875,1.875,0,0,0,1.684.875,1.87,1.87,0,0,0,1.672-.875,3.988,3.988,0,0,0,.57-2.219V10.7a3.976,3.976,0,0,0-.574-2.211A1.882,1.882,0,0,0,14.711,7.6a1.856,1.856,0,0,0-1.668.883,4.018,4.018,0,0,0-.566,2.211ZM22.055,15H20.516V2.813h1.539Zm5.867.164A3.576,3.576,0,0,1,25.082,14a4.48,4.48,0,0,1-1.02-3.062v-.344a4.386,4.386,0,0,1,1.051-3.012A3.3,3.3,0,0,1,27.68,6.391a3.067,3.067,0,0,1,2.543,1.055,4.345,4.345,0,0,1,.848,2.8v.813H25.664l-.023.039a3.494,3.494,0,0,0,.563,2.066,1.965,1.965,0,0,0,1.719.793,3.872,3.872,0,0,0,1.371-.223,3.061,3.061,0,0,0,1.012-.613l.6,1a3.7,3.7,0,0,1-1.2.738A4.762,4.762,0,0,1,27.922,15.164ZM27.68,7.6a1.673,1.673,0,0,0-1.332.621,2.938,2.938,0,0,0-.645,1.59l.016.039h3.813V9.727A2.462,2.462,0,0,0,29.078,8.2,1.638,1.638,0,0,0,27.68,7.6Zm10.031,5.125a1.026,1.026,0,0,0-.387-.828,3.732,3.732,0,0,0-1.465-.562,6.146,6.146,0,0,1-2.293-.9,1.814,1.814,0,0,1-.8-1.547,2.229,2.229,0,0,1,.879-1.766,3.879,3.879,0,0,1,4.605.047,2.239,2.239,0,0,1,.852,1.82l-.016.047H37.617a1.331,1.331,0,0,0-.48-.992A1.717,1.717,0,0,0,35.922,7.6a1.751,1.751,0,0,0-1.215.367,1.146,1.146,0,0,0-.4.875.927.927,0,0,0,.348.773,3.848,3.848,0,0,0,1.434.5,6.058,6.058,0,0,1,2.359.93,1.872,1.872,0,0,1,.8,1.57,2.226,2.226,0,0,1-.91,1.836,3.754,3.754,0,0,1-2.379.711,3.715,3.715,0,0,1-2.547-.82,2.341,2.341,0,0,1-.883-1.914l.016-.047h1.469a1.424,1.424,0,0,0,.609,1.2,2.358,2.358,0,0,0,1.336.379,2.1,2.1,0,0,0,1.285-.348A1.063,1.063,0,0,0,37.711,12.727ZM9.445,44.359l.016.047a3.417,3.417,0,0,1-1.125,2.68,4.3,4.3,0,0,1-3.055,1.078A4.012,4.012,0,0,1,2.137,46.8,5.028,5.028,0,0,1,.922,43.328V41.3a5.043,5.043,0,0,1,1.215-3.473,4.006,4.006,0,0,1,3.145-1.371,4.416,4.416,0,0,1,3.07,1.027,3.4,3.4,0,0,1,1.109,2.723l-.016.047H7.969a2.539,2.539,0,0,0-.7-1.891,2.7,2.7,0,0,0-1.984-.7,2.424,2.424,0,0,0-2.055,1.039,4.227,4.227,0,0,0-.766,2.578v2.039a4.254,4.254,0,0,0,.766,2.594,2.424,2.424,0,0,0,2.055,1.039,2.71,2.71,0,0,0,1.984-.691,2.557,2.557,0,0,0,.7-1.91Zm1.445-.664a4.654,4.654,0,0,1,1.016-3.09,3.406,3.406,0,0,1,2.758-1.215A3.439,3.439,0,0,1,17.441,40.6a4.639,4.639,0,0,1,1.02,3.094v.172a4.631,4.631,0,0,1-1.016,3.094,3.429,3.429,0,0,1-2.766,1.2,3.436,3.436,0,0,1-2.77-1.207,4.623,4.623,0,0,1-1.02-3.09Zm1.539.172A4.009,4.009,0,0,0,13,46.086a1.875,1.875,0,0,0,1.684.875,1.87,1.87,0,0,0,1.672-.875,3.988,3.988,0,0,0,.57-2.219V43.7a3.976,3.976,0,0,0-.574-2.211,1.882,1.882,0,0,0-1.684-.883A1.856,1.856,0,0,0,13,41.484,4.018,4.018,0,0,0,12.43,43.7Zm9.289-4.32.109,1.258a3.069,3.069,0,0,1,1.059-1.043,2.824,2.824,0,0,1,1.449-.371,2.759,2.759,0,0,1,2.117.8,3.515,3.515,0,0,1,.75,2.473V48H25.664V42.7a2.287,2.287,0,0,0-.441-1.586,1.768,1.768,0,0,0-1.348-.469,2.386,2.386,0,0,0-1.207.285,2.072,2.072,0,0,0-.785.8V48H20.344V39.547Zm9.859-2.039v2.039h1.6v1.141h-1.6V45.82a1.149,1.149,0,0,0,.246.836.89.89,0,0,0,.652.242,1.429,1.429,0,0,0,.3-.035,2.2,2.2,0,0,0,.273-.074l.211,1.055a1.36,1.36,0,0,1-.508.23,2.562,2.562,0,0,1-.664.09,1.993,1.993,0,0,1-1.492-.566,2.46,2.46,0,0,1-.555-1.777V40.688H28.7V39.547h1.344V37.508ZM40.023,48q-.078-.383-.121-.676a4.96,4.96,0,0,1-.051-.59,3.589,3.589,0,0,1-1.121,1.02,2.867,2.867,0,0,1-1.488.41,2.763,2.763,0,0,1-2.012-.676,2.486,2.486,0,0,1-.691-1.863,2.183,2.183,0,0,1,.98-1.895,4.579,4.579,0,0,1,2.66-.684h1.672v-.836a1.551,1.551,0,0,0-.453-1.176,1.779,1.779,0,0,0-1.281-.434,1.859,1.859,0,0,0-1.211.375,1.125,1.125,0,0,0-.461.9l-1.461.016-.016-.047a2.023,2.023,0,0,1,.863-1.687,3.578,3.578,0,0,1,2.371-.766,3.49,3.49,0,0,1,2.313.73,2.588,2.588,0,0,1,.875,2.105V46.3a7.923,7.923,0,0,0,.047.875,4.5,4.5,0,0,0,.172.828Zm-2.555-1.125a2.739,2.739,0,0,0,1.508-.43,2.042,2.042,0,0,0,.875-.984V44.086H38.125a2.24,2.24,0,0,0-1.488.469,1.4,1.4,0,0,0-.559,1.1,1.159,1.159,0,0,0,.352.891A1.472,1.472,0,0,0,37.469,46.875Zm9.516.086a1.81,1.81,0,0,0,1.242-.473,1.494,1.494,0,0,0,.531-1.16h1.391l.023.047a2.428,2.428,0,0,1-.937,1.941,3.582,3.582,0,0,1-5-.363,4.674,4.674,0,0,1-.969-3.016v-.328a4.654,4.654,0,0,1,.973-3,3.317,3.317,0,0,1,2.746-1.215,3.189,3.189,0,0,1,2.316.875,2.775,2.775,0,0,1,.871,2.148l-.016.047h-1.4a1.865,1.865,0,0,0-.5-1.316,1.658,1.658,0,0,0-1.27-.543,1.777,1.777,0,0,0-1.652.879,4.114,4.114,0,0,0-.52,2.129v.328a4.192,4.192,0,0,0,.512,2.148A1.776,1.776,0,0,0,46.984,46.961Zm7.156-9.453v2.039h1.6v1.141h-1.6V45.82a1.149,1.149,0,0,0,.246.836.89.89,0,0,0,.652.242,1.429,1.429,0,0,0,.3-.035,2.2,2.2,0,0,0,.273-.074l.211,1.055a1.36,1.36,0,0,1-.508.23,2.562,2.562,0,0,1-.664.09,1.993,1.993,0,0,1-1.492-.566A2.46,2.46,0,0,1,52.6,45.82V40.688H51.258V39.547H52.6V37.508ZM57.031,43.7a4.654,4.654,0,0,1,1.016-3.09,3.764,3.764,0,0,1,5.535,0A4.639,4.639,0,0,1,64.6,43.7v.172a4.631,4.631,0,0,1-1.016,3.094,3.781,3.781,0,0,1-5.535,0,4.623,4.623,0,0,1-1.02-3.09Zm1.539.172a4.009,4.009,0,0,0,.566,2.219,2.046,2.046,0,0,0,3.355,0,3.988,3.988,0,0,0,.57-2.219V43.7a3.976,3.976,0,0,0-.574-2.211A1.882,1.882,0,0,0,60.8,40.6a1.856,1.856,0,0,0-1.668.883A4.018,4.018,0,0,0,58.57,43.7ZM71.4,45.727a1.026,1.026,0,0,0-.387-.828,3.732,3.732,0,0,0-1.465-.562,6.146,6.146,0,0,1-2.293-.9,1.814,1.814,0,0,1-.8-1.547,2.229,2.229,0,0,1,.879-1.766,3.879,3.879,0,0,1,4.605.047,2.239,2.239,0,0,1,.852,1.82l-.016.047H71.3a1.331,1.331,0,0,0-.48-.992,1.717,1.717,0,0,0-1.215-.445,1.751,1.751,0,0,0-1.215.367,1.146,1.146,0,0,0-.4.875.927.927,0,0,0,.348.773,3.848,3.848,0,0,0,1.434.5,6.058,6.058,0,0,1,2.359.93,1.872,1.872,0,0,1,.8,1.57,2.226,2.226,0,0,1-.91,1.836,3.754,3.754,0,0,1-2.379.711,3.715,3.715,0,0,1-2.547-.82,2.341,2.341,0,0,1-.883-1.914l.016-.047H67.7a1.424,1.424,0,0,0,.609,1.2,2.358,2.358,0,0,0,1.336.379,2.1,2.1,0,0,0,1.285-.348A1.063,1.063,0,0,0,71.4,45.727ZM4.781,78.016l.258.945h.047l.258-.945,2.938-8.391H9.945L5.719,81H4.4L.172,69.625H1.844ZM12.9,81H11.359V72.547H12.9Zm0-10.617H11.359v-1.57H12.9Zm7.281,8.344a1.026,1.026,0,0,0-.387-.828,3.733,3.733,0,0,0-1.465-.562,6.146,6.146,0,0,1-2.293-.9,1.814,1.814,0,0,1-.8-1.547,2.229,2.229,0,0,1,.879-1.766,3.433,3.433,0,0,1,2.277-.734,3.4,3.4,0,0,1,2.328.781,2.239,2.239,0,0,1,.852,1.82l-.016.047H20.086a1.331,1.331,0,0,0-.48-.992,1.717,1.717,0,0,0-1.215-.445,1.751,1.751,0,0,0-1.215.367,1.146,1.146,0,0,0-.4.875.927.927,0,0,0,.348.773,3.848,3.848,0,0,0,1.434.5,6.058,6.058,0,0,1,2.359.93,1.872,1.872,0,0,1,.8,1.57,2.226,2.226,0,0,1-.91,1.836,3.754,3.754,0,0,1-2.379.711,3.715,3.715,0,0,1-2.547-.82A2.341,2.341,0,0,1,15,78.43l.016-.047h1.469a1.424,1.424,0,0,0,.609,1.2,2.358,2.358,0,0,0,1.336.379,2.1,2.1,0,0,0,1.285-.348A1.063,1.063,0,0,0,20.18,78.727ZM25.3,81H23.758V72.547H25.3Zm0-10.617H23.758v-1.57H25.3ZM27.3,76.7a4.654,4.654,0,0,1,1.016-3.09,3.764,3.764,0,0,1,5.535,0,4.639,4.639,0,0,1,1.02,3.094v.172a4.631,4.631,0,0,1-1.016,3.094,3.781,3.781,0,0,1-5.535,0,4.623,4.623,0,0,1-1.02-3.09Zm1.539.172a4.009,4.009,0,0,0,.566,2.219,2.046,2.046,0,0,0,3.355,0,3.988,3.988,0,0,0,.57-2.219V76.7a3.976,3.976,0,0,0-.574-2.211,1.882,1.882,0,0,0-1.684-.883,1.856,1.856,0,0,0-1.668.883,4.018,4.018,0,0,0-.566,2.211Zm2.992-7.906h1.8l.016.047-2.1,2.031H30.391Zm6.3,3.586.109,1.258A3.069,3.069,0,0,1,39.3,72.762a2.824,2.824,0,0,1,1.449-.371,2.759,2.759,0,0,1,2.117.8,3.515,3.515,0,0,1,.75,2.473V81H42.078V75.7a2.287,2.287,0,0,0-.441-1.586,1.768,1.768,0,0,0-1.348-.469,2.386,2.386,0,0,0-1.207.285,2.072,2.072,0,0,0-.785.8V81H36.758V72.547ZM6.969,111.867h.047l3.633-9.242h1.914V114H11.023v-8.523l-.047-.008L7.531,114H6.461l-3.547-8.812-.047.008V114H1.328V102.625H3.352ZM16.68,114H15.141v-8.453H16.68Zm0-10.617H15.141v-1.57H16.68Zm7.281,8.344a1.026,1.026,0,0,0-.387-.828,3.733,3.733,0,0,0-1.465-.562,6.146,6.146,0,0,1-2.293-.9,1.814,1.814,0,0,1-.8-1.547,2.229,2.229,0,0,1,.879-1.766,3.433,3.433,0,0,1,2.277-.734,3.4,3.4,0,0,1,2.328.781,2.239,2.239,0,0,1,.852,1.82l-.016.047H23.867a1.331,1.331,0,0,0-.48-.992,1.717,1.717,0,0,0-1.215-.445,1.751,1.751,0,0,0-1.215.367,1.146,1.146,0,0,0-.4.875.927.927,0,0,0,.348.773,3.848,3.848,0,0,0,1.434.5,6.058,6.058,0,0,1,2.359.93,1.872,1.872,0,0,1,.8,1.57,2.226,2.226,0,0,1-.91,1.836,3.754,3.754,0,0,1-2.379.711,3.715,3.715,0,0,1-2.547-.82,2.341,2.341,0,0,1-.883-1.914l.016-.047h1.469a1.424,1.424,0,0,0,.609,1.2,2.358,2.358,0,0,0,1.336.379,2.1,2.1,0,0,0,1.285-.348A1.063,1.063,0,0,0,23.961,111.727ZM29.078,114H27.539v-8.453h1.539Zm0-10.617H27.539v-1.57h1.539Zm2.008,6.313a4.654,4.654,0,0,1,1.016-3.09,3.764,3.764,0,0,1,5.535,0,4.639,4.639,0,0,1,1.02,3.094v.172a4.631,4.631,0,0,1-1.016,3.094,3.781,3.781,0,0,1-5.535,0,4.623,4.623,0,0,1-1.02-3.09Zm1.539.172a4.009,4.009,0,0,0,.566,2.219,2.046,2.046,0,0,0,3.355,0,3.988,3.988,0,0,0,.57-2.219V109.7a3.976,3.976,0,0,0-.574-2.211,1.882,1.882,0,0,0-1.684-.883,1.856,1.856,0,0,0-1.668.883,4.018,4.018,0,0,0-.566,2.211Zm2.992-7.906h1.8l.016.047-2.1,2.031H34.172Zm6.3,3.586.109,1.258a3.069,3.069,0,0,1,1.059-1.043,2.824,2.824,0,0,1,1.449-.371,2.759,2.759,0,0,1,2.117.8,3.515,3.515,0,0,1,.75,2.473V114H45.859v-5.3a2.287,2.287,0,0,0-.441-1.586,1.768,1.768,0,0,0-1.348-.469,2.386,2.386,0,0,0-1.207.285,2.072,2.072,0,0,0-.785.8V114H40.539v-8.453Zm-31.9,36.781a4.853,4.853,0,0,1-1.293,3.461,4.4,4.4,0,0,1-3.355,1.375,4.167,4.167,0,0,1-3.238-1.375,4.959,4.959,0,0,1-1.246-3.461V140.3a4.977,4.977,0,0,1,1.246-3.461,4.156,4.156,0,0,1,3.238-1.383,4.39,4.39,0,0,1,3.355,1.379,4.867,4.867,0,0,1,1.293,3.465Zm-1.539-2.039a3.837,3.837,0,0,0-.844-2.562,2.813,2.813,0,0,0-2.266-1,2.606,2.606,0,0,0-2.145,1,3.972,3.972,0,0,0-.8,2.563v2.039a4,4,0,0,0,.8,2.578,2.606,2.606,0,0,0,2.145,1,2.815,2.815,0,0,0,2.27-1,3.869,3.869,0,0,0,.84-2.582Zm10.766,2.8a4.645,4.645,0,0,1-.879,2.949,2.9,2.9,0,0,1-2.418,1.121,3.064,3.064,0,0,1-1.465-.332,2.719,2.719,0,0,1-1.027-.98L13.2,147h-1.18V134.813h1.539v4.734a2.671,2.671,0,0,1,.988-.859,3.03,3.03,0,0,1,1.379-.3,2.809,2.809,0,0,1,2.438,1.25,5.622,5.622,0,0,1,.875,3.289ZM17.7,142.93a4.666,4.666,0,0,0-.535-2.371,1.762,1.762,0,0,0-1.629-.918,2.014,2.014,0,0,0-1.2.348,2.452,2.452,0,0,0-.777.934v3.664a2.517,2.517,0,0,0,.777.977,2,2,0,0,0,1.215.352,1.829,1.829,0,0,0,1.617-.773,3.552,3.552,0,0,0,.531-2.047Zm5.188-4.383V147.7a2.807,2.807,0,0,1-.672,2.012,2.452,2.452,0,0,1-1.867.707,2.549,2.549,0,0,1-.441-.035,3.49,3.49,0,0,1-.426-.105l.109-1.211a1.621,1.621,0,0,0,.313.066,2.607,2.607,0,0,0,.336.027,1.02,1.02,0,0,0,.809-.344,1.681,1.681,0,0,0,.3-1.117v-9.148Zm-.047-2.2H21.3v-1.539h1.539Zm5.914,10.813A3.576,3.576,0,0,1,25.918,146a4.48,4.48,0,0,1-1.02-3.062v-.344a4.386,4.386,0,0,1,1.051-3.012,3.3,3.3,0,0,1,2.566-1.191,3.067,3.067,0,0,1,2.543,1.055,4.345,4.345,0,0,1,.848,2.8v.813H26.5l-.023.039a3.494,3.494,0,0,0,.563,2.066,1.965,1.965,0,0,0,1.719.793,3.872,3.872,0,0,0,1.371-.223,3.06,3.06,0,0,0,1.012-.613l.6,1a3.7,3.7,0,0,1-1.2.738A4.762,4.762,0,0,1,28.758,147.164Zm-.242-7.562a1.673,1.673,0,0,0-1.332.621,2.938,2.938,0,0,0-.645,1.59l.016.039h3.813v-.125a2.462,2.462,0,0,0-.453-1.523A1.638,1.638,0,0,0,28.516,139.6Zm7.258-3.094v2.039h1.6v1.141h-1.6v5.133a1.149,1.149,0,0,0,.246.836.89.89,0,0,0,.652.242,1.429,1.429,0,0,0,.3-.035,2.2,2.2,0,0,0,.273-.074l.211,1.055a1.36,1.36,0,0,1-.508.23,2.563,2.563,0,0,1-.664.09,1.993,1.993,0,0,1-1.492-.566,2.46,2.46,0,0,1-.555-1.777v-5.133H32.891v-1.141h1.344v-2.039ZM40.688,147H39.148v-8.453h1.539Zm0-10.617H39.148v-1.57h1.539Zm5.188,8.125.133.594h.047l.148-.594,1.945-5.961h1.57L46.609,147H45.445L42.3,138.547h1.578Zm4.75-1.812a4.654,4.654,0,0,1,1.016-3.09,3.764,3.764,0,0,1,5.535,0A4.639,4.639,0,0,1,58.2,142.7v.172a4.631,4.631,0,0,1-1.016,3.094,3.781,3.781,0,0,1-5.535,0,4.623,4.623,0,0,1-1.02-3.09Zm1.539.172a4.009,4.009,0,0,0,.566,2.219,2.046,2.046,0,0,0,3.355,0,3.988,3.988,0,0,0,.57-2.219V142.7a3.976,3.976,0,0,0-.574-2.211A1.882,1.882,0,0,0,54.4,139.6a1.856,1.856,0,0,0-1.668.883,4.018,4.018,0,0,0-.566,2.211Zm12.828,1.859a1.026,1.026,0,0,0-.387-.828,3.732,3.732,0,0,0-1.465-.562,6.146,6.146,0,0,1-2.293-.9,1.814,1.814,0,0,1-.8-1.547,2.229,2.229,0,0,1,.879-1.766,3.879,3.879,0,0,1,4.605.047,2.239,2.239,0,0,1,.852,1.82l-.016.047H64.9a1.331,1.331,0,0,0-.48-.992A1.717,1.717,0,0,0,63.2,139.6a1.751,1.751,0,0,0-1.215.367,1.146,1.146,0,0,0-.4.875.927.927,0,0,0,.348.773,3.848,3.848,0,0,0,1.434.5,6.058,6.058,0,0,1,2.359.93,1.872,1.872,0,0,1,.8,1.57,2.226,2.226,0,0,1-.91,1.836,3.754,3.754,0,0,1-2.379.711,3.715,3.715,0,0,1-2.547-.82,2.341,2.341,0,0,1-.883-1.914l.016-.047H61.3a1.424,1.424,0,0,0,.609,1.2,2.358,2.358,0,0,0,1.336.379,2.1,2.1,0,0,0,1.285-.348A1.063,1.063,0,0,0,64.992,144.727Zm-54.977,30.6a4.853,4.853,0,0,1-1.293,3.461,4.4,4.4,0,0,1-3.355,1.375,4.167,4.167,0,0,1-3.238-1.375,4.959,4.959,0,0,1-1.246-3.461V173.3a4.977,4.977,0,0,1,1.246-3.461,4.156,4.156,0,0,1,3.238-1.383,4.39,4.39,0,0,1,3.355,1.379,4.867,4.867,0,0,1,1.293,3.465Zm-1.539-2.039a3.837,3.837,0,0,0-.844-2.562,2.813,2.813,0,0,0-2.266-1,2.606,2.606,0,0,0-2.145,1,3.972,3.972,0,0,0-.8,2.563v2.039a4,4,0,0,0,.8,2.578,2.606,2.606,0,0,0,2.145,1,2.815,2.815,0,0,0,2.27-1,3.869,3.869,0,0,0,.84-2.582Zm7.547-.383-.789-.047a1.762,1.762,0,0,0-1.027.289,1.854,1.854,0,0,0-.645.813V180H12.023v-8.453H13.4l.148,1.234a2.934,2.934,0,0,1,.887-1.023,2.073,2.073,0,0,1,1.215-.367,1.9,1.9,0,0,1,.328.027,2.177,2.177,0,0,1,.258.059Zm1.18,3.023a5.641,5.641,0,0,1,.871-3.289,2.8,2.8,0,0,1,2.434-1.25,2.966,2.966,0,0,1,1.414.324,2.845,2.845,0,0,1,1.023.934l.188-1.1h1.227v8.5a3.225,3.225,0,0,1-.945,2.5,3.884,3.884,0,0,1-2.727.871,5.716,5.716,0,0,1-1.316-.168,5.147,5.147,0,0,1-1.246-.457l.234-1.2a4.451,4.451,0,0,0,1.074.379,5.516,5.516,0,0,0,1.238.145,2.242,2.242,0,0,0,1.637-.512,2.12,2.12,0,0,0,.512-1.559v-.961a2.725,2.725,0,0,1-.992.8,3.091,3.091,0,0,1-1.336.273,2.89,2.89,0,0,1-2.418-1.121,4.674,4.674,0,0,1-.871-2.949Zm1.539.164a3.592,3.592,0,0,0,.523,2.047,1.817,1.817,0,0,0,1.617.773,2.034,2.034,0,0,0,1.164-.316,2.4,2.4,0,0,0,.773-.895v-3.891a2.388,2.388,0,0,0-.773-.855,2.029,2.029,0,0,0-1.148-.316,1.752,1.752,0,0,0-1.629.914,4.718,4.718,0,0,0-.527,2.375ZM31.766,180q-.078-.383-.121-.676a4.96,4.96,0,0,1-.051-.59,3.589,3.589,0,0,1-1.121,1.02,2.867,2.867,0,0,1-1.488.41,2.763,2.763,0,0,1-2.012-.676,2.486,2.486,0,0,1-.691-1.863,2.183,2.183,0,0,1,.98-1.895,4.579,4.579,0,0,1,2.66-.684h1.672v-.836a1.551,1.551,0,0,0-.453-1.176,1.779,1.779,0,0,0-1.281-.434,1.859,1.859,0,0,0-1.211.375,1.125,1.125,0,0,0-.461.9l-1.461.016-.016-.047a2.023,2.023,0,0,1,.863-1.687,3.578,3.578,0,0,1,2.371-.766,3.49,3.49,0,0,1,2.313.73,2.588,2.588,0,0,1,.875,2.105v4.07a7.923,7.923,0,0,0,.047.875,4.5,4.5,0,0,0,.172.828Zm-2.555-1.125a2.739,2.739,0,0,0,1.508-.43,2.042,2.042,0,0,0,.875-.984v-1.375H29.867a2.24,2.24,0,0,0-1.488.469,1.4,1.4,0,0,0-.559,1.1,1.159,1.159,0,0,0,.352.891A1.472,1.472,0,0,0,29.211,178.875Zm7.531-7.328.109,1.258a3.069,3.069,0,0,1,1.059-1.043,2.825,2.825,0,0,1,1.449-.371,2.759,2.759,0,0,1,2.117.8,3.515,3.515,0,0,1,.75,2.473V180H40.688v-5.3a2.287,2.287,0,0,0-.441-1.586,1.768,1.768,0,0,0-1.348-.469,2.386,2.386,0,0,0-1.207.285,2.072,2.072,0,0,0-.785.8V180H35.367v-8.453ZM46.125,180H44.586v-8.453h1.539Zm0-10.617H44.586v-1.57h1.539Zm2.094,6.547a5.641,5.641,0,0,1,.871-3.289,2.8,2.8,0,0,1,2.434-1.25,2.966,2.966,0,0,1,1.414.324,2.845,2.845,0,0,1,1.023.934l.188-1.1h1.227v8.5a3.225,3.225,0,0,1-.945,2.5,3.884,3.884,0,0,1-2.727.871,5.716,5.716,0,0,1-1.316-.168,5.147,5.147,0,0,1-1.246-.457l.234-1.2a4.451,4.451,0,0,0,1.074.379,5.516,5.516,0,0,0,1.238.145,2.242,2.242,0,0,0,1.637-.512,2.12,2.12,0,0,0,.512-1.559v-.961a2.725,2.725,0,0,1-.992.8,3.091,3.091,0,0,1-1.336.273,2.89,2.89,0,0,1-2.418-1.121,4.674,4.674,0,0,1-.871-2.949Zm1.539.164a3.592,3.592,0,0,0,.523,2.047,1.817,1.817,0,0,0,1.617.773,2.034,2.034,0,0,0,1.164-.316,2.4,2.4,0,0,0,.773-.895v-3.891a2.388,2.388,0,0,0-.773-.855,2.029,2.029,0,0,0-1.148-.316,1.752,1.752,0,0,0-1.629.914,4.718,4.718,0,0,0-.527,2.375Zm11.828-3.187-.789-.047a1.762,1.762,0,0,0-1.027.289,1.855,1.855,0,0,0-.645.813V180H57.586v-8.453h1.375l.148,1.234A2.934,2.934,0,0,1,60,171.758a2.073,2.073,0,0,1,1.215-.367,1.9,1.9,0,0,1,.328.027,2.176,2.176,0,0,1,.258.059Zm6.8,7.094q-.078-.383-.121-.676a4.96,4.96,0,0,1-.051-.59,3.589,3.589,0,0,1-1.121,1.02,2.867,2.867,0,0,1-1.488.41,2.763,2.763,0,0,1-2.012-.676,2.486,2.486,0,0,1-.691-1.863,2.183,2.183,0,0,1,.98-1.895,4.579,4.579,0,0,1,2.66-.684h1.672v-.836a1.551,1.551,0,0,0-.453-1.176,1.779,1.779,0,0,0-1.281-.434,1.859,1.859,0,0,0-1.211.375,1.125,1.125,0,0,0-.461.9l-1.461.016-.016-.047a2.023,2.023,0,0,1,.863-1.687,3.578,3.578,0,0,1,2.371-.766,3.49,3.49,0,0,1,2.313.73,2.588,2.588,0,0,1,.875,2.105v4.07a7.923,7.923,0,0,0,.047.875,4.5,4.5,0,0,0,.172.828Zm-2.555-1.125a2.739,2.739,0,0,0,1.508-.43,2.042,2.042,0,0,0,.875-.984v-1.375H66.484a2.24,2.24,0,0,0-1.488.469,1.4,1.4,0,0,0-.559,1.1,1.159,1.159,0,0,0,.352.891A1.472,1.472,0,0,0,65.828,178.875Zm7.531-7.328.109,1.109a2.871,2.871,0,0,1,1.051-.934,3.157,3.157,0,0,1,1.48-.332,2.615,2.615,0,0,1,1.449.391,2.363,2.363,0,0,1,.91,1.172,3.162,3.162,0,0,1,1.059-1.145,2.769,2.769,0,0,1,1.527-.418,2.531,2.531,0,0,1,2.039.887,4.051,4.051,0,0,1,.75,2.668V180H82.2v-5.07a2.81,2.81,0,0,0-.43-1.77,1.567,1.567,0,0,0-1.281-.52,1.631,1.631,0,0,0-1.277.547,2.381,2.381,0,0,0-.574,1.383V180H77.086v-5.07a2.772,2.772,0,0,0-.441-1.738,1.532,1.532,0,0,0-1.27-.551,2.115,2.115,0,0,0-1.156.289,1.867,1.867,0,0,0-.7.813V180H71.984v-8.453ZM91.164,180q-.078-.383-.121-.676a4.96,4.96,0,0,1-.051-.59,3.589,3.589,0,0,1-1.121,1.02,2.867,2.867,0,0,1-1.488.41,2.763,2.763,0,0,1-2.012-.676,2.486,2.486,0,0,1-.691-1.863,2.183,2.183,0,0,1,.98-1.895,4.579,4.579,0,0,1,2.66-.684h1.672v-.836a1.551,1.551,0,0,0-.453-1.176,1.779,1.779,0,0,0-1.281-.434,1.859,1.859,0,0,0-1.211.375,1.125,1.125,0,0,0-.461.9l-1.461.016-.016-.047a2.023,2.023,0,0,1,.863-1.687,3.578,3.578,0,0,1,2.371-.766,3.49,3.49,0,0,1,2.313.73,2.588,2.588,0,0,1,.875,2.105v4.07a7.923,7.923,0,0,0,.047.875,4.5,4.5,0,0,0,.172.828Zm-2.555-1.125a2.739,2.739,0,0,0,1.508-.43,2.042,2.042,0,0,0,.875-.984v-1.375H89.266a2.24,2.24,0,0,0-1.488.469,1.4,1.4,0,0,0-.559,1.1,1.159,1.159,0,0,0,.352.891A1.472,1.472,0,0,0,88.609,178.875Zm-79.1,32.594a3.66,3.66,0,0,1-1.41,1.164,5.561,5.561,0,0,1-2.605.531,4.388,4.388,0,0,1-3.258-1.3,4.6,4.6,0,0,1-1.289-3.375v-2.344a4.694,4.694,0,0,1,1.242-3.375,4.225,4.225,0,0,1,3.2-1.3,4.264,4.264,0,0,1,3,1.012,3.247,3.247,0,0,1,1.07,2.574l-.016.047H7.969a2.384,2.384,0,0,0-.672-1.73,2.536,2.536,0,0,0-1.906-.691,2.579,2.579,0,0,0-2.1.977,3.789,3.789,0,0,0-.8,2.477v2.359a3.691,3.691,0,0,0,.844,2.5,2.718,2.718,0,0,0,2.156.98,4.011,4.011,0,0,0,1.6-.262,2.3,2.3,0,0,0,.879-.621v-2.562H5.391v-1.2H9.508Zm5.945,1.7A3.576,3.576,0,0,1,12.613,212a4.48,4.48,0,0,1-1.02-3.062v-.344a4.386,4.386,0,0,1,1.051-3.012,3.3,3.3,0,0,1,2.566-1.191,3.067,3.067,0,0,1,2.543,1.055,4.345,4.345,0,0,1,.848,2.8v.813H13.2l-.023.039a3.494,3.494,0,0,0,.563,2.066,1.965,1.965,0,0,0,1.719.793,3.872,3.872,0,0,0,1.371-.223,3.06,3.06,0,0,0,1.012-.613l.6,1a3.7,3.7,0,0,1-1.2.738A4.762,4.762,0,0,1,15.453,213.164Zm-.242-7.562a1.673,1.673,0,0,0-1.332.621,2.938,2.938,0,0,0-.645,1.59l.016.039h3.813v-.125a2.462,2.462,0,0,0-.453-1.523A1.638,1.638,0,0,0,15.211,205.6Zm10.031,5.125a1.026,1.026,0,0,0-.387-.828,3.732,3.732,0,0,0-1.465-.562,6.146,6.146,0,0,1-2.293-.9,1.814,1.814,0,0,1-.8-1.547,2.229,2.229,0,0,1,.879-1.766,3.433,3.433,0,0,1,2.277-.734,3.4,3.4,0,0,1,2.328.781,2.239,2.239,0,0,1,.852,1.82l-.016.047H25.148a1.331,1.331,0,0,0-.48-.992,1.717,1.717,0,0,0-1.215-.445,1.751,1.751,0,0,0-1.215.367,1.146,1.146,0,0,0-.4.875.927.927,0,0,0,.348.773,3.848,3.848,0,0,0,1.434.5,6.058,6.058,0,0,1,2.359.93,1.872,1.872,0,0,1,.8,1.57,2.226,2.226,0,0,1-.91,1.836,3.754,3.754,0,0,1-2.379.711,3.715,3.715,0,0,1-2.547-.82,2.341,2.341,0,0,1-.883-1.914l.016-.047h1.469a1.424,1.424,0,0,0,.609,1.2,2.358,2.358,0,0,0,1.336.379,2.1,2.1,0,0,0,1.285-.348A1.063,1.063,0,0,0,25.242,210.727Zm5.594-8.219v2.039h1.6v1.141h-1.6v5.133a1.149,1.149,0,0,0,.246.836.89.89,0,0,0,.652.242,1.429,1.429,0,0,0,.3-.035,2.2,2.2,0,0,0,.273-.074l.211,1.055a1.36,1.36,0,0,1-.508.23,2.563,2.563,0,0,1-.664.09,1.993,1.993,0,0,1-1.492-.566,2.46,2.46,0,0,1-.555-1.777v-5.133H27.953v-1.141H29.3v-2.039ZM35.75,213H34.211v-8.453H35.75Zm0-10.617H34.211v-1.57H35.75Zm2.008,6.313a4.654,4.654,0,0,1,1.016-3.09,3.764,3.764,0,0,1,5.535,0,4.639,4.639,0,0,1,1.02,3.094v.172a4.631,4.631,0,0,1-1.016,3.094,3.781,3.781,0,0,1-5.535,0,4.623,4.623,0,0,1-1.02-3.09Zm1.539.172a4.009,4.009,0,0,0,.566,2.219,2.046,2.046,0,0,0,3.355,0,3.988,3.988,0,0,0,.57-2.219V208.7a3.976,3.976,0,0,0-.574-2.211,1.882,1.882,0,0,0-1.684-.883,1.856,1.856,0,0,0-1.668.883A4.018,4.018,0,0,0,39.3,208.7Zm2.992-7.906h1.8l.016.047L42,203.039H40.844Zm6.3,3.586L48.7,205.8a3.069,3.069,0,0,1,1.059-1.043,2.825,2.825,0,0,1,1.449-.371,2.759,2.759,0,0,1,2.117.8,3.515,3.515,0,0,1,.75,2.473V213H52.531v-5.3a2.287,2.287,0,0,0-.441-1.586,1.768,1.768,0,0,0-1.348-.469,2.386,2.386,0,0,0-1.207.285,2.072,2.072,0,0,0-.785.8V213H47.211v-8.453ZM59.93,208.93a5.641,5.641,0,0,1,.871-3.289,2.807,2.807,0,0,1,2.441-1.25,3.027,3.027,0,0,1,1.316.273,2.7,2.7,0,0,1,.98.8v-4.648h1.539V213H65.9l-.234-1.07a2.743,2.743,0,0,1-1.023.922,3.058,3.058,0,0,1-1.414.313,2.9,2.9,0,0,1-2.422-1.121,4.659,4.659,0,0,1-.875-2.949Zm1.539.164a3.588,3.588,0,0,0,.523,2.051,1.828,1.828,0,0,0,1.625.77,2.039,2.039,0,0,0,1.156-.312,2.334,2.334,0,0,0,.766-.875v-3.945a2.37,2.37,0,0,0-.77-.832,2.033,2.033,0,0,0-1.137-.309,1.759,1.759,0,0,0-1.637.914,4.718,4.718,0,0,0-.527,2.375Zm7.547-.4a4.654,4.654,0,0,1,1.016-3.09,3.764,3.764,0,0,1,5.535,0,4.639,4.639,0,0,1,1.02,3.094v.172a4.631,4.631,0,0,1-1.016,3.094,3.781,3.781,0,0,1-5.535,0,4.623,4.623,0,0,1-1.02-3.09Zm1.539.172a4.009,4.009,0,0,0,.566,2.219,2.046,2.046,0,0,0,3.355,0,3.988,3.988,0,0,0,.57-2.219V208.7a3.976,3.976,0,0,0-.574-2.211,1.882,1.882,0,0,0-1.684-.883,1.856,1.856,0,0,0-1.668.883,4.018,4.018,0,0,0-.566,2.211Zm11.273,3.094a1.81,1.81,0,0,0,1.242-.473,1.494,1.494,0,0,0,.531-1.16h1.391l.023.047a2.428,2.428,0,0,1-.937,1.941,3.582,3.582,0,0,1-5-.363,4.674,4.674,0,0,1-.969-3.016v-.328a4.654,4.654,0,0,1,.973-3,3.317,3.317,0,0,1,2.746-1.215,3.189,3.189,0,0,1,2.316.875,2.775,2.775,0,0,1,.871,2.148l-.016.047H83.6a1.865,1.865,0,0,0-.5-1.316,1.658,1.658,0,0,0-1.27-.543,1.777,1.777,0,0,0-1.652.879,4.114,4.114,0,0,0-.52,2.129v.328a4.192,4.192,0,0,0,.512,2.148A1.776,1.776,0,0,0,81.828,211.961Zm10.383-.211a2.863,2.863,0,0,1-1.023,1.047,2.8,2.8,0,0,1-1.445.367,2.716,2.716,0,0,1-2.156-.883,4.1,4.1,0,0,1-.773-2.75v-4.984h1.539v5a3.147,3.147,0,0,0,.4,1.859,1.481,1.481,0,0,0,1.242.508,2.531,2.531,0,0,0,1.355-.332,2.077,2.077,0,0,0,.809-.941v-6.094H93.7V213H92.313Zm5.1-7.2.109,1.109a2.871,2.871,0,0,1,1.051-.934,3.157,3.157,0,0,1,1.48-.332,2.615,2.615,0,0,1,1.449.391,2.363,2.363,0,0,1,.91,1.172,3.162,3.162,0,0,1,1.059-1.145,2.769,2.769,0,0,1,1.527-.418,2.531,2.531,0,0,1,2.039.887,4.051,4.051,0,0,1,.75,2.668V213h-1.539v-5.07a2.81,2.81,0,0,0-.43-1.77,1.567,1.567,0,0,0-1.281-.52,1.631,1.631,0,0,0-1.277.547,2.381,2.381,0,0,0-.574,1.383V213h-1.547v-5.07a2.772,2.772,0,0,0-.441-1.738,1.532,1.532,0,0,0-1.27-.551,2.115,2.115,0,0,0-1.156.289,1.867,1.867,0,0,0-.7.813V213H95.938v-8.453Zm16.109,8.617a3.576,3.576,0,0,1-2.84-1.164,4.48,4.48,0,0,1-1.02-3.062v-.344a4.386,4.386,0,0,1,1.051-3.012,3.3,3.3,0,0,1,2.566-1.191,3.067,3.067,0,0,1,2.543,1.055,4.345,4.345,0,0,1,.848,2.8v.813h-5.406l-.023.039a3.494,3.494,0,0,0,.563,2.066,1.965,1.965,0,0,0,1.719.793,3.872,3.872,0,0,0,1.371-.223,3.061,3.061,0,0,0,1.012-.613l.6,1a3.7,3.7,0,0,1-1.2.738A4.762,4.762,0,0,1,113.422,213.164Zm-.242-7.562a1.673,1.673,0,0,0-1.332.621,2.938,2.938,0,0,0-.645,1.59l.016.039h3.813v-.125a2.462,2.462,0,0,0-.453-1.523A1.638,1.638,0,0,0,113.18,205.6Zm6.492-1.055.109,1.258a3.069,3.069,0,0,1,1.059-1.043,2.825,2.825,0,0,1,1.449-.371,2.759,2.759,0,0,1,2.117.8,3.515,3.515,0,0,1,.75,2.473V213h-1.539v-5.3a2.287,2.287,0,0,0-.441-1.586,1.768,1.768,0,0,0-1.348-.469,2.386,2.386,0,0,0-1.207.285,2.073,2.073,0,0,0-.785.8V213H118.3v-8.453Zm9.859-2.039v2.039h1.6v1.141h-1.6v5.133a1.149,1.149,0,0,0,.246.836.89.89,0,0,0,.652.242,1.429,1.429,0,0,0,.3-.035,2.2,2.2,0,0,0,.273-.074l.211,1.055a1.36,1.36,0,0,1-.508.23,2.562,2.562,0,0,1-.664.09,1.993,1.993,0,0,1-1.492-.566,2.46,2.46,0,0,1-.555-1.777v-5.133h-1.344v-1.141h1.344v-2.039ZM137.977,213q-.078-.383-.121-.676a4.96,4.96,0,0,1-.051-.59,3.588,3.588,0,0,1-1.121,1.02,2.867,2.867,0,0,1-1.488.41,2.763,2.763,0,0,1-2.012-.676,2.486,2.486,0,0,1-.691-1.863,2.183,2.183,0,0,1,.98-1.895,4.579,4.579,0,0,1,2.66-.684H137.8v-.836a1.551,1.551,0,0,0-.453-1.176,1.779,1.779,0,0,0-1.281-.434,1.859,1.859,0,0,0-1.211.375,1.125,1.125,0,0,0-.461.9l-1.461.016-.016-.047a2.023,2.023,0,0,1,.863-1.687,3.578,3.578,0,0,1,2.371-.766,3.49,3.49,0,0,1,2.313.73,2.588,2.588,0,0,1,.875,2.105v4.07a7.923,7.923,0,0,0,.047.875,4.5,4.5,0,0,0,.172.828Zm-2.555-1.125a2.739,2.739,0,0,0,1.508-.43,2.042,2.042,0,0,0,.875-.984v-1.375h-1.727a2.24,2.24,0,0,0-1.488.469,1.4,1.4,0,0,0-.559,1.1,1.159,1.159,0,0,0,.352.891A1.472,1.472,0,0,0,135.422,211.875Zm7.82,1.125H141.7V200.813h1.539Z" transform="translate(-8766 -3123.016)" fill="#12263f"/>
    <path id="Trazado_883981" data-name="Trazado 883981" d="M6.219,15H3.945V5.609H1.594V3.867l4.625-.406ZM8.547,48H.914V46.508l3.523-3.984a8.9,8.9,0,0,0,1.121-1.574,2.616,2.616,0,0,0,.332-1.184,1.7,1.7,0,0,0-.352-1.125,1.294,1.294,0,0,0-1.055-.422,1.354,1.354,0,0,0-1.148.539,2.208,2.208,0,0,0-.406,1.367H.711L.7,40.078a3.379,3.379,0,0,1,1-2.566,3.746,3.746,0,0,1,2.789-1.051,3.858,3.858,0,0,1,2.719.895,3.111,3.111,0,0,1,.969,2.4,3.379,3.379,0,0,1-.543,1.867,21.022,21.022,0,0,1-1.871,2.336l-1.875,2.25.016.039H8.547ZM4.523,74.313a1.578,1.578,0,0,0,1.207-.422A1.672,1.672,0,0,0,6.125,72.7a1.455,1.455,0,0,0-.414-1.062,1.546,1.546,0,0,0-1.156-.422A1.514,1.514,0,0,0,3.5,71.6a1.255,1.255,0,0,0-.426.977H.875l-.016-.047a2.582,2.582,0,0,1,1.031-2.2,4.115,4.115,0,0,1,2.664-.867,4.362,4.362,0,0,1,2.8.832A2.879,2.879,0,0,1,8.4,72.68a2.474,2.474,0,0,1-.449,1.434,3.07,3.07,0,0,1-1.23,1.027,2.873,2.873,0,0,1,1.375,1.02,2.784,2.784,0,0,1,.484,1.652A2.964,2.964,0,0,1,7.449,80.27a4.518,4.518,0,0,1-2.895.895,4.51,4.51,0,0,1-2.719-.844A2.663,2.663,0,0,1,.711,77.953l.016-.047H2.945a1.433,1.433,0,0,0,.449,1.074,1.6,1.6,0,0,0,1.16.434,1.76,1.76,0,0,0,1.266-.461A1.538,1.538,0,0,0,6.3,77.789a1.766,1.766,0,0,0-.453-1.332,1.85,1.85,0,0,0-1.328-.434H3.266V74.313Zm2.938,35.453H8.742v1.766H7.461V114H5.18v-2.469H.547l-.109-1.367,4.719-7.539h2.3Zm-4.953,0H5.18v-4.133l-.047-.008-.234.508ZM1.086,141.984l.656-6.359H8.086v1.828H3.609L3.3,140.109a2.756,2.756,0,0,1,.8-.387,3.855,3.855,0,0,1,1.055-.168,3.015,3.015,0,0,1,2.457.98,4.162,4.162,0,0,1,.871,2.816,3.989,3.989,0,0,1-.945,2.742,3.658,3.658,0,0,1-2.891,1.07,4.372,4.372,0,0,1-2.687-.832,2.6,2.6,0,0,1-1.078-2.285l.016-.039,2.2-.1a1.438,1.438,0,0,0,.43,1.109,1.589,1.589,0,0,0,1.125.4,1.342,1.342,0,0,0,1.184-.531,2.627,2.627,0,0,0,.371-1.516A2.691,2.691,0,0,0,5.8,141.8a1.372,1.372,0,0,0-1.2-.582,1.748,1.748,0,0,0-1,.242,1.321,1.321,0,0,0-.5.656Zm4.141,26.477a5.885,5.885,0,0,1,1.23.121,6.215,6.215,0,0,1,1.121.355l-.406,1.672a8.621,8.621,0,0,0-.953-.27,4.726,4.726,0,0,0-.977-.09,1.967,1.967,0,0,0-1.613.766,3.327,3.327,0,0,0-.613,2.133v.367a3.172,3.172,0,0,1,1.082-.691,3.82,3.82,0,0,1,1.4-.246,2.748,2.748,0,0,1,2.281,1.035,4.217,4.217,0,0,1,.82,2.7,3.778,3.778,0,0,1-1.062,2.781,3.736,3.736,0,0,1-2.773,1.07,3.763,3.763,0,0,1-2.9-1.219,4.738,4.738,0,0,1-1.121-3.336v-2.383a4.748,4.748,0,0,1,1.27-3.465A4.3,4.3,0,0,1,5.227,168.461ZM4.742,174.3a2.505,2.505,0,0,0-1.051.2,1.618,1.618,0,0,0-.676.551v.609A3.637,3.637,0,0,0,3.5,177.7a1.465,1.465,0,0,0,1.27.719,1.319,1.319,0,0,0,1.133-.6,2.545,2.545,0,0,0,.422-1.5,2.305,2.305,0,0,0-.426-1.473A1.4,1.4,0,0,0,4.742,174.3Zm3.813,29.078a14.691,14.691,0,0,0-2.625,4.066,11.494,11.494,0,0,0-.7,4.145V213H2.953v-1.406a10.535,10.535,0,0,1,.871-4.332,15.775,15.775,0,0,1,2.535-3.879H.555v-1.758h8Z" transform="translate(-8797 -3123.016)" fill="#12263f"/>
  </g>
</svg>
