<svg xmlns="http://www.w3.org/2000/svg" width="307" height="281.5" viewBox="0 0 307 281.5">
  <g id="Grupo_1074229" data-name="Grupo 1074229" transform="translate(10048 3359)">
    <rect id="Rect치ngulo_382746" data-name="Rect치ngulo 382746" width="307" height="281.5" rx="10" transform="translate(-10048 -3359)" fill="#f7fcfa"/>
    <g id="_01" data-name="01" transform="translate(-10013 -3296)">
      <path id="Trazado_821213" data-name="Trazado 821213" d="M316.228,267.626h76.766a2.238,2.238,0,1,0,0-4.476H316.228a2.238,2.238,0,1,0,0,4.476Z" transform="translate(-189.552 -112.639)" fill="#231f20"/>
      <path id="Trazado_821214" data-name="Trazado 821214" d="M332.578,267.626H339.4a2.238,2.238,0,0,0,0-4.476h-6.826a2.238,2.238,0,0,0,0,4.476Z" transform="translate(-227.444 -112.639)" fill="#231f20"/>
      <path id="Trazado_821215" data-name="Trazado 821215" d="M348.918,262.8a2.244,2.244,0,0,0,2.238-2.238v-6.826a2.238,2.238,0,1,0-4.476,0v6.826A2.245,2.245,0,0,0,348.918,262.8Z" transform="translate(-328.383 -166.173)" fill="#231f20"/>
      <path id="Trazado_821216" data-name="Trazado 821216" d="M348.928,283.44a2.245,2.245,0,0,0,2.238-2.238V257.478a2.238,2.238,0,1,0-4.476,0V281.2A2.244,2.244,0,0,0,348.928,283.44Z" transform="translate(-328.449 -148.987)" fill="#231f20"/>
      <path id="Trazado_821217" data-name="Trazado 821217" d="M336.268,267.626h76.766a2.238,2.238,0,0,0,0-4.476H336.268a2.238,2.238,0,0,0,0,4.476Z" transform="translate(-321.72 -112.639)" fill="#231f20"/>
      <path id="Trazado_821218" data-name="Trazado 821218" d="M317.728,292.354a2.244,2.244,0,0,0,2.238-2.238v-32.34h20.2v32.34a2.238,2.238,0,1,0,4.476,0V255.538A2.244,2.244,0,0,0,342.4,253.3H317.728a2.244,2.244,0,0,0-2.238,2.238v34.578a2.245,2.245,0,0,0,2.238,2.238Z" transform="translate(-147.354 -157.902)" fill="#231f20"/>
      <path id="Trazado_825114" data-name="Trazado 825114" d="M0,0H15.331V51.308H0Z" transform="translate(129.809 82.977)" fill="#1682fb"/>
      <rect id="Rect치ngulo_382559" data-name="Rect치ngulo 382559" width="15.331" height="88.348" transform="translate(29.878 45.937)" fill="#00c2b7"/>
      <path id="Trazado_821219" data-name="Trazado 821219" d="M326.658,307.335A2.244,2.244,0,0,0,328.9,305.1V254.516h20.2V305.1a2.238,2.238,0,0,0,4.476,0V252.278a2.245,2.245,0,0,0-2.238-2.238H326.658a2.244,2.244,0,0,0-2.238,2.238V305.1a2.244,2.244,0,0,0,2.238,2.238Z" transform="translate(-206.249 -172.882)" fill="#231f20"/>
      <path id="Trazado_821220" data-name="Trazado 821220" d="M335.588,322.315a2.245,2.245,0,0,0,2.238-2.238V251.256h20.2v68.821a2.238,2.238,0,0,0,4.476,0V249.018a2.245,2.245,0,0,0-2.238-2.238H335.588a2.244,2.244,0,0,0-2.238,2.238v71.059a2.244,2.244,0,0,0,2.238,2.238Z" transform="translate(-265.144 -187.862)" fill="#231f20"/>
      <path id="Trazado_821221" data-name="Trazado 821221" d="M369.183,337.3a2.244,2.244,0,0,0,2.238-2.238v-89.3a2.245,2.245,0,0,0-2.238-2.238H344.508a2.244,2.244,0,0,0-2.238,2.238v29.823a2.238,2.238,0,0,0,4.476,0V248h20.2v87.061a2.244,2.244,0,0,0,2.238,2.238Z" transform="translate(-323.973 -202.843)" fill="#231f20"/>
      <path id="Trazado_821222" data-name="Trazado 821222" d="M492.31,317.262a2.318,2.318,0,0,0,2.071-1.343,2.233,2.233,0,0,0-1.175-2.965L318.635,236.58a2.255,2.255,0,1,0-1.791,4.14l174.57,76.374A2.534,2.534,0,0,0,492.31,317.262Z" transform="translate(-297.205 -235.628)" fill="#231f20"/>
      <path id="Trazado_821223" data-name="Trazado 821223" d="M361.426,261.317a2.071,2.071,0,0,0,1.455-.56,2.218,2.218,0,0,0,.224-3.133L348.949,241.4l21.542-.671a2.246,2.246,0,0,0,2.182-2.294,2.366,2.366,0,0,0-2.294-2.182l-26.241.783a2.193,2.193,0,0,0-1.958,1.343,2.235,2.235,0,0,0,.336,2.35l17.233,19.807A2.267,2.267,0,0,0,361.426,261.317Z" transform="translate(-323.658 -236.25)" fill="#231f20"/>
      <path id="Trazado_821224" data-name="Trazado 821224" d="M350.833,262.154a2.318,2.318,0,0,0,2.07-1.343,2.233,2.233,0,0,0-1.175-2.966l-31.053-13.6a2.256,2.256,0,0,0-1.791,4.14l31.053,13.6A2.531,2.531,0,0,0,350.833,262.154Z" transform="translate(-167.143 -200.383)" fill="#231f20"/>
      <path id="Trazado_821225" data-name="Trazado 821225" d="M308.51,268.838a11.079,11.079,0,1,0,11.078-11.078A11.1,11.1,0,0,0,308.51,268.838Z" transform="translate(-94.326 -137.408)" fill="#495867"/>
      <path id="Trazado_821226" data-name="Trazado 821226" d="M352.188,261.751a2.245,2.245,0,0,0,2.238-2.238V241.328a2.238,2.238,0,1,0-4.476,0v18.184A2.245,2.245,0,0,0,352.188,261.751Z" transform="translate(-349.95 -223.2)" fill="#231f20"/>
    </g>
  </g>
</svg>
