<svg xmlns="http://www.w3.org/2000/svg" xmlns:xlink="http://www.w3.org/1999/xlink" width="122" height="122" viewBox="0 0 122 122">
  <defs>
    <filter id="Trazado_824489" x="0" y="0" width="122" height="122" filterUnits="userSpaceOnUse">
      <feOffset dy="3" input="SourceAlpha"/>
      <feGaussianBlur stdDeviation="7" result="blur"/>
      <feFlood flood-color="#fff" flood-opacity="0.659"/>
      <feComposite operator="in" in2="blur"/>
      <feComposite in="SourceGraphic"/>
    </filter>
  </defs>
  <g id="Grupo_1073920" data-name="Grupo 1073920" transform="translate(-898 -4516)">
    <g transform="matrix(1, 0, 0, 1, 898, 4516)" filter="url(#Trazado_824489)">
      <path id="Trazado_824489-2" data-name="Trazado 824489" d="M40,0A40,40,0,1,1,0,40,40,40,0,0,1,40,0Z" transform="translate(21 18)" fill="#ffce00"/>
    </g>
    <g id="mejora-continua" transform="translate(927.599 4543.098)">
      <g id="Grupo_1073976" data-name="Grupo 1073976" transform="translate(0.907 0.907)">
        <path id="Trazado_824771" data-name="Trazado 824771" d="M163.872,296.808h-5.138a.787.787,0,0,0-.787.787v6.9h5.924l.962-1.579v-5.039Z" transform="translate(-139.789 -261.888)" fill="#00abf2"/>
        <path id="Trazado_824772" data-name="Trazado 824772" d="M183.511,144.06a1.182,1.182,0,0,0-1.283-1.432l-4.51.5a1.182,1.182,0,0,0-.75,1.963l3.52,3.929a1.182,1.182,0,0,0,2.033-.531Z" transform="translate(-156.247 -126.312)" fill="#62ddfc"/>
        <path id="Trazado_824773" data-name="Trazado 824773" d="M212.953,247.017h-5.138a.787.787,0,0,0-.787.787v12.905h5.924l.892-1.428V248.447Z" transform="translate(-182.946 -218.107)" fill="#00c2fb"/>
        <path id="Trazado_824774" data-name="Trazado 824774" d="M262.034,197.226H256.9a.787.787,0,0,0-.787.787v18.915h5.924l1-.553V198.45Z" transform="translate(-226.103 -174.326)" fill="#00d2fc"/>
        <path id="Trazado_824775" data-name="Trazado 824775" d="M310.329,147.435h-4.351a.787.787,0,0,0-.787.787v24.925h5.924V148.222A.787.787,0,0,0,310.329,147.435Z" transform="translate(-269.259 -130.545)" fill="#62ddfc"/>
        <path id="Trazado_824776" data-name="Trazado 824776" d="M378.293,95.271l-.986-1.831.106-3.878,1.124-1.059a.609.609,0,0,1-.653-.567A27.972,27.972,0,0,0,367.861,68.22a1.976,1.976,0,0,0-2.878.358l-.035.048a1.979,1.979,0,0,0,.359,2.674,23.85,23.85,0,0,1,8.577,16.944.611.611,0,0,1-.564.648l-1.878.14a1.379,1.379,0,0,0-.948,2.268l4.709,5.533a1.379,1.379,0,0,0,2.221-.165Z" transform="translate(-321.482 -60.484)" fill="#29ce69"/>
        <path id="Trazado_824777" data-name="Trazado 824777" d="M457.885,245.6l2.968-4.772a1.379,1.379,0,0,0-1.273-2.1l-1.451.108S451.48,240.516,457.885,245.6Z" transform="translate(-401.073 -210.809)" fill="#21b95c"/>
        <path id="Trazado_824778" data-name="Trazado 824778" d="M23.674,225.359A23.851,23.851,0,0,1,15.1,208.415a.611.611,0,0,1,.564-.648l-.578-1.22-1.448-.966,1.021-3.108v-1.617l-.877-1.031a1.379,1.379,0,0,0-2.221.165l-3.837,6.17a1.379,1.379,0,0,0,1.273,2.1l1.451-.108a.609.609,0,0,1,.653.567A27.971,27.971,0,0,0,21.121,228.44,1.976,1.976,0,0,0,24,228.082l.035-.049A1.978,1.978,0,0,0,23.674,225.359Z" transform="translate(-7.509 -176.186)" fill="#29ce69"/>
        <path id="Trazado_824779" data-name="Trazado 824779" d="M52.642,218.811l1.878-.14a1.379,1.379,0,0,0,.948-2.268l-3.831-4.5C50.75,213.013,46.936,218.221,52.642,218.811Z" transform="translate(-44.49 -187.229)" fill="#21b95c"/>
        <path id="Trazado_824780" data-name="Trazado 824780" d="M95.725,32.354l.943.586a1.379,1.379,0,0,1,.165,2.221L91.3,39.869a1.379,1.379,0,0,1-2.268-.948l-.14-1.878a.611.611,0,0,0-.648-.564A23.85,23.85,0,0,0,71.3,45.057a1.978,1.978,0,0,1-2.674.359l-.049-.035a1.976,1.976,0,0,1-.358-2.878A27.972,27.972,0,0,1,87.936,32.48a.609.609,0,0,0,.567-.653l2.035.6Z" transform="translate(-60.483 -28.892)" fill="#29ce69"/>
        <path id="Trazado_824781" data-name="Trazado 824781" d="M246.05,10.973l-5.227-3.251A1.379,1.379,0,0,0,238.72,9l.108,1.451S240.063,16.537,246.05,10.973Z" transform="translate(-210.808 -7.511)" fill="#21b95c"/>
        <path id="Trazado_824782" data-name="Trazado 824782" d="M228.08,364.983l-.048-.035a1.979,1.979,0,0,0-2.674.359,23.851,23.851,0,0,1-16.944,8.577.611.611,0,0,1-.648-.564l-2.01.079-.724,1.783-2.555-1.139-1.512.189-1.141.971a1.379,1.379,0,0,0,.165,2.221l6.17,3.837a1.379,1.379,0,0,0,2.1-1.273l-.108-1.451a.609.609,0,0,1,.567-.653,27.971,27.971,0,0,0,19.717-10.024A1.976,1.976,0,0,0,228.08,364.983Z" transform="translate(-176.184 -321.482)" fill="#29ce69"/>
        <path id="Trazado_824783" data-name="Trazado 824783" d="M219.613,413.981l-.14-1.878a1.379,1.379,0,0,0-2.268-.948l-4.393,3.738c1.234,1.145,5.416,4.519,6.8-.912Z" transform="translate(-188.031 -362.142)" fill="#21b95c"/>
      </g>
      <g id="Grupo_1073977" data-name="Grupo 1073977" transform="translate(0 0)">
        <path id="Trazado_824784" data-name="Trazado 824784" d="M85.3,12.574,90.83,7.865a2.283,2.283,0,0,0-.274-3.679L84.386.349A2.285,2.285,0,0,0,80.9,2.458l.086,1.154A28.876,28.876,0,0,0,60.934,13.938a2.906,2.906,0,0,0,4.473,3.712A23.1,23.1,0,0,1,81.42,9.418L81.539,11a2.285,2.285,0,0,0,3.758,1.57ZM81.6,7.591a24.756,24.756,0,0,0-17.585,8.9,1.1,1.1,0,0,1-1.689-1.4A27.227,27.227,0,0,1,81.4,5.4a1.513,1.513,0,0,0,1.412-1.623l-.108-1.451a.473.473,0,0,1,.722-.437L89.6,5.724a.473.473,0,0,1,.057.763l-5.534,4.709a.473.473,0,0,1-.779-.325L83.2,8.991A1.522,1.522,0,0,0,81.6,7.591Z" transform="translate(-52.986 0)"/>
        <path id="Trazado_824785" data-name="Trazado 824785" d="M221.957,357.651a2.9,2.9,0,0,0-3.9.517,23.1,23.1,0,0,1-16.014,8.232l-.118-1.586a2.285,2.285,0,0,0-3.758-1.57l-5.533,4.709a2.282,2.282,0,0,0,.274,3.679l6.17,3.837a2.285,2.285,0,0,0,3.484-2.109l-.086-1.154a28.85,28.85,0,0,0,20.054-10.327A2.883,2.883,0,0,0,221.957,357.651Zm-.815,3.07a27.226,27.226,0,0,1-19.08,9.7,1.513,1.513,0,0,0-1.412,1.623l.108,1.451a.473.473,0,0,1-.722.437l-6.17-3.837a.473.473,0,0,1-.057-.763l5.534-4.709a.473.473,0,0,1,.779.325l.14,1.878a1.523,1.523,0,0,0,1.606,1.4,24.737,24.737,0,0,0,17.585-8.9,1.1,1.1,0,0,1,1.689,1.4Z" transform="translate(-168.676 -314.015)"/>
        <path id="Trazado_824786" data-name="Trazado 824786" d="M17.65,218.06a23.1,23.1,0,0,1-8.232-16.014L11,201.928a2.285,2.285,0,0,0,1.57-3.758l-4.709-5.533a2.282,2.282,0,0,0-3.679.274L.349,199.08a2.285,2.285,0,0,0,2.109,3.484l1.154-.086a28.852,28.852,0,0,0,10.327,20.054,2.906,2.906,0,0,0,3.712-4.473Zm-.956,2.845a1.072,1.072,0,0,1-1.6.238,27.227,27.227,0,0,1-9.7-19.08,1.513,1.513,0,0,0-1.623-1.412l-1.451.108a.473.473,0,0,1-.437-.722l3.837-6.17a.473.473,0,0,1,.762-.057l4.709,5.534a.473.473,0,0,1-.325.779l-1.878.14a1.523,1.523,0,0,0-1.4,1.606,24.737,24.737,0,0,0,8.9,17.584A1.067,1.067,0,0,1,16.694,220.9Z" transform="translate(0 -168.676)"/>
        <path id="Trazado_824787" data-name="Trazado 824787" d="M169.363,167.458a.9.9,0,0,0,.029-1.809v-9.59a.905.905,0,1,0-1.811,0v9.589h-4.114v-23.9h4.114v10.088a.905.905,0,0,0,1.811,0V141.627a1.694,1.694,0,0,0-1.692-1.692h-4.351a1.694,1.694,0,0,0-1.692,1.692v4.318h-4.232a1.694,1.694,0,0,0-1.692,1.692v4.318H151.5a1.694,1.694,0,0,0-1.692,1.692v4.318h-4.232a1.694,1.694,0,0,0-1.692,1.692v5.99a.905.905,0,0,0,0,1.81Zm-11.82-19.7h4.114v17.891h-4.114Zm-5.924,6.01h4.114v11.881h-4.114Zm-1.811,11.881h-4.114v-5.871h4.114Z" transform="translate(-125.724 -123.044)"/>
        <path id="Trazado_824788" data-name="Trazado 824788" d="M142.525,145.817a.905.905,0,0,0,1.278.07l4.632-4.15,1.156,1.29a2.088,2.088,0,0,0,3.591-.938l.99-4.428a2.089,2.089,0,0,0-2.266-2.53l-4.51.5a2.088,2.088,0,0,0-1.325,3.467l1.156,1.29-4.632,4.15A.906.906,0,0,0,142.525,145.817Zm5.07-8.386c.025,0,4.518-.5,4.543-.5a.276.276,0,0,1,.267.337l-.99,4.428a.276.276,0,0,1-.475.124l-3.52-3.929A.276.276,0,0,1,147.6,137.431Z" transform="translate(-125.119 -118.809)"/>
        <path id="Trazado_824789" data-name="Trazado 824789" d="M373.361,80.9l-1.154.086a28.726,28.726,0,0,0-2.721-10.26.905.905,0,0,0-1.635.779,26.93,26.93,0,0,1,2.57,9.9,1.514,1.514,0,0,0,1.623,1.412l1.451-.108a.473.473,0,0,1,.437.722l-3.837,6.17a.473.473,0,0,1-.762.057l-4.709-5.533a.473.473,0,0,1,.325-.779l1.878-.14a1.523,1.523,0,0,0,1.4-1.606,24.755,24.755,0,0,0-8.9-17.585,1.1,1.1,0,0,1,1.4-1.689,27.209,27.209,0,0,1,5.1,5.63.905.905,0,1,0,1.5-1.016,29.03,29.03,0,0,0-5.435-6,2.906,2.906,0,0,0-3.712,4.473A23.1,23.1,0,0,1,366.4,81.414l-1.586.118a2.285,2.285,0,0,0-1.57,3.758l4.709,5.534a2.283,2.283,0,0,0,3.679-.274l3.837-6.17A2.285,2.285,0,0,0,373.361,80.9Z" transform="translate(-314.015 -52.981)"/>
      </g>
    </g>
  </g>
</svg>
