<svg xmlns="http://www.w3.org/2000/svg" xmlns:xlink="http://www.w3.org/1999/xlink" width="122" height="122" viewBox="0 0 122 122">
  <defs>
    <filter id="Trazado_824490" x="0" y="0" width="122" height="122" filterUnits="userSpaceOnUse">
      <feOffset dy="3" input="SourceAlpha"/>
      <feGaussianBlur stdDeviation="7" result="blur"/>
      <feFlood flood-color="#fff" flood-opacity="0.659"/>
      <feComposite operator="in" in2="blur"/>
      <feComposite in="SourceGraphic"/>
    </filter>
  </defs>
  <g id="Grupo_1073921" data-name="Grupo 1073921" transform="translate(-1213 -4516)">
    <g transform="matrix(1, 0, 0, 1, 1213, 4516)" filter="url(#Trazado_824490)">
      <path id="Trazado_824490-2" data-name="Trazado 824490" d="M40,0A40,40,0,1,1,0,40,40,40,0,0,1,40,0Z" transform="translate(21 18)" fill="#ffce00"/>
    </g>
    <g id="flexibilidad" transform="translate(1179.914 4537.793)">
      <path id="Trazado_824790" data-name="Trazado 824790" d="M101.817,121.145a26.283,26.283,0,0,0-15.2-23.835l1.6-2.774a.65.65,0,0,0-.659-.969l-9.439,1.4a.649.649,0,0,0-.51.883l3.508,8.874a.651.651,0,0,0,1.169.086L83.913,102a20.9,20.9,0,0,1,12.52,19.149h5.384Z" transform="translate(-5.039 -76.981)" fill="#ed1717" fill-rule="evenodd"/>
      <path id="Trazado_824791" data-name="Trazado 824791" d="M85.606,95.963l-7.485,1.109h0a.649.649,0,0,0-.508.883l3.508,8.874a.651.651,0,0,0,1.169.086l1.624-2.813a20.9,20.9,0,0,1,12.52,19.149H99.86a26.283,26.283,0,0,0-15.2-23.545l1.6-2.774a.65.65,0,0,0-.659-.969Z" transform="translate(-5.039 -79.088)" fill="#ff3838" fill-rule="evenodd"/>
      <path id="Trazado_824792" data-name="Trazado 824792" d="M105.071,161.343l.231.584a.651.651,0,0,0,1.169.086L108.1,159.2c-.441-.2-1.014-.426-1.455-.575l-1.569,2.717Z" transform="translate(-29.222 -134.186)" fill="#ed1717" fill-rule="evenodd"/>
      <path id="Trazado_824793" data-name="Trazado 824793" d="M233.715,121.145a26.283,26.283,0,0,1,15.2-23.835l-1.6-2.774a.65.65,0,0,1,.659-.969l9.439,1.4a.649.649,0,0,1,.51.883l-3.508,8.874a.651.651,0,0,1-1.169.086L251.62,102a20.9,20.9,0,0,0-12.52,19.149Z" transform="translate(-142.321 -76.981)" fill="#2a93fc" fill-rule="evenodd"/>
      <path id="Trazado_824794" data-name="Trazado 824794" d="M264.166,95.963l7.485,1.109h0a.649.649,0,0,1,.508.883l-3.508,8.874a.651.651,0,0,1-1.169.086L265.86,104.1a20.9,20.9,0,0,0-12.52,19.149h-3.427a26.283,26.283,0,0,1,15.2-23.545l-1.6-2.774a.65.65,0,0,1,.659-.969Z" transform="translate(-156.561 -79.088)" fill="#4eb1fc" fill-rule="evenodd"/>
      <path id="Trazado_824795" data-name="Trazado 824795" d="M384.916,161.343l-.231.584a.651.651,0,0,1-1.169.086l-1.624-2.813c.441-.2,1.014-.426,1.455-.575l1.569,2.717Z" transform="translate(-272.594 -134.186)" fill="#2a93fc" fill-rule="evenodd"/>
      <path id="Trazado_824796" data-name="Trazado 824796" d="M210.784,19.781V48.565H205.4V19.781h-3.239a.65.65,0,0,1-.51-1.055l5.931-7.475a.651.651,0,0,1,1.02,0l5.931,7.475a.65.65,0,0,1-.51,1.055h-3.239Z" transform="translate(-114.006 -4.401)" fill="#29b933" fill-rule="evenodd"/>
      <path id="Trazado_824797" data-name="Trazado 824797" d="M224.762,25.705V54.49h-3.789V25.705H218.06a.65.65,0,0,1-.51-1.055l5.48-6.907,5.48,6.907a.65.65,0,0,1-.51,1.055h-3.239Z" transform="translate(-127.984 -10.326)" fill="#2dd62d" fill-rule="evenodd"/>
      <path id="Trazado_824798" data-name="Trazado 824798" d="M120.28,297.1v6.611l-4.349.858-1.91,4.6,2.471,3.684-5.093,5.093-3.684-2.471-4.6,1.91-.858,4.349h-7.2l-.858-4.349-4.6-1.91L85.9,317.948l-5.093-5.093,2.471-3.684-1.91-4.6-4.349-.858V297.1H87.993a11.072,11.072,0,1,0,21.317,0H120.28Z" transform="translate(-4.562 -255.926)" fill="#182935" fill-rule="evenodd"/>
      <path id="Trazado_824799" data-name="Trazado 824799" d="M131.79,297.1v6.611l-4.349.858-1.91,4.6L128,312.855l-4.458,4.458-3.339-2.239-.978.405,0,0-4.6,1.91-.858,4.349h-6.076l-.9-4.555-5.085-2.109-.6.405-2.737,1.836L93.9,312.855l2.471-3.684-2.3-5.552-3.963-.781V297.1H99.5a11.072,11.072,0,1,0,21.317,0H131.79Z" transform="translate(-16.072 -255.926)" fill="#314a66" fill-rule="evenodd"/>
      <path id="Trazado_824800" data-name="Trazado 824800" d="M273.15,297.1a11.081,11.081,0,0,1-10.658,14.082c-.234,0-.467-.008-.7-.023a11.079,11.079,0,0,0,9.96-14.059h1.4Z" transform="translate(-167.008 -255.925)" fill="#182935" fill-rule="evenodd"/>
      <path id="Trazado_824801" data-name="Trazado 824801" d="M216.191,297.1a6.223,6.223,0,1,1-10.9,0Z" transform="translate(-116.654 -255.926)" fill="#29b933" fill-rule="evenodd"/>
      <path id="Trazado_824802" data-name="Trazado 824802" d="M226.213,297.1a5.537,5.537,0,1,1-9.518,0Z" transform="translate(-126.677 -255.926)" fill="#2dd62d" fill-rule="evenodd"/>
      <path id="Trazado_824803" data-name="Trazado 824803" d="M73.137,18.6a.048.048,0,0,1,.036-.022l9.441-1.4a.043.043,0,0,1,.047.02.048.048,0,0,1,0,.05l-1.606,2.774A.626.626,0,0,0,81,20.51a.617.617,0,0,0,.326.366,25.907,25.907,0,0,1,9.464,7.558v8.615A21.519,21.519,0,0,0,79.117,24.461a.6.6,0,0,0-.765.251l-1.624,2.813c-.006.011-.012.026-.047.023a.041.041,0,0,1-.036-.03l-3.508-8.874a.034.034,0,0,1,0-.041Zm15.017-3.829H91.4a.605.605,0,0,1,.6.6V40.568h4.172V15.379a.605.605,0,0,1,.6-.6h3.242a.039.039,0,0,0,.041-.026.045.045,0,0,0-.006-.05L94.122,7.224c0-.005-.012-.018-.036-.018a.041.041,0,0,0-.036.018L88.119,14.7a.044.044,0,0,0-.006.049A.039.039,0,0,0,88.154,14.775Zm18.7,6.1a.607.607,0,0,0,.32-.366.626.626,0,0,0-.053-.484l-1.6-2.774c-.012-.011-.018-.026,0-.05s.03-.022.041-.02l9.441,1.4a.041.041,0,0,1,.036.022.034.034,0,0,1,0,.041l-3.5,8.874a.05.05,0,0,1-.089.006l-1.624-2.813a.6.6,0,0,0-.765-.251A21.574,21.574,0,0,0,97.381,37.049V28.434a25.832,25.832,0,0,1,9.47-7.558ZM99.693,44.163a5.606,5.606,0,1,1-10.679-2.387H99.159A5.613,5.613,0,0,1,99.693,44.163Zm-24.173-16.2a1.253,1.253,0,0,0,2.252.167l1.351-2.338A20.431,20.431,0,0,1,90.471,40.568H88.64a.6.6,0,0,0-.527.313,6.815,6.815,0,1,0,11.947,0,.6.6,0,0,0-.527-.313H97.7A20.445,20.445,0,0,1,109.05,25.791L110.4,28.13a1.253,1.253,0,0,0,2.252-.167l3.508-8.873a1.25,1.25,0,0,0-.984-1.7l-9.441-1.4a1.253,1.253,0,0,0-1.268,1.869l1.274,2.21a27.169,27.169,0,0,0-8.362,6.466V15.983h2.637A1.254,1.254,0,0,0,101,13.948L95.07,6.473a1.257,1.257,0,0,0-1.968,0L87.17,13.948a1.258,1.258,0,0,0,.984,2.035h2.637V26.532a27.1,27.1,0,0,0-8.362-6.466l1.274-2.21a1.254,1.254,0,0,0-1.268-1.869l-9.441,1.4a1.25,1.25,0,0,0-.984,1.7l3.508,8.873Zm39.612,19.308V41.776h-9.583a11.917,11.917,0,0,1,.243,2.387,11.7,11.7,0,1,1-23.409,0,11.913,11.913,0,0,1,.243-2.387H73.042v5.495l3.87.762a.605.605,0,0,1,.439.361L79.265,53a.606.606,0,0,1-.059.568l-2.193,3.275,4.391,4.4,3.277-2.2a.6.6,0,0,1,.569-.056l4.6,1.912a.589.589,0,0,1,.362.441l.765,3.866H97.2l.759-3.866a.614.614,0,0,1,.362-.441l4.611-1.912a.594.594,0,0,1,.563.056l3.277,2.2,4.4-4.4-2.2-3.275a.588.588,0,0,1-.053-.568l1.908-4.609a.6.6,0,0,1,.444-.361l3.864-.762Zm.6-6.7a.605.605,0,0,1,.6.6v6.6a.607.607,0,0,1-.486.593l-4.036.8-1.665,4.01,2.294,3.419a.608.608,0,0,1-.077.763l-5.1,5.1a.606.606,0,0,1-.765.075l-3.419-2.293-4.006,1.664-.8,4.036a.6.6,0,0,1-.593.488H90.483a.6.6,0,0,1-.593-.488L89.1,61.891l-4.012-1.664-3.419,2.293a.607.607,0,0,1-.765-.075l-5.1-5.1a.6.6,0,0,1-.071-.763l2.287-3.419-1.659-4.01-4.036-.8a.607.607,0,0,1-.492-.593v-6.6a.605.605,0,0,1,.6-.6H83.4a.6.6,0,0,1,.48.239.621.621,0,0,1,.1.528,10.5,10.5,0,1,0,20.221,0,.6.6,0,0,1,.581-.767Z" fill-rule="evenodd"/>
    </g>
  </g>
</svg>
