<svg xmlns="http://www.w3.org/2000/svg" width="307" height="233.5" viewBox="0 0 307 233.5">
  <g id="Grupo_1074228" data-name="Grupo 1074228" transform="translate(10047 2879.496)">
    <rect id="Rectángulo_382754" data-name="Rectángulo 382754" width="307" height="233.5" rx="10" transform="translate(-10047 -2879.496)" fill="#f7fcfa"/>
    <g id="_03" data-name="03" transform="translate(-9974 -2836.496)">
      <path id="Trazado_821192" data-name="Trazado 821192" d="M410.559,154.859a1.54,1.54,0,0,0,1.535-1.535A63.17,63.17,0,0,0,314.2,100.559a1.5,1.5,0,0,0-.422,2.111,1.47,1.47,0,0,0,2.111.422,60.092,60.092,0,0,1,93.135,50.194,1.539,1.539,0,0,0,1.535,1.535Z" transform="translate(-265.426 -70.205)" fill="#231f20"/>
      <path id="Trazado_821193" data-name="Trazado 821193" d="M315.228,118.3a1.566,1.566,0,0,0,1.5-1.113c.576-2.111,1.074-4.336,1.458-6.562a1.524,1.524,0,0,0-1.267-1.765,1.544,1.544,0,0,0-1.765,1.266,54.869,54.869,0,0,1-1.381,6.255,1.541,1.541,0,0,0,1.074,1.88,1.575,1.575,0,0,0,.422.038Z" transform="translate(-172.321 -17.22)" fill="#231f20"/>
      <path id="Trazado_821194" data-name="Trazado 821194" d="M378.111,195.99a62.745,62.745,0,0,0,35.3-10.783,64.12,64.12,0,0,0,18.343-19,62.715,62.715,0,0,0,3.722-6.907,1.537,1.537,0,0,0-2.8-1.266,59.877,59.877,0,0,1-3.531,6.562,60.667,60.667,0,0,1-17.422,18.074,60.127,60.127,0,0,1-83.81-82.927,1.522,1.522,0,1,0-2.533-1.688A63.2,63.2,0,0,0,378.15,195.99Z" transform="translate(-294.608 -49.706)" fill="#231f20"/>
      <path id="Trazado_821195" data-name="Trazado 821195" d="M365.457,190.19a48.045,48.045,0,1,0-24.483-89.374,1.54,1.54,0,0,0,1.573,2.648A44.96,44.96,0,1,1,326.7,119.389a1.54,1.54,0,0,0-2.648-1.573,48.035,48.035,0,0,0,41.445,72.336Z" transform="translate(-281.954 -59.026)" fill="#231f20"/>
      <path id="Trazado_821196" data-name="Trazado 821196" d="M383.57,129.4a30.815,30.815,0,1,0-30.815,30.815A30.814,30.814,0,0,0,383.57,129.4Z" transform="translate(-269.252 -46.286)" fill="#00c2b7"/>
      <path id="Trazado_821197" data-name="Trazado 821197" d="M403.172,162.294a1.452,1.452,0,0,0,1.075-.46,1.529,1.529,0,0,0,0-2.187L332.218,88a1.547,1.547,0,1,0-2.187,2.187l72.029,71.645a1.515,1.515,0,0,0,1.075.46Z" transform="translate(-319.669 -77.639)" fill="#231f20"/>
      <path id="Trazado_821198" data-name="Trazado 821198" d="M347.405,107.447a1.539,1.539,0,0,0,1.535-1.535V86.495a1.535,1.535,0,0,0-3.07,0v19.418A1.54,1.54,0,0,0,347.405,107.447Z" transform="translate(-326.453 -84.96)" fill="#231f20"/>
      <path id="Trazado_821199" data-name="Trazado 821199" d="M347.4,93.09h19.418a1.535,1.535,0,0,0,0-3.07H347.4a1.535,1.535,0,0,0,0,3.07Z" transform="translate(-345.87 -70.603)" fill="#231f20"/>
      <ellipse id="Elipse_9779" data-name="Elipse 9779" cx="8.097" cy="8.097" rx="8.097" ry="8.097" transform="translate(143.636 118.731)" fill="#1682fb"/>
      <path id="Trazado_821200" data-name="Trazado 821200" d="M328.145,101.946a1.421,1.421,0,0,0,1-.384,1.524,1.524,0,0,0,.154-2.149c-3.454-3.914-10.246-8.634-10.515-8.826a1.544,1.544,0,1,0-1.765,2.533c.077.038,6.754,4.72,9.977,8.366a1.514,1.514,0,0,0,1.151.5Z" transform="translate(-193.911 -69.788)" fill="#231f20"/>
      <path id="Trazado_821201" data-name="Trazado 821201" d="M339.935,101.778a1.539,1.539,0,0,0,1.535-1.535V86.965a1.535,1.535,0,1,0-3.07,0v13.278A1.539,1.539,0,0,0,339.935,101.778Z" transform="translate(-290.317 -83.626)" fill="#231f20"/>
      <path id="Trazado_821202" data-name="Trazado 821202" d="M338.2,90.23h13.278a1.535,1.535,0,0,0,0-3.07H338.2a1.535,1.535,0,0,0,0,3.07Z" transform="translate(-295.225 -78.718)" fill="#231f20"/>
      <path id="Trazado_821203" data-name="Trazado 821203" d="M347.28,118.8a3.339,3.339,0,1,0,3.339-3.339A3.341,3.341,0,0,0,347.28,118.8Z" transform="translate(-336.88 1.582)"/>
    </g>
  </g>
</svg>
