<svg xmlns="http://www.w3.org/2000/svg" xmlns:xlink="http://www.w3.org/1999/xlink" width="610" height="259" viewBox="0 0 610 259">
  <defs>
    <clipPath id="clip-path">
      <rect id="Rectángulo_382734" data-name="Rectángulo 382734" width="610" height="259" transform="translate(810 8573)" fill="#fff" stroke="#707070" stroke-width="1"/>
    </clipPath>
    <clipPath id="clip-path-2">
      <rect id="Rectángulo_382733" data-name="Rectángulo 382733" width="40.112" height="42.879" transform="translate(0 0)" fill="none"/>
    </clipPath>
    <clipPath id="clip-path-3">
      <rect id="Rectángulo_382737" data-name="Rectángulo 382737" width="35.124" height="42.528" transform="translate(0 0)" fill="none"/>
    </clipPath>
  </defs>
  <g id="Enmascarar_grupo_172" data-name="Enmascarar grupo 172" transform="translate(-810 -8573)" clip-path="url(#clip-path)">
    <g id="Graphics" transform="translate(814.001 8605.501)">
      <g id="Grupo_1073692" data-name="Grupo 1073692">
        <g id="Grupo_1073688" data-name="Grupo 1073688" transform="translate(153.629 -86.804)">
          <path id="Trazado_823706" data-name="Trazado 823706" d="M341.93,132.44a21.9,21.9,0,0,0,11.03-6.38l7.05,2.38,3.52-6.09-5.59-4.91a21.625,21.625,0,0,0,.94-6.37,21.959,21.959,0,0,0-.94-6.37l5.59-4.91-3.52-6.09-7.05,2.38a21.953,21.953,0,0,0-11.03-6.37l-1.46-7.29h-3.52" fill="none" stroke="#263238" stroke-miterlimit="10" stroke-width="1"/>
          <path id="Trazado_823707" data-name="Trazado 823707" d="M333.43,82.42l-1.46,7.29a21.953,21.953,0,0,0-11.03,6.37l-7.05-2.38-3.52,6.09,5.59,4.91a22.053,22.053,0,0,0,0,12.74l-5.59,4.91,3.52,6.09,7.05-2.38a22.042,22.042,0,0,0,11.03,6.38l1.46,7.29h7.03l1.46-7.29" fill="none" stroke="#263238" stroke-miterlimit="10" stroke-width="1"/>
          <path id="Trazado_823708" data-name="Trazado 823708" d="M336.5,122.81c-12.54-.88-14.9-19.13-2.36-22.34" fill="none" stroke="#263238" stroke-miterlimit="10" stroke-width="1"/>
          <path id="Trazado_823709" data-name="Trazado 823709" d="M344.43,102.98c6.24,5.72,4.26,16.88-4.05,19.4" fill="none" stroke="#263238" stroke-miterlimit="10" stroke-width="1"/>
          <path id="Trazado_823710" data-name="Trazado 823710" d="M338.38,100.2a11.494,11.494,0,0,1,3.16.87" fill="none" stroke="#263238" stroke-miterlimit="10" stroke-width="1"/>
          <path id="Trazado_823711" data-name="Trazado 823711" d="M379.29,137.99l1.48-1.78a14.469,14.469,0,0,0,8.39-.21l3.33,3.59" fill="none" stroke="#263238" stroke-miterlimit="10" stroke-width="1"/>
          <path id="Trazado_823712" data-name="Trazado 823712" d="M373.82,110.26l.64,1.75a14.382,14.382,0,0,0-4,7.37l-4.78,1.08.12,4.63,4.83.84a14.457,14.457,0,0,0,1.66,3.9,14.114,14.114,0,0,0,2.72,3.25l-1.45,4.68,4.07,2.21" fill="none" stroke="#263238" stroke-miterlimit="10" stroke-width="1"/>
          <path id="Trazado_823713" data-name="Trazado 823713" d="M392.48,139.6l3.95-2.42-1.69-4.6a14.455,14.455,0,0,0,4-7.37l4.78-1.08-.12-4.63-4.82-.84a14.447,14.447,0,0,0-4.38-7.15l1.45-4.68-4.07-2.21-3.14,3.76a14.433,14.433,0,0,0-8.38.21L376.73,105l-3.95,2.42" fill="none" stroke="#263238" stroke-miterlimit="10" stroke-width="1"/>
          <g id="Grupo_1073687" data-name="Grupo 1073687">
            <path id="Trazado_823714" data-name="Trazado 823714" d="M391.89,120.59c1.36,5.75-4.09,11.28-9.86,8.94-5.5-2.23-6.3-10.29-1.2-13.39" fill="none" stroke="#263238" stroke-miterlimit="10" stroke-width="1"/>
            <path id="Trazado_823715" data-name="Trazado 823715" d="M387.17,115.44a7.4,7.4,0,0,1,3.03,1.95" fill="none" stroke="#263238" stroke-miterlimit="10" stroke-width="1"/>
          </g>
        </g>
        <g id="Grupo_1073691" data-name="Grupo 1073691" transform="translate(-12.751 -173.225)">
          <g id="Grupo_1073689" data-name="Grupo 1073689">
            <path id="Trazado_823716" data-name="Trazado 823716" d="M70.23,234.31l7.51,7.51a8.1,8.1,0,0,0,9.74,9.74l-4.72-4.72,1.28-4.77,4.77-1.28,4.72,4.72a8.1,8.1,0,0,0-9.74-9.74l-6.92-6.92" fill="none" stroke="#263238" stroke-miterlimit="10" stroke-width="1"/>
            <path id="Trazado_823717" data-name="Trazado 823717" d="M65.89,217.86,59,210.97a8.1,8.1,0,0,0-9.74-9.74l4.72,4.72-1.28,4.77L47.93,212l-4.72-4.72a8.1,8.1,0,0,0,9.74,9.74l6.89,6.89" fill="none" stroke="#263238" stroke-miterlimit="10" stroke-width="1"/>
          </g>
          <g id="Grupo_1073690" data-name="Grupo 1073690">
            <path id="Trazado_823718" data-name="Trazado 823718" d="M73.63,225.11l9.61-9.61a6.489,6.489,0,0,1,1.61-1.18l1.94-1,6.96-7.96-4.35-4.35-7.96,6.96-1,1.94a6.423,6.423,0,0,1-1.18,1.61l-7.62,7.62" fill="none" stroke="#263238" stroke-miterlimit="10" stroke-width="1"/>
            <path id="Trazado_823719" data-name="Trazado 823719" d="M48.05,250.32a3.263,3.263,0,0,0,4.18-.58l16.66-16.66a3.178,3.178,0,0,0,1.03-2.89l2.89-2.89.18.18a1.068,1.068,0,0,0,1.51-1.51l-5.7-5.7a1.068,1.068,0,0,0-1.51,1.51l.18.18-2.89,2.89a3.145,3.145,0,0,0-2.89,1.03L45.03,242.54a3.206,3.206,0,0,0-1.06,2.74" fill="none" stroke="#263238" stroke-miterlimit="10" stroke-width="1"/>
            <path id="Trazado_823720" data-name="Trazado 823720" d="M44.62,247.04a9.318,9.318,0,0,0,1.39,1.71,8.721,8.721,0,0,0,2.04,1.57" fill="none" stroke="#263238" stroke-miterlimit="10" stroke-width="1"/>
          </g>
          <line id="Línea_255" data-name="Línea 255" y1="2.91" x2="2.91" transform="translate(49.75 242.36)" fill="none" stroke="#263238" stroke-miterlimit="10" stroke-width="1"/>
          <line id="Línea_256" data-name="Línea 256" y1="12.56" x2="12.3" transform="translate(56.59 225.87)" fill="none" stroke="#263238" stroke-miterlimit="10" stroke-width="1"/>
        </g>
      </g>
    </g>
    <g id="_4542734" data-name="4542734" transform="translate(810 8573)">
      <g id="Background_Simple" data-name="Background Simple" transform="translate(173.134)">
        <g id="Grupo_1073927" data-name="Grupo 1073927">
          <path id="Trazado_824669" data-name="Trazado 824669" d="M161.839,30.688C185.345,12.129,215.3,2.472,244.942.308,289.6-2.956,315.754,20.463,316.3,44.425s13.032,50,42.46,79.739,22.355,74.4-27.214,88.555-90.41-6.541-107.3-18.522-52.29,22.875-75.708,11.437c-14.912-7.283-21.156-32.16-24.432-46.577-6.12-26.918-5.663-56.111,3.833-82.2,6.912-18.98,18.906-34.312,33.9-46.169Z" transform="translate(-120.052 -0.003)" fill="#debefb"/>
          <g id="Coding" transform="translate(-82.464 -22.04)">
            <g id="Grupo_1073703" data-name="Grupo 1073703" transform="translate(58.37 26.04)">
              <g id="Grupo_1073694" data-name="Grupo 1073694">
                <rect id="Rectángulo_382616" data-name="Rectángulo 382616" width="165.961" height="107.818" fill="#fff"/>
                <path id="Trazado_823721" data-name="Trazado 823721" d="M224.331,26.04H58.37V133.858H224.331Z" transform="translate(-58.37 -26.04)" fill="#bfbfbf"/>
                <rect id="Rectángulo_382617" data-name="Rectángulo 382617" width="165.961" height="14.106" fill="#fff"/>
                <rect id="Rectángulo_382618" data-name="Rectángulo 382618" width="165.961" height="14.106" fill="#757575"/>
                <rect id="Rectángulo_382619" data-name="Rectángulo 382619" width="9.612" height="9.612" rx="2.62" transform="translate(152.894 2.247)" fill="#fff"/>
                <rect id="Rectángulo_382620" data-name="Rectángulo 382620" width="9.612" height="9.612" rx="2.64" transform="translate(141.116 2.247)" fill="#fff"/>
                <rect id="Rectángulo_382621" data-name="Rectángulo 382621" width="9.612" height="9.612" rx="2.62" transform="translate(129.332 2.247)" fill="#fff"/>
                <rect id="Rectángulo_382622" data-name="Rectángulo 382622" width="153.51" height="81.262" rx="5.22" transform="translate(6.225 20.331)" fill="#263238" stroke="#263238" stroke-linecap="round" stroke-linejoin="round" stroke-width="1"/>
                <g id="Grupo_1073693" data-name="Grupo 1073693" transform="translate(155.639 4.986)">
                  <line id="Línea_257" data-name="Línea 257" y1="4.127" x2="4.121" fill="none" stroke="#263238" stroke-linecap="round" stroke-linejoin="round" stroke-width="1"/>
                  <line id="Línea_258" data-name="Línea 258" x2="4.121" y2="4.127" fill="none" stroke="#263238" stroke-linecap="round" stroke-linejoin="round" stroke-width="1"/>
                </g>
                <rect id="Rectángulo_382623" data-name="Rectángulo 382623" width="5.497" height="3.629" transform="translate(143.171 6.169)" fill="none" stroke="#263238" stroke-linecap="round" stroke-linejoin="round" stroke-width="1"/>
                <line id="Línea_259" data-name="Línea 259" x1="5.497" transform="translate(131.393 9.798)" fill="none" stroke="#263238" stroke-linecap="round" stroke-linejoin="round" stroke-width="1"/>
              </g>
              <g id="Grupo_1073695" data-name="Grupo 1073695" transform="translate(81.735 73.082)">
                <path id="Trazado_823722" data-name="Trazado 823722" d="M292.088,145.93H281.175a1.245,1.245,0,0,1,0-2.49h10.913a1.245,1.245,0,1,1,0,2.49Z" transform="translate(-223.742 -143.44)" fill="#757575"/>
                <path id="Trazado_823723" data-name="Trazado 823723" d="M280.234,159.76H249.775a1.245,1.245,0,1,1,0-2.49h30.459a1.245,1.245,0,1,1,0,2.49Z" transform="translate(-211.889 -148.661)" fill="#757575"/>
                <path id="Trazado_823724" data-name="Trazado 823724" d="M258.015,173.59h-67.1a1.245,1.245,0,0,1,0-2.49h67.1a1.245,1.245,0,1,1,0,2.49Z" transform="translate(-189.67 -153.881)" fill="#757575"/>
              </g>
              <g id="Grupo_1073700" data-name="Grupo 1073700" transform="translate(11.417 64.467)">
                <path id="Trazado_823725" data-name="Trazado 823725" d="M83.035,132.09h-5.08a1.245,1.245,0,1,1,0-2.49h5.08a1.245,1.245,0,1,1,0,2.49Z" transform="translate(-76.71 -129.6)" fill="#bfbfbf"/>
                <path id="Trazado_823726" data-name="Trazado 823726" d="M83.035,145.93h-5.08a1.245,1.245,0,1,1,0-2.49h5.08a1.245,1.245,0,0,1,0,2.49Z" transform="translate(-76.71 -134.824)" fill="#bfbfbf"/>
                <path id="Trazado_823727" data-name="Trazado 823727" d="M83.035,159.76h-5.08a1.245,1.245,0,1,1,0-2.49h5.08a1.245,1.245,0,0,1,0,2.49Z" transform="translate(-76.71 -140.045)" fill="#bfbfbf"/>
                <path id="Trazado_823728" data-name="Trazado 823728" d="M83.035,173.59h-5.08a1.245,1.245,0,1,1,0-2.49h5.08a1.245,1.245,0,0,1,0,2.49Z" transform="translate(-76.71 -145.266)" fill="#bfbfbf"/>
                <g id="Grupo_1073696" data-name="Grupo 1073696" opacity="0.7">
                  <path id="Trazado_823729" data-name="Trazado 823729" d="M83.035,132.09h-5.08a1.245,1.245,0,1,1,0-2.49h5.08a1.245,1.245,0,1,1,0,2.49Z" transform="translate(-76.71 -129.6)" fill="#bfbfbf"/>
                </g>
                <g id="Grupo_1073697" data-name="Grupo 1073697" transform="translate(0 8.616)" opacity="0.7">
                  <path id="Trazado_823730" data-name="Trazado 823730" d="M83.035,145.93h-5.08a1.245,1.245,0,1,1,0-2.49h5.08a1.245,1.245,0,0,1,0,2.49Z" transform="translate(-76.71 -143.44)" fill="#bfbfbf"/>
                </g>
                <g id="Grupo_1073698" data-name="Grupo 1073698" transform="translate(0 17.225)" opacity="0.7">
                  <path id="Trazado_823731" data-name="Trazado 823731" d="M83.035,159.76h-5.08a1.245,1.245,0,1,1,0-2.49h5.08a1.245,1.245,0,0,1,0,2.49Z" transform="translate(-76.71 -157.27)" fill="#bfbfbf"/>
                </g>
                <g id="Grupo_1073699" data-name="Grupo 1073699" transform="translate(0 25.834)" opacity="0.7">
                  <path id="Trazado_823732" data-name="Trazado 823732" d="M83.035,173.59h-5.08a1.245,1.245,0,1,1,0-2.49h5.08a1.245,1.245,0,0,1,0,2.49Z" transform="translate(-76.71 -171.1)" fill="#bfbfbf"/>
                </g>
              </g>
              <g id="Grupo_1073701" data-name="Grupo 1073701" transform="translate(11.411 38.633)">
                <path id="Trazado_823733" data-name="Trazado 823733" d="M184.911,118.26H77.945a1.245,1.245,0,1,1,0-2.49H184.911a1.245,1.245,0,1,1,0,2.49Z" transform="translate(-76.7 -98.545)" fill="#bfbfbf"/>
                <path id="Trazado_823734" data-name="Trazado 823734" d="M292.088,90.59H281.175a1.245,1.245,0,0,1,0-2.49h10.913a1.245,1.245,0,1,1,0,2.49Z" transform="translate(-153.418 -88.1)" fill="#bfbfbf"/>
                <path id="Trazado_823735" data-name="Trazado 823735" d="M267.526,90.59H257.105a1.245,1.245,0,1,1,0-2.49h10.421a1.245,1.245,0,0,1,0,2.49Z" transform="translate(-144.332 -88.1)" fill="#bfbfbf"/>
                <path id="Trazado_823736" data-name="Trazado 823736" d="M184.911,90.59H77.945a1.245,1.245,0,1,1,0-2.49H184.911a1.245,1.245,0,1,1,0,2.49Z" transform="translate(-76.7 -88.1)" fill="#bfbfbf"/>
              </g>
              <g id="Grupo_1073702" data-name="Grupo 1073702" transform="translate(22.099 64.467)">
                <path id="Trazado_823737" data-name="Trazado 823737" d="M292.088,132.09H281.175a1.245,1.245,0,0,1,0-2.49h10.913a1.245,1.245,0,1,1,0,2.49Z" transform="translate(-164.106 -129.6)" fill="#999"/>
                <path id="Trazado_823738" data-name="Trazado 823738" d="M206.376,132.09H95.115a1.245,1.245,0,1,1,0-2.49H206.382a1.245,1.245,0,1,1,0,2.49Z" transform="translate(-93.87 -129.6)" fill="#999"/>
                <path id="Trazado_823739" data-name="Trazado 823739" d="M127.068,145.93H95.115a1.245,1.245,0,1,1,0-2.49h31.953a1.245,1.245,0,1,1,0,2.49Z" transform="translate(-93.87 -134.824)" fill="#999"/>
                <path id="Trazado_823740" data-name="Trazado 823740" d="M127.068,159.76H95.115a1.245,1.245,0,1,1,0-2.49h31.953a1.245,1.245,0,1,1,0,2.49Z" transform="translate(-93.87 -140.045)" fill="#999"/>
                <path id="Trazado_823741" data-name="Trazado 823741" d="M127.068,173.59H95.115a1.245,1.245,0,1,1,0-2.49h31.953a1.245,1.245,0,1,1,0,2.49Z" transform="translate(-93.87 -145.266)" fill="#999"/>
              </g>
            </g>
          </g>
        </g>
      </g>
      <g id="Room_3" data-name="Room 3" transform="translate(1.644 69.634)">
        <g id="Grupo_1073929" data-name="Grupo 1073929" transform="translate(0 91.054)" opacity="0.3">
          <g id="Grupo_1073928" data-name="Grupo 1073928" transform="translate(222.13)">
            <rect id="Rectángulo_382703" data-name="Rectángulo 382703" width="313.777" height="55.418" rx="4.85" transform="translate(0 32.197)" fill="#fff" stroke="#000" stroke-linecap="round" stroke-linejoin="round" stroke-width="1"/>
            <path id="Trazado_824671" data-name="Trazado 824671" d="M335.923,119.31H75.314A10.118,10.118,0,0,0,65.2,129.424v77.514H346.037V129.424a10.119,10.119,0,0,0-10.114-10.114Z" transform="translate(-48.73 -119.31)" fill="#fff" stroke="#000" stroke-linecap="round" stroke-linejoin="round" stroke-width="1"/>
            <rect id="Rectángulo_382704" data-name="Rectángulo 382704" width="280.825" height="35.944" transform="translate(16.482 51.672)" fill="#fff" stroke="#000" stroke-linecap="round" stroke-linejoin="round" stroke-width="1"/>
          </g>
          <line id="Línea_321" data-name="Línea 321" x1="574.262" transform="translate(0 87.838)" fill="none" stroke="#000" stroke-linecap="round" stroke-linejoin="round" stroke-width="1"/>
        </g>
        <g id="Grupo_1073932" data-name="Grupo 1073932" transform="translate(72.172)" opacity="0.3">
          <rect id="Rectángulo_382705" data-name="Rectángulo 382705" width="136.184" height="87.616" transform="translate(0 67.054)" fill="#fff" stroke="#000" stroke-linecap="round" stroke-linejoin="round" stroke-width="1"/>
          <g id="Grupo_1073930" data-name="Grupo 1073930" transform="translate(5.515 74.658)">
            <rect id="Rectángulo_382706" data-name="Rectángulo 382706" width="58.781" height="29.453" transform="translate(0)" fill="#fff" stroke="#000" stroke-linecap="round" stroke-linejoin="round" stroke-width="1"/>
            <rect id="Rectángulo_382707" data-name="Rectángulo 382707" width="58.781" height="29.453" transform="translate(65.075)" fill="#fff" stroke="#000" stroke-linecap="round" stroke-linejoin="round" stroke-width="1"/>
          </g>
          <g id="Grupo_1073931" data-name="Grupo 1073931" transform="translate(5.515 111.034)">
            <rect id="Rectángulo_382708" data-name="Rectángulo 382708" width="58.781" height="29.453" transform="translate(0)" fill="#fff" stroke="#000" stroke-linecap="round" stroke-linejoin="round" stroke-width="1"/>
            <rect id="Rectángulo_382709" data-name="Rectángulo 382709" width="58.781" height="29.453" transform="translate(65.075)" fill="#fff" stroke="#000" stroke-linecap="round" stroke-linejoin="round" stroke-width="1"/>
          </g>
          <rect id="Rectángulo_382710" data-name="Rectángulo 382710" width="136.184" height="7.11" transform="translate(0 59.944)" fill="#fff" stroke="#000" stroke-linecap="round" stroke-linejoin="round" stroke-width="1"/>
          <path id="Trazado_824672" data-name="Trazado 824672" d="M407.385,77.877a6.079,6.079,0,0,0-7.3-3.672l-4.4-4.9a3,3,0,0,0-.989-3.165,3.219,3.219,0,0,0-2.3-1.063,3.356,3.356,0,0,0-3.314,3.363,3.309,3.309,0,0,0,.223,1.175L362.341,94.446a3.231,3.231,0,0,0-2.658-.111,3.347,3.347,0,0,0,.779,6.454l3.957,15.542h-8.037a5.134,5.134,0,0,0-5.131,5.131v3.932h31.183v-3.932a5.134,5.134,0,0,0-5.131-5.131H366.965l-4.117-16.148a3.348,3.348,0,0,0,1.4-2.72,3.3,3.3,0,0,0-.235-1.212l26.942-24.816a3.286,3.286,0,0,0,1.484.359,3.247,3.247,0,0,0,1.719-.495l3.648,4.056a6.085,6.085,0,0,0-1.83,6.875l2.646,6.875,11.388-4.377-2.646-6.875Z" transform="translate(-340.542 -65.08)" stroke="#000" stroke-miterlimit="10" stroke-width="1"/>
        </g>
        <g id="Grupo_1073934" data-name="Grupo 1073934" transform="translate(544.712 59.958)" opacity="0.3">
          <g id="Grupo_1073933" data-name="Grupo 1073933" transform="translate(0)">
            <path id="Trazado_824673" data-name="Trazado 824673" d="M39.606,131.723s-.692-2.943-.717-3.141c-.235-2.226.631-6.652,2.93-7.666a2.968,2.968,0,0,1,3.969,1.929c.544,1.682-.3,3.7-1.249,5.057-1.125,1.607-4.921,3.821-4.921,3.821Z" transform="translate(-24.374 -111.891)"/>
            <path id="Trazado_824674" data-name="Trazado 824674" d="M11.057,131.509c-1.818.717-6.207.47-6.219.47-.049,0,1.051-2.844,1.138-3.017,1.039-1.978,4.2-5.206,6.665-4.785a2.97,2.97,0,0,1,2.25,3.8c-.47,1.706-2.275,2.918-3.833,3.536Z" transform="translate(48.638 -111.072)"/>
            <path id="Trazado_824675" data-name="Trazado 824675" d="M63.229,146.67c-1.867.21-5.75-1.063-6.059-1.175a51.2,51.2,0,0,1-2.609,6.491c-.581,1.224-1.212,2.448-1.855,3.66.371-.507.717-.964.767-1.026,1.521-1.644,5.428-3.907,7.691-2.844a2.963,2.963,0,0,1,1.162,4.253c-.9,1.521-2.968,2.213-4.624,2.4-1.682.185-5.02-.841-5.886-1.113-.247.47-.495.927-.754,1.4-1.212,2.226-2.436,4.427-3.573,6.64-.4.779-.767,1.558-1.138,2.337.334-.457.618-.828.668-.89,1.521-1.632,5.428-3.907,7.691-2.856a2.963,2.963,0,0,1,1.162,4.253c-.9,1.521-2.968,2.213-4.624,2.4-1.607.173-4.686-.742-5.737-1.063-.359.8-.7,1.62-1.014,2.423-.2.556-.42,1.063-.594,1.632s-.346,1.1-.519,1.645c-.3,1.063-.606,2.151-.866,3.19-.185.717-.346,1.41-.519,2.114.383-.779,1.175-2.287,1.261-2.4,1.261-1.855,4.773-4.686,7.171-3.981a2.962,2.962,0,0,1,1.793,4.031c-.668,1.632-2.6,2.634-4.216,3.066-1.781.47-5.651-.148-6.133-.235-.272,1.15-.532,2.275-.754,3.351-.779,3.685-1.3,6.776-1.632,8.952L37.8,193.26a1.365,1.365,0,0,1,.037-.2c.383-2.189.964-5.317,1.842-9.026.272-1.175.594-2.423.927-3.7a30.64,30.64,0,0,1-3.363-1.731,21.83,21.83,0,0,1-5.107,3.042c.408,1.113.816,2.189,1.212,3.2,1.385,3.512,2.658,6.38,3.586,8.371l-1.867-.062c-.853-1.978-1.954-4.624-3.1-7.777-.42-1.125-.841-2.349-1.274-3.6-.47.087-4.352.73-6.133.26-1.62-.42-3.549-1.41-4.229-3.054A2.96,2.96,0,0,1,22.1,174.96c2.4-.717,5.923,2.114,7.184,3.957.074.111.754,1.385,1.162,2.189-.173-.507-.346-1.014-.507-1.533-.346-1.051-.655-2.1-.989-3.227-.148-.556-.284-1.113-.433-1.669s-.26-1.162-.383-1.743c-.272-1.36-.482-2.757-.668-4.179-.915.3-4.179,1.311-5.848,1.125s-3.722-.866-4.637-2.374a2.96,2.96,0,0,1,1.15-4.253c2.263-1.063,6.182,1.187,7.7,2.819.1.1,1.063,1.4,1.57,2.114-.1-.853-.21-1.694-.284-2.559-.223-2.5-.371-5.02-.519-7.542-.049-.779-.1-1.546-.161-2.312-.321.111-4.179,1.4-6.046,1.2-1.657-.173-3.722-.866-4.637-2.374a2.96,2.96,0,0,1,1.15-4.253c2.263-1.063,6.182,1.187,7.7,2.819.111.124,1.5,1.991,1.83,2.473-.124-1.694-.247-3.388-.457-5.045a52.041,52.041,0,0,0-1.212-6.665c-.148.049-4.167,1.41-6.083,1.212-1.657-.173-3.722-.866-4.637-2.374a2.96,2.96,0,0,1,1.15-4.253c2.263-1.063,6.182,1.187,7.7,2.819.1.111,1.162,1.521,1.644,2.213a1.148,1.148,0,0,0,.124-.062,38.4,38.4,0,0,0-2.4-6.368c-.532-1.138-1.1-2.189-1.682-3.2-.717.334-4.043,1.805-5.787,1.805-1.669,0-3.8-.445-4.872-1.855a2.958,2.958,0,0,1,.668-4.352c2.139-1.311,6.269.507,7.963,1.954.087.074.94.989,1.558,1.657-.272-.457-.532-.927-.8-1.36-.989-1.607-2-3.029-2.906-4.278-.519-.7-1-1.335-1.459-1.917-.878-.049-4.414-.284-5.935-1.063-1.484-.767-3.165-2.151-3.474-3.882a2.968,2.968,0,0,1,2.609-3.561c2.5-.185,5.329,3.338,6.17,5.4.074.185.878,3.116.841,3.1h-.049c.457.556.927,1.15,1.434,1.805.927,1.224,1.966,2.634,3,4.229a50.3,50.3,0,0,1,3.079,5.317,39.341,39.341,0,0,1,2.572,6.368.091.091,0,0,0,.025.074c.012-.73.124-2.782.148-2.943.371-2.2,2.374-6.256,4.847-6.627a2.961,2.961,0,0,1,3.314,2.906c.087,1.768-1.261,3.487-2.535,4.55-1.447,1.2-5.391,2.275-5.7,2.362a52.671,52.671,0,0,1,1.41,6.862c.2,1.348.346,2.708.482,4.08.037-.631.062-1.2.074-1.274.371-2.2,2.374-6.256,4.847-6.615a2.961,2.961,0,0,1,3.314,2.906c.087,1.768-1.261,3.487-2.535,4.55-1.3,1.088-4.637,2.065-5.527,2.312.049.532.1,1.051.136,1.57.21,2.522.408,5.045.68,7.505.1.866.223,1.719.346,2.572.025-.569.062-1.039.074-1.113.371-2.2,2.374-6.257,4.847-6.615a2.961,2.961,0,0,1,3.314,2.906c.087,1.768-1.261,3.487-2.547,4.55-1.249,1.039-4.315,1.966-5.366,2.275.148.866.309,1.743.495,2.572.136.569.235,1.125.408,1.682s.321,1.113.47,1.669c.334,1.051.68,2.127,1.039,3.141.247.7.482,1.372.73,2.053-.111-.866-.272-2.559-.272-2.7a11.409,11.409,0,0,1,1.743-5.539,3.918,3.918,0,0,1,.062-.655,2.968,2.968,0,0,1,3.709-2.386c2.4.73,3.784,5.032,3.821,7.258,0,.136-.136,1.57-.235,2.473.136-.519.272-1.026.42-1.57.3-1.063.618-2.114.952-3.24l.556-1.632c.173-.556.433-1.113.643-1.669.519-1.286,1.113-2.572,1.743-3.858-.927-.26-4.216-1.224-5.5-2.287s-2.634-2.77-2.559-4.538a2.96,2.96,0,0,1,3.3-2.918c2.473.359,4.5,4.4,4.872,6.6.025.136.111,1.743.148,2.634.383-.767.767-1.533,1.175-2.3,1.187-2.2,2.461-4.389,3.722-6.578.383-.668.767-1.348,1.15-2.015-.334-.087-4.253-1.15-5.712-2.337-1.286-1.063-2.634-2.77-2.559-4.538a2.96,2.96,0,0,1,3.3-2.918c2.473.359,4.5,4.4,4.872,6.6.025.161.161,2.485.161,3.079.841-1.484,1.657-2.967,2.411-4.464a52.9,52.9,0,0,0,2.671-6.219c-.148-.037-4.253-1.125-5.737-2.349-1.286-1.063-2.634-2.77-2.559-4.538a2.96,2.96,0,0,1,3.3-2.918c2.473.359,4.5,4.4,4.872,6.6.025.148.124,1.917.148,2.757a.266.266,0,0,1,.136.025,37.557,37.557,0,0,0,1.508-6.64c.185-1.236.284-2.436.371-3.6-.779-.124-4.365-.73-5.824-1.682-1.4-.915-2.918-2.473-3.042-4.229a2.964,2.964,0,0,1,2.968-3.264c2.5.087,4.958,3.882,5.564,6.022.037.111.247,1.348.383,2.238.025-.519.062-1.063.074-1.57.062-1.892,0-3.635-.062-5.168-.049-.878-.1-1.669-.161-2.4-.7-.519-3.524-2.671-4.365-4.155-.816-1.459-1.459-3.536-.754-5.156a2.966,2.966,0,0,1,4.13-1.533c2.176,1.224,2.609,5.725,2.164,7.913-.037.185-.977,3.079-1.014,3.054,0,0-.037-.025-.037-.037.074.7.148,1.471.2,2.3.1,1.533.2,3.277.173,5.181a51.534,51.534,0,0,1-.359,6.133,39.157,39.157,0,0,1-1.372,6.726c0,.025-.025.049-.025.074.42-.606,1.632-2.25,1.743-2.374,1.521-1.632,5.428-3.907,7.691-2.844a2.963,2.963,0,0,1,1.162,4.253c-.9,1.521-2.968,2.213-4.624,2.4Z" transform="translate(-5.5 -113.571)"/>
            <path id="Trazado_824676" data-name="Trazado 824676" d="M11.057,131.509c-1.818.717-6.207.47-6.219.47-.049,0,1.051-2.844,1.138-3.017,1.039-1.978,4.2-5.206,6.665-4.785a2.97,2.97,0,0,1,2.25,3.8c-.47,1.706-2.275,2.918-3.833,3.536Z" transform="translate(48.638 -111.072)" opacity="0.3"/>
            <path id="Trazado_824677" data-name="Trazado 824677" d="M39.606,131.723s-.692-2.943-.717-3.141c-.235-2.226.631-6.652,2.93-7.666a2.968,2.968,0,0,1,3.969,1.929c.544,1.682-.3,3.7-1.249,5.057-1.125,1.607-4.921,3.821-4.921,3.821Z" transform="translate(-24.374 -111.891)" opacity="0.3"/>
            <path id="Trazado_824678" data-name="Trazado 824678" d="M63.229,146.67c-1.867.21-5.75-1.063-6.059-1.175a51.2,51.2,0,0,1-2.609,6.491c-.581,1.224-1.212,2.448-1.855,3.66.371-.507.717-.964.767-1.026,1.521-1.644,5.428-3.907,7.691-2.844a2.963,2.963,0,0,1,1.162,4.253c-.9,1.521-2.968,2.213-4.624,2.4-1.682.185-5.02-.841-5.886-1.113-.247.47-.495.927-.754,1.4-1.212,2.226-2.436,4.427-3.573,6.64-.4.779-.767,1.558-1.138,2.337.334-.457.618-.828.668-.89,1.521-1.632,5.428-3.907,7.691-2.856a2.963,2.963,0,0,1,1.162,4.253c-.9,1.521-2.968,2.213-4.624,2.4-1.607.173-4.686-.742-5.737-1.063-.359.8-.7,1.62-1.014,2.423-.2.556-.42,1.063-.594,1.632s-.346,1.1-.519,1.645c-.3,1.063-.606,2.151-.866,3.19-.185.717-.346,1.41-.519,2.114.383-.779,1.175-2.287,1.261-2.4,1.261-1.855,4.773-4.686,7.171-3.981a2.962,2.962,0,0,1,1.793,4.031c-.668,1.632-2.6,2.634-4.216,3.066-1.781.47-5.651-.148-6.133-.235-.272,1.15-.532,2.275-.754,3.351-.779,3.685-1.3,6.776-1.632,8.952L37.8,193.26a1.365,1.365,0,0,1,.037-.2c.383-2.189.964-5.317,1.842-9.026.272-1.175.594-2.423.927-3.7a30.64,30.64,0,0,1-3.363-1.731,21.83,21.83,0,0,1-5.107,3.042c.408,1.113.816,2.189,1.212,3.2,1.385,3.512,2.658,6.38,3.586,8.371l-1.867-.062c-.853-1.978-1.954-4.624-3.1-7.777-.42-1.125-.841-2.349-1.274-3.6-.47.087-4.352.73-6.133.26-1.62-.42-3.549-1.41-4.229-3.054A2.96,2.96,0,0,1,22.1,174.96c2.4-.717,5.923,2.114,7.184,3.957.074.111.754,1.385,1.162,2.189-.173-.507-.346-1.014-.507-1.533-.346-1.051-.655-2.1-.989-3.227-.148-.556-.284-1.113-.433-1.669s-.26-1.162-.383-1.743c-.272-1.36-.482-2.757-.668-4.179-.915.3-4.179,1.311-5.848,1.125s-3.722-.866-4.637-2.374a2.96,2.96,0,0,1,1.15-4.253c2.263-1.063,6.182,1.187,7.7,2.819.1.1,1.063,1.4,1.57,2.114-.1-.853-.21-1.694-.284-2.559-.223-2.5-.371-5.02-.519-7.542-.049-.779-.1-1.546-.161-2.312-.321.111-4.179,1.4-6.046,1.2-1.657-.173-3.722-.866-4.637-2.374a2.96,2.96,0,0,1,1.15-4.253c2.263-1.063,6.182,1.187,7.7,2.819.111.124,1.5,1.991,1.83,2.473-.124-1.694-.247-3.388-.457-5.045a52.041,52.041,0,0,0-1.212-6.665c-.148.049-4.167,1.41-6.083,1.212-1.657-.173-3.722-.866-4.637-2.374a2.96,2.96,0,0,1,1.15-4.253c2.263-1.063,6.182,1.187,7.7,2.819.1.111,1.162,1.521,1.644,2.213a1.148,1.148,0,0,0,.124-.062,38.4,38.4,0,0,0-2.4-6.368c-.532-1.138-1.1-2.189-1.682-3.2-.717.334-4.043,1.805-5.787,1.805-1.669,0-3.8-.445-4.872-1.855a2.958,2.958,0,0,1,.668-4.352c2.139-1.311,6.269.507,7.963,1.954.087.074.94.989,1.558,1.657-.272-.457-.532-.927-.8-1.36-.989-1.607-2-3.029-2.906-4.278-.519-.7-1-1.335-1.459-1.917-.878-.049-4.414-.284-5.935-1.063-1.484-.767-3.165-2.151-3.474-3.882a2.968,2.968,0,0,1,2.609-3.561c2.5-.185,5.329,3.338,6.17,5.4.074.185.878,3.116.841,3.1h-.049c.457.556.927,1.15,1.434,1.805.927,1.224,1.966,2.634,3,4.229a50.3,50.3,0,0,1,3.079,5.317,39.341,39.341,0,0,1,2.572,6.368.091.091,0,0,0,.025.074c.012-.73.124-2.782.148-2.943.371-2.2,2.374-6.256,4.847-6.627a2.961,2.961,0,0,1,3.314,2.906c.087,1.768-1.261,3.487-2.535,4.55-1.447,1.2-5.391,2.275-5.7,2.362a52.671,52.671,0,0,1,1.41,6.862c.2,1.348.346,2.708.482,4.08.037-.631.062-1.2.074-1.274.371-2.2,2.374-6.256,4.847-6.615a2.961,2.961,0,0,1,3.314,2.906c.087,1.768-1.261,3.487-2.535,4.55-1.3,1.088-4.637,2.065-5.527,2.312.049.532.1,1.051.136,1.57.21,2.522.408,5.045.68,7.505.1.866.223,1.719.346,2.572.025-.569.062-1.039.074-1.113.371-2.2,2.374-6.257,4.847-6.615a2.961,2.961,0,0,1,3.314,2.906c.087,1.768-1.261,3.487-2.547,4.55-1.249,1.039-4.315,1.966-5.366,2.275.148.866.309,1.743.495,2.572.136.569.235,1.125.408,1.682s.321,1.113.47,1.669c.334,1.051.68,2.127,1.039,3.141.247.7.482,1.372.73,2.053-.111-.866-.272-2.559-.272-2.7a11.409,11.409,0,0,1,1.743-5.539,3.918,3.918,0,0,1,.062-.655,2.968,2.968,0,0,1,3.709-2.386c2.4.73,3.784,5.032,3.821,7.258,0,.136-.136,1.57-.235,2.473.136-.519.272-1.026.42-1.57.3-1.063.618-2.114.952-3.24l.556-1.632c.173-.556.433-1.113.643-1.669.519-1.286,1.113-2.572,1.743-3.858-.927-.26-4.216-1.224-5.5-2.287s-2.634-2.77-2.559-4.538a2.96,2.96,0,0,1,3.3-2.918c2.473.359,4.5,4.4,4.872,6.6.025.136.111,1.743.148,2.634.383-.767.767-1.533,1.175-2.3,1.187-2.2,2.461-4.389,3.722-6.578.383-.668.767-1.348,1.15-2.015-.334-.087-4.253-1.15-5.712-2.337-1.286-1.063-2.634-2.77-2.559-4.538a2.96,2.96,0,0,1,3.3-2.918c2.473.359,4.5,4.4,4.872,6.6.025.161.161,2.485.161,3.079.841-1.484,1.657-2.967,2.411-4.464a52.9,52.9,0,0,0,2.671-6.219c-.148-.037-4.253-1.125-5.737-2.349-1.286-1.063-2.634-2.77-2.559-4.538a2.96,2.96,0,0,1,3.3-2.918c2.473.359,4.5,4.4,4.872,6.6.025.148.124,1.917.148,2.757a.266.266,0,0,1,.136.025,37.557,37.557,0,0,0,1.508-6.64c.185-1.236.284-2.436.371-3.6-.779-.124-4.365-.73-5.824-1.682-1.4-.915-2.918-2.473-3.042-4.229a2.964,2.964,0,0,1,2.968-3.264c2.5.087,4.958,3.882,5.564,6.022.037.111.247,1.348.383,2.238.025-.519.062-1.063.074-1.57.062-1.892,0-3.635-.062-5.168-.049-.878-.1-1.669-.161-2.4-.7-.519-3.524-2.671-4.365-4.155-.816-1.459-1.459-3.536-.754-5.156a2.966,2.966,0,0,1,4.13-1.533c2.176,1.224,2.609,5.725,2.164,7.913-.037.185-.977,3.079-1.014,3.054,0,0-.037-.025-.037-.037.074.7.148,1.471.2,2.3.1,1.533.2,3.277.173,5.181a51.534,51.534,0,0,1-.359,6.133,39.157,39.157,0,0,1-1.372,6.726c0,.025-.025.049-.025.074.42-.606,1.632-2.25,1.743-2.374,1.521-1.632,5.428-3.907,7.691-2.844a2.963,2.963,0,0,1,1.162,4.253c-.9,1.521-2.968,2.213-4.624,2.4Z" transform="translate(-5.5 -113.571)" opacity="0.3"/>
          </g>
          <rect id="Rectángulo_382711" data-name="Rectángulo 382711" width="11.524" height="17.273" transform="translate(25.828 77.426)"/>
        </g>
      </g>
      <g id="Plant_2" data-name="Plant 2" transform="translate(38.025 163.828)">
        <g id="Grupo_1073936" data-name="Grupo 1073936" transform="translate(0)">
          <g id="Grupo_1073935" data-name="Grupo 1073935">
            <path id="Trazado_824679" data-name="Trazado 824679" d="M401.865,195.5s1.274-15.221,0-24.519-7.184-12.686-7.6-16.915,2.114-8.457-.42-12.686-7.6-8.878-7.6-8.878,3.388,6.343.841,11.413-6.467,10.572-3.808,14.8,5.49,8.457,4.649,11.833-5.5,2.535-4.649,10.151,2.955,10.572,2.955,10.572l-.42,4.229,14.38-.42" transform="translate(-369.729 -132.5)" fill="#a854f3" stroke="#000" stroke-linecap="round" stroke-linejoin="round" stroke-width="1"/>
            <path id="Trazado_824680" data-name="Trazado 824680" d="M385.367,194.693s-3-3.153,1.867-7.913c3.141-3.079,6.244-7.654,6.38-12.4.074-2.337-.989-4.192-.272-6.38.779-2.386,3.215-3.895,3.87-6.553,1.286-5.144-2.151-9.929-2.584-11.561s-.012-1.743,2.3-6.281a18.859,18.859,0,0,0,2.164-8.433,8.527,8.527,0,0,1-6.294,6.009c-5.317,1.385-8.359,4.8-7.988,11.264s.8,8.1-3.7,9.273c-7.073,1.842-6.38,6.714-5.576,12.649.507,3.722.7,4.686-1.508,7.382-1.793,2.189-4.563,1.818-2.4,5.6,2.4,4.179-1.051,7.7,3.165,8.791s10.547-1.447,10.547-1.447Z" transform="translate(-352.118 -131.869)" fill="#a854f3" stroke="#000" stroke-linecap="round" stroke-linejoin="round" stroke-width="1"/>
            <path id="Trazado_824681" data-name="Trazado 824681" d="M400.275,195.175s2.918-3.227-2.09-7.864c-3.227-2.992-6.454-7.468-6.726-12.216-.136-2.337.866-4.216.087-6.38-.853-2.362-3.326-3.808-4.056-6.442-1.422-5.107,1.867-9.978,2.25-11.635s-.037-1.743-2.473-6.207a19.006,19.006,0,0,1-2.411-8.371,8.548,8.548,0,0,0,6.467,5.836c5.354,1.236,8.494,4.563,8.3,11.029s-.569,8.111,3.957,9.162c7.122,1.645,6.566,6.529,5.935,12.488-.4,3.734-.569,4.711,1.706,7.332,1.855,2.139,4.612,1.694,2.547,5.539-2.287,4.241,1.261,7.666-2.918,8.878s-10.584-1.15-10.584-1.15Z" transform="translate(-384.856 -131.658)" fill="#a854f3" stroke="#000" stroke-linecap="round" stroke-linejoin="round" stroke-width="1"/>
            <path id="Trazado_824682" data-name="Trazado 824682" d="M375.83,180.71v21.65a8.125,8.125,0,0,0,.062,1.224,12.672,12.672,0,0,0,.717,3.3,13.594,13.594,0,0,0,12.822,9.076h7.382a13.594,13.594,0,0,0,12.822-9.076,12.671,12.671,0,0,0,.717-3.3,10.145,10.145,0,0,0,.062-1.224V180.71H375.83Z" transform="translate(-369.611 -121.1)" fill="#fff" stroke="#000" stroke-linecap="round" stroke-linejoin="round" stroke-width="1"/>
          </g>
          <rect id="Rectángulo_382712" data-name="Rectángulo 382712" width="34.584" height="0.816" transform="translate(6.219 75.066)" fill="#263238" stroke="#000" stroke-linecap="round" stroke-linejoin="round" stroke-width="1"/>
          <path id="Trazado_824683" data-name="Trazado 824683" d="M375.88,197.6a12.673,12.673,0,0,0,.717,3.3h33.026a12.671,12.671,0,0,0,.717-3.3Z" transform="translate(-369.599 -117.106)" fill="#263238" stroke="#000" stroke-linecap="round" stroke-linejoin="round" stroke-width="1"/>
        </g>
      </g>
      <g id="Device_3" data-name="Device 3" transform="translate(156.053 122.194)">
        <g id="Grupo_1073937" data-name="Grupo 1073937" transform="translate(0 0)">
          <path id="Trazado_824684" data-name="Trazado 824684" d="M339.808,153.126l-14.776,62.565a2.992,2.992,0,0,0,2.906,3.685h18.646v4.7h-23.6a5.531,5.531,0,0,1-5.354-6.937l18.522-70.787,3.648,6.776Z" transform="translate(-317.44 -87.591)" fill="#fff" stroke="#263238" stroke-linecap="round" stroke-linejoin="round" stroke-width="1"/>
          <rect id="Rectángulo_382713" data-name="Rectángulo 382713" width="8.346" height="117.884" transform="matrix(-0.985, 0.174, -0.174, -0.985, 35.686, 116.09)" fill="#263238" stroke="#263238" stroke-linecap="round" stroke-linejoin="round" stroke-width="1"/>
          <rect id="Rectángulo_382714" data-name="Rectángulo 382714" width="75.412" height="3.264" transform="translate(56.408 133.218)" fill="#fff" stroke="#263238" stroke-linecap="round" stroke-linejoin="round" stroke-width="1"/>
        </g>
      </g>
      <g id="Table_3" data-name="Table 3" transform="translate(0 258.689)">
        <line id="Línea_322" data-name="Línea 322" x1="577.081" fill="none" stroke="#263238" stroke-linecap="round" stroke-linejoin="round" stroke-width="1"/>
      </g>
      <g id="Character_3" data-name="Character 3" transform="translate(224.059 35.15)">
        <g id="Grupo_1073943" data-name="Grupo 1073943" transform="translate(0)">
          <path id="Trazado_824685" data-name="Trazado 824685" d="M110.457,57.833s2.226-21.267,13.329-27.932,5.391,11.425,5.391,12.377,16.507-17.459,30.466-7.3S160.6,66.4,160.6,66.4s16.828-5.712,16.507.321-15.876,11.1-15.876,11.1,28.253,2.856,18.089,15.555-37.774,3.487-37.774,3.487,7.617,8.247,2.226,9.2S117.739,90.834,115.835,86.7s-12.7-16.507-5.391-28.884Z" transform="translate(38.661 -28.43)" fill="#263238" stroke="#263238" stroke-linecap="round" stroke-linejoin="round" stroke-width="1"/>
          <path id="Trazado_824686" data-name="Trazado 824686" d="M172.753,92.515s-10.324-.544-15.765-9.236-3.264-14.677,4.9-17.941,19.561-1.632,19.561-1.632S198.842,41.968,223.3,47.4s27.721,24.457,26.089,34.238-6.516,39.134-6.516,39.134-20.1,3.264-25.545-2.176-15.765-25-26.633-27.721S172.753,92.5,172.753,92.5Z" transform="translate(-86.509 -24.151)" fill="#263238" stroke="#263238" stroke-linecap="round" stroke-linejoin="round" stroke-width="1"/>
          <g id="Grupo_1073938" data-name="Grupo 1073938" transform="translate(81.298 57.938)">
            <path id="Trazado_824687" data-name="Trazado 824687" d="M209.141,99.567c.655,4.884,4.167,11.734,7.53,11.289s5.564-4.773,4.909-9.657-4.192-5.564-7.555-5.107-5.527-1.4-4.872,3.487Z" transform="translate(-207.819 -70.397)" fill="none" stroke="#263238" stroke-linecap="round" stroke-linejoin="round" stroke-width="1"/>
            <path id="Trazado_824688" data-name="Trazado 824688" d="M213.57,98.758s-4.352,1.632-10.868-3.264-6.516-16.853-20.649-19.561-23.369,3.808-23.913,7.6,1.632,11.413,1.632,19.017-1.632,11.413-3.264,13.045-3.808.544-.544,3.808,9.78,7.06,9.78,7.06,9.236,17.4,13.045,20.649,13.045,1.632,16.309,0,10.324-5.44,10.324-5.44l4.352,15.221L235.863,135.7l-6.516-21.737S216.3,110.7,213.582,98.746Z" transform="translate(-154.27 -75.288)" fill="#fff" stroke="#263238" stroke-linecap="round" stroke-linejoin="round" stroke-width="1"/>
            <path id="Trazado_824689" data-name="Trazado 824689" d="M173.24,130.51l7-7.95-3.771,16.618Z" transform="translate(-122.101 -64.111)" fill="#263238" stroke="#263238" stroke-linecap="round" stroke-linejoin="round" stroke-width="1"/>
            <path id="Trazado_824690" data-name="Trazado 824690" d="M209.066,100.872c.185,2.09,1.261,3.709,2.4,3.61s1.9-1.879,1.706-3.981-1.261-3.709-2.4-3.61S208.868,98.77,209.066,100.872Z" transform="translate(-199.324 -70.181)" fill="#263238"/>
            <line id="Línea_323" data-name="Línea 323" y1="2.473" x2="37.217" transform="translate(20.128 23.21)" fill="none" stroke="#263238" stroke-linecap="round" stroke-linejoin="round" stroke-width="1"/>
            <line id="Línea_324" data-name="Línea 324" x1="3.017" transform="translate(4.809 30.827)" fill="none" stroke="#263238" stroke-linecap="round" stroke-linejoin="round" stroke-width="1"/>
            <path id="Trazado_824691" data-name="Trazado 824691" d="M215.507,89.61s-4.439-2.535-8.247.952" transform="translate(-199.434 -72.112)" fill="none" stroke="#263238" stroke-linecap="round" stroke-linejoin="round" stroke-width="1"/>
            <path id="Trazado_824692" data-name="Trazado 824692" d="M201.61,122.69s4.13,0,6.986-4.76" transform="translate(-185.537 -65.205)" fill="none" stroke="#263238" stroke-linecap="round" stroke-linejoin="round" stroke-width="1"/>
          </g>
          <g id="Grupo_1073940" data-name="Grupo 1073940" transform="translate(119.677 76.357)">
            <path id="Trazado_824693" data-name="Trazado 824693" d="M100.654,156.655,95.77,226.824H202.946s-16.754-53.415-22-64.58-11.87-16.062-11.87-16.062-13.613-12.216-32.123-9.78S100.654,156.655,100.654,156.655Z" transform="translate(-87.399 -79.332)" fill="#a854f3" stroke="#263238" stroke-linecap="round" stroke-linejoin="round" stroke-width="1"/>
            <path id="Trazado_824694" data-name="Trazado 824694" d="M163.541,99.588s2.176-10.868,9.78-9.236,3.808,18.473-1.088,23.369-8.148-.544-8.148-.544" transform="translate(-145.884 -90.185)" fill="#fff" stroke="#263238" stroke-linecap="round" stroke-linejoin="round" stroke-width="1"/>
            <g id="Grupo_1073939" data-name="Grupo 1073939" transform="translate(9.079 19.647)">
              <path id="Trazado_824695" data-name="Trazado 824695" d="M114.5,168.288s-4.192-7.332-.692-13.267,13.96-17.805,28.278-28.97,33.162-25.483,35.956-17.805,4.884,22.689,4.884,22.689,12.216,2.09,13.613,5.935,2.794,23.035.692,25.483-3.487-.346-8.025-.346-32.123-9.076-42.6-8.383-12.216,3.845-20.253,8.025-11.87,6.627-11.87,6.627Z" transform="translate(-112.412 -106.075)" fill="#a854f3" stroke="#263238" stroke-linecap="round" stroke-linejoin="round" stroke-width="1"/>
              <path id="Trazado_824696" data-name="Trazado 824696" d="M179.818,146.14a34.293,34.293,0,0,0-5.428,4.983" transform="translate(-170.56 -96.601)" fill="none" stroke="#263238" stroke-linecap="round" stroke-linejoin="round" stroke-width="1"/>
              <path id="Trazado_824697" data-name="Trazado 824697" d="M180.789,132.176c-7.988-1.657-17.669-2.535-24.482.606a169.247,169.247,0,0,0-24.717,14.269" transform="translate(-118.61 -100.257)" fill="none" stroke="#263238" stroke-linecap="round" stroke-linejoin="round" stroke-width="1"/>
              <path id="Trazado_824698" data-name="Trazado 824698" d="M132.229,135.908a99.637,99.637,0,0,0-12.179-3.648" transform="translate(-55.782 -99.883)" fill="none" stroke="#263238" stroke-linecap="round" stroke-linejoin="round" stroke-width="1"/>
              <path id="Trazado_824699" data-name="Trazado 824699" d="M149.119,126.458s-8.729-3.487-20.6.346" transform="translate(-83.145 -101.598)" fill="none" stroke="#263238" stroke-linecap="round" stroke-linejoin="round" stroke-width="1"/>
            </g>
            <path id="Trazado_824700" data-name="Trazado 824700" d="M198.486,157.7c-2.794-5.935-11.87-19.2-25.83-12.216s-17.459,23.74-23.74,44.339S136.7,225.082,136.7,225.082h52.018l12.921-52.018" transform="translate(-136.7 -77.579)" fill="#a854f3" stroke="#263238" stroke-linecap="round" stroke-linejoin="round" stroke-width="1"/>
          </g>
          <path id="Trazado_824701" data-name="Trazado 824701" d="M285.672,214.977l-5.774-4.946s-6.85,1.632-18-1.805-14.85-6.751-14.85-6.751a83.021,83.021,0,0,0-10.077,5.638c-5.119,3.4-8.828,4.711-13.774,3.351s1.348-2.7,6.825-6.566,12.068-9.187,12.068-9.187-10.349,4.946-13.947,6.294-7.2,3.6-10.349,2.25-1.805-2.7,6.306-6.751c7.419-3.709,15.752-10.794,19.8-10.794s22.5,7.654,22.5,7.654l36.117,21.6H285.672Z" transform="translate(-216.22 8.76)" fill="#fff" stroke="#263238" stroke-linecap="round" stroke-linejoin="round" stroke-width="1"/>
          <g id="Grupo_1073942" data-name="Grupo 1073942" transform="translate(10.019 196.436)">
            <g id="Grupo_1073941" data-name="Grupo 1073941" transform="translate(0)">
              <path id="Trazado_824702" data-name="Trazado 824702" d="M274.488,204.046a18.027,18.027,0,0,1-8.457.618c-4.056-.9-9.447-1.805-9.447-1.805s-10.794.445-14.4,0-2.7-2.7,3.153-4.946,27.895-3.6,28.352-2.25.8,8.383.8,8.383Z" transform="translate(-227.68 -185.45)" fill="#263238" stroke="#263238" stroke-linecap="round" stroke-linejoin="round" stroke-width="1"/>
              <path id="Trazado_824703" data-name="Trazado 824703" d="M279.274,192.61s-8.556,3.2-10.151,4.278-4.81,1.867-3.474,3.746,5.614.272,8.556-.272a30.738,30.738,0,0,0,6.677-2.4l-1.607-5.342Z" transform="translate(-265.33 -186.044)" fill="#fff" stroke="#263238" stroke-linecap="round" stroke-linejoin="round" stroke-width="1"/>
              <path id="Trazado_824704" data-name="Trazado 824704" d="M274.224,188.726s-15.233.8-18.708,1.867-6.145,8.284-6.677,10.423-2.4,4.81-.8,5.082,7.481-6.417,9.892-7.753,12.018-5.873,15.493-7.209,2.671-2.671.8-2.411Z" transform="translate(-238.111 -186.97)" fill="#fff" stroke="#263238" stroke-linecap="round" stroke-linejoin="round" stroke-width="1"/>
              <path id="Trazado_824705" data-name="Trazado 824705" d="M283.8,211.967S248.9,187.3,245.163,187.3s-20.476,7.443-24.21,9.311-8.383,12.1-8.383,12.1.927,2.325,4.192.47,6.986-7.913,6.986-7.913l18.584-.717s4.686,4.414,7.481,5.342a64.58,64.58,0,0,0,9.348,1.607l6.009,5.4,18.621-.927Z" transform="translate(-203.016 -187.3)" fill="#fff" stroke="#263238" stroke-linecap="round" stroke-linejoin="round" stroke-width="1"/>
            </g>
            <path id="Trazado_824706" data-name="Trazado 824706" d="M212.4,197.58l-8.012,14.7h34.745Z" transform="translate(-148.233 -184.869)" fill="#a854f3" stroke="#263238" stroke-linecap="round" stroke-linejoin="round" stroke-width="1"/>
          </g>
          <path id="Trazado_824707" data-name="Trazado 824707" d="M203.812,95.922s10.448-3.833,11.845-1.4,2.782,11.487-2.782,15.32-8.482-8.1-8.482-8.1" transform="translate(-115.269 -12.993)" fill="none" stroke="#263238" stroke-linecap="round" stroke-linejoin="round" stroke-width="1"/>
        </g>
      </g>
    </g>
    <g id="Grupo_1074016" data-name="Grupo 1074016" transform="translate(896 8579.677)">
      <g id="Grupo_1074015" data-name="Grupo 1074015" transform="translate(-1 8)" clip-path="url(#clip-path-2)">
        <path id="Trazado_824889" data-name="Trazado 824889" d="M40.112,42.879,0,39.553C5.958,36.074,4.907,7.674,4.907,7.674h35.2Z" fill="#fff"/>
        <path id="Trazado_824890" data-name="Trazado 824890" d="M16.378,16.565q8.325.673,16.683.657v-.75l-.506.051c-.476.048-.48.8,0,.75l.506-.051c.471-.048.493-.751,0-.75q-8.352.016-16.683-.657c-.481-.039-.479.711,0,.75" fill="#273a89"/>
        <path id="Trazado_824891" data-name="Trazado 824891" d="M16.786,20.513a108.482,108.482,0,0,0,15.9.7v-.75l-.532.029c-.48.026-.483.776,0,.75l.532-.029c.478-.026.485-.764,0-.75a108.482,108.482,0,0,1-15.9-.7c-.478-.056-.474.694,0,.75" fill="#273a89"/>
        <path id="Trazado_824892" data-name="Trazado 824892" d="M16.684,31.764a146.62,146.62,0,0,0,15.868,1.363.375.375,0,0,0,0-.75,144.722,144.722,0,0,1-15.669-1.336c-.472-.067-.676.656-.2.723" fill="#273a89"/>
        <path id="Trazado_824893" data-name="Trazado 824893" d="M16.433,35.374a99.813,99.813,0,0,0,17.051.883c.481-.017.483-.767,0-.75a98.608,98.608,0,0,1-16.852-.856c-.472-.065-.676.657-.2.723" fill="#273a89"/>
        <rect id="Rectángulo_382730" data-name="Rectángulo 382730" width="6.069" height="6.069" transform="translate(7.795 14.381)" fill="#273a89"/>
        <path id="Trazado_824896" data-name="Trazado 824896" d="M0,0H6.069V6.069H0Z" transform="translate(7.616 35.173) rotate(-86.524)" fill="#273a89"/>
        <path id="Trazado_824894" data-name="Trazado 824894" d="M8.726,17.195l1.429,1.468c.219.226.45.545.774.618a.724.724,0,0,0,.772-.429c.378-.679.678-1.412,1-2.118.1-.212.193-.423.289-.635a.387.387,0,0,0-.135-.513.378.378,0,0,0-.513.134q-.313.695-.634,1.383c-.153.33-.307.659-.465.987-.066.136-.129.276-.2.406-.006.01-.044.059-.042.068.005.027-.059-.062.013,0,0,0,.1-.01.1,0s-.059-.046-.062-.049c-.112-.1-.212-.217-.317-.324l-1.479-1.52c-.337-.347-.867.184-.53.53" fill="#fff"/>
        <path id="Trazado_824895" data-name="Trazado 824895" d="M8.471,31.426l1.275,1.129a1.7,1.7,0,0,0,.645.459.9.9,0,0,0,.853-.208c.47-.422.858-.9,1.269-1.343.127-.138.254-.277.379-.416.252-.278-.4-.531-.647-.254s-.525.575-.79.861c-.2.213-.394.424-.6.634-.075.079-.169.156-.234.238-.02.024-.091.037.006.027s.044.008.032-.019-.069-.057-.09-.075l-.157-.139-1.3-1.148a.508.508,0,0,0-.514-.091c-.158.062-.257.236-.134.345" fill="#fff"/>
        <path id="Trazado_883815" data-name="Trazado 883815" d="M0,0H11.384V4.316H0Z" transform="translate(21.086 10.745) rotate(-70.709)" fill="#a854f3"/>
      </g>
      <g id="Grupo_1074020" data-name="Grupo 1074020" transform="translate(-72 111.323)">
        <path id="Trazado_824901" data-name="Trazado 824901" d="M0,0H32.2V32.2H0Z" transform="translate(0 10.478) rotate(-5.479)" fill="#fff"/>
        <g id="Grupo_1074019" data-name="Grupo 1074019">
          <g id="Grupo_1074018" data-name="Grupo 1074018" clip-path="url(#clip-path-3)">
            <path id="Trazado_824897" data-name="Trazado 824897" d="M5.9,17.885l20.464-2.106c.475-.049.48-.8,0-.75L5.9,17.135c-.475.049-.48.8,0,.75" fill="#273a89"/>
            <path id="Trazado_824898" data-name="Trazado 824898" d="M5.709,21.573q11.143-1.3,22.347-1.975c-.034-.245-.066-.491-.1-.737l-.581.2c-.453.16-.257.885.2.724l.581-.205c.375-.133.348-.764-.1-.737q-11.2.678-22.347,1.975c-.474.055-.479.806,0,.75" fill="#273a89"/>
            <path id="Trazado_824899" data-name="Trazado 824899" d="M6.785,25.309A141.686,141.686,0,0,0,25.43,23.936c.476-.067.274-.79-.2-.723A140.2,140.2,0,0,1,6.785,24.559a.375.375,0,0,0,0,.75" fill="#273a89"/>
            <path id="Trazado_824900" data-name="Trazado 824900" d="M9.367,31.365l14.2-1.309c.477-.044.481-.8,0-.75l-14.2,1.309c-.477.044-.481.794,0,.75" fill="#273a89"/>
            <path id="Trazado_883814" data-name="Trazado 883814" d="M0,0H4.316V11.385H0Z" transform="matrix(0.976, -0.218, 0.218, 0.976, 11.679, 0.941)" fill="#a854f3"/>
          </g>
        </g>
      </g>
    </g>
    <g id="Grupo_1074017" data-name="Grupo 1074017" transform="matrix(0.899, -0.438, 0.438, 0.899, 1248.631, 8687.639)">
      <g id="Grupo_1074015-2" data-name="Grupo 1074015" clip-path="url(#clip-path-2)">
        <path id="Trazado_824889-2" data-name="Trazado 824889" d="M40.112,42.879,0,39.553C5.958,36.074,4.907,7.674,4.907,7.674h35.2Z" fill="#fff"/>
        <path id="Trazado_824890-2" data-name="Trazado 824890" d="M16.378,16.565q8.325.673,16.683.657v-.75l-.506.051c-.476.048-.48.8,0,.75l.506-.051c.471-.048.493-.751,0-.75q-8.352.016-16.683-.657c-.481-.039-.479.711,0,.75" fill="#273a89"/>
        <path id="Trazado_824891-2" data-name="Trazado 824891" d="M16.786,20.513a108.482,108.482,0,0,0,15.9.7v-.75l-.532.029c-.48.026-.483.776,0,.75l.532-.029c.478-.026.485-.764,0-.75a108.482,108.482,0,0,1-15.9-.7c-.478-.056-.474.694,0,.75" fill="#273a89"/>
        <path id="Trazado_824892-2" data-name="Trazado 824892" d="M16.684,31.764a146.62,146.62,0,0,0,15.868,1.363.375.375,0,0,0,0-.75,144.722,144.722,0,0,1-15.669-1.336c-.472-.067-.676.656-.2.723" fill="#273a89"/>
        <path id="Trazado_824893-2" data-name="Trazado 824893" d="M16.433,35.374a99.813,99.813,0,0,0,17.051.883c.481-.017.483-.767,0-.75a98.608,98.608,0,0,1-16.852-.856c-.472-.065-.676.657-.2.723" fill="#273a89"/>
        <rect id="Rectángulo_382730-2" data-name="Rectángulo 382730" width="6.069" height="6.069" transform="translate(7.795 14.381)" fill="#273a89"/>
        <path id="Trazado_824896-2" data-name="Trazado 824896" d="M0,0H6.069V6.069H0Z" transform="translate(7.616 35.173) rotate(-86.524)" fill="#273a89"/>
        <path id="Trazado_824894-2" data-name="Trazado 824894" d="M8.726,17.195l1.429,1.468c.219.226.45.545.774.618a.724.724,0,0,0,.772-.429c.378-.679.678-1.412,1-2.118.1-.212.193-.423.289-.635a.387.387,0,0,0-.135-.513.378.378,0,0,0-.513.134q-.313.695-.634,1.383c-.153.33-.307.659-.465.987-.066.136-.129.276-.2.406-.006.01-.044.059-.042.068.005.027-.059-.062.013,0,0,0,.1-.01.1,0s-.059-.046-.062-.049c-.112-.1-.212-.217-.317-.324l-1.479-1.52c-.337-.347-.867.184-.53.53" fill="#fff"/>
        <path id="Trazado_824895-2" data-name="Trazado 824895" d="M8.471,31.426l1.275,1.129a1.7,1.7,0,0,0,.645.459.9.9,0,0,0,.853-.208c.47-.422.858-.9,1.269-1.343.127-.138.254-.277.379-.416.252-.278-.4-.531-.647-.254s-.525.575-.79.861c-.2.213-.394.424-.6.634-.075.079-.169.156-.234.238-.02.024-.091.037.006.027s.044.008.032-.019-.069-.057-.09-.075l-.157-.139-1.3-1.148a.508.508,0,0,0-.514-.091c-.158.062-.257.236-.134.345" fill="#fff"/>
        <path id="Trazado_824909" data-name="Trazado 824909" d="M0,0H11.384V4.316H0Z" transform="translate(21.086 10.745) rotate(-70.709)" fill="#a854f3"/>
      </g>
    </g>
  </g>
</svg>
