<svg xmlns="http://www.w3.org/2000/svg" width="73" height="77" viewBox="0 0 73 77">
  <g id="Grupo_1073978" data-name="Grupo 1073978" transform="translate(-200 -6469)">
    <rect id="Rectángulo_382523" data-name="Rectángulo 382523" width="73" height="77" rx="8" transform="translate(200 6469)" fill="#0b47db"/>
    <g id="kanban_2_" data-name="kanban (2)" transform="translate(184.341 6455.341)">
      <g id="Grupo_1074011" data-name="Grupo 1074011" transform="translate(27.439 27.439)">
        <path id="Trazado_824866" data-name="Trazado 824866" d="M33.219,112H78.209a2.227,2.227,0,0,1,2.219,2.219v36.094a2.227,2.227,0,0,1-2.219,2.219H33.219A2.227,2.227,0,0,1,31,150.312V114.219A2.227,2.227,0,0,1,33.219,112Z" transform="translate(-31 -103.103)" fill="#cccccb" fill-rule="evenodd"/>
        <path id="Trazado_824867" data-name="Trazado 824867" d="M97.1,112h39.949a2.227,2.227,0,0,1,2.219,2.219v36.094a1.065,1.065,0,0,1-.011.187,44.88,44.88,0,0,1-6.843-1.812C115.432,142.766,101.153,127.433,97.1,112Z" transform="translate(-89.84 -103.103)" fill="#e6e6e6" fill-rule="evenodd"/>
        <path id="Trazado_824868" data-name="Trazado 824868" d="M33.867,31H77.572a2.876,2.876,0,0,1,2.867,2.867v3.174a2.876,2.876,0,0,1-2.867,2.867H33.867A2.885,2.885,0,0,1,31,37.03V33.867A2.869,2.869,0,0,1,33.867,31Z" transform="translate(-31 -31)" fill="#999" fill-rule="evenodd"/>
        <path id="Trazado_824869" data-name="Trazado 824869" d="M80.949,158.4H77.774a1.282,1.282,0,0,0-1.274,1.274v4.317a1.275,1.275,0,0,0,1.274,1.274h3.174a1.275,1.275,0,0,0,1.274-1.274v-4.317A1.275,1.275,0,0,0,80.949,158.4Z" transform="translate(-71.502 -144.406)" fill="#f04843" fill-rule="evenodd"/>
        <path id="Trazado_824870" data-name="Trazado 824870" d="M80.949,249.2H77.774a1.282,1.282,0,0,0-1.274,1.274v4.317a1.275,1.275,0,0,0,1.274,1.274h3.174a1.275,1.275,0,0,0,1.274-1.274v-4.317A1.282,1.282,0,0,0,80.949,249.2Z" transform="translate(-71.502 -225.233)" fill="#f04843" fill-rule="evenodd"/>
        <path id="Trazado_824871" data-name="Trazado 824871" d="M80.949,340.1H77.774a1.282,1.282,0,0,0-1.274,1.274v4.317a1.275,1.275,0,0,0,1.274,1.274h3.174a1.275,1.275,0,0,0,1.274-1.274v-4.317A1.275,1.275,0,0,0,80.949,340.1Z" transform="translate(-71.502 -306.148)" fill="#f04843" fill-rule="evenodd"/>
        <path id="Trazado_824872" data-name="Trazado 824872" d="M232.549,158.4h-3.174a1.275,1.275,0,0,0-1.274,1.274v4.317a1.275,1.275,0,0,0,1.274,1.274h3.174a1.282,1.282,0,0,0,1.274-1.274v-4.317A1.275,1.275,0,0,0,232.549,158.4Z" transform="translate(-206.45 -144.406)" fill="#feeb90" fill-rule="evenodd"/>
        <path id="Trazado_824873" data-name="Trazado 824873" d="M232.549,340.1h-3.174a1.275,1.275,0,0,0-1.274,1.274v4.317a1.275,1.275,0,0,0,1.274,1.274h3.174a1.282,1.282,0,0,0,1.274-1.274v-4.317A1.275,1.275,0,0,0,232.549,340.1Z" transform="translate(-206.45 -306.148)" fill="#feeb90" fill-rule="evenodd"/>
        <path id="Trazado_824874" data-name="Trazado 824874" d="M384.149,158.4h-3.174a1.275,1.275,0,0,0-1.274,1.274v4.317a1.275,1.275,0,0,0,1.274,1.274h3.174a1.282,1.282,0,0,0,1.274-1.274v-4.317A1.275,1.275,0,0,0,384.149,158.4Z" transform="translate(-341.399 -144.406)" fill="#6167af" fill-rule="evenodd"/>
        <path id="Trazado_824875" data-name="Trazado 824875" d="M384.149,249.2h-3.174a1.275,1.275,0,0,0-1.274,1.274v4.317a1.275,1.275,0,0,0,1.274,1.274h3.174a1.282,1.282,0,0,0,1.274-1.274v-4.317A1.282,1.282,0,0,0,384.149,249.2Z" transform="translate(-341.399 -225.233)" fill="#6167af" fill-rule="evenodd"/>
        <path id="Trazado_824876" data-name="Trazado 824876" d="M70.928,58.4h4.4a1.433,1.433,0,0,1,0,2.867h-4.4a1.433,1.433,0,0,1,0-2.867Z" transform="translate(-65.271 -55.39)" fill="#f04843" fill-rule="evenodd"/>
        <path id="Trazado_824877" data-name="Trazado 824877" d="M222.528,58.4h4.4a1.433,1.433,0,0,1,0,2.867h-4.4a1.433,1.433,0,0,1,0-2.867Z" transform="translate(-200.219 -55.39)" fill="#feeb90" fill-rule="evenodd"/>
        <path id="Trazado_824878" data-name="Trazado 824878" d="M374.128,58.4h4.4a1.433,1.433,0,0,1,0,2.867h-4.4a1.433,1.433,0,0,1,0-2.867Z" transform="translate(-335.168 -55.39)" fill="#6167af" fill-rule="evenodd"/>
      </g>
      <path id="Trazado_824879" data-name="Trazado 824879" d="M66.4,30.01h4.4a1.873,1.873,0,0,1,0,3.746H66.4a1.873,1.873,0,0,1-1.318-3.2A1.9,1.9,0,0,1,66.4,30.01Zm4.4.879H66.4a.994.994,0,0,0-.7,1.692,1.006,1.006,0,0,0,.7.3h4.4a.994.994,0,0,0,.7-1.692A1.026,1.026,0,0,0,70.8,30.888ZM49.748,30.01h4.4a1.873,1.873,0,0,1,0,3.746h-4.4a1.873,1.873,0,0,1-1.318-3.2A1.9,1.9,0,0,1,49.748,30.01Zm4.4.879h-4.4a.994.994,0,0,0-.7,1.692,1.006,1.006,0,0,0,.7.3h4.4a.994.994,0,0,0,.7-1.692A1.026,1.026,0,0,0,54.153,30.888ZM33.1,30.01h4.4a1.873,1.873,0,0,1,1.318,3.2,1.851,1.851,0,0,1-1.318.549H33.1a1.873,1.873,0,0,1-1.318-3.2A1.918,1.918,0,0,1,33.1,30.01Zm4.4.879H33.1a.994.994,0,0,0-.7,1.692,1.006,1.006,0,0,0,.7.3h4.4a.994.994,0,0,0,.7-1.692A1.026,1.026,0,0,0,37.5,30.888ZM70.189,51.846H67.015a.834.834,0,0,0-.835.835V57a.834.834,0,0,0,.835.835h3.174A.842.842,0,0,0,71.024,57V52.681A.849.849,0,0,0,70.189,51.846Zm-3.174-.879h3.174A1.716,1.716,0,0,1,71.9,52.681V57a1.716,1.716,0,0,1-1.714,1.714H67.015A1.716,1.716,0,0,1,65.3,57V52.681A1.716,1.716,0,0,1,67.015,50.967Zm3.174-9.095H67.015a.834.834,0,0,0-.835.835v4.317a.834.834,0,0,0,.835.835h3.174a.842.842,0,0,0,.835-.835V42.707A.842.842,0,0,0,70.189,41.872Zm-3.174-.879h3.174A1.716,1.716,0,0,1,71.9,42.707v4.317a1.716,1.716,0,0,1-1.714,1.714H67.015A1.716,1.716,0,0,1,65.3,47.024V42.707A1.716,1.716,0,0,1,67.015,40.994ZM53.537,61.83H50.363a.834.834,0,0,0-.835.835v4.317a.834.834,0,0,0,.835.835h3.174a.834.834,0,0,0,.835-.835V62.665A.834.834,0,0,0,53.537,61.83Zm-3.174-.879h3.174a1.716,1.716,0,0,1,1.714,1.714v4.317A1.716,1.716,0,0,1,53.537,68.7H50.363a1.716,1.716,0,0,1-1.714-1.714V62.665A1.73,1.73,0,0,1,50.363,60.952Zm3.174-19.079H50.363a.834.834,0,0,0-.835.835v4.317a.834.834,0,0,0,.835.835h3.174a.834.834,0,0,0,.835-.835V42.707A.834.834,0,0,0,53.537,41.872Zm-3.174-.879h3.174a1.716,1.716,0,0,1,1.714,1.714v4.317a1.716,1.716,0,0,1-1.714,1.714H50.363a1.716,1.716,0,0,1-1.714-1.714V42.707A1.73,1.73,0,0,1,50.363,40.994ZM36.886,61.83H33.711a.834.834,0,0,0-.835.835v4.317a.834.834,0,0,0,.835.835h3.174a.834.834,0,0,0,.835-.835V62.665A.834.834,0,0,0,36.886,61.83Zm-3.174-.879h3.174A1.716,1.716,0,0,1,38.6,62.665v4.317A1.716,1.716,0,0,1,36.886,68.7H33.711A1.716,1.716,0,0,1,32,66.982V62.665A1.73,1.73,0,0,1,33.711,60.952Zm3.174-9.106H33.711a.834.834,0,0,0-.835.835V57a.834.834,0,0,0,.835.835h3.174A.834.834,0,0,0,37.72,57V52.681A.842.842,0,0,0,36.886,51.846Zm-3.174-.879h3.174A1.716,1.716,0,0,1,38.6,52.681V57a1.716,1.716,0,0,1-1.714,1.714H33.711A1.716,1.716,0,0,1,32,57V52.681A1.73,1.73,0,0,1,33.711,50.967Zm3.174-9.095H33.711a.834.834,0,0,0-.835.835v4.317a.834.834,0,0,0,.835.835h3.174a.834.834,0,0,0,.835-.835V42.707A.834.834,0,0,0,36.886,41.872Zm-3.174-.879h3.174A1.716,1.716,0,0,1,38.6,42.707v4.317a1.716,1.716,0,0,1-1.714,1.714H33.711A1.716,1.716,0,0,1,32,47.024V42.707A1.73,1.73,0,0,1,33.711,40.994Zm9.534-1.153a.439.439,0,0,1,.879,0V74.484a.439.439,0,0,1-.879,0Zm16.926,0a.439.439,0,0,1,.879,0V74.484a.439.439,0,0,1-.879,0ZM30.306,36.776c-.714.011-1.3-.088-1.9.527a1.778,1.778,0,0,0-.516,1.252V74.649a1.786,1.786,0,0,0,1.779,1.779H74.66a1.786,1.786,0,0,0,1.779-1.779V38.555a1.786,1.786,0,0,0-1.779-1.779Zm-1.867-.582A3.3,3.3,0,0,1,27,33.47V30.306A3.31,3.31,0,0,1,30.306,27H74.012a3.317,3.317,0,0,1,3.306,3.306v3.174A3.313,3.313,0,0,1,75.879,36.2a2.662,2.662,0,0,1,1.439,2.362V74.66a2.667,2.667,0,0,1-2.658,2.658h-45A2.684,2.684,0,0,1,27,74.649V38.555a2.662,2.662,0,0,1,1.439-2.362Zm45.573-.3a2.426,2.426,0,0,0,2.416-2.427V30.306A2.435,2.435,0,0,0,74,27.879H30.306a2.428,2.428,0,0,0-2.427,2.427v3.174A2.431,2.431,0,0,0,30.3,35.9Z"/>
    </g>
  </g>
</svg>
