<svg xmlns="http://www.w3.org/2000/svg" width="505" height="529" viewBox="0 0 505 529">
  <g id="Grupo_1102286" data-name="Grupo 1102286" transform="translate(-180 -9286.889)">
    <rect id="Rectángulo_402840" data-name="Rectángulo 402840" width="505" height="529" transform="translate(180 9286.889)" fill="#f2f6ff"/>
    <g id="Grupo_1102285" data-name="Grupo 1102285">
      <path id="Trazado_883982" data-name="Trazado 883982" d="M4,0H180a4,4,0,0,1,4,4V29a4,4,0,0,1-4,4H4a4,4,0,0,1-4-4V4A4,4,0,0,1,4,0Z" transform="translate(286 9317.889)" fill="#f0c518"/>
      <path id="Trazado_883983" data-name="Trazado 883983" d="M4,0H180a4,4,0,0,1,4,4V50a4,4,0,0,1-4,4H4a4,4,0,0,1-4-4V4A4,4,0,0,1,4,0Z" transform="translate(286 9399.889)" fill="#f5dd79"/>
      <path id="Trazado_883984" data-name="Trazado 883984" d="M3.7,0H1.07V-11.375H3.7Zm4.25-8.453.1,1.188a3.06,3.06,0,0,1,1.023-.988,2.648,2.648,0,0,1,1.359-.355,2.383,2.383,0,0,1,1.941.844,4.174,4.174,0,0,1,.7,2.68V0H10.438V-5.094a1.937,1.937,0,0,0-.258-1.145.884.884,0,0,0-.75-.34,1.856,1.856,0,0,0-.758.148,1.513,1.513,0,0,0-.562.422V0H5.477V-8.453ZM17.281,0H14.633V-8.453h2.648Zm0-10.414H14.633v-1.773h2.648Zm5.234,8.547a1.033,1.033,0,0,0,.8-.293,1.221,1.221,0,0,0,.266-.848h2.406l.016.047a2.775,2.775,0,0,1-.957,2.254,3.693,3.693,0,0,1-2.535.871,3.74,3.74,0,0,1-2.973-1.191A4.543,4.543,0,0,1,18.5-4.133v-.18a4.557,4.557,0,0,1,1.039-3.1,3.712,3.712,0,0,1,2.961-1.2,3.636,3.636,0,0,1,2.574.895,3.085,3.085,0,0,1,.934,2.449l-.016.047H23.586a1.636,1.636,0,0,0-.273-.98.937.937,0,0,0-.812-.379,1.085,1.085,0,0,0-1.066.613,3.792,3.792,0,0,0-.3,1.652v.18a3.778,3.778,0,0,0,.3,1.664A1.1,1.1,0,0,0,22.516-1.867ZM29.852,0H27.2V-8.453h2.648Zm0-10.414H27.2v-1.773h2.648ZM31.117-4.3A4.468,4.468,0,0,1,32.2-7.41a3.837,3.837,0,0,1,3.008-1.2,3.847,3.847,0,0,1,3.016,1.2A4.468,4.468,0,0,1,39.3-4.3v.164a4.465,4.465,0,0,1-1.078,3.109,3.834,3.834,0,0,1-3,1.2,3.863,3.863,0,0,1-3.023-1.2,4.465,4.465,0,0,1-1.078-3.109Zm2.641.164a3.5,3.5,0,0,0,.332,1.668,1.181,1.181,0,0,0,1.129.605,1.168,1.168,0,0,0,1.109-.609,3.465,3.465,0,0,0,.336-1.664V-4.3a3.478,3.478,0,0,0-.336-1.652A1.177,1.177,0,0,0,35.2-6.578a1.16,1.16,0,0,0-1.113.625A3.517,3.517,0,0,0,33.758-4.3Z" transform="translate(358 9341.889)" fill="#12263f"/>
      <path id="Trazado_883985" data-name="Trazado 883985" d="M-58.141,0h-1.547V-11.375h1.547Zm3.984-8.453.109,1.258a3.069,3.069,0,0,1,1.059-1.043,2.824,2.824,0,0,1,1.449-.371,2.759,2.759,0,0,1,2.117.8,3.515,3.515,0,0,1,.75,2.473V0h-1.539V-5.3a2.287,2.287,0,0,0-.441-1.586A1.768,1.768,0,0,0-52-7.359a2.386,2.386,0,0,0-1.207.285,2.072,2.072,0,0,0-.785.8V0h-1.539V-8.453Zm7.445,4.383a5.641,5.641,0,0,1,.871-3.289,2.8,2.8,0,0,1,2.434-1.25,2.966,2.966,0,0,1,1.414.324,2.845,2.845,0,0,1,1.023.934l.188-1.1h1.227v8.5a3.225,3.225,0,0,1-.945,2.5,3.884,3.884,0,0,1-2.727.871,5.716,5.716,0,0,1-1.316-.168,5.147,5.147,0,0,1-1.246-.457l.234-1.2a4.451,4.451,0,0,0,1.074.379,5.517,5.517,0,0,0,1.238.145,2.242,2.242,0,0,0,1.637-.512A2.12,2.12,0,0,0-41.094.047V-.914a2.725,2.725,0,0,1-.992.8,3.091,3.091,0,0,1-1.336.273A2.89,2.89,0,0,1-45.84-.957a4.674,4.674,0,0,1-.871-2.949Zm1.539.164a3.592,3.592,0,0,0,.523,2.047,1.817,1.817,0,0,0,1.617.773A2.034,2.034,0,0,0-41.867-1.4a2.4,2.4,0,0,0,.773-.895V-6.187a2.388,2.388,0,0,0-.773-.855,2.029,2.029,0,0,0-1.148-.316,1.752,1.752,0,0,0-1.629.914,4.718,4.718,0,0,0-.527,2.375Zm11.828-3.187-.789-.047a1.762,1.762,0,0,0-1.027.289,1.855,1.855,0,0,0-.645.813V0h-1.539V-8.453h1.375l.148,1.234a2.934,2.934,0,0,1,.887-1.023,2.073,2.073,0,0,1,1.215-.367,1.9,1.9,0,0,1,.328.027,2.175,2.175,0,0,1,.258.059ZM-28.391.164A3.576,3.576,0,0,1-31.23-1a4.48,4.48,0,0,1-1.02-3.062v-.344A4.386,4.386,0,0,1-31.2-7.418a3.3,3.3,0,0,1,2.566-1.191A3.067,3.067,0,0,1-26.09-7.555a4.345,4.345,0,0,1,.848,2.8v.813h-5.406l-.023.039a3.494,3.494,0,0,0,.563,2.066,1.965,1.965,0,0,0,1.719.793,3.872,3.872,0,0,0,1.371-.223,3.061,3.061,0,0,0,1.012-.613l.6,1a3.7,3.7,0,0,1-1.2.738A4.762,4.762,0,0,1-28.391.164ZM-28.633-7.4a1.673,1.673,0,0,0-1.332.621,2.938,2.938,0,0,0-.645,1.59l.016.039h3.813v-.125A2.462,2.462,0,0,0-27.234-6.8,1.638,1.638,0,0,0-28.633-7.4ZM-18.6-2.273a1.026,1.026,0,0,0-.387-.828,3.732,3.732,0,0,0-1.465-.562,6.146,6.146,0,0,1-2.293-.9,1.814,1.814,0,0,1-.8-1.547,2.229,2.229,0,0,1,.879-1.766,3.433,3.433,0,0,1,2.277-.734,3.4,3.4,0,0,1,2.328.781,2.239,2.239,0,0,1,.852,1.82l-.016.047H-18.7a1.331,1.331,0,0,0-.48-.992A1.717,1.717,0,0,0-20.391-7.4a1.751,1.751,0,0,0-1.215.367,1.146,1.146,0,0,0-.4.875.927.927,0,0,0,.348.773,3.848,3.848,0,0,0,1.434.5,6.058,6.058,0,0,1,2.359.93,1.872,1.872,0,0,1,.8,1.57,2.226,2.226,0,0,1-.91,1.836,3.754,3.754,0,0,1-2.379.711A3.715,3.715,0,0,1-22.9-.656a2.341,2.341,0,0,1-.883-1.914l.016-.047H-22.3a1.424,1.424,0,0,0,.609,1.2,2.358,2.358,0,0,0,1.336.379,2.1,2.1,0,0,0,1.285-.348A1.063,1.063,0,0,0-18.6-2.273ZM-9.953,0q-.078-.383-.121-.676a4.96,4.96,0,0,1-.051-.59,3.589,3.589,0,0,1-1.121,1.02,2.867,2.867,0,0,1-1.488.41,2.763,2.763,0,0,1-2.012-.676,2.486,2.486,0,0,1-.691-1.863,2.183,2.183,0,0,1,.98-1.895,4.579,4.579,0,0,1,2.66-.684h1.672v-.836a1.551,1.551,0,0,0-.453-1.176A1.779,1.779,0,0,0-11.859-7.4a1.859,1.859,0,0,0-1.211.375,1.125,1.125,0,0,0-.461.9l-1.461.016-.016-.047a2.023,2.023,0,0,1,.863-1.687,3.578,3.578,0,0,1,2.371-.766,3.49,3.49,0,0,1,2.313.73,2.588,2.588,0,0,1,.875,2.105V-1.7a7.923,7.923,0,0,0,.047.875A4.5,4.5,0,0,0-8.367,0Zm-2.555-1.125A2.739,2.739,0,0,0-11-1.555a2.042,2.042,0,0,0,.875-.984V-3.914h-1.727a2.24,2.24,0,0,0-1.488.469,1.4,1.4,0,0,0-.559,1.1,1.159,1.159,0,0,0,.352.891A1.472,1.472,0,0,0-12.508-1.125ZM-2.352-7.094l-.789-.047a1.762,1.762,0,0,0-1.027.289,1.854,1.854,0,0,0-.645.813V0H-6.352V-8.453h1.375l.148,1.234a2.934,2.934,0,0,1,.887-1.023,2.073,2.073,0,0,1,1.215-.367,1.9,1.9,0,0,1,.328.027,2.175,2.175,0,0,1,.258.059ZM4.6-8.453,4.711-7.2A3.069,3.069,0,0,1,5.77-8.238a2.824,2.824,0,0,1,1.449-.371,2.759,2.759,0,0,1,2.117.8,3.515,3.515,0,0,1,.75,2.473V0H8.547V-5.3a2.287,2.287,0,0,0-.441-1.586,1.768,1.768,0,0,0-1.348-.469,2.386,2.386,0,0,0-1.207.285,2.072,2.072,0,0,0-.785.8V0H3.227V-8.453Zm13.086,7.2A2.863,2.863,0,0,1,16.664-.2a2.8,2.8,0,0,1-1.445.367,2.716,2.716,0,0,1-2.156-.883,4.1,4.1,0,0,1-.773-2.75V-8.453h1.539v5a3.147,3.147,0,0,0,.4,1.859,1.481,1.481,0,0,0,1.242.508,2.531,2.531,0,0,0,1.355-.332,2.077,2.077,0,0,0,.809-.941V-8.453h1.539V0H17.789ZM16.477-11.875h1.8l.016.047L16.188-9.8H15.031Zm6.313,3.422L22.9-7.344a2.871,2.871,0,0,1,1.051-.934,3.158,3.158,0,0,1,1.48-.332,2.615,2.615,0,0,1,1.449.391,2.363,2.363,0,0,1,.91,1.172,3.162,3.162,0,0,1,1.059-1.145,2.769,2.769,0,0,1,1.527-.418,2.531,2.531,0,0,1,2.039.887,4.051,4.051,0,0,1,.75,2.668V0H31.625V-5.07a2.81,2.81,0,0,0-.43-1.77,1.567,1.567,0,0,0-1.281-.52,1.631,1.631,0,0,0-1.277.547,2.381,2.381,0,0,0-.574,1.383V0H26.516V-5.07a2.772,2.772,0,0,0-.441-1.738,1.532,1.532,0,0,0-1.27-.551,2.115,2.115,0,0,0-1.156.289,1.867,1.867,0,0,0-.7.813V0H21.414V-8.453ZM38.9.164A3.576,3.576,0,0,1,36.059-1a4.48,4.48,0,0,1-1.02-3.062v-.344A4.386,4.386,0,0,1,36.09-7.418a3.3,3.3,0,0,1,2.566-1.191A3.067,3.067,0,0,1,41.2-7.555a4.345,4.345,0,0,1,.848,2.8v.813H36.641l-.023.039a3.494,3.494,0,0,0,.563,2.066,1.965,1.965,0,0,0,1.719.793,3.872,3.872,0,0,0,1.371-.223,3.061,3.061,0,0,0,1.012-.613l.6,1a3.7,3.7,0,0,1-1.2.738A4.762,4.762,0,0,1,38.9.164ZM38.656-7.4a1.673,1.673,0,0,0-1.332.621,2.938,2.938,0,0,0-.645,1.59l.016.039h3.813v-.125A2.462,2.462,0,0,0,40.055-6.8,1.638,1.638,0,0,0,38.656-7.4Zm9.117.3-.789-.047a1.762,1.762,0,0,0-1.027.289,1.855,1.855,0,0,0-.645.813V0H43.773V-8.453h1.375L45.3-7.219a2.934,2.934,0,0,1,.887-1.023A2.073,2.073,0,0,1,47.4-8.609a1.9,1.9,0,0,1,.328.027,2.175,2.175,0,0,1,.258.059ZM48.859-4.3a4.654,4.654,0,0,1,1.016-3.09,3.406,3.406,0,0,1,2.758-1.215A3.439,3.439,0,0,1,55.41-7.4,4.639,4.639,0,0,1,56.43-4.3v.172a4.631,4.631,0,0,1-1.016,3.094,3.429,3.429,0,0,1-2.766,1.2,3.436,3.436,0,0,1-2.77-1.207,4.623,4.623,0,0,1-1.02-3.09Zm1.539.172a4.009,4.009,0,0,0,.566,2.219,1.875,1.875,0,0,0,1.684.875,1.87,1.87,0,0,0,1.672-.875,3.988,3.988,0,0,0,.57-2.219V-4.3a3.976,3.976,0,0,0-.574-2.211A1.882,1.882,0,0,0,52.633-7.4a1.856,1.856,0,0,0-1.668.883A4.018,4.018,0,0,0,50.4-4.3ZM-33.84,15.93a5.641,5.641,0,0,1,.871-3.289,2.807,2.807,0,0,1,2.441-1.25,3.027,3.027,0,0,1,1.316.273,2.7,2.7,0,0,1,.98.8V7.813h1.539V20h-1.18l-.234-1.07a2.743,2.743,0,0,1-1.023.922,3.058,3.058,0,0,1-1.414.313,2.9,2.9,0,0,1-2.422-1.121,4.659,4.659,0,0,1-.875-2.949Zm1.539.164a3.588,3.588,0,0,0,.523,2.051,1.828,1.828,0,0,0,1.625.77A2.039,2.039,0,0,0-29,18.6a2.334,2.334,0,0,0,.766-.875V13.781a2.37,2.37,0,0,0-.77-.832,2.033,2.033,0,0,0-1.137-.309,1.759,1.759,0,0,0-1.637.914A4.718,4.718,0,0,0-32.3,15.93Zm11.406,4.07A3.576,3.576,0,0,1-23.734,19a4.48,4.48,0,0,1-1.02-3.062v-.344A4.386,4.386,0,0,1-23.7,12.582a3.3,3.3,0,0,1,2.566-1.191,3.067,3.067,0,0,1,2.543,1.055,4.345,4.345,0,0,1,.848,2.8v.813h-5.406l-.023.039a3.494,3.494,0,0,0,.563,2.066,1.965,1.965,0,0,0,1.719.793,3.872,3.872,0,0,0,1.371-.223,3.061,3.061,0,0,0,1.012-.613l.6,1a3.7,3.7,0,0,1-1.2.738A4.762,4.762,0,0,1-20.895,20.164Zm-.242-7.562a1.673,1.673,0,0,0-1.332.621,2.938,2.938,0,0,0-.645,1.59l.016.039h3.813v-.125a2.462,2.462,0,0,0-.453-1.523A1.638,1.638,0,0,0-21.137,12.6Zm12.453,6.359a1.81,1.81,0,0,0,1.242-.473,1.494,1.494,0,0,0,.531-1.16H-5.52l.023.047a2.428,2.428,0,0,1-.937,1.941,3.313,3.313,0,0,1-2.25.848,3.319,3.319,0,0,1-2.75-1.211,4.674,4.674,0,0,1-.969-3.016v-.328a4.654,4.654,0,0,1,.973-3,3.317,3.317,0,0,1,2.746-1.215,3.189,3.189,0,0,1,2.316.875A2.775,2.775,0,0,1-5.5,14.414l-.016.047h-1.4a1.865,1.865,0,0,0-.5-1.316,1.658,1.658,0,0,0-1.27-.543,1.777,1.777,0,0,0-1.652.879,4.114,4.114,0,0,0-.52,2.129v.328a4.192,4.192,0,0,0,.512,2.148A1.776,1.776,0,0,0-8.684,18.961Zm8.516,1.2A3.576,3.576,0,0,1-3.008,19a4.48,4.48,0,0,1-1.02-3.062v-.344a4.386,4.386,0,0,1,1.051-3.012A3.3,3.3,0,0,1-.41,11.391a3.067,3.067,0,0,1,2.543,1.055,4.345,4.345,0,0,1,.848,2.8v.813H-2.426l-.023.039a3.494,3.494,0,0,0,.563,2.066,1.965,1.965,0,0,0,1.719.793A3.872,3.872,0,0,0,1.2,18.738a3.061,3.061,0,0,0,1.012-.613l.6,1a3.7,3.7,0,0,1-1.2.738A4.762,4.762,0,0,1-.168,20.164ZM-.41,12.6a1.673,1.673,0,0,0-1.332.621,2.938,2.938,0,0,0-.645,1.59l.016.039H1.441v-.125A2.462,2.462,0,0,0,.988,13.2,1.638,1.638,0,0,0-.41,12.6ZM.168,7.953h1.8L1.98,8l-2.1,2.031H-1.277ZM4.355,15.93a5.641,5.641,0,0,1,.871-3.289,2.807,2.807,0,0,1,2.441-1.25,3.027,3.027,0,0,1,1.316.273,2.7,2.7,0,0,1,.98.8V7.813H11.5V20h-1.18l-.234-1.07a2.743,2.743,0,0,1-1.023.922,3.058,3.058,0,0,1-1.414.313A2.9,2.9,0,0,1,5.23,19.043a4.659,4.659,0,0,1-.875-2.949Zm1.539.164a3.588,3.588,0,0,0,.523,2.051,1.828,1.828,0,0,0,1.625.77A2.039,2.039,0,0,0,9.2,18.6a2.334,2.334,0,0,0,.766-.875V13.781a2.37,2.37,0,0,0-.77-.832,2.033,2.033,0,0,0-1.137-.309,1.759,1.759,0,0,0-1.637.914,4.718,4.718,0,0,0-.527,2.375ZM19.168,18.75A2.863,2.863,0,0,1,18.145,19.8a2.8,2.8,0,0,1-1.445.367,2.716,2.716,0,0,1-2.156-.883,4.1,4.1,0,0,1-.773-2.75V11.547h1.539v5a3.147,3.147,0,0,0,.4,1.859,1.481,1.481,0,0,0,1.242.508,2.531,2.531,0,0,0,1.355-.332,2.077,2.077,0,0,0,.809-.941V11.547h1.539V20H19.27ZM24.559,20H23.02V7.813h1.539Zm7.563,0q-.078-.383-.121-.676a4.96,4.96,0,0,1-.051-.59,3.589,3.589,0,0,1-1.121,1.02,2.867,2.867,0,0,1-1.488.41,2.763,2.763,0,0,1-2.012-.676,2.486,2.486,0,0,1-.691-1.863,2.183,2.183,0,0,1,.98-1.895,4.579,4.579,0,0,1,2.66-.684h1.672v-.836a1.551,1.551,0,0,0-.453-1.176,1.779,1.779,0,0,0-1.281-.434A1.859,1.859,0,0,0,29,12.977a1.125,1.125,0,0,0-.461.9l-1.461.016-.016-.047a2.023,2.023,0,0,1,.863-1.687,3.578,3.578,0,0,1,2.371-.766,3.49,3.49,0,0,1,2.313.73,2.588,2.588,0,0,1,.875,2.105V18.3a7.923,7.923,0,0,0,.047.875,4.5,4.5,0,0,0,.172.828Zm-2.555-1.125a2.739,2.739,0,0,0,1.508-.43,2.042,2.042,0,0,0,.875-.984V16.086H30.223a2.24,2.24,0,0,0-1.488.469,1.4,1.4,0,0,0-.559,1.1,1.159,1.159,0,0,0,.352.891A1.472,1.472,0,0,0,29.566,18.875Z" transform="translate(378 9423.889)" fill="#12263f"/>
      <path id="Trazado_879037" data-name="Trazado 879037" d="M15,4.368,0,0,14.964,23.687,15,23.64l.037.048L30,0Z" transform="translate(363 9370.599)" fill="#3a1d71"/>
      <path id="Trazado_883986" data-name="Trazado 883986" d="M0,0H19.1V12.634H0Z" transform="translate(384.712 9356.26) rotate(90)" fill="#3a1d71"/>
      <path id="Trazado_883987" data-name="Trazado 883987" d="M0,230.638V8.5H26.525L24.05,0,47.737,14.963,47.689,15l.048.036L24.05,30l2.475-8.5H12.633V230.638Z" transform="translate(230.289 9413.876)" fill="#3a1d71"/>
      <path id="Trazado_883988" data-name="Trazado 883988" d="M109.066,12.477H156.8V25.11H109.066Z" transform="translate(387.092 9669.624) rotate(180)" fill="#3a1d71"/>
      <path id="Trazado_883989" data-name="Trazado 883989" d="M20.5,0h58a20.5,20.5,0,0,1,0,41h-58a20.5,20.5,0,0,1,0-41Z" transform="translate(538 9741.889)" fill="#f0d668"/>
      <path id="Trazado_883990" data-name="Trazado 883990" d="M4,0H180a4,4,0,0,1,4,4V50a4,4,0,0,1-4,4H4a4,4,0,0,1-4-4V4A4,4,0,0,1,4,0Z" transform="translate(286 9503.889)" fill="#f0d668"/>
      <path id="Trazado_883991" data-name="Trazado 883991" d="M10.391,0H7.758L3.594-7.156l-.047.016V0H.906V-11.375H3.547L7.711-4.227l.047-.016v-7.133h2.633ZM21.656-4.664A4.753,4.753,0,0,1,20.324-1.2,4.649,4.649,0,0,1,16.844.164,4.707,4.707,0,0,1,13.336-1.2a4.731,4.731,0,0,1-1.344-3.465V-6.711a4.741,4.741,0,0,1,1.34-3.461,4.677,4.677,0,0,1,3.5-1.367,4.671,4.671,0,0,1,3.484,1.367,4.734,4.734,0,0,1,1.344,3.461ZM19.023-6.727a3.29,3.29,0,0,0-.574-2,1.894,1.894,0,0,0-1.621-.781,1.9,1.9,0,0,0-1.637.777,3.319,3.319,0,0,0-.566,2v2.063A3.318,3.318,0,0,0,15.2-2.648a1.918,1.918,0,0,0,1.645.781,1.876,1.876,0,0,0,1.609-.781,3.334,3.334,0,0,0,.57-2.016Z" transform="translate(302.998 9657.436)" fill="#12263f"/>
      <path id="Trazado_883992" data-name="Trazado 883992" d="M6.773-3.016a1.134,1.134,0,0,0-.4-.934A5.168,5.168,0,0,0,4.93-4.641,10.971,10.971,0,0,1,1.785-6.105,2.637,2.637,0,0,1,.758-8.344a2.744,2.744,0,0,1,1.2-2.312,4.98,4.98,0,0,1,3.039-.883,5.014,5.014,0,0,1,3.133.91A2.951,2.951,0,0,1,9.273-8.062l-.016.047H6.7a1.435,1.435,0,0,0-.437-1.168,2.032,2.032,0,0,0-1.32-.363A1.7,1.7,0,0,0,3.8-9.2a1.094,1.094,0,0,0-.414.867.935.935,0,0,0,.426.8,8.313,8.313,0,0,0,1.59.754A8.472,8.472,0,0,1,8.4-5.344,2.845,2.845,0,0,1,9.414-3.031,2.736,2.736,0,0,1,8.242-.684,5.192,5.192,0,0,1,5.133.164a5.682,5.682,0,0,1-3.27-.91,3.133,3.133,0,0,1-1.3-2.863l.016-.047h2.57a1.77,1.77,0,0,0,.488,1.41,2.26,2.26,0,0,0,1.5.418,1.941,1.941,0,0,0,1.234-.328A1.052,1.052,0,0,0,6.773-3.016ZM13.648,0H11.016V-11.375h2.633Z" transform="translate(434 9657.436)" fill="#12263f"/>
      <path id="Trazado_883993" data-name="Trazado 883993" d="M7.664-5.031h-4.8V0H1.328V-11.375H8.461v1.211H2.867v3.922h4.8ZM11.609,0H10.07V-8.453h1.539Zm0-10.617H10.07v-1.57h1.539Zm3.742,2.164L15.461-7.2A3.069,3.069,0,0,1,16.52-8.238a2.824,2.824,0,0,1,1.449-.371,2.759,2.759,0,0,1,2.117.8,3.515,3.515,0,0,1,.75,2.473V0H19.3V-5.3a2.287,2.287,0,0,0-.441-1.586,1.768,1.768,0,0,0-1.348-.469,2.386,2.386,0,0,0-1.207.285,2.072,2.072,0,0,0-.785.8V0H13.977V-8.453Z" transform="translate(577 9768.889)" fill="#12263f"/>
      <path id="Trazado_883994" data-name="Trazado 883994" d="M-69.551-2.984l.258.945h.047l.258-.945,2.938-8.391h1.664L-68.613,0h-1.32L-74.16-11.375h1.672ZM-59.941.164A3.576,3.576,0,0,1-62.781-1,4.48,4.48,0,0,1-63.8-4.062v-.344A4.386,4.386,0,0,1-62.75-7.418a3.3,3.3,0,0,1,2.566-1.191,3.067,3.067,0,0,1,2.543,1.055,4.345,4.345,0,0,1,.848,2.8v.813H-62.2l-.023.039a3.494,3.494,0,0,0,.563,2.066,1.965,1.965,0,0,0,1.719.793,3.872,3.872,0,0,0,1.371-.223,3.061,3.061,0,0,0,1.012-.613l.6,1a3.7,3.7,0,0,1-1.2.738A4.762,4.762,0,0,1-59.941.164ZM-60.184-7.4a1.673,1.673,0,0,0-1.332.621,2.938,2.938,0,0,0-.645,1.59l.016.039h3.813v-.125A2.462,2.462,0,0,0-58.785-6.8,1.638,1.638,0,0,0-60.184-7.4Zm9.117.3-.789-.047a1.762,1.762,0,0,0-1.027.289,1.855,1.855,0,0,0-.645.813V0h-1.539V-8.453h1.375l.148,1.234a2.934,2.934,0,0,1,.887-1.023,2.073,2.073,0,0,1,1.215-.367,1.9,1.9,0,0,1,.328.027,2.175,2.175,0,0,1,.258.059ZM-47.8,0H-49.34V-8.453H-47.8Zm0-10.617H-49.34v-1.57H-47.8ZM-45,0V-7.312h-1.328V-8.453H-45v-.914a2.875,2.875,0,0,1,.832-2.2,3.24,3.24,0,0,1,2.309-.781,4.431,4.431,0,0,1,1.031.121q.508.121,1.2.355l-.266,1.25a7.011,7.011,0,0,0-.883-.281,3.947,3.947,0,0,0-.961-.117,1.8,1.8,0,0,0-1.316.406,1.713,1.713,0,0,0-.4,1.25v.914h1.68v1.141h-1.68V0Zm6.117,0h-1.547V-8.453h1.547Zm5.719-1.039a1.81,1.81,0,0,0,1.242-.473,1.494,1.494,0,0,0,.531-1.16H-30l.023.047a2.428,2.428,0,0,1-.937,1.941,3.313,3.313,0,0,1-2.25.848,3.319,3.319,0,0,1-2.75-1.211,4.674,4.674,0,0,1-.969-3.016v-.328a4.654,4.654,0,0,1,.973-3,3.317,3.317,0,0,1,2.746-1.215,3.189,3.189,0,0,1,2.316.875,2.775,2.775,0,0,1,.871,2.148L-30-5.539h-1.4a1.865,1.865,0,0,0-.5-1.316,1.658,1.658,0,0,0-1.27-.543,1.777,1.777,0,0,0-1.652.879,4.114,4.114,0,0,0-.52,2.129v.328a4.192,4.192,0,0,0,.512,2.148A1.776,1.776,0,0,0-33.168-1.039ZM-22.957,0q-.078-.383-.121-.676a4.96,4.96,0,0,1-.051-.59A3.589,3.589,0,0,1-24.25-.246a2.867,2.867,0,0,1-1.488.41A2.763,2.763,0,0,1-27.75-.512a2.486,2.486,0,0,1-.691-1.863,2.183,2.183,0,0,1,.98-1.895,4.579,4.579,0,0,1,2.66-.684h1.672v-.836a1.551,1.551,0,0,0-.453-1.176A1.779,1.779,0,0,0-24.863-7.4a1.859,1.859,0,0,0-1.211.375,1.125,1.125,0,0,0-.461.9L-28-6.109l-.016-.047a2.023,2.023,0,0,1,.863-1.687,3.578,3.578,0,0,1,2.371-.766,3.49,3.49,0,0,1,2.313.73,2.588,2.588,0,0,1,.875,2.105V-1.7a7.923,7.923,0,0,0,.047.875A4.5,4.5,0,0,0-21.371,0Zm-2.555-1.125A2.739,2.739,0,0,0-24-1.555a2.042,2.042,0,0,0,.875-.984V-3.914h-1.727a2.24,2.24,0,0,0-1.488.469,1.4,1.4,0,0,0-.559,1.1,1.159,1.159,0,0,0,.352.891A1.472,1.472,0,0,0-25.512-1.125Zm10.156-5.969-.789-.047a1.762,1.762,0,0,0-1.027.289,1.854,1.854,0,0,0-.645.813V0h-1.539V-8.453h1.375l.148,1.234a2.934,2.934,0,0,1,.887-1.023,2.073,2.073,0,0,1,1.215-.367,1.9,1.9,0,0,1,.328.027,2.175,2.175,0,0,1,.258.059ZM-6.277.164A3.576,3.576,0,0,1-9.117-1a4.48,4.48,0,0,1-1.02-3.062v-.344A4.386,4.386,0,0,1-9.086-7.418,3.3,3.3,0,0,1-6.52-8.609,3.067,3.067,0,0,1-3.977-7.555a4.345,4.345,0,0,1,.848,2.8v.813H-8.535l-.023.039A3.494,3.494,0,0,0-8-1.832a1.965,1.965,0,0,0,1.719.793,3.872,3.872,0,0,0,1.371-.223,3.061,3.061,0,0,0,1.012-.613l.6,1a3.7,3.7,0,0,1-1.2.738A4.762,4.762,0,0,1-6.277.164ZM-6.52-7.4a1.673,1.673,0,0,0-1.332.621A2.938,2.938,0,0,0-8.5-5.187l.016.039h3.813v-.125A2.462,2.462,0,0,0-5.121-6.8,1.638,1.638,0,0,0-6.52-7.4ZM1.465-5.336l1.8-3.117h1.8L2.316-4.273,5.137,0H3.371L1.5-3.2-.379,0H-2.16L.66-4.273l-2.742-4.18H-.309ZM8.309,0H6.77V-8.453H8.309Zm0-10.617H6.77v-1.57H8.309ZM15.59-2.273A1.026,1.026,0,0,0,15.2-3.1a3.732,3.732,0,0,0-1.465-.562,6.146,6.146,0,0,1-2.293-.9,1.814,1.814,0,0,1-.8-1.547,2.229,2.229,0,0,1,.879-1.766A3.433,3.433,0,0,1,13.8-8.609a3.4,3.4,0,0,1,2.328.781,2.239,2.239,0,0,1,.852,1.82l-.016.047H15.5a1.331,1.331,0,0,0-.48-.992A1.717,1.717,0,0,0,13.8-7.4a1.751,1.751,0,0,0-1.215.367,1.146,1.146,0,0,0-.4.875.927.927,0,0,0,.348.773,3.848,3.848,0,0,0,1.434.5,6.058,6.058,0,0,1,2.359.93,1.872,1.872,0,0,1,.8,1.57,2.226,2.226,0,0,1-.91,1.836A3.754,3.754,0,0,1,13.84.164a3.715,3.715,0,0,1-2.547-.82A2.341,2.341,0,0,1,10.41-2.57l.016-.047h1.469a1.424,1.424,0,0,0,.609,1.2,2.358,2.358,0,0,0,1.336.379,2.1,2.1,0,0,0,1.285-.348A1.063,1.063,0,0,0,15.59-2.273Zm5.594-8.219v2.039h1.6v1.141h-1.6V-2.18a1.149,1.149,0,0,0,.246.836.89.89,0,0,0,.652.242,1.429,1.429,0,0,0,.3-.035,2.2,2.2,0,0,0,.273-.074l.211,1.055a1.36,1.36,0,0,1-.508.23,2.562,2.562,0,0,1-.664.09A1.993,1.993,0,0,1,20.2-.4a2.46,2.46,0,0,1-.555-1.777V-7.312H18.3V-8.453h1.344v-2.039ZM27.934.164A3.576,3.576,0,0,1,25.094-1a4.48,4.48,0,0,1-1.02-3.062v-.344a4.386,4.386,0,0,1,1.051-3.012,3.3,3.3,0,0,1,2.566-1.191,3.067,3.067,0,0,1,2.543,1.055,4.345,4.345,0,0,1,.848,2.8v.813H25.676l-.023.039a3.494,3.494,0,0,0,.563,2.066,1.965,1.965,0,0,0,1.719.793A3.872,3.872,0,0,0,29.3-1.262a3.061,3.061,0,0,0,1.012-.613l.6,1a3.7,3.7,0,0,1-1.2.738A4.762,4.762,0,0,1,27.934.164ZM27.691-7.4a1.673,1.673,0,0,0-1.332.621,2.938,2.938,0,0,0-.645,1.59l.016.039h3.813v-.125A2.462,2.462,0,0,0,29.09-6.8,1.638,1.638,0,0,0,27.691-7.4Zm6.492-1.055L34.293-7.2a3.069,3.069,0,0,1,1.059-1.043A2.824,2.824,0,0,1,36.8-8.609a2.759,2.759,0,0,1,2.117.8,3.515,3.515,0,0,1,.75,2.473V0H38.129V-5.3a2.287,2.287,0,0,0-.441-1.586,1.768,1.768,0,0,0-1.348-.469,2.386,2.386,0,0,0-1.207.285,2.072,2.072,0,0,0-.785.8V0H32.809V-8.453ZM45.262-1.039A1.81,1.81,0,0,0,46.5-1.512a1.494,1.494,0,0,0,.531-1.16h1.391l.023.047a2.428,2.428,0,0,1-.937,1.941,3.312,3.312,0,0,1-2.25.848,3.319,3.319,0,0,1-2.75-1.211,4.674,4.674,0,0,1-.969-3.016v-.328a4.654,4.654,0,0,1,.973-3,3.317,3.317,0,0,1,2.746-1.215,3.189,3.189,0,0,1,2.316.875,2.775,2.775,0,0,1,.871,2.148l-.016.047h-1.4a1.865,1.865,0,0,0-.5-1.316,1.658,1.658,0,0,0-1.27-.543,1.777,1.777,0,0,0-1.652.879,4.114,4.114,0,0,0-.52,2.129v.328A4.192,4.192,0,0,0,43.6-1.914,1.776,1.776,0,0,0,45.262-1.039ZM51.941,0H50.4V-8.453h1.539Zm0-10.617H50.4v-1.57h1.539ZM59.5,0q-.078-.383-.121-.676a4.96,4.96,0,0,1-.051-.59,3.589,3.589,0,0,1-1.121,1.02,2.867,2.867,0,0,1-1.488.41,2.763,2.763,0,0,1-2.012-.676,2.486,2.486,0,0,1-.691-1.863A2.183,2.183,0,0,1,55-4.27a4.579,4.579,0,0,1,2.66-.684h1.672v-.836a1.551,1.551,0,0,0-.453-1.176A1.779,1.779,0,0,0,57.6-7.4a1.859,1.859,0,0,0-1.211.375,1.125,1.125,0,0,0-.461.9l-1.461.016-.016-.047a2.023,2.023,0,0,1,.863-1.687,3.578,3.578,0,0,1,2.371-.766A3.49,3.49,0,0,1,60-7.879a2.588,2.588,0,0,1,.875,2.105V-1.7a7.923,7.923,0,0,0,.047.875A4.5,4.5,0,0,0,61.09,0ZM56.949-1.125a2.739,2.739,0,0,0,1.508-.43,2.042,2.042,0,0,0,.875-.984V-3.914H57.605a2.24,2.24,0,0,0-1.488.469,1.4,1.4,0,0,0-.559,1.1,1.159,1.159,0,0,0,.352.891A1.472,1.472,0,0,0,56.949-1.125ZM68.02-2.273a1.026,1.026,0,0,0-.387-.828,3.732,3.732,0,0,0-1.465-.562,6.146,6.146,0,0,1-2.293-.9,1.814,1.814,0,0,1-.8-1.547,2.229,2.229,0,0,1,.879-1.766,3.433,3.433,0,0,1,2.277-.734,3.4,3.4,0,0,1,2.328.781,2.239,2.239,0,0,1,.852,1.82l-.016.047H67.926a1.331,1.331,0,0,0-.48-.992A1.717,1.717,0,0,0,66.23-7.4a1.751,1.751,0,0,0-1.215.367,1.146,1.146,0,0,0-.4.875.927.927,0,0,0,.348.773,3.848,3.848,0,0,0,1.434.5,6.058,6.058,0,0,1,2.359.93,1.872,1.872,0,0,1,.8,1.57,2.226,2.226,0,0,1-.91,1.836A3.754,3.754,0,0,1,66.27.164a3.715,3.715,0,0,1-2.547-.82A2.341,2.341,0,0,1,62.84-2.57l.016-.047h1.469a1.424,1.424,0,0,0,.609,1.2,2.358,2.358,0,0,0,1.336.379,2.1,2.1,0,0,0,1.285-.348A1.063,1.063,0,0,0,68.02-2.273ZM-74.094,15.93a5.641,5.641,0,0,1,.871-3.289,2.807,2.807,0,0,1,2.441-1.25,3.027,3.027,0,0,1,1.316.273,2.7,2.7,0,0,1,.98.8V7.813h1.539V20h-1.18l-.234-1.07a2.743,2.743,0,0,1-1.023.922,3.058,3.058,0,0,1-1.414.313,2.9,2.9,0,0,1-2.422-1.121,4.659,4.659,0,0,1-.875-2.949Zm1.539.164a3.588,3.588,0,0,0,.523,2.051,1.828,1.828,0,0,0,1.625.77A2.039,2.039,0,0,0-69.25,18.6a2.334,2.334,0,0,0,.766-.875V13.781a2.37,2.37,0,0,0-.77-.832,2.033,2.033,0,0,0-1.137-.309,1.759,1.759,0,0,0-1.637.914,4.718,4.718,0,0,0-.527,2.375Zm11.406,4.07A3.576,3.576,0,0,1-63.988,19a4.48,4.48,0,0,1-1.02-3.062v-.344a4.386,4.386,0,0,1,1.051-3.012,3.3,3.3,0,0,1,2.566-1.191,3.067,3.067,0,0,1,2.543,1.055A4.345,4.345,0,0,1-58,15.25v.813h-5.406l-.023.039a3.494,3.494,0,0,0,.563,2.066,1.965,1.965,0,0,0,1.719.793,3.872,3.872,0,0,0,1.371-.223,3.061,3.061,0,0,0,1.012-.613l.6,1a3.7,3.7,0,0,1-1.2.738A4.762,4.762,0,0,1-61.148,20.164Zm-.242-7.562a1.673,1.673,0,0,0-1.332.621,2.938,2.938,0,0,0-.645,1.59l.016.039h3.813v-.125a2.462,2.462,0,0,0-.453-1.523A1.638,1.638,0,0,0-61.391,12.6Zm10.469-1.055.109,1.258a3.069,3.069,0,0,1,1.059-1.043,2.824,2.824,0,0,1,1.449-.371,2.759,2.759,0,0,1,2.117.8,3.515,3.515,0,0,1,.75,2.473V20h-1.539V14.7a2.287,2.287,0,0,0-.441-1.586,1.768,1.768,0,0,0-1.348-.469,2.386,2.386,0,0,0-1.207.285,2.072,2.072,0,0,0-.785.8V20H-52.3V11.547Zm13.086,7.2A2.863,2.863,0,0,1-38.859,19.8a2.8,2.8,0,0,1-1.445.367,2.716,2.716,0,0,1-2.156-.883,4.1,4.1,0,0,1-.773-2.75V11.547H-41.7v5a3.147,3.147,0,0,0,.4,1.859,1.481,1.481,0,0,0,1.242.508,2.531,2.531,0,0,0,1.355-.332,2.077,2.077,0,0,0,.809-.941V11.547h1.539V20h-1.383ZM-39.047,8.125h1.8l.016.047-2.1,2.031h-1.156Zm6.313,3.422.109,1.109a2.871,2.871,0,0,1,1.051-.934,3.158,3.158,0,0,1,1.48-.332,2.615,2.615,0,0,1,1.449.391,2.363,2.363,0,0,1,.91,1.172,3.162,3.162,0,0,1,1.059-1.145,2.769,2.769,0,0,1,1.527-.418,2.531,2.531,0,0,1,2.039.887,4.051,4.051,0,0,1,.75,2.668V20H-23.9V14.93a2.81,2.81,0,0,0-.43-1.77,1.567,1.567,0,0,0-1.281-.52,1.631,1.631,0,0,0-1.277.547,2.381,2.381,0,0,0-.574,1.383V20h-1.547V14.93a2.772,2.772,0,0,0-.441-1.738,1.532,1.532,0,0,0-1.27-.551,2.115,2.115,0,0,0-1.156.289,1.867,1.867,0,0,0-.7.813V20h-1.539V11.547Zm16.109,8.617A3.576,3.576,0,0,1-19.465,19a4.48,4.48,0,0,1-1.02-3.062v-.344a4.386,4.386,0,0,1,1.051-3.012,3.3,3.3,0,0,1,2.566-1.191,3.067,3.067,0,0,1,2.543,1.055,4.345,4.345,0,0,1,.848,2.8v.813h-5.406l-.023.039a3.494,3.494,0,0,0,.563,2.066,1.965,1.965,0,0,0,1.719.793,3.872,3.872,0,0,0,1.371-.223,3.061,3.061,0,0,0,1.012-.613l.6,1a3.7,3.7,0,0,1-1.2.738A4.762,4.762,0,0,1-16.625,20.164Zm-.242-7.562a1.673,1.673,0,0,0-1.332.621,2.938,2.938,0,0,0-.645,1.59l.016.039h3.813v-.125a2.462,2.462,0,0,0-.453-1.523A1.638,1.638,0,0,0-16.867,12.6Zm9.117.3-.789-.047a1.762,1.762,0,0,0-1.027.289,1.854,1.854,0,0,0-.645.813V20H-11.75V11.547h1.375l.148,1.234a2.934,2.934,0,0,1,.887-1.023,2.073,2.073,0,0,1,1.215-.367,1.9,1.9,0,0,1,.328.027,2.175,2.175,0,0,1,.258.059ZM-6.664,15.7a4.654,4.654,0,0,1,1.016-3.09,3.406,3.406,0,0,1,2.758-1.215A3.439,3.439,0,0,1-.113,12.6,4.639,4.639,0,0,1,.906,15.7v.172A4.631,4.631,0,0,1-.109,18.961a3.429,3.429,0,0,1-2.766,1.2,3.436,3.436,0,0,1-2.77-1.207,4.623,4.623,0,0,1-1.02-3.09Zm1.539.172a4.009,4.009,0,0,0,.566,2.219,1.875,1.875,0,0,0,1.684.875A1.87,1.87,0,0,0-1.2,18.086a3.988,3.988,0,0,0,.57-2.219V15.7a3.976,3.976,0,0,0-.574-2.211A1.882,1.882,0,0,0-2.891,12.6a1.856,1.856,0,0,0-1.668.883A4.018,4.018,0,0,0-5.125,15.7Zm11.539.063a5.641,5.641,0,0,1,.871-3.289,2.807,2.807,0,0,1,2.441-1.25,3.027,3.027,0,0,1,1.316.273,2.7,2.7,0,0,1,.98.8V7.813h1.539V20h-1.18l-.234-1.07a2.743,2.743,0,0,1-1.023.922,3.058,3.058,0,0,1-1.414.313,2.9,2.9,0,0,1-2.422-1.121,4.659,4.659,0,0,1-.875-2.949Zm1.539.164a3.588,3.588,0,0,0,.523,2.051,1.828,1.828,0,0,0,1.625.77,2.039,2.039,0,0,0,1.156-.312,2.334,2.334,0,0,0,.766-.875V13.781a2.37,2.37,0,0,0-.77-.832,2.033,2.033,0,0,0-1.137-.309,1.759,1.759,0,0,0-1.637.914,4.718,4.718,0,0,0-.527,2.375Zm11.406,4.07A3.576,3.576,0,0,1,16.52,19a4.48,4.48,0,0,1-1.02-3.062v-.344a4.386,4.386,0,0,1,1.051-3.012,3.3,3.3,0,0,1,2.566-1.191,3.067,3.067,0,0,1,2.543,1.055,4.345,4.345,0,0,1,.848,2.8v.813H17.1l-.023.039a3.494,3.494,0,0,0,.563,2.066,1.965,1.965,0,0,0,1.719.793,3.872,3.872,0,0,0,1.371-.223,3.061,3.061,0,0,0,1.012-.613l.6,1a3.7,3.7,0,0,1-1.2.738A4.762,4.762,0,0,1,19.359,20.164ZM19.117,12.6a1.673,1.673,0,0,0-1.332.621,2.938,2.938,0,0,0-.645,1.59l.016.039h3.813v-.125a2.462,2.462,0,0,0-.453-1.523A1.638,1.638,0,0,0,19.117,12.6ZM31.57,18.961a1.81,1.81,0,0,0,1.242-.473,1.494,1.494,0,0,0,.531-1.16h1.391l.023.047a2.428,2.428,0,0,1-.937,1.941,3.582,3.582,0,0,1-5-.363,4.674,4.674,0,0,1-.969-3.016v-.328a4.654,4.654,0,0,1,.973-3,3.317,3.317,0,0,1,2.746-1.215,3.189,3.189,0,0,1,2.316.875,2.775,2.775,0,0,1,.871,2.148l-.016.047h-1.4a1.865,1.865,0,0,0-.5-1.316,1.658,1.658,0,0,0-1.27-.543,1.777,1.777,0,0,0-1.652.879,4.114,4.114,0,0,0-.52,2.129v.328a4.192,4.192,0,0,0,.512,2.148A1.776,1.776,0,0,0,31.57,18.961Zm8.516,1.2A3.576,3.576,0,0,1,37.246,19a4.48,4.48,0,0,1-1.02-3.062v-.344a4.386,4.386,0,0,1,1.051-3.012,3.3,3.3,0,0,1,2.566-1.191,3.067,3.067,0,0,1,2.543,1.055,4.345,4.345,0,0,1,.848,2.8v.813H37.828L37.8,16.1a3.494,3.494,0,0,0,.563,2.066,1.965,1.965,0,0,0,1.719.793,3.872,3.872,0,0,0,1.371-.223,3.061,3.061,0,0,0,1.012-.613l.6,1a3.7,3.7,0,0,1-1.2.738A4.762,4.762,0,0,1,40.086,20.164ZM39.844,12.6a1.673,1.673,0,0,0-1.332.621,2.938,2.938,0,0,0-.645,1.59l.016.039H41.7v-.125a2.462,2.462,0,0,0-.453-1.523A1.638,1.638,0,0,0,39.844,12.6Zm.578-4.648h1.8L42.234,8l-2.1,2.031H38.977Zm4.188,7.977a5.641,5.641,0,0,1,.871-3.289,2.807,2.807,0,0,1,2.441-1.25,3.027,3.027,0,0,1,1.316.273,2.7,2.7,0,0,1,.98.8V7.813h1.539V20h-1.18l-.234-1.07a2.743,2.743,0,0,1-1.023.922,3.058,3.058,0,0,1-1.414.313,2.9,2.9,0,0,1-2.422-1.121,4.659,4.659,0,0,1-.875-2.949Zm1.539.164a3.588,3.588,0,0,0,.523,2.051,1.828,1.828,0,0,0,1.625.77,2.039,2.039,0,0,0,1.156-.312,2.334,2.334,0,0,0,.766-.875V13.781a2.37,2.37,0,0,0-.77-.832,2.033,2.033,0,0,0-1.137-.309,1.759,1.759,0,0,0-1.637.914,4.718,4.718,0,0,0-.527,2.375ZM59.422,18.75A2.863,2.863,0,0,1,58.4,19.8a2.8,2.8,0,0,1-1.445.367,2.716,2.716,0,0,1-2.156-.883,4.1,4.1,0,0,1-.773-2.75V11.547h1.539v5a3.147,3.147,0,0,0,.4,1.859,1.481,1.481,0,0,0,1.242.508,2.531,2.531,0,0,0,1.355-.332,2.077,2.077,0,0,0,.809-.941V11.547h1.539V20H59.523ZM64.813,20H63.273V7.813h1.539Zm7.563,0q-.078-.383-.121-.676a4.96,4.96,0,0,1-.051-.59,3.589,3.589,0,0,1-1.121,1.02,2.867,2.867,0,0,1-1.488.41,2.763,2.763,0,0,1-2.012-.676,2.486,2.486,0,0,1-.691-1.863,2.183,2.183,0,0,1,.98-1.895,4.579,4.579,0,0,1,2.66-.684H72.2v-.836a1.551,1.551,0,0,0-.453-1.176,1.779,1.779,0,0,0-1.281-.434,1.859,1.859,0,0,0-1.211.375,1.125,1.125,0,0,0-.461.9l-1.461.016-.016-.047a2.023,2.023,0,0,1,.863-1.687,3.578,3.578,0,0,1,2.371-.766,3.49,3.49,0,0,1,2.313.73,2.588,2.588,0,0,1,.875,2.105V18.3a7.923,7.923,0,0,0,.047.875,4.5,4.5,0,0,0,.172.828ZM69.82,18.875a2.739,2.739,0,0,0,1.508-.43,2.042,2.042,0,0,0,.875-.984V16.086H70.477a2.24,2.24,0,0,0-1.488.469,1.4,1.4,0,0,0-.559,1.1,1.159,1.159,0,0,0,.352.891A1.472,1.472,0,0,0,69.82,18.875Z" transform="translate(378 9527.889)" fill="#12263f"/>
      <path id="Trazado_883995" data-name="Trazado 883995" d="M0,0H46V46H0Z" transform="translate(346.973 9650.436) rotate(-45)" fill="#3a1d71"/>
      <path id="Trazado_879032" data-name="Trazado 879032" d="M0,0H147V45.935a258.445,258.445,0,0,0-39.588,4.784c-22,4.362-21.559,8.5-48.412,11.663s-59,0-59,0Z" transform="translate(516 9622.436)" fill="#f0d668"/>
      <path id="Trazado_883996" data-name="Trazado 883996" d="M-42.328,0V-11.375h3.578A4.812,4.812,0,0,1-35.168-10a4.824,4.824,0,0,1,1.355,3.543v1.555a4.808,4.808,0,0,1-1.355,3.543A4.827,4.827,0,0,1-38.75,0Zm1.539-10.164V-1.2h2.039a3.137,3.137,0,0,0,2.488-1.039,3.9,3.9,0,0,0,.91-2.664v-1.57a3.873,3.873,0,0,0-.91-2.648,3.137,3.137,0,0,0-2.488-1.039ZM-32.062-4.3a4.654,4.654,0,0,1,1.016-3.09,3.406,3.406,0,0,1,2.758-1.215A3.439,3.439,0,0,1-25.512-7.4,4.639,4.639,0,0,1-24.492-4.3v.172a4.631,4.631,0,0,1-1.016,3.094,3.429,3.429,0,0,1-2.766,1.2,3.436,3.436,0,0,1-2.77-1.207,4.623,4.623,0,0,1-1.02-3.09Zm1.539.172a4.009,4.009,0,0,0,.566,2.219,1.875,1.875,0,0,0,1.684.875A1.87,1.87,0,0,0-26.6-1.914a3.988,3.988,0,0,0,.57-2.219V-4.3a3.976,3.976,0,0,0-.574-2.211A1.882,1.882,0,0,0-28.289-7.4a1.856,1.856,0,0,0-1.668.883A4.018,4.018,0,0,0-30.523-4.3ZM-19.25-1.039a1.81,1.81,0,0,0,1.242-.473,1.494,1.494,0,0,0,.531-1.16h1.391l.023.047A2.428,2.428,0,0,1-17-.684a3.313,3.313,0,0,1-2.25.848A3.319,3.319,0,0,1-22-1.047a4.674,4.674,0,0,1-.969-3.016v-.328a4.654,4.654,0,0,1,.973-3A3.317,3.317,0,0,1-19.25-8.609a3.189,3.189,0,0,1,2.316.875,2.775,2.775,0,0,1,.871,2.148l-.016.047h-1.4a1.865,1.865,0,0,0-.5-1.316A1.658,1.658,0,0,0-19.25-7.4,1.777,1.777,0,0,0-20.9-6.52a4.114,4.114,0,0,0-.52,2.129v.328a4.192,4.192,0,0,0,.512,2.148A1.776,1.776,0,0,0-19.25-1.039ZM-8.867-1.25A2.863,2.863,0,0,1-9.891-.2a2.8,2.8,0,0,1-1.445.367,2.716,2.716,0,0,1-2.156-.883,4.1,4.1,0,0,1-.773-2.75V-8.453h1.539v5a3.147,3.147,0,0,0,.4,1.859,1.481,1.481,0,0,0,1.242.508A2.531,2.531,0,0,0-9.73-1.418a2.077,2.077,0,0,0,.809-.941V-8.453h1.539V0H-8.766Zm5.1-7.2.109,1.109a2.871,2.871,0,0,1,1.051-.934,3.158,3.158,0,0,1,1.48-.332,2.615,2.615,0,0,1,1.449.391,2.363,2.363,0,0,1,.91,1.172A3.162,3.162,0,0,1,2.293-8.191,2.769,2.769,0,0,1,3.82-8.609a2.531,2.531,0,0,1,2.039.887,4.051,4.051,0,0,1,.75,2.668V0H5.07V-5.07a2.81,2.81,0,0,0-.43-1.77,1.567,1.567,0,0,0-1.281-.52,1.631,1.631,0,0,0-1.277.547A2.381,2.381,0,0,0,1.508-5.43V0H-.039V-5.07A2.772,2.772,0,0,0-.48-6.809a1.532,1.532,0,0,0-1.27-.551,2.115,2.115,0,0,0-1.156.289,1.867,1.867,0,0,0-.7.813V0H-5.141V-8.453ZM12.344.164A3.576,3.576,0,0,1,9.5-1a4.48,4.48,0,0,1-1.02-3.062v-.344A4.386,4.386,0,0,1,9.535-7.418,3.3,3.3,0,0,1,12.1-8.609a3.067,3.067,0,0,1,2.543,1.055,4.345,4.345,0,0,1,.848,2.8v.813H10.086l-.023.039a3.494,3.494,0,0,0,.563,2.066,1.965,1.965,0,0,0,1.719.793,3.872,3.872,0,0,0,1.371-.223,3.061,3.061,0,0,0,1.012-.613l.6,1a3.7,3.7,0,0,1-1.2.738A4.762,4.762,0,0,1,12.344.164ZM12.1-7.4a1.673,1.673,0,0,0-1.332.621,2.938,2.938,0,0,0-.645,1.59l.016.039h3.813v-.125A2.462,2.462,0,0,0,13.5-6.8,1.638,1.638,0,0,0,12.1-7.4Zm6.492-1.055L18.7-7.2a3.069,3.069,0,0,1,1.059-1.043,2.824,2.824,0,0,1,1.449-.371,2.759,2.759,0,0,1,2.117.8,3.515,3.515,0,0,1,.75,2.473V0H22.539V-5.3A2.287,2.287,0,0,0,22.1-6.891a1.768,1.768,0,0,0-1.348-.469,2.386,2.386,0,0,0-1.207.285,2.072,2.072,0,0,0-.785.8V0H17.219V-8.453Zm9.859-2.039v2.039h1.6v1.141h-1.6V-2.18a1.149,1.149,0,0,0,.246.836.89.89,0,0,0,.652.242,1.429,1.429,0,0,0,.3-.035,2.2,2.2,0,0,0,.273-.074l.211,1.055a1.36,1.36,0,0,1-.508.23,2.562,2.562,0,0,1-.664.09A1.993,1.993,0,0,1,27.469-.4a2.46,2.46,0,0,1-.555-1.777V-7.312H25.57V-8.453h1.344v-2.039ZM31.344-4.3a4.654,4.654,0,0,1,1.016-3.09,3.406,3.406,0,0,1,2.758-1.215A3.439,3.439,0,0,1,37.895-7.4,4.639,4.639,0,0,1,38.914-4.3v.172A4.631,4.631,0,0,1,37.9-1.039a3.429,3.429,0,0,1-2.766,1.2,3.436,3.436,0,0,1-2.77-1.207,4.623,4.623,0,0,1-1.02-3.09Zm1.539.172a4.009,4.009,0,0,0,.566,2.219,1.875,1.875,0,0,0,1.684.875A1.87,1.87,0,0,0,36.8-1.914a3.988,3.988,0,0,0,.57-2.219V-4.3A3.976,3.976,0,0,0,36.8-6.516,1.882,1.882,0,0,0,35.117-7.4a1.856,1.856,0,0,0-1.668.883A4.018,4.018,0,0,0,32.883-4.3ZM-17.551,17.508l.133.594h.047l.148-.594,1.945-5.961h1.57L-16.816,20H-17.98l-3.148-8.453h1.578ZM-7.246,20q-.078-.383-.121-.676a4.96,4.96,0,0,1-.051-.59,3.589,3.589,0,0,1-1.121,1.02,2.867,2.867,0,0,1-1.488.41,2.763,2.763,0,0,1-2.012-.676,2.486,2.486,0,0,1-.691-1.863,2.183,2.183,0,0,1,.98-1.895,4.579,4.579,0,0,1,2.66-.684h1.672v-.836a1.551,1.551,0,0,0-.453-1.176A1.779,1.779,0,0,0-9.152,12.6a1.859,1.859,0,0,0-1.211.375,1.125,1.125,0,0,0-.461.9l-1.461.016-.016-.047a2.023,2.023,0,0,1,.863-1.687,3.578,3.578,0,0,1,2.371-.766,3.49,3.49,0,0,1,2.313.73,2.588,2.588,0,0,1,.875,2.105V18.3a7.923,7.923,0,0,0,.047.875A4.5,4.5,0,0,0-5.66,20ZM-9.8,18.875a2.739,2.739,0,0,0,1.508-.43,2.042,2.042,0,0,0,.875-.984V16.086H-9.145a2.24,2.24,0,0,0-1.488.469,1.4,1.4,0,0,0-.559,1.1,1.159,1.159,0,0,0,.352.891A1.472,1.472,0,0,0-9.8,18.875ZM-8.48,7.961h1.8l.016.047-2.1,2.031H-9.926ZM-1.98,20H-3.52V7.813H-1.98Zm4.031,0H.512V11.547H2.051Zm0-10.617H.512V7.813H2.051ZM4.066,15.93a5.641,5.641,0,0,1,.871-3.289,2.807,2.807,0,0,1,2.441-1.25,3.027,3.027,0,0,1,1.316.273,2.7,2.7,0,0,1,.98.8V7.813h1.539V20h-1.18L9.8,18.93a2.743,2.743,0,0,1-1.023.922,3.058,3.058,0,0,1-1.414.313,2.9,2.9,0,0,1-2.422-1.121,4.659,4.659,0,0,1-.875-2.949Zm1.539.164a3.588,3.588,0,0,0,.523,2.051,1.828,1.828,0,0,0,1.625.77A2.039,2.039,0,0,0,8.91,18.6a2.334,2.334,0,0,0,.766-.875V13.781a2.37,2.37,0,0,0-.77-.832,2.033,2.033,0,0,0-1.137-.309,1.759,1.759,0,0,0-1.637.914,4.718,4.718,0,0,0-.527,2.375Zm7.547-.4a4.654,4.654,0,0,1,1.016-3.09,3.406,3.406,0,0,1,2.758-1.215A3.439,3.439,0,0,1,19.7,12.6a4.639,4.639,0,0,1,1.02,3.094v.172a4.631,4.631,0,0,1-1.016,3.094,3.429,3.429,0,0,1-2.766,1.2,3.436,3.436,0,0,1-2.77-1.207,4.623,4.623,0,0,1-1.02-3.09Zm1.539.172a4.009,4.009,0,0,0,.566,2.219,1.875,1.875,0,0,0,1.684.875,1.87,1.87,0,0,0,1.672-.875,3.988,3.988,0,0,0,.57-2.219V15.7a3.976,3.976,0,0,0-.574-2.211,1.882,1.882,0,0,0-1.684-.883,1.856,1.856,0,0,0-1.668.883,4.018,4.018,0,0,0-.566,2.211Z" transform="translate(590 9644.436)" fill="#12263f"/>
      <g id="Grupo_1101658" data-name="Grupo 1101658" transform="translate(532.312 9499.592)">
        <path id="Trazado_879033" data-name="Trazado 879033" d="M113.327,133.8v27.513c0,3.373-2.038,6.564-5.673,9.407a42.478,42.478,0,0,1-11.095,5.89,85.223,85.223,0,0,1-12.271,3.516,134.382,134.382,0,0,1-27.625,2.729,134.381,134.381,0,0,1-27.625-2.729c-10.1-2.147-18.289-5.436-23.366-9.405C2.038,167.879,0,164.687,0,161.315V133.8Z" transform="translate(0 -112.262)" fill="#f0c518"/>
        <path id="Trazado_879034" data-name="Trazado 879034" d="M113.327,21.54c0,5.632-5.687,10.761-15,14.6A83.835,83.835,0,0,1,82.8,40.657a135.92,135.92,0,0,1-26.137,2.424,135.919,135.919,0,0,1-26.137-2.424C12.387,37.067,0,29.854,0,21.54,0,9.644,25.369,0,56.664,0A141.874,141.874,0,0,1,76.332,1.333c21.6,3.039,37,10.939,37,20.207" transform="translate(0)" fill="#f0d668"/>
      </g>
      <path id="Trazado_883997" data-name="Trazado 883997" d="M-46.509,0V-10.664h3.479a4.218,4.218,0,0,1,2.615.721,2.552,2.552,0,0,1,.945,2.164A1.957,1.957,0,0,1-39.9-6.544a2.667,2.667,0,0,1-1.128.831,2.48,2.48,0,0,1,1.659.908,2.78,2.78,0,0,1,.612,1.794A2.714,2.714,0,0,1-39.7-.773,3.973,3.973,0,0,1-42.283,0Zm1.443-5v3.875h2.783a2.226,2.226,0,0,0,1.534-.487A1.754,1.754,0,0,0-40.2-3a1.9,1.9,0,0,0-.557-1.428A2.188,2.188,0,0,0-42.261-5h-2.805Zm0-1.128h2.336a1.916,1.916,0,0,0,1.311-.443,1.555,1.555,0,0,0,.505-1.234A1.543,1.543,0,0,0-41.459-9.1a2.5,2.5,0,0,0-1.571-.428h-2.036ZM-32.3,0q-.073-.359-.114-.634a4.65,4.65,0,0,1-.048-.553,3.364,3.364,0,0,1-1.051.956,2.688,2.688,0,0,1-1.4.385A2.59,2.59,0,0,1-36.793-.48a2.33,2.33,0,0,1-.648-1.747A2.047,2.047,0,0,1-36.522-4a4.293,4.293,0,0,1,2.494-.641h1.567v-.784a1.454,1.454,0,0,0-.425-1.1,1.668,1.668,0,0,0-1.2-.406,1.743,1.743,0,0,0-1.135.352,1.055,1.055,0,0,0-.432.842l-1.37.015-.015-.044a1.9,1.9,0,0,1,.809-1.582,3.354,3.354,0,0,1,2.223-.718,3.272,3.272,0,0,1,2.168.685,2.426,2.426,0,0,1,.82,1.974V-1.6a7.428,7.428,0,0,0,.044.82A4.218,4.218,0,0,0-30.813,0Zm-2.4-1.055a2.568,2.568,0,0,0,1.414-.4,1.915,1.915,0,0,0,.82-.923V-3.669H-34.08a2.1,2.1,0,0,0-1.4.439A1.314,1.314,0,0,0-36-2.2a1.087,1.087,0,0,0,.33.835A1.38,1.38,0,0,0-34.695-1.055Zm10.378-1.077a.962.962,0,0,0-.363-.776,3.5,3.5,0,0,0-1.373-.527,5.762,5.762,0,0,1-2.15-.842,1.7,1.7,0,0,1-.751-1.45,2.09,2.09,0,0,1,.824-1.655,3.218,3.218,0,0,1,2.135-.688,3.189,3.189,0,0,1,2.183.732,2.1,2.1,0,0,1,.8,1.707l-.015.044H-24.4a1.248,1.248,0,0,0-.45-.93,1.61,1.61,0,0,0-1.139-.417,1.642,1.642,0,0,0-1.139.344,1.074,1.074,0,0,0-.377.82.869.869,0,0,0,.326.725,3.608,3.608,0,0,0,1.344.469,5.679,5.679,0,0,1,2.212.872,1.755,1.755,0,0,1,.754,1.472,2.087,2.087,0,0,1-.853,1.721,3.52,3.52,0,0,1-2.23.667,3.483,3.483,0,0,1-2.388-.769,2.195,2.195,0,0,1-.828-1.794l.015-.044h1.377a1.335,1.335,0,0,0,.571,1.124,2.21,2.21,0,0,0,1.252.355,1.973,1.973,0,0,0,1.2-.326A1,1,0,0,0-24.316-2.131ZM-17.8.154A3.353,3.353,0,0,1-20.46-.937a4.2,4.2,0,0,1-.956-2.871v-.322a4.112,4.112,0,0,1,.985-2.823,3.089,3.089,0,0,1,2.406-1.117,2.876,2.876,0,0,1,2.384.989,4.074,4.074,0,0,1,.795,2.629v.762h-5.068l-.022.037a3.276,3.276,0,0,0,.527,1.937A1.843,1.843,0,0,0-17.8-.974a3.63,3.63,0,0,0,1.285-.209,2.869,2.869,0,0,0,.948-.575L-15-.82a3.468,3.468,0,0,1-1.121.692A4.464,4.464,0,0,1-17.8.154Zm-.227-7.09a1.568,1.568,0,0,0-1.249.582,2.755,2.755,0,0,0-.6,1.49l.015.037h3.574v-.117a2.308,2.308,0,0,0-.425-1.428A1.535,1.535,0,0,0-18.025-6.936Zm8.2,3.12A5.289,5.289,0,0,1-9.012-6.9,2.631,2.631,0,0,1-6.724-8.071a2.838,2.838,0,0,1,1.234.256,2.53,2.53,0,0,1,.919.747v-4.358h1.443V0H-4.233l-.22-1a2.572,2.572,0,0,1-.959.864A2.866,2.866,0,0,1-6.738.154,2.72,2.72,0,0,1-9.009-.9a4.368,4.368,0,0,1-.82-2.765Zm1.443.154A3.364,3.364,0,0,0-7.9-1.74a1.714,1.714,0,0,0,1.523.721,1.911,1.911,0,0,0,1.084-.293,2.188,2.188,0,0,0,.718-.82v-3.7a2.222,2.222,0,0,0-.721-.78A1.906,1.906,0,0,0-6.357-6.9a1.649,1.649,0,0,0-1.534.857,4.423,4.423,0,0,0-.494,2.227ZM2.307.154A3.353,3.353,0,0,1-.355-.937a4.2,4.2,0,0,1-.956-2.871v-.322A4.112,4.112,0,0,1-.326-6.954,3.089,3.089,0,0,1,2.08-8.071a2.876,2.876,0,0,1,2.384.989,4.074,4.074,0,0,1,.795,2.629v.762H.19l-.022.037A3.276,3.276,0,0,0,.7-1.718a1.843,1.843,0,0,0,1.611.743,3.63,3.63,0,0,0,1.285-.209,2.869,2.869,0,0,0,.948-.575L5.1-.82a3.468,3.468,0,0,1-1.121.692A4.464,4.464,0,0,1,2.307.154ZM2.08-6.936a1.568,1.568,0,0,0-1.249.582,2.755,2.755,0,0,0-.6,1.49l.015.037H3.816v-.117a2.308,2.308,0,0,0-.425-1.428A1.535,1.535,0,0,0,2.08-6.936Zm8.2,3.12A5.289,5.289,0,0,1,11.093-6.9a2.631,2.631,0,0,1,2.289-1.172,2.838,2.838,0,0,1,1.234.256,2.53,2.53,0,0,1,.919.747v-4.358h1.443V0H15.872l-.22-1a2.572,2.572,0,0,1-.959.864,2.866,2.866,0,0,1-1.326.293A2.72,2.72,0,0,1,11.1-.9a4.368,4.368,0,0,1-.82-2.765Zm1.443.154a3.364,3.364,0,0,0,.491,1.923,1.714,1.714,0,0,0,1.523.721,1.911,1.911,0,0,0,1.084-.293,2.188,2.188,0,0,0,.718-.82v-3.7a2.222,2.222,0,0,0-.721-.78A1.906,1.906,0,0,0,13.748-6.9a1.649,1.649,0,0,0-1.534.857,4.423,4.423,0,0,0-.494,2.227ZM24,0q-.073-.359-.114-.634a4.65,4.65,0,0,1-.048-.553,3.364,3.364,0,0,1-1.051.956,2.688,2.688,0,0,1-1.4.385A2.59,2.59,0,0,1,19.508-.48a2.33,2.33,0,0,1-.648-1.747A2.047,2.047,0,0,1,19.779-4a4.293,4.293,0,0,1,2.494-.641H23.84v-.784a1.454,1.454,0,0,0-.425-1.1,1.668,1.668,0,0,0-1.2-.406,1.743,1.743,0,0,0-1.135.352,1.055,1.055,0,0,0-.432.842l-1.37.015-.015-.044a1.9,1.9,0,0,1,.809-1.582,3.354,3.354,0,0,1,2.223-.718,3.272,3.272,0,0,1,2.168.685,2.426,2.426,0,0,1,.82,1.974V-1.6a7.428,7.428,0,0,0,.044.82A4.218,4.218,0,0,0,25.488,0Zm-2.4-1.055a2.568,2.568,0,0,0,1.414-.4,1.915,1.915,0,0,0,.82-.923V-3.669H22.222a2.1,2.1,0,0,0-1.4.439A1.314,1.314,0,0,0,20.3-2.2a1.087,1.087,0,0,0,.33.835A1.38,1.38,0,0,0,21.606-1.055Zm7.778-8.782v1.912h1.5v1.069h-1.5v4.812a1.077,1.077,0,0,0,.231.784.834.834,0,0,0,.612.227,1.34,1.34,0,0,0,.278-.033,2.064,2.064,0,0,0,.256-.07l.2.989a1.275,1.275,0,0,1-.476.216,2.4,2.4,0,0,1-.623.084,1.869,1.869,0,0,1-1.4-.531,2.306,2.306,0,0,1-.52-1.666V-6.855h-1.26V-7.925h1.26V-9.836Zm2.71,5.8a4.363,4.363,0,0,1,.952-2.9,3.193,3.193,0,0,1,2.585-1.139,3.224,3.224,0,0,1,2.6,1.135,4.349,4.349,0,0,1,.956,2.9v.161a4.342,4.342,0,0,1-.952,2.9A3.215,3.215,0,0,1,35.647.154a3.221,3.221,0,0,1-2.6-1.132,4.334,4.334,0,0,1-.956-2.9Zm1.443.161a3.759,3.759,0,0,0,.531,2.08,1.758,1.758,0,0,0,1.578.82,1.753,1.753,0,0,0,1.567-.82,3.739,3.739,0,0,0,.535-2.08v-.161a3.728,3.728,0,0,0-.538-2.073,1.764,1.764,0,0,0-1.578-.828,1.74,1.74,0,0,0-1.564.828,3.767,3.767,0,0,0-.531,2.073ZM45.564-2.131a.962.962,0,0,0-.363-.776,3.5,3.5,0,0,0-1.373-.527,5.762,5.762,0,0,1-2.15-.842,1.7,1.7,0,0,1-.751-1.45,2.09,2.09,0,0,1,.824-1.655,3.218,3.218,0,0,1,2.135-.688,3.189,3.189,0,0,1,2.183.732,2.1,2.1,0,0,1,.8,1.707l-.015.044H45.476a1.248,1.248,0,0,0-.45-.93,1.61,1.61,0,0,0-1.139-.417,1.642,1.642,0,0,0-1.139.344,1.074,1.074,0,0,0-.377.82.869.869,0,0,0,.326.725,3.608,3.608,0,0,0,1.344.469,5.679,5.679,0,0,1,2.212.872,1.755,1.755,0,0,1,.754,1.472,2.087,2.087,0,0,1-.853,1.721,3.52,3.52,0,0,1-2.23.667,3.483,3.483,0,0,1-2.388-.769,2.195,2.195,0,0,1-.828-1.794l.015-.044H42.1a1.335,1.335,0,0,0,.571,1.124,2.21,2.21,0,0,0,1.252.355,1.973,1.973,0,0,0,1.2-.326A1,1,0,0,0,45.564-2.131Z" transform="translate(590 9526.889)" fill="#12263f"/>
      <path id="Trazado_879036" data-name="Trazado 879036" d="M15,4.368,0,0,14.964,23.687,15,23.64l.037.048L30,0Z" transform="translate(363 9474.599)" fill="#3a1d71"/>
      <path id="Trazado_883998" data-name="Trazado 883998" d="M0,0H19.1V12.634H0Z" transform="translate(384.712 9460.26) rotate(90)" fill="#3a1d71"/>
      <path id="Trazado_879039" data-name="Trazado 879039" d="M15,4.368,0,0,14.964,23.687,15,23.64l.037.048L30,0Z" transform="translate(492.96 9557.889) rotate(-90)" fill="#3a1d71"/>
      <path id="Trazado_883999" data-name="Trazado 883999" d="M0,0H19.1V12.634H0Z" transform="translate(478.623 9536.177)" fill="#3a1d71"/>
      <path id="Trazado_879040" data-name="Trazado 879040" d="M15,4.368,0,0,14.964,23.687,15,23.64l.037.048L30,0Z" transform="translate(363 9584.524)" fill="#3a1d71"/>
      <path id="Trazado_884000" data-name="Trazado 884000" d="M0,0H19.1V12.634H0Z" transform="translate(384.712 9570.186) rotate(90)" fill="#3a1d71"/>
      <path id="Trazado_879043" data-name="Trazado 879043" d="M15,4.368,0,0,14.964,23.687,15,23.64l.037.048L30,0Z" transform="translate(573.976 9709.563)" fill="#3a1d71"/>
      <path id="Trazado_884001" data-name="Trazado 884001" d="M0,0H19.1V12.634H0Z" transform="translate(595.688 9695.225) rotate(90)" fill="#3a1d71"/>
      <path id="Trazado_879042" data-name="Trazado 879042" d="M15,19.319,0,23.687,14.964,0,15,.048,15.037,0,30,23.687Z" transform="translate(508.025 9640.436) rotate(90)" fill="#3a1d71"/>
      <path id="Trazado_884002" data-name="Trazado 884002" d="M0,0H19.1V12.634H0Z" transform="translate(470 9649.514)" fill="#3a1d71"/>
    </g>
  </g>
</svg>
