<svg xmlns="http://www.w3.org/2000/svg" width="85" height="17" viewBox="0 0 85 17">
  <g id="Grupo_1073868" data-name="Grupo 1073868" transform="translate(-787 -1534)">
    <g id="Grupo_1073447" data-name="Grupo 1073447" transform="translate(607 460)">
      <circle id="Elipse_9675" data-name="Elipse 9675" cx="3" cy="3" r="3" transform="translate(180 1074)" fill="#1682fb"/>
      <circle id="Elipse_9676" data-name="Elipse 9676" cx="3" cy="3" r="3" transform="translate(195 1074)" fill="#1682fb"/>
      <circle id="Elipse_9677" data-name="Elipse 9677" cx="3" cy="3" r="3" transform="translate(212 1074)" fill="#1682fb"/>
      <circle id="Elipse_9678" data-name="Elipse 9678" cx="3" cy="3" r="3" transform="translate(227 1074)" fill="#1682fb"/>
      <circle id="Elipse_9679" data-name="Elipse 9679" cx="3" cy="3" r="3" transform="translate(244 1074)" fill="#1682fb"/>
      <circle id="Elipse_9680" data-name="Elipse 9680" cx="3" cy="3" r="3" transform="translate(259 1074)" fill="#1682fb"/>
    </g>
    <g id="Grupo_1073448" data-name="Grupo 1073448" transform="translate(607 471)">
      <circle id="Elipse_9675-2" data-name="Elipse 9675" cx="3" cy="3" r="3" transform="translate(180 1074)" fill="#1682fb"/>
      <circle id="Elipse_9676-2" data-name="Elipse 9676" cx="3" cy="3" r="3" transform="translate(195 1074)" fill="#1682fb"/>
      <circle id="Elipse_9677-2" data-name="Elipse 9677" cx="3" cy="3" r="3" transform="translate(212 1074)" fill="#1682fb"/>
      <circle id="Elipse_9678-2" data-name="Elipse 9678" cx="3" cy="3" r="3" transform="translate(227 1074)" fill="#1682fb"/>
      <circle id="Elipse_9679-2" data-name="Elipse 9679" cx="3" cy="3" r="3" transform="translate(244 1074)" fill="#1682fb"/>
      <circle id="Elipse_9680-2" data-name="Elipse 9680" cx="3" cy="3" r="3" transform="translate(259 1074)" fill="#1682fb"/>
    </g>
  </g>
</svg>
