<svg xmlns="http://www.w3.org/2000/svg" width="1239.75" height="849.49" viewBox="0 0 1239.75 849.49">
  <g id="Grupo_1102287" data-name="Grupo 1102287" transform="translate(-180.25 -12153.889)">
    <g id="Trazado_884003" data-name="Trazado 884003" transform="translate(180.25 12153.889)" fill="#f6f6f6">
      <path d="M 1239 848.9901733398438 L 0.5 848.9901733398438 L 0.5 0.5000402927398682 L 1239 0.5000402927398682 L 1239 848.9901733398438 Z" stroke="none"/>
      <path d="M 1 1.00006103515625 L 1 848.4901733398438 L 1238.5 848.4901733398438 L 1238.5 1.00006103515625 L 1 1.00006103515625 M 0 6.103515625e-05 L 1239.5 6.103515625e-05 L 1239.5 849.4901733398438 L 0 849.4901733398438 L 0 6.103515625e-05 Z" stroke="none" fill="#cdcdcd"/>
    </g>
    <g id="Trazado_4511" data-name="Trazado 4511" transform="translate(180.5 12153.889)" fill="#3a1d71">
      <path d="M 1239.199951171875 49.70000076293945 L 0.300000011920929 49.70000076293945 L 0.300000011920929 0.300000011920929 L 412.3429260253906 0.300000011920929 L 514.6823120117188 0.300000011920929 L 1239.199951171875 0.300000011920929 L 1239.199951171875 49.70000076293945 Z" stroke="none"/>
      <path d="M 0.5999755859375 0.5999984741210938 L 0.5999755859375 49.40000152587891 L 1238.900024414062 49.40000152587891 L 1238.900024414062 0.5999984741210938 L 0.5999755859375 0.5999984741210938 M 0 0 L 462.41552734375 0 L 412.3428955078125 0 C 412.3428955078125 0 435.7715454101562 0 514.6823120117188 0 C 708.9535522460938 0 1239.5 0 1239.5 0 L 1239.5 50 L 0 50 L 0 0 Z" stroke="none" fill="#fff"/>
    </g>
    <g id="Trazado_4511-2" data-name="Trazado 4511" transform="translate(180.5 12202.889)" fill="#3a1d71">
      <path d="M 1239.199951171875 39.70000076293945 L 0.300000011920929 39.70000076293945 L 0.300000011920929 0.300000011920929 L 412.3429260253906 0.300000011920929 L 514.6823120117188 0.300000011920929 L 1239.199951171875 0.300000011920929 L 1239.199951171875 39.70000076293945 Z" stroke="none"/>
      <path d="M 0.5999755859375 0.5999984741210938 L 0.5999755859375 39.40000152587891 L 1238.900024414062 39.40000152587891 L 1238.900024414062 0.5999984741210938 L 0.5999755859375 0.5999984741210938 M 0 0 L 462.41552734375 0 L 412.3428955078125 0 C 412.3428955078125 0 435.7715454101562 0 514.6823120117188 0 C 708.9535522460938 0 1239.5 0 1239.5 0 L 1239.5 40 L 0 40 L 0 0 Z" stroke="none" fill="#fff"/>
    </g>
    <g id="Trazado_879112" data-name="Trazado 879112" transform="translate(180.5 12241.889)" fill="#3a1d71">
      <path d="M 1239.199951171875 39.70000076293945 L 0.300000011920929 39.70000076293945 L 0.300000011920929 0.300000011920929 L 412.3429260253906 0.300000011920929 L 514.6823120117188 0.300000011920929 L 1239.199951171875 0.300000011920929 L 1239.199951171875 39.70000076293945 Z" stroke="none"/>
      <path d="M 0.5999755859375 0.5999984741210938 L 0.5999755859375 39.40000152587891 L 1238.900024414062 39.40000152587891 L 1238.900024414062 0.5999984741210938 L 0.5999755859375 0.5999984741210938 M 0 0 L 462.41552734375 0 L 412.3428955078125 0 C 412.3428955078125 0 435.7715454101562 0 514.6823120117188 0 C 708.9535522460938 0 1239.5 0 1239.5 0 L 1239.5 40 L 0 40 L 0 0 Z" stroke="none" fill="#fff"/>
    </g>
    <path id="Trazado_884004" data-name="Trazado 884004" d="M7.849-3.34a1.5,1.5,0,0,0-.514-1.187A5.166,5.166,0,0,0,5.528-5.37,10.264,10.264,0,0,1,2.167-6.943,2.977,2.977,0,0,1,1.02-9.413a3.106,3.106,0,0,1,1.292-2.571,5.236,5.236,0,0,1,3.3-1,5.2,5.2,0,0,1,3.423,1.072A3.354,3.354,0,0,1,10.283-9.1l-.018.053H7.778a1.864,1.864,0,0,0-.58-1.472,2.369,2.369,0,0,0-1.626-.514,2.148,2.148,0,0,0-1.468.457A1.488,1.488,0,0,0,3.586-9.4a1.277,1.277,0,0,0,.563,1.068,7.525,7.525,0,0,0,1.942.883,8.357,8.357,0,0,1,3.217,1.56,3.2,3.2,0,0,1,1.107,2.536A3.052,3.052,0,0,1,9.132-.765,5.571,5.571,0,0,1,5.739.185,6.062,6.062,0,0,1,2.193-.844,3.392,3.392,0,0,1,.756-3.911l.018-.053H3.261a2.013,2.013,0,0,0,.668,1.67,2.812,2.812,0,0,0,1.811.536,2.471,2.471,0,0,0,1.569-.431A1.4,1.4,0,0,0,7.849-3.34ZM14.81,0H12.243V-9.51H14.81Zm0-11.786H12.243v-1.925H14.81Zm7.251,9.149a.885.885,0,0,0-.409-.725,4.151,4.151,0,0,0-1.516-.532A6.047,6.047,0,0,1,17.6-4.9a2.208,2.208,0,0,1-.866-1.837,2.62,2.62,0,0,1,1.037-2.083,4.182,4.182,0,0,1,2.76-.861,4.513,4.513,0,0,1,2.887.861A2.517,2.517,0,0,1,24.46-6.68l-.018.053H21.964a1.245,1.245,0,0,0-.369-.932,1.461,1.461,0,0,0-1.063-.36,1.453,1.453,0,0,0-.976.308.957.957,0,0,0-.36.756.854.854,0,0,0,.374.716,4.158,4.158,0,0,0,1.516.5A6.17,6.17,0,0,1,23.691-4.61a2.265,2.265,0,0,1,.857,1.876,2.51,2.51,0,0,1-1.1,2.1,4.742,4.742,0,0,1-2.9.817,4.408,4.408,0,0,1-3-.962A2.691,2.691,0,0,1,16.5-2.971l.018-.053h2.347a1.334,1.334,0,0,0,.5,1.107,2.068,2.068,0,0,0,1.239.343,1.762,1.762,0,0,0,1.085-.286A.927.927,0,0,0,22.061-2.637Zm7.216-9.2V-9.51h1.608v1.8H29.276v4.843a1.105,1.105,0,0,0,.233.791.818.818,0,0,0,.611.237,2.45,2.45,0,0,0,.352-.022,2.961,2.961,0,0,0,.343-.075l.211,1.854a5.2,5.2,0,0,1-.751.2,4.48,4.48,0,0,1-.8.066,2.735,2.735,0,0,1-2.043-.729,3.2,3.2,0,0,1-.716-2.312V-7.708H25.33v-1.8h1.389v-2.329ZM36.589.185a4.279,4.279,0,0,1-3.322-1.305,4.784,4.784,0,0,1-1.2-3.362v-.352a5.207,5.207,0,0,1,1.16-3.5,3.944,3.944,0,0,1,3.19-1.354,3.692,3.692,0,0,1,2.94,1.173,4.637,4.637,0,0,1,1.024,3.16v1.327H34.717l-.026.053a2.569,2.569,0,0,0,.593,1.582,1.987,1.987,0,0,0,1.578.606,5.279,5.279,0,0,0,1.463-.176A5.971,5.971,0,0,0,39.568-2.5l.694,1.582a4.764,4.764,0,0,1-1.547.782A6.86,6.86,0,0,1,36.589.185Zm-.167-7.893a1.425,1.425,0,0,0-1.191.532,2.667,2.667,0,0,0-.505,1.411l.018.044h3.129v-.193a2.221,2.221,0,0,0-.343-1.314A1.268,1.268,0,0,0,36.422-7.708Zm7.84-1.8.105,1.257a3.2,3.2,0,0,1,1.147-1.059,3.3,3.3,0,0,1,1.6-.374,2.905,2.905,0,0,1,1.564.4,2.494,2.494,0,0,1,.984,1.222,3.3,3.3,0,0,1,1.143-1.2,3.1,3.1,0,0,1,1.652-.431,2.71,2.71,0,0,1,2.219,1,4.762,4.762,0,0,1,.813,3.045V0H52.919V-5.651a2.665,2.665,0,0,0-.352-1.591,1.248,1.248,0,0,0-1.046-.448,1.792,1.792,0,0,0-.945.242,1.761,1.761,0,0,0-.637.672q0,.167.009.286t.009.242V0H47.4V-5.651a2.673,2.673,0,0,0-.352-1.578,1.242,1.242,0,0,0-1.055-.461,1.991,1.991,0,0,0-.91.2,1.745,1.745,0,0,0-.646.558V0H41.88V-9.51ZM63.062,0a5.4,5.4,0,0,1-.242-.686,4.769,4.769,0,0,1-.145-.738A3.518,3.518,0,0,1,61.629-.272a2.621,2.621,0,0,1-1.547.457,3.211,3.211,0,0,1-2.3-.769,2.755,2.755,0,0,1-.809-2.1,2.508,2.508,0,0,1,1.077-2.167,5.377,5.377,0,0,1,3.142-.769h1.441v-.756a1.48,1.48,0,0,0-.36-1.063A1.414,1.414,0,0,0,61.2-7.813a1.394,1.394,0,0,0-.962.3,1.059,1.059,0,0,0-.338.831h-2.47l-.018-.053a2.412,2.412,0,0,1,1.05-2.079,4.562,4.562,0,0,1,2.9-.875,4.257,4.257,0,0,1,2.773.861A3,3,0,0,1,65.2-6.354v3.929a7.431,7.431,0,0,0,.1,1.257A6.307,6.307,0,0,0,65.619,0ZM60.715-1.714a2.187,2.187,0,0,0,1.2-.334,1.8,1.8,0,0,0,.721-.773V-4.166H61.189a1.708,1.708,0,0,0-1.235.4,1.329,1.329,0,0,0-.417.993A.992.992,0,0,0,59.849-2,1.234,1.234,0,0,0,60.715-1.714ZM71.209-4.676a6.18,6.18,0,0,1,.971-3.63,3.154,3.154,0,0,1,2.738-1.38,2.663,2.663,0,0,1,1.283.308,3.087,3.087,0,0,1,1,.879v-5.212h2.575V0H77.59l-.22-1.169A3.179,3.179,0,0,1,76.307-.163,2.812,2.812,0,0,1,74.9.185,3.215,3.215,0,0,1,72.18-1.1a5.479,5.479,0,0,1-.971-3.393Zm2.558.185a3.874,3.874,0,0,0,.422,1.964,1.469,1.469,0,0,0,1.371.716,2,2,0,0,0,.967-.224,1.788,1.788,0,0,0,.677-.655V-6.741a1.975,1.975,0,0,0-.672-.7,1.788,1.788,0,0,0-.954-.25,1.448,1.448,0,0,0-1.375.835,4.718,4.718,0,0,0-.435,2.18ZM85.887.185a4.279,4.279,0,0,1-3.322-1.305,4.784,4.784,0,0,1-1.2-3.362v-.352a5.207,5.207,0,0,1,1.16-3.5,3.944,3.944,0,0,1,3.19-1.354,3.692,3.692,0,0,1,2.94,1.173,4.637,4.637,0,0,1,1.024,3.16v1.327H84.015l-.026.053a2.569,2.569,0,0,0,.593,1.582,1.987,1.987,0,0,0,1.578.606,5.279,5.279,0,0,0,1.463-.176A5.971,5.971,0,0,0,88.866-2.5l.694,1.582a4.764,4.764,0,0,1-1.547.782A6.86,6.86,0,0,1,85.887.185ZM85.72-7.708a1.425,1.425,0,0,0-1.191.532,2.667,2.667,0,0,0-.505,1.411l.018.044H87.17v-.193a2.221,2.221,0,0,0-.343-1.314A1.268,1.268,0,0,0,85.72-7.708ZM99.633-1.784a1.428,1.428,0,0,0,1.063-.4,1.452,1.452,0,0,0,.4-1.068h2.338l.018.053a2.976,2.976,0,0,1-1.072,2.413,4.01,4.01,0,0,1-2.742.971,4.052,4.052,0,0,1-3.261-1.349,5.128,5.128,0,0,1-1.151-3.45v-.264a5.161,5.161,0,0,1,1.147-3.45,4.016,4.016,0,0,1,3.248-1.358,3.922,3.922,0,0,1,2.8,1,3.348,3.348,0,0,1,1.028,2.637l-.018.053h-2.338A1.9,1.9,0,0,0,100.7-7.22a1.314,1.314,0,0,0-1.085-.488,1.465,1.465,0,0,0-1.411.8,4.362,4.362,0,0,0-.417,2.035v.264A4.346,4.346,0,0,0,98.2-2.566,1.485,1.485,0,0,0,99.633-1.784Zm4.913-3.059a5.1,5.1,0,0,1,1.187-3.485,4.136,4.136,0,0,1,3.287-1.358,4.18,4.18,0,0,1,3.3,1.354,5.076,5.076,0,0,1,1.2,3.489v.185a5.084,5.084,0,0,1-1.191,3.494A4.162,4.162,0,0,1,109.037.185a4.173,4.173,0,0,1-3.3-1.349,5.084,5.084,0,0,1-1.191-3.494Zm2.558.185a4.137,4.137,0,0,0,.457,2.087,1.578,1.578,0,0,0,1.477.787,1.562,1.562,0,0,0,1.455-.791,4.11,4.11,0,0,0,.461-2.083v-.185a4.068,4.068,0,0,0-.466-2.065,1.576,1.576,0,0,0-1.468-.8,1.557,1.557,0,0,0-1.455.8,4.1,4.1,0,0,0-.461,2.061Zm10.38-4.852.105,1.257a3.2,3.2,0,0,1,1.147-1.059,3.3,3.3,0,0,1,1.6-.374,2.905,2.905,0,0,1,1.564.4,2.494,2.494,0,0,1,.984,1.222,3.3,3.3,0,0,1,1.143-1.2,3.1,3.1,0,0,1,1.652-.431,2.71,2.71,0,0,1,2.219,1,4.762,4.762,0,0,1,.813,3.045V0h-2.566V-5.651a2.665,2.665,0,0,0-.352-1.591,1.248,1.248,0,0,0-1.046-.448,1.792,1.792,0,0,0-.945.242,1.761,1.761,0,0,0-.637.672q0,.167.009.286t.009.242V0h-2.558V-5.651a2.673,2.673,0,0,0-.352-1.578,1.242,1.242,0,0,0-1.055-.461,1.991,1.991,0,0,0-.91.2,1.745,1.745,0,0,0-.646.558V0H115.1V-9.51Zm21.771,5.019a5.462,5.462,0,0,1-.976,3.393A3.227,3.227,0,0,1,135.554.185a3.045,3.045,0,0,1-1.327-.277,2.726,2.726,0,0,1-.993-.813V3.656h-2.558V-9.51h2.312l.149,1.125a3.047,3.047,0,0,1,1.015-.962,2.746,2.746,0,0,1,1.384-.338,3.165,3.165,0,0,1,2.742,1.38,6.159,6.159,0,0,1,.976,3.63Zm-2.566-.185a4.6,4.6,0,0,0-.448-2.18,1.462,1.462,0,0,0-1.371-.835,1.938,1.938,0,0,0-.989.237,1.693,1.693,0,0,0-.646.677V-2.61a1.573,1.573,0,0,0,.646.615,2.176,2.176,0,0,0,1.006.211,1.476,1.476,0,0,0,1.367-.729,3.851,3.851,0,0,0,.435-1.978ZM145.837-7.3l-.94-.026a1.709,1.709,0,0,0-.94.237,1.5,1.5,0,0,0-.562.668V0h-2.558V-9.51h2.382l.114,1.406a3,3,0,0,1,.866-1.165,1.93,1.93,0,0,1,1.226-.417,1.918,1.918,0,0,1,.356.031q.163.031.33.075ZM152.78,0a5.4,5.4,0,0,1-.242-.686,4.769,4.769,0,0,1-.145-.738,3.518,3.518,0,0,1-1.046,1.151A2.621,2.621,0,0,1,149.8.185a3.211,3.211,0,0,1-2.3-.769,2.755,2.755,0,0,1-.809-2.1,2.508,2.508,0,0,1,1.077-2.167,5.377,5.377,0,0,1,3.142-.769h1.441v-.756a1.48,1.48,0,0,0-.36-1.063,1.414,1.414,0,0,0-1.072-.378,1.394,1.394,0,0,0-.962.3,1.059,1.059,0,0,0-.338.831h-2.47l-.018-.053a2.412,2.412,0,0,1,1.05-2.079,4.562,4.562,0,0,1,2.9-.875,4.257,4.257,0,0,1,2.773.861,3,3,0,0,1,1.059,2.47v3.929a7.431,7.431,0,0,0,.1,1.257A6.307,6.307,0,0,0,155.338,0Zm-2.347-1.714a2.187,2.187,0,0,0,1.2-.334,1.8,1.8,0,0,0,.721-.773V-4.166h-1.441a1.708,1.708,0,0,0-1.235.4,1.329,1.329,0,0,0-.417.993.992.992,0,0,0,.312.769A1.234,1.234,0,0,0,150.434-1.714Zm11.549-.923a.885.885,0,0,0-.409-.725,4.151,4.151,0,0,0-1.516-.532A6.047,6.047,0,0,1,157.522-4.9a2.208,2.208,0,0,1-.866-1.837,2.62,2.62,0,0,1,1.037-2.083,4.182,4.182,0,0,1,2.76-.861,4.513,4.513,0,0,1,2.887.861,2.517,2.517,0,0,1,1.042,2.145l-.018.053h-2.479a1.245,1.245,0,0,0-.369-.932,1.461,1.461,0,0,0-1.063-.36,1.453,1.453,0,0,0-.976.308.957.957,0,0,0-.36.756.854.854,0,0,0,.374.716,4.158,4.158,0,0,0,1.516.5,6.17,6.17,0,0,1,2.606,1.033,2.265,2.265,0,0,1,.857,1.876,2.51,2.51,0,0,1-1.1,2.1,4.742,4.742,0,0,1-2.9.817,4.408,4.408,0,0,1-3-.962,2.691,2.691,0,0,1-1.05-2.193l.018-.053h2.347a1.334,1.334,0,0,0,.5,1.107,2.068,2.068,0,0,0,1.239.343,1.762,1.762,0,0,0,1.085-.286A.927.927,0,0,0,161.982-2.637ZM174.727.185A4.279,4.279,0,0,1,171.4-1.121a4.784,4.784,0,0,1-1.2-3.362v-.352a5.207,5.207,0,0,1,1.16-3.5,3.944,3.944,0,0,1,3.19-1.354,3.692,3.692,0,0,1,2.94,1.173,4.637,4.637,0,0,1,1.024,3.16v1.327h-5.669l-.026.053a2.569,2.569,0,0,0,.593,1.582A1.987,1.987,0,0,0,175-1.784a5.279,5.279,0,0,0,1.463-.176,5.971,5.971,0,0,0,1.244-.536L178.4-.914a4.764,4.764,0,0,1-1.547.782A6.86,6.86,0,0,1,174.727.185Zm-.167-7.893a1.425,1.425,0,0,0-1.191.532,2.667,2.667,0,0,0-.505,1.411l.018.044h3.129v-.193a2.221,2.221,0,0,0-.343-1.314A1.268,1.268,0,0,0,174.56-7.708Zm7.8-1.8.114,1.362a3.478,3.478,0,0,1,1.169-1.134,3.034,3.034,0,0,1,1.556-.4,2.828,2.828,0,0,1,2.25.927,4.4,4.4,0,0,1,.809,2.931V0h-2.575V-5.818a2.277,2.277,0,0,0-.356-1.446,1.312,1.312,0,0,0-1.068-.426,2.241,2.241,0,0,0-1.006.215,1.965,1.965,0,0,0-.716.593V0h-2.566V-9.51ZM197.358,0h-2.566V-13.711h2.566Zm4.86,0h-2.566V-9.51h2.566Zm-.765-13.386h2.856l.018.053-2.435,2.285h-2.188Zm5.3,3.876.114,1.362a3.478,3.478,0,0,1,1.169-1.134,3.034,3.034,0,0,1,1.556-.4,2.828,2.828,0,0,1,2.25.927,4.4,4.4,0,0,1,.809,2.931V0h-2.575V-5.818a2.277,2.277,0,0,0-.356-1.446,1.312,1.312,0,0,0-1.068-.426,2.241,2.241,0,0,0-1.006.215,1.965,1.965,0,0,0-.716.593V0h-2.566V-9.51ZM218.689.185a4.279,4.279,0,0,1-3.322-1.305,4.784,4.784,0,0,1-1.2-3.362v-.352a5.207,5.207,0,0,1,1.16-3.5,3.944,3.944,0,0,1,3.19-1.354,3.692,3.692,0,0,1,2.94,1.173,4.637,4.637,0,0,1,1.024,3.16v1.327h-5.669l-.026.053a2.569,2.569,0,0,0,.593,1.582,1.987,1.987,0,0,0,1.578.606,5.279,5.279,0,0,0,1.463-.176,5.971,5.971,0,0,0,1.244-.536l.694,1.582a4.764,4.764,0,0,1-1.547.782A6.86,6.86,0,0,1,218.689.185Zm-.167-7.893a1.425,1.425,0,0,0-1.191.532,2.667,2.667,0,0,0-.505,1.411l.018.044h3.129v-.193a2.221,2.221,0,0,0-.343-1.314A1.268,1.268,0,0,0,218.522-7.708ZM229.588,0a5.4,5.4,0,0,1-.242-.686,4.769,4.769,0,0,1-.145-.738,3.518,3.518,0,0,1-1.046,1.151,2.621,2.621,0,0,1-1.547.457,3.211,3.211,0,0,1-2.3-.769,2.755,2.755,0,0,1-.809-2.1,2.508,2.508,0,0,1,1.077-2.167,5.377,5.377,0,0,1,3.142-.769h1.441v-.756a1.48,1.48,0,0,0-.36-1.063,1.414,1.414,0,0,0-1.072-.378,1.394,1.394,0,0,0-.962.3,1.059,1.059,0,0,0-.338.831h-2.47l-.018-.053a2.412,2.412,0,0,1,1.05-2.079,4.562,4.562,0,0,1,2.9-.875,4.257,4.257,0,0,1,2.773.861,3,3,0,0,1,1.059,2.47v3.929a7.431,7.431,0,0,0,.1,1.257A6.307,6.307,0,0,0,232.146,0Zm-2.347-1.714a2.187,2.187,0,0,0,1.2-.334,1.8,1.8,0,0,0,.721-.773V-4.166h-1.441a1.708,1.708,0,0,0-1.235.4,1.329,1.329,0,0,0-.417.993.992.992,0,0,0,.312.769A1.234,1.234,0,0,0,227.241-1.714Z" transform="translate(684 12185.889)" fill="#fff"/>
    <path id="Trazado_884005" data-name="Trazado 884005" d="M7.7-4.727H3.328V0H1.047V-11.375H8.492v1.758H3.328v3.133H7.7ZM14.492,0a4.8,4.8,0,0,1-.215-.609,4.239,4.239,0,0,1-.129-.656,3.127,3.127,0,0,1-.93,1.023,2.33,2.33,0,0,1-1.375.406A2.855,2.855,0,0,1,9.8-.52a2.449,2.449,0,0,1-.719-1.863,2.229,2.229,0,0,1,.957-1.926,4.78,4.78,0,0,1,2.793-.684h1.281v-.672a1.315,1.315,0,0,0-.32-.945,1.257,1.257,0,0,0-.953-.336,1.239,1.239,0,0,0-.855.27.941.941,0,0,0-.3.738h-2.2l-.016-.047A2.144,2.144,0,0,1,10.4-7.832a4.055,4.055,0,0,1,2.582-.777,3.784,3.784,0,0,1,2.465.766,2.667,2.667,0,0,1,.941,2.2v3.492a6.6,6.6,0,0,0,.09,1.117A5.606,5.606,0,0,0,16.766,0ZM12.406-1.523a1.944,1.944,0,0,0,1.063-.3,1.6,1.6,0,0,0,.641-.687V-3.7H12.828a1.519,1.519,0,0,0-1.1.359,1.181,1.181,0,0,0-.371.883.881.881,0,0,0,.277.684A1.1,1.1,0,0,0,12.406-1.523Zm.945-10.539h2.539l.016.047L13.742-9.984H11.8Zm12.375,8.07a4.945,4.945,0,0,1-.844,3.023A2.854,2.854,0,0,1,22.445.164a2.576,2.576,0,0,1-1.293-.312,2.672,2.672,0,0,1-.934-.914L20.031,0H18.1V-12.187h2.273v4.633a2.582,2.582,0,0,1,.879-.781,2.457,2.457,0,0,1,1.176-.273,2.8,2.8,0,0,1,2.453,1.215,5.577,5.577,0,0,1,.844,3.238Zm-2.273-.164a4.4,4.4,0,0,0-.363-1.957,1.275,1.275,0,0,0-1.238-.723,1.7,1.7,0,0,0-.9.223,1.543,1.543,0,0,0-.578.637V-2.4a1.449,1.449,0,0,0,.582.586,1.874,1.874,0,0,0,.91.2A1.3,1.3,0,0,0,23.1-2.23a3.618,3.618,0,0,0,.352-1.762Zm8.125-2.336-.836-.023a1.519,1.519,0,0,0-.836.211,1.337,1.337,0,0,0-.5.594V0H27.133V-8.453H29.25l.1,1.25a2.667,2.667,0,0,1,.77-1.035,1.715,1.715,0,0,1,1.09-.371,1.7,1.7,0,0,1,.316.027q.145.027.293.066ZM35.164,0H32.883V-8.453h2.281Zm0-10.477H32.883v-1.711h2.281ZM40.57-1.586a1.27,1.27,0,0,0,.945-.355,1.291,1.291,0,0,0,.352-.949h2.078l.016.047A2.645,2.645,0,0,1,43.008-.7,3.564,3.564,0,0,1,40.57.164a3.6,3.6,0,0,1-2.9-1.2A4.558,4.558,0,0,1,36.648-4.1v-.234A4.588,4.588,0,0,1,37.668-7.4a3.57,3.57,0,0,1,2.887-1.207,3.486,3.486,0,0,1,2.492.891,2.976,2.976,0,0,1,.914,2.344l-.016.047H41.867a1.687,1.687,0,0,0-.348-1.09,1.168,1.168,0,0,0-.965-.434,1.3,1.3,0,0,0-1.254.707,3.878,3.878,0,0,0-.371,1.809V-4.1a3.863,3.863,0,0,0,.371,1.82A1.32,1.32,0,0,0,40.57-1.586ZM50.273,0a4.8,4.8,0,0,1-.215-.609,4.239,4.239,0,0,1-.129-.656A3.127,3.127,0,0,1,49-.242a2.33,2.33,0,0,1-1.375.406A2.855,2.855,0,0,1,45.578-.52a2.449,2.449,0,0,1-.719-1.863,2.229,2.229,0,0,1,.957-1.926,4.78,4.78,0,0,1,2.793-.684h1.281v-.672a1.315,1.315,0,0,0-.32-.945,1.257,1.257,0,0,0-.953-.336,1.239,1.239,0,0,0-.855.27.941.941,0,0,0-.3.738h-2.2l-.016-.047a2.144,2.144,0,0,1,.934-1.848,4.055,4.055,0,0,1,2.582-.777,3.784,3.784,0,0,1,2.465.766,2.667,2.667,0,0,1,.941,2.2v3.492a6.605,6.605,0,0,0,.09,1.117A5.606,5.606,0,0,0,52.547,0ZM48.188-1.523a1.944,1.944,0,0,0,1.063-.3,1.6,1.6,0,0,0,.641-.687V-3.7H48.609a1.519,1.519,0,0,0-1.1.359,1.181,1.181,0,0,0-.371.883.881.881,0,0,0,.277.684A1.1,1.1,0,0,0,48.188-1.523Z" transform="translate(925 12268.889)" fill="#fff"/>
    <path id="Trazado_884006" data-name="Trazado 884006" d="M9.578-3.766l.016.047A3.561,3.561,0,0,1,8.484-.867,4.523,4.523,0,0,1,5.336.164a4.361,4.361,0,0,1-3.3-1.316,4.722,4.722,0,0,1-1.258-3.4V-6.812A4.809,4.809,0,0,1,2-10.215a4.182,4.182,0,0,1,3.219-1.324,4.8,4.8,0,0,1,3.25,1.016A3.5,3.5,0,0,1,9.609-7.664l-.016.047H7.375a2.236,2.236,0,0,0-.527-1.629,2.2,2.2,0,0,0-1.629-.535,1.839,1.839,0,0,0-1.6.824,3.645,3.645,0,0,0-.574,2.129v2.273a3.538,3.538,0,0,0,.605,2.141,1.968,1.968,0,0,0,1.684.828,2,2,0,0,0,1.527-.535,2.328,2.328,0,0,0,.5-1.645ZM10.7-4.3a4.536,4.536,0,0,1,1.055-3.1A3.676,3.676,0,0,1,14.68-8.609a3.715,3.715,0,0,1,2.938,1.2A4.512,4.512,0,0,1,18.68-4.3v.164a4.519,4.519,0,0,1-1.059,3.105A3.7,3.7,0,0,1,14.7.164a3.709,3.709,0,0,1-2.934-1.2A4.519,4.519,0,0,1,10.7-4.141Zm2.273.164a3.677,3.677,0,0,0,.406,1.855,1.4,1.4,0,0,0,1.313.7,1.389,1.389,0,0,0,1.293-.7,3.653,3.653,0,0,0,.41-1.852V-4.3a3.616,3.616,0,0,0-.414-1.836,1.4,1.4,0,0,0-1.3-.711,1.384,1.384,0,0,0-1.293.715,3.648,3.648,0,0,0-.41,1.832Zm9.2-4.312.1,1.211A3.092,3.092,0,0,1,23.313-8.25,2.7,2.7,0,0,1,24.7-8.609a2.513,2.513,0,0,1,2,.824,3.908,3.908,0,0,1,.719,2.605V0H25.125V-5.172a2.024,2.024,0,0,0-.316-1.285,1.166,1.166,0,0,0-.949-.379,1.992,1.992,0,0,0-.895.191,1.746,1.746,0,0,0-.637.527V0H20.047V-8.453Zm9.68-2.07v2.07h1.43v1.6h-1.43v4.3a.982.982,0,0,0,.207.7.727.727,0,0,0,.543.211,2.178,2.178,0,0,0,.313-.02,2.632,2.632,0,0,0,.3-.066L33.406-.07a4.618,4.618,0,0,1-.668.176,3.982,3.982,0,0,1-.707.059,2.431,2.431,0,0,1-1.816-.648,2.843,2.843,0,0,1-.637-2.055V-6.852H28.344v-1.6h1.234v-2.07ZM39.672,0a4.8,4.8,0,0,1-.215-.609,4.239,4.239,0,0,1-.129-.656A3.127,3.127,0,0,1,38.4-.242a2.33,2.33,0,0,1-1.375.406A2.855,2.855,0,0,1,34.977-.52a2.449,2.449,0,0,1-.719-1.863,2.229,2.229,0,0,1,.957-1.926,4.78,4.78,0,0,1,2.793-.684h1.281v-.672a1.315,1.315,0,0,0-.32-.945,1.257,1.257,0,0,0-.953-.336,1.239,1.239,0,0,0-.855.27.941.941,0,0,0-.3.738h-2.2l-.016-.047a2.144,2.144,0,0,1,.934-1.848,4.055,4.055,0,0,1,2.582-.777,3.784,3.784,0,0,1,2.465.766,2.667,2.667,0,0,1,.941,2.2v3.492a6.605,6.605,0,0,0,.09,1.117A5.606,5.606,0,0,0,41.945,0ZM37.586-1.523a1.944,1.944,0,0,0,1.063-.3,1.6,1.6,0,0,0,.641-.687V-3.7H38.008a1.519,1.519,0,0,0-1.1.359,1.181,1.181,0,0,0-.371.883.881.881,0,0,0,.277.684A1.1,1.1,0,0,0,37.586-1.523Zm13.32-2.469a4.945,4.945,0,0,1-.844,3.023A2.854,2.854,0,0,1,47.625.164a2.576,2.576,0,0,1-1.293-.312,2.672,2.672,0,0,1-.934-.914L45.211,0h-1.93V-12.187h2.273v4.633a2.582,2.582,0,0,1,.879-.781,2.457,2.457,0,0,1,1.176-.273,2.8,2.8,0,0,1,2.453,1.215,5.577,5.577,0,0,1,.844,3.238Zm-2.273-.164a4.4,4.4,0,0,0-.363-1.957,1.275,1.275,0,0,0-1.238-.723,1.7,1.7,0,0,0-.9.223,1.543,1.543,0,0,0-.578.637V-2.4a1.449,1.449,0,0,0,.582.586,1.874,1.874,0,0,0,.91.2,1.3,1.3,0,0,0,1.234-.621,3.618,3.618,0,0,0,.352-1.762ZM54.711,0H52.43V-8.453h2.281Zm0-10.477H52.43v-1.711h2.281ZM58.984,0H56.7V-12.187h2.281Zm4.273,0H60.977V-8.453h2.281Zm0-10.477H60.977v-1.711h2.281Zm1.523,6.32a5.493,5.493,0,0,1,.863-3.227,2.8,2.8,0,0,1,2.434-1.227,2.367,2.367,0,0,1,1.141.273,2.744,2.744,0,0,1,.891.781v-4.633H72.4V0H70.453l-.2-1.039a2.826,2.826,0,0,1-.945.895,2.5,2.5,0,0,1-1.25.309A2.858,2.858,0,0,1,65.645-.977a4.871,4.871,0,0,1-.863-3.016Zm2.273.164a3.443,3.443,0,0,0,.375,1.746,1.306,1.306,0,0,0,1.219.637,1.775,1.775,0,0,0,.859-.2,1.589,1.589,0,0,0,.6-.582v-3.6a1.756,1.756,0,0,0-.6-.621,1.589,1.589,0,0,0-.848-.223,1.287,1.287,0,0,0-1.223.742,4.194,4.194,0,0,0-.387,1.938ZM79.148,0a4.8,4.8,0,0,1-.215-.609,4.238,4.238,0,0,1-.129-.656,3.127,3.127,0,0,1-.93,1.023A2.33,2.33,0,0,1,76.5.164,2.855,2.855,0,0,1,74.453-.52a2.449,2.449,0,0,1-.719-1.863,2.229,2.229,0,0,1,.957-1.926,4.78,4.78,0,0,1,2.793-.684h1.281v-.672a1.315,1.315,0,0,0-.32-.945,1.257,1.257,0,0,0-.953-.336,1.239,1.239,0,0,0-.855.27.941.941,0,0,0-.3.738h-2.2l-.016-.047a2.144,2.144,0,0,1,.934-1.848,4.055,4.055,0,0,1,2.582-.777,3.784,3.784,0,0,1,2.465.766,2.667,2.667,0,0,1,.941,2.2v3.492a6.6,6.6,0,0,0,.09,1.117A5.606,5.606,0,0,0,81.422,0ZM77.063-1.523a1.944,1.944,0,0,0,1.063-.3,1.6,1.6,0,0,0,.641-.687V-3.7H77.484a1.519,1.519,0,0,0-1.1.359,1.181,1.181,0,0,0-.371.883.881.881,0,0,0,.277.684A1.1,1.1,0,0,0,77.063-1.523Zm5.344-2.633a5.493,5.493,0,0,1,.863-3.227A2.8,2.8,0,0,1,85.7-8.609a2.367,2.367,0,0,1,1.141.273,2.744,2.744,0,0,1,.891.781v-4.633h2.289V0H88.078l-.2-1.039a2.826,2.826,0,0,1-.945.895,2.5,2.5,0,0,1-1.25.309A2.858,2.858,0,0,1,83.27-.977a4.871,4.871,0,0,1-.863-3.016Zm2.273.164a3.443,3.443,0,0,0,.375,1.746,1.306,1.306,0,0,0,1.219.637,1.775,1.775,0,0,0,.859-.2,1.589,1.589,0,0,0,.6-.582v-3.6a1.756,1.756,0,0,0-.6-.621,1.589,1.589,0,0,0-.848-.223,1.287,1.287,0,0,0-1.223.742,4.194,4.194,0,0,0-.387,1.938Z" transform="translate(1214 12268.889)" fill="#fff"/>
    <path id="Trazado_884007" data-name="Trazado 884007" d="M0,0V706.122" transform="translate(491 12297.257)" fill="none" stroke="#cdcdcd" stroke-width="1"/>
    <path id="Trazado_884008" data-name="Trazado 884008" d="M0,0V55" transform="translate(491 12241.889)" fill="none" stroke="#cdcdcd" stroke-width="1"/>
    <path id="Trazado_884009" data-name="Trazado 884009" d="M0,0V706.122" transform="translate(802 12297.257)" fill="none" stroke="#cdcdcd" stroke-width="1"/>
    <path id="Trazado_884010" data-name="Trazado 884010" d="M0,0V55" transform="translate(802 12241.889)" fill="none" stroke="#cdcdcd" stroke-width="1"/>
    <path id="Trazado_884011" data-name="Trazado 884011" d="M0,0V706.122" transform="translate(1112 12297.257)" fill="none" stroke="#cdcdcd" stroke-width="1"/>
    <path id="Trazado_884012" data-name="Trazado 884012" d="M0,0V55" transform="translate(1112 12241.889)" fill="none" stroke="#cdcdcd" stroke-width="1"/>
    <path id="Trazado_884013" data-name="Trazado 884013" d="M6.977-2.969A1.33,1.33,0,0,0,6.52-4.023a4.592,4.592,0,0,0-1.605-.75,9.124,9.124,0,0,1-2.988-1.4,2.646,2.646,0,0,1-1.02-2.2,2.761,2.761,0,0,1,1.148-2.285,4.654,4.654,0,0,1,2.93-.887,4.621,4.621,0,0,1,3.043.953,2.982,2.982,0,0,1,1.113,2.5l-.016.047H6.914A1.657,1.657,0,0,0,6.4-9.348,2.106,2.106,0,0,0,4.953-9.8a1.91,1.91,0,0,0-1.3.406,1.323,1.323,0,0,0-.461,1.039,1.135,1.135,0,0,0,.5.949,6.689,6.689,0,0,0,1.727.785A7.429,7.429,0,0,1,8.273-5.238a2.841,2.841,0,0,1,.984,2.254A2.713,2.713,0,0,1,8.117-.68,4.952,4.952,0,0,1,5.1.164,5.388,5.388,0,0,1,1.949-.75,3.015,3.015,0,0,1,.672-3.477l.016-.047H2.9a1.79,1.79,0,0,0,.594,1.484A2.5,2.5,0,0,0,5.1-1.562,2.2,2.2,0,0,0,6.5-1.945,1.242,1.242,0,0,0,6.977-2.969ZM10.414-4.3a4.536,4.536,0,0,1,1.055-3.1,3.676,3.676,0,0,1,2.922-1.207,3.715,3.715,0,0,1,2.938,1.2,4.512,4.512,0,0,1,1.063,3.1v.164a4.519,4.519,0,0,1-1.059,3.105,3.7,3.7,0,0,1-2.926,1.2,3.709,3.709,0,0,1-2.934-1.2,4.519,4.519,0,0,1-1.059-3.105Zm2.273.164a3.677,3.677,0,0,0,.406,1.855,1.4,1.4,0,0,0,1.313.7,1.389,1.389,0,0,0,1.293-.7,3.653,3.653,0,0,0,.41-1.852V-4.3A3.616,3.616,0,0,0,15.7-6.141a1.4,1.4,0,0,0-1.3-.711,1.384,1.384,0,0,0-1.293.715,3.648,3.648,0,0,0-.41,1.832ZM22.2,0H19.914V-12.187H22.2Zm4.273,0H24.188V-8.453h2.281Zm0-10.477H24.188v-1.711h2.281Zm5.406,8.891a1.27,1.27,0,0,0,.945-.355,1.291,1.291,0,0,0,.352-.949H35.25l.016.047A2.645,2.645,0,0,1,34.313-.7a3.564,3.564,0,0,1-2.437.863,3.6,3.6,0,0,1-2.9-1.2A4.558,4.558,0,0,1,27.953-4.1v-.234A4.588,4.588,0,0,1,28.973-7.4a3.57,3.57,0,0,1,2.887-1.207,3.486,3.486,0,0,1,2.492.891,2.976,2.976,0,0,1,.914,2.344l-.016.047H33.172a1.687,1.687,0,0,0-.348-1.09,1.168,1.168,0,0,0-.965-.434,1.3,1.3,0,0,0-1.254.707,3.878,3.878,0,0,0-.371,1.809V-4.1a3.863,3.863,0,0,0,.371,1.82A1.32,1.32,0,0,0,31.875-1.586ZM38.992,0H36.711V-8.453h2.281Zm0-10.477H36.711v-1.711h2.281Zm4.609-.047v2.07h1.43v1.6H43.6v4.3a.982.982,0,0,0,.207.7.727.727,0,0,0,.543.211,2.178,2.178,0,0,0,.313-.02,2.632,2.632,0,0,0,.3-.066L45.156-.07a4.618,4.618,0,0,1-.668.176,3.982,3.982,0,0,1-.707.059,2.431,2.431,0,0,1-1.816-.648,2.843,2.843,0,0,1-.637-2.055V-6.852H40.094v-1.6h1.234v-2.07ZM51.617-1.25A2.87,2.87,0,0,1,50.625-.2a2.63,2.63,0,0,1-1.4.367,2.57,2.57,0,0,1-2.09-.906,4.347,4.347,0,0,1-.754-2.812v-4.9h2.273v4.914a2.729,2.729,0,0,0,.3,1.52,1.081,1.081,0,0,0,.934.41,2.273,2.273,0,0,0,.938-.176,1.58,1.58,0,0,0,.641-.52V-8.453H53.75V0H51.859Zm3.5-2.906a5.493,5.493,0,0,1,.863-3.227,2.8,2.8,0,0,1,2.434-1.227,2.367,2.367,0,0,1,1.141.273,2.744,2.744,0,0,1,.891.781v-4.633h2.289V0H60.789l-.2-1.039a2.826,2.826,0,0,1-.945.895A2.5,2.5,0,0,1,58.4.164,2.858,2.858,0,0,1,55.98-.977a4.871,4.871,0,0,1-.863-3.016Zm2.273.164a3.443,3.443,0,0,0,.375,1.746,1.306,1.306,0,0,0,1.219.637,1.775,1.775,0,0,0,.859-.2,1.589,1.589,0,0,0,.6-.582v-3.6a1.756,1.756,0,0,0-.6-.621A1.589,1.589,0,0,0,59-6.836a1.287,1.287,0,0,0-1.223.742,4.194,4.194,0,0,0-.387,1.938Zm10.742-.164A5.493,5.493,0,0,1,69-7.383,2.8,2.8,0,0,1,71.43-8.609a2.367,2.367,0,0,1,1.141.273,2.744,2.744,0,0,1,.891.781v-4.633H75.75V0H73.8l-.2-1.039a2.826,2.826,0,0,1-.945.895,2.5,2.5,0,0,1-1.25.309A2.858,2.858,0,0,1,69-.977a4.871,4.871,0,0,1-.863-3.016Zm2.273.164a3.443,3.443,0,0,0,.375,1.746A1.306,1.306,0,0,0,72-1.609a1.775,1.775,0,0,0,.859-.2,1.589,1.589,0,0,0,.6-.582v-3.6a1.756,1.756,0,0,0-.6-.621,1.589,1.589,0,0,0-.848-.223,1.287,1.287,0,0,0-1.223.742,4.194,4.194,0,0,0-.387,1.938ZM81.18.164A3.8,3.8,0,0,1,78.227-1a4.252,4.252,0,0,1-1.062-2.988V-4.3A4.628,4.628,0,0,1,78.2-7.406a3.506,3.506,0,0,1,2.836-1.2,3.282,3.282,0,0,1,2.613,1.043,4.122,4.122,0,0,1,.91,2.809v1.18H79.516l-.023.047a2.284,2.284,0,0,0,.527,1.406,1.766,1.766,0,0,0,1.4.539,4.692,4.692,0,0,0,1.3-.156,5.307,5.307,0,0,0,1.105-.477l.617,1.406a4.234,4.234,0,0,1-1.375.7A6.1,6.1,0,0,1,81.18.164Zm-.148-7.016a1.267,1.267,0,0,0-1.059.473,2.371,2.371,0,0,0-.449,1.254l.016.039H82.32v-.172a1.974,1.974,0,0,0-.3-1.168A1.127,1.127,0,0,0,81.031-6.852ZM93.4-1.586a1.27,1.27,0,0,0,.945-.355,1.291,1.291,0,0,0,.352-.949h2.078l.016.047A2.645,2.645,0,0,1,95.836-.7,3.564,3.564,0,0,1,93.4.164a3.6,3.6,0,0,1-2.9-1.2A4.558,4.558,0,0,1,89.477-4.1v-.234A4.588,4.588,0,0,1,90.5-7.4a3.57,3.57,0,0,1,2.887-1.207,3.486,3.486,0,0,1,2.492.891,2.976,2.976,0,0,1,.914,2.344l-.016.047H94.7a1.687,1.687,0,0,0-.348-1.09,1.168,1.168,0,0,0-.965-.434,1.3,1.3,0,0,0-1.254.707,3.878,3.878,0,0,0-.371,1.809V-4.1a3.863,3.863,0,0,0,.371,1.82A1.32,1.32,0,0,0,93.4-1.586ZM100.516,0H98.234V-12.187h2.281Zm4.273,0h-2.281V-8.453h2.281Zm0-10.477h-2.281v-1.711h2.281ZM110.328.164A3.8,3.8,0,0,1,107.375-1a4.252,4.252,0,0,1-1.062-2.988V-4.3a4.628,4.628,0,0,1,1.031-3.109,3.506,3.506,0,0,1,2.836-1.2,3.282,3.282,0,0,1,2.613,1.043,4.122,4.122,0,0,1,.91,2.809v1.18h-5.039l-.023.047a2.284,2.284,0,0,0,.527,1.406,1.766,1.766,0,0,0,1.4.539,4.692,4.692,0,0,0,1.3-.156,5.307,5.307,0,0,0,1.105-.477l.617,1.406a4.234,4.234,0,0,1-1.375.7A6.1,6.1,0,0,1,110.328.164Zm-.148-7.016a1.267,1.267,0,0,0-1.059.473,2.371,2.371,0,0,0-.449,1.254l.016.039h2.781v-.172a1.974,1.974,0,0,0-.3-1.168A1.127,1.127,0,0,0,110.18-6.852Zm6.938-1.6.1,1.211a3.092,3.092,0,0,1,1.039-1.008,2.7,2.7,0,0,1,1.383-.359,2.513,2.513,0,0,1,2,.824,3.908,3.908,0,0,1,.719,2.605V0H120.07V-5.172a2.024,2.024,0,0,0-.316-1.285,1.166,1.166,0,0,0-.949-.379,1.992,1.992,0,0,0-.895.191,1.746,1.746,0,0,0-.637.527V0h-2.281V-8.453Zm9.68-2.07v2.07h1.43v1.6H126.8v4.3a.982.982,0,0,0,.207.7.727.727,0,0,0,.543.211,2.178,2.178,0,0,0,.313-.02,2.632,2.632,0,0,0,.3-.066l.188,1.648a4.618,4.618,0,0,1-.668.176,3.982,3.982,0,0,1-.707.059,2.431,2.431,0,0,1-1.816-.648,2.843,2.843,0,0,1-.637-2.055V-6.852h-1.234v-1.6h1.234v-2.07ZM133.3.164A3.8,3.8,0,0,1,130.344-1a4.252,4.252,0,0,1-1.062-2.988V-4.3a4.628,4.628,0,0,1,1.031-3.109,3.506,3.506,0,0,1,2.836-1.2,3.282,3.282,0,0,1,2.613,1.043,4.122,4.122,0,0,1,.91,2.809v1.18h-5.039l-.023.047a2.284,2.284,0,0,0,.527,1.406,1.766,1.766,0,0,0,1.4.539,4.692,4.692,0,0,0,1.3-.156,5.307,5.307,0,0,0,1.105-.477l.617,1.406a4.234,4.234,0,0,1-1.375.7A6.1,6.1,0,0,1,133.3.164Zm-.148-7.016a1.267,1.267,0,0,0-1.059.473,2.371,2.371,0,0,0-.449,1.254l.016.039h2.781v-.172a1.974,1.974,0,0,0-.3-1.168A1.127,1.127,0,0,0,133.148-6.852Z" transform="translate(268 12268.889)" fill="#fff"/>
    <path id="Trazado_884014" data-name="Trazado 884014" d="M6.977-2.969A1.33,1.33,0,0,0,6.52-4.023a4.592,4.592,0,0,0-1.605-.75,9.124,9.124,0,0,1-2.988-1.4,2.646,2.646,0,0,1-1.02-2.2,2.761,2.761,0,0,1,1.148-2.285,4.654,4.654,0,0,1,2.93-.887,4.621,4.621,0,0,1,3.043.953,2.982,2.982,0,0,1,1.113,2.5l-.016.047H6.914A1.657,1.657,0,0,0,6.4-9.348,2.106,2.106,0,0,0,4.953-9.8a1.91,1.91,0,0,0-1.3.406,1.323,1.323,0,0,0-.461,1.039,1.135,1.135,0,0,0,.5.949,6.689,6.689,0,0,0,1.727.785A7.429,7.429,0,0,1,8.273-5.238a2.841,2.841,0,0,1,.984,2.254A2.713,2.713,0,0,1,8.117-.68,4.952,4.952,0,0,1,5.1.164,5.388,5.388,0,0,1,1.949-.75,3.015,3.015,0,0,1,.672-3.477l.016-.047H2.9a1.79,1.79,0,0,0,.594,1.484A2.5,2.5,0,0,0,5.1-1.562,2.2,2.2,0,0,0,6.5-1.945,1.242,1.242,0,0,0,6.977-2.969ZM15.945-1.25A2.87,2.87,0,0,1,14.953-.2a2.63,2.63,0,0,1-1.4.367,2.57,2.57,0,0,1-2.09-.906,4.347,4.347,0,0,1-.754-2.812v-4.9h2.273v4.914a2.729,2.729,0,0,0,.3,1.52,1.081,1.081,0,0,0,.934.41,2.273,2.273,0,0,0,.938-.176A1.58,1.58,0,0,0,15.8-2.3V-8.453h2.281V0H16.188ZM27.422-3.992a4.945,4.945,0,0,1-.844,3.023A2.854,2.854,0,0,1,24.141.164a2.576,2.576,0,0,1-1.293-.312,2.672,2.672,0,0,1-.934-.914L21.727,0H19.8V-12.187H22.07v4.633a2.582,2.582,0,0,1,.879-.781,2.457,2.457,0,0,1,1.176-.273,2.8,2.8,0,0,1,2.453,1.215,5.577,5.577,0,0,1,.844,3.238Zm-2.273-.164a4.4,4.4,0,0,0-.363-1.957,1.275,1.275,0,0,0-1.238-.723,1.7,1.7,0,0,0-.9.223,1.543,1.543,0,0,0-.578.637V-2.4a1.449,1.449,0,0,0,.582.586,1.874,1.874,0,0,0,.91.2A1.3,1.3,0,0,0,24.8-2.23a3.618,3.618,0,0,0,.352-1.762Zm11.3.164a4.855,4.855,0,0,1-.867,3.016A2.869,2.869,0,0,1,33.164.164a2.707,2.707,0,0,1-1.18-.246A2.423,2.423,0,0,1,31.1-.8V3.25H28.828v-11.7h2.055l.133,1a2.709,2.709,0,0,1,.9-.855,2.441,2.441,0,0,1,1.23-.3,2.813,2.813,0,0,1,2.438,1.227,5.474,5.474,0,0,1,.867,3.227Zm-2.281-.164a4.09,4.09,0,0,0-.4-1.937,1.3,1.3,0,0,0-1.219-.742,1.722,1.722,0,0,0-.879.211,1.505,1.505,0,0,0-.574.6v3.7a1.4,1.4,0,0,0,.574.547,1.935,1.935,0,0,0,.895.188,1.312,1.312,0,0,0,1.215-.648,3.423,3.423,0,0,0,.387-1.758ZM42.3-6.492l-.836-.023a1.519,1.519,0,0,0-.836.211,1.337,1.337,0,0,0-.5.594V0H37.859V-8.453h2.117l.1,1.25a2.667,2.667,0,0,1,.77-1.035,1.715,1.715,0,0,1,1.09-.371,1.705,1.705,0,0,1,.316.027q.145.027.293.066Zm.68,2.188a4.536,4.536,0,0,1,1.055-3.1,3.676,3.676,0,0,1,2.922-1.207,3.715,3.715,0,0,1,2.938,1.2,4.512,4.512,0,0,1,1.063,3.1v.164A4.519,4.519,0,0,1,49.9-1.035a3.7,3.7,0,0,1-2.926,1.2,3.709,3.709,0,0,1-2.934-1.2,4.519,4.519,0,0,1-1.059-3.105Zm2.273.164a3.677,3.677,0,0,0,.406,1.855,1.4,1.4,0,0,0,1.313.7,1.389,1.389,0,0,0,1.293-.7,3.653,3.653,0,0,0,.41-1.852V-4.3a3.616,3.616,0,0,0-.414-1.836,1.4,1.4,0,0,0-1.3-.711,1.384,1.384,0,0,0-1.293.715,3.648,3.648,0,0,0-.41,1.832ZM55.9-1.586a1.27,1.27,0,0,0,.945-.355,1.291,1.291,0,0,0,.352-.949h2.078l.016.047A2.645,2.645,0,0,1,58.336-.7,3.564,3.564,0,0,1,55.9.164a3.6,3.6,0,0,1-2.9-1.2A4.558,4.558,0,0,1,51.977-4.1v-.234A4.588,4.588,0,0,1,53-7.4a3.57,3.57,0,0,1,2.887-1.207,3.486,3.486,0,0,1,2.492.891,2.976,2.976,0,0,1,.914,2.344l-.016.047H57.2a1.687,1.687,0,0,0-.348-1.09,1.168,1.168,0,0,0-.965-.434,1.3,1.3,0,0,0-1.254.707,3.878,3.878,0,0,0-.371,1.809V-4.1a3.863,3.863,0,0,0,.371,1.82A1.32,1.32,0,0,0,55.9-1.586ZM64.281.164A3.8,3.8,0,0,1,61.328-1a4.252,4.252,0,0,1-1.062-2.988V-4.3A4.628,4.628,0,0,1,61.3-7.406a3.506,3.506,0,0,1,2.836-1.2,3.282,3.282,0,0,1,2.613,1.043,4.122,4.122,0,0,1,.91,2.809v1.18H62.617l-.023.047a2.284,2.284,0,0,0,.527,1.406,1.766,1.766,0,0,0,1.4.539,4.692,4.692,0,0,0,1.3-.156,5.307,5.307,0,0,0,1.105-.477l.617,1.406a4.234,4.234,0,0,1-1.375.7A6.1,6.1,0,0,1,64.281.164Zm-.148-7.016a1.267,1.267,0,0,0-1.059.473,2.371,2.371,0,0,0-.449,1.254l.016.039h2.781v-.172a1.974,1.974,0,0,0-.3-1.168A1.127,1.127,0,0,0,64.133-6.852Zm9.422,4.508a.787.787,0,0,0-.363-.645,3.69,3.69,0,0,0-1.348-.473,5.375,5.375,0,0,1-2.254-.9,1.962,1.962,0,0,1-.77-1.633,2.329,2.329,0,0,1,.922-1.852A3.717,3.717,0,0,1,72.2-8.609a4.011,4.011,0,0,1,2.566.766,2.237,2.237,0,0,1,.926,1.906l-.016.047h-2.2a1.106,1.106,0,0,0-.328-.828,1.3,1.3,0,0,0-.945-.32,1.292,1.292,0,0,0-.867.273.85.85,0,0,0-.32.672.759.759,0,0,0,.332.637,3.7,3.7,0,0,0,1.348.441A5.484,5.484,0,0,1,75-4.1a2.014,2.014,0,0,1,.762,1.668,2.231,2.231,0,0,1-.977,1.867,4.215,4.215,0,0,1-2.578.727,3.918,3.918,0,0,1-2.668-.855,2.392,2.392,0,0,1-.934-1.949l.016-.047h2.086a1.186,1.186,0,0,0,.445.984,1.838,1.838,0,0,0,1.1.3,1.567,1.567,0,0,0,.965-.254A.824.824,0,0,0,73.555-2.344ZM76.883-4.3a4.536,4.536,0,0,1,1.055-3.1,3.676,3.676,0,0,1,2.922-1.207,3.715,3.715,0,0,1,2.938,1.2,4.512,4.512,0,0,1,1.063,3.1v.164A4.519,4.519,0,0,1,83.8-1.035a3.7,3.7,0,0,1-2.926,1.2,3.709,3.709,0,0,1-2.934-1.2,4.519,4.519,0,0,1-1.059-3.105Zm2.273.164a3.677,3.677,0,0,0,.406,1.855,1.4,1.4,0,0,0,1.313.7,1.389,1.389,0,0,0,1.293-.7,3.653,3.653,0,0,0,.41-1.852V-4.3a3.616,3.616,0,0,0-.414-1.836,1.4,1.4,0,0,0-1.3-.711,1.384,1.384,0,0,0-1.293.715,3.648,3.648,0,0,0-.41,1.832Z" transform="translate(757 12229.889)" fill="#fff"/>
    <path id="Trazado_884015" data-name="Trazado 884015" d="M6.977-2.453H3.289L2.523,0H.141L3.977-11.375H6.313L10.133,0H7.75ZM3.852-4.242h2.57L5.164-8.25H5.117ZM13.453,0H11.172V-12.187h2.281Zm3.992-8.453.094,1.117a2.84,2.84,0,0,1,1.02-.941,2.932,2.932,0,0,1,1.418-.332,2.582,2.582,0,0,1,1.391.359,2.217,2.217,0,0,1,.875,1.086,2.93,2.93,0,0,1,1.016-1.062,2.756,2.756,0,0,1,1.469-.383,2.408,2.408,0,0,1,1.973.887,4.233,4.233,0,0,1,.723,2.707V0H25.141V-5.023a2.369,2.369,0,0,0-.312-1.414,1.109,1.109,0,0,0-.93-.4,1.592,1.592,0,0,0-.84.215,1.565,1.565,0,0,0-.566.6q0,.148.008.254t.008.215V0H20.234V-5.023a2.376,2.376,0,0,0-.312-1.4,1.1,1.1,0,0,0-.937-.41,1.769,1.769,0,0,0-.809.176,1.551,1.551,0,0,0-.574.5V0H15.328V-8.453ZM34.156,0a4.8,4.8,0,0,1-.215-.609,4.239,4.239,0,0,1-.129-.656,3.127,3.127,0,0,1-.93,1.023,2.33,2.33,0,0,1-1.375.406A2.855,2.855,0,0,1,29.461-.52a2.449,2.449,0,0,1-.719-1.863A2.229,2.229,0,0,1,29.7-4.309a4.78,4.78,0,0,1,2.793-.684h1.281v-.672a1.315,1.315,0,0,0-.32-.945,1.257,1.257,0,0,0-.953-.336,1.239,1.239,0,0,0-.855.27.941.941,0,0,0-.3.738h-2.2l-.016-.047a2.144,2.144,0,0,1,.934-1.848,4.055,4.055,0,0,1,2.582-.777,3.784,3.784,0,0,1,2.465.766,2.667,2.667,0,0,1,.941,2.2v3.492a6.605,6.605,0,0,0,.09,1.117A5.606,5.606,0,0,0,36.43,0ZM32.07-1.523a1.944,1.944,0,0,0,1.063-.3,1.6,1.6,0,0,0,.641-.687V-3.7H32.492a1.519,1.519,0,0,0-1.1.359,1.181,1.181,0,0,0-.371.883.881.881,0,0,0,.277.684A1.1,1.1,0,0,0,32.07-1.523ZM41.3-1.586a1.27,1.27,0,0,0,.945-.355,1.291,1.291,0,0,0,.352-.949h2.078l.016.047A2.645,2.645,0,0,1,43.734-.7,3.564,3.564,0,0,1,41.3.164a3.6,3.6,0,0,1-2.9-1.2A4.558,4.558,0,0,1,37.375-4.1v-.234A4.588,4.588,0,0,1,38.395-7.4a3.57,3.57,0,0,1,2.887-1.207,3.486,3.486,0,0,1,2.492.891,2.976,2.976,0,0,1,.914,2.344l-.016.047H42.594a1.687,1.687,0,0,0-.348-1.09,1.168,1.168,0,0,0-.965-.434,1.3,1.3,0,0,0-1.254.707,3.878,3.878,0,0,0-.371,1.809V-4.1a3.863,3.863,0,0,0,.371,1.82A1.32,1.32,0,0,0,41.3-1.586ZM49.68.164A3.8,3.8,0,0,1,46.727-1a4.252,4.252,0,0,1-1.062-2.988V-4.3A4.628,4.628,0,0,1,46.7-7.406a3.506,3.506,0,0,1,2.836-1.2,3.282,3.282,0,0,1,2.613,1.043,4.122,4.122,0,0,1,.91,2.809v1.18H48.016l-.023.047a2.284,2.284,0,0,0,.527,1.406,1.766,1.766,0,0,0,1.4.539,4.692,4.692,0,0,0,1.3-.156,5.307,5.307,0,0,0,1.105-.477l.617,1.406a4.234,4.234,0,0,1-1.375.7A6.1,6.1,0,0,1,49.68.164Zm-.148-7.016a1.267,1.267,0,0,0-1.059.473,2.371,2.371,0,0,0-.449,1.254l.016.039H50.82v-.172a1.974,1.974,0,0,0-.3-1.168A1.127,1.127,0,0,0,49.531-6.852ZM49.8-12.07h2.539l.016.047L50.2-9.992H48.25Zm6.664,3.617.1,1.211A3.092,3.092,0,0,1,57.609-8.25a2.7,2.7,0,0,1,1.383-.359,2.513,2.513,0,0,1,2,.824,3.908,3.908,0,0,1,.719,2.605V0H59.422V-5.172a2.024,2.024,0,0,0-.316-1.285,1.166,1.166,0,0,0-.949-.379,1.992,1.992,0,0,0-.895.191,1.746,1.746,0,0,0-.637.527V0H54.344V-8.453Z" transform="translate(616 12268.889)" fill="#fff"/>
    <path id="Trazado_884016" data-name="Trazado 884016" d="M4,0H132a4,4,0,0,1,4,4V35a4,4,0,0,1-4,4H4a4,4,0,0,1-4-4V4A4,4,0,0,1,4,0Z" transform="translate(269 12395.728)" fill="#aec4fa"/>
    <path id="Trazado_884017" data-name="Trazado 884017" d="M9.508-1.531A3.66,3.66,0,0,1,8.1-.367,5.561,5.561,0,0,1,5.492.164a4.388,4.388,0,0,1-3.258-1.3A4.6,4.6,0,0,1,.945-4.516V-6.859a4.694,4.694,0,0,1,1.242-3.375,4.225,4.225,0,0,1,3.2-1.3,4.264,4.264,0,0,1,3,1.012,3.247,3.247,0,0,1,1.07,2.574l-.016.047H7.969A2.384,2.384,0,0,0,7.3-9.637a2.536,2.536,0,0,0-1.906-.691,2.579,2.579,0,0,0-2.1.977,3.789,3.789,0,0,0-.8,2.477v2.359a3.691,3.691,0,0,0,.844,2.5,2.718,2.718,0,0,0,2.156.98A4.011,4.011,0,0,0,7.09-1.3a2.3,2.3,0,0,0,.879-.621V-4.484H5.391v-1.2H9.508Zm5.945,1.7A3.576,3.576,0,0,1,12.613-1a4.48,4.48,0,0,1-1.02-3.062v-.344a4.386,4.386,0,0,1,1.051-3.012,3.3,3.3,0,0,1,2.566-1.191,3.067,3.067,0,0,1,2.543,1.055,4.345,4.345,0,0,1,.848,2.8v.813H13.2l-.023.039a3.494,3.494,0,0,0,.563,2.066,1.965,1.965,0,0,0,1.719.793,3.872,3.872,0,0,0,1.371-.223,3.061,3.061,0,0,0,1.012-.613l.6,1a3.7,3.7,0,0,1-1.2.738A4.762,4.762,0,0,1,15.453.164ZM15.211-7.4a1.673,1.673,0,0,0-1.332.621,2.938,2.938,0,0,0-.645,1.59l.016.039h3.813v-.125A2.462,2.462,0,0,0,16.609-6.8,1.638,1.638,0,0,0,15.211-7.4ZM21.7-8.453,21.813-7.2a3.069,3.069,0,0,1,1.059-1.043,2.824,2.824,0,0,1,1.449-.371,2.759,2.759,0,0,1,2.117.8,3.515,3.515,0,0,1,.75,2.473V0H25.648V-5.3a2.287,2.287,0,0,0-.441-1.586,1.768,1.768,0,0,0-1.348-.469,2.386,2.386,0,0,0-1.207.285,2.072,2.072,0,0,0-.785.8V0H20.328V-8.453ZM32.922.164A3.576,3.576,0,0,1,30.082-1a4.48,4.48,0,0,1-1.02-3.062v-.344a4.386,4.386,0,0,1,1.051-3.012A3.3,3.3,0,0,1,32.68-8.609a3.067,3.067,0,0,1,2.543,1.055,4.345,4.345,0,0,1,.848,2.8v.813H30.664l-.023.039A3.494,3.494,0,0,0,31.2-1.832a1.965,1.965,0,0,0,1.719.793,3.872,3.872,0,0,0,1.371-.223A3.061,3.061,0,0,0,35.3-1.875l.6,1a3.7,3.7,0,0,1-1.2.738A4.762,4.762,0,0,1,32.922.164ZM32.68-7.4a1.673,1.673,0,0,0-1.332.621,2.938,2.938,0,0,0-.645,1.59l.016.039h3.813v-.125A2.462,2.462,0,0,0,34.078-6.8,1.638,1.638,0,0,0,32.68-7.4Zm9.117.3-.789-.047a1.762,1.762,0,0,0-1.027.289,1.855,1.855,0,0,0-.645.813V0H37.8V-8.453h1.375l.148,1.234a2.934,2.934,0,0,1,.887-1.023,2.073,2.073,0,0,1,1.215-.367,1.9,1.9,0,0,1,.328.027,2.175,2.175,0,0,1,.258.059ZM48.594,0q-.078-.383-.121-.676a4.96,4.96,0,0,1-.051-.59A3.589,3.589,0,0,1,47.3-.246a2.867,2.867,0,0,1-1.488.41A2.763,2.763,0,0,1,43.8-.512a2.486,2.486,0,0,1-.691-1.863,2.183,2.183,0,0,1,.98-1.895,4.579,4.579,0,0,1,2.66-.684h1.672v-.836a1.551,1.551,0,0,0-.453-1.176A1.779,1.779,0,0,0,46.688-7.4a1.859,1.859,0,0,0-1.211.375,1.125,1.125,0,0,0-.461.9l-1.461.016-.016-.047A2.023,2.023,0,0,1,44.4-7.844a3.578,3.578,0,0,1,2.371-.766,3.49,3.49,0,0,1,2.313.73,2.588,2.588,0,0,1,.875,2.105V-1.7a7.923,7.923,0,0,0,.047.875A4.5,4.5,0,0,0,50.18,0ZM46.039-1.125a2.739,2.739,0,0,0,1.508-.43,2.042,2.042,0,0,0,.875-.984V-3.914H46.7a2.24,2.24,0,0,0-1.488.469,1.4,1.4,0,0,0-.559,1.1A1.159,1.159,0,0,0,45-1.453,1.472,1.472,0,0,0,46.039-1.125ZM61.086-2.273A1.026,1.026,0,0,0,60.7-3.1a3.732,3.732,0,0,0-1.465-.562,6.146,6.146,0,0,1-2.293-.9,1.814,1.814,0,0,1-.8-1.547,2.229,2.229,0,0,1,.879-1.766A3.433,3.433,0,0,1,59.3-8.609a3.4,3.4,0,0,1,2.328.781,2.239,2.239,0,0,1,.852,1.82l-.016.047H60.992a1.331,1.331,0,0,0-.48-.992A1.717,1.717,0,0,0,59.3-7.4a1.751,1.751,0,0,0-1.215.367,1.146,1.146,0,0,0-.4.875.927.927,0,0,0,.348.773,3.848,3.848,0,0,0,1.434.5,6.058,6.058,0,0,1,2.359.93,1.872,1.872,0,0,1,.8,1.57,2.226,2.226,0,0,1-.91,1.836,3.754,3.754,0,0,1-2.379.711,3.715,3.715,0,0,1-2.547-.82,2.341,2.341,0,0,1-.883-1.914l.016-.047h1.469A1.424,1.424,0,0,0,58-1.418a2.358,2.358,0,0,0,1.336.379,2.1,2.1,0,0,0,1.285-.348A1.063,1.063,0,0,0,61.086-2.273ZM64.18-4.3A4.654,4.654,0,0,1,65.2-7.395a3.406,3.406,0,0,1,2.758-1.215A3.439,3.439,0,0,1,70.73-7.4,4.639,4.639,0,0,1,71.75-4.3v.172a4.631,4.631,0,0,1-1.016,3.094,3.429,3.429,0,0,1-2.766,1.2A3.436,3.436,0,0,1,65.2-1.043a4.623,4.623,0,0,1-1.02-3.09Zm1.539.172a4.009,4.009,0,0,0,.566,2.219,1.875,1.875,0,0,0,1.684.875,1.87,1.87,0,0,0,1.672-.875,3.988,3.988,0,0,0,.57-2.219V-4.3a3.976,3.976,0,0,0-.574-2.211A1.882,1.882,0,0,0,67.953-7.4a1.856,1.856,0,0,0-1.668.883A4.018,4.018,0,0,0,65.719-4.3ZM75.3,0H73.758V-12.187H75.3Zm4.031,0H77.789V-8.453h1.539Zm0-10.617H77.789v-1.57h1.539Zm5.727,9.578A1.81,1.81,0,0,0,86.3-1.512a1.494,1.494,0,0,0,.531-1.16h1.391l.023.047A2.428,2.428,0,0,1,87.3-.684a3.313,3.313,0,0,1-2.25.848A3.319,3.319,0,0,1,82.3-1.047a4.674,4.674,0,0,1-.969-3.016v-.328a4.654,4.654,0,0,1,.973-3,3.317,3.317,0,0,1,2.746-1.215,3.189,3.189,0,0,1,2.316.875,2.775,2.775,0,0,1,.871,2.148l-.016.047h-1.4a1.865,1.865,0,0,0-.5-1.316,1.658,1.658,0,0,0-1.27-.543A1.777,1.777,0,0,0,83.4-6.52a4.114,4.114,0,0,0-.52,2.129v.328a4.192,4.192,0,0,0,.512,2.148A1.776,1.776,0,0,0,85.055-1.039ZM91.734,0H90.2V-8.453h1.539Zm0-10.617H90.2v-1.57h1.539Zm4.508.125v2.039h1.6v1.141h-1.6V-2.18a1.149,1.149,0,0,0,.246.836.89.89,0,0,0,.652.242,1.43,1.43,0,0,0,.3-.035,2.2,2.2,0,0,0,.273-.074l.211,1.055a1.36,1.36,0,0,1-.508.23,2.562,2.562,0,0,1-.664.09A1.993,1.993,0,0,1,95.258-.4,2.46,2.46,0,0,1,94.7-2.18V-7.312H93.359V-8.453H94.7v-2.039Zm8.617,9.242A2.863,2.863,0,0,1,103.836-.2a2.8,2.8,0,0,1-1.445.367,2.716,2.716,0,0,1-2.156-.883,4.1,4.1,0,0,1-.773-2.75V-8.453H101v5a3.147,3.147,0,0,0,.4,1.859,1.481,1.481,0,0,0,1.242.508A2.531,2.531,0,0,0,104-1.418a2.077,2.077,0,0,0,.809-.941V-8.453h1.539V0h-1.383Zm3.375-2.82a5.641,5.641,0,0,1,.871-3.289,2.807,2.807,0,0,1,2.441-1.25,3.027,3.027,0,0,1,1.316.273,2.7,2.7,0,0,1,.98.8v-4.648h1.539V0H114.2l-.234-1.07a2.743,2.743,0,0,1-1.023.922,3.058,3.058,0,0,1-1.414.313,2.9,2.9,0,0,1-2.422-1.121,4.659,4.659,0,0,1-.875-2.949Zm1.539.164a3.588,3.588,0,0,0,.523,2.051,1.828,1.828,0,0,0,1.625.77,2.039,2.039,0,0,0,1.156-.312,2.334,2.334,0,0,0,.766-.875V-6.219a2.37,2.37,0,0,0-.77-.832,2.033,2.033,0,0,0-1.137-.309,1.759,1.759,0,0,0-1.637.914,4.718,4.718,0,0,0-.527,2.375Z" transform="translate(281 12421.728)" fill="#12263f"/>
    <path id="Trazado_884018" data-name="Trazado 884018" d="M4,0H160a4,4,0,0,1,4,4V35a4,4,0,0,1-4,4H4a4,4,0,0,1-4-4V4A4,4,0,0,1,4,0Z" transform="translate(566 12395.728)" fill="#aec4fa"/>
    <path id="Trazado_884019" data-name="Trazado 884019" d="M4,0H160a4,4,0,0,1,4,4V35a4,4,0,0,1-4,4H4a4,4,0,0,1-4-4V4A4,4,0,0,1,4,0Z" transform="translate(872 12502.728)" fill="#aec4fa"/>
    <path id="Trazado_884020" data-name="Trazado 884020" d="M4,0H160a4,4,0,0,1,4,4V35a4,4,0,0,1-4,4H4a4,4,0,0,1-4-4V4A4,4,0,0,1,4,0Z" transform="translate(567 12727.88)" fill="#aec4fa"/>
    <path id="Trazado_884021" data-name="Trazado 884021" d="M4,0H160a4,4,0,0,1,4,4V35a4,4,0,0,1-4,4H4a4,4,0,0,1-4-4V4A4,4,0,0,1,4,0Z" transform="translate(566 12612.728)" fill="#aec4fa"/>
    <path id="Trazado_884022" data-name="Trazado 884022" d="M4.781-2.984l.258.945h.047l.258-.945,2.938-8.391H9.945L5.719,0H4.4L.172-11.375H1.844ZM14.391.164A3.576,3.576,0,0,1,11.551-1a4.48,4.48,0,0,1-1.02-3.062v-.344a4.386,4.386,0,0,1,1.051-3.012,3.3,3.3,0,0,1,2.566-1.191,3.067,3.067,0,0,1,2.543,1.055,4.345,4.345,0,0,1,.848,2.8v.813H12.133l-.023.039a3.494,3.494,0,0,0,.563,2.066,1.965,1.965,0,0,0,1.719.793,3.872,3.872,0,0,0,1.371-.223,3.061,3.061,0,0,0,1.012-.613l.6,1a3.7,3.7,0,0,1-1.2.738A4.762,4.762,0,0,1,14.391.164ZM14.148-7.4a1.673,1.673,0,0,0-1.332.621,2.938,2.938,0,0,0-.645,1.59l.016.039H16v-.125A2.462,2.462,0,0,0,15.547-6.8,1.638,1.638,0,0,0,14.148-7.4Zm9.117.3-.789-.047a1.762,1.762,0,0,0-1.027.289,1.854,1.854,0,0,0-.645.813V0H19.266V-8.453h1.375l.148,1.234a2.934,2.934,0,0,1,.887-1.023,2.073,2.073,0,0,1,1.215-.367,1.9,1.9,0,0,1,.328.027,2.175,2.175,0,0,1,.258.059ZM26.531,0H24.992V-8.453h1.539Zm0-10.617H24.992v-1.57h1.539ZM29.328,0V-7.312H28V-8.453h1.328v-.914a2.875,2.875,0,0,1,.832-2.2,3.24,3.24,0,0,1,2.309-.781,4.431,4.431,0,0,1,1.031.121q.508.121,1.2.355l-.266,1.25a7.011,7.011,0,0,0-.883-.281,3.947,3.947,0,0,0-.961-.117,1.8,1.8,0,0,0-1.316.406,1.713,1.713,0,0,0-.4,1.25v.914h1.68v1.141h-1.68V0Zm6.117,0H33.9V-8.453h1.547Zm5.719-1.039a1.81,1.81,0,0,0,1.242-.473,1.494,1.494,0,0,0,.531-1.16h1.391l.023.047a2.428,2.428,0,0,1-.937,1.941,3.312,3.312,0,0,1-2.25.848,3.319,3.319,0,0,1-2.75-1.211,4.674,4.674,0,0,1-.969-3.016v-.328a4.654,4.654,0,0,1,.973-3,3.317,3.317,0,0,1,2.746-1.215,3.189,3.189,0,0,1,2.316.875,2.775,2.775,0,0,1,.871,2.148l-.016.047h-1.4a1.865,1.865,0,0,0-.5-1.316,1.658,1.658,0,0,0-1.27-.543,1.777,1.777,0,0,0-1.652.879,4.114,4.114,0,0,0-.52,2.129v.328A4.192,4.192,0,0,0,39.5-1.914,1.776,1.776,0,0,0,41.164-1.039ZM51.375,0q-.078-.383-.121-.676a4.96,4.96,0,0,1-.051-.59,3.589,3.589,0,0,1-1.121,1.02,2.867,2.867,0,0,1-1.488.41,2.763,2.763,0,0,1-2.012-.676,2.486,2.486,0,0,1-.691-1.863,2.183,2.183,0,0,1,.98-1.895,4.579,4.579,0,0,1,2.66-.684H51.2v-.836a1.551,1.551,0,0,0-.453-1.176A1.779,1.779,0,0,0,49.469-7.4a1.859,1.859,0,0,0-1.211.375,1.125,1.125,0,0,0-.461.9l-1.461.016-.016-.047a2.023,2.023,0,0,1,.863-1.687,3.578,3.578,0,0,1,2.371-.766,3.49,3.49,0,0,1,2.313.73,2.588,2.588,0,0,1,.875,2.105V-1.7a7.923,7.923,0,0,0,.047.875A4.5,4.5,0,0,0,52.961,0ZM48.82-1.125a2.739,2.739,0,0,0,1.508-.43,2.042,2.042,0,0,0,.875-.984V-3.914H49.477a2.24,2.24,0,0,0-1.488.469,1.4,1.4,0,0,0-.559,1.1,1.159,1.159,0,0,0,.352.891A1.472,1.472,0,0,0,48.82-1.125ZM60.617,0H59.078V-8.453h1.539Zm0-10.617H59.078v-1.57h1.539Zm3.742,2.164L64.469-7.2a3.069,3.069,0,0,1,1.059-1.043,2.824,2.824,0,0,1,1.449-.371,2.759,2.759,0,0,1,2.117.8,3.515,3.515,0,0,1,.75,2.473V0H68.3V-5.3a2.287,2.287,0,0,0-.441-1.586,1.768,1.768,0,0,0-1.348-.469,2.386,2.386,0,0,0-1.207.285,2.072,2.072,0,0,0-.785.8V0H62.984V-8.453ZM74.9-2.492l.133.594h.047l.148-.594,1.945-5.961h1.57L75.633,0H74.469L71.32-8.453H72.9ZM83.523.164A3.576,3.576,0,0,1,80.684-1a4.48,4.48,0,0,1-1.02-3.062v-.344a4.386,4.386,0,0,1,1.051-3.012,3.3,3.3,0,0,1,2.566-1.191,3.067,3.067,0,0,1,2.543,1.055,4.345,4.345,0,0,1,.848,2.8v.813H81.266l-.023.039A3.494,3.494,0,0,0,81.8-1.832a1.965,1.965,0,0,0,1.719.793,3.872,3.872,0,0,0,1.371-.223,3.061,3.061,0,0,0,1.012-.613l.6,1a3.7,3.7,0,0,1-1.2.738A4.762,4.762,0,0,1,83.523.164ZM83.281-7.4a1.673,1.673,0,0,0-1.332.621,2.938,2.938,0,0,0-.645,1.59l.016.039h3.813v-.125A2.462,2.462,0,0,0,84.68-6.8,1.638,1.638,0,0,0,83.281-7.4Zm6.492-1.055L89.883-7.2a3.069,3.069,0,0,1,1.059-1.043,2.824,2.824,0,0,1,1.449-.371,2.759,2.759,0,0,1,2.117.8,3.515,3.515,0,0,1,.75,2.473V0H93.719V-5.3a2.287,2.287,0,0,0-.441-1.586,1.768,1.768,0,0,0-1.348-.469,2.386,2.386,0,0,0-1.207.285,2.072,2.072,0,0,0-.785.8V0H88.4V-8.453Zm9.859-2.039v2.039h1.6v1.141h-1.6V-2.18a1.149,1.149,0,0,0,.246.836.89.89,0,0,0,.652.242,1.43,1.43,0,0,0,.3-.035,2.2,2.2,0,0,0,.273-.074l.211,1.055a1.36,1.36,0,0,1-.508.23,2.562,2.562,0,0,1-.664.09A1.993,1.993,0,0,1,98.648-.4a2.46,2.46,0,0,1-.555-1.777V-7.312H96.75V-8.453h1.344v-2.039ZM108.078,0q-.078-.383-.121-.676a4.96,4.96,0,0,1-.051-.59,3.589,3.589,0,0,1-1.121,1.02,2.867,2.867,0,0,1-1.488.41,2.763,2.763,0,0,1-2.012-.676,2.486,2.486,0,0,1-.691-1.863,2.183,2.183,0,0,1,.98-1.895,4.579,4.579,0,0,1,2.66-.684h1.672v-.836a1.551,1.551,0,0,0-.453-1.176,1.779,1.779,0,0,0-1.281-.434,1.859,1.859,0,0,0-1.211.375,1.125,1.125,0,0,0-.461.9l-1.461.016-.016-.047a2.023,2.023,0,0,1,.863-1.687,3.578,3.578,0,0,1,2.371-.766,3.49,3.49,0,0,1,2.313.73,2.588,2.588,0,0,1,.875,2.105V-1.7a7.923,7.923,0,0,0,.047.875,4.5,4.5,0,0,0,.172.828Zm-2.555-1.125a2.739,2.739,0,0,0,1.508-.43,2.042,2.042,0,0,0,.875-.984V-3.914H106.18a2.24,2.24,0,0,0-1.488.469,1.4,1.4,0,0,0-.559,1.1,1.159,1.159,0,0,0,.352.891A1.472,1.472,0,0,0,105.523-1.125ZM115.68-7.094l-.789-.047a1.762,1.762,0,0,0-1.027.289,1.854,1.854,0,0,0-.645.813V0H111.68V-8.453h1.375l.148,1.234a2.934,2.934,0,0,1,.887-1.023,2.073,2.073,0,0,1,1.215-.367,1.9,1.9,0,0,1,.328.027,2.175,2.175,0,0,1,.258.059ZM118.945,0h-1.539V-8.453h1.539Zm0-10.617h-1.539v-1.57h1.539ZM120.953-4.3a4.654,4.654,0,0,1,1.016-3.09,3.406,3.406,0,0,1,2.758-1.215A3.439,3.439,0,0,1,127.5-7.4a4.639,4.639,0,0,1,1.02,3.094v.172a4.631,4.631,0,0,1-1.016,3.094,3.429,3.429,0,0,1-2.766,1.2,3.436,3.436,0,0,1-2.77-1.207,4.623,4.623,0,0,1-1.02-3.09Zm1.539.172a4.009,4.009,0,0,0,.566,2.219,1.875,1.875,0,0,0,1.684.875,1.87,1.87,0,0,0,1.672-.875,3.988,3.988,0,0,0,.57-2.219V-4.3a3.976,3.976,0,0,0-.574-2.211,1.882,1.882,0,0,0-1.684-.883,1.856,1.856,0,0,0-1.668.883,4.018,4.018,0,0,0-.566,2.211ZM135.32-2.273a1.026,1.026,0,0,0-.387-.828,3.732,3.732,0,0,0-1.465-.562,6.146,6.146,0,0,1-2.293-.9,1.814,1.814,0,0,1-.8-1.547,2.229,2.229,0,0,1,.879-1.766,3.433,3.433,0,0,1,2.277-.734,3.4,3.4,0,0,1,2.328.781,2.239,2.239,0,0,1,.852,1.82l-.016.047h-1.469a1.331,1.331,0,0,0-.48-.992,1.717,1.717,0,0,0-1.215-.445,1.751,1.751,0,0,0-1.215.367,1.146,1.146,0,0,0-.4.875.927.927,0,0,0,.348.773,3.848,3.848,0,0,0,1.434.5,6.058,6.058,0,0,1,2.359.93,1.872,1.872,0,0,1,.8,1.57,2.226,2.226,0,0,1-.91,1.836,3.754,3.754,0,0,1-2.379.711,3.715,3.715,0,0,1-2.547-.82,2.341,2.341,0,0,1-.883-1.914l.016-.047h1.469a1.424,1.424,0,0,0,.609,1.2,2.358,2.358,0,0,0,1.336.379,2.1,2.1,0,0,0,1.285-.348A1.063,1.063,0,0,0,135.32-2.273Z" transform="translate(580 12421.728)" fill="#12263f"/>
    <path id="Trazado_884023" data-name="Trazado 884023" d="M7.539-5.273H2.867V-1.2H8.336V0H1.328V-11.375H8.25v1.211H2.867v3.68H7.539ZM11.609,0H10.07V-12.187h1.539Zm7.563,0q-.078-.383-.121-.676A4.96,4.96,0,0,1,19-1.266a3.589,3.589,0,0,1-1.121,1.02,2.867,2.867,0,0,1-1.488.41,2.763,2.763,0,0,1-2.012-.676,2.486,2.486,0,0,1-.691-1.863,2.183,2.183,0,0,1,.98-1.895,4.579,4.579,0,0,1,2.66-.684H19v-.836a1.551,1.551,0,0,0-.453-1.176A1.779,1.779,0,0,0,17.266-7.4a1.859,1.859,0,0,0-1.211.375,1.125,1.125,0,0,0-.461.9l-1.461.016-.016-.047a2.023,2.023,0,0,1,.863-1.687,3.578,3.578,0,0,1,2.371-.766,3.49,3.49,0,0,1,2.313.73,2.588,2.588,0,0,1,.875,2.105V-1.7a7.923,7.923,0,0,0,.047.875A4.5,4.5,0,0,0,20.758,0ZM16.617-1.125a2.739,2.739,0,0,0,1.508-.43A2.042,2.042,0,0,0,19-2.539V-3.914H17.273a2.24,2.24,0,0,0-1.488.469,1.4,1.4,0,0,0-.559,1.1,1.159,1.159,0,0,0,.352.891A1.472,1.472,0,0,0,16.617-1.125ZM29.992-3.906a4.645,4.645,0,0,1-.879,2.949A2.9,2.9,0,0,1,26.7.164,3.064,3.064,0,0,1,25.23-.168a2.719,2.719,0,0,1-1.027-.98L23.953,0h-1.18V-12.187h1.539v4.734a2.671,2.671,0,0,1,.988-.859,3.03,3.03,0,0,1,1.379-.3,2.809,2.809,0,0,1,2.438,1.25,5.622,5.622,0,0,1,.875,3.289ZM28.453-4.07a4.666,4.666,0,0,0-.535-2.371,1.762,1.762,0,0,0-1.629-.918,2.014,2.014,0,0,0-1.2.348,2.452,2.452,0,0,0-.777.934v3.664a2.517,2.517,0,0,0,.777.977,2,2,0,0,0,1.215.352,1.829,1.829,0,0,0,1.617-.773,3.552,3.552,0,0,0,.531-2.047ZM31.508-4.3a4.654,4.654,0,0,1,1.016-3.09,3.406,3.406,0,0,1,2.758-1.215A3.439,3.439,0,0,1,38.059-7.4,4.639,4.639,0,0,1,39.078-4.3v.172a4.631,4.631,0,0,1-1.016,3.094A3.429,3.429,0,0,1,35.3.164a3.436,3.436,0,0,1-2.77-1.207,4.623,4.623,0,0,1-1.02-3.09Zm1.539.172a4.009,4.009,0,0,0,.566,2.219,1.875,1.875,0,0,0,1.684.875,1.87,1.87,0,0,0,1.672-.875,3.988,3.988,0,0,0,.57-2.219V-4.3a3.976,3.976,0,0,0-.574-2.211A1.882,1.882,0,0,0,35.281-7.4a1.856,1.856,0,0,0-1.668.883A4.018,4.018,0,0,0,33.047-4.3ZM44.961-7.094l-.789-.047a1.762,1.762,0,0,0-1.027.289,1.855,1.855,0,0,0-.645.813V0H40.961V-8.453h1.375l.148,1.234a2.934,2.934,0,0,1,.887-1.023,2.073,2.073,0,0,1,1.215-.367,1.9,1.9,0,0,1,.328.027,2.175,2.175,0,0,1,.258.059ZM51.758,0q-.078-.383-.121-.676a4.96,4.96,0,0,1-.051-.59,3.589,3.589,0,0,1-1.121,1.02,2.867,2.867,0,0,1-1.488.41,2.763,2.763,0,0,1-2.012-.676,2.486,2.486,0,0,1-.691-1.863,2.183,2.183,0,0,1,.98-1.895,4.579,4.579,0,0,1,2.66-.684h1.672v-.836a1.551,1.551,0,0,0-.453-1.176A1.779,1.779,0,0,0,49.852-7.4a1.859,1.859,0,0,0-1.211.375,1.125,1.125,0,0,0-.461.9l-1.461.016L46.7-6.156a2.023,2.023,0,0,1,.863-1.687,3.578,3.578,0,0,1,2.371-.766,3.49,3.49,0,0,1,2.313.73,2.588,2.588,0,0,1,.875,2.105V-1.7a7.923,7.923,0,0,0,.047.875A4.5,4.5,0,0,0,53.344,0ZM49.2-1.125a2.739,2.739,0,0,0,1.508-.43,2.042,2.042,0,0,0,.875-.984V-3.914H49.859a2.24,2.24,0,0,0-1.488.469,1.4,1.4,0,0,0-.559,1.1,1.159,1.159,0,0,0,.352.891A1.472,1.472,0,0,0,49.2-1.125ZM66.539-3.906a4.659,4.659,0,0,1-.875,2.949A2.893,2.893,0,0,1,63.25.164,3.354,3.354,0,0,1,61.879-.1a2.622,2.622,0,0,1-1-.785V3.25H59.336v-11.7h1.18l.242,1.094a2.792,2.792,0,0,1,1.031-.93,3.078,3.078,0,0,1,1.438-.32,2.809,2.809,0,0,1,2.441,1.246,5.638,5.638,0,0,1,.871,3.293ZM65-4.07a4.467,4.467,0,0,0-.566-2.363,1.835,1.835,0,0,0-1.668-.926,2.054,2.054,0,0,0-1.133.3,2.25,2.25,0,0,0-.758.824v4.086a2.186,2.186,0,0,0,.758.816,2.126,2.126,0,0,0,1.148.293,1.894,1.894,0,0,0,1.656-.8A3.516,3.516,0,0,0,65-3.906Zm7.43-3.023-.789-.047a1.762,1.762,0,0,0-1.027.289,1.854,1.854,0,0,0-.645.813V0H68.43V-8.453H69.8l.148,1.234a2.934,2.934,0,0,1,.887-1.023,2.073,2.073,0,0,1,1.215-.367,1.9,1.9,0,0,1,.328.027,2.175,2.175,0,0,1,.258.059ZM73.516-4.3a4.654,4.654,0,0,1,1.016-3.09,3.406,3.406,0,0,1,2.758-1.215A3.439,3.439,0,0,1,80.066-7.4,4.639,4.639,0,0,1,81.086-4.3v.172A4.631,4.631,0,0,1,80.07-1.039,3.429,3.429,0,0,1,77.3.164a3.436,3.436,0,0,1-2.77-1.207,4.623,4.623,0,0,1-1.02-3.09Zm1.539.172a4.009,4.009,0,0,0,.566,2.219,1.875,1.875,0,0,0,1.684.875,1.87,1.87,0,0,0,1.672-.875,3.988,3.988,0,0,0,.57-2.219V-4.3a3.976,3.976,0,0,0-.574-2.211A1.882,1.882,0,0,0,77.289-7.4a1.856,1.856,0,0,0-1.668.883A4.018,4.018,0,0,0,75.055-4.3Zm7.563.063a5.641,5.641,0,0,1,.871-3.289,2.807,2.807,0,0,1,2.441-1.25,3.027,3.027,0,0,1,1.316.273,2.7,2.7,0,0,1,.98.8v-4.648h1.539V0h-1.18l-.234-1.07a2.743,2.743,0,0,1-1.023.922,3.058,3.058,0,0,1-1.414.313A2.9,2.9,0,0,1,83.492-.957a4.659,4.659,0,0,1-.875-2.949Zm1.539.164a3.588,3.588,0,0,0,.523,2.051,1.828,1.828,0,0,0,1.625.77A2.039,2.039,0,0,0,87.461-1.4a2.334,2.334,0,0,0,.766-.875V-6.219a2.37,2.37,0,0,0-.77-.832,2.033,2.033,0,0,0-1.137-.309,1.759,1.759,0,0,0-1.637.914,4.718,4.718,0,0,0-.527,2.375ZM97.43-1.25A2.863,2.863,0,0,1,96.406-.2a2.8,2.8,0,0,1-1.445.367A2.716,2.716,0,0,1,92.8-.719a4.1,4.1,0,0,1-.773-2.75V-8.453H93.57v5a3.147,3.147,0,0,0,.4,1.859,1.481,1.481,0,0,0,1.242.508,2.531,2.531,0,0,0,1.355-.332,2.077,2.077,0,0,0,.809-.941V-8.453h1.539V0H97.531Zm7.086.211a1.81,1.81,0,0,0,1.242-.473,1.494,1.494,0,0,0,.531-1.16h1.391l.023.047a2.428,2.428,0,0,1-.937,1.941,3.313,3.313,0,0,1-2.25.848,3.319,3.319,0,0,1-2.75-1.211,4.674,4.674,0,0,1-.969-3.016v-.328a4.654,4.654,0,0,1,.973-3,3.317,3.317,0,0,1,2.746-1.215,3.189,3.189,0,0,1,2.316.875,2.775,2.775,0,0,1,.871,2.148l-.016.047h-1.4a1.865,1.865,0,0,0-.5-1.316,1.658,1.658,0,0,0-1.27-.543,1.777,1.777,0,0,0-1.652.879,4.114,4.114,0,0,0-.52,2.129v.328a4.192,4.192,0,0,0,.512,2.148A1.776,1.776,0,0,0,104.516-1.039Zm7.156-9.453v2.039h1.6v1.141h-1.6V-2.18a1.149,1.149,0,0,0,.246.836.89.89,0,0,0,.652.242,1.43,1.43,0,0,0,.3-.035,2.2,2.2,0,0,0,.273-.074l.211,1.055a1.36,1.36,0,0,1-.508.23,2.562,2.562,0,0,1-.664.09A1.993,1.993,0,0,1,110.688-.4a2.46,2.46,0,0,1-.555-1.777V-7.312h-1.344V-8.453h1.344v-2.039ZM114.563-4.3a4.654,4.654,0,0,1,1.016-3.09,3.406,3.406,0,0,1,2.758-1.215A3.439,3.439,0,0,1,121.113-7.4a4.639,4.639,0,0,1,1.02,3.094v.172a4.631,4.631,0,0,1-1.016,3.094,3.429,3.429,0,0,1-2.766,1.2,3.436,3.436,0,0,1-2.77-1.207,4.623,4.623,0,0,1-1.02-3.09Zm1.539.172a4.009,4.009,0,0,0,.566,2.219,1.875,1.875,0,0,0,1.684.875,1.87,1.87,0,0,0,1.672-.875,3.988,3.988,0,0,0,.57-2.219V-4.3a3.976,3.976,0,0,0-.574-2.211,1.882,1.882,0,0,0-1.684-.883,1.856,1.856,0,0,0-1.668.883A4.018,4.018,0,0,0,116.1-4.3Z" transform="translate(894 12528.728)" fill="#12263f"/>
    <path id="Trazado_884024" data-name="Trazado 884024" d="M7.2-2.93H2.922L1.906,0H.336l4.1-11.375h1.32L9.773,0H8.2ZM3.367-4.219h3.4L5.109-9.1H5.063ZM12.9,0H11.359V-12.187H12.9Zm5.867.164A3.576,3.576,0,0,1,15.926-1a4.48,4.48,0,0,1-1.02-3.062v-.344a4.386,4.386,0,0,1,1.051-3.012,3.3,3.3,0,0,1,2.566-1.191,3.067,3.067,0,0,1,2.543,1.055,4.345,4.345,0,0,1,.848,2.8v.813H16.508l-.023.039a3.494,3.494,0,0,0,.563,2.066,1.965,1.965,0,0,0,1.719.793,3.872,3.872,0,0,0,1.371-.223,3.061,3.061,0,0,0,1.012-.613l.6,1a3.7,3.7,0,0,1-1.2.738A4.762,4.762,0,0,1,18.766.164ZM18.523-7.4a1.673,1.673,0,0,0-1.332.621,2.938,2.938,0,0,0-.645,1.59l.016.039h3.813v-.125A2.462,2.462,0,0,0,19.922-6.8,1.638,1.638,0,0,0,18.523-7.4Zm9.117.3-.789-.047a1.762,1.762,0,0,0-1.027.289,1.854,1.854,0,0,0-.645.813V0H23.641V-8.453h1.375l.148,1.234a2.934,2.934,0,0,1,.887-1.023,2.073,2.073,0,0,1,1.215-.367,1.9,1.9,0,0,1,.328.027,2.175,2.175,0,0,1,.258.059Zm3.875-3.4v2.039h1.6v1.141h-1.6V-2.18a1.149,1.149,0,0,0,.246.836.89.89,0,0,0,.652.242,1.429,1.429,0,0,0,.3-.035,2.2,2.2,0,0,0,.273-.074L33.2-.156a1.36,1.36,0,0,1-.508.23,2.562,2.562,0,0,1-.664.09A1.993,1.993,0,0,1,30.531-.4a2.46,2.46,0,0,1-.555-1.777V-7.312H28.633V-8.453h1.344v-2.039ZM39.961,0q-.078-.383-.121-.676a4.96,4.96,0,0,1-.051-.59,3.589,3.589,0,0,1-1.121,1.02,2.867,2.867,0,0,1-1.488.41,2.763,2.763,0,0,1-2.012-.676,2.486,2.486,0,0,1-.691-1.863,2.183,2.183,0,0,1,.98-1.895,4.579,4.579,0,0,1,2.66-.684h1.672v-.836a1.551,1.551,0,0,0-.453-1.176A1.779,1.779,0,0,0,38.055-7.4a1.859,1.859,0,0,0-1.211.375,1.125,1.125,0,0,0-.461.9l-1.461.016-.016-.047a2.023,2.023,0,0,1,.863-1.687,3.578,3.578,0,0,1,2.371-.766,3.49,3.49,0,0,1,2.313.73,2.588,2.588,0,0,1,.875,2.105V-1.7a7.923,7.923,0,0,0,.047.875A4.5,4.5,0,0,0,41.547,0ZM37.406-1.125a2.739,2.739,0,0,0,1.508-.43,2.042,2.042,0,0,0,.875-.984V-3.914H38.063a2.24,2.24,0,0,0-1.488.469,1.4,1.4,0,0,0-.559,1.1,1.159,1.159,0,0,0,.352.891A1.472,1.472,0,0,0,37.406-1.125ZM47.188-4.07a5.641,5.641,0,0,1,.871-3.289A2.807,2.807,0,0,1,50.5-8.609a3.027,3.027,0,0,1,1.316.273,2.7,2.7,0,0,1,.98.8v-4.648h1.539V0h-1.18l-.234-1.07A2.743,2.743,0,0,1,51.9-.148a3.058,3.058,0,0,1-1.414.313A2.9,2.9,0,0,1,48.063-.957a4.659,4.659,0,0,1-.875-2.949Zm1.539.164a3.588,3.588,0,0,0,.523,2.051,1.828,1.828,0,0,0,1.625.77A2.039,2.039,0,0,0,52.031-1.4a2.334,2.334,0,0,0,.766-.875V-6.219a2.37,2.37,0,0,0-.77-.832,2.033,2.033,0,0,0-1.137-.309,1.759,1.759,0,0,0-1.637.914,4.718,4.718,0,0,0-.527,2.375ZM60.133.164A3.576,3.576,0,0,1,57.293-1a4.48,4.48,0,0,1-1.02-3.062v-.344a4.386,4.386,0,0,1,1.051-3.012,3.3,3.3,0,0,1,2.566-1.191,3.067,3.067,0,0,1,2.543,1.055,4.345,4.345,0,0,1,.848,2.8v.813H57.875l-.023.039a3.494,3.494,0,0,0,.563,2.066,1.965,1.965,0,0,0,1.719.793A3.872,3.872,0,0,0,61.5-1.262a3.061,3.061,0,0,0,1.012-.613l.6,1a3.7,3.7,0,0,1-1.2.738A4.762,4.762,0,0,1,60.133.164ZM59.891-7.4a1.673,1.673,0,0,0-1.332.621,2.938,2.938,0,0,0-.645,1.59l.016.039h3.813v-.125A2.462,2.462,0,0,0,61.289-6.8,1.638,1.638,0,0,0,59.891-7.4ZM72.344-1.039a1.81,1.81,0,0,0,1.242-.473,1.494,1.494,0,0,0,.531-1.16h1.391l.023.047a2.428,2.428,0,0,1-.937,1.941,3.313,3.313,0,0,1-2.25.848,3.319,3.319,0,0,1-2.75-1.211,4.674,4.674,0,0,1-.969-3.016v-.328a4.654,4.654,0,0,1,.973-3,3.317,3.317,0,0,1,2.746-1.215,3.189,3.189,0,0,1,2.316.875,2.775,2.775,0,0,1,.871,2.148l-.016.047h-1.4a1.865,1.865,0,0,0-.5-1.316,1.658,1.658,0,0,0-1.27-.543,1.777,1.777,0,0,0-1.652.879,4.114,4.114,0,0,0-.52,2.129v.328a4.192,4.192,0,0,0,.512,2.148A1.776,1.776,0,0,0,72.344-1.039ZM82.555,0q-.078-.383-.121-.676a4.96,4.96,0,0,1-.051-.59,3.589,3.589,0,0,1-1.121,1.02,2.867,2.867,0,0,1-1.488.41,2.763,2.763,0,0,1-2.012-.676,2.486,2.486,0,0,1-.691-1.863,2.183,2.183,0,0,1,.98-1.895,4.579,4.579,0,0,1,2.66-.684h1.672v-.836a1.551,1.551,0,0,0-.453-1.176A1.779,1.779,0,0,0,80.648-7.4a1.859,1.859,0,0,0-1.211.375,1.125,1.125,0,0,0-.461.9l-1.461.016L77.5-6.156a2.023,2.023,0,0,1,.863-1.687,3.578,3.578,0,0,1,2.371-.766,3.49,3.49,0,0,1,2.313.73,2.588,2.588,0,0,1,.875,2.105V-1.7a7.923,7.923,0,0,0,.047.875A4.5,4.5,0,0,0,84.141,0ZM80-1.125a2.739,2.739,0,0,0,1.508-.43,2.042,2.042,0,0,0,.875-.984V-3.914H80.656a2.24,2.24,0,0,0-1.488.469,1.4,1.4,0,0,0-.559,1.1,1.159,1.159,0,0,0,.352.891A1.472,1.472,0,0,0,80-1.125ZM87.82,0H86.281V-12.187H87.82Zm4.031,0H90.313V-8.453h1.539Zm0-10.617H90.313v-1.57h1.539ZM93.867-4.07a5.641,5.641,0,0,1,.871-3.289,2.807,2.807,0,0,1,2.441-1.25,3.027,3.027,0,0,1,1.316.273,2.7,2.7,0,0,1,.98.8v-4.648h1.539V0h-1.18L99.6-1.07a2.743,2.743,0,0,1-1.023.922,3.058,3.058,0,0,1-1.414.313A2.9,2.9,0,0,1,94.742-.957a4.659,4.659,0,0,1-.875-2.949Zm1.539.164a3.588,3.588,0,0,0,.523,2.051,1.828,1.828,0,0,0,1.625.77A2.039,2.039,0,0,0,98.711-1.4a2.334,2.334,0,0,0,.766-.875V-6.219a2.37,2.37,0,0,0-.77-.832,2.033,2.033,0,0,0-1.137-.309,1.759,1.759,0,0,0-1.637.914,4.718,4.718,0,0,0-.527,2.375ZM108.508,0q-.078-.383-.121-.676a4.96,4.96,0,0,1-.051-.59,3.589,3.589,0,0,1-1.121,1.02,2.867,2.867,0,0,1-1.488.41,2.763,2.763,0,0,1-2.012-.676,2.486,2.486,0,0,1-.691-1.863A2.183,2.183,0,0,1,104-4.27a4.579,4.579,0,0,1,2.66-.684h1.672v-.836a1.551,1.551,0,0,0-.453-1.176A1.779,1.779,0,0,0,106.6-7.4a1.859,1.859,0,0,0-1.211.375,1.125,1.125,0,0,0-.461.9l-1.461.016-.016-.047a2.023,2.023,0,0,1,.863-1.687,3.578,3.578,0,0,1,2.371-.766,3.49,3.49,0,0,1,2.313.73,2.588,2.588,0,0,1,.875,2.105V-1.7a7.923,7.923,0,0,0,.047.875,4.5,4.5,0,0,0,.172.828Zm-2.555-1.125a2.739,2.739,0,0,0,1.508-.43,2.042,2.042,0,0,0,.875-.984V-3.914h-1.727a2.24,2.24,0,0,0-1.488.469,1.4,1.4,0,0,0-.559,1.1,1.159,1.159,0,0,0,.352.891A1.472,1.472,0,0,0,105.953-1.125Zm5.8-2.945a5.641,5.641,0,0,1,.871-3.289,2.807,2.807,0,0,1,2.441-1.25,3.027,3.027,0,0,1,1.316.273,2.7,2.7,0,0,1,.98.8v-4.648h1.539V0h-1.18l-.234-1.07a2.743,2.743,0,0,1-1.023.922,3.058,3.058,0,0,1-1.414.313,2.9,2.9,0,0,1-2.422-1.121,4.659,4.659,0,0,1-.875-2.949Zm1.539.164a3.588,3.588,0,0,0,.523,2.051,1.828,1.828,0,0,0,1.625.77A2.039,2.039,0,0,0,116.6-1.4a2.334,2.334,0,0,0,.766-.875V-6.219a2.37,2.37,0,0,0-.77-.832,2.033,2.033,0,0,0-1.137-.309,1.759,1.759,0,0,0-1.637.914A4.718,4.718,0,0,0,113.3-4.07Z" transform="translate(589 12753.88)" fill="#12263f"/>
    <path id="Trazado_884025" data-name="Trazado 884025" d="M7.2-2.93H2.922L1.906,0H.336l4.1-11.375h1.32L9.773,0H8.2ZM3.367-4.219h3.4L5.109-9.1H5.063ZM15.234-7.094l-.789-.047a1.762,1.762,0,0,0-1.027.289,1.855,1.855,0,0,0-.645.813V0H11.234V-8.453h1.375l.148,1.234a2.934,2.934,0,0,1,.887-1.023,2.073,2.073,0,0,1,1.215-.367,1.9,1.9,0,0,1,.328.027,2.175,2.175,0,0,1,.258.059Zm2.977-1.359.109,1.109a2.871,2.871,0,0,1,1.051-.934,3.158,3.158,0,0,1,1.48-.332,2.615,2.615,0,0,1,1.449.391,2.363,2.363,0,0,1,.91,1.172A3.162,3.162,0,0,1,24.27-8.191,2.769,2.769,0,0,1,25.8-8.609a2.531,2.531,0,0,1,2.039.887,4.051,4.051,0,0,1,.75,2.668V0H27.047V-5.07a2.81,2.81,0,0,0-.43-1.77,1.567,1.567,0,0,0-1.281-.52,1.631,1.631,0,0,0-1.277.547,2.381,2.381,0,0,0-.574,1.383V0H21.938V-5.07A2.772,2.772,0,0,0,21.5-6.809a1.532,1.532,0,0,0-1.27-.551,2.115,2.115,0,0,0-1.156.289,1.867,1.867,0,0,0-.7.813V0H16.836V-8.453ZM36.016,0q-.078-.383-.121-.676a4.96,4.96,0,0,1-.051-.59,3.589,3.589,0,0,1-1.121,1.02,2.867,2.867,0,0,1-1.488.41,2.763,2.763,0,0,1-2.012-.676,2.486,2.486,0,0,1-.691-1.863,2.183,2.183,0,0,1,.98-1.895,4.579,4.579,0,0,1,2.66-.684h1.672v-.836a1.551,1.551,0,0,0-.453-1.176A1.779,1.779,0,0,0,34.109-7.4a1.859,1.859,0,0,0-1.211.375,1.125,1.125,0,0,0-.461.9l-1.461.016-.016-.047a2.023,2.023,0,0,1,.863-1.687A3.578,3.578,0,0,1,34.2-8.609a3.49,3.49,0,0,1,2.313.73,2.588,2.588,0,0,1,.875,2.105V-1.7a7.923,7.923,0,0,0,.047.875A4.5,4.5,0,0,0,37.6,0ZM33.461-1.125a2.739,2.739,0,0,0,1.508-.43,2.042,2.042,0,0,0,.875-.984V-3.914H34.117a2.24,2.24,0,0,0-1.488.469,1.4,1.4,0,0,0-.559,1.1,1.159,1.159,0,0,0,.352.891A1.472,1.472,0,0,0,33.461-1.125ZM47.094.164A3.576,3.576,0,0,1,44.254-1a4.48,4.48,0,0,1-1.02-3.062v-.344a4.386,4.386,0,0,1,1.051-3.012,3.3,3.3,0,0,1,2.566-1.191,3.067,3.067,0,0,1,2.543,1.055,4.345,4.345,0,0,1,.848,2.8v.813H44.836l-.023.039a3.494,3.494,0,0,0,.563,2.066,1.965,1.965,0,0,0,1.719.793,3.872,3.872,0,0,0,1.371-.223,3.061,3.061,0,0,0,1.012-.613l.6,1a3.7,3.7,0,0,1-1.2.738A4.762,4.762,0,0,1,47.094.164ZM46.852-7.4a1.673,1.673,0,0,0-1.332.621,2.938,2.938,0,0,0-.645,1.59l.016.039H48.7v-.125A2.462,2.462,0,0,0,48.25-6.8,1.638,1.638,0,0,0,46.852-7.4ZM53.633,0H52.094V-12.187h1.539ZM67.18-3.906A4.659,4.659,0,0,1,66.3-.957,2.893,2.893,0,0,1,63.891.164,3.354,3.354,0,0,1,62.52-.1a2.622,2.622,0,0,1-1-.785V3.25H59.977v-11.7h1.18L61.4-7.359a2.792,2.792,0,0,1,1.031-.93,3.078,3.078,0,0,1,1.438-.32,2.809,2.809,0,0,1,2.441,1.246A5.638,5.638,0,0,1,67.18-4.07ZM65.641-4.07a4.467,4.467,0,0,0-.566-2.363,1.835,1.835,0,0,0-1.668-.926,2.054,2.054,0,0,0-1.133.3,2.25,2.25,0,0,0-.758.824v4.086a2.186,2.186,0,0,0,.758.816,2.126,2.126,0,0,0,1.148.293,1.894,1.894,0,0,0,1.656-.8,3.516,3.516,0,0,0,.563-2.066ZM72.57.164A3.576,3.576,0,0,1,69.73-1a4.48,4.48,0,0,1-1.02-3.062v-.344a4.386,4.386,0,0,1,1.051-3.012,3.3,3.3,0,0,1,2.566-1.191,3.067,3.067,0,0,1,2.543,1.055,4.345,4.345,0,0,1,.848,2.8v.813H70.313l-.023.039a3.494,3.494,0,0,0,.563,2.066,1.965,1.965,0,0,0,1.719.793,3.872,3.872,0,0,0,1.371-.223,3.061,3.061,0,0,0,1.012-.613l.6,1a3.7,3.7,0,0,1-1.2.738A4.762,4.762,0,0,1,72.57.164ZM72.328-7.4A1.673,1.673,0,0,0,71-6.777a2.938,2.938,0,0,0-.645,1.59l.016.039H74.18v-.125A2.462,2.462,0,0,0,73.727-6.8,1.638,1.638,0,0,0,72.328-7.4ZM77.094-4.07a5.641,5.641,0,0,1,.871-3.289,2.807,2.807,0,0,1,2.441-1.25,3.027,3.027,0,0,1,1.316.273,2.7,2.7,0,0,1,.98.8v-4.648h1.539V0h-1.18l-.234-1.07A2.743,2.743,0,0,1,81.8-.148a3.058,3.058,0,0,1-1.414.313A2.9,2.9,0,0,1,77.969-.957a4.659,4.659,0,0,1-.875-2.949Zm1.539.164a3.588,3.588,0,0,0,.523,2.051,1.828,1.828,0,0,0,1.625.77A2.039,2.039,0,0,0,81.938-1.4a2.334,2.334,0,0,0,.766-.875V-6.219a2.37,2.37,0,0,0-.77-.832A2.033,2.033,0,0,0,80.8-7.359a1.759,1.759,0,0,0-1.637.914,4.718,4.718,0,0,0-.527,2.375ZM88.2,0H86.664V-8.453H88.2Zm0-10.617H86.664v-1.57H88.2ZM90.219-4.07a5.641,5.641,0,0,1,.871-3.289,2.807,2.807,0,0,1,2.441-1.25,3.027,3.027,0,0,1,1.316.273,2.7,2.7,0,0,1,.98.8v-4.648h1.539V0h-1.18l-.234-1.07a2.743,2.743,0,0,1-1.023.922,3.058,3.058,0,0,1-1.414.313A2.9,2.9,0,0,1,91.094-.957a4.659,4.659,0,0,1-.875-2.949Zm1.539.164a3.588,3.588,0,0,0,.523,2.051,1.828,1.828,0,0,0,1.625.77A2.039,2.039,0,0,0,95.063-1.4a2.334,2.334,0,0,0,.766-.875V-6.219a2.37,2.37,0,0,0-.77-.832,2.033,2.033,0,0,0-1.137-.309,1.759,1.759,0,0,0-1.637.914,4.718,4.718,0,0,0-.527,2.375ZM99.3-4.3a4.654,4.654,0,0,1,1.016-3.09,3.406,3.406,0,0,1,2.758-1.215A3.439,3.439,0,0,1,105.855-7.4a4.639,4.639,0,0,1,1.02,3.094v.172a4.631,4.631,0,0,1-1.016,3.094,3.429,3.429,0,0,1-2.766,1.2,3.436,3.436,0,0,1-2.77-1.207,4.623,4.623,0,0,1-1.02-3.09Zm1.539.172a4.009,4.009,0,0,0,.566,2.219,1.875,1.875,0,0,0,1.684.875,1.87,1.87,0,0,0,1.672-.875,3.988,3.988,0,0,0,.57-2.219V-4.3a3.976,3.976,0,0,0-.574-2.211,1.882,1.882,0,0,0-1.684-.883,1.856,1.856,0,0,0-1.668.883,4.018,4.018,0,0,0-.566,2.211Z" transform="translate(595 12638.728)" fill="#12263f"/>
    <path id="Trazado_879118" data-name="Trazado 879118" d="M7.466,2.13,0,0,7.448,11.549l.018-.023.018.023L14.931,0Z" transform="translate(640.917 12466.197)" fill="#3a1d71"/>
    <path id="Trazado_884026" data-name="Trazado 884026" d="M18.5,0h99a18.5,18.5,0,0,1,0,37h-99a18.5,18.5,0,0,1,0-37Z" transform="translate(269 12314.889)" fill="#f0c518"/>
    <path id="Trazado_884027" data-name="Trazado 884027" d="M3.484,0H1.2V-11.375H3.484ZM7.656-8.453l.1,1.211A3.092,3.092,0,0,1,8.8-8.25a2.7,2.7,0,0,1,1.383-.359,2.513,2.513,0,0,1,2,.824A3.908,3.908,0,0,1,12.9-5.18V0H10.609V-5.172a2.024,2.024,0,0,0-.316-1.285,1.166,1.166,0,0,0-.949-.379,1.992,1.992,0,0,0-.895.191,1.746,1.746,0,0,0-.637.527V0H5.531V-8.453ZM17,0H14.719V-8.453H17Zm0-10.477H14.719v-1.711H17Zm5.406,8.891a1.27,1.27,0,0,0,.945-.355,1.291,1.291,0,0,0,.352-.949h2.078l.016.047A2.645,2.645,0,0,1,24.844-.7a3.564,3.564,0,0,1-2.437.863,3.6,3.6,0,0,1-2.9-1.2A4.558,4.558,0,0,1,18.484-4.1v-.234A4.588,4.588,0,0,1,19.5-7.4a3.57,3.57,0,0,1,2.887-1.207,3.486,3.486,0,0,1,2.492.891A2.976,2.976,0,0,1,25.8-5.375l-.016.047H23.7a1.687,1.687,0,0,0-.348-1.09,1.168,1.168,0,0,0-.965-.434,1.3,1.3,0,0,0-1.254.707,3.878,3.878,0,0,0-.371,1.809V-4.1a3.863,3.863,0,0,0,.371,1.82A1.32,1.32,0,0,0,22.406-1.586ZM29.523,0H27.242V-8.453h2.281Zm0-10.477H27.242v-1.711h2.281ZM31.047-4.3A4.536,4.536,0,0,1,32.1-7.4a3.676,3.676,0,0,1,2.922-1.207,3.715,3.715,0,0,1,2.938,1.2,4.512,4.512,0,0,1,1.063,3.1v.164a4.519,4.519,0,0,1-1.059,3.105,3.7,3.7,0,0,1-2.926,1.2,3.709,3.709,0,0,1-2.934-1.2,4.519,4.519,0,0,1-1.059-3.105Zm2.273.164a3.677,3.677,0,0,0,.406,1.855,1.4,1.4,0,0,0,1.313.7,1.389,1.389,0,0,0,1.293-.7,3.653,3.653,0,0,0,.41-1.852V-4.3a3.616,3.616,0,0,0-.414-1.836,1.4,1.4,0,0,0-1.3-.711,1.384,1.384,0,0,0-1.293.715A3.648,3.648,0,0,0,33.32-4.3Z" transform="translate(317 12339.889)" fill="#12263f"/>
    <path id="Trazado_879117" data-name="Trazado 879117" d="M-7700.065,1235.211l71.322-40.877-71.322-40.664-70.258,40.664Z" transform="translate(8347.916 11328.75)" fill="#aec4fa"/>
    <path id="Trazado_879124" data-name="Trazado 879124" d="M-7700.065,1235.211l71.322-40.877-71.322-40.664-70.258,40.664Z" transform="translate(8037.323 11552.939)" fill="#aec4fa"/>
    <path id="Trazado_884028" data-name="Trazado 884028" d="M-35.3-5.273h-4.672V-1.2H-34.5V0h-7.008V-11.375h6.922v1.211h-5.383v3.68H-35.3Zm5.273-.062,1.8-3.117h1.8l-2.742,4.18L-26.355,0h-1.766L-30-3.2-31.871,0h-1.781l2.82-4.273-2.742-4.18H-31.8ZM-23.184,0h-1.539V-8.453h1.539Zm0-10.617h-1.539v-1.57h1.539ZM-15.9-2.273a1.026,1.026,0,0,0-.387-.828,3.732,3.732,0,0,0-1.465-.562,6.146,6.146,0,0,1-2.293-.9,1.814,1.814,0,0,1-.8-1.547,2.229,2.229,0,0,1,.879-1.766,3.433,3.433,0,0,1,2.277-.734,3.4,3.4,0,0,1,2.328.781,2.239,2.239,0,0,1,.852,1.82l-.016.047H-16a1.331,1.331,0,0,0-.48-.992A1.717,1.717,0,0,0-17.691-7.4a1.751,1.751,0,0,0-1.215.367,1.146,1.146,0,0,0-.4.875.927.927,0,0,0,.348.773,3.848,3.848,0,0,0,1.434.5,6.058,6.058,0,0,1,2.359.93,1.872,1.872,0,0,1,.8,1.57,2.226,2.226,0,0,1-.91,1.836,3.754,3.754,0,0,1-2.379.711A3.715,3.715,0,0,1-20.2-.656a2.341,2.341,0,0,1-.883-1.914l.016-.047H-19.6a1.424,1.424,0,0,0,.609,1.2,2.358,2.358,0,0,0,1.336.379,2.1,2.1,0,0,0,1.285-.348A1.063,1.063,0,0,0-15.9-2.273Zm5.594-8.219v2.039h1.6v1.141h-1.6V-2.18a1.149,1.149,0,0,0,.246.836A.89.89,0,0,0-9.41-1.1a1.429,1.429,0,0,0,.3-.035,2.2,2.2,0,0,0,.273-.074l.211,1.055a1.36,1.36,0,0,1-.508.23A2.562,2.562,0,0,1-9.8.164,1.993,1.993,0,0,1-11.293-.4a2.46,2.46,0,0,1-.555-1.777V-7.312h-1.344V-8.453h1.344v-2.039ZM-3.559.164A3.576,3.576,0,0,1-6.4-1a4.48,4.48,0,0,1-1.02-3.062v-.344A4.386,4.386,0,0,1-6.367-7.418,3.3,3.3,0,0,1-3.8-8.609,3.067,3.067,0,0,1-1.258-7.555,4.345,4.345,0,0,1-.41-4.75v.813H-5.816L-5.84-3.9a3.494,3.494,0,0,0,.563,2.066,1.965,1.965,0,0,0,1.719.793,3.872,3.872,0,0,0,1.371-.223,3.061,3.061,0,0,0,1.012-.613l.6,1a3.7,3.7,0,0,1-1.2.738A4.762,4.762,0,0,1-3.559.164ZM-3.8-7.4a1.673,1.673,0,0,0-1.332.621,2.938,2.938,0,0,0-.645,1.59l.016.039h3.813v-.125A2.462,2.462,0,0,0-2.4-6.8,1.638,1.638,0,0,0-3.8-7.4ZM2.691-8.453,2.8-7.2A3.069,3.069,0,0,1,3.859-8.238a2.824,2.824,0,0,1,1.449-.371,2.759,2.759,0,0,1,2.117.8,3.515,3.515,0,0,1,.75,2.473V0H6.637V-5.3A2.287,2.287,0,0,0,6.2-6.891a1.768,1.768,0,0,0-1.348-.469,2.386,2.386,0,0,0-1.207.285,2.072,2.072,0,0,0-.785.8V0H1.316V-8.453ZM13.77-1.039a1.81,1.81,0,0,0,1.242-.473,1.494,1.494,0,0,0,.531-1.16h1.391l.023.047A2.428,2.428,0,0,1,16.02-.684a3.313,3.313,0,0,1-2.25.848,3.319,3.319,0,0,1-2.75-1.211,4.674,4.674,0,0,1-.969-3.016v-.328a4.654,4.654,0,0,1,.973-3A3.317,3.317,0,0,1,13.77-8.609a3.189,3.189,0,0,1,2.316.875,2.775,2.775,0,0,1,.871,2.148l-.016.047h-1.4a1.865,1.865,0,0,0-.5-1.316A1.658,1.658,0,0,0,13.77-7.4a1.777,1.777,0,0,0-1.652.879,4.114,4.114,0,0,0-.52,2.129v.328a4.192,4.192,0,0,0,.512,2.148A1.776,1.776,0,0,0,13.77-1.039ZM20.449,0H18.91V-8.453h1.539Zm0-10.617H18.91v-1.57h1.539ZM28.012,0q-.078-.383-.121-.676a4.96,4.96,0,0,1-.051-.59,3.589,3.589,0,0,1-1.121,1.02,2.867,2.867,0,0,1-1.488.41,2.763,2.763,0,0,1-2.012-.676,2.486,2.486,0,0,1-.691-1.863,2.183,2.183,0,0,1,.98-1.895,4.579,4.579,0,0,1,2.66-.684H27.84v-.836a1.551,1.551,0,0,0-.453-1.176A1.779,1.779,0,0,0,26.105-7.4a1.859,1.859,0,0,0-1.211.375,1.125,1.125,0,0,0-.461.9l-1.461.016-.016-.047a2.023,2.023,0,0,1,.863-1.687,3.578,3.578,0,0,1,2.371-.766,3.49,3.49,0,0,1,2.313.73,2.588,2.588,0,0,1,.875,2.105V-1.7a7.923,7.923,0,0,0,.047.875A4.5,4.5,0,0,0,29.6,0ZM25.457-1.125a2.739,2.739,0,0,0,1.508-.43,2.042,2.042,0,0,0,.875-.984V-3.914H26.113a2.24,2.24,0,0,0-1.488.469,1.4,1.4,0,0,0-.559,1.1,1.159,1.159,0,0,0,.352.891A1.472,1.472,0,0,0,25.457-1.125Zm11.07-1.148a1.026,1.026,0,0,0-.387-.828,3.732,3.732,0,0,0-1.465-.562,6.146,6.146,0,0,1-2.293-.9,1.814,1.814,0,0,1-.8-1.547,2.229,2.229,0,0,1,.879-1.766,3.433,3.433,0,0,1,2.277-.734,3.4,3.4,0,0,1,2.328.781,2.239,2.239,0,0,1,.852,1.82l-.016.047H36.434a1.331,1.331,0,0,0-.48-.992A1.717,1.717,0,0,0,34.738-7.4a1.751,1.751,0,0,0-1.215.367,1.146,1.146,0,0,0-.4.875.927.927,0,0,0,.348.773,3.848,3.848,0,0,0,1.434.5,6.058,6.058,0,0,1,2.359.93,1.872,1.872,0,0,1,.8,1.57,2.226,2.226,0,0,1-.91,1.836,3.754,3.754,0,0,1-2.379.711,3.715,3.715,0,0,1-2.547-.82,2.341,2.341,0,0,1-.883-1.914l.016-.047h1.469a1.424,1.424,0,0,0,.609,1.2,2.358,2.358,0,0,0,1.336.379,2.1,2.1,0,0,0,1.285-.348A1.063,1.063,0,0,0,36.527-2.273ZM-.523,15.328a4.853,4.853,0,0,1-1.293,3.461,4.4,4.4,0,0,1-3.355,1.375A4.167,4.167,0,0,1-8.41,18.789a4.959,4.959,0,0,1-1.246-3.461V13.3A4.977,4.977,0,0,1-8.41,9.844,4.156,4.156,0,0,1-5.172,8.461,4.39,4.39,0,0,1-1.816,9.84,4.867,4.867,0,0,1-.523,13.3Zm-1.539-2.039a3.837,3.837,0,0,0-.844-2.562,2.813,2.813,0,0,0-2.266-1,2.606,2.606,0,0,0-2.145,1,3.972,3.972,0,0,0-.8,2.563v2.039a4,4,0,0,0,.8,2.578,2.606,2.606,0,0,0,2.145,1,2.815,2.815,0,0,0,2.27-1,3.869,3.869,0,0,0,.84-2.582Zm6.3,1.57h-1V20H1.7V8.625H3.234v5.031h.844L8.3,8.625h1.734l.016.039L5.438,14.047l4.938,5.914L10.359,20H8.492Z" transform="translate(649.5 12524.994)" fill="#12263f"/>
    <path id="Trazado_884029" data-name="Trazado 884029" d="M-1.156,0H-2.7L-8.172-8.687l-.047.016V0H-9.758V-11.375h1.539L-2.742-2.7l.047-.016v-8.664h1.539ZM10.2-4.672A4.853,4.853,0,0,1,8.9-1.211,4.4,4.4,0,0,1,5.547.164,4.167,4.167,0,0,1,2.309-1.211,4.959,4.959,0,0,1,1.063-4.672V-6.7a4.977,4.977,0,0,1,1.246-3.461,4.156,4.156,0,0,1,3.238-1.383A4.39,4.39,0,0,1,8.9-10.16,4.867,4.867,0,0,1,10.2-6.7ZM8.656-6.711a3.837,3.837,0,0,0-.844-2.562,2.813,2.813,0,0,0-2.266-1,2.606,2.606,0,0,0-2.145,1,3.972,3.972,0,0,0-.8,2.563v2.039a4,4,0,0,0,.8,2.578,2.606,2.606,0,0,0,2.145,1,2.815,2.815,0,0,0,2.27-1,3.869,3.869,0,0,0,.84-2.582Z" transform="translate(761.173 12512.479)" fill="#12263f"/>
    <path id="Trazado_884030" data-name="Trazado 884030" d="M-1.156,0H-2.7L-8.172-8.687l-.047.016V0H-9.758V-11.375h1.539L-2.742-2.7l.047-.016v-8.664h1.539ZM10.2-4.672A4.853,4.853,0,0,1,8.9-1.211,4.4,4.4,0,0,1,5.547.164,4.167,4.167,0,0,1,2.309-1.211,4.959,4.959,0,0,1,1.063-4.672V-6.7a4.977,4.977,0,0,1,1.246-3.461,4.156,4.156,0,0,1,3.238-1.383A4.39,4.39,0,0,1,8.9-10.16,4.867,4.867,0,0,1,10.2-6.7ZM8.656-6.711a3.837,3.837,0,0,0-.844-2.562,2.813,2.813,0,0,0-2.266-1,2.606,2.606,0,0,0-2.145,1,3.972,3.972,0,0,0-.8,2.563v2.039a4,4,0,0,0,.8,2.578,2.606,2.606,0,0,0,2.145,1,2.815,2.815,0,0,0,2.27-1,3.869,3.869,0,0,0,.84-2.582Z" transform="translate(415.923 12732.88)" fill="#12263f"/>
    <path id="Trazado_884031" data-name="Trazado 884031" d="M.238-2.867a1.711,1.711,0,0,0-.555-1.3A4.62,4.62,0,0,0-2.27-5.055,6.5,6.5,0,0,1-4.977-6.32a2.655,2.655,0,0,1-.973-2.1A2.8,2.8,0,0,1-4.9-10.648a4.05,4.05,0,0,1,2.719-.891A3.971,3.971,0,0,1,.68-10.52,3.088,3.088,0,0,1,1.715-8.141l-.023.047H.223A2.1,2.1,0,0,0-.453-9.7a2.431,2.431,0,0,0-1.73-.633A2.37,2.37,0,0,0-3.836-9.8,1.754,1.754,0,0,0-4.41-8.445a1.518,1.518,0,0,0,.629,1.238,5.8,5.8,0,0,0,2.043.871A5.8,5.8,0,0,1,.879-5.023a2.857,2.857,0,0,1,.9,2.141A2.657,2.657,0,0,1,.7-.672,4.491,4.491,0,0,1-2.129.164a4.8,4.8,0,0,1-2.91-.922A2.81,2.81,0,0,1-6.262-3.227l.016-.047h1.469a1.912,1.912,0,0,0,.813,1.652,3.076,3.076,0,0,0,1.836.582A2.761,2.761,0,0,0-.4-1.531,1.6,1.6,0,0,0,.238-2.867ZM5.66,0H4.113V-11.375H5.66Z" transform="translate(677.173 12601.431)" fill="#12263f"/>
    <path id="Trazado_879132" data-name="Trazado 879132" d="M5.749,1.64,0,0,5.735,8.894l.014-.018.014.018L11.5,0Z" transform="translate(1194.804 12866.629) rotate(-90)" fill="#3a1d71"/>
    <path id="Trazado_884032" data-name="Trazado 884032" d="M4,0H160a4,4,0,0,1,4,4V35a4,4,0,0,1-4,4H4a4,4,0,0,1-4-4V4A4,4,0,0,1,4,0Z" transform="translate(256 12841.38)" fill="#aec4fa"/>
    <path id="Trazado_884033" data-name="Trazado 884033" d="M2.867-4.93V0H1.328V-11.367H5.219a4.32,4.32,0,0,1,2.852.828,2.968,2.968,0,0,1,.984,2.406A2.576,2.576,0,0,1,8.6-6.609,3.1,3.1,0,0,1,7.266-5.578a2.331,2.331,0,0,1,1.348.988A3.236,3.236,0,0,1,9.023-2.9v1.07a3.564,3.564,0,0,0,.117.953,1.429,1.429,0,0,0,.406.688V0H7.961A1.273,1.273,0,0,1,7.57-.781a6.453,6.453,0,0,1-.086-1.062V-2.883a2.056,2.056,0,0,0-.539-1.484A1.908,1.908,0,0,0,5.5-4.93Zm0-1.211h2.2a2.858,2.858,0,0,0,1.879-.5,1.89,1.89,0,0,0,.574-1.512,1.948,1.948,0,0,0-.559-1.488,2.461,2.461,0,0,0-1.738-.527H2.867ZM14.8.164A3.576,3.576,0,0,1,11.957-1a4.48,4.48,0,0,1-1.02-3.062v-.344a4.386,4.386,0,0,1,1.051-3.012,3.3,3.3,0,0,1,2.566-1.191A3.067,3.067,0,0,1,17.1-7.555a4.345,4.345,0,0,1,.848,2.8v.813H12.539l-.023.039a3.494,3.494,0,0,0,.563,2.066,1.965,1.965,0,0,0,1.719.793,3.872,3.872,0,0,0,1.371-.223,3.061,3.061,0,0,0,1.012-.613l.6,1a3.7,3.7,0,0,1-1.2.738A4.762,4.762,0,0,1,14.8.164ZM14.555-7.4a1.673,1.673,0,0,0-1.332.621,2.938,2.938,0,0,0-.645,1.59l.016.039h3.813v-.125A2.462,2.462,0,0,0,15.953-6.8,1.638,1.638,0,0,0,14.555-7.4ZM24.867,0q-.078-.383-.121-.676a4.96,4.96,0,0,1-.051-.59,3.589,3.589,0,0,1-1.121,1.02,2.867,2.867,0,0,1-1.488.41,2.763,2.763,0,0,1-2.012-.676,2.486,2.486,0,0,1-.691-1.863,2.183,2.183,0,0,1,.98-1.895,4.579,4.579,0,0,1,2.66-.684H24.7v-.836a1.551,1.551,0,0,0-.453-1.176A1.779,1.779,0,0,0,22.961-7.4a1.859,1.859,0,0,0-1.211.375,1.125,1.125,0,0,0-.461.9l-1.461.016-.016-.047a2.023,2.023,0,0,1,.863-1.687,3.578,3.578,0,0,1,2.371-.766,3.49,3.49,0,0,1,2.313.73,2.588,2.588,0,0,1,.875,2.105V-1.7a7.923,7.923,0,0,0,.047.875A4.5,4.5,0,0,0,26.453,0ZM22.313-1.125a2.739,2.739,0,0,0,1.508-.43,2.042,2.042,0,0,0,.875-.984V-3.914H22.969a2.24,2.24,0,0,0-1.488.469,1.4,1.4,0,0,0-.559,1.1,1.159,1.159,0,0,0,.352.891A1.472,1.472,0,0,0,22.313-1.125ZM30.133,0H28.594V-12.187h1.539Zm4.031,0H32.625V-8.453h1.539Zm0-10.617H32.625v-1.57h1.539ZM37.984-1.2h4.883V0H36.148V-1.078l4.57-6.156H36.2V-8.453h6.4v1.047ZM49.773,0q-.078-.383-.121-.676a4.96,4.96,0,0,1-.051-.59A3.589,3.589,0,0,1,48.48-.246a2.867,2.867,0,0,1-1.488.41A2.763,2.763,0,0,1,44.98-.512a2.486,2.486,0,0,1-.691-1.863,2.183,2.183,0,0,1,.98-1.895,4.579,4.579,0,0,1,2.66-.684H49.6v-.836a1.551,1.551,0,0,0-.453-1.176A1.779,1.779,0,0,0,47.867-7.4a1.859,1.859,0,0,0-1.211.375,1.125,1.125,0,0,0-.461.9l-1.461.016-.016-.047a2.023,2.023,0,0,1,.863-1.687,3.578,3.578,0,0,1,2.371-.766,3.49,3.49,0,0,1,2.313.73,2.588,2.588,0,0,1,.875,2.105V-1.7a7.923,7.923,0,0,0,.047.875A4.5,4.5,0,0,0,51.359,0ZM47.219-1.125a2.739,2.739,0,0,0,1.508-.43,2.042,2.042,0,0,0,.875-.984V-3.914H47.875a2.24,2.24,0,0,0-1.488.469,1.4,1.4,0,0,0-.559,1.1,1.159,1.159,0,0,0,.352.891A1.472,1.472,0,0,0,47.219-1.125ZM64.555-3.906A4.659,4.659,0,0,1,63.68-.957,2.893,2.893,0,0,1,61.266.164,3.354,3.354,0,0,1,59.895-.1a2.622,2.622,0,0,1-1-.785V3.25H57.352v-11.7h1.18l.242,1.094a2.792,2.792,0,0,1,1.031-.93,3.078,3.078,0,0,1,1.438-.32,2.809,2.809,0,0,1,2.441,1.246,5.638,5.638,0,0,1,.871,3.293ZM63.016-4.07a4.467,4.467,0,0,0-.566-2.363,1.835,1.835,0,0,0-1.668-.926,2.054,2.054,0,0,0-1.133.3,2.25,2.25,0,0,0-.758.824v4.086a2.186,2.186,0,0,0,.758.816,2.126,2.126,0,0,0,1.148.293,1.894,1.894,0,0,0,1.656-.8,3.516,3.516,0,0,0,.563-2.066ZM71.641,0q-.078-.383-.121-.676a4.96,4.96,0,0,1-.051-.59,3.589,3.589,0,0,1-1.121,1.02,2.867,2.867,0,0,1-1.488.41,2.763,2.763,0,0,1-2.012-.676,2.486,2.486,0,0,1-.691-1.863,2.183,2.183,0,0,1,.98-1.895,4.579,4.579,0,0,1,2.66-.684h1.672v-.836a1.551,1.551,0,0,0-.453-1.176A1.779,1.779,0,0,0,69.734-7.4a1.859,1.859,0,0,0-1.211.375,1.125,1.125,0,0,0-.461.9L66.6-6.109l-.016-.047a2.023,2.023,0,0,1,.863-1.687,3.578,3.578,0,0,1,2.371-.766,3.49,3.49,0,0,1,2.313.73,2.588,2.588,0,0,1,.875,2.105V-1.7a7.923,7.923,0,0,0,.047.875A4.5,4.5,0,0,0,73.227,0ZM69.086-1.125a2.739,2.739,0,0,0,1.508-.43,2.042,2.042,0,0,0,.875-.984V-3.914H69.742a2.24,2.24,0,0,0-1.488.469,1.4,1.4,0,0,0-.559,1.1,1.159,1.159,0,0,0,.352.891A1.472,1.472,0,0,0,69.086-1.125ZM74.969-4.07a5.641,5.641,0,0,1,.871-3.289,2.8,2.8,0,0,1,2.434-1.25,2.966,2.966,0,0,1,1.414.324,2.845,2.845,0,0,1,1.023.934l.188-1.1h1.227v8.5a3.225,3.225,0,0,1-.945,2.5,3.884,3.884,0,0,1-2.727.871,5.716,5.716,0,0,1-1.316-.168,5.147,5.147,0,0,1-1.246-.457l.234-1.2a4.45,4.45,0,0,0,1.074.379,5.517,5.517,0,0,0,1.238.145,2.242,2.242,0,0,0,1.637-.512A2.12,2.12,0,0,0,80.586.047V-.914a2.725,2.725,0,0,1-.992.8,3.091,3.091,0,0,1-1.336.273A2.89,2.89,0,0,1,75.84-.957a4.674,4.674,0,0,1-.871-2.949Zm1.539.164a3.592,3.592,0,0,0,.523,2.047,1.817,1.817,0,0,0,1.617.773A2.034,2.034,0,0,0,79.813-1.4a2.4,2.4,0,0,0,.773-.895V-6.187a2.388,2.388,0,0,0-.773-.855,2.029,2.029,0,0,0-1.148-.316,1.752,1.752,0,0,0-1.629.914,4.718,4.718,0,0,0-.527,2.375Zm7.469-.4a4.654,4.654,0,0,1,1.016-3.09A3.406,3.406,0,0,1,87.75-8.609,3.439,3.439,0,0,1,90.527-7.4,4.639,4.639,0,0,1,91.547-4.3v.172a4.631,4.631,0,0,1-1.016,3.094,3.429,3.429,0,0,1-2.766,1.2A3.436,3.436,0,0,1,85-1.043a4.623,4.623,0,0,1-1.02-3.09Zm1.539.172a4.009,4.009,0,0,0,.566,2.219,1.875,1.875,0,0,0,1.684.875,1.87,1.87,0,0,0,1.672-.875,3.988,3.988,0,0,0,.57-2.219V-4.3a3.976,3.976,0,0,0-.574-2.211A1.882,1.882,0,0,0,87.75-7.4a1.856,1.856,0,0,0-1.668.883A4.018,4.018,0,0,0,85.516-4.3Z" transform="translate(293 12867.38)" fill="#12263f"/>
    <path id="Trazado_884034" data-name="Trazado 884034" d="M-34.539-4.562V0h-1.539V-11.375h4.352a4.009,4.009,0,0,1,2.832.938,3.207,3.207,0,0,1,1.012,2.469,3.2,3.2,0,0,1-1.012,2.477,4.031,4.031,0,0,1-2.832.93Zm0-1.2h2.813A2.231,2.231,0,0,0-30-6.387a2.227,2.227,0,0,0,.57-1.566A2.26,2.26,0,0,0-30-9.531a2.21,2.21,0,0,0-1.723-.633h-2.812Zm11.82,5.93A3.576,3.576,0,0,1-25.559-1a4.48,4.48,0,0,1-1.02-3.062v-.344a4.386,4.386,0,0,1,1.051-3.012,3.3,3.3,0,0,1,2.566-1.191,3.067,3.067,0,0,1,2.543,1.055,4.345,4.345,0,0,1,.848,2.8v.813h-5.406L-25-3.9a3.494,3.494,0,0,0,.563,2.066,1.965,1.965,0,0,0,1.719.793,3.872,3.872,0,0,0,1.371-.223,3.061,3.061,0,0,0,1.012-.613l.6,1a3.7,3.7,0,0,1-1.2.738A4.762,4.762,0,0,1-22.719.164ZM-22.961-7.4a1.673,1.673,0,0,0-1.332.621,2.938,2.938,0,0,0-.645,1.59l.016.039h3.813v-.125A2.462,2.462,0,0,0-21.562-6.8,1.638,1.638,0,0,0-22.961-7.4ZM-18.2-4.07a5.641,5.641,0,0,1,.871-3.289,2.807,2.807,0,0,1,2.441-1.25,3.027,3.027,0,0,1,1.316.273,2.7,2.7,0,0,1,.98.8v-4.648h1.539V0h-1.18l-.234-1.07a2.743,2.743,0,0,1-1.023.922A3.058,3.058,0,0,1-14.9.164,2.9,2.9,0,0,1-17.32-.957,4.659,4.659,0,0,1-18.2-3.906Zm1.539.164a3.588,3.588,0,0,0,.523,2.051,1.828,1.828,0,0,0,1.625.77A2.039,2.039,0,0,0-13.352-1.4a2.334,2.334,0,0,0,.766-.875V-6.219a2.37,2.37,0,0,0-.77-.832,2.033,2.033,0,0,0-1.137-.309,1.759,1.759,0,0,0-1.637.914,4.718,4.718,0,0,0-.527,2.375ZM-7.086,0H-8.625V-8.453h1.539Zm0-10.617H-8.625v-1.57h1.539ZM-5.07-4.07A5.641,5.641,0,0,1-4.2-7.359a2.807,2.807,0,0,1,2.441-1.25,3.027,3.027,0,0,1,1.316.273,2.7,2.7,0,0,1,.98.8v-4.648H2.078V0H.9L.664-1.07A2.743,2.743,0,0,1-.359-.148,3.058,3.058,0,0,1-1.773.164,2.9,2.9,0,0,1-4.2-.957,4.659,4.659,0,0,1-5.07-3.906Zm1.539.164a3.588,3.588,0,0,0,.523,2.051,1.828,1.828,0,0,0,1.625.77A2.039,2.039,0,0,0-.227-1.4a2.334,2.334,0,0,0,.766-.875V-6.219a2.37,2.37,0,0,0-.77-.832,2.033,2.033,0,0,0-1.137-.309A1.759,1.759,0,0,0-3-6.445,4.718,4.718,0,0,0-3.531-4.07Zm7.547-.4a4.654,4.654,0,0,1,1.016-3.09A3.406,3.406,0,0,1,7.789-8.609,3.439,3.439,0,0,1,10.566-7.4,4.639,4.639,0,0,1,11.586-4.3v.172A4.631,4.631,0,0,1,10.57-1.039,3.429,3.429,0,0,1,7.8.164a3.436,3.436,0,0,1-2.77-1.207,4.623,4.623,0,0,1-1.02-3.09Zm1.539.172a4.009,4.009,0,0,0,.566,2.219A1.875,1.875,0,0,0,7.8-1.039a1.87,1.87,0,0,0,1.672-.875,3.988,3.988,0,0,0,.57-2.219V-4.3a3.976,3.976,0,0,0-.574-2.211A1.882,1.882,0,0,0,7.789-7.4a1.856,1.856,0,0,0-1.668.883A4.018,4.018,0,0,0,5.555-4.3Zm20.789-.539a4.853,4.853,0,0,1-1.293,3.461A4.4,4.4,0,0,1,21.7.164a4.167,4.167,0,0,1-3.238-1.375,4.959,4.959,0,0,1-1.246-3.461V-6.7a4.977,4.977,0,0,1,1.246-3.461A4.156,4.156,0,0,1,21.7-11.539a4.39,4.39,0,0,1,3.355,1.379A4.867,4.867,0,0,1,26.344-6.7ZM24.8-6.711a3.837,3.837,0,0,0-.844-2.562,2.813,2.813,0,0,0-2.266-1,2.606,2.606,0,0,0-2.145,1,3.972,3.972,0,0,0-.8,2.563v2.039a4,4,0,0,0,.8,2.578,2.606,2.606,0,0,0,2.145,1,2.815,2.815,0,0,0,2.27-1,3.869,3.869,0,0,0,.84-2.582Zm6.3,1.57h-1V0H28.563V-11.375H30.1v5.031h.844l4.219-5.031H36.9l.016.039L32.3-5.953,37.242-.039,37.227,0H35.359Z" transform="translate(338 12753.88)" fill="#12263f"/>
    <path id="Trazado_879144" data-name="Trazado 879144" d="M5.749,1.64,0,0,5.735,8.894l.014-.018.014.018L11.5,0Z" transform="translate(1268.75 12908.678)" fill="#3a1d71"/>
    <path id="Trazado_879113" data-name="Trazado 879113" d="M-8039.5,713.85V678.912" transform="translate(8376 11672.977)" fill="none" stroke="#3a1d71" stroke-width="2"/>
    <path id="Trazado_879119" data-name="Trazado 879119" d="M-8039.5,713.85V678.912" transform="translate(8687.883 11759.815)" fill="none" stroke="#3a1d71" stroke-width="2"/>
    <path id="Trazado_879137" data-name="Trazado 879137" d="M-8039.5,678.912V875.726" transform="translate(8994.289 11871.653)" fill="none" stroke="#3a1d71" stroke-width="2"/>
    <path id="Trazado_879123" data-name="Trazado 879123" d="M-8039.5,713.85V678.912" transform="translate(8687.883 11890.815)" fill="none" stroke="#3a1d71" stroke-width="2"/>
    <path id="Trazado_879114" data-name="Trazado 879114" d="M-8039.5,821.223V678.912" transform="translate(-266.145 4375.727) rotate(-90)" fill="none" stroke="#3a1d71" stroke-width="2"/>
    <path id="Trazado_879136" data-name="Trazado 879136" d="M-8039.5,816.417v-137.5" transform="translate(45.067 4482.727) rotate(-90)" fill="none" stroke="#3a1d71" stroke-width="2"/>
    <path id="Trazado_879143" data-name="Trazado 879143" d="M-8039.5,884.744V678.912" transform="translate(59.108 4707.88) rotate(-90)" fill="none" stroke="#3a1d71" stroke-width="2"/>
    <path id="Trazado_879131" data-name="Trazado 879131" d="M0,775.428V0" transform="translate(422.766 12860.879) rotate(-90)" fill="none" stroke="#3a1d71" stroke-width="2"/>
    <path id="Trazado_879141" data-name="Trazado 879141" d="M-8039.5,812.537V678.912" transform="translate(-256.145 4707.879) rotate(-90)" fill="none" stroke="#3a1d71" stroke-width="2"/>
    <path id="Trazado_879133" data-name="Trazado 879133" d="M-7814.106,961.339l-175.384,90.04" transform="translate(8376 11670.889)" fill="none" stroke="#3a1d71" stroke-width="2"/>
    <path id="Trazado_879130" data-name="Trazado 879130" d="M-8039.5,713.85V678.912" transform="translate(8377.501 12114.776)" fill="none" stroke="#3a1d71" stroke-width="2"/>
    <path id="Trazado_879145" data-name="Trazado 879145" d="M-8039.5,713.85V678.912" transform="translate(9314 12199.968)" fill="none" stroke="#3a1d71" stroke-width="2"/>
    <path id="Trazado_884035" data-name="Trazado 884035" d="M18.5,0h99a18.5,18.5,0,0,1,0,37h-99a18.5,18.5,0,0,1,0-37Z" transform="translate(1207 12924.719)" fill="#759cfc"/>
    <path id="Trazado_884036" data-name="Trazado 884036" d="M7.7-4.727H3.328V0H1.047V-11.375H8.492v1.758H3.328v3.133H7.7ZM12.172,0H9.891V-8.453h2.281Zm0-10.477H9.891v-1.711h2.281Zm3.961,2.023.1,1.211A3.092,3.092,0,0,1,17.273-8.25a2.7,2.7,0,0,1,1.383-.359,2.513,2.513,0,0,1,2,.824,3.908,3.908,0,0,1,.719,2.605V0H19.086V-5.172a2.024,2.024,0,0,0-.316-1.285,1.166,1.166,0,0,0-.949-.379,1.992,1.992,0,0,0-.895.191,1.746,1.746,0,0,0-.637.527V0H14.008V-8.453Z" transform="translate(1264 12949.719)" fill="#12263f"/>
    <path id="Trazado_884037" data-name="Trazado 884037" d="M4,0H132a4,4,0,0,1,4,4V35a4,4,0,0,1-4,4H4a4,4,0,0,1-4-4V4A4,4,0,0,1,4,0Z" transform="translate(1207 12841.88)" fill="#aec4fa"/>
    <path id="Trazado_884038" data-name="Trazado 884038" d="M2.867-4.93V0H1.328V-11.367H5.219a4.32,4.32,0,0,1,2.852.828,2.968,2.968,0,0,1,.984,2.406A2.576,2.576,0,0,1,8.6-6.609,3.1,3.1,0,0,1,7.266-5.578a2.331,2.331,0,0,1,1.348.988A3.236,3.236,0,0,1,9.023-2.9v1.07a3.564,3.564,0,0,0,.117.953,1.429,1.429,0,0,0,.406.688V0H7.961A1.273,1.273,0,0,1,7.57-.781a6.453,6.453,0,0,1-.086-1.062V-2.883a2.056,2.056,0,0,0-.539-1.484A1.908,1.908,0,0,0,5.5-4.93Zm0-1.211h2.2a2.858,2.858,0,0,0,1.879-.5,1.89,1.89,0,0,0,.574-1.512,1.948,1.948,0,0,0-.559-1.488,2.461,2.461,0,0,0-1.738-.527H2.867ZM14.8.164A3.576,3.576,0,0,1,11.957-1a4.48,4.48,0,0,1-1.02-3.062v-.344a4.386,4.386,0,0,1,1.051-3.012,3.3,3.3,0,0,1,2.566-1.191A3.067,3.067,0,0,1,17.1-7.555a4.345,4.345,0,0,1,.848,2.8v.813H12.539l-.023.039a3.494,3.494,0,0,0,.563,2.066,1.965,1.965,0,0,0,1.719.793,3.872,3.872,0,0,0,1.371-.223,3.061,3.061,0,0,0,1.012-.613l.6,1a3.7,3.7,0,0,1-1.2.738A4.762,4.762,0,0,1,14.8.164ZM14.555-7.4a1.673,1.673,0,0,0-1.332.621,2.938,2.938,0,0,0-.645,1.59l.016.039h3.813v-.125A2.462,2.462,0,0,0,15.953-6.8,1.638,1.638,0,0,0,14.555-7.4ZM19.4-4.07a5.641,5.641,0,0,1,.871-3.289A2.8,2.8,0,0,1,22.7-8.609a2.966,2.966,0,0,1,1.414.324,2.845,2.845,0,0,1,1.023.934l.188-1.1h1.227v8.5a3.225,3.225,0,0,1-.945,2.5,3.884,3.884,0,0,1-2.727.871,5.716,5.716,0,0,1-1.316-.168,5.147,5.147,0,0,1-1.246-.457l.234-1.2a4.45,4.45,0,0,0,1.074.379,5.517,5.517,0,0,0,1.238.145A2.242,2.242,0,0,0,24.5,1.605,2.12,2.12,0,0,0,25.016.047V-.914a2.725,2.725,0,0,1-.992.8,3.091,3.091,0,0,1-1.336.273A2.89,2.89,0,0,1,20.27-.957,4.674,4.674,0,0,1,19.4-3.906Zm1.539.164a3.592,3.592,0,0,0,.523,2.047,1.817,1.817,0,0,0,1.617.773A2.034,2.034,0,0,0,24.242-1.4a2.4,2.4,0,0,0,.773-.895V-6.187a2.388,2.388,0,0,0-.773-.855,2.029,2.029,0,0,0-1.148-.316,1.752,1.752,0,0,0-1.629.914,4.718,4.718,0,0,0-.527,2.375ZM30.43,0H28.891V-8.453H30.43Zm0-10.617H28.891v-1.57H30.43Zm7.281,8.344a1.026,1.026,0,0,0-.387-.828,3.732,3.732,0,0,0-1.465-.562,6.146,6.146,0,0,1-2.293-.9,1.814,1.814,0,0,1-.8-1.547,2.229,2.229,0,0,1,.879-1.766,3.433,3.433,0,0,1,2.277-.734,3.4,3.4,0,0,1,2.328.781,2.239,2.239,0,0,1,.852,1.82l-.016.047H37.617a1.331,1.331,0,0,0-.48-.992A1.717,1.717,0,0,0,35.922-7.4a1.751,1.751,0,0,0-1.215.367,1.146,1.146,0,0,0-.4.875.927.927,0,0,0,.348.773,3.848,3.848,0,0,0,1.434.5,6.058,6.058,0,0,1,2.359.93,1.872,1.872,0,0,1,.8,1.57,2.226,2.226,0,0,1-.91,1.836,3.754,3.754,0,0,1-2.379.711,3.715,3.715,0,0,1-2.547-.82,2.341,2.341,0,0,1-.883-1.914l.016-.047h1.469a1.424,1.424,0,0,0,.609,1.2,2.358,2.358,0,0,0,1.336.379,2.1,2.1,0,0,0,1.285-.348A1.063,1.063,0,0,0,37.711-2.273ZM43.3-10.492v2.039h1.6v1.141H43.3V-2.18a1.149,1.149,0,0,0,.246.836A.89.89,0,0,0,44.2-1.1a1.429,1.429,0,0,0,.3-.035,2.2,2.2,0,0,0,.273-.074l.211,1.055a1.36,1.36,0,0,1-.508.23,2.562,2.562,0,0,1-.664.09A1.993,1.993,0,0,1,42.32-.4a2.46,2.46,0,0,1-.555-1.777V-7.312H40.422V-8.453h1.344v-2.039Zm7.25,3.4-.789-.047a1.762,1.762,0,0,0-1.027.289,1.855,1.855,0,0,0-.645.813V0H46.555V-8.453H47.93l.148,1.234a2.934,2.934,0,0,1,.887-1.023,2.073,2.073,0,0,1,1.215-.367,1.9,1.9,0,0,1,.328.027,2.175,2.175,0,0,1,.258.059ZM57.352,0q-.078-.383-.121-.676a4.96,4.96,0,0,1-.051-.59,3.589,3.589,0,0,1-1.121,1.02,2.867,2.867,0,0,1-1.488.41,2.763,2.763,0,0,1-2.012-.676,2.486,2.486,0,0,1-.691-1.863,2.183,2.183,0,0,1,.98-1.895,4.579,4.579,0,0,1,2.66-.684H57.18v-.836a1.551,1.551,0,0,0-.453-1.176A1.779,1.779,0,0,0,55.445-7.4a1.859,1.859,0,0,0-1.211.375,1.125,1.125,0,0,0-.461.9l-1.461.016L52.3-6.156a2.023,2.023,0,0,1,.863-1.687,3.578,3.578,0,0,1,2.371-.766,3.49,3.49,0,0,1,2.313.73,2.588,2.588,0,0,1,.875,2.105V-1.7a7.923,7.923,0,0,0,.047.875A4.5,4.5,0,0,0,58.938,0ZM54.8-1.125a2.739,2.739,0,0,0,1.508-.43,2.042,2.042,0,0,0,.875-.984V-3.914H55.453a2.24,2.24,0,0,0-1.488.469,1.4,1.4,0,0,0-.559,1.1,1.159,1.159,0,0,0,.352.891A1.472,1.472,0,0,0,54.8-1.125ZM65.57,0V-7.312H64.25V-8.453h1.32v-1.07a2.9,2.9,0,0,1,.707-2.09,2.6,2.6,0,0,1,1.973-.738,3.4,3.4,0,0,1,.535.043q.27.043.6.121L69.2-11.016q-.141-.031-.34-.055a3.579,3.579,0,0,0-.418-.023,1.215,1.215,0,0,0-1,.4,1.809,1.809,0,0,0-.328,1.168v1.07h1.531v1.141H67.109V0Zm9.82,0q-.078-.383-.121-.676a4.96,4.96,0,0,1-.051-.59A3.589,3.589,0,0,1,74.1-.246a2.867,2.867,0,0,1-1.488.41A2.763,2.763,0,0,1,70.6-.512a2.486,2.486,0,0,1-.691-1.863,2.183,2.183,0,0,1,.98-1.895,4.579,4.579,0,0,1,2.66-.684h1.672v-.836a1.551,1.551,0,0,0-.453-1.176A1.779,1.779,0,0,0,73.484-7.4a1.859,1.859,0,0,0-1.211.375,1.125,1.125,0,0,0-.461.9l-1.461.016-.016-.047A2.023,2.023,0,0,1,71.2-7.844a3.578,3.578,0,0,1,2.371-.766,3.49,3.49,0,0,1,2.313.73,2.588,2.588,0,0,1,.875,2.105V-1.7a7.923,7.923,0,0,0,.047.875A4.5,4.5,0,0,0,76.977,0ZM72.836-1.125a2.739,2.739,0,0,0,1.508-.43,2.042,2.042,0,0,0,.875-.984V-3.914H73.492A2.24,2.24,0,0,0,72-3.445a1.4,1.4,0,0,0-.559,1.1,1.159,1.159,0,0,0,.352.891A1.472,1.472,0,0,0,72.836-1.125Zm9.516.086a1.81,1.81,0,0,0,1.242-.473,1.494,1.494,0,0,0,.531-1.16h1.391l.023.047A2.428,2.428,0,0,1,84.6-.684a3.313,3.313,0,0,1-2.25.848A3.319,3.319,0,0,1,79.6-1.047a4.674,4.674,0,0,1-.969-3.016v-.328a4.654,4.654,0,0,1,.973-3,3.317,3.317,0,0,1,2.746-1.215,3.189,3.189,0,0,1,2.316.875,2.775,2.775,0,0,1,.871,2.148l-.016.047h-1.4a1.865,1.865,0,0,0-.5-1.316,1.658,1.658,0,0,0-1.27-.543A1.777,1.777,0,0,0,80.7-6.52a4.114,4.114,0,0,0-.52,2.129v.328a4.192,4.192,0,0,0,.512,2.148A1.776,1.776,0,0,0,82.352-1.039Zm7.156-9.453v2.039h1.6v1.141h-1.6V-2.18a1.149,1.149,0,0,0,.246.836.89.89,0,0,0,.652.242,1.43,1.43,0,0,0,.3-.035,2.2,2.2,0,0,0,.273-.074l.211,1.055a1.36,1.36,0,0,1-.508.23,2.562,2.562,0,0,1-.664.09A1.993,1.993,0,0,1,88.523-.4a2.46,2.46,0,0,1-.555-1.777V-7.312H86.625V-8.453h1.344v-2.039ZM98.125-1.25A2.863,2.863,0,0,1,97.1-.2a2.8,2.8,0,0,1-1.445.367A2.716,2.716,0,0,1,93.5-.719a4.1,4.1,0,0,1-.773-2.75V-8.453h1.539v5a3.147,3.147,0,0,0,.4,1.859,1.481,1.481,0,0,0,1.242.508,2.531,2.531,0,0,0,1.355-.332,2.077,2.077,0,0,0,.809-.941V-8.453h1.539V0H98.227Zm7.727-5.844-.789-.047a1.762,1.762,0,0,0-1.027.289,1.854,1.854,0,0,0-.645.813V0h-1.539V-8.453h1.375l.148,1.234a2.934,2.934,0,0,1,.887-1.023,2.073,2.073,0,0,1,1.215-.367,1.9,1.9,0,0,1,.328.027,2.175,2.175,0,0,1,.258.059ZM112.648,0q-.078-.383-.121-.676a4.96,4.96,0,0,1-.051-.59,3.589,3.589,0,0,1-1.121,1.02,2.867,2.867,0,0,1-1.488.41,2.763,2.763,0,0,1-2.012-.676,2.486,2.486,0,0,1-.691-1.863,2.183,2.183,0,0,1,.98-1.895,4.579,4.579,0,0,1,2.66-.684h1.672v-.836a1.551,1.551,0,0,0-.453-1.176,1.779,1.779,0,0,0-1.281-.434,1.859,1.859,0,0,0-1.211.375,1.125,1.125,0,0,0-.461.9l-1.461.016-.016-.047a2.023,2.023,0,0,1,.863-1.687,3.578,3.578,0,0,1,2.371-.766,3.49,3.49,0,0,1,2.313.73,2.588,2.588,0,0,1,.875,2.105V-1.7a7.923,7.923,0,0,0,.047.875,4.5,4.5,0,0,0,.172.828Zm-2.555-1.125a2.739,2.739,0,0,0,1.508-.43,2.042,2.042,0,0,0,.875-.984V-3.914H110.75a2.24,2.24,0,0,0-1.488.469,1.4,1.4,0,0,0-.559,1.1,1.159,1.159,0,0,0,.352.891A1.472,1.472,0,0,0,110.094-1.125Z" transform="translate(1219 12867.88)" fill="#12263f"/>
    <path id="Trazado_879146" data-name="Trazado 879146" d="M7.466,2.13,0,0,7.448,11.549l.018-.023.018.023L14.931,0Z" transform="translate(551.672 12422.693) rotate(-90)" fill="#3a1d71"/>
    <path id="Trazado_879147" data-name="Trazado 879147" d="M7.466,2.13,0,0,7.448,11.549l.018-.023.018.023L14.931,0Z" transform="translate(329.034 12379.584)" fill="#3a1d71"/>
    <path id="Trazado_879148" data-name="Trazado 879148" d="M7.466,2.13,0,0,7.448,11.549l.018-.023.018.023L14.931,0Z" transform="translate(330.534 12822.852)" fill="#3a1d71"/>
    <path id="Trazado_879149" data-name="Trazado 879149" d="M7.466,2.13,0,0,7.448,11.549l.018-.023.018.023L14.931,0Z" transform="matrix(0.574, 0.819, -0.819, 0.574, 385.448, 12713.712)" fill="#3a1d71"/>
    <path id="Trazado_879150" data-name="Trazado 879150" d="M7.466,2.13,0,0,7.448,11.549l.018-.023.018.023L14.931,0Z" transform="translate(858.078 12529.693) rotate(-90)" fill="#3a1d71"/>
    <path id="Trazado_879151" data-name="Trazado 879151" d="M7.466,2.13,0,0,7.448,11.549l.018-.023.018.023L14.931,0Z" transform="translate(938.078 12755.097) rotate(-90)" fill="#3a1d71"/>
    <path id="Trazado_879152" data-name="Trazado 879152" d="M7.466,2.13,0,0,7.448,11.549l.018-.023.018.023L14.931,0Z" transform="translate(551.672 12755.097) rotate(-90)" fill="#3a1d71"/>
    <path id="Trazado_879153" data-name="Trazado 879153" d="M7.466,2.13,0,0,7.448,11.549l.018-.023.018.023L14.931,0Z" transform="translate(640.917 12596.525)" fill="#3a1d71"/>
    <path id="Trazado_879154" data-name="Trazado 879154" d="M7.466,9.42,0,11.549,7.448,0l.018.023L7.484,0l7.447,11.549Z" transform="translate(947.323 12546.525)" fill="#3a1d71"/>
  </g>
</svg>
