<svg xmlns="http://www.w3.org/2000/svg" width="61.98" height="67.365" viewBox="0 0 61.98 67.365">
  <g id="campana" transform="translate(0 0)">
    <path id="Trazado_825133" data-name="Trazado 825133" d="M94.831,86.243H44.582a4.3,4.3,0,0,0,4.343-3.2C52.5,73.4,42.978,45.3,69.707,45.3s17.205,28.1,20.78,37.742a4.305,4.305,0,0,0,4.343,3.2Zm0,0" transform="translate(-38.716 -39.34)" fill="#ffce00"/>
    <path id="Trazado_825134" data-name="Trazado 825134" d="M67.585,361.349a4.865,4.865,0,0,1-4.865,4.865H12.471a4.865,4.865,0,1,1,0-9.73H62.72a4.864,4.864,0,0,1,4.865,4.865Zm0,0" transform="translate(-6.605 -309.581)" fill="#ddb302"/>
    <path id="Trazado_825135" data-name="Trazado 825135" d="M90.49,83.049H64.373a4.985,4.985,0,0,1-4.98-5.145c.368-11.907-1.531-32.37,10.121-32.6-31.984.165-11.539,40.942-24.929,40.942H94.833a4.305,4.305,0,0,1-4.343-3.2Zm0,0" transform="translate(-38.719 -39.347)" fill="#ddb302"/>
    <path id="Trazado_825136" data-name="Trazado 825136" d="M160.377,361.349a4.865,4.865,0,0,1-4.865,4.865H119.321a4.865,4.865,0,0,1,0-9.73h36.191a4.864,4.864,0,0,1,4.865,4.865Zm0,0" transform="translate(-99.398 -309.581)" fill="#ffce00"/>
    <path id="Trazado_825137" data-name="Trazado 825137" d="M181.043,430.434a9.73,9.73,0,1,1-19.461,0Zm0,0" transform="translate(-140.322 -373.801)" fill="#ddb302"/>
    <path id="Trazado_825138" data-name="Trazado 825138" d="M226.4,453.246a9.753,9.753,0,0,1-6.658,6.378,9.74,9.74,0,0,1-4.963-3.256,1.924,1.924,0,0,1,1.511-3.122Zm0,0" transform="translate(-186.152 -393.611)" fill="#ffce00"/>
    <path id="Trazado_825139" data-name="Trazado 825139" d="M207.752,12.937c.011-.123.015-.247.015-.372a4.96,4.96,0,1,0-9.919,0c0,.125,0,.249.014.372" transform="translate(-171.817 -6.605)" fill="#ffce00"/>
    <path id="Trazado_825140" data-name="Trazado 825140" d="M56.114,45.9h0c-1.937,0-3.031-1.006-3.657-3.359-.64-2.406-.661-5.9-.684-9.591-.027-4.477-.058-9.55-1.171-14.088a1,1,0,0,0-1.944.476c1.057,4.309,1.087,9.258,1.114,13.624.024,3.826.045,7.439.751,10.093A8.038,8.038,0,0,0,51.835,45.9H10.145a8.038,8.038,0,0,0,1.315-2.845c.706-2.653.728-6.267.751-10.093.035-5.841.076-12.461,2.466-17.528,2.69-5.7,8.026-8.476,16.313-8.476,4.551,0,8.275.855,11.069,2.543A13.428,13.428,0,0,1,47.5,15.859a1,1,0,0,0,1.832-.8A15.573,15.573,0,0,0,43.093,7.79,18.987,18.987,0,0,0,36.932,5.5a5.958,5.958,0,0,0-11.882,0,19.168,19.168,0,0,0-5.917,2.143,15.429,15.429,0,0,0-6.266,6.939c-2.578,5.466-2.62,12.321-2.657,18.369-.023,3.695-.044,7.185-.684,9.591C8.9,44.9,7.807,45.9,5.87,45.9h0a5.866,5.866,0,0,0,0,11.732H12.2a1,1,0,1,0,0-2H5.866a3.865,3.865,0,0,1,0-7.73h50.25a3.865,3.865,0,0,1,0,7.73H16.2a1,1,0,0,0,0,2h4.107a10.729,10.729,0,0,0,21.366,0H56.114a5.866,5.866,0,0,0,0-11.732ZM30.99,2A3.966,3.966,0,0,1,34.872,5.18a34.318,34.318,0,0,0-7.763,0A3.965,3.965,0,0,1,30.99,2Zm0,63.363a8.742,8.742,0,0,1-8.671-7.73H39.661a8.742,8.742,0,0,1-8.671,7.73Zm0,0"/>
    <path id="Trazado_825141" data-name="Trazado 825141" d="M354.255,35.35a12.978,12.978,0,0,1,3.552,3.388,19.239,19.239,0,0,1,3.538,11.744,1,1,0,0,0,2,0,21.229,21.229,0,0,0-4-13.031,14.623,14.623,0,0,0-4.117-3.851,1,1,0,0,0-.971,1.75Zm0,0" transform="translate(-307.201 -29.071)"/>
    <path id="Trazado_825142" data-name="Trazado 825142" d="M412,38.358c.161.105,3.943,2.644,3.943,9.03a1,1,0,0,0,2,0c0-7.533-4.666-10.589-4.865-10.715A1,1,0,0,0,412,38.358Zm0,0" transform="translate(-357.392 -31.712)"/>
    <path id="Trazado_825143" data-name="Trazado 825143" d="M45.348,51.482a1,1,0,0,0,1-1,19.243,19.243,0,0,1,3.538-11.744,13.02,13.02,0,0,1,3.551-3.388,1,1,0,0,0-.97-1.75A14.623,14.623,0,0,0,48.35,37.45a21.232,21.232,0,0,0-4,13.031,1,1,0,0,0,1,1Zm0,0" transform="translate(-38.513 -29.07)"/>
    <path id="Trazado_825144" data-name="Trazado 825144" d="M11.891,48.389a1,1,0,0,0,1-1c0-6.381,3.777-8.921,3.943-9.03a1,1,0,0,0-1.079-1.685c-.2.126-4.865,3.182-4.865,10.715a1,1,0,0,0,1,1Zm0,0" transform="translate(-9.458 -31.713)"/>
  </g>
</svg>
