<svg xmlns="http://www.w3.org/2000/svg" xmlns:xlink="http://www.w3.org/1999/xlink" width="295" height="208.99" viewBox="0 0 295 208.99">
  <defs>
    <clipPath id="clip-path">
      <path id="Trazado_878084" data-name="Trazado 878084" d="M0,0H295V208.99H0Z" transform="translate(180 1857.01)" fill="#fff"/>
    </clipPath>
  </defs>
  <g id="Enmascarar_grupo_1098706" data-name="Enmascarar grupo 1098706" transform="translate(-180 -1857.01)" clip-path="url(#clip-path)">
    <g id="Grupo_1100899" data-name="Grupo 1100899" transform="translate(0 19)">
      <g id="Elipse_11612" data-name="Elipse 11612" transform="translate(227 1845)" fill="none" stroke="#3a1d71" stroke-width="2.5">
        <circle cx="101" cy="101" r="101" stroke="none"/>
        <circle cx="101" cy="101" r="99.75" fill="none"/>
      </g>
      <path id="Trazado_878067" data-name="Trazado 878067" d="M10.1,12.744,0,15.625,10.076,0,10.1.031,10.125,0,20.2,15.625Z" transform="translate(281.596 1847.034) rotate(59)" fill="#3a1d71"/>
      <rect id="Rectángulo_402400" data-name="Rectángulo 402400" width="85" height="27" rx="13.5" transform="translate(288 1839)" fill="#d4f4f0"/>
      <path id="Trazado_878068" data-name="Trazado 878068" d="M10.1,2.881,0,0,10.076,15.625l.024-.031.025.031L20.2,0Z" transform="matrix(0.819, -0.574, 0.574, 0.819, 399, 1893.393)" fill="#3a1d71"/>
      <rect id="Rectángulo_402401" data-name="Rectángulo 402401" width="85" height="27" rx="13.5" transform="translate(390 1905)" fill="#b4c7f4"/>
      <rect id="Rectángulo_402402" data-name="Rectángulo 402402" width="85" height="27" rx="13.5" transform="translate(375 1988)" fill="#90acef"/>
      <path id="Trazado_878069" data-name="Trazado 878069" d="M10.1,12.744,0,15.625,10.076,0,10.1.031,10.125,0,20.2,15.625Z" transform="matrix(-0.951, -0.309, 0.309, -0.951, 429.211, 1988)" fill="#3a1d71"/>
      <path id="Trazado_878070" data-name="Trazado 878070" d="M10.1,2.881,0,0,10.076,15.625l.024-.031.025.031L20.2,0Z" transform="translate(277.477 2020.871) rotate(130)" fill="#3a1d71"/>
      <rect id="Rectángulo_402403" data-name="Rectángulo 402403" width="85" height="27" rx="13.5" transform="translate(194 1988)" fill="#5ac6b9"/>
      <rect id="Rectángulo_402404" data-name="Rectángulo 402404" width="85" height="27" rx="13.5" transform="translate(180 1905)" fill="#abe2db"/>
      <path id="Trazado_878071" data-name="Trazado 878071" d="M10.1,2.881,0,0,10.076,15.625l.024-.031.025.031L20.2,0Z" transform="translate(238 1950.625) rotate(-180)" fill="#3a1d71"/>
      <circle id="Elipse_11613" data-name="Elipse 11613" cx="48" cy="48" r="48" transform="translate(280 1895)" fill="#90acef"/>
      <g id="Grupo_1102275" data-name="Grupo 1102275">
        <path id="Trazado_883806" data-name="Trazado 883806" d="M-28.55-4.478h-3.9v3.151h4.594V0h-6.255V-9.953H-27.9V-8.62h-4.546v2.81h3.9ZM-24.756,0h-1.661V-10.664h1.661Zm5,.144A3.221,3.221,0,0,1-22.292-.878,3.827,3.827,0,0,1-23.2-3.527V-3.8a3.957,3.957,0,0,1,.913-2.683,2.949,2.949,0,0,1,2.355-1.049,2.768,2.768,0,0,1,2.256.919,3.718,3.718,0,0,1,.766,2.458v.9h-4.573l-.014.034a2.423,2.423,0,0,0,.479,1.477,1.633,1.633,0,0,0,1.36.567,3.743,3.743,0,0,0,1.172-.164,3.347,3.347,0,0,0,.919-.472l.54,1.087a3.52,3.52,0,0,1-1.121.622A4.7,4.7,0,0,1-19.759.144ZM-19.937-6.2a1.283,1.283,0,0,0-1.039.468,2.321,2.321,0,0,0-.485,1.22l.014.034h2.892v-.13a1.867,1.867,0,0,0-.332-1.152A1.227,1.227,0,0,0-19.937-6.2Zm5.886-1.2.089.964a2.507,2.507,0,0,1,.909-.813,2.681,2.681,0,0,1,1.265-.287,2.282,2.282,0,0,1,1.244.328,1.983,1.983,0,0,1,.779.984,2.591,2.591,0,0,1,.9-.964A2.434,2.434,0,0,1-7.55-7.533a2.169,2.169,0,0,1,1.76.776,3.609,3.609,0,0,1,.646,2.348V0H-6.805V-4.416A2.179,2.179,0,0,0-7.13-5.78,1.19,1.19,0,0,0-8.1-6.173a1.425,1.425,0,0,0-.9.287,1.6,1.6,0,0,0-.533.772q0,.1.007.178t.007.144V0h-1.661V-4.416a2.154,2.154,0,0,0-.332-1.347,1.179,1.179,0,0,0-.974-.41,1.749,1.749,0,0,0-.858.195,1.436,1.436,0,0,0-.557.55V0h-1.661V-7.4ZM-.256.144A3.221,3.221,0,0,1-2.789-.878,3.827,3.827,0,0,1-3.7-3.527V-3.8a3.957,3.957,0,0,1,.913-2.683A2.949,2.949,0,0,1-.434-7.533a2.768,2.768,0,0,1,2.256.919,3.718,3.718,0,0,1,.766,2.458v.9H-1.986L-2-3.227A2.423,2.423,0,0,0-1.521-1.75a1.633,1.633,0,0,0,1.36.567,3.743,3.743,0,0,0,1.172-.164,3.347,3.347,0,0,0,.919-.472l.54,1.087A3.52,3.52,0,0,1,1.35-.109,4.7,4.7,0,0,1-.256.144ZM-.434-6.2a1.283,1.283,0,0,0-1.039.468,2.321,2.321,0,0,0-.485,1.22l.014.034H.947v-.13A1.867,1.867,0,0,0,.615-5.759,1.227,1.227,0,0,0-.434-6.2ZM5.438-7.4l.1,1.066a2.646,2.646,0,0,1,.913-.885,2.435,2.435,0,0,1,1.241-.318,2.31,2.31,0,0,1,1.8.711A3.23,3.23,0,0,1,10.134-4.6V0H8.473V-4.587a1.786,1.786,0,0,0-.335-1.224,1.312,1.312,0,0,0-1.012-.362,1.983,1.983,0,0,0-.923.2,1.616,1.616,0,0,0-.622.557V0H3.92V-7.4Zm8.552-1.8v1.8h1.326v1.23H13.99v4.088a.891.891,0,0,0,.2.653.718.718,0,0,0,.526.195,1.469,1.469,0,0,0,.267-.024,1.62,1.62,0,0,0,.246-.065L15.4-.1a1.909,1.909,0,0,1-.5.181,2.766,2.766,0,0,1-.6.065,1.916,1.916,0,0,1-1.439-.537,2.34,2.34,0,0,1-.523-1.685V-6.166H11.208V-7.4h1.128v-1.8Zm2.358,5.428a4.016,4.016,0,0,1,.906-2.71,3.093,3.093,0,0,1,2.478-1.056,3.117,3.117,0,0,1,2.5,1.056,4.016,4.016,0,0,1,.906,2.71v.144A4.01,4.01,0,0,1,22.23-.906,3.11,3.11,0,0,1,19.746.144,3.114,3.114,0,0,1,17.254-.909a4.013,4.013,0,0,1-.906-2.714Zm1.661.144a3.281,3.281,0,0,0,.424,1.764,1.439,1.439,0,0,0,1.313.677,1.442,1.442,0,0,0,1.3-.68,3.223,3.223,0,0,0,.434-1.76v-.144a3.217,3.217,0,0,0-.434-1.747A1.451,1.451,0,0,0,19.732-6.2a1.423,1.423,0,0,0-1.3.687,3.257,3.257,0,0,0-.427,1.747ZM32.331,0H30.669V-8.422H28.557V-9.741l3.773-.355Z" transform="translate(330 1858)" fill="#12263f"/>
        <path id="Trazado_883809" data-name="Trazado 883809" d="M-28.55-4.478h-3.9v3.151h4.594V0h-6.255V-9.953H-27.9V-8.62h-4.546v2.81h3.9ZM-24.756,0h-1.661V-10.664h1.661Zm5,.144A3.221,3.221,0,0,1-22.292-.878,3.827,3.827,0,0,1-23.2-3.527V-3.8a3.957,3.957,0,0,1,.913-2.683,2.949,2.949,0,0,1,2.355-1.049,2.768,2.768,0,0,1,2.256.919,3.718,3.718,0,0,1,.766,2.458v.9h-4.573l-.014.034a2.423,2.423,0,0,0,.479,1.477,1.633,1.633,0,0,0,1.36.567,3.743,3.743,0,0,0,1.172-.164,3.347,3.347,0,0,0,.919-.472l.54,1.087a3.52,3.52,0,0,1-1.121.622A4.7,4.7,0,0,1-19.759.144ZM-19.937-6.2a1.283,1.283,0,0,0-1.039.468,2.321,2.321,0,0,0-.485,1.22l.014.034h2.892v-.13a1.867,1.867,0,0,0-.332-1.152A1.227,1.227,0,0,0-19.937-6.2Zm5.886-1.2.089.964a2.507,2.507,0,0,1,.909-.813,2.681,2.681,0,0,1,1.265-.287,2.282,2.282,0,0,1,1.244.328,1.983,1.983,0,0,1,.779.984,2.591,2.591,0,0,1,.9-.964A2.434,2.434,0,0,1-7.55-7.533a2.169,2.169,0,0,1,1.76.776,3.609,3.609,0,0,1,.646,2.348V0H-6.805V-4.416A2.179,2.179,0,0,0-7.13-5.78,1.19,1.19,0,0,0-8.1-6.173a1.425,1.425,0,0,0-.9.287,1.6,1.6,0,0,0-.533.772q0,.1.007.178t.007.144V0h-1.661V-4.416a2.154,2.154,0,0,0-.332-1.347,1.179,1.179,0,0,0-.974-.41,1.749,1.749,0,0,0-.858.195,1.436,1.436,0,0,0-.557.55V0h-1.661V-7.4ZM-.256.144A3.221,3.221,0,0,1-2.789-.878,3.827,3.827,0,0,1-3.7-3.527V-3.8a3.957,3.957,0,0,1,.913-2.683A2.949,2.949,0,0,1-.434-7.533a2.768,2.768,0,0,1,2.256.919,3.718,3.718,0,0,1,.766,2.458v.9H-1.986L-2-3.227A2.423,2.423,0,0,0-1.521-1.75a1.633,1.633,0,0,0,1.36.567,3.743,3.743,0,0,0,1.172-.164,3.347,3.347,0,0,0,.919-.472l.54,1.087A3.52,3.52,0,0,1,1.35-.109,4.7,4.7,0,0,1-.256.144ZM-.434-6.2a1.283,1.283,0,0,0-1.039.468,2.321,2.321,0,0,0-.485,1.22l.014.034H.947v-.13A1.867,1.867,0,0,0,.615-5.759,1.227,1.227,0,0,0-.434-6.2ZM5.438-7.4l.1,1.066a2.646,2.646,0,0,1,.913-.885,2.435,2.435,0,0,1,1.241-.318,2.31,2.31,0,0,1,1.8.711A3.23,3.23,0,0,1,10.134-4.6V0H8.473V-4.587a1.786,1.786,0,0,0-.335-1.224,1.312,1.312,0,0,0-1.012-.362,1.983,1.983,0,0,0-.923.2,1.616,1.616,0,0,0-.622.557V0H3.92V-7.4Zm8.552-1.8v1.8h1.326v1.23H13.99v4.088a.891.891,0,0,0,.2.653.718.718,0,0,0,.526.195,1.469,1.469,0,0,0,.267-.024,1.62,1.62,0,0,0,.246-.065L15.4-.1a1.909,1.909,0,0,1-.5.181,2.766,2.766,0,0,1-.6.065,1.916,1.916,0,0,1-1.439-.537,2.34,2.34,0,0,1-.523-1.685V-6.166H11.208V-7.4h1.128v-1.8Zm2.358,5.428a4.016,4.016,0,0,1,.906-2.71,3.093,3.093,0,0,1,2.478-1.056,3.117,3.117,0,0,1,2.5,1.056,4.016,4.016,0,0,1,.906,2.71v.144A4.01,4.01,0,0,1,22.23-.906,3.11,3.11,0,0,1,19.746.144,3.114,3.114,0,0,1,17.254-.909a4.013,4.013,0,0,1-.906-2.714Zm1.661.144a3.281,3.281,0,0,0,.424,1.764,1.439,1.439,0,0,0,1.313.677,1.442,1.442,0,0,0,1.3-.68,3.223,3.223,0,0,0,.434-1.76v-.144a3.217,3.217,0,0,0-.434-1.747A1.451,1.451,0,0,0,19.732-6.2a1.423,1.423,0,0,0-1.3.687,3.257,3.257,0,0,0-.427,1.747ZM34.532,0H28.113V-1.142l3.11-3.6a8.24,8.24,0,0,0,1.053-1.477,2.468,2.468,0,0,0,.294-1.114,1.5,1.5,0,0,0-.355-1.036,1.291,1.291,0,0,0-1.019-.4,1.443,1.443,0,0,0-1.183.5,1.915,1.915,0,0,0-.41,1.258H28l-.014-.041a2.84,2.84,0,0,1,.844-2.164A3.187,3.187,0,0,1,31.2-10.1a3.1,3.1,0,0,1,2.232.766,2.649,2.649,0,0,1,.8,2.01,2.994,2.994,0,0,1-.448,1.579A18.03,18.03,0,0,1,32.31-3.767l-2.1,2.406.014.034h4.307Z" transform="translate(434 1924)" fill="#12263f"/>
        <path id="Trazado_883810" data-name="Trazado 883810" d="M-28.55-4.478h-3.9v3.151h4.594V0h-6.255V-9.953H-27.9V-8.62h-4.546v2.81h3.9ZM-24.756,0h-1.661V-10.664h1.661Zm5,.144A3.221,3.221,0,0,1-22.292-.878,3.827,3.827,0,0,1-23.2-3.527V-3.8a3.957,3.957,0,0,1,.913-2.683,2.949,2.949,0,0,1,2.355-1.049,2.768,2.768,0,0,1,2.256.919,3.718,3.718,0,0,1,.766,2.458v.9h-4.573l-.014.034a2.423,2.423,0,0,0,.479,1.477,1.633,1.633,0,0,0,1.36.567,3.743,3.743,0,0,0,1.172-.164,3.347,3.347,0,0,0,.919-.472l.54,1.087a3.52,3.52,0,0,1-1.121.622A4.7,4.7,0,0,1-19.759.144ZM-19.937-6.2a1.283,1.283,0,0,0-1.039.468,2.321,2.321,0,0,0-.485,1.22l.014.034h2.892v-.13a1.867,1.867,0,0,0-.332-1.152A1.227,1.227,0,0,0-19.937-6.2Zm5.886-1.2.089.964a2.507,2.507,0,0,1,.909-.813,2.681,2.681,0,0,1,1.265-.287,2.282,2.282,0,0,1,1.244.328,1.983,1.983,0,0,1,.779.984,2.591,2.591,0,0,1,.9-.964A2.434,2.434,0,0,1-7.55-7.533a2.169,2.169,0,0,1,1.76.776,3.609,3.609,0,0,1,.646,2.348V0H-6.805V-4.416A2.179,2.179,0,0,0-7.13-5.78,1.19,1.19,0,0,0-8.1-6.173a1.425,1.425,0,0,0-.9.287,1.6,1.6,0,0,0-.533.772q0,.1.007.178t.007.144V0h-1.661V-4.416a2.154,2.154,0,0,0-.332-1.347,1.179,1.179,0,0,0-.974-.41,1.749,1.749,0,0,0-.858.195,1.436,1.436,0,0,0-.557.55V0h-1.661V-7.4ZM-.256.144A3.221,3.221,0,0,1-2.789-.878,3.827,3.827,0,0,1-3.7-3.527V-3.8a3.957,3.957,0,0,1,.913-2.683A2.949,2.949,0,0,1-.434-7.533a2.768,2.768,0,0,1,2.256.919,3.718,3.718,0,0,1,.766,2.458v.9H-1.986L-2-3.227A2.423,2.423,0,0,0-1.521-1.75a1.633,1.633,0,0,0,1.36.567,3.743,3.743,0,0,0,1.172-.164,3.347,3.347,0,0,0,.919-.472l.54,1.087A3.52,3.52,0,0,1,1.35-.109,4.7,4.7,0,0,1-.256.144ZM-.434-6.2a1.283,1.283,0,0,0-1.039.468,2.321,2.321,0,0,0-.485,1.22l.014.034H.947v-.13A1.867,1.867,0,0,0,.615-5.759,1.227,1.227,0,0,0-.434-6.2ZM5.438-7.4l.1,1.066a2.646,2.646,0,0,1,.913-.885,2.435,2.435,0,0,1,1.241-.318,2.31,2.31,0,0,1,1.8.711A3.23,3.23,0,0,1,10.134-4.6V0H8.473V-4.587a1.786,1.786,0,0,0-.335-1.224,1.312,1.312,0,0,0-1.012-.362,1.983,1.983,0,0,0-.923.2,1.616,1.616,0,0,0-.622.557V0H3.92V-7.4Zm8.552-1.8v1.8h1.326v1.23H13.99v4.088a.891.891,0,0,0,.2.653.718.718,0,0,0,.526.195,1.469,1.469,0,0,0,.267-.024,1.62,1.62,0,0,0,.246-.065L15.4-.1a1.909,1.909,0,0,1-.5.181,2.766,2.766,0,0,1-.6.065,1.916,1.916,0,0,1-1.439-.537,2.34,2.34,0,0,1-.523-1.685V-6.166H11.208V-7.4h1.128v-1.8Zm2.358,5.428a4.016,4.016,0,0,1,.906-2.71,3.093,3.093,0,0,1,2.478-1.056,3.117,3.117,0,0,1,2.5,1.056,4.016,4.016,0,0,1,.906,2.71v.144A4.01,4.01,0,0,1,22.23-.906,3.11,3.11,0,0,1,19.746.144,3.114,3.114,0,0,1,17.254-.909a4.013,4.013,0,0,1-.906-2.714Zm1.661.144a3.281,3.281,0,0,0,.424,1.764,1.439,1.439,0,0,0,1.313.677,1.442,1.442,0,0,0,1.3-.68,3.223,3.223,0,0,0,.434-1.76v-.144a3.217,3.217,0,0,0-.434-1.747A1.451,1.451,0,0,0,19.732-6.2a1.423,1.423,0,0,0-1.3.687,3.257,3.257,0,0,0-.427,1.747ZM31.162-5.77a1.478,1.478,0,0,0,1.162-.4A1.649,1.649,0,0,0,32.679-7.3,1.479,1.479,0,0,0,32.3-8.357a1.448,1.448,0,0,0-1.107-.407,1.6,1.6,0,0,0-1.114.4,1.291,1.291,0,0,0-.444,1H28.038L28.024-7.4A2.3,2.3,0,0,1,28.9-9.321a3.417,3.417,0,0,1,2.293-.776,3.448,3.448,0,0,1,2.3.714A2.574,2.574,0,0,1,34.333-7.3a2.248,2.248,0,0,1-.373,1.254,2.513,2.513,0,0,1-1.036.892,2.423,2.423,0,0,1,1.162.906,2.571,2.571,0,0,1,.4,1.459,2.667,2.667,0,0,1-.923,2.153,3.56,3.56,0,0,1-2.379.779,3.74,3.74,0,0,1-2.3-.742,2.312,2.312,0,0,1-.957-2.027l.014-.041h1.6A1.382,1.382,0,0,0,30-1.61a1.677,1.677,0,0,0,1.186.427,1.61,1.61,0,0,0,1.2-.448,1.566,1.566,0,0,0,.444-1.152,1.728,1.728,0,0,0-.414-1.265,1.7,1.7,0,0,0-1.254-.417H30.054V-5.77Z" transform="translate(419 2007)" fill="#12263f"/>
        <path id="Trazado_883811" data-name="Trazado 883811" d="M-26.807-4.478h-3.9v3.151h4.594V0h-6.255V-9.953h6.207V-8.62H-30.7v2.81h3.9ZM-23.013,0h-1.661V-10.664h1.661Zm5,.144A3.221,3.221,0,0,1-20.549-.878a3.827,3.827,0,0,1-.913-2.649V-3.8a3.957,3.957,0,0,1,.913-2.683,2.949,2.949,0,0,1,2.355-1.049,2.768,2.768,0,0,1,2.256.919,3.718,3.718,0,0,1,.766,2.458v.9h-4.573l-.014.034a2.423,2.423,0,0,0,.479,1.477,1.633,1.633,0,0,0,1.36.567,3.743,3.743,0,0,0,1.172-.164,3.347,3.347,0,0,0,.919-.472l.54,1.087a3.52,3.52,0,0,1-1.121.622A4.7,4.7,0,0,1-18.016.144ZM-18.194-6.2a1.283,1.283,0,0,0-1.039.468,2.321,2.321,0,0,0-.485,1.22l.014.034h2.892v-.13a1.867,1.867,0,0,0-.332-1.152A1.227,1.227,0,0,0-18.194-6.2Zm5.886-1.2.089.964a2.507,2.507,0,0,1,.909-.813,2.681,2.681,0,0,1,1.265-.287A2.282,2.282,0,0,1-8.8-7.205a1.983,1.983,0,0,1,.779.984,2.591,2.591,0,0,1,.9-.964,2.434,2.434,0,0,1,1.313-.349,2.169,2.169,0,0,1,1.76.776A3.609,3.609,0,0,1-3.4-4.409V0H-5.062V-4.416A2.179,2.179,0,0,0-5.387-5.78a1.19,1.19,0,0,0-.974-.393,1.425,1.425,0,0,0-.9.287,1.6,1.6,0,0,0-.533.772q0,.1.007.178t.007.144V0H-9.444V-4.416a2.154,2.154,0,0,0-.332-1.347,1.179,1.179,0,0,0-.974-.41,1.749,1.749,0,0,0-.858.195,1.436,1.436,0,0,0-.557.55V0h-1.661V-7.4ZM1.487.144A3.221,3.221,0,0,1-1.046-.878a3.827,3.827,0,0,1-.913-2.649V-3.8a3.957,3.957,0,0,1,.913-2.683A2.949,2.949,0,0,1,1.309-7.533a2.768,2.768,0,0,1,2.256.919,3.718,3.718,0,0,1,.766,2.458v.9H-.243l-.014.034A2.423,2.423,0,0,0,.222-1.75a1.633,1.633,0,0,0,1.36.567,3.743,3.743,0,0,0,1.172-.164,3.347,3.347,0,0,0,.919-.472l.54,1.087a3.52,3.52,0,0,1-1.121.622A4.7,4.7,0,0,1,1.487.144ZM1.309-6.2A1.283,1.283,0,0,0,.27-5.732a2.321,2.321,0,0,0-.485,1.22l.014.034H2.69v-.13a1.867,1.867,0,0,0-.332-1.152A1.227,1.227,0,0,0,1.309-6.2ZM7.181-7.4l.1,1.066a2.646,2.646,0,0,1,.913-.885A2.435,2.435,0,0,1,9.43-7.533a2.31,2.31,0,0,1,1.8.711A3.23,3.23,0,0,1,11.877-4.6V0H10.216V-4.587a1.786,1.786,0,0,0-.335-1.224A1.312,1.312,0,0,0,8.87-6.173a1.983,1.983,0,0,0-.923.2,1.616,1.616,0,0,0-.622.557V0H5.664V-7.4Zm8.552-1.8v1.8h1.326v1.23H15.733v4.088a.891.891,0,0,0,.2.653.718.718,0,0,0,.526.195,1.469,1.469,0,0,0,.267-.024,1.621,1.621,0,0,0,.246-.065L17.148-.1a1.909,1.909,0,0,1-.5.181,2.766,2.766,0,0,1-.6.065A1.916,1.916,0,0,1,14.6-.393a2.34,2.34,0,0,1-.523-1.685V-6.166H12.951V-7.4h1.128v-1.8Zm2.358,5.428A4.016,4.016,0,0,1,19-6.477a3.093,3.093,0,0,1,2.478-1.056,3.117,3.117,0,0,1,2.5,1.056,4.016,4.016,0,0,1,.906,2.71v.144a4.01,4.01,0,0,1-.906,2.717A3.11,3.11,0,0,1,21.489.144,3.114,3.114,0,0,1,19-.909a4.013,4.013,0,0,1-.906-2.714Zm1.661.144a3.281,3.281,0,0,0,.424,1.764,1.439,1.439,0,0,0,1.313.677,1.442,1.442,0,0,0,1.3-.68,3.223,3.223,0,0,0,.434-1.76v-.144a3.217,3.217,0,0,0-.434-1.747A1.451,1.451,0,0,0,21.475-6.2a1.423,1.423,0,0,0-1.3.687,3.257,3.257,0,0,0-.427,1.747Zm12,.075h1.258v1.34H31.756V0H30.1V-2.208H25.939L25.9-3.227l4.156-6.727h1.7Zm-4.238,0H30.1V-7.608l-.041-.007-.157.383Z" transform="translate(238 2007)" fill="#12263f"/>
        <path id="Trazado_883807" data-name="Trazado 883807" d="M-28.55-4.478h-3.9v3.151h4.594V0h-6.255V-9.953H-27.9V-8.62h-4.546v2.81h3.9ZM-24.756,0h-1.661V-10.664h1.661Zm5,.144A3.221,3.221,0,0,1-22.292-.878,3.827,3.827,0,0,1-23.2-3.527V-3.8a3.957,3.957,0,0,1,.913-2.683,2.949,2.949,0,0,1,2.355-1.049,2.768,2.768,0,0,1,2.256.919,3.718,3.718,0,0,1,.766,2.458v.9h-4.573l-.014.034a2.423,2.423,0,0,0,.479,1.477,1.633,1.633,0,0,0,1.36.567,3.743,3.743,0,0,0,1.172-.164,3.347,3.347,0,0,0,.919-.472l.54,1.087a3.52,3.52,0,0,1-1.121.622A4.7,4.7,0,0,1-19.759.144ZM-19.937-6.2a1.283,1.283,0,0,0-1.039.468,2.321,2.321,0,0,0-.485,1.22l.014.034h2.892v-.13a1.867,1.867,0,0,0-.332-1.152A1.227,1.227,0,0,0-19.937-6.2Zm5.886-1.2.089.964a2.507,2.507,0,0,1,.909-.813,2.681,2.681,0,0,1,1.265-.287,2.282,2.282,0,0,1,1.244.328,1.983,1.983,0,0,1,.779.984,2.591,2.591,0,0,1,.9-.964A2.434,2.434,0,0,1-7.55-7.533a2.169,2.169,0,0,1,1.76.776,3.609,3.609,0,0,1,.646,2.348V0H-6.805V-4.416A2.179,2.179,0,0,0-7.13-5.78,1.19,1.19,0,0,0-8.1-6.173a1.425,1.425,0,0,0-.9.287,1.6,1.6,0,0,0-.533.772q0,.1.007.178t.007.144V0h-1.661V-4.416a2.154,2.154,0,0,0-.332-1.347,1.179,1.179,0,0,0-.974-.41,1.749,1.749,0,0,0-.858.195,1.436,1.436,0,0,0-.557.55V0h-1.661V-7.4ZM-.256.144A3.221,3.221,0,0,1-2.789-.878,3.827,3.827,0,0,1-3.7-3.527V-3.8a3.957,3.957,0,0,1,.913-2.683A2.949,2.949,0,0,1-.434-7.533a2.768,2.768,0,0,1,2.256.919,3.718,3.718,0,0,1,.766,2.458v.9H-1.986L-2-3.227A2.423,2.423,0,0,0-1.521-1.75a1.633,1.633,0,0,0,1.36.567,3.743,3.743,0,0,0,1.172-.164,3.347,3.347,0,0,0,.919-.472l.54,1.087A3.52,3.52,0,0,1,1.35-.109,4.7,4.7,0,0,1-.256.144ZM-.434-6.2a1.283,1.283,0,0,0-1.039.468,2.321,2.321,0,0,0-.485,1.22l.014.034H.947v-.13A1.867,1.867,0,0,0,.615-5.759,1.227,1.227,0,0,0-.434-6.2ZM5.438-7.4l.1,1.066a2.646,2.646,0,0,1,.913-.885,2.435,2.435,0,0,1,1.241-.318,2.31,2.31,0,0,1,1.8.711A3.23,3.23,0,0,1,10.134-4.6V0H8.473V-4.587a1.786,1.786,0,0,0-.335-1.224,1.312,1.312,0,0,0-1.012-.362,1.983,1.983,0,0,0-.923.2,1.616,1.616,0,0,0-.622.557V0H3.92V-7.4Zm8.552-1.8v1.8h1.326v1.23H13.99v4.088a.891.891,0,0,0,.2.653.718.718,0,0,0,.526.195,1.469,1.469,0,0,0,.267-.024,1.62,1.62,0,0,0,.246-.065L15.4-.1a1.909,1.909,0,0,1-.5.181,2.766,2.766,0,0,1-.6.065,1.916,1.916,0,0,1-1.439-.537,2.34,2.34,0,0,1-.523-1.685V-6.166H11.208V-7.4h1.128v-1.8Zm2.358,5.428a4.016,4.016,0,0,1,.906-2.71,3.093,3.093,0,0,1,2.478-1.056,3.117,3.117,0,0,1,2.5,1.056,4.016,4.016,0,0,1,.906,2.71v.144A4.01,4.01,0,0,1,22.23-.906,3.11,3.11,0,0,1,19.746.144,3.114,3.114,0,0,1,17.254-.909a4.013,4.013,0,0,1-.906-2.714Zm1.661.144a3.281,3.281,0,0,0,.424,1.764,1.439,1.439,0,0,0,1.313.677,1.442,1.442,0,0,0,1.3-.68,3.223,3.223,0,0,0,.434-1.76v-.144a3.217,3.217,0,0,0-.434-1.747A1.451,1.451,0,0,0,19.732-6.2a1.423,1.423,0,0,0-1.3.687,3.257,3.257,0,0,0-.427,1.747Zm15.49.075h1.258v1.34H33.5V0H31.845V-2.208H27.682l-.041-1.019L31.8-9.953h1.7Zm-4.238,0h2.584V-7.608L31.8-7.615l-.157.383Z" transform="translate(224 1924)" fill="#12263f"/>
        <path id="Trazado_883808" data-name="Trazado 883808" d="M-20.908-4.478h-3.9v3.151h4.594V0h-6.255V-9.953h6.207V-8.62H-24.8v2.81h3.9ZM-17.38-7.4l.1,1.066a2.646,2.646,0,0,1,.913-.885,2.435,2.435,0,0,1,1.241-.318,2.31,2.31,0,0,1,1.8.711A3.23,3.23,0,0,1-12.684-4.6V0h-1.661V-4.587a1.786,1.786,0,0,0-.335-1.224,1.312,1.312,0,0,0-1.012-.362,1.983,1.983,0,0,0-.923.2,1.616,1.616,0,0,0-.622.557V0H-18.9V-7.4ZM-10.415,0V-6.166h-1.128V-7.4h1.128v-.861a2.545,2.545,0,0,1,.667-1.887,2.535,2.535,0,0,1,1.87-.663,3.211,3.211,0,0,1,.485.038q.246.038.554.106L-7.01-9.379q-.137-.027-.3-.048a2.958,2.958,0,0,0-.359-.021,1.021,1.021,0,0,0-.81.308,1.3,1.3,0,0,0-.27.882V-7.4h1.374v1.23H-8.753V0Zm3.89-3.767a4.016,4.016,0,0,1,.906-2.71A3.093,3.093,0,0,1-3.141-7.533a3.117,3.117,0,0,1,2.5,1.056,4.016,4.016,0,0,1,.906,2.71v.144A4.01,4.01,0,0,1-.643-.906,3.11,3.11,0,0,1-3.127.144,3.114,3.114,0,0,1-5.619-.909a4.013,4.013,0,0,1-.906-2.714Zm1.661.144A3.281,3.281,0,0,0-4.44-1.859a1.439,1.439,0,0,0,1.313.677,1.442,1.442,0,0,0,1.3-.68,3.223,3.223,0,0,0,.434-1.76v-.144a3.217,3.217,0,0,0-.434-1.747A1.451,1.451,0,0,0-3.141-6.2a1.423,1.423,0,0,0-1.3.687,3.257,3.257,0,0,0-.427,1.747ZM1.4-3.6A4.878,4.878,0,0,1,2.164-6.45,2.454,2.454,0,0,1,4.3-7.533a2.345,2.345,0,0,1,1.135.267,2.441,2.441,0,0,1,.841.766l.191-.9H7.81V2.844H6.149V-.7a2.233,2.233,0,0,1-.807.629,2.528,2.528,0,0,1-1.06.212A2.517,2.517,0,0,1,2.164-.848a4.17,4.17,0,0,1-.759-2.6Zm1.661.144A3.05,3.05,0,0,0,3.459-1.8a1.367,1.367,0,0,0,1.248.622,1.7,1.7,0,0,0,.858-.2,1.632,1.632,0,0,0,.584-.584V-5.414a1.716,1.716,0,0,0-.588-.578A1.632,1.632,0,0,0,4.72-6.2a1.335,1.335,0,0,0-1.251.728,3.85,3.85,0,0,0-.4,1.876Zm11.19,2.358a2.481,2.481,0,0,1-.878.916,2.368,2.368,0,0,1-1.241.321,2.316,2.316,0,0,1-1.859-.783,3.68,3.68,0,0,1-.67-2.43V-7.4h1.654v4.341A2.472,2.472,0,0,0,11.57-1.6a1.14,1.14,0,0,0,.957.393,2.136,2.136,0,0,0,1.008-.215,1.564,1.564,0,0,0,.639-.625V-7.4h1.661V0H14.407ZM20.709.144A3.221,3.221,0,0,1,18.177-.878a3.827,3.827,0,0,1-.913-2.649V-3.8a3.957,3.957,0,0,1,.913-2.683,2.949,2.949,0,0,1,2.355-1.049,2.768,2.768,0,0,1,2.256.919,3.718,3.718,0,0,1,.766,2.458v.9H18.98l-.014.034a2.423,2.423,0,0,0,.479,1.477,1.633,1.633,0,0,0,1.36.567,3.743,3.743,0,0,0,1.172-.164,3.347,3.347,0,0,0,.919-.472l.54,1.087a3.52,3.52,0,0,1-1.121.622A4.7,4.7,0,0,1,20.709.144ZM20.532-6.2a1.283,1.283,0,0,0-1.039.468,2.321,2.321,0,0,0-.485,1.22l.014.034h2.892v-.13a1.867,1.867,0,0,0-.332-1.152A1.227,1.227,0,0,0,20.532-6.2ZM-25.631,15.977a.766.766,0,0,0-.325-.632,3.359,3.359,0,0,0-1.227-.448,4.991,4.991,0,0,1-2-.786,1.656,1.656,0,0,1-.69-1.395,2.008,2.008,0,0,1,.786-1.589,3.115,3.115,0,0,1,2.071-.66,3.212,3.212,0,0,1,2.136.68,1.971,1.971,0,0,1,.776,1.637l-.014.041h-1.593a1.036,1.036,0,0,0-.355-.783,1.337,1.337,0,0,0-.95-.332,1.358,1.358,0,0,0-.916.273.855.855,0,0,0-.314.67.72.72,0,0,0,.294.6,3.222,3.222,0,0,0,1.21.4,5.011,5.011,0,0,1,2.051.8A1.7,1.7,0,0,1-24,15.881a1.966,1.966,0,0,1-.824,1.63,3.469,3.469,0,0,1-2.17.632,3.313,3.313,0,0,1-2.276-.738,2.085,2.085,0,0,1-.793-1.7l.014-.041H-28.5a1.108,1.108,0,0,0,.465.937,1.868,1.868,0,0,0,1.066.294,1.671,1.671,0,0,0,.988-.253A.787.787,0,0,0-25.631,15.977ZM-20.737,18H-22.4V10.6h1.661Zm0-9.208H-22.4V7.336h1.661Zm6.016,7.185a.766.766,0,0,0-.325-.632,3.359,3.359,0,0,0-1.227-.448,4.991,4.991,0,0,1-2-.786,1.656,1.656,0,0,1-.69-1.395,2.008,2.008,0,0,1,.786-1.589,3.115,3.115,0,0,1,2.071-.66,3.212,3.212,0,0,1,2.136.68,1.971,1.971,0,0,1,.776,1.637l-.014.041H-14.8a1.036,1.036,0,0,0-.355-.783,1.337,1.337,0,0,0-.95-.332,1.358,1.358,0,0,0-.916.273.855.855,0,0,0-.314.67.72.72,0,0,0,.294.6,3.222,3.222,0,0,0,1.21.4,5.011,5.011,0,0,1,2.051.8,1.7,1.7,0,0,1,.69,1.418,1.966,1.966,0,0,1-.824,1.63,3.469,3.469,0,0,1-2.17.632,3.313,3.313,0,0,1-2.276-.738,2.085,2.085,0,0,1-.793-1.7l.014-.041h1.545a1.108,1.108,0,0,0,.465.937,1.868,1.868,0,0,0,1.066.294,1.671,1.671,0,0,0,.988-.253A.787.787,0,0,0-14.721,15.977Zm5.25-7.171v1.8h1.326v1.23H-9.471v4.088a.891.891,0,0,0,.2.653.718.718,0,0,0,.526.195,1.469,1.469,0,0,0,.267-.024,1.621,1.621,0,0,0,.246-.065l.178,1.217a1.909,1.909,0,0,1-.5.181,2.766,2.766,0,0,1-.6.065,1.916,1.916,0,0,1-1.439-.537,2.34,2.34,0,0,1-.523-1.685V11.834h-1.128V10.6h1.128v-1.8Zm5.8,9.338A3.221,3.221,0,0,1-6.2,17.122a3.827,3.827,0,0,1-.913-2.649V14.2A3.957,3.957,0,0,1-6.2,11.516a2.949,2.949,0,0,1,2.355-1.049,2.768,2.768,0,0,1,2.256.919,3.718,3.718,0,0,1,.766,2.458v.9H-5.4l-.014.034a2.423,2.423,0,0,0,.479,1.477,1.633,1.633,0,0,0,1.36.567A3.743,3.743,0,0,0-2.4,16.653a3.347,3.347,0,0,0,.919-.472l.54,1.087a3.52,3.52,0,0,1-1.121.622A4.7,4.7,0,0,1-3.667,18.144ZM-3.845,11.8a1.283,1.283,0,0,0-1.039.468,2.321,2.321,0,0,0-.485,1.22l.014.034h2.892v-.13A1.867,1.867,0,0,0-2.8,12.241,1.227,1.227,0,0,0-3.845,11.8Zm.376-4.354h1.88l.014.041L-3.442,9.264H-4.775ZM2.041,10.6l.089.964a2.507,2.507,0,0,1,.909-.813A2.681,2.681,0,0,1,4.3,10.467a2.282,2.282,0,0,1,1.244.328,1.983,1.983,0,0,1,.779.984,2.591,2.591,0,0,1,.9-.964,2.434,2.434,0,0,1,1.313-.349,2.169,2.169,0,0,1,1.76.776,3.609,3.609,0,0,1,.646,2.348V18H9.287V13.584a2.179,2.179,0,0,0-.325-1.364,1.19,1.19,0,0,0-.974-.393,1.425,1.425,0,0,0-.9.287,1.6,1.6,0,0,0-.533.772q0,.1.007.178t.007.144V18H4.9V13.584a2.154,2.154,0,0,0-.332-1.347,1.179,1.179,0,0,0-.974-.41,1.749,1.749,0,0,0-.858.195,1.436,1.436,0,0,0-.557.55V18H.523V10.6ZM14.468,18H12.807V10.6h1.661Zm0-9.208H12.807V7.336h1.661Zm4.874,8.025a1.38,1.38,0,0,0,.96-.355,1.163,1.163,0,0,0,.393-.9h1.5l.014.041a2.23,2.23,0,0,1-.824,1.791,2.986,2.986,0,0,1-2.047.752,3.014,3.014,0,0,1-2.468-1.056,4.054,4.054,0,0,1-.868-2.663v-.239a4.058,4.058,0,0,1,.868-2.659,3,3,0,0,1,2.461-1.06,2.9,2.9,0,0,1,2.1.776,2.533,2.533,0,0,1,.779,1.972l-.014.041H20.7a1.5,1.5,0,0,0-.376-1.032,1.253,1.253,0,0,0-.984-.424,1.355,1.355,0,0,0-1.278.687,3.4,3.4,0,0,0-.39,1.7v.239a3.431,3.431,0,0,0,.386,1.712A1.363,1.363,0,0,0,19.342,16.817ZM23.3,14.233a4.016,4.016,0,0,1,.906-2.71,3.093,3.093,0,0,1,2.478-1.056,3.117,3.117,0,0,1,2.5,1.056,4.016,4.016,0,0,1,.906,2.71v.144a4.01,4.01,0,0,1-.906,2.717A3.11,3.11,0,0,1,26.7,18.144a3.114,3.114,0,0,1-2.492-1.053,4.013,4.013,0,0,1-.906-2.714Zm1.661.144a3.281,3.281,0,0,0,.424,1.764,1.6,1.6,0,0,0,2.615,0,3.223,3.223,0,0,0,.434-1.76v-.144A3.217,3.217,0,0,0,28,12.487a1.451,1.451,0,0,0-1.316-.687,1.423,1.423,0,0,0-1.3.687,3.257,3.257,0,0,0-.427,1.747Z" transform="translate(328 1940)" fill="#12263f"/>
      </g>
    </g>
  </g>
</svg>
