<svg xmlns="http://www.w3.org/2000/svg" width="468.25" height="348.016" viewBox="0 0 468.25 348.016">
  <g id="Grupo_1102288" data-name="Grupo 1102288" transform="translate(-882 -5908.001)">
    <path id="Trazado_819732" data-name="Trazado 819732" d="M5.315,0h457.62c2.935,0,5.315,5.318,5.315,11.878V348.016H0V11.878C0,5.318,2.38,0,5.315,0Z" transform="translate(882 5908.001)" fill="#fff"/>
    <path id="Trazado_884039" data-name="Trazado 884039" d="M5,0H117a5,5,0,0,1,5,5V41a5,5,0,0,1-5,5H5a5,5,0,0,1-5-5V5A5,5,0,0,1,5,0Z" transform="translate(907 5954.001)" fill="#3a1d71"/>
    <path id="Trazado_884040" data-name="Trazado 884040" d="M5,0H117a5,5,0,0,1,5,5V40a5,5,0,0,1-5,5H5a5,5,0,0,1-5-5V5A5,5,0,0,1,5,0Z" transform="translate(981 6007.001)" fill="#3a1d71"/>
    <path id="Trazado_884041" data-name="Trazado 884041" d="M5,0H118a5,5,0,0,1,5,5V41a5,5,0,0,1-5,5H5a5,5,0,0,1-5-5V5A5,5,0,0,1,5,0Z" transform="translate(1055 6059)" fill="#3a1d71"/>
    <path id="Trazado_884042" data-name="Trazado 884042" d="M5,0H116a5,5,0,0,1,5,5V41a5,5,0,0,1-5,5H5a5,5,0,0,1-5-5V5A5,5,0,0,1,5,0Z" transform="translate(1130 6113)" fill="#3a1d71"/>
    <path id="Trazado_884043" data-name="Trazado 884043" d="M5,0H117a5,5,0,0,1,5,5V40a5,5,0,0,1-5,5H5a5,5,0,0,1-5-5V5A5,5,0,0,1,5,0Z" transform="translate(1203 6166.001)" fill="#3a1d71"/>
    <g id="Grupo_20880" data-name="Grupo 20880" transform="translate(1031.81 5975.839)">
      <g id="Grupo_20878" data-name="Grupo 20878" transform="translate(0 0)">
        <path id="Trazado_4455" data-name="Trazado 4455" d="M575.929,240.667a.913.913,0,0,1-.913-.913V219.826h-21.6a.913.913,0,1,1,0-1.826h22.516a.912.912,0,0,1,.913.913v20.841A.913.913,0,0,1,575.929,240.667Z" transform="translate(-552.5 -218)" fill="#36e1cc"/>
      </g>
      <g id="Grupo_20879" data-name="Grupo 20879" transform="translate(15.963 14.459)">
        <path id="Trazado_4456" data-name="Trazado 4456" d="M578.73,243l1.337-1.245,6.128,6.594,6.13-6.594L593.662,243l-7.467,8.029Z" transform="translate(-578.73 -241.76)" fill="#36e1cc"/>
      </g>
    </g>
    <g id="Grupo_20883" data-name="Grupo 20883" transform="translate(948.275 6006.875)">
      <g id="Grupo_20881" data-name="Grupo 20881" transform="translate(6.552 1.067)">
        <path id="Trazado_4457" data-name="Trazado 4457" d="M449.429,293.42H426.913a.912.912,0,0,1-.913-.913V271.666a.913.913,0,0,1,1.826,0v19.928h21.6a.913.913,0,1,1,0,1.826Z" transform="translate(-426 -270.753)" fill="#36e1cc"/>
      </g>
      <g id="Grupo_20882" data-name="Grupo 20882" transform="translate(0 0)">
        <path id="Trazado_4458" data-name="Trazado 4458" d="M430.165,277.029l-1.337,1.245-6.128-6.594-6.13,6.594-1.337-1.245L422.7,269Z" transform="translate(-415.233 -269)" fill="#36e1cc"/>
      </g>
    </g>
    <g id="Grupo_20886" data-name="Grupo 20886" transform="translate(1022.519 6059.819)">
      <g id="Grupo_20884" data-name="Grupo 20884" transform="translate(6.552 1.067)">
        <path id="Trazado_4459" data-name="Trazado 4459" d="M571.429,380.42H548.913a.913.913,0,0,1-.913-.913V358.666a.913.913,0,0,1,1.826,0v19.928h21.6a.913.913,0,1,1,0,1.826Z" transform="translate(-548 -357.753)" fill="#36e1cc"/>
      </g>
      <g id="Grupo_20885" data-name="Grupo 20885" transform="translate(0 0)">
        <path id="Trazado_4460" data-name="Trazado 4460" d="M552.165,364.029l-1.337,1.245-6.128-6.594-6.13,6.594-1.337-1.245L544.7,356Z" transform="translate(-537.233 -356)" fill="#36e1cc"/>
      </g>
    </g>
    <g id="Grupo_20889" data-name="Grupo 20889" transform="translate(1096.154 6112.763)">
      <g id="Grupo_20887" data-name="Grupo 20887" transform="translate(6.552 1.067)">
        <path id="Trazado_4461" data-name="Trazado 4461" d="M692.429,467.42H669.913a.913.913,0,0,1-.913-.913v-20.84a.913.913,0,1,1,1.826,0v19.928h21.6a.913.913,0,1,1,0,1.826Z" transform="translate(-669 -444.754)" fill="#36e1cc"/>
      </g>
      <g id="Grupo_20888" data-name="Grupo 20888" transform="translate(0)">
        <path id="Trazado_4462" data-name="Trazado 4462" d="M673.165,451.029l-1.337,1.245-6.128-6.594-6.13,6.594-1.337-1.245L665.7,443Z" transform="translate(-658.233 -443)" fill="#36e1cc"/>
      </g>
    </g>
    <g id="Grupo_20892" data-name="Grupo 20892" transform="translate(1170.397 6165.707)">
      <g id="Grupo_20890" data-name="Grupo 20890" transform="translate(6.552 1.067)">
        <path id="Trazado_4463" data-name="Trazado 4463" d="M814.429,554.42H791.913a.913.913,0,0,1-.913-.913V532.667a.913.913,0,0,1,1.826,0v19.928h21.6a.913.913,0,1,1,0,1.826Z" transform="translate(-791 -531.754)" fill="#36e1cc"/>
      </g>
      <g id="Grupo_20891" data-name="Grupo 20891">
        <path id="Trazado_4464" data-name="Trazado 4464" d="M795.165,538.029l-1.337,1.245-6.128-6.594-6.13,6.594-1.337-1.245L787.7,530Z" transform="translate(-780.233 -530)" fill="#36e1cc"/>
      </g>
    </g>
    <g id="Grupo_20895" data-name="Grupo 20895" transform="translate(1105.749 6028.783)">
      <g id="Grupo_20893" data-name="Grupo 20893" transform="translate(0 0)">
        <path id="Trazado_4465" data-name="Trazado 4465" d="M697.429,327.667a.913.913,0,0,1-.913-.913V306.826h-21.6a.913.913,0,1,1,0-1.826h22.516a.913.913,0,0,1,.913.913v20.841A.913.913,0,0,1,697.429,327.667Z" transform="translate(-674 -305)" fill="#36e1cc"/>
      </g>
      <g id="Grupo_20894" data-name="Grupo 20894" transform="translate(15.963 14.459)">
        <path id="Trazado_4466" data-name="Trazado 4466" d="M700.23,330l1.337-1.245,6.128,6.594,6.13-6.594L715.162,330l-7.467,8.029Z" transform="translate(-700.23 -328.76)" fill="#36e1cc"/>
      </g>
    </g>
    <g id="Grupo_20898" data-name="Grupo 20898" transform="translate(1179.384 6081.727)">
      <g id="Grupo_20896" data-name="Grupo 20896">
        <path id="Trazado_4467" data-name="Trazado 4467" d="M818.429,414.666a.913.913,0,0,1-.913-.913V393.826h-21.6a.913.913,0,0,1,0-1.826h22.516a.913.913,0,0,1,.913.913v20.841A.913.913,0,0,1,818.429,414.666Z" transform="translate(-795 -392)" fill="#36e1cc"/>
      </g>
      <g id="Grupo_20897" data-name="Grupo 20897" transform="translate(15.963 14.459)">
        <path id="Trazado_4468" data-name="Trazado 4468" d="M821.23,417l1.337-1.245,6.128,6.594,6.13-6.594L836.162,417l-7.467,8.029Z" transform="translate(-821.23 -415.76)" fill="#36e1cc"/>
      </g>
    </g>
    <g id="Grupo_20901" data-name="Grupo 20901" transform="translate(1251.802 6134.671)">
      <g id="Grupo_20899" data-name="Grupo 20899">
        <path id="Trazado_4469" data-name="Trazado 4469" d="M937.429,501.666a.913.913,0,0,1-.913-.913V480.826h-21.6a.913.913,0,1,1,0-1.826h22.516a.913.913,0,0,1,.913.913v20.84A.913.913,0,0,1,937.429,501.666Z" transform="translate(-914 -479)" fill="#36e1cc"/>
      </g>
      <g id="Grupo_20900" data-name="Grupo 20900" transform="translate(15.963 14.459)">
        <path id="Trazado_4470" data-name="Trazado 4470" d="M940.23,504l1.337-1.245,6.128,6.594,6.129-6.594L955.162,504l-7.467,8.029Z" transform="translate(-940.23 -502.76)" fill="#36e1cc"/>
      </g>
    </g>
    <path id="Trazado_884044" data-name="Trazado 884044" d="M2.7-3.694V0H.851V-9.242h3.2a3.832,3.832,0,0,1,2.472.72,2.438,2.438,0,0,1,.892,2.009,2.026,2.026,0,0,1-.378,1.228,2.631,2.631,0,0,1-1.1.835,1.989,1.989,0,0,1,1.177.806,2.556,2.556,0,0,1,.359,1.4v.679a3.36,3.36,0,0,0,.1.809,1.113,1.113,0,0,0,.359.625V0H6.024A1.026,1.026,0,0,1,5.7-.673a5.911,5.911,0,0,1-.073-.908v-.654A1.469,1.469,0,0,0,5.246-3.31a1.433,1.433,0,0,0-1.07-.384Zm0-1.428H4.018a1.738,1.738,0,0,0,1.162-.33,1.223,1.223,0,0,0,.381-.978,1.345,1.345,0,0,0-.384-1.009A1.551,1.551,0,0,0,4.05-7.814H2.7ZM11.972.133a3.09,3.09,0,0,1-2.4-.943,3.455,3.455,0,0,1-.863-2.428v-.254a3.76,3.76,0,0,1,.838-2.526A2.848,2.848,0,0,1,11.851-7a2.667,2.667,0,0,1,2.123.847,3.349,3.349,0,0,1,.74,2.282v.958H10.62l-.019.038a1.856,1.856,0,0,0,.428,1.143,1.435,1.435,0,0,0,1.139.438,3.813,3.813,0,0,0,1.057-.127,4.312,4.312,0,0,0,.9-.387l.5,1.143A3.44,3.44,0,0,1,13.508-.1,4.954,4.954,0,0,1,11.972.133Zm-.121-5.7a1.029,1.029,0,0,0-.86.384,1.926,1.926,0,0,0-.365,1.019l.013.032H12.9v-.14a1.6,1.6,0,0,0-.248-.949A.916.916,0,0,0,11.851-5.567Zm3.656,2.19A4.463,4.463,0,0,1,16.209-6a2.278,2.278,0,0,1,1.977-1,1.961,1.961,0,0,1,1,.251,2.248,2.248,0,0,1,.743.72l.171-.844h1.574V2.641H19.824V-.641a2.044,2.044,0,0,1-.714.578,2.136,2.136,0,0,1-.936.2,2.322,2.322,0,0,1-1.965-.927,3.957,3.957,0,0,1-.7-2.45Zm1.847.133a2.853,2.853,0,0,0,.3,1.428,1.056,1.056,0,0,0,.99.527,1.492,1.492,0,0,0,.7-.152,1.228,1.228,0,0,0,.476-.444V-4.932a1.306,1.306,0,0,0-.473-.47,1.366,1.366,0,0,0-.689-.165,1.045,1.045,0,0,0-.993.609,3.448,3.448,0,0,0-.314,1.581Zm9.985,2.228a2.332,2.332,0,0,1-.806.851,2.137,2.137,0,0,1-1.136.3A2.088,2.088,0,0,1,23.7-.6a3.532,3.532,0,0,1-.613-2.285v-3.98h1.847v3.993a2.217,2.217,0,0,0,.244,1.235.878.878,0,0,0,.759.333A1.847,1.847,0,0,0,26.7-1.45a1.284,1.284,0,0,0,.521-.422v-5h1.854V0H27.536ZM33.446.133a3.09,3.09,0,0,1-2.4-.943,3.455,3.455,0,0,1-.863-2.428v-.254a3.76,3.76,0,0,1,.838-2.526A2.848,2.848,0,0,1,33.325-7a2.667,2.667,0,0,1,2.123.847,3.349,3.349,0,0,1,.74,2.282v.958H32.094l-.019.038A1.855,1.855,0,0,0,32.5-1.727a1.435,1.435,0,0,0,1.139.438A3.813,3.813,0,0,0,34.7-1.416a4.312,4.312,0,0,0,.9-.387L36.1-.66A3.44,3.44,0,0,1,34.982-.1,4.954,4.954,0,0,1,33.446.133Zm-.121-5.7a1.029,1.029,0,0,0-.86.384A1.926,1.926,0,0,0,32.1-4.164l.013.032h2.26v-.14a1.6,1.6,0,0,0-.248-.949A.916.916,0,0,0,33.325-5.567Zm7.554.292L40.2-5.294a1.235,1.235,0,0,0-.679.171,1.086,1.086,0,0,0-.406.482V0H37.267V-6.868h1.72l.083,1.016a2.167,2.167,0,0,1,.625-.841,1.394,1.394,0,0,1,.885-.3,1.385,1.385,0,0,1,.257.022q.117.022.238.054ZM43.792,0H41.939V-6.868h1.854Zm0-8.512H41.939V-9.9h1.854Zm3.244,1.644.076.908a2.307,2.307,0,0,1,.828-.765A2.382,2.382,0,0,1,49.093-7a2.1,2.1,0,0,1,1.13.292,1.8,1.8,0,0,1,.711.882,2.381,2.381,0,0,1,.825-.863A2.239,2.239,0,0,1,52.952-7a1.957,1.957,0,0,1,1.6.72,3.439,3.439,0,0,1,.587,2.2V0H53.289V-4.082a1.925,1.925,0,0,0-.254-1.149.9.9,0,0,0-.755-.324,1.294,1.294,0,0,0-.682.175,1.272,1.272,0,0,0-.46.486q0,.121.006.206t.006.175V0H49.3V-4.082a1.931,1.931,0,0,0-.254-1.139.9.9,0,0,0-.762-.333,1.438,1.438,0,0,0-.657.143,1.26,1.26,0,0,0-.467.4V0H45.316V-6.868ZM58.513,0H56.659V-6.868h1.854Zm0-8.512H56.659V-9.9h1.854Zm4.5,8.646a3.09,3.09,0,0,1-2.4-.943,3.455,3.455,0,0,1-.863-2.428v-.254a3.76,3.76,0,0,1,.838-2.526A2.848,2.848,0,0,1,62.893-7a2.667,2.667,0,0,1,2.123.847,3.349,3.349,0,0,1,.74,2.282v.958H61.661l-.019.038a1.855,1.855,0,0,0,.428,1.143,1.435,1.435,0,0,0,1.139.438,3.813,3.813,0,0,0,1.057-.127,4.312,4.312,0,0,0,.9-.387l.5,1.143A3.44,3.44,0,0,1,64.549-.1,4.954,4.954,0,0,1,63.013.133Zm-.121-5.7a1.029,1.029,0,0,0-.86.384,1.926,1.926,0,0,0-.365,1.019l.013.032h2.26v-.14a1.6,1.6,0,0,0-.248-.949A.916.916,0,0,0,62.893-5.567Zm5.637-1.3.083.984a2.512,2.512,0,0,1,.844-.819A2.192,2.192,0,0,1,70.58-7a2.042,2.042,0,0,1,1.625.67,3.175,3.175,0,0,1,.584,2.117V0h-1.86V-4.2a1.644,1.644,0,0,0-.257-1.044.947.947,0,0,0-.771-.308,1.618,1.618,0,0,0-.727.156,1.419,1.419,0,0,0-.517.428V0H66.8V-6.868ZM76.394-8.55v1.682h1.162v1.3H76.394v3.5a.8.8,0,0,0,.168.571A.591.591,0,0,0,77-1.327a1.77,1.77,0,0,0,.254-.016A2.139,2.139,0,0,0,77.5-1.4l.152,1.339a3.752,3.752,0,0,1-.543.143,3.236,3.236,0,0,1-.574.048,1.975,1.975,0,0,1-1.476-.527,2.31,2.31,0,0,1-.517-1.669v-3.5h-1v-1.3h1V-8.55ZM78.413-3.5a3.686,3.686,0,0,1,.857-2.517A2.987,2.987,0,0,1,81.644-7a3.019,3.019,0,0,1,2.387.978,3.666,3.666,0,0,1,.863,2.52v.133a3.672,3.672,0,0,1-.86,2.523,3.006,3.006,0,0,1-2.377.974,3.014,3.014,0,0,1-2.384-.974,3.672,3.672,0,0,1-.86-2.523Zm1.847.133a2.988,2.988,0,0,0,.33,1.508,1.14,1.14,0,0,0,1.066.568,1.128,1.128,0,0,0,1.051-.571,2.968,2.968,0,0,0,.333-1.5V-3.5A2.938,2.938,0,0,0,82.7-4.989a1.138,1.138,0,0,0-1.06-.578,1.124,1.124,0,0,0-1.051.581A2.964,2.964,0,0,0,80.26-3.5Z" transform="translate(925 5982.001)" fill="#fff"/>
    <path id="Trazado_884045" data-name="Trazado 884045" d="M-19.275,0V-9.242h3.225A3.813,3.813,0,0,1-13.257-8.16a3.731,3.731,0,0,1,1.1,2.777v1.53a3.718,3.718,0,0,1-1.1,2.777A3.826,3.826,0,0,1-16.05,0Zm1.854-7.814v6.392h1.371A1.81,1.81,0,0,0-14.577-2.1a2.671,2.671,0,0,0,.559-1.749V-5.4a2.648,2.648,0,0,0-.559-1.739,1.813,1.813,0,0,0-1.473-.679ZM-8.865,0h-1.854V-6.868h1.854Zm0-8.512h-1.854V-9.9h1.854ZM-3.628-1.9a.639.639,0,0,0-.3-.524,3,3,0,0,0-1.095-.384,4.367,4.367,0,0,1-1.831-.73,1.594,1.594,0,0,1-.625-1.327,1.892,1.892,0,0,1,.749-1.5A3.02,3.02,0,0,1-4.732-7a3.259,3.259,0,0,1,2.085.622,1.818,1.818,0,0,1,.752,1.549l-.013.038H-3.7a.9.9,0,0,0-.267-.673,1.055,1.055,0,0,0-.768-.26,1.049,1.049,0,0,0-.7.222.691.691,0,0,0-.26.546.616.616,0,0,0,.27.517,3,3,0,0,0,1.095.359,4.456,4.456,0,0,1,1.882.746,1.636,1.636,0,0,1,.619,1.355A1.813,1.813,0,0,1-2.625-.457a3.425,3.425,0,0,1-2.095.59,3.184,3.184,0,0,1-2.168-.7,1.943,1.943,0,0,1-.759-1.584l.013-.038h1.695a.963.963,0,0,0,.362.8,1.494,1.494,0,0,0,.9.248A1.273,1.273,0,0,0-3.9-1.343.669.669,0,0,0-3.628-1.9ZM2.339.133A3.09,3.09,0,0,1-.06-.809,3.455,3.455,0,0,1-.924-3.237v-.254A3.76,3.76,0,0,1-.086-6.018,2.848,2.848,0,0,1,2.219-7a2.667,2.667,0,0,1,2.123.847,3.349,3.349,0,0,1,.74,2.282v.958H.987l-.019.038A1.856,1.856,0,0,0,1.4-1.727a1.435,1.435,0,0,0,1.139.438,3.813,3.813,0,0,0,1.057-.127,4.312,4.312,0,0,0,.9-.387l.5,1.143A3.44,3.44,0,0,1,3.875-.1,4.954,4.954,0,0,1,2.339.133Zm-.121-5.7a1.029,1.029,0,0,0-.86.384A1.926,1.926,0,0,0,.993-4.164l.013.032h2.26v-.14a1.6,1.6,0,0,0-.248-.949A.916.916,0,0,0,2.219-5.567Zm5.637-1.3.083.984A2.512,2.512,0,0,1,8.782-6.7,2.192,2.192,0,0,1,9.906-7a2.042,2.042,0,0,1,1.625.67,3.175,3.175,0,0,1,.584,2.117V0h-1.86V-4.2A1.644,1.644,0,0,0,10-5.246a.947.947,0,0,0-.771-.308A1.618,1.618,0,0,0,8.5-5.4a1.419,1.419,0,0,0-.517.428V0H6.129V-6.868Zm3.631-2.869A1.515,1.515,0,0,1,11.108-8.7a1.218,1.218,0,0,1-.955.428,2.325,2.325,0,0,1-1.006-.276,2.2,2.2,0,0,0-.892-.276.458.458,0,0,0-.381.206.805.805,0,0,0-.152.492l-.99-.267a1.545,1.545,0,0,1,.378-1.038,1.2,1.2,0,0,1,.949-.441,2.535,2.535,0,0,1,.965.276,2.52,2.52,0,0,0,.939.276.483.483,0,0,0,.381-.2.769.769,0,0,0,.165-.5ZM13.213-3.5a3.686,3.686,0,0,1,.857-2.517A2.987,2.987,0,0,1,16.444-7a3.019,3.019,0,0,1,2.387.978,3.666,3.666,0,0,1,.863,2.52v.133a3.672,3.672,0,0,1-.86,2.523,3.006,3.006,0,0,1-2.377.974,3.014,3.014,0,0,1-2.384-.974,3.672,3.672,0,0,1-.86-2.523Zm1.847.133a2.988,2.988,0,0,0,.33,1.508,1.14,1.14,0,0,0,1.066.568,1.128,1.128,0,0,0,1.051-.571,2.968,2.968,0,0,0,.333-1.5V-3.5A2.938,2.938,0,0,0,17.5-4.989a1.138,1.138,0,0,0-1.06-.578,1.124,1.124,0,0,0-1.051.581A2.964,2.964,0,0,0,15.06-3.5Z" transform="translate(1042 6034.001)" fill="#fff"/>
    <path id="Trazado_884046" data-name="Trazado 884046" d="M-28.66-3.06l.013.038a2.893,2.893,0,0,1-.9,2.317,3.675,3.675,0,0,1-2.558.838,3.543,3.543,0,0,1-2.685-1.07A3.837,3.837,0,0,1-35.813-3.7V-5.535a3.907,3.907,0,0,1,1-2.764A3.4,3.4,0,0,1-32.2-9.375a3.9,3.9,0,0,1,2.641.825,2.841,2.841,0,0,1,.927,2.323l-.013.038h-1.8a1.817,1.817,0,0,0-.428-1.323A1.787,1.787,0,0,0-32.2-7.947a1.494,1.494,0,0,0-1.3.67,2.962,2.962,0,0,0-.467,1.73V-3.7a2.874,2.874,0,0,0,.492,1.739,1.6,1.6,0,0,0,1.368.673,1.627,1.627,0,0,0,1.241-.435,1.892,1.892,0,0,0,.409-1.336Zm.914-.438a3.686,3.686,0,0,1,.857-2.517A2.987,2.987,0,0,1-24.515-7a3.019,3.019,0,0,1,2.387.978,3.666,3.666,0,0,1,.863,2.52v.133a3.672,3.672,0,0,1-.86,2.523A3.006,3.006,0,0,1-24.5.133a3.014,3.014,0,0,1-2.384-.974,3.672,3.672,0,0,1-.86-2.523Zm1.847.133a2.988,2.988,0,0,0,.33,1.508,1.14,1.14,0,0,0,1.066.568,1.128,1.128,0,0,0,1.051-.571,2.968,2.968,0,0,0,.333-1.5V-3.5a2.938,2.938,0,0,0-.336-1.492,1.138,1.138,0,0,0-1.06-.578,1.124,1.124,0,0,0-1.051.581A2.964,2.964,0,0,0-25.9-3.5Zm5.491-.013A4.463,4.463,0,0,1-19.706-6a2.278,2.278,0,0,1,1.977-1,1.923,1.923,0,0,1,.927.222,2.23,2.23,0,0,1,.724.635V-9.9h1.86V0H-15.8l-.159-.844a2.3,2.3,0,0,1-.768.727,2.031,2.031,0,0,1-1.016.251,2.322,2.322,0,0,1-1.965-.927,3.957,3.957,0,0,1-.7-2.45Zm1.847.133a2.8,2.8,0,0,0,.3,1.419,1.061,1.061,0,0,0,.99.517,1.442,1.442,0,0,0,.7-.162,1.291,1.291,0,0,0,.489-.473V-4.869a1.427,1.427,0,0,0-.486-.5,1.291,1.291,0,0,0-.689-.181,1.046,1.046,0,0,0-.993.6,3.408,3.408,0,0,0-.314,1.574ZM-10.835,0h-1.854V-6.868h1.854Zm0-8.512h-1.854V-9.9h1.854ZM-8.874,0V-5.567H-9.9v-1.3h1.022v-.47a2.529,2.529,0,0,1,.79-2,3.24,3.24,0,0,1,2.225-.7,4.88,4.88,0,0,1,.978.1q.482.1,1.117.282l-.267,1.46q-.463-.14-.841-.216a4.414,4.414,0,0,0-.866-.076,1.387,1.387,0,0,0-.962.292,1.1,1.1,0,0,0-.321.857v.47h1.352v1.3H-7.021V0Zm5.967,0H-4.761V-6.868h1.854ZM1.485-1.289a1.032,1.032,0,0,0,.768-.289,1.049,1.049,0,0,0,.286-.771H4.228l.013.038A2.149,2.149,0,0,1,3.466-.568a2.9,2.9,0,0,1-1.98.7A2.927,2.927,0,0,1-.87-.841,3.7,3.7,0,0,1-1.7-3.333v-.19A3.728,3.728,0,0,1-.873-6.014,2.9,2.9,0,0,1,1.473-7,2.832,2.832,0,0,1,3.5-6.271a2.418,2.418,0,0,1,.743,1.9l-.013.038H2.539a1.371,1.371,0,0,0-.282-.885.949.949,0,0,0-.784-.352,1.058,1.058,0,0,0-1.019.574,3.151,3.151,0,0,0-.3,1.469v.19a3.139,3.139,0,0,0,.3,1.479A1.072,1.072,0,0,0,1.485-1.289ZM9.369,0a3.9,3.9,0,0,1-.175-.5,3.444,3.444,0,0,1-.1-.533A2.541,2.541,0,0,1,8.334-.2a1.893,1.893,0,0,1-1.117.33A2.319,2.319,0,0,1,5.554-.422,1.99,1.99,0,0,1,4.97-1.936,1.811,1.811,0,0,1,5.748-3.5a3.883,3.883,0,0,1,2.269-.555H9.058V-4.6A1.069,1.069,0,0,0,8.8-5.37a1.022,1.022,0,0,0-.774-.273,1.007,1.007,0,0,0-.7.219.765.765,0,0,0-.244.6H5.3l-.013-.038a1.742,1.742,0,0,1,.759-1.5A3.3,3.3,0,0,1,8.144-7a3.075,3.075,0,0,1,2,.622,2.167,2.167,0,0,1,.765,1.784v2.837a5.366,5.366,0,0,0,.073.908A4.555,4.555,0,0,0,11.216,0ZM7.674-1.238a1.579,1.579,0,0,0,.863-.241,1.3,1.3,0,0,0,.521-.559v-.971H8.017a1.234,1.234,0,0,0-.892.292.96.96,0,0,0-.3.717.716.716,0,0,0,.225.555A.891.891,0,0,0,7.674-1.238Zm7.5-.051a1.032,1.032,0,0,0,.768-.289,1.049,1.049,0,0,0,.286-.771h1.688l.013.038a2.149,2.149,0,0,1-.774,1.742,2.9,2.9,0,0,1-1.98.7,2.927,2.927,0,0,1-2.355-.974,3.7,3.7,0,0,1-.832-2.491v-.19a3.728,3.728,0,0,1,.828-2.491A2.9,2.9,0,0,1,15.158-7a2.832,2.832,0,0,1,2.025.724,2.418,2.418,0,0,1,.743,1.9l-.013.038H16.225a1.371,1.371,0,0,0-.282-.885.949.949,0,0,0-.784-.352,1.058,1.058,0,0,0-1.019.574,3.151,3.151,0,0,0-.3,1.469v.19a3.139,3.139,0,0,0,.3,1.479A1.072,1.072,0,0,0,15.171-1.289ZM20.954,0H19.1V-6.868h1.854Zm0-8.512H19.1V-9.9h1.854ZM22.191-3.5a3.686,3.686,0,0,1,.857-2.517A2.987,2.987,0,0,1,25.422-7a3.019,3.019,0,0,1,2.387.978,3.666,3.666,0,0,1,.863,2.52v.133a3.672,3.672,0,0,1-.86,2.523,3.006,3.006,0,0,1-2.377.974,3.014,3.014,0,0,1-2.384-.974,3.672,3.672,0,0,1-.86-2.523Zm1.847.133a2.988,2.988,0,0,0,.33,1.508,1.14,1.14,0,0,0,1.066.568,1.128,1.128,0,0,0,1.051-.571,2.968,2.968,0,0,0,.333-1.5V-3.5a2.938,2.938,0,0,0-.336-1.492,1.138,1.138,0,0,0-1.06-.578,1.124,1.124,0,0,0-1.051.581A2.964,2.964,0,0,0,24.039-3.5ZM25.8-9.8H27.86l.013.038-1.758,1.65H24.534ZM31.51-6.868l.083.984a2.512,2.512,0,0,1,.844-.819A2.191,2.191,0,0,1,33.56-7a2.042,2.042,0,0,1,1.625.67,3.175,3.175,0,0,1,.584,2.117V0h-1.86V-4.2a1.644,1.644,0,0,0-.257-1.044.947.947,0,0,0-.771-.308,1.618,1.618,0,0,0-.727.156,1.419,1.419,0,0,0-.517.428V0H29.783V-6.868Z" transform="translate(1117 6087.001)" fill="#fff"/>
    <path id="Trazado_884047" data-name="Trazado 884047" d="M-21.306-3.352V0h-1.854V-9.242h3.536a3.64,3.64,0,0,1,2.507.813A2.724,2.724,0,0,1-16.2-6.291a2.7,2.7,0,0,1-.914,2.133,3.659,3.659,0,0,1-2.507.806Zm0-1.428h1.682A1.542,1.542,0,0,0-18.449-5.2a1.5,1.5,0,0,0,.4-1.076,1.571,1.571,0,0,0-.4-1.1,1.515,1.515,0,0,0-1.177-.435h-1.682Zm9.9-.5-.679-.019a1.235,1.235,0,0,0-.679.171,1.086,1.086,0,0,0-.406.482V0h-1.847V-6.868h1.72l.083,1.016a2.167,2.167,0,0,1,.625-.841A1.394,1.394,0,0,1-11.7-7a1.385,1.385,0,0,1,.257.022q.117.022.238.054ZM-6.23-1.016a2.332,2.332,0,0,1-.806.851,2.137,2.137,0,0,1-1.136.3A2.088,2.088,0,0,1-9.871-.6a3.532,3.532,0,0,1-.613-2.285v-3.98h1.847v3.993a2.217,2.217,0,0,0,.244,1.235.878.878,0,0,0,.759.333,1.847,1.847,0,0,0,.762-.143,1.284,1.284,0,0,0,.521-.422v-5H-4.5V0H-6.033ZM-.124.133a3.09,3.09,0,0,1-2.4-.943,3.455,3.455,0,0,1-.863-2.428v-.254a3.76,3.76,0,0,1,.838-2.526A2.848,2.848,0,0,1-.244-7a2.667,2.667,0,0,1,2.123.847,3.349,3.349,0,0,1,.74,2.282v.958H-1.476l-.019.038a1.856,1.856,0,0,0,.428,1.143,1.435,1.435,0,0,0,1.139.438A3.813,3.813,0,0,0,1.13-1.416a4.312,4.312,0,0,0,.9-.387L2.53-.66A3.44,3.44,0,0,1,1.412-.1,4.954,4.954,0,0,1-.124.133Zm-.121-5.7a1.029,1.029,0,0,0-.86.384,1.926,1.926,0,0,0-.365,1.019l.013.032H.8v-.14a1.6,1.6,0,0,0-.248-.949A.916.916,0,0,0-.244-5.567ZM9.893-3.244A4.017,4.017,0,0,1,9.207-.787a2.318,2.318,0,0,1-1.98.92A2.093,2.093,0,0,1,6.176-.121a2.171,2.171,0,0,1-.759-.743L5.265,0H3.7V-9.9H5.545v3.764a2.1,2.1,0,0,1,.714-.635A2,2,0,0,1,7.214-7a2.275,2.275,0,0,1,1.993.987,4.531,4.531,0,0,1,.686,2.631ZM8.046-3.377a3.576,3.576,0,0,0-.3-1.59,1.036,1.036,0,0,0-1.006-.587,1.384,1.384,0,0,0-.73.181,1.254,1.254,0,0,0-.47.517v2.907a1.178,1.178,0,0,0,.473.476,1.522,1.522,0,0,0,.74.165,1.054,1.054,0,0,0,1-.5,2.939,2.939,0,0,0,.286-1.431ZM15.085,0a3.9,3.9,0,0,1-.175-.5,3.444,3.444,0,0,1-.1-.533,2.541,2.541,0,0,1-.755.832,1.893,1.893,0,0,1-1.117.33A2.319,2.319,0,0,1,11.27-.422a1.99,1.99,0,0,1-.584-1.514A1.811,1.811,0,0,1,11.464-3.5a3.883,3.883,0,0,1,2.269-.555h1.041V-4.6a1.069,1.069,0,0,0-.26-.768,1.022,1.022,0,0,0-.774-.273,1.007,1.007,0,0,0-.7.219.765.765,0,0,0-.244.6H11.016L11-4.862a1.742,1.742,0,0,1,.759-1.5A3.3,3.3,0,0,1,13.86-7a3.075,3.075,0,0,1,2,.622,2.167,2.167,0,0,1,.765,1.784v2.837a5.366,5.366,0,0,0,.073.908A4.555,4.555,0,0,0,16.932,0ZM13.39-1.238a1.579,1.579,0,0,0,.863-.241,1.3,1.3,0,0,0,.521-.559v-.971H13.733a1.234,1.234,0,0,0-.892.292.96.96,0,0,0-.3.717.716.716,0,0,0,.225.555A.891.891,0,0,0,13.39-1.238ZM21.731-1.9a.639.639,0,0,0-.3-.524,3,3,0,0,0-1.095-.384,4.367,4.367,0,0,1-1.831-.73,1.594,1.594,0,0,1-.625-1.327,1.892,1.892,0,0,1,.749-1.5A3.02,3.02,0,0,1,20.627-7a3.259,3.259,0,0,1,2.085.622,1.818,1.818,0,0,1,.752,1.549l-.013.038h-1.79a.9.9,0,0,0-.267-.673,1.055,1.055,0,0,0-.768-.26,1.049,1.049,0,0,0-.7.222.691.691,0,0,0-.26.546.616.616,0,0,0,.27.517,3,3,0,0,0,1.095.359,4.456,4.456,0,0,1,1.882.746,1.636,1.636,0,0,1,.619,1.355,1.813,1.813,0,0,1-.793,1.517,3.425,3.425,0,0,1-2.095.59,3.184,3.184,0,0,1-2.168-.7,1.943,1.943,0,0,1-.759-1.584l.013-.038h1.695a.963.963,0,0,0,.362.8,1.494,1.494,0,0,0,.9.248,1.273,1.273,0,0,0,.784-.206A.669.669,0,0,0,21.731-1.9Z" transform="translate(1191 6141.001)" fill="#fff"/>
    <path id="Trazado_884048" data-name="Trazado 884048" d="M-21.417-3.79A3.881,3.881,0,0,1-22.49-.974,3.714,3.714,0,0,1-25.283.133a3.68,3.68,0,0,1-2.78-1.111A3.9,3.9,0,0,1-29.129-3.79V-5.453a3.906,3.906,0,0,1,1.063-2.809A3.656,3.656,0,0,1-25.3-9.375a3.724,3.724,0,0,1,2.8,1.114,3.874,3.874,0,0,1,1.079,2.809Zm-1.847-1.676a2.8,2.8,0,0,0-.54-1.771A1.786,1.786,0,0,0-25.3-7.928a1.73,1.73,0,0,0-1.463.692,2.853,2.853,0,0,0-.524,1.771V-3.79A2.874,2.874,0,0,0-26.755-2a1.745,1.745,0,0,0,1.473.692A1.769,1.769,0,0,0-23.8-2a2.85,2.85,0,0,0,.533-1.79ZM-13.9-3.244a3.945,3.945,0,0,1-.7,2.45,2.331,2.331,0,0,1-1.968.927,2.2,2.2,0,0,1-.958-.2,1.969,1.969,0,0,1-.717-.587V2.641H-20.09V-6.868h1.669l.108.813a2.2,2.2,0,0,1,.733-.7,1.983,1.983,0,0,1,1-.244A2.286,2.286,0,0,1-14.6-6a4.448,4.448,0,0,1,.7,2.622Zm-1.854-.133a3.323,3.323,0,0,0-.324-1.574,1.056,1.056,0,0,0-.99-.6,1.4,1.4,0,0,0-.714.171,1.223,1.223,0,0,0-.467.489v3.009a1.136,1.136,0,0,0,.467.444,1.572,1.572,0,0,0,.727.152,1.066,1.066,0,0,0,.987-.527,2.781,2.781,0,0,0,.314-1.428ZM-9.775.133a3.09,3.09,0,0,1-2.4-.943,3.455,3.455,0,0,1-.863-2.428v-.254A3.76,3.76,0,0,1-12.2-6.018,2.848,2.848,0,0,1-9.9-7a2.667,2.667,0,0,1,2.123.847,3.349,3.349,0,0,1,.74,2.282v.958h-4.094l-.019.038a1.856,1.856,0,0,0,.428,1.143,1.435,1.435,0,0,0,1.139.438,3.813,3.813,0,0,0,1.057-.127,4.312,4.312,0,0,0,.9-.387l.5,1.143A3.44,3.44,0,0,1-8.239-.1,4.954,4.954,0,0,1-9.775.133Zm-.121-5.7a1.029,1.029,0,0,0-.86.384,1.926,1.926,0,0,0-.365,1.019l.013.032h2.26v-.14A1.6,1.6,0,0,0-9.1-5.221.916.916,0,0,0-9.9-5.567Zm7.554.292-.679-.019a1.235,1.235,0,0,0-.679.171,1.086,1.086,0,0,0-.406.482V0H-5.954V-6.868h1.72l.083,1.016a2.167,2.167,0,0,1,.625-.841A1.394,1.394,0,0,1-2.641-7a1.385,1.385,0,0,1,.257.022q.117.022.238.054ZM2.672,0A3.9,3.9,0,0,1,2.5-.5a3.444,3.444,0,0,1-.1-.533A2.541,2.541,0,0,1,1.638-.2,1.893,1.893,0,0,1,.521.133,2.319,2.319,0,0,1-1.143-.422a1.99,1.99,0,0,1-.584-1.514A1.811,1.811,0,0,1-.949-3.5,3.883,3.883,0,0,1,1.32-4.056H2.361V-4.6A1.069,1.069,0,0,0,2.1-5.37a1.022,1.022,0,0,0-.774-.273,1.007,1.007,0,0,0-.7.219.765.765,0,0,0-.244.6H-1.4l-.013-.038a1.742,1.742,0,0,1,.759-1.5A3.3,3.3,0,0,1,1.447-7a3.075,3.075,0,0,1,2,.622,2.167,2.167,0,0,1,.765,1.784v2.837a5.366,5.366,0,0,0,.073.908A4.555,4.555,0,0,0,4.52,0ZM.978-1.238a1.579,1.579,0,0,0,.863-.241,1.3,1.3,0,0,0,.521-.559v-.971H1.32a1.234,1.234,0,0,0-.892.292A.96.96,0,0,0,.127-2a.716.716,0,0,0,.225.555A.891.891,0,0,0,.978-1.238Zm7.5-.051a1.032,1.032,0,0,0,.768-.289,1.049,1.049,0,0,0,.286-.771h1.688l.013.038a2.149,2.149,0,0,1-.774,1.742,2.9,2.9,0,0,1-1.98.7A2.927,2.927,0,0,1,6.119-.841a3.7,3.7,0,0,1-.832-2.491v-.19a3.728,3.728,0,0,1,.828-2.491A2.9,2.9,0,0,1,8.461-7a2.832,2.832,0,0,1,2.025.724,2.418,2.418,0,0,1,.743,1.9l-.013.038H9.528a1.371,1.371,0,0,0-.282-.885.949.949,0,0,0-.784-.352,1.058,1.058,0,0,0-1.019.574,3.151,3.151,0,0,0-.3,1.469v.19a3.139,3.139,0,0,0,.3,1.479A1.072,1.072,0,0,0,8.474-1.289ZM14.257,0H12.4V-6.868h1.854Zm0-8.512H12.4V-9.9h1.854ZM15.495-3.5a3.686,3.686,0,0,1,.857-2.517A2.987,2.987,0,0,1,18.726-7a3.019,3.019,0,0,1,2.387.978,3.666,3.666,0,0,1,.863,2.52v.133a3.672,3.672,0,0,1-.86,2.523,3.006,3.006,0,0,1-2.377.974,3.014,3.014,0,0,1-2.384-.974,3.672,3.672,0,0,1-.86-2.523Zm1.847.133a2.988,2.988,0,0,0,.33,1.508,1.14,1.14,0,0,0,1.066.568,1.128,1.128,0,0,0,1.051-.571,2.968,2.968,0,0,0,.333-1.5V-3.5a2.938,2.938,0,0,0-.336-1.492,1.138,1.138,0,0,0-1.06-.578,1.124,1.124,0,0,0-1.051.581A2.964,2.964,0,0,0,17.342-3.5ZM19.1-9.8h2.063l.013.038-1.758,1.65H17.837Zm5.713,2.933.083.984A2.512,2.512,0,0,1,25.74-6.7,2.192,2.192,0,0,1,26.863-7a2.042,2.042,0,0,1,1.625.67,3.175,3.175,0,0,1,.584,2.117V0h-1.86V-4.2a1.644,1.644,0,0,0-.257-1.044.947.947,0,0,0-.771-.308,1.618,1.618,0,0,0-.727.156,1.419,1.419,0,0,0-.517.428V0H23.086V-6.868Z" transform="translate(1264 6193.001)" fill="#fff"/>
  </g>
</svg>
