<svg xmlns="http://www.w3.org/2000/svg" width="391" height="380" viewBox="0 0 391 380">
  <g id="Grupo_1102290" data-name="Grupo 1102290" transform="translate(1607 4699)">
    <path id="Trazado_884065" data-name="Trazado 884065" d="M10,0H381a10,10,0,0,1,10,10V370a10,10,0,0,1-10,10H10A10,10,0,0,1,0,370V10A10,10,0,0,1,10,0Z" transform="translate(-1607 -4699)" fill="#fff"/>
    <path id="Trazado_884066" data-name="Trazado 884066" d="M7.084-2.73,7.1-2.7a2.563,2.563,0,0,1-.844,2.01A3.224,3.224,0,0,1,3.961.123,3.009,3.009,0,0,1,1.6-.9,3.771,3.771,0,0,1,.691-3.5V-5.021a3.782,3.782,0,0,1,.911-2.6A3,3,0,0,1,3.961-8.654a3.312,3.312,0,0,1,2.3.771A2.547,2.547,0,0,1,7.1-5.842l-.012.035H5.977a1.9,1.9,0,0,0-.527-1.418,2.026,2.026,0,0,0-1.488-.521,1.818,1.818,0,0,0-1.541.779,3.17,3.17,0,0,0-.574,1.934V-3.5A3.19,3.19,0,0,0,2.42-1.559a1.818,1.818,0,0,0,1.541.779A2.033,2.033,0,0,0,5.449-1.3,1.918,1.918,0,0,0,5.977-2.73Zm1.084-.5A3.49,3.49,0,0,1,8.93-5.546,2.554,2.554,0,0,1,11-6.457a2.58,2.58,0,0,1,2.083.908,3.479,3.479,0,0,1,.765,2.32V-3.1a3.473,3.473,0,0,1-.762,2.32,2.572,2.572,0,0,1-2.074.9A2.577,2.577,0,0,1,8.933-.782,3.467,3.467,0,0,1,8.168-3.1ZM9.322-3.1a3.007,3.007,0,0,0,.425,1.664,1.406,1.406,0,0,0,1.263.656,1.4,1.4,0,0,0,1.254-.656A2.991,2.991,0,0,0,12.691-3.1v-.129a2.982,2.982,0,0,0-.431-1.658A1.412,1.412,0,0,0,11-5.549a1.392,1.392,0,0,0-1.251.662,3.014,3.014,0,0,0-.425,1.658Zm6.967-3.24.082.832a2.153,2.153,0,0,1,.788-.7,2.368,2.368,0,0,1,1.11-.249,1.961,1.961,0,0,1,1.087.293,1.772,1.772,0,0,1,.683.879,2.372,2.372,0,0,1,.794-.858,2.077,2.077,0,0,1,1.146-.313,1.9,1.9,0,0,1,1.529.665,3.038,3.038,0,0,1,.563,2V0H22.916V-3.8a2.107,2.107,0,0,0-.322-1.327,1.175,1.175,0,0,0-.961-.39,1.223,1.223,0,0,0-.958.41,1.786,1.786,0,0,0-.431,1.037V0h-1.16V-3.8a2.079,2.079,0,0,0-.331-1.3A1.149,1.149,0,0,0,17.8-5.52a1.586,1.586,0,0,0-.867.217,1.4,1.4,0,0,0-.521.609V0H15.258V-6.34ZM26.994,0H25.84V-6.34h1.154Zm0-7.963H25.84V-9.141h1.154Zm4.4,8.086a2.682,2.682,0,0,1-2.13-.873,3.36,3.36,0,0,1-.765-2.3V-3.3a3.289,3.289,0,0,1,.788-2.259,2.471,2.471,0,0,1,1.925-.894,2.3,2.3,0,0,1,1.907.791,3.259,3.259,0,0,1,.636,2.1v.609H29.7l-.018.029a2.62,2.62,0,0,0,.422,1.55,1.474,1.474,0,0,0,1.289.595,2.9,2.9,0,0,0,1.028-.167,2.3,2.3,0,0,0,.759-.46l.451.75a2.774,2.774,0,0,1-.9.554A3.571,3.571,0,0,1,31.395.123Zm-.182-5.672a1.255,1.255,0,0,0-1,.466,2.2,2.2,0,0,0-.483,1.192l.012.029H32.6v-.094a1.846,1.846,0,0,0-.34-1.143A1.228,1.228,0,0,0,31.213-5.549Zm4.869-.791.082.943a2.3,2.3,0,0,1,.794-.782,2.118,2.118,0,0,1,1.087-.278,2.069,2.069,0,0,1,1.588.6A2.637,2.637,0,0,1,40.2-4V0H39.041V-3.979a1.715,1.715,0,0,0-.331-1.189A1.326,1.326,0,0,0,37.7-5.52a1.789,1.789,0,0,0-.905.214,1.554,1.554,0,0,0-.589.6V0H35.051V-6.34ZM42.961-.9h3.662V0H41.584V-.809l3.428-4.617H41.625V-6.34h4.8v.785Zm4.582-2.326A3.49,3.49,0,0,1,48.3-5.546a2.554,2.554,0,0,1,2.068-.911,2.58,2.58,0,0,1,2.083.908,3.479,3.479,0,0,1,.765,2.32V-3.1a3.473,3.473,0,0,1-.762,2.32,2.572,2.572,0,0,1-2.074.9,2.577,2.577,0,0,1-2.077-.905A3.467,3.467,0,0,1,47.543-3.1ZM48.7-3.1a3.007,3.007,0,0,0,.425,1.664,1.406,1.406,0,0,0,1.263.656,1.4,1.4,0,0,0,1.254-.656A2.991,2.991,0,0,0,52.066-3.1v-.129a2.982,2.982,0,0,0-.431-1.658,1.412,1.412,0,0,0-1.263-.662,1.392,1.392,0,0,0-1.251.662A3.014,3.014,0,0,0,48.7-3.229Z" transform="translate(-1524 -4657)" fill="#00104e"/>
    <path id="Trazado_884067" data-name="Trazado 884067" d="M2.15-3.422V0H1V-8.531H4.26a3.007,3.007,0,0,1,2.124.7,2.4,2.4,0,0,1,.759,1.852,2.4,2.4,0,0,1-.759,1.857,3.023,3.023,0,0,1-2.124.7Zm0-.9H4.26A1.674,1.674,0,0,0,5.555-4.79a1.67,1.67,0,0,0,.428-1.175,1.7,1.7,0,0,0-.431-1.184A1.658,1.658,0,0,0,4.26-7.623H2.15ZM12.3,0q-.059-.287-.091-.507a3.72,3.72,0,0,1-.038-.442,2.691,2.691,0,0,1-.841.765,2.15,2.15,0,0,1-1.116.308A2.072,2.072,0,0,1,8.7-.384a1.864,1.864,0,0,1-.519-1.4A1.637,1.637,0,0,1,8.921-3.2a3.434,3.434,0,0,1,2-.513H12.17v-.627a1.163,1.163,0,0,0-.34-.882,1.334,1.334,0,0,0-.961-.325,1.394,1.394,0,0,0-.908.281.844.844,0,0,0-.346.674l-1.1.012-.012-.035a1.517,1.517,0,0,1,.647-1.266,2.683,2.683,0,0,1,1.778-.574,2.618,2.618,0,0,1,1.734.548,1.941,1.941,0,0,1,.656,1.579v3.053a5.942,5.942,0,0,0,.035.656A3.374,3.374,0,0,0,13.488,0ZM10.383-.844a2.054,2.054,0,0,0,1.131-.322A1.532,1.532,0,0,0,12.17-1.9V-2.936H10.875a1.68,1.68,0,0,0-1.116.352,1.051,1.051,0,0,0-.419.826A.869.869,0,0,0,9.6-1.09,1.1,1.1,0,0,0,10.383-.844ZM18-5.32l-.592-.035a1.322,1.322,0,0,0-.771.217,1.391,1.391,0,0,0-.483.609V0H15V-6.34h1.031l.111.926a2.2,2.2,0,0,1,.665-.768,1.555,1.555,0,0,1,.911-.275,1.426,1.426,0,0,1,.246.021,1.631,1.631,0,0,1,.193.044ZM23.1,0q-.059-.287-.091-.507a3.72,3.72,0,0,1-.038-.442,2.691,2.691,0,0,1-.841.765,2.15,2.15,0,0,1-1.116.308A2.072,2.072,0,0,1,19.5-.384a1.864,1.864,0,0,1-.519-1.4A1.637,1.637,0,0,1,19.72-3.2a3.434,3.434,0,0,1,2-.513h1.254v-.627a1.163,1.163,0,0,0-.34-.882,1.334,1.334,0,0,0-.961-.325,1.394,1.394,0,0,0-.908.281.844.844,0,0,0-.346.674l-1.1.012-.012-.035a1.517,1.517,0,0,1,.647-1.266,2.683,2.683,0,0,1,1.778-.574,2.618,2.618,0,0,1,1.734.548,1.941,1.941,0,0,1,.656,1.579v3.053a5.942,5.942,0,0,0,.035.656A3.374,3.374,0,0,0,24.287,0ZM21.182-.844a2.054,2.054,0,0,0,1.131-.322,1.532,1.532,0,0,0,.656-.738V-2.936H21.674a1.68,1.68,0,0,0-1.116.352,1.051,1.051,0,0,0-.419.826.869.869,0,0,0,.264.668A1.1,1.1,0,0,0,21.182-.844Zm4.354-2.209a4.231,4.231,0,0,1,.653-2.467,2.105,2.105,0,0,1,1.831-.937,2.27,2.27,0,0,1,.987.205,2.024,2.024,0,0,1,.735.6V-9.141H30.9V0h-.885l-.176-.8a2.057,2.057,0,0,1-.768.691,2.293,2.293,0,0,1-1.061.234,2.176,2.176,0,0,1-1.816-.841,3.494,3.494,0,0,1-.656-2.212Zm1.154.123a2.691,2.691,0,0,0,.393,1.538A1.371,1.371,0,0,0,28.3-.814a1.529,1.529,0,0,0,.867-.234,1.75,1.75,0,0,0,.574-.656V-4.664a1.777,1.777,0,0,0-.577-.624,1.525,1.525,0,0,0-.853-.231,1.319,1.319,0,0,0-1.228.686,3.539,3.539,0,0,0-.4,1.781ZM36.516,0q-.059-.287-.091-.507a3.72,3.72,0,0,1-.038-.442,2.691,2.691,0,0,1-.841.765A2.15,2.15,0,0,1,34.43.123a2.072,2.072,0,0,1-1.509-.507,1.864,1.864,0,0,1-.519-1.4A1.637,1.637,0,0,1,33.138-3.2a3.434,3.434,0,0,1,2-.513h1.254v-.627a1.163,1.163,0,0,0-.34-.882,1.334,1.334,0,0,0-.961-.325,1.394,1.394,0,0,0-.908.281.844.844,0,0,0-.346.674l-1.1.012-.012-.035a1.517,1.517,0,0,1,.647-1.266,2.683,2.683,0,0,1,1.778-.574,2.618,2.618,0,0,1,1.734.548,1.941,1.941,0,0,1,.656,1.579v3.053a5.942,5.942,0,0,0,.035.656A3.374,3.374,0,0,0,37.705,0ZM34.6-.844a2.054,2.054,0,0,0,1.131-.322,1.532,1.532,0,0,0,.656-.738V-2.936H35.092a1.68,1.68,0,0,0-1.116.352,1.051,1.051,0,0,0-.419.826.869.869,0,0,0,.264.668A1.1,1.1,0,0,0,34.6-.844Z" transform="translate(-1564 -4643)" fill="#00104e"/>
    <path id="Trazado_884068" data-name="Trazado 884068" d="M159.871,0c88.294,0,159.871,67.85,159.871,151.547S248.165,303.094,159.871,303.094,0,235.244,0,151.547,71.577,0,159.871,0Z" transform="translate(-1575.729 -4651.473)" fill="#3ee2a8"/>
    <g id="Grupo_20946" data-name="Grupo 20946" transform="translate(-1506.363 -4624.258)">
      <rect id="Rectángulo_4851" data-name="Rectángulo 4851" width="1.107" height="92.96" transform="matrix(0.79, -0.613, 0.613, 0.79, 0, 0.678)" fill="#2e3192"/>
    </g>
    <g id="Grupo_20947" data-name="Grupo 20947" transform="translate(-1379.61 -4453.43)">
      <rect id="Rectángulo_4852" data-name="Rectángulo 4852" width="1.106" height="94.096" transform="matrix(0.781, -0.625, 0.625, 0.781, 0, 0.691)" fill="#2e3192"/>
    </g>
    <g id="Grupo_20948" data-name="Grupo 20948" transform="translate(-1477.088 -4560.18)">
      <ellipse id="Elipse_1216" data-name="Elipse 1216" cx="62.456" cy="58.782" rx="62.456" ry="58.782" transform="translate(0.553 0.553)" fill="#fff"/>
      <path id="Trazado_4504" data-name="Trazado 4504" d="M973.77,643.4c-34.743,0-63.008-26.617-63.008-59.334s28.264-59.336,63.008-59.336,63.01,26.618,63.01,59.336S1008.513,643.4,973.77,643.4Zm0-117.564c-34.133,0-61.9,26.123-61.9,58.23s27.769,58.229,61.9,58.229,61.9-26.121,61.9-58.229S1007.9,525.836,973.77,525.836Z" transform="translate(-910.762 -524.73)" fill="#2e3192"/>
    </g>
    <path id="Trazado_4505" data-name="Trazado 4505" d="M944.7,585l7.893,12.531,31.919-18.651,3.9,5.669,6.784-22.428L972.711,561l3.907,5.348Z" transform="translate(-2384.259 -5081.072)" fill="#00104e"/>
    <path id="Trazado_4506" data-name="Trazado 4506" d="M991,426l5.484,6.483s60.646,4.052,112.08,72.019H1097.27l32.417,26.635,1.729-22.961h-12.967S1069.986,432,991,426Z" transform="translate(-2379.36 -5095.356)" fill="#3ee2a8"/>
    <g id="Grupo_20951" data-name="Grupo 20951" transform="translate(-1531.712 -4637.124)">
      <g id="Grupo_20949" data-name="Grupo 20949" transform="translate(0.378 0.29)">
        <rect id="Rectángulo_4853" data-name="Rectángulo 4853" width="0.553" height="19.27" transform="matrix(0.774, -0.633, 0.633, 0.774, 0, 0.35)" fill="#2e3192" stroke="#707070" stroke-width="1.5"/>
      </g>
      <g id="Grupo_20950" data-name="Grupo 20950">
        <path id="Trazado_4507" data-name="Trazado 4507" d="M864.867,455.6l-.075.548-2.7-.372-.174,2.721-.552-.036.213-3.314Z" transform="translate(-861.365 -455.148)" fill="#2e3192" stroke="#707070" stroke-width="1.5"/>
      </g>
    </g>
    <g id="Grupo_20954" data-name="Grupo 20954" transform="translate(-1509.829 -4651.627)">
      <g id="Grupo_20952" data-name="Grupo 20952" transform="translate(0)">
        <rect id="Rectángulo_4854" data-name="Rectángulo 4854" width="0.553" height="19.269" transform="translate(0 0.307) rotate(-33.69)" fill="#2e3192" stroke="#707070" stroke-width="1.5"/>
      </g>
      <g id="Grupo_20953" data-name="Grupo 20953" transform="translate(8.021 13.319)">
        <path id="Trazado_4508" data-name="Trazado 4508" d="M888.407,456.676l.128-.538,2.652.632.437-2.691.546.089-.533,3.278Z" transform="translate(-888.407 -454.078)" fill="#2e3192" stroke="#707070" stroke-width="1.5"/>
      </g>
    </g>
    <g id="Grupo_20955" data-name="Grupo 20955" transform="translate(-1576 -4500.479)">
      <rect id="Rectángulo_4855" data-name="Rectángulo 4855" width="98.547" height="1.106" fill="#2e3192"/>
    </g>
    <g id="Grupo_20956" data-name="Grupo 20956" transform="translate(-1382.732 -4628.824)">
      <rect id="Rectángulo_4856" data-name="Rectángulo 4856" width="92.728" height="1.106" transform="translate(0 76.931) rotate(-56.062)" fill="#2e3192"/>
    </g>
    <g id="Grupo_20957" data-name="Grupo 20957" transform="translate(-1510.033 -4453.423)">
      <rect id="Rectángulo_4857" data-name="Rectángulo 4857" width="96.993" height="1.105" transform="translate(0 77.16) rotate(-52.705)" fill="#2e3192"/>
    </g>
    <g id="Grupo_20958" data-name="Grupo 20958" transform="translate(-1352.445 -4504.591)">
      <rect id="Rectángulo_4858" data-name="Rectángulo 4858" width="1.107" height="96.351" transform="translate(0 1.106) rotate(-87.554)" fill="#2e3192"/>
    </g>
    <g id="Grupo_20963" data-name="Grupo 20963" transform="translate(-1476.792 -4552.073)">
      <line id="Línea_127" data-name="Línea 127" x1="94.248" y2="51.662" transform="translate(0.266 0.485)" fill="#fff"/>
      <g id="Grupo_20962" data-name="Grupo 20962" transform="translate(0)">
        <g id="Grupo_20959" data-name="Grupo 20959" transform="translate(93.278)">
          <rect id="Rectángulo_4859" data-name="Rectángulo 4859" width="1.106" height="1.106" transform="translate(0 0.531) rotate(-28.718)" fill="#2e3192"/>
        </g>
        <g id="Grupo_20960" data-name="Grupo 20960" transform="translate(2.934 1.608)">
          <path id="Trazado_4509" data-name="Trazado 4509" d="M914.214,582.931l-.531-.97,1.964-1.076.531.969Zm3.929-2.153-.532-.97,1.964-1.077.531.97Zm3.928-2.153-.532-.97,1.964-1.077.532.97ZM926,576.471l-.531-.97,1.963-1.076.532.97Zm3.928-2.153-.531-.97,1.964-1.077.531.97Zm3.928-2.153-.532-.97,1.965-1.077.531.97Zm3.929-2.153-.532-.97,1.963-1.076.532.97Zm3.927-2.153-.531-.97,1.964-1.076.532.97Zm3.929-2.153-.531-.97,1.963-1.077.531.97Zm3.928-2.153-.532-.97L951,561.506l.531.97Zm3.928-2.154-.532-.97,1.964-1.076.532.97Zm3.928-2.153-.531-.97,1.964-1.076.532.97Zm3.928-2.153-.531-.97,1.964-1.077.531.97Zm3.929-2.152-.532-.97,1.964-1.077.531.97Zm3.928-2.154-.532-.97,1.964-1.076.532.97Zm3.927-2.153-.531-.97,1.964-1.076.532.969Zm3.929-2.153-.531-.97,1.964-1.077.531.97Zm3.928-2.153-.532-.97,1.965-1.077.531.97Zm3.929-2.154-.532-.97,1.963-1.076.532.97Zm3.927-2.153-.531-.97,1.964-1.076.532.97Zm3.928-2.152-.531-.97,1.964-1.077.531.97Zm3.929-2.154-.532-.969,1.965-1.077.531.97Zm3.928-2.153-.532-.97,1.964-1.076.532.97Z" transform="translate(-913.683 -533.516)" fill="#2e3192"/>
        </g>
        <g id="Grupo_20961" data-name="Grupo 20961" transform="translate(0 51.13)">
          <rect id="Rectángulo_4860" data-name="Rectángulo 4860" width="1.106" height="1.106" transform="translate(0 0.532) rotate(-28.718)" fill="#2e3192"/>
        </g>
      </g>
    </g>
    <g id="Grupo_20968" data-name="Grupo 20968" transform="translate(-1451.092 -4504.529)">
      <line id="Línea_128" data-name="Línea 128" x1="98.417" y2="50.867" transform="translate(0.254 0.491)" fill="#fff"/>
      <g id="Grupo_20967" data-name="Grupo 20967" transform="translate(0)">
        <g id="Grupo_20964" data-name="Grupo 20964" transform="translate(97.434)">
          <rect id="Rectángulo_4861" data-name="Rectángulo 4861" width="1.106" height="1.106" transform="translate(0 0.508) rotate(-27.316)" fill="#2e3192"/>
        </g>
        <g id="Grupo_20965" data-name="Grupo 20965" transform="translate(2.951 1.525)">
          <path id="Trazado_4510" data-name="Trazado 4510" d="M937.447,625.234l-.508-.982,1.969-1.018.508.983Zm3.938-2.035-.508-.983,1.967-1.017.508.983Zm3.937-2.035-.508-.983,1.968-1.017.508.983Zm3.937-2.035-.508-.983,1.968-1.017.508.983Zm3.937-2.035-.508-.983,1.968-1.017.508.983Zm3.937-2.036-.508-.982,1.969-1.017.506.982Zm3.937-2.035-.508-.982,1.968-1.017.508.982ZM965,610.992l-.508-.983,1.969-1.017.508.983Zm3.938-2.035-.508-.983,1.967-1.017.508.983Zm3.936-2.036-.508-.983,1.97-1.017.508.983Zm3.938-2.035-.508-.983,1.968-1.017.508.983Zm3.937-2.035-.508-.982,1.968-1.017.508.982Zm3.937-2.035-.508-.982,1.968-1.017.508.982Zm3.937-2.034-.508-.983,1.968-1.018.508.983Zm3.937-2.036-.508-.983,1.969-1.017.508.983Zm3.938-2.035-.508-.983,1.967-1.017.508.983Zm3.936-2.035-.508-.983,1.969-1.017.508.983Zm3.938-2.035-.508-.982,1.968-1.018.508.982Zm3.936-2.036-.508-.982,1.969-1.017.508.982Zm3.938-2.034-.508-.983,1.968-1.017.508.983Zm3.937-2.035-.508-.983,1.968-1.017.508.983Zm3.937-2.035-.508-.983,1.968-1.018.508.983Zm3.938-2.036-.508-.983,1.967-1.017.508.983Zm3.936-2.035-.508-.983,1.969-1.016.508.982Z" transform="translate(-936.939 -576.435)" fill="#2e3192"/>
        </g>
        <g id="Grupo_20966" data-name="Grupo 20966" transform="translate(0 50.36)">
          <rect id="Rectángulo_4862" data-name="Rectángulo 4862" width="1.106" height="1.106" transform="translate(0 0.508) rotate(-27.316)" fill="#2e3192"/>
        </g>
      </g>
    </g>
    <path id="Trazado_884069" data-name="Trazado 884069" d="M-34.808-3.41V0h-1.711V-8.531h2.953a3.537,3.537,0,0,1,2.282.665,2.251,2.251,0,0,1,.823,1.854,1.87,1.87,0,0,1-.349,1.134,2.428,2.428,0,0,1-1.017.771,1.836,1.836,0,0,1,1.087.744,2.359,2.359,0,0,1,.331,1.289v.627a3.1,3.1,0,0,0,.1.747,1.027,1.027,0,0,0,.331.577V0h-1.764a.947.947,0,0,1-.3-.621,5.456,5.456,0,0,1-.067-.838v-.6a1.356,1.356,0,0,0-.349-.993,1.322,1.322,0,0,0-.987-.354Zm0-1.318h1.213a1.6,1.6,0,0,0,1.072-.3,1.129,1.129,0,0,0,.352-.9,1.242,1.242,0,0,0-.354-.932,1.432,1.432,0,0,0-1.04-.346h-1.242ZM-26.253.123a2.853,2.853,0,0,1-2.215-.87,3.189,3.189,0,0,1-.8-2.241v-.234a3.471,3.471,0,0,1,.773-2.332,2.629,2.629,0,0,1,2.127-.9,2.462,2.462,0,0,1,1.96.782,3.091,3.091,0,0,1,.683,2.106v.885H-27.5l-.018.035a1.713,1.713,0,0,0,.4,1.055,1.324,1.324,0,0,0,1.052.4,3.519,3.519,0,0,0,.976-.117,3.981,3.981,0,0,0,.829-.357L-23.8-.609a3.176,3.176,0,0,1-1.031.521A4.573,4.573,0,0,1-26.253.123Zm-.111-5.262a.95.95,0,0,0-.794.354,1.778,1.778,0,0,0-.337.94l.012.029H-25.4v-.129a1.481,1.481,0,0,0-.229-.876A.845.845,0,0,0-26.364-5.139Zm6.287,3.949a.952.952,0,0,0,.709-.267.968.968,0,0,0,.264-.712h1.559l.012.035a1.984,1.984,0,0,1-.715,1.608,2.673,2.673,0,0,1-1.828.647,2.7,2.7,0,0,1-2.174-.9,3.418,3.418,0,0,1-.768-2.3v-.176a3.441,3.441,0,0,1,.765-2.3,2.678,2.678,0,0,1,2.165-.905,2.615,2.615,0,0,1,1.869.668,2.232,2.232,0,0,1,.686,1.758L-17.546-4H-19.1a1.265,1.265,0,0,0-.261-.817.876.876,0,0,0-.724-.325.976.976,0,0,0-.94.53,2.908,2.908,0,0,0-.278,1.356v.176a2.9,2.9,0,0,0,.278,1.365A.99.99,0,0,0-20.077-1.189ZM-16.8-3.229a3.4,3.4,0,0,1,.791-2.323,2.757,2.757,0,0,1,2.191-.905,2.787,2.787,0,0,1,2.2.9,3.384,3.384,0,0,1,.8,2.326v.123a3.389,3.389,0,0,1-.794,2.329,2.775,2.775,0,0,1-2.194.9,2.782,2.782,0,0,1-2.2-.9A3.389,3.389,0,0,1-16.8-3.105Zm1.705.123a2.758,2.758,0,0,0,.3,1.392,1.052,1.052,0,0,0,.984.524,1.042,1.042,0,0,0,.97-.527,2.74,2.74,0,0,0,.308-1.389v-.123a2.712,2.712,0,0,0-.311-1.377,1.051,1.051,0,0,0-.979-.533,1.038,1.038,0,0,0-.97.536A2.736,2.736,0,0,0-15.1-3.229ZM-7.966,0H-9.677V-9.141h1.711Zm4.154.123a2.853,2.853,0,0,1-2.215-.87,3.189,3.189,0,0,1-.8-2.241v-.234A3.471,3.471,0,0,1-6.05-5.555a2.629,2.629,0,0,1,2.127-.9,2.462,2.462,0,0,1,1.96.782A3.091,3.091,0,0,1-1.28-3.568v.885H-5.06l-.018.035a1.713,1.713,0,0,0,.4,1.055,1.324,1.324,0,0,0,1.052.4,3.519,3.519,0,0,0,.976-.117,3.981,3.981,0,0,0,.829-.357l.463,1.055a3.176,3.176,0,0,1-1.031.521A4.573,4.573,0,0,1-3.812.123Zm-.111-5.262a.95.95,0,0,0-.794.354,1.778,1.778,0,0,0-.337.94l.012.029h2.086v-.129a1.481,1.481,0,0,0-.229-.876A.845.845,0,0,0-3.923-5.139ZM2.364-1.189a.952.952,0,0,0,.709-.267.968.968,0,0,0,.264-.712H4.9l.012.035A1.984,1.984,0,0,1,4.192-.524,2.673,2.673,0,0,1,2.364.123,2.7,2.7,0,0,1,.19-.776a3.418,3.418,0,0,1-.768-2.3v-.176a3.441,3.441,0,0,1,.765-2.3,2.678,2.678,0,0,1,2.165-.905,2.615,2.615,0,0,1,1.869.668,2.232,2.232,0,0,1,.686,1.758L4.9-4H3.337a1.265,1.265,0,0,0-.261-.817.876.876,0,0,0-.724-.325.976.976,0,0,0-.94.53,2.908,2.908,0,0,0-.278,1.356v.176a2.9,2.9,0,0,0,.278,1.365A.99.99,0,0,0,2.364-1.189Zm6.188,0a.952.952,0,0,0,.709-.267.968.968,0,0,0,.264-.712h1.559l.012.035A1.984,1.984,0,0,1,10.38-.524,2.673,2.673,0,0,1,8.552.123a2.7,2.7,0,0,1-2.174-.9,3.418,3.418,0,0,1-.768-2.3v-.176a3.441,3.441,0,0,1,.765-2.3A2.678,2.678,0,0,1,8.54-6.457a2.615,2.615,0,0,1,1.869.668,2.232,2.232,0,0,1,.686,1.758L11.083-4H9.524a1.265,1.265,0,0,0-.261-.817.876.876,0,0,0-.724-.325.976.976,0,0,0-.94.53,2.908,2.908,0,0,0-.278,1.356v.176A2.9,2.9,0,0,0,7.6-1.711.99.99,0,0,0,8.552-1.189ZM13.89,0H12.179V-6.34H13.89Zm0-7.857H12.179V-9.141H13.89Zm1.143,4.629a3.4,3.4,0,0,1,.791-2.323,2.757,2.757,0,0,1,2.191-.905,2.787,2.787,0,0,1,2.2.9,3.384,3.384,0,0,1,.8,2.326v.123a3.389,3.389,0,0,1-.794,2.329,2.775,2.775,0,0,1-2.194.9,2.782,2.782,0,0,1-2.2-.9,3.389,3.389,0,0,1-.794-2.329Zm1.705.123a2.758,2.758,0,0,0,.3,1.392,1.052,1.052,0,0,0,.984.524A1.042,1.042,0,0,0,19-1.717,2.74,2.74,0,0,0,19.3-3.105v-.123a2.712,2.712,0,0,0-.311-1.377,1.051,1.051,0,0,0-.979-.533,1.038,1.038,0,0,0-.97.536,2.736,2.736,0,0,0-.308,1.374ZM18.36-9.047h1.9l.012.035L18.653-7.488H17.194ZM23.634-6.34l.076.908a2.319,2.319,0,0,1,.779-.756,2.023,2.023,0,0,1,1.037-.27,1.885,1.885,0,0,1,1.5.618,2.931,2.931,0,0,1,.539,1.954V0H25.849V-3.879a1.518,1.518,0,0,0-.237-.964.875.875,0,0,0-.712-.284,1.494,1.494,0,0,0-.671.144,1.31,1.31,0,0,0-.478.4V0H22.04V-6.34ZM34.116-2.66l.07.352h.035L35.435-6.34h1.84L34.7.949a3.356,3.356,0,0,1-.732,1.146,1.879,1.879,0,0,1-1.389.466,2.147,2.147,0,0,1-.4-.035q-.185-.035-.448-.1l.2-1.248.164.023a1.209,1.209,0,0,0,.158.012A.933.933,0,0,0,32.9,1a1.372,1.372,0,0,0,.352-.519l.2-.492L31.2-6.34h1.84ZM-30.267,8.131l-.627-.018a1.14,1.14,0,0,0-.627.158,1,1,0,0,0-.375.445V13H-33.6V6.66h1.588l.076.938a2,2,0,0,1,.577-.776,1.287,1.287,0,0,1,.817-.278,1.279,1.279,0,0,1,.237.021q.108.021.22.05Zm3.527,4.992a2.853,2.853,0,0,1-2.215-.87,3.189,3.189,0,0,1-.8-2.241V9.777a3.471,3.471,0,0,1,.773-2.332,2.629,2.629,0,0,1,2.127-.9,2.462,2.462,0,0,1,1.96.782,3.091,3.091,0,0,1,.683,2.106v.885h-3.779l-.018.035a1.713,1.713,0,0,0,.4,1.055,1.324,1.324,0,0,0,1.052.4,3.519,3.519,0,0,0,.976-.117,3.981,3.981,0,0,0,.829-.357l.463,1.055a3.176,3.176,0,0,1-1.031.521A4.573,4.573,0,0,1-26.739,13.123Zm-.111-5.262a.95.95,0,0,0-.794.354,1.778,1.778,0,0,0-.337.94l.012.029h2.086V9.057a1.481,1.481,0,0,0-.229-.876A.845.845,0,0,0-26.851,7.861ZM-22.808,13V7.861h-.943V6.66h.943V6.227a2.335,2.335,0,0,1,.729-1.843,2.991,2.991,0,0,1,2.054-.647,4.5,4.5,0,0,1,.9.091q.445.091,1.031.261l-.246,1.348q-.428-.129-.776-.2a4.074,4.074,0,0,0-.8-.07,1.28,1.28,0,0,0-.888.27,1.016,1.016,0,0,0-.3.791V6.66h1.248v1.2H-21.1V13Zm5.508,0h-1.711V6.66H-17.3Zm2.971-6.34.076.908a2.319,2.319,0,0,1,.779-.756,2.023,2.023,0,0,1,1.037-.27,1.885,1.885,0,0,1,1.5.618A2.931,2.931,0,0,1-10.4,9.115V13h-1.717V9.121a1.518,1.518,0,0,0-.237-.964.875.875,0,0,0-.712-.284,1.494,1.494,0,0,0-.671.144,1.31,1.31,0,0,0-.478.4V13h-1.711V6.66ZM-5.382,13a3.6,3.6,0,0,1-.161-.457,3.179,3.179,0,0,1-.1-.492,2.345,2.345,0,0,1-.7.768,1.748,1.748,0,0,1-1.031.3A2.141,2.141,0,0,1-8.9,12.61a1.837,1.837,0,0,1-.539-1.4,1.672,1.672,0,0,1,.718-1.444A3.585,3.585,0,0,1-6.63,9.256h.961v-.5a.986.986,0,0,0-.24-.709.943.943,0,0,0-.715-.252.929.929,0,0,0-.642.2.706.706,0,0,0-.226.554H-9.138l-.012-.035a1.608,1.608,0,0,1,.7-1.386,3.041,3.041,0,0,1,1.937-.583,2.838,2.838,0,0,1,1.849.574,2,2,0,0,1,.706,1.646v2.619a4.954,4.954,0,0,0,.067.838A4.2,4.2,0,0,0-3.677,13Zm-1.564-1.143a1.458,1.458,0,0,0,.8-.223,1.2,1.2,0,0,0,.48-.516v-.9H-6.63a1.139,1.139,0,0,0-.823.27.886.886,0,0,0-.278.662.661.661,0,0,0,.208.513A.823.823,0,0,0-6.946,11.857Zm5.859-5.2.07.838a2.13,2.13,0,0,1,.765-.706A2.2,2.2,0,0,1,.812,6.543a1.937,1.937,0,0,1,1.043.27,1.663,1.663,0,0,1,.656.814,2.2,2.2,0,0,1,.762-.8,2.067,2.067,0,0,1,1.1-.287,1.806,1.806,0,0,1,1.479.665A3.175,3.175,0,0,1,6.4,9.238V13H4.685V9.232A1.777,1.777,0,0,0,4.45,8.172a.832.832,0,0,0-.7-.3,1.194,1.194,0,0,0-.63.161,1.174,1.174,0,0,0-.425.448q0,.111.006.19t.006.161V13H1V9.232A1.782,1.782,0,0,0,.771,8.181a.828.828,0,0,0-.7-.308A1.327,1.327,0,0,0-.539,8a1.163,1.163,0,0,0-.431.372V13H-2.675V6.66ZM9.507,13H7.8V6.66H9.507Zm0-7.857H7.8V3.859H9.507Zm4.154,7.98a2.853,2.853,0,0,1-2.215-.87,3.189,3.189,0,0,1-.8-2.241V9.777a3.471,3.471,0,0,1,.773-2.332,2.629,2.629,0,0,1,2.127-.9,2.462,2.462,0,0,1,1.96.782,3.091,3.091,0,0,1,.683,2.106v.885H12.413l-.018.035a1.713,1.713,0,0,0,.4,1.055,1.324,1.324,0,0,0,1.052.4,3.519,3.519,0,0,0,.976-.117,3.981,3.981,0,0,0,.829-.357l.463,1.055a3.176,3.176,0,0,1-1.031.521A4.573,4.573,0,0,1,13.661,13.123ZM13.55,7.861a.95.95,0,0,0-.794.354,1.778,1.778,0,0,0-.337.94l.012.029h2.086V9.057a1.481,1.481,0,0,0-.229-.876A.845.845,0,0,0,13.55,7.861Zm5.2-1.2.076.908a2.319,2.319,0,0,1,.779-.756,2.023,2.023,0,0,1,1.037-.27,1.885,1.885,0,0,1,1.5.618,2.931,2.931,0,0,1,.539,1.954V13H20.968V9.121a1.518,1.518,0,0,0-.237-.964.875.875,0,0,0-.712-.284,1.494,1.494,0,0,0-.671.144,1.31,1.31,0,0,0-.478.4V13H17.159V6.66Zm7.26-1.553V6.66h1.072v1.2H26.013V11.09a.737.737,0,0,0,.155.527.545.545,0,0,0,.407.158,1.633,1.633,0,0,0,.234-.015,1.974,1.974,0,0,0,.229-.05l.141,1.236a3.464,3.464,0,0,1-.5.132,2.987,2.987,0,0,1-.53.044,1.824,1.824,0,0,1-1.362-.486,2.132,2.132,0,0,1-.478-1.541V7.861h-.926V6.66h.926V5.107Zm1.863,4.664a3.4,3.4,0,0,1,.791-2.323,2.757,2.757,0,0,1,2.191-.905,2.787,2.787,0,0,1,2.2.9,3.384,3.384,0,0,1,.8,2.326v.123a3.389,3.389,0,0,1-.794,2.329,3.134,3.134,0,0,1-4.395,0,3.389,3.389,0,0,1-.794-2.329Zm1.705.123a2.758,2.758,0,0,0,.3,1.392,1.171,1.171,0,0,0,1.954,0,2.74,2.74,0,0,0,.308-1.389V9.771a2.712,2.712,0,0,0-.311-1.377,1.051,1.051,0,0,0-.979-.533,1.038,1.038,0,0,0-.97.536,2.736,2.736,0,0,0-.308,1.374ZM-34.462,22.883a4.12,4.12,0,0,1,.647-2.42,2.1,2.1,0,0,1,1.825-.92,1.775,1.775,0,0,1,.855.205,2.058,2.058,0,0,1,.668.586V16.859h1.717V26h-1.459l-.146-.779a2.119,2.119,0,0,1-.709.671,1.874,1.874,0,0,1-.937.231,2.144,2.144,0,0,1-1.813-.855,3.653,3.653,0,0,1-.647-2.262Zm1.705.123a2.582,2.582,0,0,0,.281,1.31.979.979,0,0,0,.914.478,1.331,1.331,0,0,0,.645-.149,1.192,1.192,0,0,0,.451-.437v-2.7a1.317,1.317,0,0,0-.448-.466,1.192,1.192,0,0,0-.636-.167.966.966,0,0,0-.917.557,3.146,3.146,0,0,0-.29,1.453Zm8.08,3.117a2.853,2.853,0,0,1-2.215-.87,3.189,3.189,0,0,1-.8-2.241v-.234a3.471,3.471,0,0,1,.773-2.332,2.629,2.629,0,0,1,2.127-.9,2.462,2.462,0,0,1,1.96.782,3.091,3.091,0,0,1,.683,2.106v.885h-3.779l-.018.035a1.713,1.713,0,0,0,.4,1.055,1.324,1.324,0,0,0,1.052.4,3.519,3.519,0,0,0,.976-.117,3.981,3.981,0,0,0,.829-.357l.463,1.055a3.176,3.176,0,0,1-1.031.521A4.573,4.573,0,0,1-24.677,26.123Zm-.111-5.262a.95.95,0,0,0-.794.354,1.778,1.778,0,0,0-.337.94l.012.029h2.086v-.129a1.481,1.481,0,0,0-.229-.876A.845.845,0,0,0-24.788,20.861Zm9.961.27-.627-.018a1.14,1.14,0,0,0-.627.158,1,1,0,0,0-.375.445V26h-1.705V19.66h1.588l.076.938a2,2,0,0,1,.577-.776,1.287,1.287,0,0,1,.817-.278,1.279,1.279,0,0,1,.237.021q.108.021.22.05Zm3.527,4.992a2.853,2.853,0,0,1-2.215-.87,3.189,3.189,0,0,1-.8-2.241v-.234a3.471,3.471,0,0,1,.773-2.332,2.629,2.629,0,0,1,2.127-.9,2.462,2.462,0,0,1,1.96.782,3.091,3.091,0,0,1,.683,2.106v.885h-3.779l-.018.035a1.713,1.713,0,0,0,.4,1.055,1.324,1.324,0,0,0,1.052.4,3.519,3.519,0,0,0,.976-.117,3.981,3.981,0,0,0,.829-.357l.463,1.055a3.176,3.176,0,0,1-1.031.521A4.573,4.573,0,0,1-11.3,26.123Zm-.111-5.262a.95.95,0,0,0-.794.354,1.778,1.778,0,0,0-.337.94l.012.029h2.086v-.129a1.481,1.481,0,0,0-.229-.876A.845.845,0,0,0-11.411,20.861Zm3.375,2.021a4.12,4.12,0,0,1,.647-2.42,2.1,2.1,0,0,1,1.825-.92,1.81,1.81,0,0,1,.926.231,2.075,2.075,0,0,1,.686.665l.158-.779h1.453v8.777H-4.052V25.408a1.887,1.887,0,0,1-.659.533,1.971,1.971,0,0,1-.864.182,2.144,2.144,0,0,1-1.813-.855,3.653,3.653,0,0,1-.647-2.262Zm1.705.123a2.633,2.633,0,0,0,.281,1.318.975.975,0,0,0,.914.486,1.377,1.377,0,0,0,.645-.141,1.134,1.134,0,0,0,.439-.41V21.447a1.206,1.206,0,0,0-.437-.434,1.261,1.261,0,0,0-.636-.152.965.965,0,0,0-.917.563,3.183,3.183,0,0,0-.29,1.459Zm9.217,2.057a2.152,2.152,0,0,1-.744.785,1.973,1.973,0,0,1-1.049.275,1.928,1.928,0,0,1-1.567-.68,3.26,3.26,0,0,1-.565-2.109V19.66H.665v3.686a2.047,2.047,0,0,0,.226,1.14.811.811,0,0,0,.7.308,1.7,1.7,0,0,0,.7-.132,1.185,1.185,0,0,0,.48-.39V19.66H4.485V26H3.067ZM7.573,26H5.862V19.66H7.573Zm0-7.857H5.862V16.859H7.573Zm4.834,6.1a.59.59,0,0,0-.272-.483,2.767,2.767,0,0,0-1.011-.354,4.031,4.031,0,0,1-1.69-.674,1.472,1.472,0,0,1-.577-1.225,1.747,1.747,0,0,1,.691-1.389,2.788,2.788,0,0,1,1.84-.574,3.008,3.008,0,0,1,1.925.574,1.678,1.678,0,0,1,.694,1.43L14,21.582H12.343a.83.83,0,0,0-.246-.621.974.974,0,0,0-.709-.24.969.969,0,0,0-.65.205.638.638,0,0,0-.24.5.569.569,0,0,0,.249.478,2.772,2.772,0,0,0,1.011.331,4.113,4.113,0,0,1,1.737.688,1.51,1.51,0,0,1,.571,1.251,1.673,1.673,0,0,1-.732,1.4,3.161,3.161,0,0,1-1.934.545,2.939,2.939,0,0,1-2-.642,1.794,1.794,0,0,1-.7-1.462l.012-.035h1.564a.889.889,0,0,0,.334.738,1.379,1.379,0,0,0,.826.229,1.175,1.175,0,0,0,.724-.19A.618.618,0,0,0,12.407,24.242ZM16.966,26H15.255V19.66h1.711Zm0-7.857H15.255V16.859h1.711Zm3.457-.035V19.66H21.5v1.2H20.423V24.09a.737.737,0,0,0,.155.527.545.545,0,0,0,.407.158,1.633,1.633,0,0,0,.234-.015,1.974,1.974,0,0,0,.229-.05l.141,1.236a3.464,3.464,0,0,1-.5.132,2.987,2.987,0,0,1-.53.044,1.824,1.824,0,0,1-1.362-.486,2.132,2.132,0,0,1-.478-1.541V20.861h-.926v-1.2h.926V18.107Zm1.863,4.664a3.4,3.4,0,0,1,.791-2.323,2.757,2.757,0,0,1,2.191-.905,2.787,2.787,0,0,1,2.2.9,3.384,3.384,0,0,1,.8,2.326v.123a3.389,3.389,0,0,1-.794,2.329,2.775,2.775,0,0,1-2.194.9,2.782,2.782,0,0,1-2.2-.9,3.389,3.389,0,0,1-.794-2.329Zm1.705.123a2.758,2.758,0,0,0,.3,1.392,1.171,1.171,0,0,0,1.954,0,2.74,2.74,0,0,0,.308-1.389v-.123a2.712,2.712,0,0,0-.311-1.377,1.051,1.051,0,0,0-.979-.533,1.038,1.038,0,0,0-.97.536,2.736,2.736,0,0,0-.308,1.374Zm8.76,1.348a.59.59,0,0,0-.272-.483,2.767,2.767,0,0,0-1.011-.354,4.031,4.031,0,0,1-1.69-.674,1.472,1.472,0,0,1-.577-1.225,1.747,1.747,0,0,1,.691-1.389,2.788,2.788,0,0,1,1.84-.574,3.008,3.008,0,0,1,1.925.574,1.678,1.678,0,0,1,.694,1.43l-.012.035H32.687a.83.83,0,0,0-.246-.621,1.151,1.151,0,0,0-1.359-.035.638.638,0,0,0-.24.5.569.569,0,0,0,.249.478,2.772,2.772,0,0,0,1.011.331,4.113,4.113,0,0,1,1.737.688,1.51,1.51,0,0,1,.571,1.251,1.673,1.673,0,0,1-.732,1.4,3.161,3.161,0,0,1-1.934.545,2.939,2.939,0,0,1-2-.642,1.794,1.794,0,0,1-.7-1.462l.012-.035h1.564a.889.889,0,0,0,.334.738,1.379,1.379,0,0,0,.826.229,1.175,1.175,0,0,0,.724-.19A.618.618,0,0,0,32.751,24.242Z" transform="translate(-1419 -4609)" fill="#00104e"/>
    <path id="Trazado_884070" data-name="Trazado 884070" d="M-30.129-3.094V0H-31.84V-8.531h3.264a3.36,3.36,0,0,1,2.314.75,2.515,2.515,0,0,1,.844,1.975,2.5,2.5,0,0,1-.844,1.969,3.377,3.377,0,0,1-2.314.744Zm0-1.318h1.553a1.423,1.423,0,0,0,1.084-.39,1.386,1.386,0,0,0,.369-.993,1.45,1.45,0,0,0-.366-1.017,1.4,1.4,0,0,0-1.087-.4h-1.553Zm9.141-.457-.627-.018a1.14,1.14,0,0,0-.627.158,1,1,0,0,0-.375.445V0h-1.705V-6.34h1.588l.076.938a2,2,0,0,1,.577-.776,1.287,1.287,0,0,1,.817-.278,1.279,1.279,0,0,1,.237.021q.108.021.22.05Zm.51,1.641a3.4,3.4,0,0,1,.791-2.323A2.757,2.757,0,0,1-17.5-6.457a2.787,2.787,0,0,1,2.2.9,3.384,3.384,0,0,1,.8,2.326v.123A3.389,3.389,0,0,1-15.29-.776a2.775,2.775,0,0,1-2.194.9,2.782,2.782,0,0,1-2.2-.9,3.389,3.389,0,0,1-.794-2.329Zm1.705.123a2.758,2.758,0,0,0,.3,1.392,1.052,1.052,0,0,0,.984.524,1.042,1.042,0,0,0,.97-.527,2.74,2.74,0,0,0,.308-1.389v-.123a2.712,2.712,0,0,0-.311-1.377,1.051,1.051,0,0,0-.979-.533,1.038,1.038,0,0,0-.97.536,2.736,2.736,0,0,0-.308,1.374Zm5.068-.012a4.12,4.12,0,0,1,.647-2.42,2.1,2.1,0,0,1,1.825-.92,1.775,1.775,0,0,1,.855.205,2.058,2.058,0,0,1,.668.586V-9.141h1.717V0H-9.451L-9.6-.779a2.119,2.119,0,0,1-.709.671,1.874,1.874,0,0,1-.937.231,2.144,2.144,0,0,1-1.813-.855,3.653,3.653,0,0,1-.647-2.262ZM-12-2.994a2.582,2.582,0,0,0,.281,1.31.979.979,0,0,0,.914.478,1.331,1.331,0,0,0,.645-.149,1.192,1.192,0,0,0,.451-.437v-2.7a1.317,1.317,0,0,0-.448-.466,1.192,1.192,0,0,0-.636-.167.966.966,0,0,0-.917.557A3.146,3.146,0,0,0-12-3.117ZM-2.783-.937a2.152,2.152,0,0,1-.744.785A1.973,1.973,0,0,1-4.576.123a1.928,1.928,0,0,1-1.567-.68,3.26,3.26,0,0,1-.565-2.109V-6.34H-5v3.686a2.047,2.047,0,0,0,.226,1.14.811.811,0,0,0,.7.308,1.7,1.7,0,0,0,.7-.132,1.185,1.185,0,0,0,.48-.39V-6.34h1.711V0H-2.6Zm5.537-.252a.952.952,0,0,0,.709-.267.968.968,0,0,0,.264-.712H5.285l.012.035A1.984,1.984,0,0,1,4.582-.524,2.673,2.673,0,0,1,2.754.123,2.7,2.7,0,0,1,.58-.776a3.418,3.418,0,0,1-.768-2.3v-.176a3.441,3.441,0,0,1,.765-2.3,2.678,2.678,0,0,1,2.165-.905,2.615,2.615,0,0,1,1.869.668A2.232,2.232,0,0,1,5.3-4.031L5.285-4H3.727a1.265,1.265,0,0,0-.261-.817.876.876,0,0,0-.724-.325.976.976,0,0,0-.94.53,2.908,2.908,0,0,0-.278,1.356v.176A2.9,2.9,0,0,0,1.8-1.711.99.99,0,0,0,2.754-1.189Zm5.59-6.7V-6.34H9.416v1.2H8.344V-1.91a.737.737,0,0,0,.155.527.545.545,0,0,0,.407.158,1.633,1.633,0,0,0,.234-.015,1.974,1.974,0,0,0,.229-.05L9.51-.053a3.464,3.464,0,0,1-.5.132,2.987,2.987,0,0,1-.53.044A1.824,1.824,0,0,1,7.116-.363,2.132,2.132,0,0,1,6.639-1.9V-5.139H5.713v-1.2h.926V-7.893Zm1.863,4.664A3.4,3.4,0,0,1,11-5.552a2.757,2.757,0,0,1,2.191-.905,2.787,2.787,0,0,1,2.2.9,3.384,3.384,0,0,1,.8,2.326v.123A3.389,3.389,0,0,1,15.4-.776a2.775,2.775,0,0,1-2.194.9,2.782,2.782,0,0,1-2.2-.9,3.389,3.389,0,0,1-.794-2.329Zm1.705.123a2.758,2.758,0,0,0,.3,1.392,1.052,1.052,0,0,0,.984.524,1.042,1.042,0,0,0,.97-.527,2.74,2.74,0,0,0,.308-1.389v-.123a2.712,2.712,0,0,0-.311-1.377,1.051,1.051,0,0,0-.979-.533,1.038,1.038,0,0,0-.97.536,2.736,2.736,0,0,0-.308,1.374Zm8.057-.012a4.12,4.12,0,0,1,.647-2.42,2.1,2.1,0,0,1,1.825-.92,1.775,1.775,0,0,1,.855.205,2.058,2.058,0,0,1,.668.586V-9.141h1.717V0H24.223l-.146-.779a2.119,2.119,0,0,1-.709.671,1.874,1.874,0,0,1-.937.231,2.144,2.144,0,0,1-1.813-.855,3.653,3.653,0,0,1-.647-2.262Zm1.705.123a2.582,2.582,0,0,0,.281,1.31.979.979,0,0,0,.914.478,1.331,1.331,0,0,0,.645-.149,1.192,1.192,0,0,0,.451-.437v-2.7a1.317,1.317,0,0,0-.448-.466,1.192,1.192,0,0,0-.636-.167.966.966,0,0,0-.917.557,3.146,3.146,0,0,0-.29,1.453ZM29.754.123a2.853,2.853,0,0,1-2.215-.87,3.189,3.189,0,0,1-.8-2.241v-.234a3.471,3.471,0,0,1,.773-2.332,2.629,2.629,0,0,1,2.127-.9,2.462,2.462,0,0,1,1.96.782,3.091,3.091,0,0,1,.683,2.106v.885H28.506l-.018.035a1.713,1.713,0,0,0,.4,1.055,1.324,1.324,0,0,0,1.052.4,3.519,3.519,0,0,0,.976-.117,3.981,3.981,0,0,0,.829-.357L32.2-.609a3.176,3.176,0,0,1-1.031.521A4.573,4.573,0,0,1,29.754.123Zm-.111-5.262a.95.95,0,0,0-.794.354,1.778,1.778,0,0,0-.337.94l.012.029h2.086v-.129a1.481,1.481,0,0,0-.229-.876A.845.845,0,0,0,29.643-5.139ZM-24.167,13h-1.711V6.66h1.711Zm0-7.857h-1.711V3.859h1.711ZM-21.2,6.66l.076.908a2.319,2.319,0,0,1,.779-.756,2.023,2.023,0,0,1,1.037-.27,1.885,1.885,0,0,1,1.5.618,2.931,2.931,0,0,1,.539,1.954V13h-1.717V9.121a1.518,1.518,0,0,0-.237-.964.875.875,0,0,0-.712-.284,1.494,1.494,0,0,0-.671.144,1.31,1.31,0,0,0-.478.4V13H-22.79V6.66Zm4.957,3.223a4.106,4.106,0,0,1,.65-2.42,2.11,2.11,0,0,1,1.828-.92,1.8,1.8,0,0,1,.938.24,2.1,2.1,0,0,1,.691.686L-12,6.66h1.471v6.311a2.356,2.356,0,0,1-.809,1.913,3.414,3.414,0,0,1-2.256.677,4.3,4.3,0,0,1-1.02-.132,4.734,4.734,0,0,1-1-.36l.287-1.277a3.926,3.926,0,0,0,.812.284,4.021,4.021,0,0,0,.905.1,1.531,1.531,0,0,0,1.034-.293,1.16,1.16,0,0,0,.331-.914v-.574a1.914,1.914,0,0,1-.662.545,1.952,1.952,0,0,1-.873.188,2.152,2.152,0,0,1-1.816-.855,3.641,3.641,0,0,1-.65-2.262Zm1.711.123a2.6,2.6,0,0,0,.278,1.31.972.972,0,0,0,.911.478,1.412,1.412,0,0,0,.665-.144,1.1,1.1,0,0,0,.437-.419V8.482a1.169,1.169,0,0,0-.437-.451,1.28,1.28,0,0,0-.653-.158.96.96,0,0,0-.914.557,3.173,3.173,0,0,0-.287,1.453Zm8.063,3.117a2.853,2.853,0,0,1-2.215-.87,3.189,3.189,0,0,1-.8-2.241V9.777A3.471,3.471,0,0,1-8.7,7.445a2.629,2.629,0,0,1,2.127-.9,2.462,2.462,0,0,1,1.96.782,3.091,3.091,0,0,1,.683,2.106v.885H-7.714l-.018.035a1.713,1.713,0,0,0,.4,1.055,1.324,1.324,0,0,0,1.052.4,3.519,3.519,0,0,0,.976-.117,3.981,3.981,0,0,0,.829-.357l.463,1.055a3.176,3.176,0,0,1-1.031.521A4.573,4.573,0,0,1-6.466,13.123Zm-.111-5.262a.95.95,0,0,0-.794.354,1.778,1.778,0,0,0-.337.94l.012.029H-5.61V9.057a1.481,1.481,0,0,0-.229-.876A.845.845,0,0,0-6.577,7.861Zm5.2-1.2.076.908a2.319,2.319,0,0,1,.779-.756,2.023,2.023,0,0,1,1.037-.27,1.885,1.885,0,0,1,1.5.618,2.931,2.931,0,0,1,.539,1.954V13H.841V9.121A1.518,1.518,0,0,0,.6,8.157a.875.875,0,0,0-.712-.284,1.494,1.494,0,0,0-.671.144,1.31,1.31,0,0,0-.478.4V13H-2.968V6.66ZM5.634,13H3.923V6.66H5.634Zm0-7.857H3.923V3.859H5.634Zm4.154,7.98a2.853,2.853,0,0,1-2.215-.87,3.189,3.189,0,0,1-.8-2.241V9.777A3.471,3.471,0,0,1,7.55,7.445a2.629,2.629,0,0,1,2.127-.9,2.462,2.462,0,0,1,1.96.782,3.091,3.091,0,0,1,.683,2.106v.885H8.54l-.018.035a1.713,1.713,0,0,0,.4,1.055,1.324,1.324,0,0,0,1.052.4,3.519,3.519,0,0,0,.976-.117,3.981,3.981,0,0,0,.829-.357l.463,1.055a3.176,3.176,0,0,1-1.031.521A4.573,4.573,0,0,1,9.788,13.123ZM9.677,7.861a.95.95,0,0,0-.794.354,1.778,1.778,0,0,0-.337.94l.012.029h2.086V9.057a1.481,1.481,0,0,0-.229-.876A.845.845,0,0,0,9.677,7.861Zm6.973.27-.627-.018a1.14,1.14,0,0,0-.627.158,1,1,0,0,0-.375.445V13H13.315V6.66H14.9l.076.938a2,2,0,0,1,.577-.776,1.348,1.348,0,0,1,1.055-.258q.108.021.22.05ZM19.374,13H17.663V6.66h1.711Zm-.51-8.924h1.9l.012.035L19.157,5.635H17.7ZM24.571,13a3.6,3.6,0,0,1-.161-.457,3.179,3.179,0,0,1-.1-.492,2.345,2.345,0,0,1-.7.768,1.748,1.748,0,0,1-1.031.3,2.141,2.141,0,0,1-1.535-.513,1.837,1.837,0,0,1-.539-1.4,1.672,1.672,0,0,1,.718-1.444,3.585,3.585,0,0,1,2.095-.513h.961v-.5a.986.986,0,0,0-.24-.709.943.943,0,0,0-.715-.252.929.929,0,0,0-.642.2.706.706,0,0,0-.226.554H20.815L20.8,8.512a1.608,1.608,0,0,1,.7-1.386,3.041,3.041,0,0,1,1.937-.583,2.838,2.838,0,0,1,1.849.574A2,2,0,0,1,26,8.764v2.619a4.954,4.954,0,0,0,.067.838,4.2,4.2,0,0,0,.214.779Zm-1.564-1.143a1.458,1.458,0,0,0,.8-.223,1.2,1.2,0,0,0,.48-.516v-.9h-.961a1.139,1.139,0,0,0-.823.27.886.886,0,0,0-.278.662.661.661,0,0,0,.208.513A.823.823,0,0,0,23.007,11.857Z" transform="translate(-1515 -4553)" fill="#00104e"/>
    <path id="Trazado_884071" data-name="Trazado 884071" d="M-33.527-3.41V0h-1.711V-8.531h2.953A3.537,3.537,0,0,1-30-7.866a2.251,2.251,0,0,1,.823,1.854,1.87,1.87,0,0,1-.349,1.134,2.428,2.428,0,0,1-1.017.771,1.836,1.836,0,0,1,1.087.744,2.359,2.359,0,0,1,.331,1.289v.627a3.1,3.1,0,0,0,.1.747,1.027,1.027,0,0,0,.331.577V0h-1.764a.947.947,0,0,1-.3-.621,5.456,5.456,0,0,1-.067-.838v-.6a1.356,1.356,0,0,0-.349-.993,1.322,1.322,0,0,0-.987-.354Zm0-1.318h1.213a1.6,1.6,0,0,0,1.072-.3,1.129,1.129,0,0,0,.352-.9,1.242,1.242,0,0,0-.354-.932,1.432,1.432,0,0,0-1.04-.346h-1.242ZM-24.973.123a2.853,2.853,0,0,1-2.215-.87,3.189,3.189,0,0,1-.8-2.241v-.234a3.471,3.471,0,0,1,.773-2.332,2.629,2.629,0,0,1,2.127-.9,2.462,2.462,0,0,1,1.96.782,3.091,3.091,0,0,1,.683,2.106v.885h-3.779l-.018.035a1.713,1.713,0,0,0,.4,1.055,1.324,1.324,0,0,0,1.052.4,3.519,3.519,0,0,0,.976-.117,3.981,3.981,0,0,0,.829-.357l.463,1.055a3.176,3.176,0,0,1-1.031.521A4.573,4.573,0,0,1-24.973.123Zm-.111-5.262a.95.95,0,0,0-.794.354,1.778,1.778,0,0,0-.337.94l.012.029h2.086v-.129a1.481,1.481,0,0,0-.229-.876A.845.845,0,0,0-25.084-5.139ZM-21.041,0V-5.139h-.943v-1.2h.943v-.434a2.335,2.335,0,0,1,.729-1.843,2.991,2.991,0,0,1,2.054-.647,4.5,4.5,0,0,1,.9.091q.445.091,1.031.261l-.246,1.348q-.428-.129-.776-.2a4.074,4.074,0,0,0-.8-.07,1.28,1.28,0,0,0-.888.27,1.016,1.016,0,0,0-.3.791v.434h1.248v1.2H-19.33V0Zm5.508,0h-1.711V-6.34h1.711Zm2.971-6.34.076.908a2.319,2.319,0,0,1,.779-.756,2.023,2.023,0,0,1,1.037-.27,1.885,1.885,0,0,1,1.5.618,2.931,2.931,0,0,1,.539,1.954V0h-1.717V-3.879a1.518,1.518,0,0,0-.237-.964.875.875,0,0,0-.712-.284,1.494,1.494,0,0,0-.671.144,1.31,1.31,0,0,0-.478.4V0h-1.711V-6.34ZM-3.615,0a3.6,3.6,0,0,1-.161-.457,3.179,3.179,0,0,1-.1-.492,2.345,2.345,0,0,1-.7.768A1.748,1.748,0,0,1-5.6.123,2.141,2.141,0,0,1-7.137-.39a1.837,1.837,0,0,1-.539-1.4,1.672,1.672,0,0,1,.718-1.444,3.585,3.585,0,0,1,2.095-.513H-3.9v-.5a.986.986,0,0,0-.24-.709.943.943,0,0,0-.715-.252.929.929,0,0,0-.642.2.706.706,0,0,0-.226.554H-7.371l-.012-.035a1.608,1.608,0,0,1,.7-1.386,3.041,3.041,0,0,1,1.937-.583A2.838,2.838,0,0,1-2.9-5.883a2,2,0,0,1,.706,1.646v2.619a4.954,4.954,0,0,0,.067.838A4.2,4.2,0,0,0-1.91,0ZM-5.18-1.143a1.458,1.458,0,0,0,.8-.223,1.2,1.2,0,0,0,.48-.516v-.9h-.961a1.139,1.139,0,0,0-.823.27.886.886,0,0,0-.278.662.661.661,0,0,0,.208.513A.823.823,0,0,0-5.18-1.143ZM.68-6.34.75-5.5a2.13,2.13,0,0,1,.765-.706,2.2,2.2,0,0,1,1.063-.249,1.937,1.937,0,0,1,1.043.27,1.663,1.663,0,0,1,.656.814,2.2,2.2,0,0,1,.762-.8,2.067,2.067,0,0,1,1.1-.287,1.806,1.806,0,0,1,1.479.665,3.175,3.175,0,0,1,.542,2.03V0H6.451V-3.768a1.777,1.777,0,0,0-.234-1.061.832.832,0,0,0-.7-.3,1.194,1.194,0,0,0-.63.161,1.174,1.174,0,0,0-.425.448q0,.111.006.19t.006.161V0H2.771V-3.768a1.782,1.782,0,0,0-.234-1.052.828.828,0,0,0-.7-.308A1.327,1.327,0,0,0,1.228-5,1.163,1.163,0,0,0,.8-4.623V0H-.908V-6.34ZM11.273,0H9.563V-6.34h1.711Zm0-7.857H9.563V-9.141h1.711ZM15.428.123a2.853,2.853,0,0,1-2.215-.87,3.189,3.189,0,0,1-.8-2.241v-.234a3.471,3.471,0,0,1,.773-2.332,2.629,2.629,0,0,1,2.127-.9,2.462,2.462,0,0,1,1.96.782,3.091,3.091,0,0,1,.683,2.106v.885H14.18l-.018.035a1.713,1.713,0,0,0,.4,1.055,1.324,1.324,0,0,0,1.052.4,3.519,3.519,0,0,0,.976-.117,3.981,3.981,0,0,0,.829-.357l.463,1.055a3.176,3.176,0,0,1-1.031.521A4.573,4.573,0,0,1,15.428.123Zm-.111-5.262a.95.95,0,0,0-.794.354,1.778,1.778,0,0,0-.337.94l.012.029h2.086v-.129a1.481,1.481,0,0,0-.229-.876A.845.845,0,0,0,15.316-5.139Zm5.2-1.2.076.908a2.319,2.319,0,0,1,.779-.756,2.023,2.023,0,0,1,1.037-.27,1.885,1.885,0,0,1,1.5.618,2.931,2.931,0,0,1,.539,1.954V0H22.734V-3.879a1.518,1.518,0,0,0-.237-.964.875.875,0,0,0-.712-.284,1.494,1.494,0,0,0-.671.144,1.31,1.31,0,0,0-.478.4V0H18.926V-6.34Zm7.26-1.553V-6.34h1.072v1.2H27.779V-1.91a.737.737,0,0,0,.155.527.545.545,0,0,0,.407.158,1.633,1.633,0,0,0,.234-.015,1.974,1.974,0,0,0,.229-.05l.141,1.236a3.464,3.464,0,0,1-.5.132,2.987,2.987,0,0,1-.53.044,1.824,1.824,0,0,1-1.362-.486A2.132,2.132,0,0,1,26.074-1.9V-5.139h-.926v-1.2h.926V-7.893Zm1.863,4.664a3.4,3.4,0,0,1,.791-2.323,2.757,2.757,0,0,1,2.191-.905,2.787,2.787,0,0,1,2.2.9,3.384,3.384,0,0,1,.8,2.326v.123a3.389,3.389,0,0,1-.794,2.329,2.775,2.775,0,0,1-2.194.9,2.782,2.782,0,0,1-2.2-.9,3.389,3.389,0,0,1-.794-2.329Zm1.705.123a2.758,2.758,0,0,0,.3,1.392,1.052,1.052,0,0,0,.984.524,1.042,1.042,0,0,0,.97-.527,2.74,2.74,0,0,0,.308-1.389v-.123A2.712,2.712,0,0,0,33.6-4.605a1.051,1.051,0,0,0-.979-.533,1.038,1.038,0,0,0-.97.536,2.736,2.736,0,0,0-.308,1.374ZM-34,9.883a4.12,4.12,0,0,1,.647-2.42,2.1,2.1,0,0,1,1.825-.92,1.775,1.775,0,0,1,.855.205A2.058,2.058,0,0,1-30,7.334V3.859h1.717V13h-1.459l-.146-.779a2.119,2.119,0,0,1-.709.671,1.874,1.874,0,0,1-.937.231,2.144,2.144,0,0,1-1.813-.855A3.653,3.653,0,0,1-34,10.006Zm1.705.123a2.582,2.582,0,0,0,.281,1.31.979.979,0,0,0,.914.478,1.331,1.331,0,0,0,.645-.149A1.192,1.192,0,0,0-30,11.207v-2.7a1.317,1.317,0,0,0-.448-.466,1.192,1.192,0,0,0-.636-.167A.966.966,0,0,0-32,8.43a3.146,3.146,0,0,0-.29,1.453Zm8.08,3.117a2.853,2.853,0,0,1-2.215-.87,3.189,3.189,0,0,1-.8-2.241V9.777a3.471,3.471,0,0,1,.773-2.332,2.629,2.629,0,0,1,2.127-.9,2.462,2.462,0,0,1,1.96.782,3.091,3.091,0,0,1,.683,2.106v.885h-3.779l-.018.035a1.713,1.713,0,0,0,.4,1.055,1.324,1.324,0,0,0,1.052.4,3.519,3.519,0,0,0,.976-.117,3.981,3.981,0,0,0,.829-.357l.463,1.055a3.176,3.176,0,0,1-1.031.521A4.573,4.573,0,0,1-24.211,13.123Zm-.111-5.262a.95.95,0,0,0-.794.354,1.778,1.778,0,0,0-.337.94l.012.029h2.086V9.057a1.481,1.481,0,0,0-.229-.876A.845.845,0,0,0-24.322,7.861ZM-18.885,13H-20.6V3.859h1.711Zm10.113-2.994a3.641,3.641,0,0,1-.65,2.262,2.152,2.152,0,0,1-1.816.855,2.03,2.03,0,0,1-.885-.185,1.817,1.817,0,0,1-.662-.542v3.041H-14.49V6.66h1.541l.1.75a2.031,2.031,0,0,1,.677-.642,1.831,1.831,0,0,1,.923-.226,2.11,2.11,0,0,1,1.828.92,4.106,4.106,0,0,1,.65,2.42Zm-1.711-.123a3.067,3.067,0,0,0-.3-1.453.975.975,0,0,0-.914-.557,1.292,1.292,0,0,0-.659.158,1.129,1.129,0,0,0-.431.451V11.26a1.049,1.049,0,0,0,.431.41,1.451,1.451,0,0,0,.671.141.984.984,0,0,0,.911-.486,2.567,2.567,0,0,0,.29-1.318Zm6.1-1.752-.627-.018a1.14,1.14,0,0,0-.627.158,1,1,0,0,0-.375.445V13H-7.717V6.66h1.588l.076.938a2,2,0,0,1,.577-.776,1.287,1.287,0,0,1,.817-.278,1.279,1.279,0,0,1,.237.021q.108.021.22.05Zm.51,1.641a3.4,3.4,0,0,1,.791-2.323A2.757,2.757,0,0,1-.891,6.543a2.787,2.787,0,0,1,2.2.9,3.384,3.384,0,0,1,.8,2.326v.123a3.389,3.389,0,0,1-.794,2.329,2.775,2.775,0,0,1-2.194.9,2.782,2.782,0,0,1-2.2-.9,3.389,3.389,0,0,1-.794-2.329Zm1.705.123a2.758,2.758,0,0,0,.3,1.392,1.052,1.052,0,0,0,.984.524,1.042,1.042,0,0,0,.97-.527A2.74,2.74,0,0,0,.4,9.895V9.771A2.712,2.712,0,0,0,.088,8.395a1.051,1.051,0,0,0-.979-.533,1.038,1.038,0,0,0-.97.536,2.736,2.736,0,0,0-.308,1.374ZM5.215,5.107V6.66H6.287v1.2H5.215V11.09a.737.737,0,0,0,.155.527.545.545,0,0,0,.407.158,1.633,1.633,0,0,0,.234-.015,1.974,1.974,0,0,0,.229-.05l.141,1.236a3.464,3.464,0,0,1-.5.132,2.987,2.987,0,0,1-.53.044,1.824,1.824,0,0,1-1.362-.486A2.132,2.132,0,0,1,3.51,11.1V7.861H2.584V6.66H3.51V5.107ZM7.078,9.771a3.4,3.4,0,0,1,.791-2.323,2.757,2.757,0,0,1,2.191-.905,2.787,2.787,0,0,1,2.2.9,3.384,3.384,0,0,1,.8,2.326v.123a3.389,3.389,0,0,1-.794,2.329,2.775,2.775,0,0,1-2.194.9,2.782,2.782,0,0,1-2.2-.9,3.389,3.389,0,0,1-.794-2.329Zm1.705.123a2.758,2.758,0,0,0,.3,1.392,1.052,1.052,0,0,0,.984.524,1.042,1.042,0,0,0,.97-.527,2.74,2.74,0,0,0,.308-1.389V9.771a2.712,2.712,0,0,0-.311-1.377,1.051,1.051,0,0,0-.979-.533,1.038,1.038,0,0,0-.97.536,2.736,2.736,0,0,0-.308,1.374Zm7.383-4.787V6.66h1.072v1.2H16.166V11.09a.737.737,0,0,0,.155.527.545.545,0,0,0,.407.158,1.633,1.633,0,0,0,.234-.015,1.974,1.974,0,0,0,.229-.05l.141,1.236a3.464,3.464,0,0,1-.5.132,2.987,2.987,0,0,1-.53.044,1.824,1.824,0,0,1-1.362-.486,2.132,2.132,0,0,1-.478-1.541V7.861h-.926V6.66h.926V5.107ZM20.092,13H18.381V6.66h1.711Zm0-7.857H18.381V3.859h1.711Zm7.125,4.863a3.641,3.641,0,0,1-.65,2.262,2.152,2.152,0,0,1-1.816.855,2.03,2.03,0,0,1-.885-.185A1.817,1.817,0,0,1,23.2,12.4v3.041H21.5V6.66h1.541l.1.75a2.031,2.031,0,0,1,.677-.642,1.831,1.831,0,0,1,.923-.226,2.11,2.11,0,0,1,1.828.92,4.106,4.106,0,0,1,.65,2.42Zm-1.711-.123a3.067,3.067,0,0,0-.3-1.453.975.975,0,0,0-.914-.557,1.292,1.292,0,0,0-.659.158,1.129,1.129,0,0,0-.431.451V11.26a1.049,1.049,0,0,0,.431.41,1.451,1.451,0,0,0,.671.141.984.984,0,0,0,.911-.486,2.567,2.567,0,0,0,.29-1.318Zm2.5-.111A3.4,3.4,0,0,1,28.8,7.448a2.757,2.757,0,0,1,2.191-.905,2.787,2.787,0,0,1,2.2.9,3.384,3.384,0,0,1,.8,2.326v.123a3.389,3.389,0,0,1-.794,2.329,3.134,3.134,0,0,1-4.395,0,3.389,3.389,0,0,1-.794-2.329Zm1.705.123a2.758,2.758,0,0,0,.3,1.392,1.171,1.171,0,0,0,1.954,0,2.74,2.74,0,0,0,.308-1.389V9.771a2.712,2.712,0,0,0-.311-1.377,1.051,1.051,0,0,0-.979-.533,1.038,1.038,0,0,0-.97.536,2.736,2.736,0,0,0-.308,1.374Z" transform="translate(-1512 -4460)" fill="#00104e"/>
    <path id="Trazado_884072" data-name="Trazado 884072" d="M-33.146-3.75h-3.164v2.438h3.762V0h-5.473V-8.531h5.461v1.318h-3.75v2.145h3.164Zm3.809,1.389.111.586h.035l.117-.586,1.043-3.979h1.787L-28.4,0h-1.635l-2.156-6.34H-30.4ZM-21.85,0a3.6,3.6,0,0,1-.161-.457,3.179,3.179,0,0,1-.1-.492,2.345,2.345,0,0,1-.7.768,1.748,1.748,0,0,1-1.031.3A2.141,2.141,0,0,1-25.371-.39a1.837,1.837,0,0,1-.539-1.4,1.672,1.672,0,0,1,.718-1.444A3.585,3.585,0,0,1-23.1-3.744h.961v-.5a.986.986,0,0,0-.24-.709.943.943,0,0,0-.715-.252.929.929,0,0,0-.642.2.706.706,0,0,0-.226.554h-1.646l-.012-.035a1.608,1.608,0,0,1,.7-1.386,3.041,3.041,0,0,1,1.937-.583,2.838,2.838,0,0,1,1.849.574,2,2,0,0,1,.706,1.646v2.619a4.954,4.954,0,0,0,.067.838A4.2,4.2,0,0,0-20.145,0Zm-1.564-1.143a1.458,1.458,0,0,0,.8-.223,1.2,1.2,0,0,0,.48-.516v-.9H-23.1a1.139,1.139,0,0,0-.823.27.886.886,0,0,0-.278.662.661.661,0,0,0,.208.513A.823.823,0,0,0-23.414-1.143ZM-17.344,0h-1.711V-9.141h1.711Zm5.291-.937a2.152,2.152,0,0,1-.744.785,1.973,1.973,0,0,1-1.049.275,1.928,1.928,0,0,1-1.567-.68,3.26,3.26,0,0,1-.565-2.109V-6.34h1.705v3.686a2.047,2.047,0,0,0,.226,1.14.811.811,0,0,0,.7.308,1.7,1.7,0,0,0,.7-.132,1.185,1.185,0,0,0,.48-.39V-6.34h1.711V0h-1.418ZM-5.426,0a3.6,3.6,0,0,1-.161-.457,3.179,3.179,0,0,1-.1-.492,2.345,2.345,0,0,1-.7.768,1.748,1.748,0,0,1-1.031.3A2.141,2.141,0,0,1-8.947-.39a1.837,1.837,0,0,1-.539-1.4,1.672,1.672,0,0,1,.718-1.444,3.585,3.585,0,0,1,2.095-.513h.961v-.5a.986.986,0,0,0-.24-.709.943.943,0,0,0-.715-.252.929.929,0,0,0-.642.2.706.706,0,0,0-.226.554H-9.182l-.012-.035a1.608,1.608,0,0,1,.7-1.386,3.041,3.041,0,0,1,1.937-.583,2.838,2.838,0,0,1,1.849.574A2,2,0,0,1-4-4.236v2.619a4.954,4.954,0,0,0,.067.838A4.2,4.2,0,0,0-3.721,0ZM-6.99-1.143a1.458,1.458,0,0,0,.8-.223,1.2,1.2,0,0,0,.48-.516v-.9h-.961a1.139,1.139,0,0,0-.823.27.886.886,0,0,0-.278.662.661.661,0,0,0,.208.513A.823.823,0,0,0-6.99-1.143Zm6.92-.047a.952.952,0,0,0,.709-.267A.968.968,0,0,0,.9-2.168H2.461l.012.035A1.984,1.984,0,0,1,1.758-.524,2.673,2.673,0,0,1-.07.123a2.7,2.7,0,0,1-2.174-.9,3.418,3.418,0,0,1-.768-2.3v-.176a3.441,3.441,0,0,1,.765-2.3A2.678,2.678,0,0,1-.082-6.457a2.615,2.615,0,0,1,1.869.668,2.232,2.232,0,0,1,.686,1.758L2.461-4H.9a1.265,1.265,0,0,0-.261-.817.876.876,0,0,0-.724-.325.976.976,0,0,0-.94.53A2.908,2.908,0,0,0-1.3-3.252v.176a2.9,2.9,0,0,0,.278,1.365A.99.99,0,0,0-.07-1.189ZM5.268,0H3.557V-6.34H5.268Zm0-7.857H3.557V-9.141H5.268ZM6.41-3.229A3.4,3.4,0,0,1,7.2-5.552a2.757,2.757,0,0,1,2.191-.905,2.787,2.787,0,0,1,2.2.9,3.384,3.384,0,0,1,.8,2.326v.123A3.389,3.389,0,0,1,11.6-.776,2.775,2.775,0,0,1,9.4.123a2.782,2.782,0,0,1-2.2-.9A3.389,3.389,0,0,1,6.41-3.105Zm1.705.123a2.758,2.758,0,0,0,.3,1.392,1.052,1.052,0,0,0,.984.524,1.042,1.042,0,0,0,.97-.527,2.74,2.74,0,0,0,.308-1.389v-.123a2.712,2.712,0,0,0-.311-1.377,1.051,1.051,0,0,0-.979-.533,1.038,1.038,0,0,0-.97.536,2.736,2.736,0,0,0-.308,1.374ZM9.738-9.047h1.9l.012.035L10.031-7.488H8.572ZM15.012-6.34l.076.908a2.319,2.319,0,0,1,.779-.756,2.023,2.023,0,0,1,1.037-.27,1.885,1.885,0,0,1,1.5.618,2.931,2.931,0,0,1,.539,1.954V0H17.227V-3.879a1.518,1.518,0,0,0-.237-.964.875.875,0,0,0-.712-.284,1.494,1.494,0,0,0-.671.144,1.31,1.31,0,0,0-.478.4V0H13.418V-6.34Zm7.934,3.223a4.12,4.12,0,0,1,.647-2.42,2.1,2.1,0,0,1,1.825-.92,1.775,1.775,0,0,1,.855.205,2.058,2.058,0,0,1,.668.586V-9.141h1.717V0H27.2l-.146-.779a2.119,2.119,0,0,1-.709.671,1.874,1.874,0,0,1-.937.231,2.144,2.144,0,0,1-1.813-.855,3.653,3.653,0,0,1-.647-2.262Zm1.705.123a2.582,2.582,0,0,0,.281,1.31.979.979,0,0,0,.914.478,1.331,1.331,0,0,0,.645-.149,1.192,1.192,0,0,0,.451-.437v-2.7a1.317,1.317,0,0,0-.448-.466,1.192,1.192,0,0,0-.636-.167.966.966,0,0,0-.917.557,3.146,3.146,0,0,0-.29,1.453ZM32.73.123a2.853,2.853,0,0,1-2.215-.87,3.189,3.189,0,0,1-.8-2.241v-.234a3.471,3.471,0,0,1,.773-2.332,2.629,2.629,0,0,1,2.127-.9,2.462,2.462,0,0,1,1.96.782,3.091,3.091,0,0,1,.683,2.106v.885H31.482l-.018.035a1.713,1.713,0,0,0,.4,1.055,1.324,1.324,0,0,0,1.052.4,3.519,3.519,0,0,0,.976-.117,3.981,3.981,0,0,0,.829-.357L35.18-.609a3.176,3.176,0,0,1-1.031.521A4.573,4.573,0,0,1,32.73.123Zm-.111-5.262a.95.95,0,0,0-.794.354,1.778,1.778,0,0,0-.337.94l.012.029h2.086v-.129a1.481,1.481,0,0,0-.229-.876A.845.845,0,0,0,32.619-5.139ZM38.057,0H36.346V-9.141h1.711ZM-28.772,10.006a3.641,3.641,0,0,1-.65,2.262,2.152,2.152,0,0,1-1.816.855,2.03,2.03,0,0,1-.885-.185,1.817,1.817,0,0,1-.662-.542v3.041h-1.705V6.66h1.541l.1.75a2.031,2.031,0,0,1,.677-.642,1.831,1.831,0,0,1,.923-.226,2.11,2.11,0,0,1,1.828.92,4.106,4.106,0,0,1,.65,2.42Zm-1.711-.123a3.067,3.067,0,0,0-.3-1.453.975.975,0,0,0-.914-.557,1.292,1.292,0,0,0-.659.158,1.129,1.129,0,0,0-.431.451V11.26a1.049,1.049,0,0,0,.431.41,1.451,1.451,0,0,0,.671.141.984.984,0,0,0,.911-.486,2.567,2.567,0,0,0,.29-1.318Zm6.1-1.752-.627-.018a1.14,1.14,0,0,0-.627.158,1,1,0,0,0-.375.445V13h-1.705V6.66h1.588l.076.938a2,2,0,0,1,.577-.776,1.287,1.287,0,0,1,.817-.278,1.279,1.279,0,0,1,.237.021q.108.021.22.05Zm.51,1.641a3.4,3.4,0,0,1,.791-2.323,2.757,2.757,0,0,1,2.191-.905,2.787,2.787,0,0,1,2.2.9,3.384,3.384,0,0,1,.8,2.326v.123a3.389,3.389,0,0,1-.794,2.329,2.775,2.775,0,0,1-2.194.9,2.782,2.782,0,0,1-2.2-.9,3.389,3.389,0,0,1-.794-2.329Zm1.705.123a2.758,2.758,0,0,0,.3,1.392,1.052,1.052,0,0,0,.984.524,1.042,1.042,0,0,0,.97-.527A2.74,2.74,0,0,0-19.6,9.895V9.771a2.712,2.712,0,0,0-.311-1.377,1.051,1.051,0,0,0-.979-.533,1.038,1.038,0,0,0-.97.536,2.736,2.736,0,0,0-.308,1.374Zm7.383-4.787V6.66h1.072v1.2h-1.072V11.09a.737.737,0,0,0,.155.527.545.545,0,0,0,.407.158,1.633,1.633,0,0,0,.234-.015,1.974,1.974,0,0,0,.229-.05l.141,1.236a3.464,3.464,0,0,1-.5.132,2.987,2.987,0,0,1-.53.044,1.824,1.824,0,0,1-1.362-.486,2.132,2.132,0,0,1-.478-1.541V7.861h-.926V6.66h.926V5.107Zm1.863,4.664a3.4,3.4,0,0,1,.791-2.323A2.757,2.757,0,0,1-9.94,6.543a2.787,2.787,0,0,1,2.2.9,3.384,3.384,0,0,1,.8,2.326v.123a3.389,3.389,0,0,1-.794,2.329,2.775,2.775,0,0,1-2.194.9,2.782,2.782,0,0,1-2.2-.9,3.389,3.389,0,0,1-.794-2.329Zm1.705.123a2.758,2.758,0,0,0,.3,1.392,1.052,1.052,0,0,0,.984.524,1.042,1.042,0,0,0,.97-.527,2.74,2.74,0,0,0,.308-1.389V9.771a2.712,2.712,0,0,0-.311-1.377,1.051,1.051,0,0,0-.979-.533,1.038,1.038,0,0,0-.97.536,2.736,2.736,0,0,0-.308,1.374Zm7.383-4.787V6.66h1.072v1.2H-3.835V11.09a.737.737,0,0,0,.155.527.545.545,0,0,0,.407.158,1.633,1.633,0,0,0,.234-.015,1.974,1.974,0,0,0,.229-.05l.141,1.236a3.464,3.464,0,0,1-.5.132,2.987,2.987,0,0,1-.53.044,1.824,1.824,0,0,1-1.362-.486A2.132,2.132,0,0,1-5.54,11.1V7.861h-.926V6.66h.926V5.107ZM.091,13H-1.62V6.66H.091Zm0-7.857H-1.62V3.859H.091Zm7.125,4.863a3.641,3.641,0,0,1-.65,2.262,2.152,2.152,0,0,1-1.816.855,2.03,2.03,0,0,1-.885-.185A1.817,1.817,0,0,1,3.2,12.4v3.041H1.5V6.66H3.038l.1.75a2.031,2.031,0,0,1,.677-.642,1.831,1.831,0,0,1,.923-.226,2.11,2.11,0,0,1,1.828.92,4.106,4.106,0,0,1,.65,2.42ZM5.5,9.883a3.067,3.067,0,0,0-.3-1.453.975.975,0,0,0-.914-.557,1.292,1.292,0,0,0-.659.158,1.129,1.129,0,0,0-.431.451V11.26a1.049,1.049,0,0,0,.431.41,1.451,1.451,0,0,0,.671.141.984.984,0,0,0,.911-.486,2.567,2.567,0,0,0,.29-1.318Zm2.5-.111A3.4,3.4,0,0,1,8.8,7.448a2.757,2.757,0,0,1,2.191-.905,2.787,2.787,0,0,1,2.2.9,3.384,3.384,0,0,1,.8,2.326v.123a3.389,3.389,0,0,1-.794,2.329,2.775,2.775,0,0,1-2.194.9,2.782,2.782,0,0,1-2.2-.9,3.389,3.389,0,0,1-.794-2.329Zm1.705.123a2.758,2.758,0,0,0,.3,1.392,1.052,1.052,0,0,0,.984.524,1.042,1.042,0,0,0,.97-.527,2.74,2.74,0,0,0,.308-1.389V9.771a2.712,2.712,0,0,0-.311-1.377,1.051,1.051,0,0,0-.979-.533,1.038,1.038,0,0,0-.97.536,2.736,2.736,0,0,0-.308,1.374Zm14.039.111a3.641,3.641,0,0,1-.65,2.262,2.152,2.152,0,0,1-1.816.855,2.03,2.03,0,0,1-.885-.185,1.817,1.817,0,0,1-.662-.542v3.041H18.032V6.66h1.541l.1.75a2.031,2.031,0,0,1,.677-.642,1.831,1.831,0,0,1,.923-.226,2.11,2.11,0,0,1,1.828.92,4.106,4.106,0,0,1,.65,2.42ZM22.04,9.883a3.067,3.067,0,0,0-.3-1.453.975.975,0,0,0-.914-.557,1.292,1.292,0,0,0-.659.158,1.129,1.129,0,0,0-.431.451V11.26a1.049,1.049,0,0,0,.431.41,1.451,1.451,0,0,0,.671.141.984.984,0,0,0,.911-.486,2.567,2.567,0,0,0,.29-1.318Zm2.5-.111a3.4,3.4,0,0,1,.791-2.323,2.757,2.757,0,0,1,2.191-.905,2.787,2.787,0,0,1,2.2.9,3.384,3.384,0,0,1,.8,2.326v.123a3.389,3.389,0,0,1-.794,2.329,2.775,2.775,0,0,1-2.194.9,2.782,2.782,0,0,1-2.2-.9,3.389,3.389,0,0,1-.794-2.329Zm1.705.123a2.758,2.758,0,0,0,.3,1.392,1.171,1.171,0,0,0,1.954,0,2.74,2.74,0,0,0,.308-1.389V9.771A2.712,2.712,0,0,0,28.5,8.395a1.051,1.051,0,0,0-.979-.533,1.038,1.038,0,0,0-.97.536,2.736,2.736,0,0,0-.308,1.374Zm8.666-1.764-.627-.018a1.14,1.14,0,0,0-.627.158,1,1,0,0,0-.375.445V13H31.579V6.66h1.588l.076.938a2,2,0,0,1,.577-.776,1.348,1.348,0,0,1,1.055-.258q.108.021.22.05ZM-20.88,26.123a2.853,2.853,0,0,1-2.215-.87,3.189,3.189,0,0,1-.8-2.241v-.234a3.471,3.471,0,0,1,.773-2.332,2.629,2.629,0,0,1,2.127-.9,2.462,2.462,0,0,1,1.96.782,3.091,3.091,0,0,1,.683,2.106v.885h-3.779l-.018.035a1.713,1.713,0,0,0,.4,1.055,1.324,1.324,0,0,0,1.052.4,3.519,3.519,0,0,0,.976-.117,3.981,3.981,0,0,0,.829-.357l.463,1.055a3.176,3.176,0,0,1-1.031.521A4.573,4.573,0,0,1-20.88,26.123Zm-.111-5.262a.95.95,0,0,0-.794.354,1.778,1.778,0,0,0-.337.94l.012.029h2.086v-.129a1.481,1.481,0,0,0-.229-.876A.845.845,0,0,0-20.991,20.861ZM-15.554,26h-1.711V16.859h1.711Zm7.043-1.189a.952.952,0,0,0,.709-.267.968.968,0,0,0,.264-.712h1.559l.012.035a1.984,1.984,0,0,1-.715,1.608,2.673,2.673,0,0,1-1.828.647,2.7,2.7,0,0,1-2.174-.9,3.418,3.418,0,0,1-.768-2.3v-.176a3.441,3.441,0,0,1,.765-2.3,2.678,2.678,0,0,1,2.165-.905,2.615,2.615,0,0,1,1.869.668,2.232,2.232,0,0,1,.686,1.758L-5.979,22H-7.538a1.265,1.265,0,0,0-.261-.817.876.876,0,0,0-.724-.325.976.976,0,0,0-.94.53,2.908,2.908,0,0,0-.278,1.356v.176a2.9,2.9,0,0,0,.278,1.365A.99.99,0,0,0-8.511,24.811ZM-3.173,26H-4.884V16.859h1.711ZM.032,26H-1.679V19.66H.032Zm0-7.857H-1.679V16.859H.032Zm4.154,7.98a2.853,2.853,0,0,1-2.215-.87,3.189,3.189,0,0,1-.8-2.241v-.234a3.471,3.471,0,0,1,.773-2.332,2.629,2.629,0,0,1,2.127-.9,2.462,2.462,0,0,1,1.96.782,3.091,3.091,0,0,1,.683,2.106v.885H2.938l-.018.035a1.713,1.713,0,0,0,.4,1.055,1.324,1.324,0,0,0,1.052.4,3.519,3.519,0,0,0,.976-.117,3.981,3.981,0,0,0,.829-.357l.463,1.055a3.176,3.176,0,0,1-1.031.521A4.573,4.573,0,0,1,4.187,26.123Zm-.111-5.262a.95.95,0,0,0-.794.354,1.778,1.778,0,0,0-.337.94l.012.029H5.042v-.129a1.481,1.481,0,0,0-.229-.876A.845.845,0,0,0,4.075,20.861Zm5.2-1.2.076.908a2.319,2.319,0,0,1,.779-.756,2.023,2.023,0,0,1,1.037-.27,1.885,1.885,0,0,1,1.5.618,2.931,2.931,0,0,1,.539,1.954V26H11.493V22.121a1.518,1.518,0,0,0-.237-.964.875.875,0,0,0-.712-.284,1.494,1.494,0,0,0-.671.144,1.31,1.31,0,0,0-.478.4V26H7.685V19.66Zm7.26-1.553V19.66H17.61v1.2H16.538V24.09a.737.737,0,0,0,.155.527.545.545,0,0,0,.407.158,1.633,1.633,0,0,0,.234-.015,1.974,1.974,0,0,0,.229-.05l.141,1.236a3.464,3.464,0,0,1-.5.132,2.987,2.987,0,0,1-.53.044,1.824,1.824,0,0,1-1.362-.486,2.132,2.132,0,0,1-.478-1.541V20.861h-.926v-1.2h.926V18.107Zm4.875,8.016a2.853,2.853,0,0,1-2.215-.87,3.189,3.189,0,0,1-.8-2.241v-.234a3.471,3.471,0,0,1,.773-2.332,2.629,2.629,0,0,1,2.127-.9,2.462,2.462,0,0,1,1.96.782,3.091,3.091,0,0,1,.683,2.106v.885H20.165l-.018.035a1.713,1.713,0,0,0,.4,1.055,1.324,1.324,0,0,0,1.052.4,3.519,3.519,0,0,0,.976-.117,3.981,3.981,0,0,0,.829-.357l.463,1.055a3.176,3.176,0,0,1-1.031.521A4.573,4.573,0,0,1,21.413,26.123ZM21.3,20.861a.95.95,0,0,0-.794.354,1.778,1.778,0,0,0-.337.94l.012.029h2.086v-.129a1.481,1.481,0,0,0-.229-.876A.845.845,0,0,0,21.3,20.861Z" transform="translate(-1408 -4406)" fill="#00104e"/>
    <path id="Trazado_884073" data-name="Trazado 884073" d="M-28.652-2.824l.012.035A2.671,2.671,0,0,1-29.473-.65a3.392,3.392,0,0,1-2.361.773,3.271,3.271,0,0,1-2.479-.987,3.542,3.542,0,0,1-.943-2.552V-5.109a3.607,3.607,0,0,1,.92-2.552,3.136,3.136,0,0,1,2.414-.993,3.6,3.6,0,0,1,2.438.762,2.622,2.622,0,0,1,.855,2.145l-.012.035H-30.3a1.677,1.677,0,0,0-.4-1.222,1.65,1.65,0,0,0-1.222-.4,1.379,1.379,0,0,0-1.2.618,2.734,2.734,0,0,0-.431,1.6v1.705A2.653,2.653,0,0,0-33.1-1.811a1.476,1.476,0,0,0,1.263.621,1.5,1.5,0,0,0,1.146-.4,1.746,1.746,0,0,0,.378-1.233Zm.844-.4a3.4,3.4,0,0,1,.791-2.323,2.757,2.757,0,0,1,2.191-.905,2.787,2.787,0,0,1,2.2.9,3.384,3.384,0,0,1,.8,2.326v.123A3.389,3.389,0,0,1-22.62-.776a2.775,2.775,0,0,1-2.194.9,2.782,2.782,0,0,1-2.2-.9,3.389,3.389,0,0,1-.794-2.329Zm1.705.123a2.758,2.758,0,0,0,.3,1.392,1.052,1.052,0,0,0,.984.524,1.042,1.042,0,0,0,.97-.527,2.74,2.74,0,0,0,.308-1.389v-.123a2.712,2.712,0,0,0-.311-1.377,1.051,1.051,0,0,0-.979-.533,1.038,1.038,0,0,0-.97.536A2.736,2.736,0,0,0-26.1-3.229Zm6.9-3.234.076.908a2.319,2.319,0,0,1,.779-.756,2.023,2.023,0,0,1,1.037-.27,1.885,1.885,0,0,1,1.5.618,2.931,2.931,0,0,1,.539,1.954V0h-1.717V-3.879a1.518,1.518,0,0,0-.237-.964.875.875,0,0,0-.712-.284,1.494,1.494,0,0,0-.671.144,1.31,1.31,0,0,0-.478.4V0H-20.8V-6.34Zm8.637,4.582a.59.59,0,0,0-.272-.483A2.767,2.767,0,0,0-11.854-2.6a4.031,4.031,0,0,1-1.69-.674,1.472,1.472,0,0,1-.577-1.225,1.747,1.747,0,0,1,.691-1.389,2.788,2.788,0,0,1,1.84-.574,3.008,3.008,0,0,1,1.925.574,1.678,1.678,0,0,1,.694,1.43l-.012.035h-1.652a.83.83,0,0,0-.246-.621.974.974,0,0,0-.709-.24.969.969,0,0,0-.65.205.638.638,0,0,0-.24.5.569.569,0,0,0,.249.478,2.772,2.772,0,0,0,1.011.331,4.113,4.113,0,0,1,1.737.688,1.51,1.51,0,0,1,.571,1.251,1.673,1.673,0,0,1-.732,1.4,3.161,3.161,0,0,1-1.934.545,2.939,2.939,0,0,1-2-.642,1.794,1.794,0,0,1-.7-1.462l.012-.035H-12.7a.889.889,0,0,0,.334.738,1.379,1.379,0,0,0,.826.229,1.175,1.175,0,0,0,.724-.19A.618.618,0,0,0-10.57-1.758ZM-5.76-7.893V-6.34h1.072v1.2H-5.76V-1.91a.737.737,0,0,0,.155.527.545.545,0,0,0,.407.158,1.633,1.633,0,0,0,.234-.015,1.974,1.974,0,0,0,.229-.05l.141,1.236a3.464,3.464,0,0,1-.5.132,2.987,2.987,0,0,1-.53.044A1.824,1.824,0,0,1-6.987-.363,2.132,2.132,0,0,1-7.465-1.9V-5.139h-.926v-1.2h.926V-7.893ZM-.3-4.869l-.627-.018a1.14,1.14,0,0,0-.627.158,1,1,0,0,0-.375.445V0H-3.633V-6.34h1.588l.076.938a2,2,0,0,1,.577-.776,1.287,1.287,0,0,1,.817-.278,1.279,1.279,0,0,1,.237.021q.108.021.22.05ZM4.477-.937a2.152,2.152,0,0,1-.744.785A1.973,1.973,0,0,1,2.684.123a1.928,1.928,0,0,1-1.567-.68A3.26,3.26,0,0,1,.551-2.666V-6.34H2.256v3.686a2.047,2.047,0,0,0,.226,1.14.811.811,0,0,0,.7.308,1.7,1.7,0,0,0,.7-.132,1.185,1.185,0,0,0,.48-.39V-6.34H6.076V0H4.658Zm5.537-.252a.952.952,0,0,0,.709-.267.968.968,0,0,0,.264-.712h1.559l.012.035a1.984,1.984,0,0,1-.715,1.608,2.673,2.673,0,0,1-1.828.647,2.7,2.7,0,0,1-2.174-.9,3.418,3.418,0,0,1-.768-2.3v-.176a3.441,3.441,0,0,1,.765-2.3A2.678,2.678,0,0,1,10-6.457a2.615,2.615,0,0,1,1.869.668,2.232,2.232,0,0,1,.686,1.758L12.545-4H10.986a1.265,1.265,0,0,0-.261-.817A.876.876,0,0,0,10-5.139a.976.976,0,0,0-.94.53,2.908,2.908,0,0,0-.278,1.356v.176a2.9,2.9,0,0,0,.278,1.365A.99.99,0,0,0,10.014-1.189Zm6.188,0a.952.952,0,0,0,.709-.267.968.968,0,0,0,.264-.712h1.559l.012.035a1.984,1.984,0,0,1-.715,1.608A2.673,2.673,0,0,1,16.2.123a2.7,2.7,0,0,1-2.174-.9,3.418,3.418,0,0,1-.768-2.3v-.176a3.441,3.441,0,0,1,.765-2.3,2.678,2.678,0,0,1,2.165-.905,2.615,2.615,0,0,1,1.869.668,2.232,2.232,0,0,1,.686,1.758L18.732-4H17.174a1.265,1.265,0,0,0-.261-.817.876.876,0,0,0-.724-.325.976.976,0,0,0-.94.53,2.908,2.908,0,0,0-.278,1.356v.176a2.9,2.9,0,0,0,.278,1.365A.99.99,0,0,0,16.2-1.189ZM21.539,0H19.828V-6.34h1.711Zm0-7.857H19.828V-9.141h1.711Zm1.143,4.629a3.4,3.4,0,0,1,.791-2.323,2.757,2.757,0,0,1,2.191-.905,2.787,2.787,0,0,1,2.2.9,3.384,3.384,0,0,1,.8,2.326v.123A3.389,3.389,0,0,1,27.87-.776a2.775,2.775,0,0,1-2.194.9,2.782,2.782,0,0,1-2.2-.9,3.389,3.389,0,0,1-.794-2.329Zm1.705.123a2.758,2.758,0,0,0,.3,1.392,1.052,1.052,0,0,0,.984.524,1.042,1.042,0,0,0,.97-.527,2.74,2.74,0,0,0,.308-1.389v-.123a2.712,2.712,0,0,0-.311-1.377,1.051,1.051,0,0,0-.979-.533,1.038,1.038,0,0,0-.97.536,2.736,2.736,0,0,0-.308,1.374ZM26.01-9.047h1.9l.012.035L26.3-7.488H24.844ZM31.283-6.34l.076.908a2.319,2.319,0,0,1,.779-.756,2.023,2.023,0,0,1,1.037-.27,1.885,1.885,0,0,1,1.5.618,2.931,2.931,0,0,1,.539,1.954V0H33.5V-3.879a1.518,1.518,0,0,0-.237-.964.875.875,0,0,0-.712-.284,1.494,1.494,0,0,0-.671.144,1.31,1.31,0,0,0-.478.4V0H29.689V-6.34ZM-34,9.883a4.12,4.12,0,0,1,.647-2.42,2.1,2.1,0,0,1,1.825-.92,1.775,1.775,0,0,1,.855.205A2.058,2.058,0,0,1-30,7.334V3.859h1.717V13h-1.459l-.146-.779a2.119,2.119,0,0,1-.709.671,1.874,1.874,0,0,1-.937.231,2.144,2.144,0,0,1-1.813-.855A3.653,3.653,0,0,1-34,10.006Zm1.705.123a2.582,2.582,0,0,0,.281,1.31.979.979,0,0,0,.914.478,1.331,1.331,0,0,0,.645-.149A1.192,1.192,0,0,0-30,11.207v-2.7a1.317,1.317,0,0,0-.448-.466,1.192,1.192,0,0,0-.636-.167A.966.966,0,0,0-32,8.43a3.146,3.146,0,0,0-.29,1.453Zm8.08,3.117a2.853,2.853,0,0,1-2.215-.87,3.189,3.189,0,0,1-.8-2.241V9.777a3.471,3.471,0,0,1,.773-2.332,2.629,2.629,0,0,1,2.127-.9,2.462,2.462,0,0,1,1.96.782,3.091,3.091,0,0,1,.683,2.106v.885h-3.779l-.018.035a1.713,1.713,0,0,0,.4,1.055,1.324,1.324,0,0,0,1.052.4,3.519,3.519,0,0,0,.976-.117,3.981,3.981,0,0,0,.829-.357l.463,1.055a3.176,3.176,0,0,1-1.031.521A4.573,4.573,0,0,1-24.211,13.123Zm-.111-5.262a.95.95,0,0,0-.794.354,1.778,1.778,0,0,0-.337.94l.012.029h2.086V9.057a1.481,1.481,0,0,0-.229-.876A.845.845,0,0,0-24.322,7.861ZM-18.885,13H-20.6V3.859h1.711Zm10.113-2.994a3.641,3.641,0,0,1-.65,2.262,2.152,2.152,0,0,1-1.816.855,2.03,2.03,0,0,1-.885-.185,1.817,1.817,0,0,1-.662-.542v3.041H-14.49V6.66h1.541l.1.75a2.031,2.031,0,0,1,.677-.642,1.831,1.831,0,0,1,.923-.226,2.11,2.11,0,0,1,1.828.92,4.106,4.106,0,0,1,.65,2.42Zm-1.711-.123a3.067,3.067,0,0,0-.3-1.453.975.975,0,0,0-.914-.557,1.292,1.292,0,0,0-.659.158,1.129,1.129,0,0,0-.431.451V11.26a1.049,1.049,0,0,0,.431.41,1.451,1.451,0,0,0,.671.141.984.984,0,0,0,.911-.486,2.567,2.567,0,0,0,.29-1.318Zm6.1-1.752-.627-.018a1.14,1.14,0,0,0-.627.158,1,1,0,0,0-.375.445V13H-7.717V6.66h1.588l.076.938a2,2,0,0,1,.577-.776,1.287,1.287,0,0,1,.817-.278,1.279,1.279,0,0,1,.237.021q.108.021.22.05Zm.51,1.641a3.4,3.4,0,0,1,.791-2.323A2.757,2.757,0,0,1-.891,6.543a2.787,2.787,0,0,1,2.2.9,3.384,3.384,0,0,1,.8,2.326v.123a3.389,3.389,0,0,1-.794,2.329,2.775,2.775,0,0,1-2.194.9,2.782,2.782,0,0,1-2.2-.9,3.389,3.389,0,0,1-.794-2.329Zm1.705.123a2.758,2.758,0,0,0,.3,1.392,1.052,1.052,0,0,0,.984.524,1.042,1.042,0,0,0,.97-.527A2.74,2.74,0,0,0,.4,9.895V9.771A2.712,2.712,0,0,0,.088,8.395a1.051,1.051,0,0,0-.979-.533,1.038,1.038,0,0,0-.97.536,2.736,2.736,0,0,0-.308,1.374ZM5.215,5.107V6.66H6.287v1.2H5.215V11.09a.737.737,0,0,0,.155.527.545.545,0,0,0,.407.158,1.633,1.633,0,0,0,.234-.015,1.974,1.974,0,0,0,.229-.05l.141,1.236a3.464,3.464,0,0,1-.5.132,2.987,2.987,0,0,1-.53.044,1.824,1.824,0,0,1-1.362-.486A2.132,2.132,0,0,1,3.51,11.1V7.861H2.584V6.66H3.51V5.107ZM7.078,9.771a3.4,3.4,0,0,1,.791-2.323,2.757,2.757,0,0,1,2.191-.905,2.787,2.787,0,0,1,2.2.9,3.384,3.384,0,0,1,.8,2.326v.123a3.389,3.389,0,0,1-.794,2.329,2.775,2.775,0,0,1-2.194.9,2.782,2.782,0,0,1-2.2-.9,3.389,3.389,0,0,1-.794-2.329Zm1.705.123a2.758,2.758,0,0,0,.3,1.392,1.052,1.052,0,0,0,.984.524,1.042,1.042,0,0,0,.97-.527,2.74,2.74,0,0,0,.308-1.389V9.771a2.712,2.712,0,0,0-.311-1.377,1.051,1.051,0,0,0-.979-.533,1.038,1.038,0,0,0-.97.536,2.736,2.736,0,0,0-.308,1.374Zm7.383-4.787V6.66h1.072v1.2H16.166V11.09a.737.737,0,0,0,.155.527.545.545,0,0,0,.407.158,1.633,1.633,0,0,0,.234-.015,1.974,1.974,0,0,0,.229-.05l.141,1.236a3.464,3.464,0,0,1-.5.132,2.987,2.987,0,0,1-.53.044,1.824,1.824,0,0,1-1.362-.486,2.132,2.132,0,0,1-.478-1.541V7.861h-.926V6.66h.926V5.107ZM20.092,13H18.381V6.66h1.711Zm0-7.857H18.381V3.859h1.711Zm7.125,4.863a3.641,3.641,0,0,1-.65,2.262,2.152,2.152,0,0,1-1.816.855,2.03,2.03,0,0,1-.885-.185A1.817,1.817,0,0,1,23.2,12.4v3.041H21.5V6.66h1.541l.1.75a2.031,2.031,0,0,1,.677-.642,1.831,1.831,0,0,1,.923-.226,2.11,2.11,0,0,1,1.828.92,4.106,4.106,0,0,1,.65,2.42Zm-1.711-.123a3.067,3.067,0,0,0-.3-1.453.975.975,0,0,0-.914-.557,1.292,1.292,0,0,0-.659.158,1.129,1.129,0,0,0-.431.451V11.26a1.049,1.049,0,0,0,.431.41,1.451,1.451,0,0,0,.671.141.984.984,0,0,0,.911-.486,2.567,2.567,0,0,0,.29-1.318Zm2.5-.111A3.4,3.4,0,0,1,28.8,7.448a2.757,2.757,0,0,1,2.191-.905,2.787,2.787,0,0,1,2.2.9,3.384,3.384,0,0,1,.8,2.326v.123a3.389,3.389,0,0,1-.794,2.329,3.134,3.134,0,0,1-4.395,0,3.389,3.389,0,0,1-.794-2.329Zm1.705.123a2.758,2.758,0,0,0,.3,1.392,1.171,1.171,0,0,0,1.954,0,2.74,2.74,0,0,0,.308-1.389V9.771a2.712,2.712,0,0,0-.311-1.377,1.051,1.051,0,0,0-.979-.533,1.038,1.038,0,0,0-.97.536,2.736,2.736,0,0,0-.308,1.374Z" transform="translate(-1317 -4460)" fill="#00104e"/>
    <path id="Trazado_884074" data-name="Trazado 884074" d="M-17.792,0V-8.531h2.977a3.52,3.52,0,0,1,2.578,1,3.444,3.444,0,0,1,1.014,2.563v1.412A3.432,3.432,0,0,1-12.237-.993,3.531,3.531,0,0,1-14.815,0Zm1.711-7.213v5.9h1.266a1.67,1.67,0,0,0,1.359-.63,2.465,2.465,0,0,0,.516-1.614V-4.98a2.444,2.444,0,0,0-.516-1.605,1.674,1.674,0,0,0-1.359-.627ZM-8.183,0H-9.894V-6.34h1.711Zm0-7.857H-9.894V-9.141h1.711Zm4.834,6.1a.59.59,0,0,0-.272-.483A2.767,2.767,0,0,0-4.632-2.6a4.031,4.031,0,0,1-1.69-.674A1.472,1.472,0,0,1-6.9-4.494a1.747,1.747,0,0,1,.691-1.389,2.788,2.788,0,0,1,1.84-.574,3.008,3.008,0,0,1,1.925.574,1.678,1.678,0,0,1,.694,1.43l-.012.035H-3.413a.83.83,0,0,0-.246-.621.974.974,0,0,0-.709-.24.969.969,0,0,0-.65.205.638.638,0,0,0-.24.5.569.569,0,0,0,.249.478A2.772,2.772,0,0,0-4-3.762a4.113,4.113,0,0,1,1.737.688A1.51,1.51,0,0,1-1.69-1.822a1.673,1.673,0,0,1-.732,1.4A3.161,3.161,0,0,1-4.356.123a2.939,2.939,0,0,1-2-.642,1.794,1.794,0,0,1-.7-1.462l.012-.035h1.564a.889.889,0,0,0,.334.738,1.379,1.379,0,0,0,.826.229,1.175,1.175,0,0,0,.724-.19A.618.618,0,0,0-3.349-1.758ZM2.159.123A2.853,2.853,0,0,1-.056-.747a3.189,3.189,0,0,1-.8-2.241v-.234A3.471,3.471,0,0,1-.079-5.555a2.629,2.629,0,0,1,2.127-.9,2.462,2.462,0,0,1,1.96.782A3.091,3.091,0,0,1,4.69-3.568v.885H.911l-.018.035a1.713,1.713,0,0,0,.4,1.055,1.324,1.324,0,0,0,1.052.4,3.519,3.519,0,0,0,.976-.117,3.981,3.981,0,0,0,.829-.357L4.608-.609a3.176,3.176,0,0,1-1.031.521A4.573,4.573,0,0,1,2.159.123ZM2.048-5.139a.95.95,0,0,0-.794.354,1.778,1.778,0,0,0-.337.94l.012.029H3.015v-.129a1.481,1.481,0,0,0-.229-.876A.845.845,0,0,0,2.048-5.139Zm5.2-1.2.076.908a2.319,2.319,0,0,1,.779-.756,2.023,2.023,0,0,1,1.037-.27,1.885,1.885,0,0,1,1.5.618,2.931,2.931,0,0,1,.539,1.954V0H9.466V-3.879a1.518,1.518,0,0,0-.237-.964.875.875,0,0,0-.712-.284,1.494,1.494,0,0,0-.671.144,1.31,1.31,0,0,0-.478.4V0H5.657V-6.34ZM10.6-8.988a1.4,1.4,0,0,1-.349.958,1.125,1.125,0,0,1-.882.4,2.147,2.147,0,0,1-.929-.255,2.03,2.03,0,0,0-.823-.255.422.422,0,0,0-.352.19.743.743,0,0,0-.141.454l-.914-.246A1.427,1.427,0,0,1,6.563-8.7a1.1,1.1,0,0,1,.876-.407,2.34,2.34,0,0,1,.891.255A2.326,2.326,0,0,0,9.2-8.6a.445.445,0,0,0,.352-.187A.71.71,0,0,0,9.7-9.252ZM12.2-3.229a3.4,3.4,0,0,1,.791-2.323,2.757,2.757,0,0,1,2.191-.905,2.787,2.787,0,0,1,2.2.9,3.384,3.384,0,0,1,.8,2.326v.123a3.389,3.389,0,0,1-.794,2.329,2.775,2.775,0,0,1-2.194.9,2.782,2.782,0,0,1-2.2-.9A3.389,3.389,0,0,1,12.2-3.105Zm1.705.123a2.758,2.758,0,0,0,.3,1.392,1.052,1.052,0,0,0,.984.524,1.042,1.042,0,0,0,.97-.527,2.74,2.74,0,0,0,.308-1.389v-.123a2.712,2.712,0,0,0-.311-1.377,1.051,1.051,0,0,0-.979-.533,1.038,1.038,0,0,0-.97.536A2.736,2.736,0,0,0,13.9-3.229ZM-13.107,8.131l-.627-.018a1.14,1.14,0,0,0-.627.158,1,1,0,0,0-.375.445V13h-1.705V6.66h1.588l.076.938a2,2,0,0,1,.577-.776,1.287,1.287,0,0,1,.817-.278,1.279,1.279,0,0,1,.237.021q.108.021.22.05ZM-8.479,13a3.6,3.6,0,0,1-.161-.457,3.179,3.179,0,0,1-.1-.492,2.345,2.345,0,0,1-.7.768,1.748,1.748,0,0,1-1.031.3A2.141,2.141,0,0,1-12,12.61a1.837,1.837,0,0,1-.539-1.4,1.672,1.672,0,0,1,.718-1.444,3.585,3.585,0,0,1,2.095-.513h.961v-.5a.986.986,0,0,0-.24-.709.943.943,0,0,0-.715-.252.929.929,0,0,0-.642.2.706.706,0,0,0-.226.554h-1.646l-.012-.035a1.608,1.608,0,0,1,.7-1.386,3.041,3.041,0,0,1,1.937-.583,2.838,2.838,0,0,1,1.849.574,2,2,0,0,1,.706,1.646v2.619a4.954,4.954,0,0,0,.067.838A4.2,4.2,0,0,0-6.773,13Zm-1.564-1.143a1.458,1.458,0,0,0,.8-.223,1.2,1.2,0,0,0,.48-.516v-.9h-.961a1.139,1.139,0,0,0-.823.27.886.886,0,0,0-.278.662.661.661,0,0,0,.208.513A.823.823,0,0,0-10.043,11.857Zm.709-7.9h1.9l.012.035L-9.041,5.512H-10.5Zm9.281,6.053A3.641,3.641,0,0,1-.7,12.268a2.152,2.152,0,0,1-1.816.855,2.03,2.03,0,0,1-.885-.185,1.817,1.817,0,0,1-.662-.542v3.041H-5.771V6.66H-4.23l.1.75a2.031,2.031,0,0,1,.677-.642,1.831,1.831,0,0,1,.923-.226A2.11,2.11,0,0,1-.7,7.463a4.106,4.106,0,0,1,.65,2.42Zm-1.711-.123a3.067,3.067,0,0,0-.3-1.453.975.975,0,0,0-.914-.557,1.292,1.292,0,0,0-.659.158,1.129,1.129,0,0,0-.431.451V11.26a1.049,1.049,0,0,0,.431.41,1.451,1.451,0,0,0,.671.141.984.984,0,0,0,.911-.486,2.567,2.567,0,0,0,.29-1.318ZM2.8,13H1.09V6.66H2.8Zm0-7.857H1.09V3.859H2.8Zm1.143,4.74a4.12,4.12,0,0,1,.647-2.42,2.1,2.1,0,0,1,1.825-.92,1.775,1.775,0,0,1,.855.205,2.058,2.058,0,0,1,.668.586V3.859H9.656V13H8.2l-.146-.779a2.119,2.119,0,0,1-.709.671,1.874,1.874,0,0,1-.937.231,2.144,2.144,0,0,1-1.813-.855,3.653,3.653,0,0,1-.647-2.262Zm1.705.123a2.582,2.582,0,0,0,.281,1.31.979.979,0,0,0,.914.478,1.331,1.331,0,0,0,.645-.149,1.192,1.192,0,0,0,.451-.437v-2.7a1.317,1.317,0,0,0-.448-.466,1.192,1.192,0,0,0-.636-.167.966.966,0,0,0-.917.557,3.146,3.146,0,0,0-.29,1.453Zm5.068-.234a3.4,3.4,0,0,1,.791-2.323A2.757,2.757,0,0,1,13.7,6.543a2.787,2.787,0,0,1,2.2.9,3.384,3.384,0,0,1,.8,2.326v.123a3.389,3.389,0,0,1-.794,2.329,2.775,2.775,0,0,1-2.194.9,2.782,2.782,0,0,1-2.2-.9,3.389,3.389,0,0,1-.794-2.329Zm1.705.123a2.758,2.758,0,0,0,.3,1.392,1.171,1.171,0,0,0,1.954,0,2.74,2.74,0,0,0,.308-1.389V9.771a2.712,2.712,0,0,0-.311-1.377,1.051,1.051,0,0,0-.979-.533,1.038,1.038,0,0,0-.97.536,2.736,2.736,0,0,0-.308,1.374Z" transform="translate(-1317 -4553)" fill="#00104e"/>
  </g>
</svg>
