<svg xmlns="http://www.w3.org/2000/svg" xmlns:xlink="http://www.w3.org/1999/xlink" width="610" height="324.756" viewBox="0 0 610 324.756">
  <defs>
    <filter id="Trazado_884194" x="166.5" y="93.309" width="105.458" height="30.229" filterUnits="userSpaceOnUse">
      <feOffset dy="2" input="SourceAlpha"/>
      <feGaussianBlur stdDeviation="0.5" result="blur"/>
      <feFlood flood-opacity="0.251"/>
      <feComposite operator="in" in2="blur"/>
      <feComposite in="SourceGraphic"/>
    </filter>
    <filter id="Trazado_884195" x="355.5" y="179.309" width="105.458" height="30.229" filterUnits="userSpaceOnUse">
      <feOffset dy="2" input="SourceAlpha"/>
      <feGaussianBlur stdDeviation="0.5" result="blur-2"/>
      <feFlood flood-opacity="0.251"/>
      <feComposite operator="in" in2="blur-2"/>
      <feComposite in="SourceGraphic"/>
    </filter>
    <filter id="Trazado_884196" x="166.5" y="179.309" width="105.458" height="30.229" filterUnits="userSpaceOnUse">
      <feOffset dy="2" input="SourceAlpha"/>
      <feGaussianBlur stdDeviation="0.5" result="blur-3"/>
      <feFlood flood-opacity="0.251"/>
      <feComposite operator="in" in2="blur-3"/>
      <feComposite in="SourceGraphic"/>
    </filter>
    <filter id="Trazado_884200" x="355.5" y="93.309" width="105.458" height="30.229" filterUnits="userSpaceOnUse">
      <feOffset dy="2" input="SourceAlpha"/>
      <feGaussianBlur stdDeviation="0.5" result="blur-4"/>
      <feFlood flood-opacity="0.251"/>
      <feComposite operator="in" in2="blur-4"/>
      <feComposite in="SourceGraphic"/>
    </filter>
  </defs>
  <g id="Grupo_1102293" data-name="Grupo 1102293" transform="translate(-705 -8337)">
    <path id="Trazado_884190" data-name="Trazado 884190" d="M10,0H600a10,10,0,0,1,10,10V324.756H0V10A10,10,0,0,1,10,0Z" transform="translate(705 8337)" fill="#fff"/>
    <path id="Trazado_4523" data-name="Trazado 4523" d="M357.4,690.75c-51.776,0-93.9-40.653-93.9-90.625S305.624,509.5,357.4,509.5s93.9,40.653,93.9,90.625c0,29.4-14.872,57.088-39.783,74.069a4.367,4.367,0,1,1-4.92-7.216c22.522-15.354,35.968-40.346,35.968-66.853,0-45.154-38.205-81.89-85.166-81.89s-85.166,36.736-85.166,81.89,38.205,81.89,85.166,81.89a88.029,88.029,0,0,0,28.207-4.6,4.367,4.367,0,1,1,2.793,8.276A96.741,96.741,0,0,1,357.4,690.75Z" transform="translate(664.813 7894.617)" fill="#3ee2a8"/>
    <path id="Trazado_4524" data-name="Trazado 4524" d="M263.99,538.207a1.638,1.638,0,0,1-1.638-1.638V503.364H212.265a1.638,1.638,0,1,1,0-3.276H263.99a1.638,1.638,0,0,1,1.638,1.638V536.57A1.638,1.638,0,0,1,263.99,538.207Z" transform="translate(659.956 7893.753)" fill="#1565c0"/>
    <path id="Trazado_4525" data-name="Trazado 4525" d="M217.7,495.453l1.117,1.2-5.915,5.5,5.915,5.5-1.117,1.2-7.2-6.7Z" transform="translate(659.944 7893.327)" fill="#1565c0"/>
    <path id="Trazado_4526" data-name="Trazado 4526" d="M432.638,539.593A1.638,1.638,0,0,1,431,537.955V486.638A1.638,1.638,0,0,1,432.638,485h56.767a1.638,1.638,0,1,1,0,3.276H434.276v49.68A1.638,1.638,0,0,1,432.638,539.593Z" transform="translate(680.2 7892.366)" fill="#1565c0"/>
    <path id="Trazado_4527" data-name="Trazado 4527" d="M479.615,480.365l-1.117,1.2,5.915,5.5-5.915,5.5,1.117,1.2,7.2-6.7Z" transform="translate(684.564 7891.94)" fill="#1565c0"/>
    <path id="Trazado_4528" data-name="Trazado 4528" d="M489.405,517.129H432.638a1.638,1.638,0,0,1,0-3.276h56.767a1.638,1.638,0,1,1,0,3.276Z" transform="translate(680.2 7895.017)" fill="#1565c0"/>
    <path id="Trazado_4529" data-name="Trazado 4529" d="M479.615,509.218l-1.117,1.2,5.915,5.5-5.915,5.5,1.117,1.2,7.2-6.7Z" transform="translate(684.564 7894.591)" fill="#1565c0"/>
    <path id="Trazado_4530" data-name="Trazado 4530" d="M169.55,624.809a1.638,1.638,0,0,1-1.638-1.638V585.609a1.638,1.638,0,0,1,1.638-1.638h68.081a1.638,1.638,0,0,1,1.638,1.638v29.512a1.638,1.638,0,1,1-3.276,0V587.247H171.188v35.924A1.638,1.638,0,0,1,169.55,624.809Z" transform="translate(656.032 7901.458)" fill="#1565c0"/>
    <path id="Trazado_4531" data-name="Trazado 4531" d="M163.277,615l1.2-1.117,5.5,5.915,5.5-5.915,1.2,1.117-6.7,7.2Z" transform="translate(655.606 7904.206)" fill="#1565c0"/>
    <path id="Trazado_4532" data-name="Trazado 4532" d="M379.393,627.378H362.962a1.638,1.638,0,0,1-1.638-1.638v-13.1A1.638,1.638,0,0,1,362.962,611h37.862a1.638,1.638,0,0,1,0,3.276H364.6V624.1h14.794a1.638,1.638,0,0,1,0,3.276Z" transform="translate(673.8 7906.021)" fill="#1565c0"/>
    <path id="Trazado_4533" data-name="Trazado 4533" d="M373,631.762l-1.117-1.2,5.915-5.5-5.915-5.5,1.117-1.2,7.2,6.7Z" transform="translate(674.77 7906.699)" fill="#1565c0"/>
    <path id="Trazado_4534" data-name="Trazado 4534" d="M523.858,627.312H479.638a1.638,1.638,0,1,1,0-3.276h42.583V613.353a1.638,1.638,0,0,1,3.276,0v12.322A1.638,1.638,0,0,1,523.858,627.312Z" transform="translate(684.518 7904.008)" fill="#1565c0"/>
    <path id="Trazado_4535" data-name="Trazado 4535" d="M527.262,618.791l-1.2,1.117-5.5-5.915-5.5,5.915-1.2-1.117,6.7-7.2Z" transform="translate(687.813 7903.996)" fill="#1565c0"/>
    <path id="Trazado_4536" data-name="Trazado 4536" d="M439.54,711.783H415.882a1.638,1.638,0,0,1,0-3.276H437.9v-71.87a1.638,1.638,0,1,1,3.276,0v73.508A1.638,1.638,0,0,1,439.54,711.783Z" transform="translate(678.661 7906.146)" fill="#1565c0"/>
    <path id="Trazado_4537" data-name="Trazado 4537" d="M421.321,697.689l1.117,1.2-5.915,5.5,5.915,5.5-1.117,1.2-7.2-6.7Z" transform="translate(678.649 7911.905)" fill="#1565c0"/>
    <path id="Trazado_4538" data-name="Trazado 4538" d="M289.428,707.276H235.177a1.638,1.638,0,1,1,0-3.276h54.252a1.638,1.638,0,1,1,0,3.276Z" transform="translate(662.06 7912.485)" fill="#1565c0"/>
    <path id="Trazado_4539" data-name="Trazado 4539" d="M240.615,712.762l1.117-1.2-5.915-5.5,5.915-5.5-1.117-1.2-7.2,6.7Z" transform="translate(662.049 7912.06)" fill="#1565c0"/>
    <path id="Trazado_4540" data-name="Trazado 4540" d="M279.85,712.762l-1.117-1.2,5.915-5.5-5.915-5.5,1.117-1.2,7.2,6.7Z" transform="translate(666.212 7912.06)" fill="#1565c0"/>
    <path id="Trazado_4541" data-name="Trazado 4541" d="M260.02,713.614a1.638,1.638,0,0,1-1.638-1.638V636.638a1.638,1.638,0,1,1,3.276,0v75.339A1.638,1.638,0,0,1,260.02,713.614Z" transform="translate(664.343 7906.146)" fill="#1565c0"/>
    <path id="Trazado_4542" data-name="Trazado 4542" d="M394.919,648l8.735,19.654L384,664.378Z" transform="translate(675.883 7907.34)" fill="#3ee2a8"/>
    <path id="Trazado_819909" data-name="Trazado 819909" d="M11.26,0H113.539A11.26,11.26,0,0,1,124.8,11.26v3.753a11.26,11.26,0,0,1-11.26,11.26H11.26A11.26,11.26,0,0,1,0,15.013V11.26A11.26,11.26,0,0,1,11.26,0Z" transform="translate(737 8379.309)" fill="#dcecfe"/>
    <path id="Trazado_884191" data-name="Trazado 884191" d="M12,0H112.731a12,12,0,0,1,12,12v1.837a12,12,0,0,1-12,12H12a12,12,0,0,1-12-12V12A12,12,0,0,1,12,0Z" transform="translate(1179 8366)" fill="#dcecfe"/>
    <path id="Trazado_884192" data-name="Trazado 884192" d="M12,0H112.731a12,12,0,0,1,12,12v2.728a12,12,0,0,1-12,12H12a12,12,0,0,1-12-12V12A12,12,0,0,1,12,0Z" transform="translate(1179 8397.183)" fill="#dcecfe"/>
    <path id="Trazado_884193" data-name="Trazado 884193" d="M12,0H132.332a12,12,0,0,1,12,12v2.728a12,12,0,0,1-12,12H12a12,12,0,0,1-12-12V12A12,12,0,0,1,12,0Z" transform="translate(1144 8483.308)" fill="#dcecfe"/>
    <g transform="matrix(1, 0, 0, 1, 705, 8337)" filter="url(#Trazado_884194)">
      <path id="Trazado_884194-2" data-name="Trazado 884194" d="M12,0H90.458a12,12,0,0,1,12,12v2.728a12,12,0,0,1-12,12H12a12,12,0,0,1-12-12V12A12,12,0,0,1,12,0Z" transform="translate(168 93.31)" fill="#3ee2a8"/>
    </g>
    <g transform="matrix(1, 0, 0, 1, 705, 8337)" filter="url(#Trazado_884195)">
      <path id="Trazado_884195-2" data-name="Trazado 884195" d="M12,0H90.458a12,12,0,0,1,12,12v2.728a12,12,0,0,1-12,12H12a12,12,0,0,1-12-12V12A12,12,0,0,1,12,0Z" transform="translate(357 179.31)" fill="#3ee2a8"/>
    </g>
    <g transform="matrix(1, 0, 0, 1, 705, 8337)" filter="url(#Trazado_884196)">
      <path id="Trazado_884196-2" data-name="Trazado 884196" d="M12,0H90.458a12,12,0,0,1,12,12v2.728a12,12,0,0,1-12,12H12a12,12,0,0,1-12-12V12A12,12,0,0,1,12,0Z" transform="translate(168 179.31)" fill="#3ee2a8"/>
    </g>
    <path id="Trazado_884197" data-name="Trazado 884197" d="M12,0H90.458a12,12,0,0,1,12,12v2.728a12,12,0,0,1-12,12H12a12,12,0,0,1-12-12V12A12,12,0,0,1,12,0Z" transform="translate(767.587 8537.06)" fill="#3ee2a8"/>
    <path id="Trazado_884198" data-name="Trazado 884198" d="M12,0H126.1a12,12,0,0,1,12,12v2.728a12,12,0,0,1-12,12H12a12,12,0,0,1-12-12V12A12,12,0,0,1,12,0Z" transform="translate(752 8604.308)" fill="#dcecfe"/>
    <path id="Trazado_884199" data-name="Trazado 884199" d="M12,0H116.295a12,12,0,0,1,12,12v7.183a12,12,0,0,1-12,12H12a12,12,0,0,1-12-12V12A12,12,0,0,1,12,0Z" transform="translate(958 8600.309)" fill="#add3fd"/>
    <g transform="matrix(1, 0, 0, 1, 705, 8337)" filter="url(#Trazado_884200)">
      <path id="Trazado_884200-2" data-name="Trazado 884200" d="M12,0H90.458a12,12,0,0,1,12,12v2.728a12,12,0,0,1-12,12H12a12,12,0,0,1-12-12V12A12,12,0,0,1,12,0Z" transform="translate(357 93.31)" fill="#3ee2a8"/>
    </g>
    <path id="Trazado_884201" data-name="Trazado 884201" d="M7.042,0H5.473V-3.25H2.288V0H.72V-7.82H2.288v3.362H5.473V-7.82H7.042Zm2.97,0H8.443V-5.812h1.568Zm0-7.2H8.443V-8.379h1.568Zm4.431,5.591a.541.541,0,0,0-.25-.443,2.537,2.537,0,0,0-.927-.325A3.7,3.7,0,0,1,11.717-3a1.349,1.349,0,0,1-.529-1.123,1.6,1.6,0,0,1,.634-1.273,2.555,2.555,0,0,1,1.687-.526,2.758,2.758,0,0,1,1.764.526,1.538,1.538,0,0,1,.636,1.311L15.9-4.05H14.384a.761.761,0,0,0-.226-.569.893.893,0,0,0-.65-.22.888.888,0,0,0-.6.188.585.585,0,0,0-.22.462.522.522,0,0,0,.228.438,2.541,2.541,0,0,0,.927.3,3.77,3.77,0,0,1,1.593.631,1.384,1.384,0,0,1,.524,1.147,1.534,1.534,0,0,1-.671,1.284,2.9,2.9,0,0,1-1.772.5,2.694,2.694,0,0,1-1.834-.588,1.644,1.644,0,0,1-.642-1.34l.011-.032h1.434a.815.815,0,0,0,.306.677,1.264,1.264,0,0,0,.757.209,1.077,1.077,0,0,0,.663-.175A.566.566,0,0,0,14.443-1.611Zm4.41-5.624v1.423h.983v1.1h-.983v2.959a.675.675,0,0,0,.142.483.5.5,0,0,0,.373.145,1.5,1.5,0,0,0,.215-.013,1.809,1.809,0,0,0,.209-.046l.129,1.133a3.175,3.175,0,0,1-.459.121,2.738,2.738,0,0,1-.486.04,1.672,1.672,0,0,1-1.249-.446,1.955,1.955,0,0,1-.438-1.413V-4.71h-.849v-1.1h.849V-7.235Zm1.708,4.275a3.119,3.119,0,0,1,.725-2.13,2.527,2.527,0,0,1,2.009-.83,2.554,2.554,0,0,1,2.02.827,3.1,3.1,0,0,1,.73,2.132v.113a3.107,3.107,0,0,1-.728,2.135,2.544,2.544,0,0,1-2.011.824,2.55,2.55,0,0,1-2.017-.824,3.107,3.107,0,0,1-.728-2.135Zm1.563.113A2.528,2.528,0,0,0,22.4-1.571a.964.964,0,0,0,.9.481.955.955,0,0,0,.889-.483,2.511,2.511,0,0,0,.282-1.273v-.113a2.486,2.486,0,0,0-.285-1.262.963.963,0,0,0-.9-.489.951.951,0,0,0-.889.491,2.508,2.508,0,0,0-.282,1.26Zm7.944-1.617-.575-.016a1.045,1.045,0,0,0-.575.145.919.919,0,0,0-.344.408V0H27.011V-5.812h1.456l.07.859a1.833,1.833,0,0,1,.529-.712,1.179,1.179,0,0,1,.749-.255,1.172,1.172,0,0,1,.218.019q.1.019.2.046ZM32.533,0H30.964V-5.812h1.568Zm0-7.2H30.964V-8.379h1.568ZM37.249,0A3.3,3.3,0,0,1,37.1-.419a2.914,2.914,0,0,1-.089-.451,2.15,2.15,0,0,1-.639.7,1.6,1.6,0,0,1-.945.279,1.962,1.962,0,0,1-1.407-.47,1.684,1.684,0,0,1-.494-1.281,1.532,1.532,0,0,1,.658-1.324,3.286,3.286,0,0,1,1.92-.47h.881v-.462a.9.9,0,0,0-.22-.65.864.864,0,0,0-.655-.231.852.852,0,0,0-.588.185.647.647,0,0,0-.207.508H33.806l-.011-.032a1.474,1.474,0,0,1,.642-1.27,2.788,2.788,0,0,1,1.775-.534,2.6,2.6,0,0,1,1.695.526,1.833,1.833,0,0,1,.647,1.509v2.4a4.541,4.541,0,0,0,.062.768,3.854,3.854,0,0,0,.2.714ZM35.814-1.047a1.336,1.336,0,0,0,.73-.2,1.1,1.1,0,0,0,.44-.473v-.822H36.1a1.044,1.044,0,0,0-.755.247.812.812,0,0,0-.255.607.606.606,0,0,0,.191.47A.754.754,0,0,0,35.814-1.047Zm6.413-1.81a3.776,3.776,0,0,1,.594-2.218,1.927,1.927,0,0,1,1.673-.843,1.627,1.627,0,0,1,.784.188,1.887,1.887,0,0,1,.612.537V-8.379h1.574V0H46.127l-.134-.714a1.943,1.943,0,0,1-.65.615,1.718,1.718,0,0,1-.859.212,1.965,1.965,0,0,1-1.662-.784,3.349,3.349,0,0,1-.594-2.073Zm1.563.113a2.367,2.367,0,0,0,.258,1.2.9.9,0,0,0,.838.438,1.22,1.22,0,0,0,.591-.137,1.093,1.093,0,0,0,.414-.4V-4.12a1.207,1.207,0,0,0-.411-.427A1.093,1.093,0,0,0,44.9-4.7a.885.885,0,0,0-.841.51,2.883,2.883,0,0,0-.266,1.332ZM51.2.113a2.615,2.615,0,0,1-2.03-.8,2.923,2.923,0,0,1-.73-2.054v-.215a3.182,3.182,0,0,1,.709-2.138,2.41,2.41,0,0,1,1.95-.827,2.256,2.256,0,0,1,1.8.717,2.834,2.834,0,0,1,.626,1.931v.811H50.053l-.016.032a1.57,1.57,0,0,0,.363.967,1.214,1.214,0,0,0,.964.371,3.226,3.226,0,0,0,.894-.107,3.649,3.649,0,0,0,.76-.328l.424.967a2.911,2.911,0,0,1-.945.478A4.192,4.192,0,0,1,51.2.113ZM51.1-4.71a.871.871,0,0,0-.728.325,1.63,1.63,0,0,0-.309.862l.011.027h1.912v-.118a1.357,1.357,0,0,0-.209-.8A.775.775,0,0,0,51.1-4.71ZM56.08,0H54.511V-8.379H56.08Zm7.589-.859a1.973,1.973,0,0,1-.682.72,1.808,1.808,0,0,1-.961.252A1.767,1.767,0,0,1,60.589-.51a2.989,2.989,0,0,1-.518-1.934V-5.812h1.563v3.378a1.876,1.876,0,0,0,.207,1.045.743.743,0,0,0,.642.282,1.563,1.563,0,0,0,.645-.121,1.086,1.086,0,0,0,.44-.357V-5.812h1.568V0h-1.3Zm5.79-.752a.541.541,0,0,0-.25-.443,2.537,2.537,0,0,0-.927-.325A3.7,3.7,0,0,1,66.733-3,1.349,1.349,0,0,1,66.2-4.12a1.6,1.6,0,0,1,.634-1.273,2.555,2.555,0,0,1,1.687-.526,2.758,2.758,0,0,1,1.764.526,1.538,1.538,0,0,1,.636,1.311l-.011.032H69.4a.761.761,0,0,0-.226-.569.893.893,0,0,0-.65-.22.888.888,0,0,0-.6.188.585.585,0,0,0-.22.462.522.522,0,0,0,.228.438,2.541,2.541,0,0,0,.927.3,3.77,3.77,0,0,1,1.593.631,1.384,1.384,0,0,1,.524,1.147,1.534,1.534,0,0,1-.671,1.284,2.9,2.9,0,0,1-1.772.5A2.694,2.694,0,0,1,66.7-.475a1.644,1.644,0,0,1-.642-1.34l.011-.032H67.5a.815.815,0,0,0,.306.677,1.264,1.264,0,0,0,.757.209,1.077,1.077,0,0,0,.663-.175A.566.566,0,0,0,69.459-1.611Zm6.091.752a1.973,1.973,0,0,1-.682.72,1.808,1.808,0,0,1-.961.252A1.767,1.767,0,0,1,72.469-.51a2.989,2.989,0,0,1-.518-1.934V-5.812h1.563v3.378a1.876,1.876,0,0,0,.207,1.045.743.743,0,0,0,.642.282,1.563,1.563,0,0,0,.645-.121,1.086,1.086,0,0,0,.44-.357V-5.812h1.568V0h-1.3ZM81.625,0a3.3,3.3,0,0,1-.148-.419,2.915,2.915,0,0,1-.089-.451,2.15,2.15,0,0,1-.639.7A1.6,1.6,0,0,1,79.8.113,1.962,1.962,0,0,1,78.4-.357,1.684,1.684,0,0,1,77.9-1.638a1.532,1.532,0,0,1,.658-1.324,3.286,3.286,0,0,1,1.92-.47h.881v-.462a.9.9,0,0,0-.22-.65.864.864,0,0,0-.655-.231.852.852,0,0,0-.588.185.647.647,0,0,0-.207.508H78.182l-.011-.032a1.474,1.474,0,0,1,.642-1.27,2.788,2.788,0,0,1,1.775-.534,2.6,2.6,0,0,1,1.695.526,1.833,1.833,0,0,1,.647,1.509v2.4a4.541,4.541,0,0,0,.062.768,3.854,3.854,0,0,0,.2.714ZM80.19-1.047a1.336,1.336,0,0,0,.73-.2,1.1,1.1,0,0,0,.44-.473v-.822H80.48a1.044,1.044,0,0,0-.755.247.812.812,0,0,0-.255.607.606.606,0,0,0,.191.47A.754.754,0,0,0,80.19-1.047Zm6.972-3.416-.575-.016a1.045,1.045,0,0,0-.575.145.919.919,0,0,0-.344.408V0H84.106V-5.812h1.456l.07.859a1.833,1.833,0,0,1,.529-.712,1.179,1.179,0,0,1,.749-.255,1.172,1.172,0,0,1,.218.019q.1.019.2.046ZM89.627,0H88.059V-5.812h1.568Zm0-7.2H88.059V-8.379h1.568Zm1.047,4.243a3.119,3.119,0,0,1,.725-2.13,2.527,2.527,0,0,1,2.009-.83,2.554,2.554,0,0,1,2.02.827,3.1,3.1,0,0,1,.73,2.132v.113a3.107,3.107,0,0,1-.728,2.135,2.544,2.544,0,0,1-2.011.824A2.55,2.55,0,0,1,91.4-.712a3.107,3.107,0,0,1-.728-2.135Zm1.563.113a2.528,2.528,0,0,0,.279,1.276.964.964,0,0,0,.9.481.955.955,0,0,0,.889-.483,2.511,2.511,0,0,0,.282-1.273v-.113a2.486,2.486,0,0,0-.285-1.262.963.963,0,0,0-.9-.489.951.951,0,0,0-.889.491,2.508,2.508,0,0,0-.282,1.26Z" transform="translate(751 8396.309)" fill="#00104e"/>
    <path id="Trazado_884202" data-name="Trazado 884202" d="M-34.192,0V-7.82h2.729A3.227,3.227,0,0,1-29.1-6.9a3.157,3.157,0,0,1,.929,2.35V-3.26A3.146,3.146,0,0,1-29.1-.91,3.237,3.237,0,0,1-31.464,0Zm1.568-6.612V-1.2h1.16a1.531,1.531,0,0,0,1.246-.577,2.26,2.26,0,0,0,.473-1.48V-4.565a2.241,2.241,0,0,0-.473-1.472,1.534,1.534,0,0,0-1.246-.575ZM-25.384,0h-1.568V-5.812h1.568Zm0-7.2h-1.568V-8.379h1.568Zm4.431,5.591a.541.541,0,0,0-.25-.443,2.537,2.537,0,0,0-.927-.325A3.7,3.7,0,0,1-23.678-3a1.349,1.349,0,0,1-.529-1.123,1.6,1.6,0,0,1,.634-1.273,2.555,2.555,0,0,1,1.687-.526,2.758,2.758,0,0,1,1.764.526,1.538,1.538,0,0,1,.636,1.311l-.011.032h-1.515a.761.761,0,0,0-.226-.569.893.893,0,0,0-.65-.22.888.888,0,0,0-.6.188.585.585,0,0,0-.22.462.522.522,0,0,0,.228.438,2.541,2.541,0,0,0,.927.3,3.77,3.77,0,0,1,1.593.631,1.384,1.384,0,0,1,.524,1.147A1.534,1.534,0,0,1-20.1-.387a2.9,2.9,0,0,1-1.772.5,2.694,2.694,0,0,1-1.834-.588,1.644,1.644,0,0,1-.642-1.34l.011-.032h1.434a.815.815,0,0,0,.306.677,1.264,1.264,0,0,0,.757.209,1.077,1.077,0,0,0,.663-.175A.566.566,0,0,0-20.953-1.611ZM-15.9.113a2.615,2.615,0,0,1-2.03-.8,2.923,2.923,0,0,1-.73-2.054v-.215a3.182,3.182,0,0,1,.709-2.138,2.41,2.41,0,0,1,1.95-.827,2.256,2.256,0,0,1,1.8.717,2.834,2.834,0,0,1,.626,1.931v.811h-3.464l-.016.032a1.57,1.57,0,0,0,.363.967,1.214,1.214,0,0,0,.964.371,3.226,3.226,0,0,0,.894-.107,3.649,3.649,0,0,0,.76-.328l.424.967a2.911,2.911,0,0,1-.945.478A4.192,4.192,0,0,1-15.9.113Zm-.1-4.823a.871.871,0,0,0-.728.325,1.63,1.63,0,0,0-.309.862l.011.027h1.912v-.118a1.357,1.357,0,0,0-.209-.8A.775.775,0,0,0-16.006-4.71Zm4.77-1.1.07.833a2.126,2.126,0,0,1,.714-.693A1.854,1.854,0,0,1-9.5-5.919a1.728,1.728,0,0,1,1.375.567,2.686,2.686,0,0,1,.494,1.791V0H-9.206V-3.556a1.391,1.391,0,0,0-.218-.884.8.8,0,0,0-.653-.26,1.369,1.369,0,0,0-.615.132,1.2,1.2,0,0,0-.438.363V0H-12.7V-5.812Zm3.072-2.428a1.282,1.282,0,0,1-.32.878A1.031,1.031,0,0,1-9.292-7a1.968,1.968,0,0,1-.851-.234,1.861,1.861,0,0,0-.755-.234.387.387,0,0,0-.322.175.681.681,0,0,0-.129.416l-.838-.226a1.308,1.308,0,0,1,.32-.878,1.013,1.013,0,0,1,.8-.373,2.145,2.145,0,0,1,.816.234,2.132,2.132,0,0,0,.795.234.408.408,0,0,0,.322-.172.651.651,0,0,0,.14-.424ZM-6.7-2.959a3.119,3.119,0,0,1,.725-2.13,2.527,2.527,0,0,1,2.009-.83,2.554,2.554,0,0,1,2.02.827,3.1,3.1,0,0,1,.73,2.132v.113A3.107,3.107,0,0,1-1.947-.712,2.544,2.544,0,0,1-3.958.113,2.55,2.55,0,0,1-5.975-.712,3.107,3.107,0,0,1-6.7-2.847Zm1.563.113a2.528,2.528,0,0,0,.279,1.276.964.964,0,0,0,.9.481.955.955,0,0,0,.889-.483,2.511,2.511,0,0,0,.282-1.273v-.113a2.486,2.486,0,0,0-.285-1.262.963.963,0,0,0-.9-.489.951.951,0,0,0-.889.491,2.508,2.508,0,0,0-.282,1.26ZM5.629-1.611a.541.541,0,0,0-.25-.443,2.537,2.537,0,0,0-.927-.325A3.7,3.7,0,0,1,2.9-3,1.349,1.349,0,0,1,2.374-4.12a1.6,1.6,0,0,1,.634-1.273,2.555,2.555,0,0,1,1.687-.526,2.758,2.758,0,0,1,1.764.526A1.538,1.538,0,0,1,7.1-4.082l-.011.032H5.57a.761.761,0,0,0-.226-.569.893.893,0,0,0-.65-.22.888.888,0,0,0-.6.188.585.585,0,0,0-.22.462.522.522,0,0,0,.228.438,2.541,2.541,0,0,0,.927.3,3.77,3.77,0,0,1,1.593.631A1.384,1.384,0,0,1,7.149-1.67,1.534,1.534,0,0,1,6.478-.387a2.9,2.9,0,0,1-1.772.5A2.694,2.694,0,0,1,2.871-.475a1.644,1.644,0,0,1-.642-1.34l.011-.032H3.674a.815.815,0,0,0,.306.677,1.264,1.264,0,0,0,.757.209A1.077,1.077,0,0,0,5.4-1.136.566.566,0,0,0,5.629-1.611ZM9.808,0H8.239V-5.812H9.808Zm0-7.2H8.239V-8.379H9.808Zm2.745,1.391.064.768a1.952,1.952,0,0,1,.7-.647,2.016,2.016,0,0,1,.975-.228,1.775,1.775,0,0,1,.956.247,1.524,1.524,0,0,1,.6.747,2.014,2.014,0,0,1,.7-.73,1.9,1.9,0,0,1,1.01-.263,1.656,1.656,0,0,1,1.356.61,2.91,2.91,0,0,1,.5,1.861V0H17.843V-3.454a1.629,1.629,0,0,0-.215-.972.763.763,0,0,0-.639-.274,1.1,1.1,0,0,0-.577.148,1.076,1.076,0,0,0-.389.411q0,.1.005.175t.005.148V0H14.47V-3.454a1.634,1.634,0,0,0-.215-.964A.759.759,0,0,0,13.61-4.7a1.216,1.216,0,0,0-.556.121,1.066,1.066,0,0,0-.395.341V0H11.1V-5.812Zm13.3,3.067a3.338,3.338,0,0,1-.6,2.073A1.972,1.972,0,0,1,23.6.113a1.861,1.861,0,0,1-.811-.169,1.666,1.666,0,0,1-.607-.5V2.234H20.614V-5.812h1.413l.091.688a1.862,1.862,0,0,1,.62-.588,1.678,1.678,0,0,1,.846-.207,1.934,1.934,0,0,1,1.676.843,3.764,3.764,0,0,1,.6,2.218Zm-1.568-.113a2.812,2.812,0,0,0-.274-1.332.894.894,0,0,0-.838-.51,1.184,1.184,0,0,0-.6.145,1.035,1.035,0,0,0-.395.414V-1.6a.961.961,0,0,0,.395.376,1.33,1.33,0,0,0,.615.129.9.9,0,0,0,.835-.446,2.353,2.353,0,0,0,.266-1.208ZM28.472,0H26.9V-8.379h1.568ZM32.28.113a2.615,2.615,0,0,1-2.03-.8,2.923,2.923,0,0,1-.73-2.054v-.215a3.182,3.182,0,0,1,.709-2.138,2.41,2.41,0,0,1,1.95-.827,2.256,2.256,0,0,1,1.8.717A2.834,2.834,0,0,1,34.6-3.271v.811H31.136l-.016.032a1.57,1.57,0,0,0,.363.967,1.214,1.214,0,0,0,.964.371,3.226,3.226,0,0,0,.894-.107,3.649,3.649,0,0,0,.76-.328l.424.967a2.911,2.911,0,0,1-.945.478A4.192,4.192,0,0,1,32.28.113Zm-.1-4.823a.871.871,0,0,0-.728.325,1.63,1.63,0,0,0-.309.862l.011.027h1.912v-.118a1.357,1.357,0,0,0-.209-.8A.775.775,0,0,0,32.178-4.71Z" transform="translate(1242 8381.236)" fill="#00104e"/>
    <path id="Trazado_884203" data-name="Trazado 884203" d="M-23.652-2.836V0H-25.22V-7.82h2.992a3.08,3.08,0,0,1,2.122.688,2.305,2.305,0,0,1,.773,1.81,2.289,2.289,0,0,1-.773,1.8,3.1,3.1,0,0,1-2.122.682Zm0-1.208h1.423a1.3,1.3,0,0,0,.994-.357,1.27,1.27,0,0,0,.338-.91,1.33,1.33,0,0,0-.336-.932,1.282,1.282,0,0,0-1-.368h-1.423Zm8.379-.419-.575-.016a1.045,1.045,0,0,0-.575.145.919.919,0,0,0-.344.408V0h-1.563V-5.812h1.456l.07.859a1.833,1.833,0,0,1,.529-.712,1.179,1.179,0,0,1,.749-.255,1.172,1.172,0,0,1,.218.019q.1.019.2.046Zm.467,1.5a3.119,3.119,0,0,1,.725-2.13,2.527,2.527,0,0,1,2.009-.83,2.554,2.554,0,0,1,2.02.827,3.1,3.1,0,0,1,.73,2.132v.113a3.107,3.107,0,0,1-.728,2.135,2.544,2.544,0,0,1-2.011.824,2.55,2.55,0,0,1-2.017-.824,3.107,3.107,0,0,1-.728-2.135Zm1.563.113a2.528,2.528,0,0,0,.279,1.276.964.964,0,0,0,.9.481.955.955,0,0,0,.889-.483,2.511,2.511,0,0,0,.282-1.273v-.113a2.486,2.486,0,0,0-.285-1.262.963.963,0,0,0-.9-.489.951.951,0,0,0-.889.491,2.508,2.508,0,0,0-.282,1.26Zm6.768-4.388v1.423h.983v1.1h-.983v2.959a.675.675,0,0,0,.142.483.5.5,0,0,0,.373.145,1.5,1.5,0,0,0,.215-.013,1.809,1.809,0,0,0,.209-.046l.129,1.133a3.175,3.175,0,0,1-.459.121,2.738,2.738,0,0,1-.486.04A1.672,1.672,0,0,1-7.6-.333a1.955,1.955,0,0,1-.438-1.413V-4.71h-.849v-1.1h.849V-7.235Zm1.708,4.275a3.119,3.119,0,0,1,.725-2.13,2.527,2.527,0,0,1,2.009-.83,2.554,2.554,0,0,1,2.02.827,3.1,3.1,0,0,1,.73,2.132v.113A3.107,3.107,0,0,1-.011-.712,2.544,2.544,0,0,1-2.022.113,2.55,2.55,0,0,1-4.039-.712a3.107,3.107,0,0,1-.728-2.135Zm1.563.113a2.528,2.528,0,0,0,.279,1.276.964.964,0,0,0,.9.481.955.955,0,0,0,.889-.483A2.511,2.511,0,0,0-.851-2.847v-.113a2.486,2.486,0,0,0-.285-1.262.963.963,0,0,0-.9-.489.951.951,0,0,0-.889.491A2.508,2.508,0,0,0-3.2-2.959ZM3.564-7.235v1.423h.983v1.1H3.564v2.959a.675.675,0,0,0,.142.483.5.5,0,0,0,.373.145,1.5,1.5,0,0,0,.215-.013A1.809,1.809,0,0,0,4.5-1.182L4.633-.048a3.175,3.175,0,0,1-.459.121,2.738,2.738,0,0,1-.486.04A1.672,1.672,0,0,1,2.438-.333,1.955,1.955,0,0,1,2-1.746V-4.71H1.152v-1.1H2V-7.235ZM7.162,0H5.594V-5.812H7.162Zm0-7.2H5.594V-8.379H7.162Zm6.531,4.458a3.338,3.338,0,0,1-.6,2.073,1.972,1.972,0,0,1-1.665.784,1.861,1.861,0,0,1-.811-.169,1.666,1.666,0,0,1-.607-.5V2.234H8.451V-5.812H9.864l.091.688a1.862,1.862,0,0,1,.62-.588,1.678,1.678,0,0,1,.846-.207,1.934,1.934,0,0,1,1.676.843,3.764,3.764,0,0,1,.6,2.218Zm-1.568-.113a2.812,2.812,0,0,0-.274-1.332.894.894,0,0,0-.838-.51,1.184,1.184,0,0,0-.6.145,1.035,1.035,0,0,0-.395.414V-1.6a.961.961,0,0,0,.395.376,1.33,1.33,0,0,0,.615.129.9.9,0,0,0,.835-.446,2.353,2.353,0,0,0,.266-1.208Zm2.293-.1a3.119,3.119,0,0,1,.725-2.13,2.527,2.527,0,0,1,2.009-.83,2.554,2.554,0,0,1,2.02.827,3.1,3.1,0,0,1,.73,2.132v.113a3.107,3.107,0,0,1-.728,2.135,2.544,2.544,0,0,1-2.011.824,2.55,2.55,0,0,1-2.017-.824,3.107,3.107,0,0,1-.728-2.135Zm1.563.113a2.528,2.528,0,0,0,.279,1.276.964.964,0,0,0,.9.481.955.955,0,0,0,.889-.483,2.511,2.511,0,0,0,.282-1.273v-.113a2.486,2.486,0,0,0-.285-1.262.963.963,0,0,0-.9-.489.951.951,0,0,0-.889.491,2.508,2.508,0,0,0-.282,1.26Zm8.03,1.235a.541.541,0,0,0-.25-.443,2.537,2.537,0,0,0-.927-.325A3.7,3.7,0,0,1,21.286-3a1.349,1.349,0,0,1-.529-1.123,1.6,1.6,0,0,1,.634-1.273,2.555,2.555,0,0,1,1.687-.526,2.758,2.758,0,0,1,1.764.526,1.538,1.538,0,0,1,.636,1.311l-.011.032H23.952a.761.761,0,0,0-.226-.569.893.893,0,0,0-.65-.22.888.888,0,0,0-.6.188.585.585,0,0,0-.22.462.522.522,0,0,0,.228.438,2.541,2.541,0,0,0,.927.3,3.77,3.77,0,0,1,1.593.631,1.384,1.384,0,0,1,.524,1.147A1.534,1.534,0,0,1,24.86-.387a2.9,2.9,0,0,1-1.772.5,2.694,2.694,0,0,1-1.834-.588,1.644,1.644,0,0,1-.642-1.34l.011-.032h1.434a.815.815,0,0,0,.306.677,1.264,1.264,0,0,0,.757.209,1.077,1.077,0,0,0,.663-.175A.566.566,0,0,0,24.011-1.611Z" transform="translate(1242 8413.31)" fill="#00104e"/>
    <path id="Trazado_884204" data-name="Trazado 884204" d="M-59.214-2.836V0h-1.568V-7.82h2.992a3.08,3.08,0,0,1,2.122.688,2.305,2.305,0,0,1,.773,1.81,2.289,2.289,0,0,1-.773,1.8,3.1,3.1,0,0,1-2.122.682Zm0-1.208h1.423A1.3,1.3,0,0,0-56.8-4.4a1.27,1.27,0,0,0,.338-.91,1.33,1.33,0,0,0-.336-.932,1.282,1.282,0,0,0-1-.368h-1.423Zm8.379-.419-.575-.016a1.045,1.045,0,0,0-.575.145.919.919,0,0,0-.344.408V0h-1.563V-5.812h1.456l.07.859a1.833,1.833,0,0,1,.529-.712,1.179,1.179,0,0,1,.749-.255,1.172,1.172,0,0,1,.218.019q.1.019.2.046Zm.467,1.5a3.119,3.119,0,0,1,.725-2.13,2.527,2.527,0,0,1,2.009-.83,2.554,2.554,0,0,1,2.02.827,3.1,3.1,0,0,1,.73,2.132v.113a3.107,3.107,0,0,1-.728,2.135,2.544,2.544,0,0,1-2.011.824A2.55,2.55,0,0,1-49.64-.712a3.107,3.107,0,0,1-.728-2.135Zm1.563.113a2.528,2.528,0,0,0,.279,1.276.964.964,0,0,0,.9.481.955.955,0,0,0,.889-.483,2.511,2.511,0,0,0,.282-1.273v-.113a2.486,2.486,0,0,0-.285-1.262.963.963,0,0,0-.9-.489.951.951,0,0,0-.889.491,2.508,2.508,0,0,0-.282,1.26Zm4.657-.011a3.764,3.764,0,0,1,.6-2.218,1.934,1.934,0,0,1,1.676-.843,1.65,1.65,0,0,1,.859.22,1.929,1.929,0,0,1,.634.628l.124-.741h1.348V-.027a2.16,2.16,0,0,1-.741,1.754,3.129,3.129,0,0,1-2.068.62,3.939,3.939,0,0,1-.935-.121,4.34,4.34,0,0,1-.913-.33L-43.3.725a3.6,3.6,0,0,0,.744.26,3.686,3.686,0,0,0,.83.089,1.4,1.4,0,0,0,.948-.269,1.063,1.063,0,0,0,.3-.838V-.559a1.755,1.755,0,0,1-.607.5,1.789,1.789,0,0,1-.8.172,1.972,1.972,0,0,1-1.665-.784,3.338,3.338,0,0,1-.6-2.073Zm1.568.113a2.388,2.388,0,0,0,.255,1.2.891.891,0,0,0,.835.438,1.294,1.294,0,0,0,.61-.132,1,1,0,0,0,.4-.384V-4.141a1.072,1.072,0,0,0-.4-.414,1.173,1.173,0,0,0-.6-.145.88.88,0,0,0-.838.51,2.909,2.909,0,0,0-.263,1.332Zm7.928-1.719-.575-.016a1.045,1.045,0,0,0-.575.145.919.919,0,0,0-.344.408V0h-1.563V-5.812h1.456l.07.859a1.833,1.833,0,0,1,.529-.712,1.179,1.179,0,0,1,.749-.255,1.172,1.172,0,0,1,.218.019q.1.019.2.046ZM-30.408,0a3.3,3.3,0,0,1-.148-.419,2.914,2.914,0,0,1-.089-.451,2.15,2.15,0,0,1-.639.7,1.6,1.6,0,0,1-.945.279,1.962,1.962,0,0,1-1.407-.47,1.684,1.684,0,0,1-.494-1.281,1.532,1.532,0,0,1,.658-1.324,3.286,3.286,0,0,1,1.92-.47h.881v-.462a.9.9,0,0,0-.22-.65.864.864,0,0,0-.655-.231.852.852,0,0,0-.588.185.647.647,0,0,0-.207.508h-1.509l-.011-.032a1.474,1.474,0,0,1,.642-1.27,2.788,2.788,0,0,1,1.775-.534,2.6,2.6,0,0,1,1.695.526A1.833,1.833,0,0,1-29.1-3.883v2.4a4.541,4.541,0,0,0,.062.768,3.854,3.854,0,0,0,.2.714Zm-1.434-1.047a1.336,1.336,0,0,0,.73-.2,1.1,1.1,0,0,0,.44-.473v-.822h-.881a1.044,1.044,0,0,0-.755.247.812.812,0,0,0-.255.607.606.606,0,0,0,.191.47A.754.754,0,0,0-31.843-1.047Zm5.371-4.764.064.768a1.952,1.952,0,0,1,.7-.647,2.016,2.016,0,0,1,.975-.228,1.775,1.775,0,0,1,.956.247,1.524,1.524,0,0,1,.6.747,2.014,2.014,0,0,1,.7-.73,1.9,1.9,0,0,1,1.01-.263,1.656,1.656,0,0,1,1.356.61,2.91,2.91,0,0,1,.5,1.861V0h-1.568V-3.454a1.629,1.629,0,0,0-.215-.972.763.763,0,0,0-.639-.274,1.1,1.1,0,0,0-.577.148A1.076,1.076,0,0,0-23-4.141q0,.1.005.175t.005.148V0h-1.563V-3.454a1.634,1.634,0,0,0-.215-.964.759.759,0,0,0-.645-.282,1.216,1.216,0,0,0-.556.121,1.066,1.066,0,0,0-.395.341V0h-1.563V-5.812ZM-14.983,0a3.3,3.3,0,0,1-.148-.419,2.914,2.914,0,0,1-.089-.451,2.15,2.15,0,0,1-.639.7A1.6,1.6,0,0,1-16.8.113a1.962,1.962,0,0,1-1.407-.47A1.684,1.684,0,0,1-18.7-1.638a1.532,1.532,0,0,1,.658-1.324,3.286,3.286,0,0,1,1.92-.47h.881v-.462a.9.9,0,0,0-.22-.65.864.864,0,0,0-.655-.231.852.852,0,0,0-.588.185.647.647,0,0,0-.207.508h-1.509l-.011-.032a1.474,1.474,0,0,1,.642-1.27,2.788,2.788,0,0,1,1.775-.534,2.6,2.6,0,0,1,1.695.526,1.833,1.833,0,0,1,.647,1.509v2.4a4.541,4.541,0,0,0,.062.768,3.854,3.854,0,0,0,.2.714Zm-1.434-1.047a1.336,1.336,0,0,0,.73-.2,1.1,1.1,0,0,0,.44-.473v-.822h-.881a1.044,1.044,0,0,0-.755.247.812.812,0,0,0-.255.607.606.606,0,0,0,.191.47A.754.754,0,0,0-16.417-1.047Zm6.343-.043a.873.873,0,0,0,.65-.244.887.887,0,0,0,.242-.653h1.429l.011.032A1.819,1.819,0,0,1-8.4-.481a2.45,2.45,0,0,1-1.676.594,2.476,2.476,0,0,1-1.993-.824,3.134,3.134,0,0,1-.7-2.108v-.161a3.154,3.154,0,0,1,.7-2.108,2.454,2.454,0,0,1,1.985-.83,2.4,2.4,0,0,1,1.713.612A2.046,2.046,0,0,1-7.742-3.7l-.011.032H-9.182a1.16,1.16,0,0,0-.239-.749.8.8,0,0,0-.663-.3.9.9,0,0,0-.862.486A2.666,2.666,0,0,0-11.2-2.981v.161a2.656,2.656,0,0,0,.255,1.251A.907.907,0,0,0-10.073-1.09ZM-5.18,0H-6.749V-5.812H-5.18Zm0-7.2H-6.749V-8.379H-5.18Zm1.047,4.243a3.119,3.119,0,0,1,.725-2.13A2.527,2.527,0,0,1-1.4-5.919a2.554,2.554,0,0,1,2.02.827,3.1,3.1,0,0,1,.73,2.132v.113A3.107,3.107,0,0,1,.623-.712,2.544,2.544,0,0,1-1.388.113,2.55,2.55,0,0,1-3.405-.712a3.107,3.107,0,0,1-.728-2.135Zm1.563.113a2.528,2.528,0,0,0,.279,1.276.964.964,0,0,0,.9.481A.955.955,0,0,0-.5-1.574,2.511,2.511,0,0,0-.218-2.847v-.113A2.486,2.486,0,0,0-.5-4.222a.963.963,0,0,0-.9-.489.951.951,0,0,0-.889.491,2.508,2.508,0,0,0-.282,1.26Zm1.488-5.446H.663l.011.032-1.488,1.4H-2.151ZM3.752-5.812l.07.833a2.126,2.126,0,0,1,.714-.693,1.854,1.854,0,0,1,.951-.247,1.728,1.728,0,0,1,1.375.567,2.686,2.686,0,0,1,.494,1.791V0H5.782V-3.556a1.391,1.391,0,0,0-.218-.884.8.8,0,0,0-.653-.26,1.369,1.369,0,0,0-.615.132,1.2,1.2,0,0,0-.438.363V0H2.291V-5.812ZM13.785.113a2.615,2.615,0,0,1-2.03-.8,2.923,2.923,0,0,1-.73-2.054v-.215a3.182,3.182,0,0,1,.709-2.138,2.41,2.41,0,0,1,1.95-.827,2.256,2.256,0,0,1,1.8.717,2.834,2.834,0,0,1,.626,1.931v.811H12.641l-.016.032a1.57,1.57,0,0,0,.363.967,1.214,1.214,0,0,0,.964.371,3.226,3.226,0,0,0,.894-.107,3.649,3.649,0,0,0,.76-.328l.424.967a2.911,2.911,0,0,1-.945.478A4.192,4.192,0,0,1,13.785.113Zm-.1-4.823a.871.871,0,0,0-.728.325,1.63,1.63,0,0,0-.309.862l.011.027h1.912v-.118a1.357,1.357,0,0,0-.209-.8A.775.775,0,0,0,13.683-4.71Zm4.77-1.1.07.833a2.126,2.126,0,0,1,.714-.693,1.854,1.854,0,0,1,.951-.247,1.728,1.728,0,0,1,1.375.567,2.686,2.686,0,0,1,.494,1.791V0H20.483V-3.556a1.391,1.391,0,0,0-.218-.884.8.8,0,0,0-.653-.26A1.369,1.369,0,0,0,19-4.568a1.2,1.2,0,0,0-.438.363V0H16.991V-5.812ZM31.209-2.745a3.338,3.338,0,0,1-.6,2.073,1.972,1.972,0,0,1-1.665.784,1.861,1.861,0,0,1-.811-.169,1.666,1.666,0,0,1-.607-.5V2.234H25.967V-5.812h1.413l.091.688a1.862,1.862,0,0,1,.62-.588,1.678,1.678,0,0,1,.846-.207,1.934,1.934,0,0,1,1.676.843,3.764,3.764,0,0,1,.6,2.218ZM29.64-2.857a2.812,2.812,0,0,0-.274-1.332.894.894,0,0,0-.838-.51,1.184,1.184,0,0,0-.6.145,1.035,1.035,0,0,0-.395.414V-1.6a.961.961,0,0,0,.395.376,1.33,1.33,0,0,0,.615.129.9.9,0,0,0,.835-.446,2.353,2.353,0,0,0,.266-1.208ZM35.6,0a3.3,3.3,0,0,1-.148-.419,2.914,2.914,0,0,1-.089-.451,2.15,2.15,0,0,1-.639.7,1.6,1.6,0,0,1-.945.279,1.962,1.962,0,0,1-1.407-.47,1.684,1.684,0,0,1-.494-1.281,1.532,1.532,0,0,1,.658-1.324,3.286,3.286,0,0,1,1.92-.47h.881v-.462a.9.9,0,0,0-.22-.65.864.864,0,0,0-.655-.231.852.852,0,0,0-.588.185.647.647,0,0,0-.207.508H32.159l-.011-.032a1.474,1.474,0,0,1,.642-1.27,2.788,2.788,0,0,1,1.775-.534,2.6,2.6,0,0,1,1.695.526,1.833,1.833,0,0,1,.647,1.509v2.4a4.541,4.541,0,0,0,.062.768,3.854,3.854,0,0,0,.2.714ZM34.168-1.047a1.336,1.336,0,0,0,.73-.2,1.1,1.1,0,0,0,.44-.473v-.822h-.881A1.044,1.044,0,0,0,33.7-2.3a.812.812,0,0,0-.255.607.606.606,0,0,0,.191.47A.754.754,0,0,0,34.168-1.047ZM41.14-4.463l-.575-.016a1.045,1.045,0,0,0-.575.145.919.919,0,0,0-.344.408V0H38.084V-5.812h1.456l.07.859a1.833,1.833,0,0,1,.529-.712,1.179,1.179,0,0,1,.749-.255A1.172,1.172,0,0,1,41.1-5.9q.1.019.2.046ZM44.373.113a2.615,2.615,0,0,1-2.03-.8,2.923,2.923,0,0,1-.73-2.054v-.215a3.182,3.182,0,0,1,.709-2.138,2.41,2.41,0,0,1,1.95-.827,2.256,2.256,0,0,1,1.8.717,2.834,2.834,0,0,1,.626,1.931v.811H43.229l-.016.032a1.57,1.57,0,0,0,.363.967,1.214,1.214,0,0,0,.964.371,3.226,3.226,0,0,0,.894-.107,3.649,3.649,0,0,0,.76-.328l.424.967a2.911,2.911,0,0,1-.945.478A4.192,4.192,0,0,1,44.373.113Zm-.1-4.823a.871.871,0,0,0-.728.325,1.63,1.63,0,0,0-.309.862l.011.027h1.912v-.118a1.357,1.357,0,0,0-.209-.8A.775.775,0,0,0,44.271-4.71Zm5.027-1.1V.215a2.163,2.163,0,0,1-.542,1.576,2.012,2.012,0,0,1-1.509.556,3.275,3.275,0,0,1-.392-.021,3.252,3.252,0,0,1-.376-.07l.075-1.2a2.006,2.006,0,0,0,.247.048,2.037,2.037,0,0,0,.263.016A.581.581,0,0,0,47.553.9a1.117,1.117,0,0,0,.172-.685V-5.812Zm-.032-1.4H47.693V-8.379h1.574ZM53.95,0A3.3,3.3,0,0,1,53.8-.419a2.914,2.914,0,0,1-.089-.451,2.15,2.15,0,0,1-.639.7,1.6,1.6,0,0,1-.945.279,1.962,1.962,0,0,1-1.407-.47,1.684,1.684,0,0,1-.494-1.281,1.532,1.532,0,0,1,.658-1.324,3.286,3.286,0,0,1,1.92-.47h.881v-.462a.9.9,0,0,0-.22-.65.864.864,0,0,0-.655-.231.852.852,0,0,0-.588.185.647.647,0,0,0-.207.508H50.507L50.5-4.114a1.474,1.474,0,0,1,.642-1.27,2.788,2.788,0,0,1,1.775-.534,2.6,2.6,0,0,1,1.695.526,1.833,1.833,0,0,1,.647,1.509v2.4a4.541,4.541,0,0,0,.062.768,3.854,3.854,0,0,0,.2.714ZM52.516-1.047a1.336,1.336,0,0,0,.73-.2,1.1,1.1,0,0,0,.44-.473v-.822h-.881a1.044,1.044,0,0,0-.755.247.812.812,0,0,0-.255.607.606.606,0,0,0,.191.47A.754.754,0,0,0,52.516-1.047Zm7.058-.564a.541.541,0,0,0-.25-.443,2.537,2.537,0,0,0-.927-.325A3.7,3.7,0,0,1,56.848-3a1.349,1.349,0,0,1-.529-1.123,1.6,1.6,0,0,1,.634-1.273,2.555,2.555,0,0,1,1.687-.526,2.758,2.758,0,0,1,1.764.526,1.538,1.538,0,0,1,.636,1.311l-.011.032H59.514a.761.761,0,0,0-.226-.569.893.893,0,0,0-.65-.22.888.888,0,0,0-.6.188.585.585,0,0,0-.22.462.522.522,0,0,0,.228.438,2.541,2.541,0,0,0,.927.3,3.77,3.77,0,0,1,1.593.631,1.384,1.384,0,0,1,.524,1.147,1.534,1.534,0,0,1-.671,1.284,2.9,2.9,0,0,1-1.772.5,2.694,2.694,0,0,1-1.834-.588,1.644,1.644,0,0,1-.642-1.34l.011-.032h1.434a.815.815,0,0,0,.306.677,1.264,1.264,0,0,0,.757.209,1.077,1.077,0,0,0,.663-.175A.566.566,0,0,0,59.573-1.611Z" transform="translate(1217 8500.309)" fill="#00104e"/>
    <path id="Trazado_884205" data-name="Trazado 884205" d="M-19.023-3.081V0h-.962V-7.1h2.432a2.7,2.7,0,0,1,1.782.518,1.855,1.855,0,0,1,.615,1.5,1.61,1.61,0,0,1-.286.952,1.935,1.935,0,0,1-.833.645,1.457,1.457,0,0,1,.842.618,2.022,2.022,0,0,1,.256,1.057v.669a2.227,2.227,0,0,0,.073.6.893.893,0,0,0,.254.43V0h-.991a.8.8,0,0,1-.244-.488,4.033,4.033,0,0,1-.054-.664V-1.8a1.285,1.285,0,0,0-.337-.928,1.193,1.193,0,0,0-.9-.352Zm0-.757h1.372a1.787,1.787,0,0,0,1.174-.31,1.182,1.182,0,0,0,.359-.945,1.217,1.217,0,0,0-.349-.93,1.538,1.538,0,0,0-1.086-.33h-1.47ZM-11.567.1a2.235,2.235,0,0,1-1.775-.728,2.8,2.8,0,0,1-.637-1.914v-.215a2.741,2.741,0,0,1,.657-1.882,2.059,2.059,0,0,1,1.6-.745,1.917,1.917,0,0,1,1.589.659A2.716,2.716,0,0,1-9.6-2.969v.508h-3.379l-.015.024a2.184,2.184,0,0,0,.352,1.292,1.228,1.228,0,0,0,1.074.5,2.42,2.42,0,0,0,.857-.139,1.913,1.913,0,0,0,.632-.383l.376.625a2.312,2.312,0,0,1-.747.461A2.976,2.976,0,0,1-11.567.1Zm-.151-4.727a1.046,1.046,0,0,0-.833.388,1.837,1.837,0,0,0-.4.994l.01.024h2.383V-3.3a1.538,1.538,0,0,0-.283-.952A1.023,1.023,0,0,0-11.719-4.624Zm2.979,2.08A3.526,3.526,0,0,1-8.2-4.6,1.754,1.754,0,0,1-6.67-5.381a1.892,1.892,0,0,1,.823.171,1.686,1.686,0,0,1,.613.5V-7.617h.962V0H-5.01l-.146-.669a1.715,1.715,0,0,1-.64.576A1.911,1.911,0,0,1-6.68.1,1.813,1.813,0,0,1-8.193-.6,2.912,2.912,0,0,1-8.74-2.441Zm.962.1A2.243,2.243,0,0,0-7.451-1.16a1.142,1.142,0,0,0,1.016.481,1.274,1.274,0,0,0,.723-.2,1.459,1.459,0,0,0,.479-.547V-3.887a1.481,1.481,0,0,0-.481-.52,1.271,1.271,0,0,0-.71-.193,1.1,1.1,0,0,0-1.023.571,2.949,2.949,0,0,0-.33,1.484ZM-1.8,0h-.962V-5.283H-1.8Zm0-6.636h-.962v-.981H-1.8ZM2.754-1.421a.641.641,0,0,0-.242-.518A2.333,2.333,0,0,0,1.6-2.29,3.841,3.841,0,0,1,.164-2.852a1.134,1.134,0,0,1-.5-.967,1.393,1.393,0,0,1,.549-1.1,2.145,2.145,0,0,1,1.423-.459,2.126,2.126,0,0,1,1.455.488,1.4,1.4,0,0,1,.532,1.138l-.01.029H2.7a.832.832,0,0,0-.3-.62,1.073,1.073,0,0,0-.759-.278,1.1,1.1,0,0,0-.759.229.716.716,0,0,0-.251.547.579.579,0,0,0,.217.483,2.4,2.4,0,0,0,.9.313,3.786,3.786,0,0,1,1.475.581,1.17,1.17,0,0,1,.5.981A1.391,1.391,0,0,1,3.147-.342,2.346,2.346,0,0,1,1.66.1,2.322,2.322,0,0,1,.068-.41a1.463,1.463,0,0,1-.552-1.2l.01-.029H.444a.89.89,0,0,0,.381.75,1.474,1.474,0,0,0,.835.237,1.315,1.315,0,0,0,.8-.217A.665.665,0,0,0,2.754-1.421ZM7.1.1A2.235,2.235,0,0,1,5.325-.625a2.8,2.8,0,0,1-.637-1.914v-.215a2.741,2.741,0,0,1,.657-1.882,2.059,2.059,0,0,1,1.6-.745,1.917,1.917,0,0,1,1.589.659,2.716,2.716,0,0,1,.53,1.753v.508H5.688l-.015.024a2.184,2.184,0,0,0,.352,1.292,1.228,1.228,0,0,0,1.074.5,2.42,2.42,0,0,0,.857-.139,1.913,1.913,0,0,0,.632-.383l.376.625a2.312,2.312,0,0,1-.747.461A2.976,2.976,0,0,1,7.1.1ZM6.948-4.624a1.046,1.046,0,0,0-.833.388,1.837,1.837,0,0,0-.4.994l.01.024H8.105V-3.3a1.538,1.538,0,0,0-.283-.952A1.023,1.023,0,0,0,6.948-4.624Zm4.058-.659.068.786a1.918,1.918,0,0,1,.662-.652,1.765,1.765,0,0,1,.906-.232,1.724,1.724,0,0,1,1.323.5,2.2,2.2,0,0,1,.469,1.545V0h-.962V-3.315a1.429,1.429,0,0,0-.276-.991,1.105,1.105,0,0,0-.842-.293,1.491,1.491,0,0,0-.754.178,1.3,1.3,0,0,0-.491.5V0h-.962V-5.283Zm2.959-2.148a1.108,1.108,0,0,1-.291.776.948.948,0,0,1-.73.317,1.4,1.4,0,0,1-.723-.227,1.294,1.294,0,0,0-.625-.227.452.452,0,0,0-.352.159.556.556,0,0,0-.142.383l-.527-.127a1.17,1.17,0,0,1,.288-.789A.924.924,0,0,1,11.6-7.5a1.487,1.487,0,0,1,.684.229,1.472,1.472,0,0,0,.664.229.457.457,0,0,0,.347-.159.551.551,0,0,0,.146-.388ZM15.605-2.69a2.909,2.909,0,0,1,.635-1.931,2.129,2.129,0,0,1,1.724-.759,2.15,2.15,0,0,1,1.736.757,2.9,2.9,0,0,1,.637,1.934v.107A2.9,2.9,0,0,1,19.7-.649,2.143,2.143,0,0,1,17.974.1a2.147,2.147,0,0,1-1.731-.754,2.89,2.89,0,0,1-.637-1.931Zm.962.107A2.506,2.506,0,0,0,16.921-1.2a1.172,1.172,0,0,0,1.052.547A1.169,1.169,0,0,0,19.019-1.2a2.493,2.493,0,0,0,.356-1.387V-2.69a2.485,2.485,0,0,0-.359-1.382,1.176,1.176,0,0,0-1.052-.552,1.16,1.16,0,0,0-1.042.552,2.511,2.511,0,0,0-.354,1.382Z" transform="translate(1053.196 8510.422)" fill="#00104e"/>
    <path id="Trazado_884206" data-name="Trazado 884206" d="M-53.9-2.836V0H-55.47V-7.82h2.992a3.08,3.08,0,0,1,2.122.688,2.305,2.305,0,0,1,.773,1.81,2.289,2.289,0,0,1-.773,1.8,3.1,3.1,0,0,1-2.122.682Zm0-1.208h1.423a1.3,1.3,0,0,0,.994-.357,1.27,1.27,0,0,0,.338-.91,1.33,1.33,0,0,0-.336-.932,1.282,1.282,0,0,0-1-.368H-53.9Zm8.379-.419-.575-.016a1.045,1.045,0,0,0-.575.145.919.919,0,0,0-.344.408V0h-1.563V-5.812h1.456l.07.859a1.833,1.833,0,0,1,.529-.712,1.179,1.179,0,0,1,.749-.255,1.172,1.172,0,0,1,.218.019q.1.019.2.046Zm4.377,3.6a1.973,1.973,0,0,1-.682.72,1.808,1.808,0,0,1-.961.252A1.767,1.767,0,0,1-44.226-.51a2.989,2.989,0,0,1-.518-1.934V-5.812h1.563v3.378a1.876,1.876,0,0,0,.207,1.045.743.743,0,0,0,.642.282,1.563,1.563,0,0,0,.645-.121,1.086,1.086,0,0,0,.44-.357V-5.812h1.568V0h-1.3Zm5.167.972a2.615,2.615,0,0,1-2.03-.8,2.923,2.923,0,0,1-.73-2.054v-.215a3.182,3.182,0,0,1,.709-2.138,2.41,2.41,0,0,1,1.95-.827,2.256,2.256,0,0,1,1.8.717,2.834,2.834,0,0,1,.626,1.931v.811h-3.464l-.016.032a1.57,1.57,0,0,0,.363.967,1.214,1.214,0,0,0,.964.371,3.226,3.226,0,0,0,.894-.107,3.649,3.649,0,0,0,.76-.328l.424.967a2.911,2.911,0,0,1-.945.478A4.192,4.192,0,0,1-35.978.113Zm-.1-4.823a.871.871,0,0,0-.728.325,1.63,1.63,0,0,0-.309.862l.011.027h1.912v-.118a1.357,1.357,0,0,0-.209-.8A.775.775,0,0,0-36.08-4.71ZM-27.5-2.745a3.4,3.4,0,0,1-.58,2.079,1.962,1.962,0,0,1-1.676.779A1.771,1.771,0,0,1-30.647-.1a1.837,1.837,0,0,1-.642-.628l-.129.73h-1.327V-8.379h1.563v3.185a1.775,1.775,0,0,1,.6-.537,1.689,1.689,0,0,1,.808-.188,1.925,1.925,0,0,1,1.687.835,3.834,3.834,0,0,1,.58,2.226Zm-1.563-.113a3.026,3.026,0,0,0-.25-1.345.876.876,0,0,0-.851-.5,1.171,1.171,0,0,0-.618.153,1.061,1.061,0,0,0-.4.438v2.46a1,1,0,0,0,.4.4,1.288,1.288,0,0,0,.626.14.892.892,0,0,0,.849-.427,2.487,2.487,0,0,0,.242-1.211ZM-23.109,0a3.3,3.3,0,0,1-.148-.419,2.914,2.914,0,0,1-.089-.451,2.15,2.15,0,0,1-.639.7,1.6,1.6,0,0,1-.945.279,1.962,1.962,0,0,1-1.407-.47,1.684,1.684,0,0,1-.494-1.281,1.532,1.532,0,0,1,.658-1.324,3.286,3.286,0,0,1,1.92-.47h.881v-.462a.9.9,0,0,0-.22-.65.864.864,0,0,0-.655-.231.852.852,0,0,0-.588.185.647.647,0,0,0-.207.508h-1.509l-.011-.032a1.474,1.474,0,0,1,.642-1.27,2.788,2.788,0,0,1,1.775-.534,2.6,2.6,0,0,1,1.695.526A1.833,1.833,0,0,1-21.8-3.883v2.4a4.541,4.541,0,0,0,.062.768,3.854,3.854,0,0,0,.2.714Zm-1.434-1.047a1.336,1.336,0,0,0,.73-.2,1.1,1.1,0,0,0,.44-.473v-.822h-.881a1.044,1.044,0,0,0-.755.247.812.812,0,0,0-.255.607.606.606,0,0,0,.191.47A.754.754,0,0,0-24.543-1.047Zm7.058-.564a.541.541,0,0,0-.25-.443,2.537,2.537,0,0,0-.927-.325A3.7,3.7,0,0,1-20.211-3,1.349,1.349,0,0,1-20.74-4.12a1.6,1.6,0,0,1,.634-1.273,2.555,2.555,0,0,1,1.687-.526,2.758,2.758,0,0,1,1.764.526,1.538,1.538,0,0,1,.636,1.311l-.011.032h-1.515a.761.761,0,0,0-.226-.569.893.893,0,0,0-.65-.22.888.888,0,0,0-.6.188.585.585,0,0,0-.22.462.522.522,0,0,0,.228.438,2.541,2.541,0,0,0,.927.3,3.77,3.77,0,0,1,1.593.631,1.384,1.384,0,0,1,.524,1.147,1.534,1.534,0,0,1-.671,1.284,2.9,2.9,0,0,1-1.772.5,2.694,2.694,0,0,1-1.834-.588,1.644,1.644,0,0,1-.642-1.34l.011-.032h1.434a.815.815,0,0,0,.306.677,1.264,1.264,0,0,0,.757.209,1.077,1.077,0,0,0,.663-.175A.566.566,0,0,0-17.486-1.611Zm5.027-1.246a3.776,3.776,0,0,1,.594-2.218,1.927,1.927,0,0,1,1.673-.843,1.627,1.627,0,0,1,.784.188,1.887,1.887,0,0,1,.612.537V-8.379h1.574V0H-8.559l-.134-.714a1.943,1.943,0,0,1-.65.615A1.718,1.718,0,0,1-10.2.113a1.965,1.965,0,0,1-1.662-.784,3.349,3.349,0,0,1-.594-2.073Zm1.563.113a2.367,2.367,0,0,0,.258,1.2.9.9,0,0,0,.838.438,1.22,1.22,0,0,0,.591-.137,1.093,1.093,0,0,0,.414-.4V-4.12a1.207,1.207,0,0,0-.411-.427A1.093,1.093,0,0,0-9.789-4.7a.885.885,0,0,0-.841.51A2.883,2.883,0,0,0-10.9-2.857ZM-3.489.113a2.615,2.615,0,0,1-2.03-.8,2.923,2.923,0,0,1-.73-2.054v-.215A3.182,3.182,0,0,1-5.54-5.092a2.41,2.41,0,0,1,1.95-.827,2.256,2.256,0,0,1,1.8.717,2.834,2.834,0,0,1,.626,1.931v.811H-4.633l-.016.032a1.57,1.57,0,0,0,.363.967,1.214,1.214,0,0,0,.964.371A3.226,3.226,0,0,0-2.428-1.2a3.649,3.649,0,0,0,.76-.328l.424.967a2.911,2.911,0,0,1-.945.478A4.192,4.192,0,0,1-3.489.113Zm-.1-4.823a.871.871,0,0,0-.728.325,1.63,1.63,0,0,0-.309.862l.011.027H-2.7v-.118a1.357,1.357,0,0,0-.209-.8A.775.775,0,0,0-3.591-4.71ZM5.911,0a3.3,3.3,0,0,1-.148-.419A2.914,2.914,0,0,1,5.675-.87a2.15,2.15,0,0,1-.639.7A1.6,1.6,0,0,1,4.09.113a1.962,1.962,0,0,1-1.407-.47,1.684,1.684,0,0,1-.494-1.281,1.532,1.532,0,0,1,.658-1.324,3.286,3.286,0,0,1,1.92-.47h.881v-.462a.9.9,0,0,0-.22-.65.864.864,0,0,0-.655-.231.852.852,0,0,0-.588.185.647.647,0,0,0-.207.508H2.468l-.011-.032A1.474,1.474,0,0,1,3.1-5.385a2.788,2.788,0,0,1,1.775-.534,2.6,2.6,0,0,1,1.695.526,1.833,1.833,0,0,1,.647,1.509v2.4a4.541,4.541,0,0,0,.062.768,3.854,3.854,0,0,0,.2.714ZM4.477-1.047a1.336,1.336,0,0,0,.73-.2,1.1,1.1,0,0,0,.44-.473v-.822H4.767a1.044,1.044,0,0,0-.755.247.812.812,0,0,0-.255.607.606.606,0,0,0,.191.47A.754.754,0,0,0,4.477-1.047ZM10.82-1.09a.873.873,0,0,0,.65-.244.887.887,0,0,0,.242-.653H13.14l.011.032A1.819,1.819,0,0,1,12.5-.481,2.45,2.45,0,0,1,10.82.113,2.476,2.476,0,0,1,8.827-.712a3.134,3.134,0,0,1-.7-2.108v-.161a3.154,3.154,0,0,1,.7-2.108,2.454,2.454,0,0,1,1.985-.83,2.4,2.4,0,0,1,1.713.612A2.046,2.046,0,0,1,13.151-3.7l-.011.032H11.712a1.16,1.16,0,0,0-.239-.749.8.8,0,0,0-.663-.3.9.9,0,0,0-.862.486,2.666,2.666,0,0,0-.255,1.243v.161a2.656,2.656,0,0,0,.255,1.251A.907.907,0,0,0,10.82-1.09Zm5.763,1.2a2.615,2.615,0,0,1-2.03-.8,2.923,2.923,0,0,1-.73-2.054v-.215a3.182,3.182,0,0,1,.709-2.138,2.41,2.41,0,0,1,1.95-.827,2.256,2.256,0,0,1,1.8.717A2.834,2.834,0,0,1,18.9-3.271v.811H15.439l-.016.032a1.57,1.57,0,0,0,.363.967,1.214,1.214,0,0,0,.964.371,3.226,3.226,0,0,0,.894-.107,3.649,3.649,0,0,0,.76-.328l.424.967a2.911,2.911,0,0,1-.945.478A4.192,4.192,0,0,1,16.583.113Zm-.1-4.823a.871.871,0,0,0-.728.325,1.63,1.63,0,0,0-.309.862l.011.027h1.912v-.118a1.357,1.357,0,0,0-.209-.8A.775.775,0,0,0,16.481-4.71Zm8.578,1.966a3.338,3.338,0,0,1-.6,2.073A1.972,1.972,0,0,1,22.8.113a1.861,1.861,0,0,1-.811-.169,1.666,1.666,0,0,1-.607-.5V2.234H19.817V-5.812h1.413l.091.688a1.862,1.862,0,0,1,.62-.588,1.678,1.678,0,0,1,.846-.207,1.934,1.934,0,0,1,1.676.843,3.764,3.764,0,0,1,.6,2.218ZM23.49-2.857a2.812,2.812,0,0,0-.274-1.332.894.894,0,0,0-.838-.51,1.184,1.184,0,0,0-.6.145,1.035,1.035,0,0,0-.395.414V-1.6a.961.961,0,0,0,.395.376,1.33,1.33,0,0,0,.615.129.9.9,0,0,0,.835-.446,2.353,2.353,0,0,0,.266-1.208Zm4.415-4.377v1.423h.983v1.1h-.983v2.959a.675.675,0,0,0,.142.483.5.5,0,0,0,.373.145,1.5,1.5,0,0,0,.215-.013,1.809,1.809,0,0,0,.209-.046l.129,1.133a3.175,3.175,0,0,1-.459.121,2.738,2.738,0,0,1-.486.04A1.672,1.672,0,0,1,26.78-.333a1.955,1.955,0,0,1-.438-1.413V-4.71h-.849v-1.1h.849V-7.235ZM33.282,0a3.3,3.3,0,0,1-.148-.419,2.914,2.914,0,0,1-.089-.451,2.15,2.15,0,0,1-.639.7,1.6,1.6,0,0,1-.945.279,1.962,1.962,0,0,1-1.407-.47,1.684,1.684,0,0,1-.494-1.281,1.532,1.532,0,0,1,.658-1.324,3.286,3.286,0,0,1,1.92-.47h.881v-.462a.9.9,0,0,0-.22-.65.864.864,0,0,0-.655-.231.852.852,0,0,0-.588.185.647.647,0,0,0-.207.508H29.839l-.011-.032a1.474,1.474,0,0,1,.642-1.27,2.788,2.788,0,0,1,1.775-.534,2.6,2.6,0,0,1,1.695.526,1.833,1.833,0,0,1,.647,1.509v2.4a4.541,4.541,0,0,0,.062.768,3.854,3.854,0,0,0,.2.714ZM31.848-1.047a1.336,1.336,0,0,0,.73-.2,1.1,1.1,0,0,0,.44-.473v-.822h-.881a1.044,1.044,0,0,0-.755.247.812.812,0,0,0-.255.607.606.606,0,0,0,.191.47A.754.754,0,0,0,31.848-1.047Zm6.343-.043a.873.873,0,0,0,.65-.244.887.887,0,0,0,.242-.653h1.429l.011.032a1.819,1.819,0,0,1-.655,1.474,2.45,2.45,0,0,1-1.676.594A2.476,2.476,0,0,1,36.2-.712a3.134,3.134,0,0,1-.7-2.108v-.161a3.154,3.154,0,0,1,.7-2.108,2.454,2.454,0,0,1,1.985-.83,2.4,2.4,0,0,1,1.713.612A2.046,2.046,0,0,1,40.522-3.7l-.011.032H39.083a1.16,1.16,0,0,0-.239-.749.8.8,0,0,0-.663-.3.9.9,0,0,0-.862.486,2.666,2.666,0,0,0-.255,1.243v.161a2.656,2.656,0,0,0,.255,1.251A.907.907,0,0,0,38.191-1.09ZM43.084,0H41.516V-5.812h1.568Zm0-7.2H41.516V-8.379h1.568Zm1.047,4.243a3.119,3.119,0,0,1,.725-2.13,2.527,2.527,0,0,1,2.009-.83,2.554,2.554,0,0,1,2.02.827,3.1,3.1,0,0,1,.73,2.132v.113a3.107,3.107,0,0,1-.728,2.135,2.544,2.544,0,0,1-2.011.824,2.55,2.55,0,0,1-2.017-.824,3.107,3.107,0,0,1-.728-2.135Zm1.563.113a2.528,2.528,0,0,0,.279,1.276.964.964,0,0,0,.9.481.955.955,0,0,0,.889-.483,2.511,2.511,0,0,0,.282-1.273v-.113a2.486,2.486,0,0,0-.285-1.262.963.963,0,0,0-.9-.489.951.951,0,0,0-.889.491,2.508,2.508,0,0,0-.282,1.26Zm1.488-5.446h1.746l.011.032-1.488,1.4H46.114Zm4.834,2.481.07.833a2.126,2.126,0,0,1,.714-.693,1.854,1.854,0,0,1,.951-.247,1.728,1.728,0,0,1,1.375.567,2.686,2.686,0,0,1,.494,1.791V0H54.047V-3.556a1.391,1.391,0,0,0-.218-.884.8.8,0,0,0-.653-.26,1.369,1.369,0,0,0-.615.132,1.2,1.2,0,0,0-.438.363V0H50.555V-5.812Z" transform="translate(821 8621.308)" fill="#00104e"/>
    <path id="Trazado_884207" data-name="Trazado 884207" d="M-41.14-2.836V0h-1.568V-7.82h2.992a3.08,3.08,0,0,1,2.122.688,2.305,2.305,0,0,1,.773,1.81,2.289,2.289,0,0,1-.773,1.8,3.1,3.1,0,0,1-2.122.682Zm0-1.208h1.423a1.3,1.3,0,0,0,.994-.357,1.27,1.27,0,0,0,.338-.91,1.33,1.33,0,0,0-.336-.932,1.282,1.282,0,0,0-1-.368H-41.14Zm8.379-.419-.575-.016a1.045,1.045,0,0,0-.575.145.919.919,0,0,0-.344.408V0h-1.563V-5.812h1.456l.07.859a1.833,1.833,0,0,1,.529-.712,1.179,1.179,0,0,1,.749-.255A1.172,1.172,0,0,1-32.8-5.9q.1.019.2.046Zm4.377,3.6a1.973,1.973,0,0,1-.682.72,1.808,1.808,0,0,1-.961.252A1.767,1.767,0,0,1-31.464-.51a2.989,2.989,0,0,1-.518-1.934V-5.812h1.563v3.378a1.876,1.876,0,0,0,.207,1.045.743.743,0,0,0,.642.282,1.563,1.563,0,0,0,.645-.121,1.086,1.086,0,0,0,.44-.357V-5.812h1.568V0h-1.3Zm5.167.972a2.615,2.615,0,0,1-2.03-.8,2.923,2.923,0,0,1-.73-2.054v-.215a3.182,3.182,0,0,1,.709-2.138,2.41,2.41,0,0,1,1.95-.827,2.256,2.256,0,0,1,1.8.717A2.834,2.834,0,0,1-20.9-3.271v.811h-3.464l-.016.032a1.57,1.57,0,0,0,.363.967,1.214,1.214,0,0,0,.964.371,3.226,3.226,0,0,0,.894-.107,3.649,3.649,0,0,0,.76-.328l.424.967a2.911,2.911,0,0,1-.945.478A4.192,4.192,0,0,1-23.217.113Zm-.1-4.823a.871.871,0,0,0-.728.325,1.63,1.63,0,0,0-.309.862l.011.027h1.912v-.118a1.357,1.357,0,0,0-.209-.8A.775.775,0,0,0-23.319-4.71Zm8.578,1.966a3.4,3.4,0,0,1-.58,2.079A1.962,1.962,0,0,1-17,.113,1.771,1.771,0,0,1-17.886-.1a1.837,1.837,0,0,1-.642-.628l-.129.73h-1.327V-8.379h1.563v3.185a1.775,1.775,0,0,1,.6-.537,1.689,1.689,0,0,1,.808-.188,1.925,1.925,0,0,1,1.687.835,3.834,3.834,0,0,1,.58,2.226ZM-16.3-2.857a3.026,3.026,0,0,0-.25-1.345.876.876,0,0,0-.851-.5,1.171,1.171,0,0,0-.618.153,1.061,1.061,0,0,0-.4.438v2.46a1,1,0,0,0,.4.4,1.288,1.288,0,0,0,.626.14.892.892,0,0,0,.849-.427A2.487,2.487,0,0,0-16.3-2.745ZM-10.347,0A3.3,3.3,0,0,1-10.5-.419a2.914,2.914,0,0,1-.089-.451,2.15,2.15,0,0,1-.639.7,1.6,1.6,0,0,1-.945.279,1.962,1.962,0,0,1-1.407-.47,1.684,1.684,0,0,1-.494-1.281,1.532,1.532,0,0,1,.658-1.324,3.286,3.286,0,0,1,1.92-.47h.881v-.462a.9.9,0,0,0-.22-.65.864.864,0,0,0-.655-.231.852.852,0,0,0-.588.185.647.647,0,0,0-.207.508H-13.79l-.011-.032a1.474,1.474,0,0,1,.642-1.27,2.788,2.788,0,0,1,1.775-.534,2.6,2.6,0,0,1,1.695.526,1.833,1.833,0,0,1,.647,1.509v2.4a4.541,4.541,0,0,0,.062.768,3.854,3.854,0,0,0,.2.714Zm-1.434-1.047a1.336,1.336,0,0,0,.73-.2,1.1,1.1,0,0,0,.44-.473v-.822h-.881a1.044,1.044,0,0,0-.755.247.812.812,0,0,0-.255.607.606.606,0,0,0,.191.47A.754.754,0,0,0-11.781-1.047Zm7.058-.564a.541.541,0,0,0-.25-.443A2.537,2.537,0,0,0-5.9-2.379,3.7,3.7,0,0,1-7.45-3,1.349,1.349,0,0,1-7.979-4.12a1.6,1.6,0,0,1,.634-1.273,2.555,2.555,0,0,1,1.687-.526,2.758,2.758,0,0,1,1.764.526,1.538,1.538,0,0,1,.636,1.311l-.011.032H-4.783a.761.761,0,0,0-.226-.569.893.893,0,0,0-.65-.22.888.888,0,0,0-.6.188.585.585,0,0,0-.22.462.522.522,0,0,0,.228.438,2.541,2.541,0,0,0,.927.3,3.77,3.77,0,0,1,1.593.631A1.384,1.384,0,0,1-3.2-1.67,1.534,1.534,0,0,1-3.875-.387a2.9,2.9,0,0,1-1.772.5A2.694,2.694,0,0,1-7.482-.475a1.644,1.644,0,0,1-.642-1.34l.011-.032h1.434a.815.815,0,0,0,.306.677,1.264,1.264,0,0,0,.757.209,1.077,1.077,0,0,0,.663-.175A.566.566,0,0,0-4.724-1.611Zm8.83.752a1.973,1.973,0,0,1-.682.72,1.808,1.808,0,0,1-.961.252A1.767,1.767,0,0,1,1.026-.51,2.989,2.989,0,0,1,.508-2.444V-5.812H2.071v3.378a1.876,1.876,0,0,0,.207,1.045.743.743,0,0,0,.642.282,1.563,1.563,0,0,0,.645-.121A1.086,1.086,0,0,0,4-1.584V-5.812H5.573V0h-1.3ZM8.188-5.812l.07.833a2.126,2.126,0,0,1,.714-.693,1.854,1.854,0,0,1,.951-.247,1.728,1.728,0,0,1,1.375.567,2.686,2.686,0,0,1,.494,1.791V0H10.219V-3.556A1.391,1.391,0,0,0,10-4.439a.8.8,0,0,0-.653-.26,1.369,1.369,0,0,0-.615.132,1.2,1.2,0,0,0-.438.363V0H6.727V-5.812ZM14.612,0H13.044V-5.812h1.568Zm0-7.2H13.044V-8.379h1.568Zm3.169-.032v1.423h.983v1.1h-.983v2.959a.675.675,0,0,0,.142.483.5.5,0,0,0,.373.145,1.5,1.5,0,0,0,.215-.013,1.809,1.809,0,0,0,.209-.046L18.85-.048a3.175,3.175,0,0,1-.459.121,2.738,2.738,0,0,1-.486.04,1.672,1.672,0,0,1-1.249-.446,1.955,1.955,0,0,1-.438-1.413V-4.71h-.849v-1.1h.849V-7.235ZM23.157,0a3.3,3.3,0,0,1-.148-.419,2.914,2.914,0,0,1-.089-.451,2.15,2.15,0,0,1-.639.7,1.6,1.6,0,0,1-.945.279,1.962,1.962,0,0,1-1.407-.47,1.684,1.684,0,0,1-.494-1.281,1.532,1.532,0,0,1,.658-1.324,3.286,3.286,0,0,1,1.92-.47h.881v-.462a.9.9,0,0,0-.22-.65.864.864,0,0,0-.655-.231.852.852,0,0,0-.588.185.647.647,0,0,0-.207.508H19.715L19.7-4.114a1.474,1.474,0,0,1,.642-1.27,2.788,2.788,0,0,1,1.775-.534,2.6,2.6,0,0,1,1.695.526,1.833,1.833,0,0,1,.647,1.509v2.4a4.541,4.541,0,0,0,.062.768,3.854,3.854,0,0,0,.2.714ZM21.723-1.047a1.336,1.336,0,0,0,.73-.2,1.1,1.1,0,0,0,.44-.473v-.822h-.881a1.044,1.044,0,0,0-.755.247A.812.812,0,0,0,21-1.692a.606.606,0,0,0,.191.47A.754.754,0,0,0,21.723-1.047ZM28.7-4.463l-.575-.016a1.045,1.045,0,0,0-.575.145.919.919,0,0,0-.344.408V0H25.639V-5.812h1.456l.07.859a1.833,1.833,0,0,1,.529-.712,1.179,1.179,0,0,1,.749-.255,1.172,1.172,0,0,1,.218.019q.1.019.2.046ZM31.16,0H29.592V-5.812H31.16Zm0-7.2H29.592V-8.379H31.16ZM35.876,0a3.3,3.3,0,0,1-.148-.419A2.914,2.914,0,0,1,35.64-.87a2.15,2.15,0,0,1-.639.7,1.6,1.6,0,0,1-.945.279,1.962,1.962,0,0,1-1.407-.47,1.684,1.684,0,0,1-.494-1.281,1.532,1.532,0,0,1,.658-1.324,3.286,3.286,0,0,1,1.92-.47h.881v-.462a.9.9,0,0,0-.22-.65.864.864,0,0,0-.655-.231.852.852,0,0,0-.588.185.647.647,0,0,0-.207.508H32.433l-.011-.032a1.474,1.474,0,0,1,.642-1.27,2.788,2.788,0,0,1,1.775-.534,2.6,2.6,0,0,1,1.695.526,1.833,1.833,0,0,1,.647,1.509v2.4a4.541,4.541,0,0,0,.062.768,3.854,3.854,0,0,0,.2.714ZM34.442-1.047a1.336,1.336,0,0,0,.73-.2,1.1,1.1,0,0,0,.44-.473v-.822h-.881a1.044,1.044,0,0,0-.755.247.812.812,0,0,0-.255.607.606.606,0,0,0,.191.47A.754.754,0,0,0,34.442-1.047ZM41.5-1.611a.541.541,0,0,0-.25-.443,2.537,2.537,0,0,0-.927-.325A3.7,3.7,0,0,1,38.774-3a1.349,1.349,0,0,1-.529-1.123,1.6,1.6,0,0,1,.634-1.273,2.555,2.555,0,0,1,1.687-.526,2.758,2.758,0,0,1,1.764.526,1.538,1.538,0,0,1,.636,1.311l-.011.032H41.441a.761.761,0,0,0-.226-.569.893.893,0,0,0-.65-.22.888.888,0,0,0-.6.188.585.585,0,0,0-.22.462.522.522,0,0,0,.228.438,2.541,2.541,0,0,0,.927.3,3.77,3.77,0,0,1,1.593.631A1.384,1.384,0,0,1,43.02-1.67a1.534,1.534,0,0,1-.671,1.284,2.9,2.9,0,0,1-1.772.5,2.694,2.694,0,0,1-1.834-.588,1.644,1.644,0,0,1-.642-1.34l.011-.032h1.434a.815.815,0,0,0,.306.677,1.264,1.264,0,0,0,.757.209,1.077,1.077,0,0,0,.663-.175A.566.566,0,0,0,41.5-1.611ZM-48.584,12h-1.568V6.188h1.568Zm0-7.2h-1.568V3.621h1.568Zm2.723,1.391.07.833a2.126,2.126,0,0,1,.714-.693,1.854,1.854,0,0,1,.951-.247,1.728,1.728,0,0,1,1.375.567,2.686,2.686,0,0,1,.494,1.791V12h-1.574V8.444a1.391,1.391,0,0,0-.218-.884A.8.8,0,0,0-44.7,7.3a1.369,1.369,0,0,0-.615.132,1.2,1.2,0,0,0-.438.363V12h-1.568V6.188Zm6.655-1.423V6.188h.983v1.1h-.983v2.959a.675.675,0,0,0,.142.483.5.5,0,0,0,.373.145,1.5,1.5,0,0,0,.215-.013,1.81,1.81,0,0,0,.209-.046l.129,1.133a3.175,3.175,0,0,1-.459.121,2.738,2.738,0,0,1-.486.04,1.672,1.672,0,0,1-1.249-.446,1.955,1.955,0,0,1-.438-1.413V7.29h-.849v-1.1h.849V4.765Zm4.469,7.348a2.615,2.615,0,0,1-2.03-.8,2.923,2.923,0,0,1-.73-2.054V9.046a3.182,3.182,0,0,1,.709-2.138,2.41,2.41,0,0,1,1.95-.827,2.256,2.256,0,0,1,1.8.717,2.834,2.834,0,0,1,.626,1.931V9.54h-3.464l-.016.032a1.57,1.57,0,0,0,.363.967,1.214,1.214,0,0,0,.964.371,3.226,3.226,0,0,0,.894-.107,3.649,3.649,0,0,0,.76-.328l.424.967a2.911,2.911,0,0,1-.945.478A4.192,4.192,0,0,1-34.738,12.113Zm-.1-4.823a.871.871,0,0,0-.728.325,1.63,1.63,0,0,0-.309.862l.011.027h1.912V8.385a1.357,1.357,0,0,0-.209-.8A.775.775,0,0,0-34.84,7.29Zm3.1,1.853a3.764,3.764,0,0,1,.6-2.218,1.934,1.934,0,0,1,1.676-.843,1.65,1.65,0,0,1,.859.22,1.929,1.929,0,0,1,.634.628l.124-.741H-26.5v5.785a2.16,2.16,0,0,1-.741,1.754,3.129,3.129,0,0,1-2.068.62,3.94,3.94,0,0,1-.935-.121,4.34,4.34,0,0,1-.913-.33l.263-1.171a3.6,3.6,0,0,0,.744.26,3.686,3.686,0,0,0,.83.089,1.4,1.4,0,0,0,.948-.269,1.063,1.063,0,0,0,.3-.838v-.526a1.755,1.755,0,0,1-.607.5,1.789,1.789,0,0,1-.8.172,1.972,1.972,0,0,1-1.665-.784,3.338,3.338,0,0,1-.6-2.073Zm1.568.113a2.388,2.388,0,0,0,.255,1.2.891.891,0,0,0,.835.438,1.3,1.3,0,0,0,.61-.132,1,1,0,0,0,.4-.384V7.859a1.072,1.072,0,0,0-.4-.414,1.173,1.173,0,0,0-.6-.145.88.88,0,0,0-.838.51,2.909,2.909,0,0,0-.263,1.332Zm7.928-1.719-.575-.016a1.045,1.045,0,0,0-.575.145.919.919,0,0,0-.344.408V12H-25.3V6.188h1.456l.07.859a1.833,1.833,0,0,1,.529-.712,1.179,1.179,0,0,1,.749-.255,1.172,1.172,0,0,1,.218.019q.1.019.2.046ZM-18,12a3.3,3.3,0,0,1-.148-.419,2.914,2.914,0,0,1-.089-.451,2.15,2.15,0,0,1-.639.7,1.6,1.6,0,0,1-.945.279,1.962,1.962,0,0,1-1.407-.47,1.684,1.684,0,0,1-.494-1.281,1.532,1.532,0,0,1,.658-1.324,3.286,3.286,0,0,1,1.92-.47h.881V8.106a.9.9,0,0,0-.22-.65.864.864,0,0,0-.655-.231.852.852,0,0,0-.588.185.647.647,0,0,0-.207.508h-1.509l-.011-.032a1.474,1.474,0,0,1,.642-1.27,2.788,2.788,0,0,1,1.775-.534,2.6,2.6,0,0,1,1.695.526,1.833,1.833,0,0,1,.647,1.509v2.4a4.541,4.541,0,0,0,.062.768,3.854,3.854,0,0,0,.2.714Zm-1.434-1.047a1.336,1.336,0,0,0,.73-.2,1.1,1.1,0,0,0,.44-.473V9.454h-.881a1.044,1.044,0,0,0-.755.247.812.812,0,0,0-.255.607.606.606,0,0,0,.191.47A.754.754,0,0,0-19.43,10.953Zm6.343-.043a.873.873,0,0,0,.65-.244.887.887,0,0,0,.242-.653h1.429l.011.032a1.819,1.819,0,0,1-.655,1.474,2.45,2.45,0,0,1-1.676.594,2.476,2.476,0,0,1-1.993-.824,3.134,3.134,0,0,1-.7-2.108V9.019a3.154,3.154,0,0,1,.7-2.108,2.454,2.454,0,0,1,1.985-.83,2.4,2.4,0,0,1,1.713.612A2.046,2.046,0,0,1-10.756,8.3l-.011.032H-12.2a1.16,1.16,0,0,0-.239-.749.8.8,0,0,0-.663-.3.9.9,0,0,0-.862.486,2.666,2.666,0,0,0-.255,1.243V9.18a2.656,2.656,0,0,0,.255,1.251A.907.907,0,0,0-13.087,10.91ZM-8.194,12H-9.762V6.188h1.568Zm0-7.2H-9.762V3.621h1.568Zm1.047,4.243a3.119,3.119,0,0,1,.725-2.13,2.527,2.527,0,0,1,2.009-.83,2.554,2.554,0,0,1,2.02.827,3.1,3.1,0,0,1,.73,2.132v.113a3.107,3.107,0,0,1-.728,2.135,2.544,2.544,0,0,1-2.011.824,2.55,2.55,0,0,1-2.017-.824,3.107,3.107,0,0,1-.728-2.135Zm1.563.113A2.528,2.528,0,0,0-5.3,10.429a.964.964,0,0,0,.9.481.955.955,0,0,0,.889-.483,2.511,2.511,0,0,0,.282-1.273V9.041a2.486,2.486,0,0,0-.285-1.262.963.963,0,0,0-.9-.489.951.951,0,0,0-.889.491,2.508,2.508,0,0,0-.282,1.26ZM-4.1,3.707H-2.35l.011.032-1.488,1.4H-5.164ZM.739,6.188l.07.833a2.126,2.126,0,0,1,.714-.693,1.854,1.854,0,0,1,.951-.247,1.728,1.728,0,0,1,1.375.567,2.686,2.686,0,0,1,.494,1.791V12H2.769V8.444a1.391,1.391,0,0,0-.218-.884A.8.8,0,0,0,1.9,7.3a1.369,1.369,0,0,0-.615.132,1.2,1.2,0,0,0-.438.363V12H-.722V6.188ZM10.68,10.91a.873.873,0,0,0,.65-.244.887.887,0,0,0,.242-.653H13l.011.032a1.819,1.819,0,0,1-.655,1.474,2.45,2.45,0,0,1-1.676.594,2.476,2.476,0,0,1-1.993-.824,3.134,3.134,0,0,1-.7-2.108V9.019a3.154,3.154,0,0,1,.7-2.108,2.454,2.454,0,0,1,1.985-.83,2.4,2.4,0,0,1,1.713.612A2.046,2.046,0,0,1,13.011,8.3L13,8.337H11.572a1.16,1.16,0,0,0-.239-.749.8.8,0,0,0-.663-.3.9.9,0,0,0-.862.486,2.666,2.666,0,0,0-.255,1.243V9.18a2.656,2.656,0,0,0,.255,1.251A.907.907,0,0,0,10.68,10.91Zm3-1.869a3.119,3.119,0,0,1,.725-2.13,2.527,2.527,0,0,1,2.009-.83,2.554,2.554,0,0,1,2.02.827,3.1,3.1,0,0,1,.73,2.132v.113a3.107,3.107,0,0,1-.728,2.135,2.544,2.544,0,0,1-2.011.824,2.55,2.55,0,0,1-2.017-.824,3.107,3.107,0,0,1-.728-2.135Zm1.563.113a2.528,2.528,0,0,0,.279,1.276,1.073,1.073,0,0,0,1.791,0A2.511,2.511,0,0,0,17.6,9.153V9.041a2.486,2.486,0,0,0-.285-1.262.963.963,0,0,0-.9-.489.951.951,0,0,0-.889.491,2.508,2.508,0,0,0-.282,1.26Zm6.322-2.965.07.833a2.126,2.126,0,0,1,.714-.693,1.854,1.854,0,0,1,.951-.247,1.728,1.728,0,0,1,1.375.567,2.686,2.686,0,0,1,.494,1.791V12H23.6V8.444a1.391,1.391,0,0,0-.218-.884.8.8,0,0,0-.653-.26,1.369,1.369,0,0,0-.615.132,1.2,1.2,0,0,0-.438.363V12H20.107V6.188Zm6.655-1.423V6.188h.983v1.1h-.983v2.959a.675.675,0,0,0,.142.483.5.5,0,0,0,.373.145,1.5,1.5,0,0,0,.215-.013,1.809,1.809,0,0,0,.209-.046l.129,1.133a3.175,3.175,0,0,1-.459.121,2.738,2.738,0,0,1-.486.04,1.672,1.672,0,0,1-1.249-.446,1.955,1.955,0,0,1-.438-1.413V7.29h-.849v-1.1h.849V4.765ZM31.821,12H30.253V6.188h1.568Zm0-7.2H30.253V3.621h1.568Zm2.723,1.391.07.833a2.126,2.126,0,0,1,.714-.693,1.854,1.854,0,0,1,.951-.247,1.728,1.728,0,0,1,1.375.567,2.686,2.686,0,0,1,.494,1.791V12H36.574V8.444a1.391,1.391,0,0,0-.218-.884A.8.8,0,0,0,35.7,7.3a1.369,1.369,0,0,0-.615.132,1.2,1.2,0,0,0-.438.363V12H33.083V6.188Zm8.336,4.952a1.973,1.973,0,0,1-.682.72,1.808,1.808,0,0,1-.961.252A1.767,1.767,0,0,1,39.8,11.49a2.989,2.989,0,0,1-.518-1.934V6.188h1.563V9.567a1.876,1.876,0,0,0,.207,1.045.743.743,0,0,0,.642.282,1.563,1.563,0,0,0,.645-.121,1.086,1.086,0,0,0,.44-.357V6.188h1.568V12h-1.3ZM48.955,12a3.3,3.3,0,0,1-.148-.419,2.914,2.914,0,0,1-.089-.451,2.15,2.15,0,0,1-.639.7,1.6,1.6,0,0,1-.945.279,1.962,1.962,0,0,1-1.407-.47,1.684,1.684,0,0,1-.494-1.281,1.532,1.532,0,0,1,.658-1.324,3.286,3.286,0,0,1,1.92-.47h.881V8.106a.9.9,0,0,0-.22-.65.864.864,0,0,0-.655-.231.852.852,0,0,0-.588.185.647.647,0,0,0-.207.508H45.512L45.5,7.886a1.474,1.474,0,0,1,.642-1.27,2.788,2.788,0,0,1,1.775-.534,2.6,2.6,0,0,1,1.695.526,1.833,1.833,0,0,1,.647,1.509v2.4a4.541,4.541,0,0,0,.062.768,3.854,3.854,0,0,0,.2.714Zm-1.434-1.047a1.336,1.336,0,0,0,.73-.2,1.1,1.1,0,0,0,.44-.473V9.454h-.881a1.044,1.044,0,0,0-.755.247.812.812,0,0,0-.255.607.606.606,0,0,0,.191.47A.754.754,0,0,0,47.521,10.953Z" transform="translate(1022 8613.309)" fill="#12263f"/>
    <path id="Trazado_884208" data-name="Trazado 884208" d="M-29.871-2.836V0H-31.44V-7.82h2.992a3.08,3.08,0,0,1,2.122.688,2.305,2.305,0,0,1,.773,1.81,2.289,2.289,0,0,1-.773,1.8,3.1,3.1,0,0,1-2.122.682Zm0-1.208h1.423a1.3,1.3,0,0,0,.994-.357,1.27,1.27,0,0,0,.338-.91,1.33,1.33,0,0,0-.336-.932,1.282,1.282,0,0,0-1-.368h-1.423ZM-22.9,0h-1.568V-8.379H-22.9Zm4.716,0a3.3,3.3,0,0,1-.148-.419A2.914,2.914,0,0,1-18.42-.87a2.15,2.15,0,0,1-.639.7A1.6,1.6,0,0,1-20,.113a1.962,1.962,0,0,1-1.407-.47,1.684,1.684,0,0,1-.494-1.281,1.532,1.532,0,0,1,.658-1.324,3.286,3.286,0,0,1,1.92-.47h.881v-.462a.9.9,0,0,0-.22-.65.864.864,0,0,0-.655-.231.852.852,0,0,0-.588.185.647.647,0,0,0-.207.508h-1.509l-.011-.032A1.474,1.474,0,0,1-21-5.385a2.788,2.788,0,0,1,1.775-.534,2.6,2.6,0,0,1,1.695.526,1.833,1.833,0,0,1,.647,1.509v2.4a4.541,4.541,0,0,0,.062.768,3.854,3.854,0,0,0,.2.714Zm-1.434-1.047a1.336,1.336,0,0,0,.73-.2,1.1,1.1,0,0,0,.44-.473v-.822h-.881a1.044,1.044,0,0,0-.755.247.812.812,0,0,0-.255.607.606.606,0,0,0,.191.47A.754.754,0,0,0-19.618-1.047Zm5.35-4.764.07.833a2.126,2.126,0,0,1,.714-.693,1.854,1.854,0,0,1,.951-.247,1.728,1.728,0,0,1,1.375.567,2.686,2.686,0,0,1,.494,1.791V0h-1.574V-3.556a1.391,1.391,0,0,0-.218-.884.8.8,0,0,0-.653-.26,1.369,1.369,0,0,0-.615.132,1.2,1.2,0,0,0-.438.363V0h-1.568V-5.812ZM-7.844,0H-9.413V-5.812h1.568Zm0-7.2H-9.413V-8.379h1.568ZM-6.185,0V-4.71H-7.05v-1.1h.865v-.4A2.14,2.14,0,0,1-5.516-7.9a2.741,2.741,0,0,1,1.883-.594,4.129,4.129,0,0,1,.827.083q.408.083.945.239l-.226,1.235q-.392-.118-.712-.183a3.735,3.735,0,0,0-.733-.064,1.173,1.173,0,0,0-.814.247.932.932,0,0,0-.271.725v.4h1.144v1.1H-4.616V0Zm5.049,0H-2.7V-5.812h1.568ZM2.581-1.09a.873.873,0,0,0,.65-.244.887.887,0,0,0,.242-.653H4.9l.011.032A1.819,1.819,0,0,1,4.257-.481,2.45,2.45,0,0,1,2.581.113,2.476,2.476,0,0,1,.588-.712a3.134,3.134,0,0,1-.7-2.108v-.161a3.154,3.154,0,0,1,.7-2.108,2.454,2.454,0,0,1,1.985-.83,2.4,2.4,0,0,1,1.713.612A2.046,2.046,0,0,1,4.912-3.7L4.9-3.663H3.472a1.16,1.16,0,0,0-.239-.749.8.8,0,0,0-.663-.3.9.9,0,0,0-.862.486,2.666,2.666,0,0,0-.255,1.243v.161a2.656,2.656,0,0,0,.255,1.251A.907.907,0,0,0,2.581-1.09ZM9.252,0A3.3,3.3,0,0,1,9.1-.419,2.914,2.914,0,0,1,9.015-.87a2.15,2.15,0,0,1-.639.7,1.6,1.6,0,0,1-.945.279,1.962,1.962,0,0,1-1.407-.47A1.684,1.684,0,0,1,5.53-1.638a1.532,1.532,0,0,1,.658-1.324,3.286,3.286,0,0,1,1.92-.47h.881v-.462a.9.9,0,0,0-.22-.65.864.864,0,0,0-.655-.231.852.852,0,0,0-.588.185.647.647,0,0,0-.207.508H5.809L5.8-4.114a1.474,1.474,0,0,1,.642-1.27,2.788,2.788,0,0,1,1.775-.534,2.6,2.6,0,0,1,1.695.526,1.833,1.833,0,0,1,.647,1.509v2.4a4.541,4.541,0,0,0,.062.768,3.854,3.854,0,0,0,.2.714ZM7.818-1.047a1.336,1.336,0,0,0,.73-.2,1.1,1.1,0,0,0,.44-.473v-.822H8.108a1.044,1.044,0,0,0-.755.247.812.812,0,0,0-.255.607.606.606,0,0,0,.191.47A.754.754,0,0,0,7.818-1.047Zm6.343-.043a.873.873,0,0,0,.65-.244.887.887,0,0,0,.242-.653h1.429l.011.032a1.819,1.819,0,0,1-.655,1.474,2.45,2.45,0,0,1-1.676.594,2.476,2.476,0,0,1-1.993-.824,3.134,3.134,0,0,1-.7-2.108v-.161a3.154,3.154,0,0,1,.7-2.108,2.454,2.454,0,0,1,1.985-.83,2.4,2.4,0,0,1,1.713.612A2.046,2.046,0,0,1,16.492-3.7l-.011.032H15.052a1.16,1.16,0,0,0-.239-.749.8.8,0,0,0-.663-.3.9.9,0,0,0-.862.486,2.666,2.666,0,0,0-.255,1.243v.161a2.656,2.656,0,0,0,.255,1.251A.907.907,0,0,0,14.161-1.09ZM19.054,0H17.486V-5.812h1.568Zm0-7.2H17.486V-8.379h1.568ZM20.1-2.959a3.119,3.119,0,0,1,.725-2.13,2.527,2.527,0,0,1,2.009-.83,2.554,2.554,0,0,1,2.02.827,3.1,3.1,0,0,1,.73,2.132v.113a3.107,3.107,0,0,1-.728,2.135,2.544,2.544,0,0,1-2.011.824,2.55,2.55,0,0,1-2.017-.824A3.107,3.107,0,0,1,20.1-2.847Zm1.563.113a2.528,2.528,0,0,0,.279,1.276.964.964,0,0,0,.9.481.955.955,0,0,0,.889-.483,2.511,2.511,0,0,0,.282-1.273v-.113a2.486,2.486,0,0,0-.285-1.262.963.963,0,0,0-.9-.489.951.951,0,0,0-.889.491,2.508,2.508,0,0,0-.282,1.26Zm6.322-2.965.07.833a2.126,2.126,0,0,1,.714-.693,1.854,1.854,0,0,1,.951-.247,1.728,1.728,0,0,1,1.375.567,2.686,2.686,0,0,1,.494,1.791V0H30.016V-3.556a1.391,1.391,0,0,0-.218-.884.8.8,0,0,0-.653-.26,1.369,1.369,0,0,0-.615.132,1.2,1.2,0,0,0-.438.363V0H26.525V-5.812Z" transform="translate(924 8447.309)" fill="#00104e"/>
    <path id="Trazado_884209" data-name="Trazado 884209" d="M-16.309,0V-7.82h2.729a3.227,3.227,0,0,1,2.363.916,3.157,3.157,0,0,1,.929,2.35V-3.26a3.146,3.146,0,0,1-.929,2.35A3.237,3.237,0,0,1-13.581,0Zm1.568-6.612V-1.2h1.16a1.531,1.531,0,0,0,1.246-.577,2.26,2.26,0,0,0,.473-1.48V-4.565a2.241,2.241,0,0,0-.473-1.472,1.534,1.534,0,0,0-1.246-.575ZM-7.5,0H-9.069V-5.812H-7.5Zm0-7.2H-9.069V-8.379H-7.5ZM-3.07-1.611a.541.541,0,0,0-.25-.443,2.537,2.537,0,0,0-.927-.325A3.7,3.7,0,0,1-5.8-3,1.349,1.349,0,0,1-6.324-4.12a1.6,1.6,0,0,1,.634-1.273A2.555,2.555,0,0,1-4-5.919a2.758,2.758,0,0,1,1.764.526A1.538,1.538,0,0,1-1.6-4.082l-.011.032H-3.129a.761.761,0,0,0-.226-.569A.893.893,0,0,0-4-4.839a.888.888,0,0,0-.6.188.585.585,0,0,0-.22.462.522.522,0,0,0,.228.438,2.541,2.541,0,0,0,.927.3,3.77,3.77,0,0,1,1.593.631A1.384,1.384,0,0,1-1.55-1.67,1.534,1.534,0,0,1-2.221-.387a2.9,2.9,0,0,1-1.772.5A2.694,2.694,0,0,1-5.828-.475a1.644,1.644,0,0,1-.642-1.34l.011-.032h1.434a.815.815,0,0,0,.306.677,1.264,1.264,0,0,0,.757.209A1.077,1.077,0,0,0-3.3-1.136.566.566,0,0,0-3.07-1.611ZM1.979.113a2.615,2.615,0,0,1-2.03-.8,2.923,2.923,0,0,1-.73-2.054v-.215A3.182,3.182,0,0,1-.073-5.092a2.41,2.41,0,0,1,1.95-.827,2.256,2.256,0,0,1,1.8.717A2.834,2.834,0,0,1,4.3-3.271v.811H.835l-.016.032a1.57,1.57,0,0,0,.363.967,1.214,1.214,0,0,0,.964.371A3.226,3.226,0,0,0,3.04-1.2a3.649,3.649,0,0,0,.76-.328l.424.967a2.911,2.911,0,0,1-.945.478A4.192,4.192,0,0,1,1.979.113Zm-.1-4.823a.871.871,0,0,0-.728.325,1.63,1.63,0,0,0-.309.862L.851-3.5H2.763v-.118a1.357,1.357,0,0,0-.209-.8A.775.775,0,0,0,1.877-4.71Zm4.77-1.1.07.833a2.126,2.126,0,0,1,.714-.693,1.854,1.854,0,0,1,.951-.247,1.728,1.728,0,0,1,1.375.567,2.686,2.686,0,0,1,.494,1.791V0H8.677V-3.556a1.391,1.391,0,0,0-.218-.884.8.8,0,0,0-.653-.26,1.369,1.369,0,0,0-.615.132,1.2,1.2,0,0,0-.438.363V0H5.186V-5.812ZM9.719-8.239a1.282,1.282,0,0,1-.32.878A1.031,1.031,0,0,1,8.591-7a1.968,1.968,0,0,1-.851-.234,1.861,1.861,0,0,0-.755-.234.387.387,0,0,0-.322.175.681.681,0,0,0-.129.416L5.7-7.1a1.308,1.308,0,0,1,.32-.878,1.013,1.013,0,0,1,.8-.373,2.145,2.145,0,0,1,.816.234,2.132,2.132,0,0,0,.795.234.408.408,0,0,0,.322-.172.651.651,0,0,0,.14-.424Zm1.461,5.28a3.119,3.119,0,0,1,.725-2.13,2.527,2.527,0,0,1,2.009-.83,2.554,2.554,0,0,1,2.02.827,3.1,3.1,0,0,1,.73,2.132v.113a3.107,3.107,0,0,1-.728,2.135,2.544,2.544,0,0,1-2.011.824,2.55,2.55,0,0,1-2.017-.824,3.107,3.107,0,0,1-.728-2.135Zm1.563.113a2.528,2.528,0,0,0,.279,1.276.964.964,0,0,0,.9.481.955.955,0,0,0,.889-.483A2.511,2.511,0,0,0,15.1-2.847v-.113a2.486,2.486,0,0,0-.285-1.262.963.963,0,0,0-.9-.489.951.951,0,0,0-.889.491,2.508,2.508,0,0,0-.282,1.26Z" transform="translate(1113 8447.309)" fill="#00104e"/>
    <path id="Trazado_884210" data-name="Trazado 884210" d="M-18.028-2.836V0H-19.6V-7.82H-16.6a3.08,3.08,0,0,1,2.122.688,2.305,2.305,0,0,1,.773,1.81,2.289,2.289,0,0,1-.773,1.8,3.1,3.1,0,0,1-2.122.682Zm0-1.208H-16.6a1.3,1.3,0,0,0,.994-.357,1.27,1.27,0,0,0,.338-.91,1.33,1.33,0,0,0-.336-.932,1.282,1.282,0,0,0-1-.368h-1.423Zm8.379-.419-.575-.016a1.045,1.045,0,0,0-.575.145.919.919,0,0,0-.344.408V0h-1.563V-5.812h1.456l.07.859a1.833,1.833,0,0,1,.529-.712A1.179,1.179,0,0,1-9.9-5.919a1.172,1.172,0,0,1,.218.019q.1.019.2.046Zm4.377,3.6a1.973,1.973,0,0,1-.682.72,1.808,1.808,0,0,1-.961.252A1.767,1.767,0,0,1-8.352-.51,2.989,2.989,0,0,1-8.87-2.444V-5.812h1.563v3.378A1.876,1.876,0,0,0-7.1-1.388a.743.743,0,0,0,.642.282,1.563,1.563,0,0,0,.645-.121,1.086,1.086,0,0,0,.44-.357V-5.812h1.568V0h-1.3ZM-.1.113a2.615,2.615,0,0,1-2.03-.8,2.923,2.923,0,0,1-.73-2.054v-.215a3.182,3.182,0,0,1,.709-2.138,2.41,2.41,0,0,1,1.95-.827,2.256,2.256,0,0,1,1.8.717,2.834,2.834,0,0,1,.626,1.931v.811H-1.249l-.016.032A1.57,1.57,0,0,0-.9-1.461a1.214,1.214,0,0,0,.964.371A3.226,3.226,0,0,0,.956-1.2a3.649,3.649,0,0,0,.76-.328l.424.967A2.911,2.911,0,0,1,1.2-.081,4.192,4.192,0,0,1-.1.113Zm-.1-4.823a.871.871,0,0,0-.728.325,1.63,1.63,0,0,0-.309.862l.011.027H.679v-.118a1.357,1.357,0,0,0-.209-.8A.775.775,0,0,0-.207-4.71ZM8.371-2.745a3.4,3.4,0,0,1-.58,2.079A1.962,1.962,0,0,1,6.115.113,1.771,1.771,0,0,1,5.226-.1,1.837,1.837,0,0,1,4.584-.73L4.455,0H3.129V-8.379H4.692v3.185a1.775,1.775,0,0,1,.6-.537A1.689,1.689,0,0,1,6.1-5.919a1.925,1.925,0,0,1,1.687.835,3.834,3.834,0,0,1,.58,2.226ZM6.808-2.857A3.026,3.026,0,0,0,6.558-4.2a.876.876,0,0,0-.851-.5,1.171,1.171,0,0,0-.618.153,1.061,1.061,0,0,0-.4.438v2.46a1,1,0,0,0,.4.4,1.288,1.288,0,0,0,.626.14.892.892,0,0,0,.849-.427,2.487,2.487,0,0,0,.242-1.211ZM12.764,0a3.3,3.3,0,0,1-.148-.419,2.914,2.914,0,0,1-.089-.451,2.15,2.15,0,0,1-.639.7,1.6,1.6,0,0,1-.945.279,1.962,1.962,0,0,1-1.407-.47,1.684,1.684,0,0,1-.494-1.281A1.532,1.532,0,0,1,9.7-2.962a3.286,3.286,0,0,1,1.92-.47H12.5v-.462a.9.9,0,0,0-.22-.65.864.864,0,0,0-.655-.231.852.852,0,0,0-.588.185.647.647,0,0,0-.207.508H9.322l-.011-.032a1.474,1.474,0,0,1,.642-1.27,2.788,2.788,0,0,1,1.775-.534,2.6,2.6,0,0,1,1.695.526,1.833,1.833,0,0,1,.647,1.509v2.4a4.541,4.541,0,0,0,.062.768,3.854,3.854,0,0,0,.2.714ZM11.33-1.047a1.336,1.336,0,0,0,.73-.2,1.1,1.1,0,0,0,.44-.473v-.822H11.62a1.044,1.044,0,0,0-.755.247.812.812,0,0,0-.255.607.606.606,0,0,0,.191.47A.754.754,0,0,0,11.33-1.047Zm7.058-.564a.541.541,0,0,0-.25-.443,2.537,2.537,0,0,0-.927-.325A3.7,3.7,0,0,1,15.662-3a1.349,1.349,0,0,1-.529-1.123,1.6,1.6,0,0,1,.634-1.273,2.555,2.555,0,0,1,1.687-.526,2.758,2.758,0,0,1,1.764.526,1.538,1.538,0,0,1,.636,1.311l-.011.032H18.329a.761.761,0,0,0-.226-.569.893.893,0,0,0-.65-.22.888.888,0,0,0-.6.188.585.585,0,0,0-.22.462.522.522,0,0,0,.228.438,2.541,2.541,0,0,0,.927.3,3.77,3.77,0,0,1,1.593.631,1.384,1.384,0,0,1,.524,1.147,1.534,1.534,0,0,1-.671,1.284,2.9,2.9,0,0,1-1.772.5A2.694,2.694,0,0,1,15.63-.475a1.644,1.644,0,0,1-.642-1.34L15-1.848h1.434a.815.815,0,0,0,.306.677,1.264,1.264,0,0,0,.757.209,1.077,1.077,0,0,0,.663-.175A.566.566,0,0,0,18.388-1.611Z" transform="translate(924 8533.309)" fill="#00104e"/>
    <path id="Trazado_884211" data-name="Trazado 884211" d="M-29.818-1.2h3.5V0h-5.07V-7.82h1.568ZM-21.965,0a3.3,3.3,0,0,1-.148-.419A2.914,2.914,0,0,1-22.2-.87a2.15,2.15,0,0,1-.639.7,1.6,1.6,0,0,1-.945.279,1.962,1.962,0,0,1-1.407-.47,1.684,1.684,0,0,1-.494-1.281,1.532,1.532,0,0,1,.658-1.324,3.286,3.286,0,0,1,1.92-.47h.881v-.462a.9.9,0,0,0-.22-.65.864.864,0,0,0-.655-.231.852.852,0,0,0-.588.185.647.647,0,0,0-.207.508h-1.509l-.011-.032a1.474,1.474,0,0,1,.642-1.27A2.788,2.788,0,0,1-23-5.919a2.6,2.6,0,0,1,1.695.526,1.833,1.833,0,0,1,.647,1.509v2.4a4.541,4.541,0,0,0,.062.768A3.854,3.854,0,0,0-20.4,0ZM-23.4-1.047a1.336,1.336,0,0,0,.73-.2,1.1,1.1,0,0,0,.44-.473v-.822h-.881a1.044,1.044,0,0,0-.755.247.812.812,0,0,0-.255.607.606.606,0,0,0,.191.47A.754.754,0,0,0-23.4-1.047Zm5.35-4.764.07.833a2.126,2.126,0,0,1,.714-.693,1.854,1.854,0,0,1,.951-.247,1.728,1.728,0,0,1,1.375.567,2.686,2.686,0,0,1,.494,1.791V0h-1.574V-3.556a1.391,1.391,0,0,0-.218-.884.8.8,0,0,0-.653-.26,1.369,1.369,0,0,0-.615.132,1.2,1.2,0,0,0-.438.363V0H-19.51V-5.812ZM-11.524-1.2h2.879V0h-4.829V-.924L-10.707-4.6h-2.68V-5.812h4.651v.9ZM-4.23,0a3.3,3.3,0,0,1-.148-.419A2.914,2.914,0,0,1-4.466-.87a2.15,2.15,0,0,1-.639.7,1.6,1.6,0,0,1-.945.279,1.962,1.962,0,0,1-1.407-.47,1.684,1.684,0,0,1-.494-1.281,1.532,1.532,0,0,1,.658-1.324,3.286,3.286,0,0,1,1.92-.47h.881v-.462a.9.9,0,0,0-.22-.65.864.864,0,0,0-.655-.231.852.852,0,0,0-.588.185.647.647,0,0,0-.207.508H-7.673l-.011-.032a1.474,1.474,0,0,1,.642-1.27,2.788,2.788,0,0,1,1.775-.534,2.6,2.6,0,0,1,1.695.526,1.833,1.833,0,0,1,.647,1.509v2.4a4.541,4.541,0,0,0,.062.768,3.854,3.854,0,0,0,.2.714ZM-5.664-1.047a1.336,1.336,0,0,0,.73-.2,1.1,1.1,0,0,0,.44-.473v-.822h-.881a1.044,1.044,0,0,0-.755.247.812.812,0,0,0-.255.607.606.606,0,0,0,.191.47A.754.754,0,0,0-5.664-1.047ZM-.293-5.812l.064.768a1.952,1.952,0,0,1,.7-.647,2.016,2.016,0,0,1,.975-.228,1.775,1.775,0,0,1,.956.247,1.524,1.524,0,0,1,.6.747,2.014,2.014,0,0,1,.7-.73,1.9,1.9,0,0,1,1.01-.263,1.656,1.656,0,0,1,1.356.61,2.91,2.91,0,0,1,.5,1.861V0H5V-3.454a1.629,1.629,0,0,0-.215-.972A.763.763,0,0,0,4.144-4.7a1.1,1.1,0,0,0-.577.148,1.076,1.076,0,0,0-.389.411q0,.1.005.175t.005.148V0H1.625V-3.454a1.634,1.634,0,0,0-.215-.964A.759.759,0,0,0,.765-4.7a1.216,1.216,0,0,0-.556.121,1.066,1.066,0,0,0-.395.341V0H-1.748V-5.812ZM9.418,0H7.85V-5.812H9.418Zm0-7.2H7.85V-8.379H9.418ZM13.226.113a2.615,2.615,0,0,1-2.03-.8,2.923,2.923,0,0,1-.73-2.054v-.215a3.182,3.182,0,0,1,.709-2.138,2.41,2.41,0,0,1,1.95-.827,2.256,2.256,0,0,1,1.8.717,2.834,2.834,0,0,1,.626,1.931v.811H12.082l-.016.032a1.57,1.57,0,0,0,.363.967,1.214,1.214,0,0,0,.964.371,3.226,3.226,0,0,0,.894-.107,3.649,3.649,0,0,0,.76-.328l.424.967a2.911,2.911,0,0,1-.945.478A4.192,4.192,0,0,1,13.226.113Zm-.1-4.823a.871.871,0,0,0-.728.325,1.63,1.63,0,0,0-.309.862L12.1-3.5H14.01v-.118a1.357,1.357,0,0,0-.209-.8A.775.775,0,0,0,13.124-4.71Zm4.77-1.1.07.833a2.126,2.126,0,0,1,.714-.693,1.854,1.854,0,0,1,.951-.247A1.728,1.728,0,0,1,21-5.352,2.686,2.686,0,0,1,21.5-3.561V0H19.924V-3.556a1.391,1.391,0,0,0-.218-.884.8.8,0,0,0-.653-.26,1.369,1.369,0,0,0-.615.132A1.2,1.2,0,0,0,18-4.206V0H16.433V-5.812Zm6.655-1.423v1.423h.983v1.1h-.983v2.959a.675.675,0,0,0,.142.483.5.5,0,0,0,.373.145,1.5,1.5,0,0,0,.215-.013,1.809,1.809,0,0,0,.209-.046l.129,1.133a3.175,3.175,0,0,1-.459.121,2.738,2.738,0,0,1-.486.04,1.672,1.672,0,0,1-1.249-.446,1.955,1.955,0,0,1-.438-1.413V-4.71h-.849v-1.1h.849V-7.235Zm1.708,4.275a3.119,3.119,0,0,1,.725-2.13,2.527,2.527,0,0,1,2.009-.83,2.554,2.554,0,0,1,2.02.827,3.1,3.1,0,0,1,.73,2.132v.113a3.107,3.107,0,0,1-.728,2.135A2.544,2.544,0,0,1,29,.113a2.55,2.55,0,0,1-2.017-.824,3.107,3.107,0,0,1-.728-2.135Zm1.563.113A2.528,2.528,0,0,0,28.1-1.571a.964.964,0,0,0,.9.481.955.955,0,0,0,.889-.483,2.511,2.511,0,0,0,.282-1.273v-.113a2.486,2.486,0,0,0-.285-1.262.963.963,0,0,0-.9-.489.951.951,0,0,0-.889.491,2.508,2.508,0,0,0-.282,1.26Z" transform="translate(815.297 8552.296)" fill="#00104e"/>
    <path id="Trazado_884212" data-name="Trazado 884212" d="M-24.25-2.589l.011.032A2.448,2.448,0,0,1-25-.6a3.11,3.11,0,0,1-2.165.709,3,3,0,0,1-2.272-.905A3.247,3.247,0,0,1-30.3-3.131V-4.684a3.306,3.306,0,0,1,.843-2.339,2.875,2.875,0,0,1,2.213-.91,3.3,3.3,0,0,1,2.234.7,2.4,2.4,0,0,1,.784,1.966l-.011.032h-1.525a1.537,1.537,0,0,0-.363-1.12,1.512,1.512,0,0,0-1.12-.368,1.264,1.264,0,0,0-1.1.567,2.506,2.506,0,0,0-.395,1.464v1.563a2.432,2.432,0,0,0,.416,1.472,1.353,1.353,0,0,0,1.157.569,1.377,1.377,0,0,0,1.05-.368,1.6,1.6,0,0,0,.346-1.131Zm.773-.371a3.119,3.119,0,0,1,.725-2.13,2.527,2.527,0,0,1,2.009-.83,2.554,2.554,0,0,1,2.02.827,3.1,3.1,0,0,1,.73,2.132v.113a3.107,3.107,0,0,1-.728,2.135,2.544,2.544,0,0,1-2.011.824,2.55,2.55,0,0,1-2.017-.824,3.107,3.107,0,0,1-.728-2.135Zm1.563.113a2.528,2.528,0,0,0,.279,1.276.964.964,0,0,0,.9.481.955.955,0,0,0,.889-.483,2.511,2.511,0,0,0,.282-1.273v-.113a2.486,2.486,0,0,0-.285-1.262.963.963,0,0,0-.9-.489.951.951,0,0,0-.889.491,2.508,2.508,0,0,0-.282,1.26Zm4.646-.011a3.776,3.776,0,0,1,.594-2.218A1.927,1.927,0,0,1-15-5.919a1.627,1.627,0,0,1,.784.188,1.887,1.887,0,0,1,.612.537V-8.379h1.574V0h-1.337L-13.5-.714a1.943,1.943,0,0,1-.65.615,1.718,1.718,0,0,1-.859.212,1.965,1.965,0,0,1-1.662-.784,3.349,3.349,0,0,1-.594-2.073Zm1.563.113a2.367,2.367,0,0,0,.258,1.2.9.9,0,0,0,.838.438,1.22,1.22,0,0,0,.591-.137,1.093,1.093,0,0,0,.414-.4V-4.12a1.207,1.207,0,0,0-.411-.427A1.093,1.093,0,0,0-14.6-4.7a.885.885,0,0,0-.841.51,2.883,2.883,0,0,0-.266,1.332ZM-9.168,0h-1.568V-5.812h1.568Zm0-7.2h-1.568V-8.379h1.568ZM-7.509,0V-4.71h-.865v-1.1h.865v-.4A2.14,2.14,0,0,1-6.84-7.9a2.741,2.741,0,0,1,1.883-.594,4.129,4.129,0,0,1,.827.083q.408.083.945.239l-.226,1.235q-.392-.118-.712-.183a3.735,3.735,0,0,0-.733-.064,1.173,1.173,0,0,0-.814.247.932.932,0,0,0-.271.725v.4H-4.8v1.1H-5.94V0ZM-2.46,0H-4.028V-5.812H-2.46ZM1.257-1.09a.873.873,0,0,0,.65-.244.887.887,0,0,0,.242-.653H3.577l.011.032A1.819,1.819,0,0,1,2.933-.481,2.45,2.45,0,0,1,1.257.113,2.476,2.476,0,0,1-.736-.712a3.134,3.134,0,0,1-.7-2.108v-.161a3.154,3.154,0,0,1,.7-2.108,2.454,2.454,0,0,1,1.985-.83,2.4,2.4,0,0,1,1.713.612A2.046,2.046,0,0,1,3.588-3.7l-.011.032H2.148a1.16,1.16,0,0,0-.239-.749.8.8,0,0,0-.663-.3.9.9,0,0,0-.862.486A2.666,2.666,0,0,0,.129-2.981v.161A2.656,2.656,0,0,0,.384-1.568.907.907,0,0,0,1.257-1.09ZM7.928,0A3.3,3.3,0,0,1,7.78-.419,2.914,2.914,0,0,1,7.691-.87a2.15,2.15,0,0,1-.639.7,1.6,1.6,0,0,1-.945.279A1.962,1.962,0,0,1,4.7-.357a1.684,1.684,0,0,1-.494-1.281,1.532,1.532,0,0,1,.658-1.324,3.286,3.286,0,0,1,1.92-.47h.881v-.462a.9.9,0,0,0-.22-.65.864.864,0,0,0-.655-.231A.852.852,0,0,0,6.2-4.59a.647.647,0,0,0-.207.508H4.485l-.011-.032a1.474,1.474,0,0,1,.642-1.27,2.788,2.788,0,0,1,1.775-.534,2.6,2.6,0,0,1,1.695.526,1.833,1.833,0,0,1,.647,1.509v2.4a4.541,4.541,0,0,0,.062.768,3.854,3.854,0,0,0,.2.714ZM6.494-1.047a1.336,1.336,0,0,0,.73-.2,1.1,1.1,0,0,0,.44-.473v-.822H6.784a1.044,1.044,0,0,0-.755.247.812.812,0,0,0-.255.607.606.606,0,0,0,.191.47A.754.754,0,0,0,6.494-1.047Zm6.343-.043a.873.873,0,0,0,.65-.244.887.887,0,0,0,.242-.653h1.429l.011.032a1.819,1.819,0,0,1-.655,1.474,2.45,2.45,0,0,1-1.676.594,2.476,2.476,0,0,1-1.993-.824,3.134,3.134,0,0,1-.7-2.108v-.161a3.154,3.154,0,0,1,.7-2.108,2.454,2.454,0,0,1,1.985-.83,2.4,2.4,0,0,1,1.713.612A2.046,2.046,0,0,1,15.168-3.7l-.011.032H13.729a1.16,1.16,0,0,0-.239-.749.8.8,0,0,0-.663-.3.9.9,0,0,0-.862.486,2.666,2.666,0,0,0-.255,1.243v.161a2.656,2.656,0,0,0,.255,1.251A.907.907,0,0,0,12.837-1.09ZM17.73,0H16.162V-5.812H17.73Zm0-7.2H16.162V-8.379H17.73Zm1.047,4.243a3.119,3.119,0,0,1,.725-2.13,2.527,2.527,0,0,1,2.009-.83,2.554,2.554,0,0,1,2.02.827,3.1,3.1,0,0,1,.73,2.132v.113a3.107,3.107,0,0,1-.728,2.135,2.544,2.544,0,0,1-2.011.824,2.55,2.55,0,0,1-2.017-.824,3.107,3.107,0,0,1-.728-2.135Zm1.563.113a2.528,2.528,0,0,0,.279,1.276.964.964,0,0,0,.9.481.955.955,0,0,0,.889-.483,2.511,2.511,0,0,0,.282-1.273v-.113a2.486,2.486,0,0,0-.285-1.262.963.963,0,0,0-.9-.489.951.951,0,0,0-.889.491,2.508,2.508,0,0,0-.282,1.26Zm1.488-5.446h1.746l.011.032L22.1-6.864H20.759Zm4.834,2.481.07.833a2.126,2.126,0,0,1,.714-.693,1.854,1.854,0,0,1,.951-.247,1.728,1.728,0,0,1,1.375.567,2.686,2.686,0,0,1,.494,1.791V0H28.692V-3.556a1.391,1.391,0,0,0-.218-.884.8.8,0,0,0-.653-.26,1.369,1.369,0,0,0-.615.132,1.2,1.2,0,0,0-.438.363V0H25.2V-5.812Z" transform="translate(1113 8533.309)" fill="#00104e"/>
  </g>
</svg>
