<svg xmlns="http://www.w3.org/2000/svg" width="94.548" height="70.911" viewBox="0 0 94.548 70.911">
  <g id="Layer_13" data-name="Layer 13" transform="translate(0 -8)">
    <path id="Trazado_823686" data-name="Trazado 823686" d="M10.909,13H78.865a5.909,5.909,0,0,1,5.909,5.909V66.183H5V18.909A5.909,5.909,0,0,1,10.909,13Z" transform="translate(2.387 2.387)" fill="#d6e4e8"/>
    <path id="Trazado_823687" data-name="Trazado 823687" d="M11,13H67.138V66.183H11Z" transform="translate(5.25 2.387)" fill="#baced3"/>
    <path id="Trazado_823688" data-name="Trazado 823688" d="M33.069,61.7A23.637,23.637,0,0,1,9.432,38.063V14.426a5.871,5.871,0,0,1,.16-1.318A5.909,5.909,0,0,0,5,18.858V66.132H84.775V61.7Z" transform="translate(2.387 2.438)" fill="#baced3"/>
    <path id="Trazado_823689" data-name="Trazado 823689" d="M18.909,9H63.228a5.909,5.909,0,0,1,5.909,5.909V68.092H13V14.909A5.909,5.909,0,0,1,18.909,9Z" transform="translate(6.205 0.477)" fill="#f8c460"/>
    <path id="Trazado_823690" data-name="Trazado 823690" d="M35.16,63.609A17.728,17.728,0,0,1,17.432,45.881V10.426a5.871,5.871,0,0,1,.16-1.318A5.909,5.909,0,0,0,13,14.858V68.041H69.138V63.609Z" transform="translate(6.205 0.529)" fill="#faaf42"/>
    <g id="Grupo_1073683" data-name="Grupo 1073683" transform="translate(24.85 16.518)">
      <ellipse id="Elipse_9845" data-name="Elipse 9845" cx="6.171" cy="5.29" rx="6.171" ry="5.29" transform="translate(0 0)" fill="#f97878"/>
      <circle id="Elipse_9846" data-name="Elipse 9846" cx="6.171" cy="6.171" r="6.171" transform="translate(0 16.751)" fill="#f97878"/>
      <circle id="Elipse_9847" data-name="Elipse 9847" cx="6.171" cy="6.171" r="6.171" transform="translate(0 34.383)" fill="#f97878"/>
    </g>
    <path id="Trazado_823691" data-name="Trazado 823691" d="M1,49H92.593v2.955a5.909,5.909,0,0,1-5.909,5.909H6.909A5.909,5.909,0,0,1,1,51.955Z" transform="translate(0.477 19.57)" fill="#7a838b"/>
    <path id="Trazado_823692" data-name="Trazado 823692" d="M5.432,51.955V49H1v2.955a5.909,5.909,0,0,0,5.909,5.909h4.432A5.909,5.909,0,0,1,5.432,51.955Z" transform="translate(0.477 19.57)" fill="#5d6972"/>
    <path id="Trazado_823693" data-name="Trazado 823693" d="M25,49H45.682v1.477a2.955,2.955,0,0,1-2.955,2.955H27.955A2.955,2.955,0,0,1,25,50.477Z" transform="translate(11.933 19.57)" fill="#d6e4e8"/>
    <path id="Trazado_823694" data-name="Trazado 823694" d="M23.392,26.773A7.375,7.375,0,0,0,29.548,15.32l.8-.8a1.477,1.477,0,1,0-2.089-2.089l-.8.8a7.387,7.387,0,1,0-4.067,13.542Zm0-11.818a4.36,4.36,0,0,1,1.9.443l-4.42,4.42a1.477,1.477,0,1,0,2.089,2.089l4.421-4.419a4.36,4.36,0,0,1,.443,1.9,4.432,4.432,0,1,1-4.432-4.432Z" transform="translate(7.632 1.909)" fill="#12263f"/>
    <path id="Trazado_823695" data-name="Trazado 823695" d="M23.392,38.773A7.375,7.375,0,0,0,29.548,27.32l.8-.8a1.477,1.477,0,1,0-2.089-2.089l-.8.8a7.387,7.387,0,1,0-4.067,13.542Zm0-11.818a4.36,4.36,0,0,1,1.9.443l-4.42,4.42a1.477,1.477,0,1,0,2.089,2.089l4.421-4.419a4.36,4.36,0,0,1,.443,1.9,4.432,4.432,0,1,1-4.432-4.432Z" transform="translate(7.632 7.637)" fill="#12263f"/>
    <path id="Trazado_823696" data-name="Trazado 823696" d="M31.477,16.955H55.114a1.477,1.477,0,1,0,0-2.955H31.477a1.477,1.477,0,0,0,0,2.955Z" transform="translate(14.319 2.864)" fill="#12263f"/>
    <path id="Trazado_823697" data-name="Trazado 823697" d="M29.477,20.955H56.069a1.477,1.477,0,1,0,0-2.955H29.477a1.477,1.477,0,1,0,0,2.955Z" transform="translate(13.365 4.773)" fill="#12263f"/>
    <path id="Trazado_823698" data-name="Trazado 823698" d="M55.114,26H31.477a1.477,1.477,0,0,0,0,2.955H55.114a1.477,1.477,0,1,0,0-2.955Z" transform="translate(14.319 8.592)" fill="#12263f"/>
    <path id="Trazado_823699" data-name="Trazado 823699" d="M29.477,32.955H56.069a1.477,1.477,0,1,0,0-2.955H29.477a1.477,1.477,0,0,0,0,2.955Z" transform="translate(13.365 10.501)" fill="#12263f"/>
    <path id="Trazado_823700" data-name="Trazado 823700" d="M29.557,39.32l.8-.8a1.477,1.477,0,1,0-2.089-2.089l-.8.8a7.409,7.409,0,1,0,2.089,2.089Zm-6.156,8.5a4.432,4.432,0,1,1,0-8.864,4.36,4.36,0,0,1,1.9.443l-4.42,4.42a1.477,1.477,0,1,0,2.089,2.089l4.421-4.419a4.36,4.36,0,0,1,.443,1.9A4.432,4.432,0,0,1,23.4,47.819Z" transform="translate(7.623 13.364)" fill="#12263f"/>
    <path id="Trazado_823701" data-name="Trazado 823701" d="M55.114,38H31.477a1.477,1.477,0,0,0,0,2.955H55.114a1.477,1.477,0,1,0,0-2.955Z" transform="translate(14.319 14.319)" fill="#12263f"/>
    <path id="Trazado_823702" data-name="Trazado 823702" d="M29.477,44.955H56.069a1.477,1.477,0,1,0,0-2.955H29.477a1.477,1.477,0,1,0,0,2.955Z" transform="translate(13.365 16.228)" fill="#12263f"/>
    <path id="Trazado_823703" data-name="Trazado 823703" d="M93.07,67.092H88.638V21.3a7.4,7.4,0,0,0-7.387-7.387h-4.58A7.4,7.4,0,0,0,69.433,8H25.114a7.4,7.4,0,0,0-7.239,5.909H13.3A7.4,7.4,0,0,0,5.909,21.3v45.8H1.477A1.477,1.477,0,0,0,0,68.57v2.955a7.4,7.4,0,0,0,7.387,7.387H87.161a7.4,7.4,0,0,0,7.387-7.387V68.57A1.477,1.477,0,0,0,93.07,67.092ZM20.682,15.387a4.432,4.432,0,0,1,4.432-4.432H69.433a4.432,4.432,0,0,1,4.432,4.432V24.25a1.477,1.477,0,1,0,2.955,0V16.864h4.432A4.432,4.432,0,0,1,85.684,21.3v45.8H76.82V30.16a1.477,1.477,0,1,0-2.955,0V67.092H20.682Zm35.455,54.66a1.477,1.477,0,0,1-1.477,1.477H39.887a1.477,1.477,0,0,1-1.477-1.477ZM8.864,21.3A4.432,4.432,0,0,1,13.3,16.864h4.432V67.092H8.864ZM91.593,71.524a4.432,4.432,0,0,1-4.432,4.432H7.387a4.432,4.432,0,0,1-4.432-4.432V70.047h32.5a4.432,4.432,0,0,0,4.432,4.432H54.66a4.432,4.432,0,0,0,4.432-4.432h32.5Z" transform="translate(0 0)" fill="#12263f"/>
  </g>
</svg>
