<svg xmlns="http://www.w3.org/2000/svg" width="610" height="182.981" viewBox="0 0 610 182.981">
  <g id="Grupo_1102275" data-name="Grupo 1102275" transform="translate(-504.75 -2149.019)">
    <path id="Trazado_883806" data-name="Trazado 883806" d="M-25.761-4.236l.018.053A4.006,4.006,0,0,1-26.991-.976,5.089,5.089,0,0,1-30.533.185,4.906,4.906,0,0,1-34.251-1.3a5.312,5.312,0,0,1-1.415-3.828v-2.54a5.41,5.41,0,0,1,1.38-3.828,4.7,4.7,0,0,1,3.621-1.49,5.4,5.4,0,0,1,3.656,1.143,3.934,3.934,0,0,1,1.283,3.217l-.018.053h-2.5a2.516,2.516,0,0,0-.593-1.833,2.474,2.474,0,0,0-1.833-.6,2.069,2.069,0,0,0-1.8.927,4.1,4.1,0,0,0-.646,2.4v2.558a3.98,3.98,0,0,0,.681,2.408,2.214,2.214,0,0,0,1.894.932,2.253,2.253,0,0,0,1.718-.6,2.619,2.619,0,0,0,.567-1.85Zm1.266-.606a5.1,5.1,0,0,1,1.187-3.485,4.136,4.136,0,0,1,3.287-1.358,4.18,4.18,0,0,1,3.3,1.354,5.076,5.076,0,0,1,1.2,3.489v.185a5.084,5.084,0,0,1-1.191,3.494A4.162,4.162,0,0,1-20,.185a4.173,4.173,0,0,1-3.3-1.349A5.084,5.084,0,0,1-24.5-4.658Zm2.558.185a4.137,4.137,0,0,0,.457,2.087A1.578,1.578,0,0,0-20-1.784a1.562,1.562,0,0,0,1.455-.791,4.11,4.11,0,0,0,.461-2.083v-.185a4.068,4.068,0,0,0-.466-2.065,1.576,1.576,0,0,0-1.468-.8,1.557,1.557,0,0,0-1.455.8,4.1,4.1,0,0,0-.461,2.061ZM-11.593-9.51l.114,1.362A3.478,3.478,0,0,1-10.31-9.281a3.034,3.034,0,0,1,1.556-.4,2.828,2.828,0,0,1,2.25.927A4.4,4.4,0,0,1-5.7-5.827V0H-8.271V-5.818a2.277,2.277,0,0,0-.356-1.446A1.312,1.312,0,0,0-9.694-7.69a2.241,2.241,0,0,0-1.006.215,1.965,1.965,0,0,0-.716.593V0h-2.566V-9.51ZM-.7-11.839V-9.51H.905v1.8H-.7v4.843a1.105,1.105,0,0,0,.233.791.818.818,0,0,0,.611.237,2.45,2.45,0,0,0,.352-.022,2.961,2.961,0,0,0,.343-.075L1.046-.079a5.2,5.2,0,0,1-.751.2A4.48,4.48,0,0,1-.5.185,2.735,2.735,0,0,1-2.544-.545a3.2,3.2,0,0,1-.716-2.312V-7.708H-4.649v-1.8h1.389v-2.329ZM6.609.185A4.279,4.279,0,0,1,3.287-1.121a4.784,4.784,0,0,1-1.2-3.362v-.352a5.207,5.207,0,0,1,1.16-3.5,3.944,3.944,0,0,1,3.19-1.354,3.692,3.692,0,0,1,2.94,1.173,4.637,4.637,0,0,1,1.024,3.16v1.327H4.737l-.026.053A2.569,2.569,0,0,0,5.3-2.391a1.987,1.987,0,0,0,1.578.606A5.279,5.279,0,0,0,8.345-1.96,5.971,5.971,0,0,0,9.589-2.5l.694,1.582a4.764,4.764,0,0,1-1.547.782A6.86,6.86,0,0,1,6.609.185ZM6.442-7.708a1.425,1.425,0,0,0-1.191.532,2.667,2.667,0,0,0-.505,1.411l.018.044H7.893v-.193A2.221,2.221,0,0,0,7.55-7.229,1.268,1.268,0,0,0,6.442-7.708Zm9.035,1.222h.053L16.989-9.51h2.9l-2.865,4.7L19.986,0H17.095L15.539-3.155,13.983,0h-2.9l2.962-4.808-2.874-4.7h2.883Zm8.692-5.353V-9.51h1.608v1.8H24.17v4.843a1.105,1.105,0,0,0,.233.791.818.818,0,0,0,.611.237,2.45,2.45,0,0,0,.352-.022,2.961,2.961,0,0,0,.343-.075l.211,1.854a5.2,5.2,0,0,1-.751.2,4.48,4.48,0,0,1-.8.066,2.735,2.735,0,0,1-2.043-.729,3.2,3.2,0,0,1-.716-2.312V-7.708H20.224v-1.8h1.389v-2.329Zm2.795,7a5.1,5.1,0,0,1,1.187-3.485,4.136,4.136,0,0,1,3.287-1.358,4.18,4.18,0,0,1,3.3,1.354,5.076,5.076,0,0,1,1.2,3.489v.185a5.084,5.084,0,0,1-1.191,3.494A4.162,4.162,0,0,1,31.456.185a4.173,4.173,0,0,1-3.3-1.349,5.084,5.084,0,0,1-1.191-3.494Zm2.558.185a4.137,4.137,0,0,0,.457,2.087,1.578,1.578,0,0,0,1.477.787,1.562,1.562,0,0,0,1.455-.791,4.11,4.11,0,0,0,.461-2.083v-.185a4.068,4.068,0,0,0-.466-2.065,1.576,1.576,0,0,0-1.468-.8,1.557,1.557,0,0,0-1.455.8,4.1,4.1,0,0,0-.461,2.061Z" transform="translate(810.75 2162)" fill="#12263f"/>
    <path id="Trazado_878082" data-name="Trazado 878082" d="M-7719.743-9486h58.169" transform="translate(8385.75 11700)" fill="none" stroke="#3a1d71" stroke-width="2"/>
    <path id="Trazado_878086" data-name="Trazado 878086" d="M-7719.743-9486h58.169" transform="translate(8604.75 11700)" fill="none" stroke="#3a1d71" stroke-width="2"/>
    <path id="Trazado_883807" data-name="Trazado 883807" d="M3,0H170a3,3,0,0,1,3,3V37a3,3,0,0,1-3,3H3a3,3,0,0,1-3-3V3A3,3,0,0,1,3,0Z" transform="translate(723.75 2194)" fill="#aec4fa"/>
    <path id="Trazado_883808" data-name="Trazado 883808" d="M-26.594-4.562V0h-1.539V-11.375h4.352a4.009,4.009,0,0,1,2.832.938,3.207,3.207,0,0,1,1.012,2.469,3.2,3.2,0,0,1-1.012,2.477,4.031,4.031,0,0,1-2.832.93Zm0-1.2h2.813a2.231,2.231,0,0,0,1.727-.621,2.227,2.227,0,0,0,.57-1.566,2.26,2.26,0,0,0-.574-1.578,2.21,2.21,0,0,0-1.723-.633h-2.812Zm12.422-1.328-.789-.047a1.762,1.762,0,0,0-1.027.289,1.854,1.854,0,0,0-.645.813V0h-1.539V-8.453H-16.8l.148,1.234a2.934,2.934,0,0,1,.887-1.023,2.073,2.073,0,0,1,1.215-.367,1.9,1.9,0,0,1,.328.027,2.175,2.175,0,0,1,.258.059ZM-13.086-4.3a4.654,4.654,0,0,1,1.016-3.09A3.406,3.406,0,0,1-9.312-8.609,3.439,3.439,0,0,1-6.535-7.4,4.639,4.639,0,0,1-5.516-4.3v.172A4.631,4.631,0,0,1-6.531-1.039,3.429,3.429,0,0,1-9.3.164a3.436,3.436,0,0,1-2.77-1.207,4.623,4.623,0,0,1-1.02-3.09Zm1.539.172a4.009,4.009,0,0,0,.566,2.219A1.875,1.875,0,0,0-9.3-1.039a1.87,1.87,0,0,0,1.672-.875,3.988,3.988,0,0,0,.57-2.219V-4.3a3.976,3.976,0,0,0-.574-2.211A1.882,1.882,0,0,0-9.312-7.4a1.856,1.856,0,0,0-1.668.883A4.018,4.018,0,0,0-11.547-4.3ZM-.273-1.039A1.81,1.81,0,0,0,.969-1.512,1.494,1.494,0,0,0,1.5-2.672H2.891l.023.047A2.428,2.428,0,0,1,1.977-.684,3.313,3.313,0,0,1-.273.164a3.319,3.319,0,0,1-2.75-1.211,4.674,4.674,0,0,1-.969-3.016v-.328a4.654,4.654,0,0,1,.973-3A3.317,3.317,0,0,1-.273-8.609a3.189,3.189,0,0,1,2.316.875,2.775,2.775,0,0,1,.871,2.148L2.9-5.539H1.5A1.865,1.865,0,0,0,1-6.855,1.658,1.658,0,0,0-.273-7.4a1.777,1.777,0,0,0-1.652.879,4.114,4.114,0,0,0-.52,2.129v.328a4.192,4.192,0,0,0,.512,2.148A1.776,1.776,0,0,0-.273-1.039ZM8.242.164A3.576,3.576,0,0,1,5.4-1a4.48,4.48,0,0,1-1.02-3.062v-.344A4.386,4.386,0,0,1,5.434-7.418,3.3,3.3,0,0,1,8-8.609a3.067,3.067,0,0,1,2.543,1.055,4.345,4.345,0,0,1,.848,2.8v.813H5.984L5.961-3.9a3.494,3.494,0,0,0,.563,2.066,1.965,1.965,0,0,0,1.719.793,3.872,3.872,0,0,0,1.371-.223,3.061,3.061,0,0,0,1.012-.613l.6,1a3.7,3.7,0,0,1-1.2.738A4.762,4.762,0,0,1,8.242.164ZM8-7.4a1.673,1.673,0,0,0-1.332.621,2.938,2.938,0,0,0-.645,1.59l.016.039H9.852v-.125A2.462,2.462,0,0,0,9.4-6.8,1.638,1.638,0,0,0,8-7.4ZM18.031-2.273a1.026,1.026,0,0,0-.387-.828,3.732,3.732,0,0,0-1.465-.562,6.146,6.146,0,0,1-2.293-.9,1.814,1.814,0,0,1-.8-1.547,2.229,2.229,0,0,1,.879-1.766,3.433,3.433,0,0,1,2.277-.734,3.4,3.4,0,0,1,2.328.781,2.239,2.239,0,0,1,.852,1.82l-.016.047H17.938a1.331,1.331,0,0,0-.48-.992A1.717,1.717,0,0,0,16.242-7.4a1.751,1.751,0,0,0-1.215.367,1.146,1.146,0,0,0-.4.875.927.927,0,0,0,.348.773,3.848,3.848,0,0,0,1.434.5,6.058,6.058,0,0,1,2.359.93,1.872,1.872,0,0,1,.8,1.57,2.226,2.226,0,0,1-.91,1.836,3.754,3.754,0,0,1-2.379.711,3.715,3.715,0,0,1-2.547-.82,2.341,2.341,0,0,1-.883-1.914l.016-.047h1.469a1.424,1.424,0,0,0,.609,1.2,2.358,2.358,0,0,0,1.336.379,2.1,2.1,0,0,0,1.285-.348A1.063,1.063,0,0,0,18.031-2.273ZM21.125-4.3a4.654,4.654,0,0,1,1.016-3.09A3.406,3.406,0,0,1,24.9-8.609,3.439,3.439,0,0,1,27.676-7.4,4.639,4.639,0,0,1,28.7-4.3v.172A4.631,4.631,0,0,1,27.68-1.039a3.429,3.429,0,0,1-2.766,1.2,3.436,3.436,0,0,1-2.77-1.207,4.623,4.623,0,0,1-1.02-3.09Zm1.539.172a4.009,4.009,0,0,0,.566,2.219,1.875,1.875,0,0,0,1.684.875,1.87,1.87,0,0,0,1.672-.875,3.988,3.988,0,0,0,.57-2.219V-4.3a3.976,3.976,0,0,0-.574-2.211A1.882,1.882,0,0,0,24.9-7.4a1.856,1.856,0,0,0-1.668.883A4.018,4.018,0,0,0,22.664-4.3Z" transform="translate(810.75 2221)" fill="#12263f"/>
    <path id="Trazado_883809" data-name="Trazado 883809" d="M3,0H170a3,3,0,0,1,3,3V37a3,3,0,0,1-3,3H3a3,3,0,0,1-3-3V3A3,3,0,0,1,3,0Z" transform="translate(941.75 2194)" fill="#24d6c0"/>
    <path id="Trazado_883810" data-name="Trazado 883810" d="M-14.875-2.867a1.711,1.711,0,0,0-.555-1.3,4.62,4.62,0,0,0-1.953-.891A6.5,6.5,0,0,1-20.09-6.32a2.655,2.655,0,0,1-.973-2.1,2.8,2.8,0,0,1,1.047-2.227,4.05,4.05,0,0,1,2.719-.891,3.971,3.971,0,0,1,2.863,1.02A3.088,3.088,0,0,1-13.4-8.141l-.023.047h-1.469a2.1,2.1,0,0,0-.676-1.6,2.431,2.431,0,0,0-1.73-.633,2.37,2.37,0,0,0-1.652.523,1.754,1.754,0,0,0-.574,1.359,1.518,1.518,0,0,0,.629,1.238,5.8,5.8,0,0,0,2.043.871,5.8,5.8,0,0,1,2.617,1.313,2.857,2.857,0,0,1,.9,2.141A2.657,2.657,0,0,1-14.418-.672a4.491,4.491,0,0,1-2.824.836,4.8,4.8,0,0,1-2.91-.922,2.81,2.81,0,0,1-1.223-2.469l.016-.047h1.469a1.912,1.912,0,0,0,.813,1.652,3.076,3.076,0,0,0,1.836.582,2.761,2.761,0,0,0,1.73-.492A1.6,1.6,0,0,0-14.875-2.867ZM-6.172,0q-.078-.383-.121-.676a4.96,4.96,0,0,1-.051-.59A3.589,3.589,0,0,1-7.465-.246a2.867,2.867,0,0,1-1.488.41,2.763,2.763,0,0,1-2.012-.676,2.486,2.486,0,0,1-.691-1.863,2.183,2.183,0,0,1,.98-1.895,4.579,4.579,0,0,1,2.66-.684h1.672v-.836A1.551,1.551,0,0,0-6.8-6.965,1.779,1.779,0,0,0-8.078-7.4a1.859,1.859,0,0,0-1.211.375,1.125,1.125,0,0,0-.461.9l-1.461.016-.016-.047a2.023,2.023,0,0,1,.863-1.687,3.578,3.578,0,0,1,2.371-.766,3.49,3.49,0,0,1,2.313.73A2.588,2.588,0,0,1-4.8-5.773V-1.7a7.923,7.923,0,0,0,.047.875A4.5,4.5,0,0,0-4.586,0ZM-8.727-1.125a2.739,2.739,0,0,0,1.508-.43,2.042,2.042,0,0,0,.875-.984V-3.914H-8.07a2.24,2.24,0,0,0-1.488.469,1.4,1.4,0,0,0-.559,1.1,1.159,1.159,0,0,0,.352.891A1.472,1.472,0,0,0-8.727-1.125ZM-.906,0H-2.445V-12.187H-.906ZM3.125,0H1.586V-8.453H3.125Zm0-10.617H1.586v-1.57H3.125ZM5.141-4.07a5.641,5.641,0,0,1,.871-3.289,2.807,2.807,0,0,1,2.441-1.25,3.027,3.027,0,0,1,1.316.273,2.7,2.7,0,0,1,.98.8v-4.648h1.539V0h-1.18l-.234-1.07a2.743,2.743,0,0,1-1.023.922A3.058,3.058,0,0,1,8.438.164,2.9,2.9,0,0,1,6.016-.957a4.659,4.659,0,0,1-.875-2.949Zm1.539.164A3.588,3.588,0,0,0,7.2-1.855a1.828,1.828,0,0,0,1.625.77A2.039,2.039,0,0,0,9.984-1.4a2.334,2.334,0,0,0,.766-.875V-6.219a2.37,2.37,0,0,0-.77-.832,2.033,2.033,0,0,0-1.137-.309,1.759,1.759,0,0,0-1.637.914A4.718,4.718,0,0,0,6.68-4.07ZM19.781,0Q19.7-.383,19.66-.676a4.96,4.96,0,0,1-.051-.59,3.589,3.589,0,0,1-1.121,1.02A2.867,2.867,0,0,1,17,.164a2.763,2.763,0,0,1-2.012-.676A2.486,2.486,0,0,1,14.3-2.375a2.183,2.183,0,0,1,.98-1.895,4.579,4.579,0,0,1,2.66-.684h1.672v-.836a1.551,1.551,0,0,0-.453-1.176A1.779,1.779,0,0,0,17.875-7.4a1.859,1.859,0,0,0-1.211.375,1.125,1.125,0,0,0-.461.9l-1.461.016-.016-.047a2.023,2.023,0,0,1,.863-1.687,3.578,3.578,0,0,1,2.371-.766,3.49,3.49,0,0,1,2.313.73,2.588,2.588,0,0,1,.875,2.105V-1.7a7.923,7.923,0,0,0,.047.875A4.5,4.5,0,0,0,21.367,0ZM17.227-1.125a2.739,2.739,0,0,0,1.508-.43,2.042,2.042,0,0,0,.875-.984V-3.914H17.883a2.24,2.24,0,0,0-1.488.469,1.4,1.4,0,0,0-.559,1.1,1.159,1.159,0,0,0,.352.891A1.472,1.472,0,0,0,17.227-1.125Z" transform="translate(1028.75 2221)" fill="#12263f"/>
    <path id="Trazado_883811" data-name="Trazado 883811" d="M3,0H170a3,3,0,0,1,3,3V37a3,3,0,0,1-3,3H3a3,3,0,0,1-3-3V3A3,3,0,0,1,3,0Z" transform="translate(504.75 2194)" fill="#1de4cb"/>
    <path id="Trazado_883812" data-name="Trazado 883812" d="M-20.262-5.273h-4.672V-1.2h5.469V0h-7.008V-11.375h6.922v1.211h-5.383v3.68h4.672Zm3.781-3.18.109,1.258a3.069,3.069,0,0,1,1.059-1.043,2.824,2.824,0,0,1,1.449-.371,2.759,2.759,0,0,1,2.117.8A3.515,3.515,0,0,1-11-5.336V0h-1.539V-5.3a2.287,2.287,0,0,0-.441-1.586,1.768,1.768,0,0,0-1.348-.469,2.386,2.386,0,0,0-1.207.285,2.072,2.072,0,0,0-.785.8V0h-1.539V-8.453Zm9.859-2.039v2.039h1.6v1.141h-1.6V-2.18a1.149,1.149,0,0,0,.246.836.89.89,0,0,0,.652.242,1.429,1.429,0,0,0,.3-.035,2.2,2.2,0,0,0,.273-.074l.211,1.055a1.36,1.36,0,0,1-.508.23,2.562,2.562,0,0,1-.664.09A1.993,1.993,0,0,1-7.605-.4,2.46,2.46,0,0,1-8.16-2.18V-7.312H-9.5V-8.453H-8.16v-2.039Zm7.25,3.4L-.16-7.141a1.762,1.762,0,0,0-1.027.289,1.854,1.854,0,0,0-.645.813V0H-3.371V-8.453H-2l.148,1.234A2.934,2.934,0,0,1-.961-8.242,2.073,2.073,0,0,1,.254-8.609a1.9,1.9,0,0,1,.328.027,2.175,2.175,0,0,1,.258.059ZM7.426,0Q7.348-.383,7.3-.676a4.96,4.96,0,0,1-.051-.59A3.589,3.589,0,0,1,6.133-.246a2.867,2.867,0,0,1-1.488.41A2.763,2.763,0,0,1,2.633-.512a2.486,2.486,0,0,1-.691-1.863,2.183,2.183,0,0,1,.98-1.895,4.579,4.579,0,0,1,2.66-.684H7.254v-.836A1.551,1.551,0,0,0,6.8-6.965,1.779,1.779,0,0,0,5.52-7.4a1.859,1.859,0,0,0-1.211.375,1.125,1.125,0,0,0-.461.9l-1.461.016-.016-.047a2.023,2.023,0,0,1,.863-1.687,3.578,3.578,0,0,1,2.371-.766,3.49,3.49,0,0,1,2.313.73,2.588,2.588,0,0,1,.875,2.105V-1.7a7.923,7.923,0,0,0,.047.875A4.5,4.5,0,0,0,9.012,0ZM4.871-1.125a2.739,2.739,0,0,0,1.508-.43,2.042,2.042,0,0,0,.875-.984V-3.914H5.527a2.24,2.24,0,0,0-1.488.469,1.4,1.4,0,0,0-.559,1.1,1.159,1.159,0,0,0,.352.891A1.472,1.472,0,0,0,4.871-1.125Zm5.8-2.945a5.641,5.641,0,0,1,.871-3.289,2.807,2.807,0,0,1,2.441-1.25,3.027,3.027,0,0,1,1.316.273,2.7,2.7,0,0,1,.98.8v-4.648h1.539V0h-1.18L16.41-1.07a2.743,2.743,0,0,1-1.023.922,3.058,3.058,0,0,1-1.414.313A2.9,2.9,0,0,1,11.551-.957a4.659,4.659,0,0,1-.875-2.949Zm1.539.164a3.588,3.588,0,0,0,.523,2.051,1.828,1.828,0,0,0,1.625.77A2.039,2.039,0,0,0,15.52-1.4a2.334,2.334,0,0,0,.766-.875V-6.219a2.37,2.37,0,0,0-.77-.832,2.033,2.033,0,0,0-1.137-.309,1.759,1.759,0,0,0-1.637.914,4.718,4.718,0,0,0-.527,2.375ZM25.316,0q-.078-.383-.121-.676a4.96,4.96,0,0,1-.051-.59,3.589,3.589,0,0,1-1.121,1.02,2.867,2.867,0,0,1-1.488.41,2.763,2.763,0,0,1-2.012-.676,2.486,2.486,0,0,1-.691-1.863,2.183,2.183,0,0,1,.98-1.895,4.579,4.579,0,0,1,2.66-.684h1.672v-.836a1.551,1.551,0,0,0-.453-1.176A1.779,1.779,0,0,0,23.41-7.4a1.859,1.859,0,0,0-1.211.375,1.125,1.125,0,0,0-.461.9l-1.461.016-.016-.047a2.023,2.023,0,0,1,.863-1.687A3.578,3.578,0,0,1,23.5-8.609a3.49,3.49,0,0,1,2.313.73,2.588,2.588,0,0,1,.875,2.105V-1.7a7.923,7.923,0,0,0,.047.875A4.5,4.5,0,0,0,26.9,0ZM22.762-1.125a2.739,2.739,0,0,0,1.508-.43,2.042,2.042,0,0,0,.875-.984V-3.914H23.418a2.24,2.24,0,0,0-1.488.469,1.4,1.4,0,0,0-.559,1.1,1.159,1.159,0,0,0,.352.891A1.472,1.472,0,0,0,22.762-1.125Z" transform="translate(591.75 2221)" fill="#12263f"/>
    <path id="Trazado_878088" data-name="Trazado 878088" d="M-7719.743-9486H-7602.6v-79.292" transform="translate(8631.346 11798.502)" fill="none" stroke="#3a1d71" stroke-width="2"/>
    <path id="Trazado_878089" data-name="Trazado 878089" d="M-7602.6-9486h-117.147v-79.292" transform="translate(8317.492 11801.289)" fill="none" stroke="#3a1d71" stroke-width="2"/>
    <path id="Trazado_878105" data-name="Trazado 878105" d="M15.188,4.333,0,0,15.151,23.5l.036-.047.037.047L30.375,0Z" transform="translate(612.938 2252.442) rotate(180)" fill="#3a1d71"/>
    <path id="Trazado_883813" data-name="Trazado 883813" d="M3,0H200a3,3,0,0,1,3,3V37a3,3,0,0,1-3,3H3a3,3,0,0,1-3-3V3A3,3,0,0,1,3,0Z" transform="translate(708.75 2292)" fill="#ffca28"/>
    <path id="Trazado_883814" data-name="Trazado 883814" d="M-62.922-4.93V0h-1.539V-11.367h3.891a4.32,4.32,0,0,1,2.852.828,2.968,2.968,0,0,1,.984,2.406,2.576,2.576,0,0,1-.457,1.523,3.1,3.1,0,0,1-1.332,1.031,2.331,2.331,0,0,1,1.348.988,3.236,3.236,0,0,1,.41,1.691v1.07a3.564,3.564,0,0,0,.117.953,1.429,1.429,0,0,0,.406.688V0h-1.586a1.273,1.273,0,0,1-.391-.781A6.453,6.453,0,0,1-58.3-1.844V-2.883a2.056,2.056,0,0,0-.539-1.484,1.908,1.908,0,0,0-1.445-.562Zm0-1.211h2.2a2.858,2.858,0,0,0,1.879-.5,1.89,1.89,0,0,0,.574-1.512,1.948,1.948,0,0,0-.559-1.488,2.461,2.461,0,0,0-1.738-.527h-2.352Zm11.93,6.3A3.576,3.576,0,0,1-53.832-1a4.48,4.48,0,0,1-1.02-3.062v-.344A4.386,4.386,0,0,1-53.8-7.418a3.3,3.3,0,0,1,2.566-1.191,3.067,3.067,0,0,1,2.543,1.055,4.345,4.345,0,0,1,.848,2.8v.813H-53.25l-.023.039a3.494,3.494,0,0,0,.563,2.066,1.965,1.965,0,0,0,1.719.793,3.872,3.872,0,0,0,1.371-.223,3.061,3.061,0,0,0,1.012-.613l.6,1a3.7,3.7,0,0,1-1.2.738A4.762,4.762,0,0,1-50.992.164ZM-51.234-7.4a1.673,1.673,0,0,0-1.332.621,2.938,2.938,0,0,0-.645,1.59l.016.039h3.813v-.125A2.462,2.462,0,0,0-49.836-6.8,1.638,1.638,0,0,0-51.234-7.4Zm7.258-3.094v2.039h1.6v1.141h-1.6V-2.18a1.149,1.149,0,0,0,.246.836.89.89,0,0,0,.652.242,1.429,1.429,0,0,0,.3-.035,2.2,2.2,0,0,0,.273-.074L-42.3-.156a1.36,1.36,0,0,1-.508.23,2.562,2.562,0,0,1-.664.09A1.993,1.993,0,0,1-44.961-.4a2.46,2.46,0,0,1-.555-1.777V-7.312h-1.344V-8.453h1.344v-2.039Zm7.25,3.4-.789-.047a1.762,1.762,0,0,0-1.027.289,1.855,1.855,0,0,0-.645.813V0h-1.539V-8.453h1.375l.148,1.234a2.934,2.934,0,0,1,.887-1.023A2.073,2.073,0,0,1-37.1-8.609a1.9,1.9,0,0,1,.328.027,2.175,2.175,0,0,1,.258.059ZM-35.641-4.3a4.654,4.654,0,0,1,1.016-3.09,3.406,3.406,0,0,1,2.758-1.215A3.439,3.439,0,0,1-29.09-7.4,4.639,4.639,0,0,1-28.07-4.3v.172a4.631,4.631,0,0,1-1.016,3.094,3.429,3.429,0,0,1-2.766,1.2,3.436,3.436,0,0,1-2.77-1.207,4.623,4.623,0,0,1-1.02-3.09Zm1.539.172a4.009,4.009,0,0,0,.566,2.219,1.875,1.875,0,0,0,1.684.875,1.87,1.87,0,0,0,1.672-.875,3.988,3.988,0,0,0,.57-2.219V-4.3a3.976,3.976,0,0,0-.574-2.211A1.882,1.882,0,0,0-31.867-7.4a1.856,1.856,0,0,0-1.668.883A4.018,4.018,0,0,0-34.1-4.3ZM-20.992,0q-.078-.383-.121-.676a4.96,4.96,0,0,1-.051-.59,3.589,3.589,0,0,1-1.121,1.02,2.867,2.867,0,0,1-1.488.41,2.763,2.763,0,0,1-2.012-.676,2.486,2.486,0,0,1-.691-1.863A2.183,2.183,0,0,1-25.5-4.27a4.579,4.579,0,0,1,2.66-.684h1.672v-.836a1.551,1.551,0,0,0-.453-1.176A1.779,1.779,0,0,0-22.9-7.4a1.859,1.859,0,0,0-1.211.375,1.125,1.125,0,0,0-.461.9l-1.461.016-.016-.047a2.023,2.023,0,0,1,.863-1.687,3.578,3.578,0,0,1,2.371-.766,3.49,3.49,0,0,1,2.313.73,2.588,2.588,0,0,1,.875,2.105V-1.7a7.923,7.923,0,0,0,.047.875A4.5,4.5,0,0,0-19.406,0Zm-2.555-1.125a2.739,2.739,0,0,0,1.508-.43,2.042,2.042,0,0,0,.875-.984V-3.914h-1.727a2.24,2.24,0,0,0-1.488.469,1.4,1.4,0,0,0-.559,1.1,1.159,1.159,0,0,0,.352.891A1.472,1.472,0,0,0-23.547-1.125ZM-15.727,0h-1.539V-12.187h1.539ZM-11.7,0h-1.539V-8.453H-11.7Zm0-10.617h-1.539v-1.57H-11.7Zm3.742,2.164.109,1.109a2.871,2.871,0,0,1,1.051-.934,3.158,3.158,0,0,1,1.48-.332,2.615,2.615,0,0,1,1.449.391,2.363,2.363,0,0,1,.91,1.172A3.162,3.162,0,0,1-1.895-8.191,2.769,2.769,0,0,1-.367-8.609a2.531,2.531,0,0,1,2.039.887,4.051,4.051,0,0,1,.75,2.668V0H.883V-5.07a2.81,2.81,0,0,0-.43-1.77,1.567,1.567,0,0,0-1.281-.52,1.631,1.631,0,0,0-1.277.547A2.381,2.381,0,0,0-2.68-5.43V0H-4.227V-5.07a2.772,2.772,0,0,0-.441-1.738,1.532,1.532,0,0,0-1.27-.551,2.115,2.115,0,0,0-1.156.289,1.867,1.867,0,0,0-.7.813V0H-9.328V-8.453ZM8.156.164A3.576,3.576,0,0,1,5.316-1,4.48,4.48,0,0,1,4.3-4.062v-.344A4.386,4.386,0,0,1,5.348-7.418,3.3,3.3,0,0,1,7.914-8.609a3.067,3.067,0,0,1,2.543,1.055,4.345,4.345,0,0,1,.848,2.8v.813H5.9L5.875-3.9a3.494,3.494,0,0,0,.563,2.066,1.965,1.965,0,0,0,1.719.793,3.872,3.872,0,0,0,1.371-.223,3.061,3.061,0,0,0,1.012-.613l.6,1a3.7,3.7,0,0,1-1.2.738A4.762,4.762,0,0,1,8.156.164ZM7.914-7.4a1.673,1.673,0,0,0-1.332.621,2.938,2.938,0,0,0-.645,1.59l.016.039H9.766v-.125A2.462,2.462,0,0,0,9.313-6.8,1.638,1.638,0,0,0,7.914-7.4Zm6.492-1.055L14.516-7.2a3.069,3.069,0,0,1,1.059-1.043,2.824,2.824,0,0,1,1.449-.371,2.759,2.759,0,0,1,2.117.8,3.515,3.515,0,0,1,.75,2.473V0H18.352V-5.3a2.287,2.287,0,0,0-.441-1.586,1.768,1.768,0,0,0-1.348-.469,2.386,2.386,0,0,0-1.207.285,2.072,2.072,0,0,0-.785.8V0H13.031V-8.453Zm9.859-2.039v2.039h1.6v1.141h-1.6V-2.18a1.149,1.149,0,0,0,.246.836.89.89,0,0,0,.652.242,1.429,1.429,0,0,0,.3-.035,2.2,2.2,0,0,0,.273-.074l.211,1.055a1.36,1.36,0,0,1-.508.23,2.562,2.562,0,0,1-.664.09A1.993,1.993,0,0,1,23.281-.4a2.46,2.46,0,0,1-.555-1.777V-7.312H21.383V-8.453h1.344v-2.039ZM32.711,0q-.078-.383-.121-.676a4.96,4.96,0,0,1-.051-.59,3.589,3.589,0,0,1-1.121,1.02,2.867,2.867,0,0,1-1.488.41,2.763,2.763,0,0,1-2.012-.676,2.486,2.486,0,0,1-.691-1.863,2.183,2.183,0,0,1,.98-1.895,4.579,4.579,0,0,1,2.66-.684h1.672v-.836a1.551,1.551,0,0,0-.453-1.176A1.779,1.779,0,0,0,30.8-7.4a1.859,1.859,0,0,0-1.211.375,1.125,1.125,0,0,0-.461.9l-1.461.016-.016-.047a2.023,2.023,0,0,1,.863-1.687,3.578,3.578,0,0,1,2.371-.766,3.49,3.49,0,0,1,2.313.73,2.588,2.588,0,0,1,.875,2.105V-1.7a7.923,7.923,0,0,0,.047.875A4.5,4.5,0,0,0,34.3,0ZM30.156-1.125a2.739,2.739,0,0,0,1.508-.43,2.042,2.042,0,0,0,.875-.984V-3.914H30.813a2.24,2.24,0,0,0-1.488.469,1.4,1.4,0,0,0-.559,1.1,1.159,1.159,0,0,0,.352.891A1.472,1.472,0,0,0,30.156-1.125Zm9.516.086a1.81,1.81,0,0,0,1.242-.473,1.494,1.494,0,0,0,.531-1.16h1.391l.023.047a2.428,2.428,0,0,1-.937,1.941,3.312,3.312,0,0,1-2.25.848,3.319,3.319,0,0,1-2.75-1.211,4.674,4.674,0,0,1-.969-3.016v-.328a4.654,4.654,0,0,1,.973-3,3.317,3.317,0,0,1,2.746-1.215,3.189,3.189,0,0,1,2.316.875,2.775,2.775,0,0,1,.871,2.148l-.016.047h-1.4a1.865,1.865,0,0,0-.5-1.316,1.658,1.658,0,0,0-1.27-.543,1.777,1.777,0,0,0-1.652.879,4.114,4.114,0,0,0-.52,2.129v.328a4.192,4.192,0,0,0,.512,2.148A1.776,1.776,0,0,0,39.672-1.039ZM46.352,0H44.813V-8.453h1.539Zm0-10.617H44.813v-1.57h1.539ZM48.359-4.3a4.654,4.654,0,0,1,1.016-3.09,3.406,3.406,0,0,1,2.758-1.215A3.439,3.439,0,0,1,54.91-7.4,4.639,4.639,0,0,1,55.93-4.3v.172a4.631,4.631,0,0,1-1.016,3.094,3.429,3.429,0,0,1-2.766,1.2,3.436,3.436,0,0,1-2.77-1.207,4.623,4.623,0,0,1-1.02-3.09Zm1.539.172a4.009,4.009,0,0,0,.566,2.219,1.875,1.875,0,0,0,1.684.875,1.87,1.87,0,0,0,1.672-.875,3.988,3.988,0,0,0,.57-2.219V-4.3a3.976,3.976,0,0,0-.574-2.211A1.882,1.882,0,0,0,52.133-7.4a1.856,1.856,0,0,0-1.668.883A4.018,4.018,0,0,0,49.9-4.3Zm2.992-7.906h1.8l.016.047L52.6-9.961H51.445Zm6.3,3.586L59.3-7.2a3.069,3.069,0,0,1,1.059-1.043A2.824,2.824,0,0,1,61.8-8.609a2.759,2.759,0,0,1,2.117.8,3.515,3.515,0,0,1,.75,2.473V0H63.133V-5.3a2.287,2.287,0,0,0-.441-1.586,1.768,1.768,0,0,0-1.348-.469,2.386,2.386,0,0,0-1.207.285,2.072,2.072,0,0,0-.785.8V0H57.813V-8.453Z" transform="translate(810.75 2319)" fill="#12263f"/>
    <path id="Trazado_878103" data-name="Trazado 878103" d="M15.188,19.162,0,23.495,15.151,0l.036.047L15.225,0l15.15,23.495Z" transform="translate(958.44 2199.313) rotate(90)" fill="#3a1d71"/>
    <path id="Trazado_878104" data-name="Trazado 878104" d="M15.188,19.162,0,23.495,15.151,0l.036.047L15.225,0l15.15,23.495Z" transform="translate(736.493 2199.313) rotate(90)" fill="#3a1d71"/>
  </g>
</svg>
