<svg xmlns="http://www.w3.org/2000/svg" width="80" height="80" viewBox="0 0 80 80">
  <g id="Grupo_1102036" data-name="Grupo 1102036" transform="translate(-937 -1134)">
    <path id="Trazado_883679" data-name="Trazado 883679" d="M40,0A40,40,0,1,1,0,40,40,40,0,0,1,40,0Z" transform="translate(937 1134)" fill="#00ffdf"/>
    <g id="quotation" transform="translate(953 1149.501)">
      <path id="Trazado_819819" data-name="Trazado 819819" d="M15.326,10.5h16.8a5.326,5.326,0,0,1,5.326,5.326V31.767a5.326,5.326,0,0,1-5.326,5.326H23.352v5.683l-5.683-5.683H15.326A5.326,5.326,0,0,1,10,31.767V15.825A5.326,5.326,0,0,1,15.326,10.5Z" transform="translate(-9.073 -9.073)" fill="#ffce00"/>
      <path id="SVGCleanerId_0" d="M265.136,200.5H250.606A4.606,4.606,0,0,0,246,205.105v13.788a4.606,4.606,0,0,0,4.606,4.606h2.473v4.915l4.915-4.915h7.141a4.606,4.606,0,0,0,4.606-4.606V205.105A4.606,4.606,0,0,0,265.136,200.5Z" transform="translate(-223.186 -181.452)" fill="#4dbaf6"/>
      <g id="Grupo_1072977" data-name="Grupo 1072977" transform="translate(27.641 25.122)">
        <path id="Trazado_819820" data-name="Trazado 819820" d="M391.383,276.972v-2.5q2.4-.219,2.4-3.481h-2.4a.48.48,0,0,1-.48-.48v-4.035a.48.48,0,0,1,.48-.48H395.9a.48.48,0,0,1,.48.48v4.344Q396.378,276.691,391.383,276.972Z" transform="translate(-382.291 -265.997)" fill="#4dbaf6"/>
        <path id="Trazado_819821" data-name="Trazado 819821" d="M298.529,276.972v-2.5q2.4-.219,2.4-3.481h-2.4a.48.48,0,0,1-.48-.48v-4.035a.48.48,0,0,1,.48-.48h4.516a.48.48,0,0,1,.48.48v4.344Q303.524,276.691,298.529,276.972Z" transform="translate(-298.048 -265.997)" fill="#4dbaf6"/>
      </g>
      <g id="Grupo_1072978" data-name="Grupo 1072978" transform="translate(22.814 19.047)">
        <path id="SVGCleanerId_0_1_" d="M265.136,200.5H250.606A4.606,4.606,0,0,0,246,205.105v13.788a4.606,4.606,0,0,0,4.606,4.606h2.473v4.915l4.915-4.915h7.141a4.606,4.606,0,0,0,4.606-4.606V205.105A4.606,4.606,0,0,0,265.136,200.5Z" transform="translate(-246 -200.499)" fill="#1682fb"/>
      </g>
      <g id="Grupo_1072979" data-name="Grupo 1072979" transform="translate(6.869 8.626)">
        <path id="Trazado_819822" data-name="Trazado 819822" d="M79.622,88.135V90.91q-2.671.243-2.671,3.868h2.672a.534.534,0,0,1,.534.534V99.8a.534.534,0,0,1-.534.534H74.6a.534.534,0,0,1-.534-.534V94.969Q74.071,88.447,79.622,88.135Z" transform="translate(-74.071 -88.135)" fill="#fff"/>
        <path id="Trazado_819823" data-name="Trazado 819823" d="M181.856,88.135V90.91q-2.672.243-2.671,3.868h2.672a.534.534,0,0,1,.534.534V99.8a.534.534,0,0,1-.534.534h-5.018a.534.534,0,0,1-.534-.534V94.969Q176.305,88.447,181.856,88.135Z" transform="translate(-166.824 -88.135)" fill="#fff"/>
        <path id="Trazado_819824" data-name="Trazado 819824" d="M391.383,276.972v-2.5q2.4-.219,2.4-3.481h-2.4a.48.48,0,0,1-.48-.48v-4.035a.48.48,0,0,1,.48-.48H395.9a.48.48,0,0,1,.48.48v4.344Q396.378,276.691,391.383,276.972Z" transform="translate(-361.519 -249.502)" fill="#fff"/>
        <path id="Trazado_819825" data-name="Trazado 819825" d="M298.529,276.972v-2.5q2.4-.219,2.4-3.481h-2.4a.48.48,0,0,1-.48-.48v-4.035a.48.48,0,0,1,.48-.48h4.516a.48.48,0,0,1,.48.48v4.344Q303.524,276.691,298.529,276.972Z" transform="translate(-277.276 -249.502)" fill="#fff"/>
      </g>
      <path id="Trazado_819826" data-name="Trazado 819826" d="M70.632,82.763a.927.927,0,0,0,.843-.924V79.064a.927.927,0,0,0-.98-.926c-2.931.165-6.426,1.645-6.426,7.76v4.826a1.463,1.463,0,0,0,1.461,1.461h5.018a1.463,1.463,0,0,0,1.461-1.461V86.241a1.463,1.463,0,0,0-1.461-1.461H68.861C69.115,82.9,70.154,82.806,70.632,82.763Zm-2.755,3.872h2.278v3.7h-4.23V85.9c0-4.267,1.9-5.459,3.7-5.8v.975c-1.242.378-2.671,1.494-2.671,4.629A.927.927,0,0,0,67.877,86.635Z" transform="translate(-58.128 -70.437)"/>
      <path id="Trazado_819827" data-name="Trazado 819827" d="M382.227,264.478a.927.927,0,0,0-.843.924v2.5a.928.928,0,0,0,.927.927h.052c2.678-.151,5.871-1.5,5.871-7.077V257.4A1.409,1.409,0,0,0,386.826,256h-4.516A1.409,1.409,0,0,0,380.9,257.4v4.035a1.409,1.409,0,0,0,1.408,1.408h1.413C383.488,264.363,382.659,264.438,382.227,264.478Zm1.011,1.677c1.132-.367,2.4-1.408,2.4-4.235a.927.927,0,0,0-.927-.927h-1.957v-3.141h3.622v3.9c0,3.682-1.592,4.775-3.141,5.1v-.7Z" transform="translate(-345.578 -231.803)"/>
      <path id="Trazado_819828" data-name="Trazado 819828" d="M288.048,257.4v4.035a1.409,1.409,0,0,0,1.408,1.408h1.413c-.236,1.515-1.065,1.591-1.5,1.63a.927.927,0,0,0-.843.924v2.5a.927.927,0,0,0,.927.927h.052c2.678-.151,5.871-1.5,5.871-7.077V257.4A1.409,1.409,0,0,0,293.971,256h-4.516A1.409,1.409,0,0,0,288.048,257.4Zm1.855.447h3.622v3.9c0,3.682-1.591,4.775-3.141,5.1v-.7c1.132-.367,2.4-1.408,2.4-4.235a.927.927,0,0,0-.927-.927H289.9v-3.141Z" transform="translate(-261.334 -231.803)"/>
      <path id="Trazado_819829" data-name="Trazado 819829" d="M192.831,88.557h-2.959a.927.927,0,1,0,0,1.855h2.959a3.683,3.683,0,0,1,3.679,3.679v13.788a3.683,3.683,0,0,1-3.679,3.679H185.69a.928.928,0,0,0-.656.272L181.7,115.16v-2.676a.927.927,0,0,0-.927-.927H178.3a3.683,3.683,0,0,1-3.679-3.679V94.09a3.683,3.683,0,0,1,3.679-3.679h3.462a.927.927,0,1,0,0-1.855H178.3a5.519,5.519,0,0,0-4.058,1.776V86.24a1.463,1.463,0,0,0-1.461-1.461H171.1c.254-1.879,1.293-1.974,1.771-2.017a.927.927,0,0,0,.843-.924V79.063a.927.927,0,0,0-.98-.926c-2.932.165-6.426,1.645-6.426,7.76v4.826a1.463,1.463,0,0,0,1.461,1.461h5.018a1.454,1.454,0,0,0,.34-.041,5.5,5.5,0,0,0-.355,1.947v13.788a5.54,5.54,0,0,0,5.534,5.534h1.546V117.4a.927.927,0,0,0,1.583.656l4.644-4.644h6.757a5.54,5.54,0,0,0,5.534-5.534V94.09A5.54,5.54,0,0,0,192.831,88.557ZM172.39,90.33h-4.23V85.9c0-4.267,1.9-5.459,3.7-5.8v.975c-1.242.378-2.671,1.494-2.671,4.629a.927.927,0,0,0,.927.927h2.278Z" transform="translate(-150.882 -70.437)"/>
      <path id="Trazado_819830" data-name="Trazado 819830" d="M369.927,192.354a.928.928,0,1,0-.656-.272A.934.934,0,0,0,369.927,192.354Z" transform="translate(-334.779 -172.379)"/>
      <path id="Trazado_819831" data-name="Trazado 819831" d="M296.927,155.169a.928.928,0,1,0,.656.272A.93.93,0,0,0,296.927,155.169Z" transform="translate(-268.549 -140.326)"/>
      <path id="Trazado_819832" data-name="Trazado 819832" d="M18.455,27.092H14.279a.927.927,0,0,0-.927.927v3.444l-4.1-4.1a.928.928,0,0,0-.656-.272H6.253a4.4,4.4,0,0,1-4.4-4.4V6.752a4.4,4.4,0,0,1,4.4-4.4h16.8a4.4,4.4,0,0,1,4.4,4.4v5.494a.927.927,0,0,0,1.855,0V6.752A6.26,6.26,0,0,0,23.053.5H6.253A6.26,6.26,0,0,0,0,6.752V22.694a6.26,6.26,0,0,0,6.253,6.253H8.212l5.412,5.412a.927.927,0,0,0,1.583-.656V28.947h3.249a.927.927,0,1,0,0-1.855Z"/>
    </g>
  </g>
</svg>
