<svg xmlns="http://www.w3.org/2000/svg" width="190" height="120" viewBox="0 0 190 120">
  <g id="Grupo_1074246" data-name="Grupo 1074246" transform="translate(-180 -2032)">
    <rect id="Rectángulo_382740" data-name="Rectángulo 382740" width="190" height="120" rx="13" transform="translate(180 2032)" fill="#0b47db"/>
    <g id="requirement" transform="translate(194.322 2032.982)">
      <path id="Trazado_824909" data-name="Trazado 824909" d="M118.055,155.788A16.975,16.975,0,0,1,129.306,132.6V119.7l-6.059,1.438a1.152,1.152,0,0,1-1.352-1.5l.923-3.086a1.115,1.115,0,0,1,.048-.131l1-2.87a1.143,1.143,0,0,1,.32-.531l5.125-4.837V94.144a.786.786,0,0,0-.78-.78H117.681v1.167a1.152,1.152,0,0,1-1.152,1.152H93.22a1.152,1.152,0,0,1-1.152-1.152V93.364H81.224a.786.786,0,0,0-.78.78v60.863a.786.786,0,0,0,.78.781Z" transform="translate(-30.956 -63.398)" fill="#f7f7f8" fill-rule="evenodd"/>
      <g id="Grupo_1074029" data-name="Grupo 1074029" transform="translate(55.07 39.366)">
        <path id="Trazado_824910" data-name="Trazado 824910" d="M112.779,343.212A1.148,1.148,0,1,1,114,341.269l1.594,1.007,2.543-2.774a4.149,4.149,0,1,0,1.345,1.927l-2.8,3.055a1.149,1.149,0,0,1-1.5.247Z" transform="translate(-111.399 -303.772)" fill="#3ee2a8" fill-rule="evenodd"/>
        <path id="Trazado_824911" data-name="Trazado 824911" d="M112.784,246.665a1.148,1.148,0,1,1,1.224-1.944l1.594,1.007,2.543-2.774a4.149,4.149,0,1,0,1.345,1.926l-2.8,3.055a1.149,1.149,0,0,1-1.5.247Z" transform="translate(-111.403 -224.635)" fill="#3ee2a8" fill-rule="evenodd"/>
        <path id="Trazado_824912" data-name="Trazado 824912" d="M112.784,150.116a1.148,1.148,0,1,1,1.224-1.944l1.594,1.007,2.543-2.774a4.149,4.149,0,1,0,1.345,1.926l-2.8,3.055a1.149,1.149,0,0,1-1.5.247Z" transform="translate(-111.403 -145.496)" fill="#3ee2a8" fill-rule="evenodd"/>
      </g>
      <path id="Trazado_824913" data-name="Trazado 824913" d="M163.305,33.555h-5.623V40.4h21.006v-6.85h-5.623v0a1.148,1.148,0,0,1-1.147-1.134,3.733,3.733,0,0,0-7.463-.086c0,.024,0,.048,0,.072a1.152,1.152,0,0,1-1.152,1.152Z" transform="translate(-94.266 -10.424)" fill="#6298c6" fill-rule="evenodd"/>
      <path id="Trazado_824914" data-name="Trazado 824914" d="M355.09,126.106l-2.348-2.487a.332.332,0,0,0-.232-.1.341.341,0,0,0-.244.093l-11.192,10.564a1.153,1.153,0,0,1-.115.108l-4.6,4.338,2.81,2.977.208-.2a1.16,1.16,0,0,1,.116-.108l15.58-14.707a.333.333,0,0,0,.1-.233A.341.341,0,0,0,355.09,126.106Z" transform="translate(-240.727 -88.112)" fill="#ffce00" fill-rule="evenodd"/>
      <path id="Trazado_824915" data-name="Trazado 824915" d="M326.864,221.135l1.249-.3-1.721-1.823-.4,1.151-.01.035-.368,1.23Z" transform="translate(-231.916 -166.391)" fill="#9c9c9c" fill-rule="evenodd"/>
      <path id="Trazado_824916" data-name="Trazado 824916" d="M300.873,85.526l2.2-2.079V73.662a5.3,5.3,0,0,0-5.287-5.287H286.945v2.2h10.844a3.09,3.09,0,0,1,3.084,3.084Z" transform="translate(-200.219 -42.915)" fill="#85beed" fill-rule="evenodd"/>
      <path id="Trazado_824917" data-name="Trazado 824917" d="M318.988,324.943a14.658,14.658,0,1,0,4.293,10.365A14.658,14.658,0,0,0,318.988,324.943Z" transform="translate(-205.973 -249.699)" fill="#3ee2a8" fill-rule="evenodd"/>
      <path id="Trazado_824918" data-name="Trazado 824918" d="M100.462,139.811a17.042,17.042,0,0,1-1.665-2.2H60.742a3.091,3.091,0,0,1-3.084-3.084V73.662a3.09,3.09,0,0,1,3.084-3.084H71.585v-2.2H60.741a5.3,5.3,0,0,0-5.286,5.287v60.863a5.305,5.305,0,0,0,5.286,5.287Z" transform="translate(-10.473 -42.915)" fill="#85beed" fill-rule="evenodd"/>
      <path id="Trazado_824919" data-name="Trazado 824919" d="M366.181,234.4h.205V218.231l-2.2,2.079v14.2A17.144,17.144,0,0,1,366.181,234.4Z" transform="translate(-263.53 -165.749)" fill="#85beed" fill-rule="evenodd"/>
      <path id="Trazado_824920" data-name="Trazado 824920" d="M69.705,76.205a1.152,1.152,0,1,1,0-2.3H84.84a1.152,1.152,0,1,1,0,2.3Zm0,5.563a1.152,1.152,0,1,1,0-2.3H82.419a1.152,1.152,0,1,1,0,2.3ZM63.37,73.395l.811-.885a1.147,1.147,0,1,1,1.692,1.548l-1.026,1.119a6.467,6.467,0,1,1-1.477-1.782Zm-6.92,5.412a1.148,1.148,0,1,1,1.224-1.944l1.594,1.007L61.811,75.1a4.149,4.149,0,1,0,1.345,1.927l-2.8,3.055a1.149,1.149,0,0,1-1.5.247l-2.4-1.517ZM69.7,58.8a1.152,1.152,0,0,1,0-2.3H87.2a1.152,1.152,0,1,1,0,2.3Zm0,5.563a1.152,1.152,0,0,1,0-2.3h23.39a1.152,1.152,0,1,1,0,2.3Zm-6.335-8.373.811-.885a1.147,1.147,0,0,1,1.692,1.548l-1.026,1.119a6.468,6.468,0,1,1-1.477-1.782ZM56.45,61.4a1.148,1.148,0,1,1,1.224-1.944l1.594,1.007,2.543-2.774a4.149,4.149,0,1,0,1.345,1.926l-2.8,3.055a1.149,1.149,0,0,1-1.5.247l-2.4-1.517ZM69.7,41.385a1.152,1.152,0,0,1,0-2.3H93.094a1.152,1.152,0,1,1,0,2.3Zm0,5.563a1.152,1.152,0,0,1,0-2.3H93.094a1.152,1.152,0,1,1,0,2.3ZM63.37,38.574l.811-.885a1.147,1.147,0,0,1,1.692,1.548l-1.026,1.119a6.468,6.468,0,1,1-1.477-1.782Zm-6.92,5.412a1.148,1.148,0,1,1,1.224-1.944l1.594,1.007,2.543-2.774A4.149,4.149,0,1,0,63.155,42.2l-2.8,3.055a1.148,1.148,0,0,1-1.5.247l-2.4-1.517ZM69.039,23.131H63.416v6.85H84.422v-6.85H78.8v0a1.148,1.148,0,0,1-1.147-1.134,3.733,3.733,0,0,0-7.463-.086c0,.024,0,.048,0,.072a1.152,1.152,0,0,1-1.152,1.152Zm45.324,14.863-2.348-2.487a.332.332,0,0,0-.232-.1.34.34,0,0,0-.244.093L100.348,46.059a1.155,1.155,0,0,1-.115.108l-4.6,4.338,2.81,2.977.208-.2a1.161,1.161,0,0,1,.116-.108l15.58-14.707a.333.333,0,0,0,.1-.233.341.341,0,0,0-.093-.244ZM94.948,54.744l-1.249.3.368-1.23.01-.035.4-1.151L96.2,54.447Zm5.706-12.134,2.2-2.079V30.746a5.3,5.3,0,0,0-5.287-5.287H86.725v2.2H97.569a3.09,3.09,0,0,1,3.084,3.084V42.609Zm12.362,32.635a14.658,14.658,0,1,0,4.293,10.365A14.658,14.658,0,0,0,113.016,75.245ZM87.1,92.39A16.975,16.975,0,0,1,98.35,69.2V56.3l-6.059,1.438a1.152,1.152,0,0,1-1.352-1.5l.923-3.086a1.12,1.12,0,0,1,.048-.131l1-2.87a1.143,1.143,0,0,1,.32-.531l5.125-4.837V30.746a.786.786,0,0,0-.78-.78H86.725v1.167a1.152,1.152,0,0,1-1.152,1.152H62.264a1.152,1.152,0,0,1-1.152-1.152V29.966H50.269a.786.786,0,0,0-.78.78V91.609a.786.786,0,0,0,.78.781Zm2.89,4.506a17.042,17.042,0,0,1-1.665-2.2H50.269a3.091,3.091,0,0,1-3.084-3.084V30.746a3.09,3.09,0,0,1,3.084-3.084H61.112v-2.2H50.268a5.3,5.3,0,0,0-5.286,5.287V91.609A5.3,5.3,0,0,0,50.268,96.9ZM105.16,68.832V50.308l10.767-10.163a2.643,2.643,0,0,0,.11-3.725l-2.348-2.487a2.643,2.643,0,0,0-3.725-.11l-4.8,4.536v-7.61a7.61,7.61,0,0,0-7.59-7.592H86.725V21.979a1.152,1.152,0,0,0-1.152-1.152H79.823a6.029,6.029,0,0,0-11.808,0H62.264a1.152,1.152,0,0,0-1.152,1.152v1.177H50.268a7.61,7.61,0,0,0-7.59,7.59V91.609a7.61,7.61,0,0,0,7.59,7.59H92.5a16.962,16.962,0,1,0,12.66-30.367Zm-2.509-.184a17.153,17.153,0,0,0-2,.117l0-14.2,2.2-2.079V68.649h-.205ZM94.949,88a1.148,1.148,0,1,1,1.224-1.944l4.56,2.88,8.162-8.9a1.147,1.147,0,1,1,1.692,1.548L101.82,91.14a1.149,1.149,0,0,1-1.5.247Z" fill-rule="evenodd"/>
    </g>
  </g>
</svg>
