<svg xmlns="http://www.w3.org/2000/svg" width="43.667" height="50" viewBox="0 0 43.667 50">
  <g id="Grupo_1100898" data-name="Grupo 1100898" transform="translate(-192.017 -6398.639)">
    <rect id="Rectángulo_400893" data-name="Rectángulo 400893" width="28" height="50" rx="2" transform="translate(198 6398.639)" fill="#f0c518"/>
    <g id="Grupo_1098272" data-name="Grupo 1098272" transform="translate(192.017 6402.305)">
      <g id="programador_8_" data-name="programador (8)" transform="translate(0 0)">
        <path id="Trazado_869955" data-name="Trazado 869955" d="M106.082,263.767l-4.874-1.395a1.87,1.87,0,0,1-1.356-1.8v-2.632H94.734v2.632a1.87,1.87,0,0,1-1.356,1.8L88.5,263.767a5.524,5.524,0,0,0-4,5.311v5.1h25.586v-5.1A5.524,5.524,0,0,0,106.082,263.767Z" transform="translate(-77.293 -235.944)" fill="#ffb09e"/>
        <g id="Grupo_1098403" data-name="Grupo 1098403" transform="translate(9.339 11.083)">
          <path id="Trazado_869956" data-name="Trazado 869956" d="M113.791,132.993c0,1.681-1.026,3.043-2.291,3.043s-2-1.565-2-3.245.735-2.841,2-2.841S113.791,131.312,113.791,132.993Z" transform="translate(-109.5 -129.95)" fill="#ffb09e"/>
          <path id="Trazado_869957" data-name="Trazado 869957" d="M309.19,132.993c0,1.681,1.026,3.043,2.291,3.043s2-1.565,2-3.245-.735-2.841-2-2.841S309.19,131.312,309.19,132.993Z" transform="translate(-292.159 -129.95)" fill="#ffb09e"/>
        </g>
        <path id="Trazado_869958" data-name="Trazado 869958" d="M147.629,52.426V47.385a7.409,7.409,0,0,1,14.818,0V52.4a7.409,7.409,0,1,1-14.818.028Z" transform="translate(-135.038 -36.566)" fill="#ffcebf"/>
        <path id="Trazado_869959" data-name="Trazado 869959" d="M220.642,39.976a7.457,7.457,0,0,0-1.279.11,7.411,7.411,0,0,1,6.13,7.3V52.4a7.425,7.425,0,0,1-6.142,7.312,7.426,7.426,0,0,0,8.7-7.313V47.385a7.409,7.409,0,0,0-7.409-7.409Z" transform="translate(-200.642 -36.566)" fill="#ffb09e"/>
        <path id="Trazado_869960" data-name="Trazado 869960" d="M150.955,19.277a8.977,8.977,0,0,0-.377,1.848s-1.709-1.272-1.658-1.757c.081-.774.529-5.525-1.425-5.076a17.187,17.187,0,0,1-4.391.773,17.181,17.181,0,0,1-4.391-.773c-1.955-.449-1.506,4.3-1.425,5.076.051.484-1.527,1.753-1.527,1.753a12.914,12.914,0,0,0-.508-1.844c-.154-.332-1.484-4.355.4-7.281a1.154,1.154,0,0,0,.186-.6,3.017,3.017,0,0,1,1-2.211c1.653-1.526,9.7-.674,12.864-1.67a.343.343,0,0,1,.439.245,9.546,9.546,0,0,1,.238,3.421.678.678,0,0,0,.121.51C152.623,14.579,151.191,18.769,150.955,19.277Z" transform="translate(-123.169 -6.86)" fill="#ae6c6c"/>
        <g id="Grupo_1098404" data-name="Grupo 1098404" transform="translate(24.453 0.64)">
          <path id="Trazado_869961" data-name="Trazado 869961" d="M289.6,11.693a.678.678,0,0,1-.121-.51,9.543,9.543,0,0,0-.238-3.421.343.343,0,0,0-.439-.245,11.019,11.019,0,0,1-2.088.38,9.355,9.355,0,0,1,.207,3.286.678.678,0,0,0,.121.51,7.145,7.145,0,0,1,1.055,5.148,17.423,17.423,0,0,1-.085,2.528c-.051.484,1.658,1.757,1.658,1.757a8.974,8.974,0,0,1,.377-1.848c.236-.508,1.668-4.7-.446-7.585Z" transform="translate(-286.717 -7.5)" fill="#9b5e5e"/>
        </g>
        <path id="Trazado_869962" data-name="Trazado 869962" d="M101.792,312.461V318.3a1.023,1.023,0,0,1-1.023,1.023H75.523A1.023,1.023,0,0,1,74.5,318.3v-5.837a5.764,5.764,0,0,1,4.037-5.5l5.471-1.718a.365.365,0,0,1,.465.265c.251,1.083,1.169,4.068,3.673,4.068s3.422-2.985,3.673-4.068a.365.365,0,0,1,.465-.265l5.471,1.718A5.764,5.764,0,0,1,101.792,312.461Z" transform="translate(-68.146 -279.194)" fill="#fe7ab6"/>
        <g id="Grupo_1098405" data-name="Grupo 1098405" transform="translate(23.58 26.032)">
          <path id="Trazado_869963" data-name="Trazado 869963" d="M282.507,306.961l-5.471-1.718a.365.365,0,0,0-.465.265c-.024.1-.055.228-.092.363l3.47,1.09a5.764,5.764,0,0,1,4.037,5.5V318.3a1.023,1.023,0,0,1-1.023,1.023h2.559a1.024,1.024,0,0,0,1.023-1.023v-5.837a5.764,5.764,0,0,0-4.037-5.5Z" transform="translate(-276.478 -305.226)" fill="#fe5ca7"/>
        </g>
        <path id="Trazado_869964" data-name="Trazado 869964" d="M44.506,473.4H9.215A1.715,1.715,0,0,1,7.5,471.684v-.5a.686.686,0,0,1,.686-.686H45.534a.686.686,0,0,1,.686.686v.5A1.715,1.715,0,0,1,44.506,473.4Z" transform="translate(-6.86 -430.372)" fill="#3692bc"/>
        <path id="Trazado_869965" data-name="Trazado 869965" d="M414.983,470.5h-2.559a.686.686,0,0,1,.686.686v.5A1.715,1.715,0,0,1,411.4,473.4h2.559a1.715,1.715,0,0,0,1.715-1.715v-.5A.686.686,0,0,0,414.983,470.5Z" transform="translate(-376.309 -430.373)" fill="#0681af"/>
        <path id="Trazado_869966" data-name="Trazado 869966" d="M108.465,441.229H105.4V438.5h3.07a1.365,1.365,0,1,1,0,2.729Z" transform="translate(-96.406 -401.102)" fill="#ffb09e"/>
        <path id="Trazado_869967" data-name="Trazado 869967" d="M34.813,422.682H29.2a1.116,1.116,0,0,1-1.116-1.116v-1.231a2.111,2.111,0,0,1,2.111-2.111h3.624a2.111,2.111,0,0,1,2.111,2.111v1.231A1.116,1.116,0,0,1,34.813,422.682Z" transform="translate(-25.688 -382.554)" fill="#ffcebf"/>
        <path id="Trazado_869968" data-name="Trazado 869968" d="M67.886,418.222H65.327a2.111,2.111,0,0,1,2.111,2.111v1.231a1.116,1.116,0,0,1-1.116,1.116h2.559A1.116,1.116,0,0,0,70,421.565v-1.231A2.111,2.111,0,0,0,67.886,418.222Z" transform="translate(-59.755 -382.553)" fill="#ffb09e"/>
        <path id="Trazado_869969" data-name="Trazado 869969" d="M312.97,441.229h3.07V438.5h-3.07a1.365,1.365,0,1,0,0,2.729Z" transform="translate(-285.029 -401.102)" fill="#ffb09e"/>
        <path id="Trazado_869970" data-name="Trazado 869970" d="M350.035,422.682h5.615a1.116,1.116,0,0,0,1.116-1.116v-1.231a2.111,2.111,0,0,0-2.111-2.111H351.03a2.111,2.111,0,0,0-2.111,2.111v1.231A1.116,1.116,0,0,0,350.035,422.682Z" transform="translate(-319.161 -382.554)" fill="#ffcebf"/>
        <path id="Trazado_869971" data-name="Trazado 869971" d="M388.721,418.222h-2.559a2.111,2.111,0,0,1,2.111,2.111v1.231a1.116,1.116,0,0,1-1.116,1.116h2.559a1.116,1.116,0,0,0,1.116-1.116v-1.231A2.111,2.111,0,0,0,388.721,418.222Z" transform="translate(-353.228 -382.553)" fill="#ffb09e"/>
        <path id="Trazado_869972" data-name="Trazado 869972" d="M358.532,73.606V90.431a1.829,1.829,0,0,1-1.836,1.822h-6.649a1.829,1.829,0,0,1-1.836-1.822V88.542a.376.376,0,0,0-.168-.313l-3.037-2.023a.187.187,0,0,1,0-.311l3.037-2.023a.376.376,0,0,0,.168-.313V73.606a1.829,1.829,0,0,1,1.836-1.822H356.7A1.829,1.829,0,0,1,358.532,73.606Z" transform="translate(-315.505 -65.662)" fill="#eaf6ff"/>
        <path id="Trazado_869973" data-name="Trazado 869973" d="M455.53,71.784h-2.559a1.829,1.829,0,0,1,1.836,1.822V90.431a1.829,1.829,0,0,1-1.836,1.822h2.559a1.829,1.829,0,0,0,1.836-1.822V73.606A1.829,1.829,0,0,0,455.53,71.784Z" transform="translate(-414.339 -65.662)" fill="#d8ecfe"/>
        <path id="Trazado_869974" data-name="Trazado 869974" d="M15.579,232.229H7.95a.45.45,0,0,1-.45-.45v-13.6a.45.45,0,0,1,.45-.45h7.628a.45.45,0,0,1,.45.45v13.6A.45.45,0,0,1,15.579,232.229Z" transform="translate(-6.86 -199.16)" fill="#fdb441"/>
        <path id="Trazado_869975" data-name="Trazado 869975" d="M74.781,217.73H72.222a.45.45,0,0,1,.45.45v13.6a.45.45,0,0,1-.45.45h2.559a.45.45,0,0,0,.45-.45v-13.6A.45.45,0,0,0,74.781,217.73Z" transform="translate(-66.062 -199.16)" fill="#fe9738"/>
        <g id="Grupo_1098406" data-name="Grupo 1098406" transform="translate(0 0)">
          <path id="Trazado_869982" data-name="Trazado 869982" d="M38.673,39.485h-.5a1.746,1.746,0,0,0,.067-.476V37.777a2.754,2.754,0,0,0-2.751-2.751H34.285V33.264a6.378,6.378,0,0,0-4.485-6.11l-5.471-1.718a1.008,1.008,0,0,0-.765.068,1.226,1.226,0,0,1-.366-.876v-1.4a8.1,8.1,0,0,0,4.64-5.564c3.844,1.39,4.861-6.824,1.128-7.2a7.9,7.9,0,0,0-1.111-6.007.041.041,0,0,1-.005-.03A10.106,10.106,0,0,0,27.6.748a.983.983,0,0,0-.469-.623.993.993,0,0,0-.784-.082,27.058,27.058,0,0,1-5.833.571c-3.309.118-6.167.22-7.272,1.239a3.672,3.672,0,0,0-1.21,2.666.516.516,0,0,1-.084.267A7.973,7.973,0,0,0,10.881,9.8c.019.231.045.455.075.67-3.647.486-2.606,8.564,1.2,7.194A8.093,8.093,0,0,0,16.8,23.238v1.39a1.225,1.225,0,0,1-.366.876,1.009,1.009,0,0,0-.765-.068L10.2,27.154c-.132.041-.262.089-.391.139V19.017a1.091,1.091,0,0,0-1.09-1.09H1.09A1.091,1.091,0,0,0,0,19.017v13.6a1.091,1.091,0,0,0,1.09,1.09H5.714v1.321H4.506a2.754,2.754,0,0,0-2.751,2.751v1.231a1.75,1.75,0,0,0,.067.476h-.5A1.327,1.327,0,0,0,0,40.811v.5a2.357,2.357,0,0,0,2.354,2.354h7a.64.64,0,0,0,0-1.279h-7A1.076,1.076,0,0,1,1.279,41.31v-.5a.047.047,0,0,1,.047-.047H38.673a.047.047,0,0,1,.047.047v.5a1.076,1.076,0,0,1-1.075,1.075H12.281a.64.64,0,0,0,0,1.279H37.645A2.357,2.357,0,0,0,40,41.31v-.5a1.328,1.328,0,0,0-1.326-1.326ZM30.021,13.921c-.01,1.542-.706,3.165-1.989,2.418.011-.169.017-.339.017-.51V14.3a7.838,7.838,0,0,1,.317-1.615,8.971,8.971,0,0,0,.319-.963c.984.019,1.336,1.145,1.336,2.2Zm-17-8.441a1.8,1.8,0,0,0,.288-.93,2.389,2.389,0,0,1,.8-1.756C16.13,1.465,23.776,2.2,26.426,1.351a8.542,8.542,0,0,1,.161,2.866,1.31,1.31,0,0,0,.236.99c1.823,2.489.682,6.292.382,6.937h0a4.375,4.375,0,0,0-.26.907,3.593,3.593,0,0,1-.548-.585c.162-1.624.25-4.369-.838-5.333a1.493,1.493,0,0,0-1.377-.329c-.464.106-.867.207-1.222.3-2.972.826-4.375.435-7.274-.3a1.493,1.493,0,0,0-1.378.329c-1.091.966-1,3.723-.836,5.346a3.343,3.343,0,0,1-.506.587,6.3,6.3,0,0,0-.3-.921c-.016-.036-1.424-3.9.361-6.666ZM11.339,16.527c-1.564-.008-2.012-4.568-.137-4.8a6.481,6.481,0,0,0,.3.956,11.215,11.215,0,0,1,.449,1.641v1.533c0,.162.005.322.015.483a1.181,1.181,0,0,1-.627.187Zm1.892-.669v-1.3c1.6-1.346,1.545-1.926,1.524-2.121-.225-2.15-.06-3.937.4-4.347.036-.032.086-.076.243-.04a18.248,18.248,0,0,0,4.534.789,18.247,18.247,0,0,0,4.535-.789c.158-.036.207.008.243.04.463.41.628,2.2.4,4.346-.023.221-.082.793,1.654,2.141v1.25a6.8,6.8,0,0,1-11.559,4.8A6.711,6.711,0,0,1,13.231,15.857Zm6.756,8.035a8.054,8.054,0,0,0,1.933-.235v.971a2.5,2.5,0,0,0,1.006,2.009c-1.149,4.144-4.705,4.134-5.85,0a2.5,2.5,0,0,0,1.006-2.009v-.962A8.1,8.1,0,0,0,19.986,23.892ZM1.279,19.206H8.529v13.22H1.279Zm5.714,14.5H8.718a1.091,1.091,0,0,0,1.09-1.09V28.691a5.153,5.153,0,0,1,.774-.316l5.194-1.631c1.424,5.714,7.031,5.7,8.448,0l5.194,1.631a5.1,5.1,0,0,1,3.589,4.889v1.763H31.869a2.755,2.755,0,0,0-2.553,1.729H27.94a2.014,2.014,0,0,0-1.868,2.729H13.927a2.014,2.014,0,0,0-1.868-2.729H10.684A2.755,2.755,0,0,0,8.13,35.027H6.994Zm1.268,5.78V38.7a.64.64,0,0,0-1.279,0v.782H5.789V38.7a.64.64,0,0,0-1.279,0v.782h-1a.477.477,0,0,1-.476-.476V37.777a1.473,1.473,0,0,1,1.472-1.472H8.13A1.473,1.473,0,0,1,9.6,37.777v1.231a.477.477,0,0,1-.476.476Zm2.552,0a1.746,1.746,0,0,0,.067-.476v-.974h1.178a.725.725,0,0,1,0,1.45Zm16.4-.725a.726.726,0,0,1,.725-.725h1.178v.974a1.75,1.75,0,0,0,.067.476H27.94a.726.726,0,0,1-.725-.725Zm8.275.725V38.7a.64.64,0,0,0-1.279,0v.782H33.017V38.7a.64.64,0,0,0-1.279,0v.782h-.864a.477.477,0,0,1-.476-.476V37.777a1.473,1.473,0,0,1,1.472-1.472h3.624a1.473,1.473,0,0,1,1.472,1.472v1.231a.477.477,0,0,1-.476.476Z" transform="translate(0 0.003)"/>
          <path id="Trazado_869983" data-name="Trazado 869983" d="M351.672,69.841a.64.64,0,0,0,.64-.64V66.74a2.471,2.471,0,0,0-2.476-2.461h-6.649a2.471,2.471,0,0,0-2.476,2.461v9.812l-2.92,1.945a.826.826,0,0,0,0,1.376l2.92,1.945v1.747a2.472,2.472,0,0,0,2.476,2.462h6.649a2.471,2.471,0,0,0,2.476-2.462V72.243a.64.64,0,0,0-1.279,0V83.566a1.191,1.191,0,0,1-1.2,1.182h-6.649a1.191,1.191,0,0,1-1.2-1.182V81.677a1.014,1.014,0,0,0-.453-.845l-2.471-1.647,2.471-1.647a1.014,1.014,0,0,0,.453-.845V66.74a1.191,1.191,0,0,1,1.2-1.182h6.649a1.191,1.191,0,0,1,1.2,1.182V69.2A.64.64,0,0,0,351.672,69.841Z" transform="translate(-308.644 -58.797)"/>
          <path id="Trazado_869984" data-name="Trazado 869984" d="M412.549,109.829H413.9a.64.64,0,0,0,0-1.279h-1.348A.64.64,0,0,0,412.549,109.829Z" transform="translate(-376.783 -99.292)"/>
          <path id="Trazado_869985" data-name="Trazado 869985" d="M416.626,132.551h-4.077a.64.64,0,0,0,0,1.279h4.077A.64.64,0,0,0,416.626,132.551Z" transform="translate(-376.783 -121.246)"/>
          <path id="Trazado_869986" data-name="Trazado 869986" d="M416.626,156.551h-4.077a.64.64,0,0,0,0,1.279h4.077A.64.64,0,0,0,416.626,156.551Z" transform="translate(-376.783 -143.199)"/>
          <path id="Trazado_869987" data-name="Trazado 869987" d="M412.549,203.627H413.9a.64.64,0,0,0,0-1.279h-1.348A.64.64,0,0,0,412.549,203.627Z" transform="translate(-376.783 -185.09)"/>
          <path id="Trazado_869988" data-name="Trazado 869988" d="M416.626,226.348h-4.077a.64.64,0,0,0,0,1.279h4.077A.64.64,0,0,0,416.626,226.348Z" transform="translate(-376.783 -207.043)"/>
          <path id="Trazado_869989" data-name="Trazado 869989" d="M416.626,250.348h-4.077a.64.64,0,0,0,0,1.279h4.077A.64.64,0,0,0,416.626,250.348Z" transform="translate(-376.783 -228.997)"/>
          <path id="Trazado_869990" data-name="Trazado 869990" d="M170.107,387.32l2.177,1.814a.64.64,0,0,0,.819-.983l-1.587-1.323,1.587-1.323a.64.64,0,0,0-.819-.983l-2.177,1.814A.644.644,0,0,0,170.107,387.32Z" transform="translate(-155.391 -351.592)"/>
          <path id="Trazado_869991" data-name="Trazado 869991" d="M262.658,389.052a.64.64,0,0,0,.9.082l2.177-1.814a.644.644,0,0,0,0-.983l-2.177-1.814a.64.64,0,0,0-.819.983l1.588,1.323-1.588,1.323A.64.64,0,0,0,262.658,389.052Z" transform="translate(-240.121 -351.592)"/>
          <path id="Trazado_869992" data-name="Trazado 869992" d="M215.155,378.645a.641.641,0,0,0,.837-.344l2.419-5.806a.64.64,0,1,0-1.181-.492l-2.419,5.806A.64.64,0,0,0,215.155,378.645Z" transform="translate(-196.445 -339.916)"/>
          <path id="Trazado_869993" data-name="Trazado 869993" d="M29.035,244.507h2.1a.64.64,0,0,0,0-1.279h-2.1A.64.64,0,0,0,29.035,244.507Z" transform="translate(-25.978 -222.484)"/>
          <path id="Trazado_869994" data-name="Trazado 869994" d="M31.139,340.562h-2.1a.64.64,0,0,0,0,1.279h2.1A.64.64,0,0,0,31.139,340.562Z" transform="translate(-25.979 -311.517)"/>
          <path id="Trazado_869995" data-name="Trazado 869995" d="M32.588,267.561H29.036a.64.64,0,0,0,0,1.279h3.553A.64.64,0,0,0,32.588,267.561Z" transform="translate(-25.979 -244.742)"/>
          <path id="Trazado_869996" data-name="Trazado 869996" d="M32.588,291.895H29.036a.64.64,0,0,0,0,1.279h3.553A.64.64,0,0,0,32.588,291.895Z" transform="translate(-25.979 -267)"/>
        </g>
      </g>
    </g>
  </g>
</svg>
